  0
SECTION
  2
HEADER
  9
$ACADVER
  1
AC1009
  9
$FILLMODE
 70
0
  9
$EXTMIN
 10
-5.1435
 20
-6.8580
 30
0.0000
  9
$EXTMAX
 10
107.1880
 20
81.0006
 30
0.0000
  0
ENDSEC
  0
SECTION
  2
TABLES
  0
TABLE
  2
LTYPE
 70
1
  0
LTYPE
  2
CONTINUOUS
 70
64
  3
Solid line
 72
65
 73
0
 40
0
  0
ENDTAB
  0
TABLE
  2
LAYER
 70
255
  0
LAYER
  2
16
 70
64
 62
174
  6
CONTINUOUS
  0
LAYER
  2
17
 70
64
 62
94
  6
CONTINUOUS
  0
LAYER
  2
20
 70
64
 62
178
  6
CONTINUOUS
  0
LAYER
  2
44
 70
64
 62
250
  6
CONTINUOUS
  0
LAYER
  2
45
 70
64
 62
250
  6
CONTINUOUS
  0
ENDTAB
  0
ENDSEC
  0
SECTION
  2
BLOCKS
  0
BLOCK
  8
0
  2
RECT
 70
64
 10
0.0000
 20
0.0000
 30
0.0000
  3
RECT
  0
SOLID
  8
0
 10
-0.5000
 20
-0.5000
 30
0.0000
 11
0.5000
 21
-0.5000
 31
0.0000
 12
-0.5000
 22
0.5000
 32
0.0000
 13
0.5000
 23
0.5000
 33
0.0000
  0
ENDBLK
  8
0
  0
BLOCK
  8
0
  2
PIE
 70
64
 10
0.0000
 20
0.0000
 30
0.0000
  3
PIE
  0
CIRCLE
  8
0
 10
0.0000
 20
0.0000
 30
0.0000
 40
0.5000
  0
ENDBLK
  8
0
  0
BLOCK
  8
0
  2
OCTAGONP
 70
64
 10
0.0000
 20
0.0000
 30
0.0000
  3
OCTAGONP
  0
POLYLINE
  8
0
 66
1
 10
0.0000
 20
0.0000
 30
0.0000
 40
0.0000
 41
0.0000
 70
1
  0
VERTEX
  8
0
 10
-0.5000
 20
-0.2071
 30
0.0000
  0
VERTEX
  8
0
 10
-0.5000
 20
0.2071
 30
0.0000
  0
VERTEX
  8
0
 10
-0.2071
 20
0.5000
 30
0.0000
  0
VERTEX
  8
0
 10
0.2071
 20
0.5000
 30
0.0000
  0
VERTEX
  8
0
 10
0.5000
 20
0.2071
 30
0.0000
  0
VERTEX
  8
0
 10
0.5000
 20
-0.2071
 30
0.0000
  0
VERTEX
  8
0
 10
0.2071
 20
-0.5000
 30
0.0000
  0
VERTEX
  8
0
 10
-0.2071
 20
-0.5000
 30
0.0000
  0
SEQEND
  8
0
  0
ENDBLK
  8
0
  0
BLOCK
  8
0
  2
SQUAREP
 70
64
 10
0.0000
 20
0.0000
 30
0.0000
  3
SQUAREP
  0
SOLID
  8
0
 10
-0.5000
 20
-0.5000
 30
0.0000
 11
0.5000
 21
-0.5000
 31
0.0000
 12
-0.5000
 22
0.5000
 32
0.0000
 13
0.5000
 23
0.5000
 33
0.0000
  0
ENDBLK
  8
0
  0
BLOCK
  8
0
  2
ROUNDP
 70
64
 10
0.0000
 20
0.0000
 30
0.0000
  3
ROUNDP
  0
CIRCLE
  8
0
 10
0.0000
 20
0.0000
 30
0.0000
 40
0.5000
  0
ENDBLK
  8
0
  0
BLOCK
  8
0
  2
ANNULUSP
 70
64
 10
0.0000
 20
0.0000
 30
0.0000
  3
ANNULUSP
  0
CIRCLE
  8
0
 10
0.0000
 20
0.0000
 30
0.0000
 40
0.5000
  0
ENDBLK
  8
0
  0
BLOCK
  8
0
  2
THERMALP
 70
64
 10
0.0000
 20
0.0000
 30
0.0000
  3
THERMALP
  0
LINE
  8
0
 10
-0.2379
 20
0.4500
 30
0.0000
 11
0.2379
 21
0.4500
 31
0.0000
  0
LINE
  8
0
 10
0.4500
 20
0.2379
 30
0.0000
 11
0.4500
 21
-0.2379
 31
0.0000
  0
LINE
  8
0
 10
0.2379
 20
-0.4500
 30
0.0000
 11
-0.2379
 21
-0.4500
 31
0.0000
  0
LINE
  8
0
 10
-0.4500
 20
-0.2379
 30
0.0000
 11
-0.4500
 21
0.2379
 31
0.0000
  0
ENDBLK
  8
0
  0
BLOCK
  8
0
  2
OCTAGONV
 70
64
 10
0.0000
 20
0.0000
 30
0.0000
  3
OCTAGONV
  0
POLYLINE
  8
0
 66
1
 10
0.0000
 20
0.0000
 30
0.0000
 40
0.0000
 41
0.0000
 70
1
  0
VERTEX
  8
0
 10
-0.5000
 20
-0.2071
 30
0.0000
  0
VERTEX
  8
0
 10
-0.5000
 20
0.2071
 30
0.0000
  0
VERTEX
  8
0
 10
-0.2071
 20
0.5000
 30
0.0000
  0
VERTEX
  8
0
 10
0.2071
 20
0.5000
 30
0.0000
  0
VERTEX
  8
0
 10
0.5000
 20
0.2071
 30
0.0000
  0
VERTEX
  8
0
 10
0.5000
 20
-0.2071
 30
0.0000
  0
VERTEX
  8
0
 10
0.2071
 20
-0.5000
 30
0.0000
  0
VERTEX
  8
0
 10
-0.2071
 20
-0.5000
 30
0.0000
  0
SEQEND
  8
0
  0
ENDBLK
  8
0
  0
BLOCK
  8
0
  2
SQUAREV
 70
64
 10
0.0000
 20
0.0000
 30
0.0000
  3
SQUAREV
  0
SOLID
  8
0
 10
-0.5000
 20
-0.5000
 30
0.0000
 11
0.5000
 21
-0.5000
 31
0.0000
 12
-0.5000
 22
0.5000
 32
0.0000
 13
0.5000
 23
0.5000
 33
0.0000
  0
ENDBLK
  8
0
  0
BLOCK
  8
0
  2
ROUNDV
 70
64
 10
0.0000
 20
0.0000
 30
0.0000
  3
ROUNDV
  0
CIRCLE
  8
0
 10
0.0000
 20
0.0000
 30
0.0000
 40
0.5000
  0
ENDBLK
  8
0
  0
BLOCK
  8
0
  2
ANNULUSV
 70
64
 10
0.0000
 20
0.0000
 30
0.0000
  3
ANNULUSV
  0
CIRCLE
  8
0
 10
0.0000
 20
0.0000
 30
0.0000
 40
0.5000
  0
ENDBLK
  8
0
  0
BLOCK
  8
0
  2
THERMALV
 70
64
 10
0.0000
 20
0.0000
 30
0.0000
  3
THERMALV
  0
LINE
  8
0
 10
-0.2379
 20
0.4500
 30
0.0000
 11
0.2379
 21
0.4500
 31
0.0000
  0
LINE
  8
0
 10
0.4500
 20
0.2379
 30
0.0000
 11
0.4500
 21
-0.2379
 31
0.0000
  0
LINE
  8
0
 10
0.2379
 20
-0.4500
 30
0.0000
 11
-0.2379
 21
-0.4500
 31
0.0000
  0
LINE
  8
0
 10
-0.4500
 20
-0.2379
 30
0.0000
 11
-0.4500
 21
0.2379
 31
0.0000
  0
ENDBLK
  8
0
  0
BLOCK
  8
0
  2
LONGP100
 70
64
 10
0.0000
 20
0.0000
 30
0.0000
  3
LONGP100
  0
POLYLINE
  8
0
 66
1
 10
0.0000
 20
0.0000
 30
0.0000
 40
0.0000
 41
0.0000
 70
1
  0
VERTEX
  8
0
 10
-0.5000
 20
-0.5000
 30
0.0000
  0
VERTEX
  8
0
 10
0.5000
 20
-0.5000
 30
0.0000
 42
1.0000
  0
VERTEX
  8
0
 10
0.5000
 20
0.5000
 30
0.0000
  0
VERTEX
  8
0
 10
-0.5000
 20
0.5000
 30
0.0000
 42
1.0000
  0
SEQEND
  8
0
  0
ENDBLK
  8
0
  0
ENDSEC
  0
SECTION
  2
ENTITIES
  0
LINE
  8
20
 10
0.0000
 20
0.0000
 30
0.0000
 11
105.0800
 21
0.0000
 31
0.0000
  0
LINE
  8
20
 10
105.0800
 20
0.0000
 30
0.0000
 11
105.0800
 21
80.0000
 31
0.0000
  0
LINE
  8
20
 10
105.0800
 20
80.0000
 30
0.0000
 11
0.0000
 21
80.0000
 31
0.0000
  0
LINE
  8
20
 10
0.0000
 20
80.0000
 30
0.0000
 11
0.0000
 21
0.0000
 31
0.0000
  0
CIRCLE
  8
20
 10
16.5100
 20
71.1200
 30
0.0000
 40
1.6000
  0
CIRCLE
  8
20
 10
15.2400
 20
22.8600
 30
0.0000
 40
1.6000
  0
CIRCLE
  8
20
 10
67.3100
 20
55.8800
 30
0.0000
 40
1.6000
  0
CIRCLE
  8
20
 10
67.3100
 20
27.9400
 30
0.0000
 40
1.6000
  0
CIRCLE
  8
20
 10
91.4400
 20
71.1200
 30
0.0000
 40
1.6000
  0
CIRCLE
  8
20
 10
97.7900
 20
22.8600
 30
0.0000
 40
1.6000
  0
INSERT
  8
17
  2
ROUNDP
 10
64.7700
 20
71.1200
 30
0.0000
 41
1.8796
 42
1.8796
 43
1.0000
 50
90.0000
  0
CIRCLE
  8
44
 10
64.7700
 20
71.1200
 30
0.0000
 40
0.5080
  0
INSERT
  8
17
  2
ROUNDP
 10
62.2300
 20
71.1200
 30
0.0000
 41
1.8796
 42
1.8796
 43
1.0000
 50
90.0000
  0
CIRCLE
  8
44
 10
62.2300
 20
71.1200
 30
0.0000
 40
0.5080
  0
INSERT
  8
17
  2
ROUNDP
 10
59.6900
 20
71.1200
 30
0.0000
 41
1.8796
 42
1.8796
 43
1.0000
 50
90.0000
  0
CIRCLE
  8
44
 10
59.6900
 20
71.1200
 30
0.0000
 40
0.5080
  0
INSERT
  8
17
  2
ROUNDP
 10
57.1500
 20
71.1200
 30
0.0000
 41
1.8796
 42
1.8796
 43
1.0000
 50
90.0000
  0
CIRCLE
  8
44
 10
57.1500
 20
71.1200
 30
0.0000
 40
0.5080
  0
INSERT
  8
17
  2
ROUNDP
 10
36.8300
 20
22.8600
 30
0.0000
 41
1.8796
 42
1.8796
 43
1.0000
 50
90.0000
  0
CIRCLE
  8
44
 10
36.8300
 20
22.8600
 30
0.0000
 40
0.5080
  0
INSERT
  8
17
  2
ROUNDP
 10
54.6100
 20
71.1200
 30
0.0000
 41
1.8796
 42
1.8796
 43
1.0000
 50
90.0000
  0
CIRCLE
  8
44
 10
54.6100
 20
71.1200
 30
0.0000
 40
0.5080
  0
INSERT
  8
17
  2
ROUNDP
 10
52.0700
 20
71.1200
 30
0.0000
 41
1.8796
 42
1.8796
 43
1.0000
 50
90.0000
  0
CIRCLE
  8
44
 10
52.0700
 20
71.1200
 30
0.0000
 40
0.5080
  0
INSERT
  8
17
  2
ROUNDP
 10
39.3700
 20
22.8600
 30
0.0000
 41
1.8796
 42
1.8796
 43
1.0000
 50
90.0000
  0
CIRCLE
  8
44
 10
39.3700
 20
22.8600
 30
0.0000
 40
0.5080
  0
INSERT
  8
17
  2
ROUNDP
 10
95.2500
 20
71.1200
 30
0.0000
 41
1.8796
 42
1.8796
 43
1.0000
 50
90.0000
  0
CIRCLE
  8
44
 10
95.2500
 20
71.1200
 30
0.0000
 40
0.5080
  0
INSERT
  8
17
  2
ROUNDP
 10
97.7900
 20
71.1200
 30
0.0000
 41
1.8796
 42
1.8796
 43
1.0000
 50
90.0000
  0
CIRCLE
  8
44
 10
97.7900
 20
71.1200
 30
0.0000
 40
0.5080
  0
INSERT
  8
17
  2
ROUNDP
 10
49.5300
 20
71.1200
 30
0.0000
 41
1.8796
 42
1.8796
 43
1.0000
 50
90.0000
  0
CIRCLE
  8
44
 10
49.5300
 20
71.1200
 30
0.0000
 40
0.5080
  0
INSERT
  8
17
  2
ROUNDP
 10
46.9900
 20
71.1200
 30
0.0000
 41
1.8796
 42
1.8796
 43
1.0000
 50
90.0000
  0
CIRCLE
  8
44
 10
46.9900
 20
71.1200
 30
0.0000
 40
0.5080
  0
INSERT
  8
17
  2
ROUNDP
 10
42.9260
 20
71.1200
 30
0.0000
 41
1.8796
 42
1.8796
 43
1.0000
 50
90.0000
  0
CIRCLE
  8
44
 10
42.9260
 20
71.1200
 30
0.0000
 40
0.5080
  0
INSERT
  8
17
  2
ROUNDP
 10
40.3860
 20
71.1200
 30
0.0000
 41
1.8796
 42
1.8796
 43
1.0000
 50
90.0000
  0
CIRCLE
  8
44
 10
40.3860
 20
71.1200
 30
0.0000
 40
0.5080
  0
INSERT
  8
17
  2
ROUNDP
 10
37.8460
 20
71.1200
 30
0.0000
 41
1.8796
 42
1.8796
 43
1.0000
 50
90.0000
  0
CIRCLE
  8
44
 10
37.8460
 20
71.1200
 30
0.0000
 40
0.5080
  0
INSERT
  8
17
  2
ROUNDP
 10
35.3060
 20
71.1200
 30
0.0000
 41
1.8796
 42
1.8796
 43
1.0000
 50
90.0000
  0
CIRCLE
  8
44
 10
35.3060
 20
71.1200
 30
0.0000
 40
0.5080
  0
INSERT
  8
17
  2
ROUNDP
 10
32.7660
 20
71.1200
 30
0.0000
 41
1.8796
 42
1.8796
 43
1.0000
 50
90.0000
  0
CIRCLE
  8
44
 10
32.7660
 20
71.1200
 30
0.0000
 40
0.5080
  0
INSERT
  8
17
  2
ROUNDP
 10
30.2260
 20
71.1200
 30
0.0000
 41
1.8796
 42
1.8796
 43
1.0000
 50
90.0000
  0
CIRCLE
  8
44
 10
30.2260
 20
71.1200
 30
0.0000
 40
0.5080
  0
INSERT
  8
17
  2
ROUNDP
 10
69.8500
 20
71.1200
 30
0.0000
 41
1.8796
 42
1.8796
 43
1.0000
 50
90.0000
  0
CIRCLE
  8
44
 10
69.8500
 20
71.1200
 30
0.0000
 40
0.5080
  0
INSERT
  8
17
  2
ROUNDP
 10
72.3900
 20
71.1200
 30
0.0000
 41
1.8796
 42
1.8796
 43
1.0000
 50
90.0000
  0
CIRCLE
  8
44
 10
72.3900
 20
71.1200
 30
0.0000
 40
0.5080
  0
INSERT
  8
17
  2
ROUNDP
 10
74.9300
 20
71.1200
 30
0.0000
 41
1.8796
 42
1.8796
 43
1.0000
 50
90.0000
  0
CIRCLE
  8
44
 10
74.9300
 20
71.1200
 30
0.0000
 40
0.5080
  0
INSERT
  8
17
  2
ROUNDP
 10
77.4700
 20
71.1200
 30
0.0000
 41
1.8796
 42
1.8796
 43
1.0000
 50
90.0000
  0
CIRCLE
  8
44
 10
77.4700
 20
71.1200
 30
0.0000
 40
0.5080
  0
INSERT
  8
17
  2
ROUNDP
 10
80.0100
 20
71.1200
 30
0.0000
 41
1.8796
 42
1.8796
 43
1.0000
 50
90.0000
  0
CIRCLE
  8
44
 10
80.0100
 20
71.1200
 30
0.0000
 40
0.5080
  0
INSERT
  8
17
  2
ROUNDP
 10
82.5500
 20
71.1200
 30
0.0000
 41
1.8796
 42
1.8796
 43
1.0000
 50
90.0000
  0
CIRCLE
  8
44
 10
82.5500
 20
71.1200
 30
0.0000
 40
0.5080
  0
INSERT
  8
17
  2
ROUNDP
 10
85.0900
 20
71.1200
 30
0.0000
 41
1.8796
 42
1.8796
 43
1.0000
 50
90.0000
  0
CIRCLE
  8
44
 10
85.0900
 20
71.1200
 30
0.0000
 40
0.5080
  0
INSERT
  8
17
  2
ROUNDP
 10
87.6300
 20
71.1200
 30
0.0000
 41
1.8796
 42
1.8796
 43
1.0000
 50
90.0000
  0
CIRCLE
  8
44
 10
87.6300
 20
71.1200
 30
0.0000
 40
0.5080
  0
INSERT
  8
17
  2
OCTAGONP
 10
95.2500
 20
68.5800
 30
0.0000
 41
1.8796
 42
1.8796
 43
1.0000
 50
90.0000
  0
CIRCLE
  8
44
 10
95.2500
 20
68.5800
 30
0.0000
 40
0.5080
  0
INSERT
  8
17
  2
OCTAGONP
 10
97.7900
 20
68.5800
 30
0.0000
 41
1.8796
 42
1.8796
 43
1.0000
 50
90.0000
  0
CIRCLE
  8
44
 10
97.7900
 20
68.5800
 30
0.0000
 40
0.5080
  0
INSERT
  8
17
  2
OCTAGONP
 10
95.2500
 20
66.0400
 30
0.0000
 41
1.8796
 42
1.8796
 43
1.0000
 50
90.0000
  0
CIRCLE
  8
44
 10
95.2500
 20
66.0400
 30
0.0000
 40
0.5080
  0
INSERT
  8
17
  2
OCTAGONP
 10
97.7900
 20
66.0400
 30
0.0000
 41
1.8796
 42
1.8796
 43
1.0000
 50
90.0000
  0
CIRCLE
  8
44
 10
97.7900
 20
66.0400
 30
0.0000
 40
0.5080
  0
INSERT
  8
17
  2
OCTAGONP
 10
95.2500
 20
63.5000
 30
0.0000
 41
1.8796
 42
1.8796
 43
1.0000
 50
90.0000
  0
CIRCLE
  8
44
 10
95.2500
 20
63.5000
 30
0.0000
 40
0.5080
  0
INSERT
  8
17
  2
OCTAGONP
 10
97.7900
 20
63.5000
 30
0.0000
 41
1.8796
 42
1.8796
 43
1.0000
 50
90.0000
  0
CIRCLE
  8
44
 10
97.7900
 20
63.5000
 30
0.0000
 40
0.5080
  0
INSERT
  8
17
  2
OCTAGONP
 10
95.2500
 20
60.9600
 30
0.0000
 41
1.8796
 42
1.8796
 43
1.0000
 50
90.0000
  0
CIRCLE
  8
44
 10
95.2500
 20
60.9600
 30
0.0000
 40
0.5080
  0
INSERT
  8
17
  2
OCTAGONP
 10
97.7900
 20
60.9600
 30
0.0000
 41
1.8796
 42
1.8796
 43
1.0000
 50
90.0000
  0
CIRCLE
  8
44
 10
97.7900
 20
60.9600
 30
0.0000
 40
0.5080
  0
INSERT
  8
17
  2
OCTAGONP
 10
95.2500
 20
58.4200
 30
0.0000
 41
1.8796
 42
1.8796
 43
1.0000
 50
90.0000
  0
CIRCLE
  8
44
 10
95.2500
 20
58.4200
 30
0.0000
 40
0.5080
  0
INSERT
  8
17
  2
OCTAGONP
 10
97.7900
 20
58.4200
 30
0.0000
 41
1.8796
 42
1.8796
 43
1.0000
 50
90.0000
  0
CIRCLE
  8
44
 10
97.7900
 20
58.4200
 30
0.0000
 40
0.5080
  0
INSERT
  8
17
  2
OCTAGONP
 10
95.2500
 20
55.8800
 30
0.0000
 41
1.8796
 42
1.8796
 43
1.0000
 50
90.0000
  0
CIRCLE
  8
44
 10
95.2500
 20
55.8800
 30
0.0000
 40
0.5080
  0
INSERT
  8
17
  2
OCTAGONP
 10
97.7900
 20
55.8800
 30
0.0000
 41
1.8796
 42
1.8796
 43
1.0000
 50
90.0000
  0
CIRCLE
  8
44
 10
97.7900
 20
55.8800
 30
0.0000
 40
0.5080
  0
INSERT
  8
17
  2
OCTAGONP
 10
95.2500
 20
53.3400
 30
0.0000
 41
1.8796
 42
1.8796
 43
1.0000
 50
90.0000
  0
CIRCLE
  8
44
 10
95.2500
 20
53.3400
 30
0.0000
 40
0.5080
  0
INSERT
  8
17
  2
OCTAGONP
 10
97.7900
 20
53.3400
 30
0.0000
 41
1.8796
 42
1.8796
 43
1.0000
 50
90.0000
  0
CIRCLE
  8
44
 10
97.7900
 20
53.3400
 30
0.0000
 40
0.5080
  0
INSERT
  8
17
  2
OCTAGONP
 10
95.2500
 20
50.8000
 30
0.0000
 41
1.8796
 42
1.8796
 43
1.0000
 50
90.0000
  0
CIRCLE
  8
44
 10
95.2500
 20
50.8000
 30
0.0000
 40
0.5080
  0
INSERT
  8
17
  2
OCTAGONP
 10
97.7900
 20
50.8000
 30
0.0000
 41
1.8796
 42
1.8796
 43
1.0000
 50
90.0000
  0
CIRCLE
  8
44
 10
97.7900
 20
50.8000
 30
0.0000
 40
0.5080
  0
INSERT
  8
17
  2
OCTAGONP
 10
95.2500
 20
48.2600
 30
0.0000
 41
1.8796
 42
1.8796
 43
1.0000
 50
90.0000
  0
CIRCLE
  8
44
 10
95.2500
 20
48.2600
 30
0.0000
 40
0.5080
  0
INSERT
  8
17
  2
OCTAGONP
 10
97.7900
 20
48.2600
 30
0.0000
 41
1.8796
 42
1.8796
 43
1.0000
 50
90.0000
  0
CIRCLE
  8
44
 10
97.7900
 20
48.2600
 30
0.0000
 40
0.5080
  0
INSERT
  8
17
  2
OCTAGONP
 10
95.2500
 20
45.7200
 30
0.0000
 41
1.8796
 42
1.8796
 43
1.0000
 50
90.0000
  0
CIRCLE
  8
44
 10
95.2500
 20
45.7200
 30
0.0000
 40
0.5080
  0
INSERT
  8
17
  2
OCTAGONP
 10
97.7900
 20
45.7200
 30
0.0000
 41
1.8796
 42
1.8796
 43
1.0000
 50
90.0000
  0
CIRCLE
  8
44
 10
97.7900
 20
45.7200
 30
0.0000
 40
0.5080
  0
INSERT
  8
17
  2
OCTAGONP
 10
95.2500
 20
43.1800
 30
0.0000
 41
1.8796
 42
1.8796
 43
1.0000
 50
90.0000
  0
CIRCLE
  8
44
 10
95.2500
 20
43.1800
 30
0.0000
 40
0.5080
  0
INSERT
  8
17
  2
OCTAGONP
 10
97.7900
 20
43.1800
 30
0.0000
 41
1.8796
 42
1.8796
 43
1.0000
 50
90.0000
  0
CIRCLE
  8
44
 10
97.7900
 20
43.1800
 30
0.0000
 40
0.5080
  0
INSERT
  8
17
  2
OCTAGONP
 10
95.2500
 20
40.6400
 30
0.0000
 41
1.8796
 42
1.8796
 43
1.0000
 50
90.0000
  0
CIRCLE
  8
44
 10
95.2500
 20
40.6400
 30
0.0000
 40
0.5080
  0
INSERT
  8
17
  2
OCTAGONP
 10
97.7900
 20
40.6400
 30
0.0000
 41
1.8796
 42
1.8796
 43
1.0000
 50
90.0000
  0
CIRCLE
  8
44
 10
97.7900
 20
40.6400
 30
0.0000
 40
0.5080
  0
INSERT
  8
17
  2
OCTAGONP
 10
95.2500
 20
38.1000
 30
0.0000
 41
1.8796
 42
1.8796
 43
1.0000
 50
90.0000
  0
CIRCLE
  8
44
 10
95.2500
 20
38.1000
 30
0.0000
 40
0.5080
  0
INSERT
  8
17
  2
OCTAGONP
 10
97.7900
 20
38.1000
 30
0.0000
 41
1.8796
 42
1.8796
 43
1.0000
 50
90.0000
  0
CIRCLE
  8
44
 10
97.7900
 20
38.1000
 30
0.0000
 40
0.5080
  0
INSERT
  8
17
  2
OCTAGONP
 10
95.2500
 20
35.5600
 30
0.0000
 41
1.8796
 42
1.8796
 43
1.0000
 50
90.0000
  0
CIRCLE
  8
44
 10
95.2500
 20
35.5600
 30
0.0000
 40
0.5080
  0
INSERT
  8
17
  2
OCTAGONP
 10
97.7900
 20
35.5600
 30
0.0000
 41
1.8796
 42
1.8796
 43
1.0000
 50
90.0000
  0
CIRCLE
  8
44
 10
97.7900
 20
35.5600
 30
0.0000
 40
0.5080
  0
INSERT
  8
17
  2
OCTAGONP
 10
95.2500
 20
33.0200
 30
0.0000
 41
1.8796
 42
1.8796
 43
1.0000
 50
90.0000
  0
CIRCLE
  8
44
 10
95.2500
 20
33.0200
 30
0.0000
 40
0.5080
  0
INSERT
  8
17
  2
OCTAGONP
 10
97.7900
 20
33.0200
 30
0.0000
 41
1.8796
 42
1.8796
 43
1.0000
 50
90.0000
  0
CIRCLE
  8
44
 10
97.7900
 20
33.0200
 30
0.0000
 40
0.5080
  0
INSERT
  8
17
  2
OCTAGONP
 10
95.2500
 20
30.4800
 30
0.0000
 41
1.8796
 42
1.8796
 43
1.0000
 50
90.0000
  0
CIRCLE
  8
44
 10
95.2500
 20
30.4800
 30
0.0000
 40
0.5080
  0
INSERT
  8
17
  2
OCTAGONP
 10
97.7900
 20
30.4800
 30
0.0000
 41
1.8796
 42
1.8796
 43
1.0000
 50
90.0000
  0
CIRCLE
  8
44
 10
97.7900
 20
30.4800
 30
0.0000
 40
0.5080
  0
INSERT
  8
17
  2
ROUNDP
 10
52.0700
 20
22.8600
 30
0.0000
 41
1.8796
 42
1.8796
 43
1.0000
 50
90.0000
  0
CIRCLE
  8
44
 10
52.0700
 20
22.8600
 30
0.0000
 40
0.5080
  0
INSERT
  8
17
  2
ROUNDP
 10
54.6100
 20
22.8600
 30
0.0000
 41
1.8796
 42
1.8796
 43
1.0000
 50
90.0000
  0
CIRCLE
  8
44
 10
54.6100
 20
22.8600
 30
0.0000
 40
0.5080
  0
INSERT
  8
17
  2
ROUNDP
 10
57.1500
 20
22.8600
 30
0.0000
 41
1.8796
 42
1.8796
 43
1.0000
 50
90.0000
  0
CIRCLE
  8
44
 10
57.1500
 20
22.8600
 30
0.0000
 40
0.5080
  0
INSERT
  8
17
  2
ROUNDP
 10
59.6900
 20
22.8600
 30
0.0000
 41
1.8796
 42
1.8796
 43
1.0000
 50
90.0000
  0
CIRCLE
  8
44
 10
59.6900
 20
22.8600
 30
0.0000
 40
0.5080
  0
INSERT
  8
17
  2
ROUNDP
 10
62.2300
 20
22.8600
 30
0.0000
 41
1.8796
 42
1.8796
 43
1.0000
 50
90.0000
  0
CIRCLE
  8
44
 10
62.2300
 20
22.8600
 30
0.0000
 40
0.5080
  0
INSERT
  8
17
  2
ROUNDP
 10
64.7700
 20
22.8600
 30
0.0000
 41
1.8796
 42
1.8796
 43
1.0000
 50
90.0000
  0
CIRCLE
  8
44
 10
64.7700
 20
22.8600
 30
0.0000
 40
0.5080
  0
INSERT
  8
17
  2
ROUNDP
 10
67.3100
 20
22.8600
 30
0.0000
 41
1.8796
 42
1.8796
 43
1.0000
 50
90.0000
  0
CIRCLE
  8
44
 10
67.3100
 20
22.8600
 30
0.0000
 40
0.5080
  0
INSERT
  8
17
  2
ROUNDP
 10
69.8500
 20
22.8600
 30
0.0000
 41
1.8796
 42
1.8796
 43
1.0000
 50
90.0000
  0
CIRCLE
  8
44
 10
69.8500
 20
22.8600
 30
0.0000
 40
0.5080
  0
INSERT
  8
17
  2
ROUNDP
 10
74.9300
 20
22.8600
 30
0.0000
 41
1.8796
 42
1.8796
 43
1.0000
 50
90.0000
  0
CIRCLE
  8
44
 10
74.9300
 20
22.8600
 30
0.0000
 40
0.5080
  0
INSERT
  8
17
  2
ROUNDP
 10
77.4700
 20
22.8600
 30
0.0000
 41
1.8796
 42
1.8796
 43
1.0000
 50
90.0000
  0
CIRCLE
  8
44
 10
77.4700
 20
22.8600
 30
0.0000
 40
0.5080
  0
INSERT
  8
17
  2
ROUNDP
 10
80.0100
 20
22.8600
 30
0.0000
 41
1.8796
 42
1.8796
 43
1.0000
 50
90.0000
  0
CIRCLE
  8
44
 10
80.0100
 20
22.8600
 30
0.0000
 40
0.5080
  0
INSERT
  8
17
  2
ROUNDP
 10
82.5500
 20
22.8600
 30
0.0000
 41
1.8796
 42
1.8796
 43
1.0000
 50
90.0000
  0
CIRCLE
  8
44
 10
82.5500
 20
22.8600
 30
0.0000
 40
0.5080
  0
INSERT
  8
17
  2
ROUNDP
 10
85.0900
 20
22.8600
 30
0.0000
 41
1.8796
 42
1.8796
 43
1.0000
 50
90.0000
  0
CIRCLE
  8
44
 10
85.0900
 20
22.8600
 30
0.0000
 40
0.5080
  0
INSERT
  8
17
  2
ROUNDP
 10
87.6300
 20
22.8600
 30
0.0000
 41
1.8796
 42
1.8796
 43
1.0000
 50
90.0000
  0
CIRCLE
  8
44
 10
87.6300
 20
22.8600
 30
0.0000
 40
0.5080
  0
INSERT
  8
17
  2
ROUNDP
 10
90.1700
 20
22.8600
 30
0.0000
 41
1.8796
 42
1.8796
 43
1.0000
 50
90.0000
  0
CIRCLE
  8
44
 10
90.1700
 20
22.8600
 30
0.0000
 40
0.5080
  0
INSERT
  8
17
  2
ROUNDP
 10
92.7100
 20
22.8600
 30
0.0000
 41
1.8796
 42
1.8796
 43
1.0000
 50
90.0000
  0
CIRCLE
  8
44
 10
92.7100
 20
22.8600
 30
0.0000
 40
0.5080
  0
INSERT
  8
17
  2
ROUNDP
 10
25.1460
 20
71.1200
 30
0.0000
 41
1.8796
 42
1.8796
 43
1.0000
 50
90.0000
  0
CIRCLE
  8
44
 10
25.1460
 20
71.1200
 30
0.0000
 40
0.5080
  0
INSERT
  8
17
  2
ROUNDP
 10
41.9100
 20
22.8600
 30
0.0000
 41
1.8796
 42
1.8796
 43
1.0000
 50
90.0000
  0
CIRCLE
  8
44
 10
41.9100
 20
22.8600
 30
0.0000
 40
0.5080
  0
INSERT
  8
17
  2
ROUNDP
 10
44.4500
 20
22.8600
 30
0.0000
 41
1.8796
 42
1.8796
 43
1.0000
 50
90.0000
  0
CIRCLE
  8
44
 10
44.4500
 20
22.8600
 30
0.0000
 40
0.5080
  0
INSERT
  8
17
  2
ROUNDP
 10
95.2500
 20
27.9400
 30
0.0000
 41
1.8796
 42
1.8796
 43
1.0000
 50
90.0000
  0
CIRCLE
  8
44
 10
95.2500
 20
27.9400
 30
0.0000
 40
0.5080
  0
INSERT
  8
17
  2
ROUNDP
 10
97.7900
 20
27.9400
 30
0.0000
 41
1.8796
 42
1.8796
 43
1.0000
 50
90.0000
  0
CIRCLE
  8
44
 10
97.7900
 20
27.9400
 30
0.0000
 40
0.5080
  0
INSERT
  8
17
  2
ROUNDP
 10
27.6860
 20
71.1200
 30
0.0000
 41
1.8796
 42
1.8796
 43
1.0000
 50
90.0000
  0
CIRCLE
  8
44
 10
27.6860
 20
71.1200
 30
0.0000
 40
0.5080
  0
INSERT
  8
17
  2
ROUNDP
 10
34.2900
 20
22.8600
 30
0.0000
 41
1.8796
 42
1.8796
 43
1.0000
 50
90.0000
  0
CIRCLE
  8
44
 10
34.2900
 20
22.8600
 30
0.0000
 40
0.5080
  0
INSERT
  8
17
  2
ROUNDP
 10
46.9900
 20
22.8600
 30
0.0000
 41
1.8796
 42
1.8796
 43
1.0000
 50
90.0000
  0
CIRCLE
  8
44
 10
46.9900
 20
22.8600
 30
0.0000
 40
0.5080
  0
INSERT
  8
17
  2
LONGP100
 10
82.5500
 20
41.9100
 30
0.0000
 41
1.5240
 42
1.5240
 43
1.0000
 50
270.0000
  0
CIRCLE
  8
44
 10
82.5500
 20
41.9100
 30
0.0000
 40
0.5080
  0
INSERT
  8
17
  2
LONGP100
 10
80.0100
 20
41.9100
 30
0.0000
 41
1.5240
 42
1.5240
 43
1.0000
 50
270.0000
  0
CIRCLE
  8
44
 10
80.0100
 20
41.9100
 30
0.0000
 40
0.5080
  0
INSERT
  8
17
  2
LONGP100
 10
77.4700
 20
41.9100
 30
0.0000
 41
1.5240
 42
1.5240
 43
1.0000
 50
270.0000
  0
CIRCLE
  8
44
 10
77.4700
 20
41.9100
 30
0.0000
 40
0.5080
  0
INSERT
  8
17
  2
LONGP100
 10
74.9300
 20
41.9100
 30
0.0000
 41
1.5240
 42
1.5240
 43
1.0000
 50
270.0000
  0
CIRCLE
  8
44
 10
74.9300
 20
41.9100
 30
0.0000
 40
0.5080
  0
INSERT
  8
17
  2
LONGP100
 10
72.3900
 20
16.5100
 30
0.0000
 41
1.5240
 42
1.5240
 43
1.0000
 50
90.0000
  0
CIRCLE
  8
44
 10
72.3900
 20
16.5100
 30
0.0000
 40
0.5080
  0
INSERT
  8
17
  2
LONGP100
 10
69.8500
 20
16.5100
 30
0.0000
 41
1.5240
 42
1.5240
 43
1.0000
 50
90.0000
  0
CIRCLE
  8
44
 10
69.8500
 20
16.5100
 30
0.0000
 40
0.5080
  0
INSERT
  8
17
  2
LONGP100
 10
67.3100
 20
16.5100
 30
0.0000
 41
1.5240
 42
1.5240
 43
1.0000
 50
90.0000
  0
CIRCLE
  8
44
 10
67.3100
 20
16.5100
 30
0.0000
 40
0.5080
  0
INSERT
  8
17
  2
LONGP100
 10
64.7700
 20
16.5100
 30
0.0000
 41
1.5240
 42
1.5240
 43
1.0000
 50
90.0000
  0
CIRCLE
  8
44
 10
64.7700
 20
16.5100
 30
0.0000
 40
0.5080
  0
INSERT
  8
17
  2
LONGP100
 10
62.2300
 20
16.5100
 30
0.0000
 41
1.5240
 42
1.5240
 43
1.0000
 50
90.0000
  0
CIRCLE
  8
44
 10
62.2300
 20
16.5100
 30
0.0000
 40
0.5080
  0
INSERT
  8
17
  2
LONGP100
 10
59.6900
 20
16.5100
 30
0.0000
 41
1.5240
 42
1.5240
 43
1.0000
 50
90.0000
  0
CIRCLE
  8
44
 10
59.6900
 20
16.5100
 30
0.0000
 40
0.5080
  0
INSERT
  8
17
  2
LONGP100
 10
57.1500
 20
16.5100
 30
0.0000
 41
1.5240
 42
1.5240
 43
1.0000
 50
90.0000
  0
CIRCLE
  8
44
 10
57.1500
 20
16.5100
 30
0.0000
 40
0.5080
  0
INSERT
  8
17
  2
LONGP100
 10
54.6100
 20
16.5100
 30
0.0000
 41
1.5240
 42
1.5240
 43
1.0000
 50
90.0000
  0
CIRCLE
  8
44
 10
54.6100
 20
16.5100
 30
0.0000
 40
0.5080
  0
INSERT
  8
17
  2
LONGP100
 10
52.0700
 20
16.5100
 30
0.0000
 41
1.5240
 42
1.5240
 43
1.0000
 50
90.0000
  0
CIRCLE
  8
44
 10
52.0700
 20
16.5100
 30
0.0000
 40
0.5080
  0
INSERT
  8
17
  2
LONGP100
 10
85.0900
 20
49.5300
 30
0.0000
 41
1.5240
 42
1.5240
 43
1.0000
 50
90.0000
  0
CIRCLE
  8
44
 10
85.0900
 20
49.5300
 30
0.0000
 40
0.5080
  0
INSERT
  8
17
  2
LONGP100
 10
82.5500
 20
49.5300
 30
0.0000
 41
1.5240
 42
1.5240
 43
1.0000
 50
90.0000
  0
CIRCLE
  8
44
 10
82.5500
 20
49.5300
 30
0.0000
 40
0.5080
  0
INSERT
  8
17
  2
LONGP100
 10
80.0100
 20
49.5300
 30
0.0000
 41
1.5240
 42
1.5240
 43
1.0000
 50
90.0000
  0
CIRCLE
  8
44
 10
80.0100
 20
49.5300
 30
0.0000
 40
0.5080
  0
INSERT
  8
17
  2
LONGP100
 10
77.4700
 20
49.5300
 30
0.0000
 41
1.5240
 42
1.5240
 43
1.0000
 50
90.0000
  0
CIRCLE
  8
44
 10
77.4700
 20
49.5300
 30
0.0000
 40
0.5080
  0
INSERT
  8
17
  2
LONGP100
 10
74.9300
 20
49.5300
 30
0.0000
 41
1.5240
 42
1.5240
 43
1.0000
 50
90.0000
  0
CIRCLE
  8
44
 10
74.9300
 20
49.5300
 30
0.0000
 40
0.5080
  0
INSERT
  8
17
  2
LONGP100
 10
38.1000
 20
66.0400
 30
0.0000
 41
1.5240
 42
1.5240
 43
1.0000
 50
90.0000
  0
CIRCLE
  8
44
 10
38.1000
 20
66.0400
 30
0.0000
 40
0.5080
  0
INSERT
  8
17
  2
LONGP100
 10
40.6400
 20
66.0400
 30
0.0000
 41
1.5240
 42
1.5240
 43
1.0000
 50
90.0000
  0
CIRCLE
  8
44
 10
40.6400
 20
66.0400
 30
0.0000
 40
0.5080
  0
INSERT
  8
17
  2
LONGP100
 10
43.1800
 20
66.0400
 30
0.0000
 41
1.5240
 42
1.5240
 43
1.0000
 50
90.0000
  0
CIRCLE
  8
44
 10
43.1800
 20
66.0400
 30
0.0000
 40
0.5080
  0
INSERT
  8
17
  2
LONGP100
 10
45.7200
 20
66.0400
 30
0.0000
 41
1.5240
 42
1.5240
 43
1.0000
 50
90.0000
  0
CIRCLE
  8
44
 10
45.7200
 20
66.0400
 30
0.0000
 40
0.5080
  0
INSERT
  8
17
  2
LONGP100
 10
54.6100
 20
12.7000
 30
0.0000
 41
1.5240
 42
1.5240
 43
1.0000
 50
90.0000
  0
CIRCLE
  8
44
 10
54.6100
 20
12.7000
 30
0.0000
 40
0.5080
  0
INSERT
  8
17
  2
LONGP100
 10
52.0700
 20
12.7000
 30
0.0000
 41
1.5240
 42
1.5240
 43
1.0000
 50
90.0000
  0
CIRCLE
  8
44
 10
52.0700
 20
12.7000
 30
0.0000
 40
0.5080
  0
INSERT
  8
17
  2
OCTAGONP
 10
26.6700
 20
35.5600
 30
0.0000
 41
1.3208
 42
1.3208
 43
1.0000
 50
0.0000
  0
CIRCLE
  8
44
 10
26.6700
 20
35.5600
 30
0.0000
 40
0.4064
  0
INSERT
  8
17
  2
OCTAGONP
 10
34.2900
 20
35.5600
 30
0.0000
 41
1.3208
 42
1.3208
 43
1.0000
 50
0.0000
  0
CIRCLE
  8
44
 10
34.2900
 20
35.5600
 30
0.0000
 40
0.4064
  0
INSERT
  8
17
  2
OCTAGONP
 10
31.7500
 20
10.1600
 30
0.0000
 41
1.3208
 42
1.3208
 43
1.0000
 50
270.0000
  0
CIRCLE
  8
44
 10
31.7500
 20
10.1600
 30
0.0000
 40
0.4064
  0
INSERT
  8
17
  2
OCTAGONP
 10
31.7500
 20
2.5400
 30
0.0000
 41
1.3208
 42
1.3208
 43
1.0000
 50
270.0000
  0
CIRCLE
  8
44
 10
31.7500
 20
2.5400
 30
0.0000
 40
0.4064
  0
INSERT
  8
17
  2
OCTAGONP
 10
43.1800
 20
26.6700
 30
0.0000
 41
1.3208
 42
1.3208
 43
1.0000
 50
90.0000
  0
CIRCLE
  8
44
 10
43.1800
 20
26.6700
 30
0.0000
 40
0.4064
  0
INSERT
  8
17
  2
OCTAGONP
 10
43.1800
 20
34.2900
 30
0.0000
 41
1.3208
 42
1.3208
 43
1.0000
 50
90.0000
  0
CIRCLE
  8
44
 10
43.1800
 20
34.2900
 30
0.0000
 40
0.4064
  0
INSERT
  8
17
  2
OCTAGONP
 10
40.6400
 20
26.6700
 30
0.0000
 41
1.3208
 42
1.3208
 43
1.0000
 50
90.0000
  0
CIRCLE
  8
44
 10
40.6400
 20
26.6700
 30
0.0000
 40
0.4064
  0
INSERT
  8
17
  2
OCTAGONP
 10
40.6400
 20
34.2900
 30
0.0000
 41
1.3208
 42
1.3208
 43
1.0000
 50
90.0000
  0
CIRCLE
  8
44
 10
40.6400
 20
34.2900
 30
0.0000
 40
0.4064
  0
INSERT
  8
17
  2
OCTAGONP
 10
74.9300
 20
53.3400
 30
0.0000
 41
1.3208
 42
1.3208
 43
1.0000
 50
0.0000
  0
CIRCLE
  8
44
 10
74.9300
 20
53.3400
 30
0.0000
 40
0.4064
  0
INSERT
  8
17
  2
OCTAGONP
 10
82.5500
 20
53.3400
 30
0.0000
 41
1.3208
 42
1.3208
 43
1.0000
 50
0.0000
  0
CIRCLE
  8
44
 10
82.5500
 20
53.3400
 30
0.0000
 40
0.4064
  0
INSERT
  8
17
  2
OCTAGONP
 10
74.9300
 20
45.7200
 30
0.0000
 41
1.3208
 42
1.3208
 43
1.0000
 50
0.0000
  0
CIRCLE
  8
44
 10
74.9300
 20
45.7200
 30
0.0000
 40
0.4064
  0
INSERT
  8
17
  2
OCTAGONP
 10
82.5500
 20
45.7200
 30
0.0000
 41
1.3208
 42
1.3208
 43
1.0000
 50
0.0000
  0
CIRCLE
  8
44
 10
82.5500
 20
45.7200
 30
0.0000
 40
0.4064
  0
INSERT
  8
17
  2
OCTAGONP
 10
25.4000
 20
63.5000
 30
0.0000
 41
1.3208
 42
1.3208
 43
1.0000
 50
0.0000
  0
CIRCLE
  8
44
 10
25.4000
 20
63.5000
 30
0.0000
 40
0.4064
  0
INSERT
  8
17
  2
OCTAGONP
 10
33.0200
 20
63.5000
 30
0.0000
 41
1.3208
 42
1.3208
 43
1.0000
 50
0.0000
  0
CIRCLE
  8
44
 10
33.0200
 20
63.5000
 30
0.0000
 40
0.4064
  0
INSERT
  8
17
  2
OCTAGONP
 10
25.4000
 20
66.0400
 30
0.0000
 41
1.3208
 42
1.3208
 43
1.0000
 50
0.0000
  0
CIRCLE
  8
44
 10
25.4000
 20
66.0400
 30
0.0000
 40
0.4064
  0
INSERT
  8
17
  2
OCTAGONP
 10
33.0200
 20
66.0400
 30
0.0000
 41
1.3208
 42
1.3208
 43
1.0000
 50
0.0000
  0
CIRCLE
  8
44
 10
33.0200
 20
66.0400
 30
0.0000
 40
0.4064
  0
CIRCLE
  8
20
 10
55.8800
 20
52.0700
 30
0.0000
 40
1.6510
  0
CIRCLE
  8
20
 10
31.7500
 20
48.2600
 30
0.0000
 40
1.6510
  0
INSERT
  8
17
  2
ROUNDP
 10
24.1300
 20
55.8800
 30
0.0000
 41
1.8796
 42
1.8796
 43
1.0000
 50
0.0000
  0
CIRCLE
  8
44
 10
24.1300
 20
55.8800
 30
0.0000
 40
0.5080
  0
INSERT
  8
17
  2
ROUNDP
 10
26.6700
 20
55.8800
 30
0.0000
 41
1.8796
 42
1.8796
 43
1.0000
 50
0.0000
  0
CIRCLE
  8
44
 10
26.6700
 20
55.8800
 30
0.0000
 40
0.5080
  0
INSERT
  8
17
  2
ROUNDP
 10
31.7500
 20
55.8800
 30
0.0000
 41
1.8796
 42
1.8796
 43
1.0000
 50
0.0000
  0
CIRCLE
  8
44
 10
31.7500
 20
55.8800
 30
0.0000
 40
0.5080
  0
INSERT
  8
17
  2
ROUNDP
 10
29.2100
 20
55.8800
 30
0.0000
 41
1.8796
 42
1.8796
 43
1.0000
 50
0.0000
  0
CIRCLE
  8
44
 10
29.2100
 20
55.8800
 30
0.0000
 40
0.5080
  0
INSERT
  8
17
  2
ROUNDP
 10
62.2300
 20
40.6400
 30
0.0000
 41
1.8796
 42
1.8796
 43
1.0000
 50
0.0000
  0
CIRCLE
  8
44
 10
62.2300
 20
40.6400
 30
0.0000
 40
0.5080
  0
INSERT
  8
17
  2
ROUNDP
 10
49.5300
 20
55.8800
 30
0.0000
 41
1.8796
 42
1.8796
 43
1.0000
 50
0.0000
  0
CIRCLE
  8
44
 10
49.5300
 20
55.8800
 30
0.0000
 40
0.5080
  0
INSERT
  8
17
  2
ROUNDP
 10
59.6900
 20
55.8800
 30
0.0000
 41
1.8796
 42
1.8796
 43
1.0000
 50
0.0000
  0
CIRCLE
  8
44
 10
59.6900
 20
55.8800
 30
0.0000
 40
0.5080
  0
INSERT
  8
17
  2
ROUNDP
 10
57.1500
 20
40.6400
 30
0.0000
 41
1.8796
 42
1.8796
 43
1.0000
 50
0.0000
  0
CIRCLE
  8
44
 10
57.1500
 20
40.6400
 30
0.0000
 40
0.5080
  0
INSERT
  8
17
  2
ROUNDP
 10
24.1300
 20
40.6400
 30
0.0000
 41
1.8796
 42
1.8796
 43
1.0000
 50
0.0000
  0
CIRCLE
  8
44
 10
24.1300
 20
40.6400
 30
0.0000
 40
0.5080
  0
INSERT
  8
17
  2
ROUNDP
 10
62.2300
 20
55.8800
 30
0.0000
 41
1.8796
 42
1.8796
 43
1.0000
 50
0.0000
  0
CIRCLE
  8
44
 10
62.2300
 20
55.8800
 30
0.0000
 40
0.5080
  0
INSERT
  8
17
  2
ROUNDP
 10
39.3700
 20
40.6400
 30
0.0000
 41
1.8796
 42
1.8796
 43
1.0000
 50
0.0000
  0
CIRCLE
  8
44
 10
39.3700
 20
40.6400
 30
0.0000
 40
0.5080
  0
INSERT
  8
17
  2
ROUNDP
 10
52.0700
 20
55.8800
 30
0.0000
 41
1.8796
 42
1.8796
 43
1.0000
 50
0.0000
  0
CIRCLE
  8
44
 10
52.0700
 20
55.8800
 30
0.0000
 40
0.5080
  0
INSERT
  8
17
  2
ROUNDP
 10
26.6700
 20
40.6400
 30
0.0000
 41
1.8796
 42
1.8796
 43
1.0000
 50
0.0000
  0
CIRCLE
  8
44
 10
26.6700
 20
40.6400
 30
0.0000
 40
0.5080
  0
INSERT
  8
17
  2
ROUNDP
 10
36.8300
 20
55.8800
 30
0.0000
 41
1.8796
 42
1.8796
 43
1.0000
 50
0.0000
  0
CIRCLE
  8
44
 10
36.8300
 20
55.8800
 30
0.0000
 40
0.5080
  0
INSERT
  8
17
  2
ROUNDP
 10
39.3700
 20
55.8800
 30
0.0000
 41
1.8796
 42
1.8796
 43
1.0000
 50
0.0000
  0
CIRCLE
  8
44
 10
39.3700
 20
55.8800
 30
0.0000
 40
0.5080
  0
INSERT
  8
17
  2
ROUNDP
 10
36.8300
 20
40.6400
 30
0.0000
 41
1.8796
 42
1.8796
 43
1.0000
 50
0.0000
  0
CIRCLE
  8
44
 10
36.8300
 20
40.6400
 30
0.0000
 40
0.5080
  0
INSERT
  8
17
  2
ROUNDP
 10
59.6900
 20
40.6400
 30
0.0000
 41
1.8796
 42
1.8796
 43
1.0000
 50
0.0000
  0
CIRCLE
  8
44
 10
59.6900
 20
40.6400
 30
0.0000
 40
0.5080
  0
CIRCLE
  8
20
 10
39.3700
 20
13.9700
 30
0.0000
 40
1.6510
  0
CIRCLE
  8
20
 10
15.2400
 20
10.1600
 30
0.0000
 40
1.6510
  0
INSERT
  8
17
  2
ROUNDP
 10
7.6200
 20
17.7800
 30
0.0000
 41
1.8796
 42
1.8796
 43
1.0000
 50
0.0000
  0
CIRCLE
  8
44
 10
7.6200
 20
17.7800
 30
0.0000
 40
0.5080
  0
INSERT
  8
17
  2
ROUNDP
 10
10.1600
 20
17.7800
 30
0.0000
 41
1.8796
 42
1.8796
 43
1.0000
 50
0.0000
  0
CIRCLE
  8
44
 10
10.1600
 20
17.7800
 30
0.0000
 40
0.5080
  0
INSERT
  8
17
  2
ROUNDP
 10
15.2400
 20
17.7800
 30
0.0000
 41
1.8796
 42
1.8796
 43
1.0000
 50
0.0000
  0
CIRCLE
  8
44
 10
15.2400
 20
17.7800
 30
0.0000
 40
0.5080
  0
INSERT
  8
17
  2
ROUNDP
 10
12.7000
 20
17.7800
 30
0.0000
 41
1.8796
 42
1.8796
 43
1.0000
 50
0.0000
  0
CIRCLE
  8
44
 10
12.7000
 20
17.7800
 30
0.0000
 40
0.5080
  0
INSERT
  8
17
  2
ROUNDP
 10
45.7200
 20
2.5400
 30
0.0000
 41
1.8796
 42
1.8796
 43
1.0000
 50
0.0000
  0
CIRCLE
  8
44
 10
45.7200
 20
2.5400
 30
0.0000
 40
0.5080
  0
INSERT
  8
17
  2
ROUNDP
 10
33.0200
 20
17.7800
 30
0.0000
 41
1.8796
 42
1.8796
 43
1.0000
 50
0.0000
  0
CIRCLE
  8
44
 10
33.0200
 20
17.7800
 30
0.0000
 40
0.5080
  0
INSERT
  8
17
  2
ROUNDP
 10
43.1800
 20
17.7800
 30
0.0000
 41
1.8796
 42
1.8796
 43
1.0000
 50
0.0000
  0
CIRCLE
  8
44
 10
43.1800
 20
17.7800
 30
0.0000
 40
0.5080
  0
INSERT
  8
17
  2
ROUNDP
 10
40.6400
 20
2.5400
 30
0.0000
 41
1.8796
 42
1.8796
 43
1.0000
 50
0.0000
  0
CIRCLE
  8
44
 10
40.6400
 20
2.5400
 30
0.0000
 40
0.5080
  0
INSERT
  8
17
  2
ROUNDP
 10
7.6200
 20
2.5400
 30
0.0000
 41
1.8796
 42
1.8796
 43
1.0000
 50
0.0000
  0
CIRCLE
  8
44
 10
7.6200
 20
2.5400
 30
0.0000
 40
0.5080
  0
INSERT
  8
17
  2
ROUNDP
 10
45.7200
 20
17.7800
 30
0.0000
 41
1.8796
 42
1.8796
 43
1.0000
 50
0.0000
  0
CIRCLE
  8
44
 10
45.7200
 20
17.7800
 30
0.0000
 40
0.5080
  0
INSERT
  8
17
  2
ROUNDP
 10
22.8600
 20
2.5400
 30
0.0000
 41
1.8796
 42
1.8796
 43
1.0000
 50
0.0000
  0
CIRCLE
  8
44
 10
22.8600
 20
2.5400
 30
0.0000
 40
0.5080
  0
INSERT
  8
17
  2
ROUNDP
 10
35.5600
 20
17.7800
 30
0.0000
 41
1.8796
 42
1.8796
 43
1.0000
 50
0.0000
  0
CIRCLE
  8
44
 10
35.5600
 20
17.7800
 30
0.0000
 40
0.5080
  0
INSERT
  8
17
  2
ROUNDP
 10
10.1600
 20
2.5400
 30
0.0000
 41
1.8796
 42
1.8796
 43
1.0000
 50
0.0000
  0
CIRCLE
  8
44
 10
10.1600
 20
2.5400
 30
0.0000
 40
0.5080
  0
INSERT
  8
17
  2
ROUNDP
 10
20.3200
 20
17.7800
 30
0.0000
 41
1.8796
 42
1.8796
 43
1.0000
 50
0.0000
  0
CIRCLE
  8
44
 10
20.3200
 20
17.7800
 30
0.0000
 40
0.5080
  0
INSERT
  8
17
  2
ROUNDP
 10
22.8600
 20
17.7800
 30
0.0000
 41
1.8796
 42
1.8796
 43
1.0000
 50
0.0000
  0
CIRCLE
  8
44
 10
22.8600
 20
17.7800
 30
0.0000
 40
0.5080
  0
INSERT
  8
17
  2
ROUNDP
 10
20.3200
 20
2.5400
 30
0.0000
 41
1.8796
 42
1.8796
 43
1.0000
 50
0.0000
  0
CIRCLE
  8
44
 10
20.3200
 20
2.5400
 30
0.0000
 40
0.5080
  0
INSERT
  8
17
  2
ROUNDP
 10
43.1800
 20
2.5400
 30
0.0000
 41
1.8796
 42
1.8796
 43
1.0000
 50
0.0000
  0
CIRCLE
  8
44
 10
43.1800
 20
2.5400
 30
0.0000
 40
0.5080
  0
INSERT
  8
17
  2
LONGP100
 10
10.1600
 20
71.0946
 30
0.0000
 41
1.9812
 42
1.9812
 43
1.0000
 50
0.0000
  0
CIRCLE
  8
44
 10
10.1600
 20
71.0946
 30
0.0000
 40
0.6604
  0
INSERT
  8
17
  2
LONGP100
 10
10.1600
 20
66.0908
 30
0.0000
 41
1.9812
 42
1.9812
 43
1.0000
 50
0.0000
  0
CIRCLE
  8
44
 10
10.1600
 20
66.0908
 30
0.0000
 40
0.6604
  0
INSERT
  8
17
  2
LONGP100
 10
10.1600
 20
59.5630
 30
0.0000
 41
1.9812
 42
1.9812
 43
1.0000
 50
0.0000
  0
CIRCLE
  8
44
 10
10.1600
 20
59.5630
 30
0.0000
 40
0.6604
  0
INSERT
  8
17
  2
LONGP100
 10
10.1600
 20
54.5846
 30
0.0000
 41
1.9812
 42
1.9812
 43
1.0000
 50
0.0000
  0
CIRCLE
  8
44
 10
10.1600
 20
54.5846
 30
0.0000
 40
0.6604
  0
INSERT
  8
17
  2
LONGP100
 10
10.1600
 20
49.5554
 30
0.0000
 41
1.9812
 42
1.9812
 43
1.0000
 50
0.0000
  0
CIRCLE
  8
44
 10
10.1600
 20
49.5554
 30
0.0000
 40
0.6604
  0
INSERT
  8
17
  2
LONGP100
 10
10.1600
 20
44.5770
 30
0.0000
 41
1.9812
 42
1.9812
 43
1.0000
 50
0.0000
  0
CIRCLE
  8
44
 10
10.1600
 20
44.5770
 30
0.0000
 40
0.6604
  0
INSERT
  8
17
  2
LONGP100
 10
10.1600
 20
39.2430
 30
0.0000
 41
1.9812
 42
1.9812
 43
1.0000
 50
0.0000
  0
CIRCLE
  8
44
 10
10.1600
 20
39.2430
 30
0.0000
 40
0.6604
  0
INSERT
  8
17
  2
LONGP100
 10
10.1600
 20
34.2646
 30
0.0000
 41
1.9812
 42
1.9812
 43
1.0000
 50
0.0000
  0
CIRCLE
  8
44
 10
10.1600
 20
34.2646
 30
0.0000
 40
0.6604
  0
INSERT
  8
17
  2
LONGP100
 10
10.1600
 20
29.2354
 30
0.0000
 41
1.9812
 42
1.9812
 43
1.0000
 50
0.0000
  0
CIRCLE
  8
44
 10
10.1600
 20
29.2354
 30
0.0000
 40
0.6604
  0
INSERT
  8
17
  2
LONGP100
 10
10.1600
 20
24.2570
 30
0.0000
 41
1.9812
 42
1.9812
 43
1.0000
 50
0.0000
  0
CIRCLE
  8
44
 10
10.1600
 20
24.2570
 30
0.0000
 40
0.6604
  0
LINE
  8
16
 10
45.7200
 20
66.2940
 30
0.0000
 11
43.4340
 21
66.2940
 31
0.0000
  0
LINE
  8
16
 10
43.4340
 20
66.2940
 30
0.0000
 11
43.1800
 21
66.0400
 31
0.0000
  0
LINE
  8
16
 10
45.7200
 20
66.2940
 30
0.0000
 11
45.7200
 21
66.0400
 31
0.0000
  0
LINE
  8
16
 10
39.6240
 20
61.7220
 30
0.0000
 11
39.6240
 21
56.3880
 31
0.0000
  0
LINE
  8
16
 10
43.4340
 20
65.5320
 30
0.0000
 11
39.6240
 21
61.7220
 31
0.0000
  0
LINE
  8
16
 10
39.6240
 20
56.3880
 30
0.0000
 11
39.3700
 21
55.8800
 31
0.0000
  0
LINE
  8
16
 10
43.4340
 20
65.5320
 30
0.0000
 11
43.1800
 21
66.0400
 31
0.0000
  0
LINE
  8
16
 10
83.0580
 20
49.5300
 30
0.0000
 11
83.0580
 21
45.7200
 31
0.0000
  0
LINE
  8
16
 10
83.0580
 20
49.5300
 30
0.0000
 11
83.0580
 21
53.3400
 31
0.0000
  0
LINE
  8
16
 10
83.0580
 20
53.3400
 30
0.0000
 11
82.5500
 21
53.3400
 31
0.0000
  0
LINE
  8
16
 10
83.0580
 20
45.7200
 30
0.0000
 11
83.0580
 21
41.9100
 31
0.0000
  0
LINE
  8
16
 10
83.0580
 20
41.9100
 30
0.0000
 11
82.5500
 21
41.9100
 31
0.0000
  0
LINE
  8
16
 10
83.0580
 20
45.7200
 30
0.0000
 11
82.5500
 21
45.7200
 31
0.0000
  0
LINE
  8
16
 10
83.0580
 20
49.5300
 30
0.0000
 11
85.0900
 21
49.5300
 31
0.0000
  0
LINE
  8
16
 10
83.0580
 20
49.5300
 30
0.0000
 11
82.5500
 21
49.5300
 31
0.0000
  0
LINE
  8
16
 10
22.8600
 20
18.2880
 30
0.0000
 11
31.2420
 21
9.9060
 31
0.0000
  0
LINE
  8
16
 10
31.2420
 20
9.9060
 30
0.0000
 11
31.7500
 21
10.1600
 31
0.0000
  0
LINE
  8
16
 10
26.6700
 20
22.0980
 30
0.0000
 11
26.6700
 21
35.5600
 31
0.0000
  0
LINE
  8
16
 10
22.8600
 20
18.2880
 30
0.0000
 11
26.6700
 21
22.0980
 31
0.0000
  0
LINE
  8
16
 10
22.8600
 20
18.2880
 30
0.0000
 11
22.8600
 21
17.7800
 31
0.0000
  0
LINE
  8
16
 10
42.6720
 20
12.1920
 30
0.0000
 11
49.5300
 21
12.1920
 31
0.0000
  0
LINE
  8
16
 10
49.5300
 20
12.1920
 30
0.0000
 11
51.8160
 21
12.1920
 31
0.0000
  0
LINE
  8
16
 10
41.1480
 20
10.6680
 30
0.0000
 11
42.6720
 21
12.1920
 31
0.0000
  0
LINE
  8
16
 10
32.0040
 20
10.6680
 30
0.0000
 11
41.1480
 21
10.6680
 31
0.0000
  0
LINE
  8
16
 10
51.8160
 20
12.1920
 30
0.0000
 11
52.0700
 21
12.7000
 31
0.0000
  0
LINE
  8
16
 10
32.0040
 20
10.6680
 30
0.0000
 11
31.7500
 21
10.1600
 31
0.0000
  0
LINE
  8
16
 10
37.3380
 20
21.3360
 30
0.0000
 11
37.3380
 21
22.8600
 31
0.0000
  0
LINE
  8
16
 10
41.1480
 20
17.5260
 30
0.0000
 11
37.3380
 21
21.3360
 31
0.0000
  0
LINE
  8
16
 10
41.1480
 20
16.7640
 30
0.0000
 11
41.1480
 21
17.5260
 31
0.0000
  0
LINE
  8
16
 10
42.6720
 20
15.2400
 30
0.0000
 11
41.1480
 21
16.7640
 31
0.0000
  0
LINE
  8
16
 10
42.6720
 20
12.1920
 30
0.0000
 11
42.6720
 21
15.2400
 31
0.0000
  0
LINE
  8
16
 10
37.3380
 20
22.8600
 30
0.0000
 11
36.8300
 21
22.8600
 31
0.0000
  0
LINE
  8
16
 10
82.2960
 20
40.3860
 30
0.0000
 11
82.2960
 21
41.9100
 31
0.0000
  0
LINE
  8
16
 10
73.1520
 20
31.2420
 30
0.0000
 11
82.2960
 21
40.3860
 31
0.0000
  0
LINE
  8
16
 10
57.1500
 20
31.2420
 30
0.0000
 11
73.1520
 21
31.2420
 31
0.0000
  0
LINE
  8
16
 10
49.5300
 20
23.6220
 30
0.0000
 11
57.1500
 21
31.2420
 31
0.0000
  0
LINE
  8
16
 10
49.5300
 20
12.1920
 30
0.0000
 11
49.5300
 21
23.6220
 31
0.0000
  0
LINE
  8
16
 10
82.2960
 20
41.9100
 30
0.0000
 11
82.5500
 21
41.9100
 31
0.0000
  0
LINE
  8
16
 10
38.8620
 20
48.0060
 30
0.0000
 11
38.8620
 21
55.6260
 31
0.0000
  0
LINE
  8
16
 10
26.6700
 20
35.8140
 30
0.0000
 11
38.8620
 21
48.0060
 31
0.0000
  0
LINE
  8
16
 10
38.8620
 20
55.6260
 30
0.0000
 11
39.3700
 21
55.8800
 31
0.0000
  0
LINE
  8
16
 10
26.6700
 20
35.8140
 30
0.0000
 11
26.6700
 21
35.5600
 31
0.0000
  0
LINE
  8
16
 10
45.7200
 20
21.3360
 30
0.0000
 11
45.7200
 21
17.7800
 31
0.0000
  0
LINE
  8
16
 10
47.2440
 20
22.8600
 30
0.0000
 11
45.7200
 21
21.3360
 31
0.0000
  0
LINE
  8
16
 10
61.7220
 20
48.0060
 30
0.0000
 11
61.7220
 21
55.6260
 31
0.0000
  0
LINE
  8
16
 10
47.2440
 20
33.5280
 30
0.0000
 11
61.7220
 21
48.0060
 31
0.0000
  0
LINE
  8
16
 10
47.2440
 20
22.8600
 30
0.0000
 11
47.2440
 21
28.9560
 31
0.0000
  0
LINE
  8
16
 10
47.2440
 20
28.9560
 30
0.0000
 11
47.2440
 21
33.5280
 31
0.0000
  0
LINE
  8
16
 10
61.7220
 20
55.6260
 30
0.0000
 11
62.2300
 21
55.8800
 31
0.0000
  0
LINE
  8
16
 10
47.2440
 20
22.8600
 30
0.0000
 11
46.9900
 21
22.8600
 31
0.0000
  0
LINE
  8
16
 10
12.1920
 20
71.6280
 30
0.0000
 11
10.6680
 21
71.6280
 31
0.0000
  0
LINE
  8
16
 10
15.2400
 20
74.6760
 30
0.0000
 11
12.1920
 21
71.6280
 31
0.0000
  0
LINE
  8
16
 10
42.6720
 20
74.6760
 30
0.0000
 11
15.2400
 21
74.6760
 31
0.0000
  0
LINE
  8
16
 10
44.9580
 20
72.3900
 30
0.0000
 11
42.6720
 21
74.6760
 31
0.0000
  0
LINE
  8
16
 10
44.9580
 20
70.1040
 30
0.0000
 11
44.9580
 21
72.3900
 31
0.0000
  0
LINE
  8
16
 10
48.0060
 20
67.0560
 30
0.0000
 11
44.9580
 21
70.1040
 31
0.0000
  0
LINE
  8
16
 10
48.0060
 20
60.1980
 30
0.0000
 11
48.0060
 21
67.0560
 31
0.0000
  0
LINE
  8
16
 10
41.9100
 20
54.1020
 30
0.0000
 11
48.0060
 21
60.1980
 31
0.0000
  0
LINE
  8
16
 10
41.9100
 20
38.1000
 30
0.0000
 11
41.9100
 21
54.1020
 31
0.0000
  0
LINE
  8
16
 10
28.9560
 20
25.1460
 30
0.0000
 11
41.9100
 21
38.1000
 31
0.0000
  0
LINE
  8
16
 10
28.9560
 20
19.0500
 30
0.0000
 11
28.9560
 21
25.1460
 31
0.0000
  0
LINE
  8
16
 10
32.7660
 20
15.2400
 30
0.0000
 11
28.9560
 21
19.0500
 31
0.0000
  0
LINE
  8
16
 10
35.8140
 20
15.2400
 30
0.0000
 11
32.7660
 21
15.2400
 31
0.0000
  0
LINE
  8
16
 10
38.1000
 20
17.5260
 30
0.0000
 11
35.8140
 21
15.2400
 31
0.0000
  0
LINE
  8
16
 10
38.1000
 20
18.2880
 30
0.0000
 11
38.1000
 21
17.5260
 31
0.0000
  0
LINE
  8
16
 10
35.8140
 20
20.5740
 30
0.0000
 11
38.1000
 21
18.2880
 31
0.0000
  0
LINE
  8
16
 10
33.5280
 20
20.5740
 30
0.0000
 11
35.8140
 21
20.5740
 31
0.0000
  0
LINE
  8
16
 10
32.0040
 20
22.0980
 30
0.0000
 11
33.5280
 21
20.5740
 31
0.0000
  0
LINE
  8
16
 10
32.0040
 20
23.6220
 30
0.0000
 11
32.0040
 21
22.0980
 31
0.0000
  0
LINE
  8
16
 10
37.3380
 20
28.9560
 30
0.0000
 11
32.0040
 21
23.6220
 31
0.0000
  0
LINE
  8
16
 10
47.2440
 20
28.9560
 30
0.0000
 11
37.3380
 21
28.9560
 31
0.0000
  0
LINE
  8
16
 10
10.6680
 20
71.6280
 30
0.0000
 11
10.1600
 21
71.0946
 31
0.0000
  0
LINE
  8
16
 10
60.1980
 20
70.1040
 30
0.0000
 11
60.1980
 21
70.8660
 31
0.0000
  0
LINE
  8
16
 10
72.3900
 20
57.9120
 30
0.0000
 11
60.1980
 21
70.1040
 31
0.0000
  0
LINE
  8
16
 10
72.3900
 20
51.0540
 30
0.0000
 11
72.3900
 21
57.9120
 31
0.0000
  0
LINE
  8
16
 10
62.4840
 20
41.1480
 30
0.0000
 11
72.3900
 21
51.0540
 31
0.0000
  0
LINE
  8
16
 10
60.1980
 20
70.8660
 30
0.0000
 11
59.6900
 21
71.1200
 31
0.0000
  0
LINE
  8
16
 10
62.4840
 20
41.1480
 30
0.0000
 11
62.2300
 21
40.6400
 31
0.0000
  0
LINE
  8
16
 10
49.5300
 20
40.3860
 30
0.0000
 11
43.4340
 21
34.2900
 31
0.0000
  0
LINE
  8
16
 10
49.5300
 20
55.8800
 30
0.0000
 11
49.5300
 21
40.3860
 31
0.0000
  0
LINE
  8
16
 10
43.4340
 20
34.2900
 30
0.0000
 11
43.1800
 21
34.2900
 31
0.0000
  0
LINE
  8
16
 10
54.1020
 20
60.9600
 30
0.0000
 11
54.1020
 21
70.8660
 31
0.0000
  0
LINE
  8
16
 10
49.5300
 20
56.3880
 30
0.0000
 11
54.1020
 21
60.9600
 31
0.0000
  0
LINE
  8
16
 10
54.1020
 20
70.8660
 30
0.0000
 11
54.6100
 21
71.1200
 31
0.0000
  0
LINE
  8
16
 10
49.5300
 20
56.3880
 30
0.0000
 11
49.5300
 21
55.8800
 31
0.0000
  0
LINE
  8
16
 10
83.0580
 20
3.0480
 30
0.0000
 11
45.7200
 21
3.0480
 31
0.0000
  0
LINE
  8
16
 10
101.3460
 20
21.3360
 30
0.0000
 11
83.0580
 21
3.0480
 31
0.0000
  0
LINE
  8
16
 10
101.3460
 20
70.8660
 30
0.0000
 11
101.3460
 21
21.3360
 31
0.0000
  0
LINE
  8
16
 10
97.5360
 20
74.6760
 30
0.0000
 11
101.3460
 21
70.8660
 31
0.0000
  0
LINE
  8
16
 10
54.8640
 20
74.6760
 30
0.0000
 11
97.5360
 21
74.6760
 31
0.0000
  0
LINE
  8
16
 10
51.8160
 20
71.6280
 30
0.0000
 11
54.8640
 21
74.6760
 31
0.0000
  0
LINE
  8
16
 10
45.7200
 20
3.0480
 30
0.0000
 11
45.7200
 21
2.5400
 31
0.0000
  0
LINE
  8
16
 10
51.8160
 20
71.6280
 30
0.0000
 11
52.0700
 21
71.1200
 31
0.0000
  0
LINE
  8
16
 10
42.6720
 20
3.8100
 30
0.0000
 11
42.6720
 21
3.0480
 31
0.0000
  0
LINE
  8
16
 10
38.8620
 20
7.6200
 30
0.0000
 11
42.6720
 21
3.8100
 31
0.0000
  0
LINE
  8
16
 10
22.8600
 20
7.6200
 30
0.0000
 11
38.8620
 21
7.6200
 31
0.0000
  0
LINE
  8
16
 10
16.7640
 20
13.7160
 30
0.0000
 11
22.8600
 21
7.6200
 31
0.0000
  0
LINE
  8
16
 10
8.3820
 20
13.7160
 30
0.0000
 11
16.7640
 21
13.7160
 31
0.0000
  0
LINE
  8
16
 10
3.8100
 20
18.2880
 30
0.0000
 11
8.3820
 21
13.7160
 31
0.0000
  0
LINE
  8
16
 10
3.8100
 20
68.5800
 30
0.0000
 11
3.8100
 21
18.2880
 31
0.0000
  0
LINE
  8
16
 10
11.4300
 20
76.2000
 30
0.0000
 11
3.8100
 21
68.5800
 31
0.0000
  0
LINE
  8
16
 10
44.9580
 20
76.2000
 30
0.0000
 11
11.4300
 21
76.2000
 31
0.0000
  0
LINE
  8
16
 10
49.5300
 20
71.6280
 30
0.0000
 11
44.9580
 21
76.2000
 31
0.0000
  0
LINE
  8
16
 10
42.6720
 20
3.0480
 30
0.0000
 11
43.1800
 21
2.5400
 31
0.0000
  0
LINE
  8
16
 10
49.5300
 20
71.6280
 30
0.0000
 11
49.5300
 21
71.1200
 31
0.0000
  0
LINE
  8
16
 10
30.4800
 20
24.3840
 30
0.0000
 11
40.3860
 21
34.2900
 31
0.0000
  0
LINE
  8
16
 10
30.4800
 20
20.5740
 30
0.0000
 11
30.4800
 21
24.3840
 31
0.0000
  0
LINE
  8
16
 10
32.7660
 20
18.2880
 30
0.0000
 11
30.4800
 21
20.5740
 31
0.0000
  0
LINE
  8
16
 10
32.7660
 20
18.2880
 30
0.0000
 11
33.0200
 21
17.7800
 31
0.0000
  0
LINE
  8
16
 10
47.2440
 20
70.1040
 30
0.0000
 11
47.2440
 21
70.8660
 31
0.0000
  0
LINE
  8
16
 10
49.5300
 20
67.8180
 30
0.0000
 11
47.2440
 21
70.1040
 31
0.0000
  0
LINE
  8
16
 10
49.5300
 20
58.6740
 30
0.0000
 11
49.5300
 21
67.8180
 31
0.0000
  0
LINE
  8
16
 10
43.4340
 20
52.5780
 30
0.0000
 11
49.5300
 21
58.6740
 31
0.0000
  0
LINE
  8
16
 10
43.4340
 20
37.3380
 30
0.0000
 11
43.4340
 21
52.5780
 31
0.0000
  0
LINE
  8
16
 10
40.3860
 20
34.2900
 30
0.0000
 11
43.4340
 21
37.3380
 31
0.0000
  0
LINE
  8
16
 10
47.2440
 20
70.8660
 30
0.0000
 11
46.9900
 21
71.1200
 31
0.0000
  0
LINE
  8
16
 10
40.3860
 20
34.2900
 30
0.0000
 11
40.6400
 21
34.2900
 31
0.0000
  0
LINE
  8
16
 10
54.8640
 20
22.8600
 30
0.0000
 11
54.8640
 21
16.7640
 31
0.0000
  0
LINE
  8
16
 10
54.8640
 20
16.7640
 30
0.0000
 11
54.6100
 21
16.5100
 31
0.0000
  0
LINE
  8
16
 10
54.8640
 20
22.8600
 30
0.0000
 11
54.6100
 21
22.8600
 31
0.0000
  0
LINE
  8
16
 10
57.1500
 20
22.8600
 30
0.0000
 11
57.1500
 21
16.5100
 31
0.0000
  0
LINE
  8
16
 10
13.7160
 20
56.3880
 30
0.0000
 11
23.6220
 21
56.3880
 31
0.0000
  0
LINE
  8
16
 10
10.6680
 20
59.4360
 30
0.0000
 11
13.7160
 21
56.3880
 31
0.0000
  0
LINE
  8
16
 10
23.6220
 20
56.3880
 30
0.0000
 11
24.1300
 21
55.8800
 31
0.0000
  0
LINE
  8
16
 10
10.6680
 20
59.4360
 30
0.0000
 11
10.1600
 21
59.5630
 31
0.0000
  0
LINE
  8
16
 10
24.3840
 20
53.3400
 30
0.0000
 11
26.6700
 21
55.6260
 31
0.0000
  0
LINE
  8
16
 10
11.4300
 20
53.3400
 30
0.0000
 11
24.3840
 21
53.3400
 31
0.0000
  0
LINE
  8
16
 10
10.6680
 20
54.1020
 30
0.0000
 11
11.4300
 21
53.3400
 31
0.0000
  0
LINE
  8
16
 10
26.6700
 20
55.6260
 30
0.0000
 11
26.6700
 21
55.8800
 31
0.0000
  0
LINE
  8
16
 10
10.6680
 20
54.1020
 30
0.0000
 11
10.1600
 21
54.5846
 31
0.0000
  0
LINE
  8
16
 10
28.9560
 20
54.8640
 30
0.0000
 11
28.9560
 21
55.6260
 31
0.0000
  0
LINE
  8
16
 10
24.3840
 20
50.2920
 30
0.0000
 11
28.9560
 21
54.8640
 31
0.0000
  0
LINE
  8
16
 10
10.6680
 20
50.2920
 30
0.0000
 11
24.3840
 21
50.2920
 31
0.0000
  0
LINE
  8
16
 10
28.9560
 20
55.6260
 30
0.0000
 11
29.2100
 21
55.8800
 31
0.0000
  0
LINE
  8
16
 10
10.6680
 20
50.2920
 30
0.0000
 11
10.1600
 21
49.5554
 31
0.0000
  0
LINE
  8
16
 10
31.2420
 20
54.8640
 30
0.0000
 11
31.2420
 21
55.6260
 31
0.0000
  0
LINE
  8
16
 10
21.3360
 20
44.9580
 30
0.0000
 11
31.2420
 21
54.8640
 31
0.0000
  0
LINE
  8
16
 10
10.6680
 20
44.9580
 30
0.0000
 11
21.3360
 21
44.9580
 31
0.0000
  0
LINE
  8
16
 10
31.2420
 20
55.6260
 30
0.0000
 11
31.7500
 21
55.8800
 31
0.0000
  0
LINE
  8
16
 10
10.6680
 20
44.9580
 30
0.0000
 11
10.1600
 21
44.5770
 31
0.0000
  0
LINE
  8
16
 10
7.6200
 20
20.5740
 30
0.0000
 11
7.6200
 21
17.7800
 31
0.0000
  0
LINE
  8
16
 10
5.3340
 20
22.8600
 30
0.0000
 11
7.6200
 21
20.5740
 31
0.0000
  0
LINE
  8
16
 10
5.3340
 20
34.2900
 30
0.0000
 11
5.3340
 21
22.8600
 31
0.0000
  0
LINE
  8
16
 10
9.9060
 20
38.8620
 30
0.0000
 11
5.3340
 21
34.2900
 31
0.0000
  0
LINE
  8
16
 10
9.9060
 20
38.8620
 30
0.0000
 11
10.1600
 21
39.2430
 31
0.0000
  0
LINE
  8
16
 10
10.6680
 20
16.7640
 30
0.0000
 11
10.6680
 21
17.5260
 31
0.0000
  0
LINE
  8
16
 10
12.1920
 20
15.2400
 30
0.0000
 11
10.6680
 21
16.7640
 31
0.0000
  0
LINE
  8
16
 10
16.0020
 20
15.2400
 30
0.0000
 11
12.1920
 21
15.2400
 31
0.0000
  0
LINE
  8
16
 10
18.2880
 20
17.5260
 30
0.0000
 11
16.0020
 21
15.2400
 31
0.0000
  0
LINE
  8
16
 10
18.2880
 20
22.0980
 30
0.0000
 11
18.2880
 21
17.5260
 31
0.0000
  0
LINE
  8
16
 10
19.0500
 20
22.8600
 30
0.0000
 11
18.2880
 21
22.0980
 31
0.0000
  0
LINE
  8
16
 10
19.0500
 20
25.1460
 30
0.0000
 11
19.0500
 21
22.8600
 31
0.0000
  0
LINE
  8
16
 10
10.6680
 20
33.5280
 30
0.0000
 11
19.0500
 21
25.1460
 31
0.0000
  0
LINE
  8
16
 10
10.6680
 20
17.5260
 30
0.0000
 11
10.1600
 21
17.7800
 31
0.0000
  0
LINE
  8
16
 10
10.6680
 20
33.5280
 30
0.0000
 11
10.1600
 21
34.2646
 31
0.0000
  0
LINE
  8
16
 10
12.1920
 20
19.0500
 30
0.0000
 11
12.1920
 21
18.2880
 31
0.0000
  0
LINE
  8
16
 10
9.1440
 20
22.0980
 30
0.0000
 11
12.1920
 21
19.0500
 31
0.0000
  0
LINE
  8
16
 10
8.3820
 20
22.0980
 30
0.0000
 11
9.1440
 21
22.0980
 31
0.0000
  0
LINE
  8
16
 10
6.8580
 20
23.6220
 30
0.0000
 11
8.3820
 21
22.0980
 31
0.0000
  0
LINE
  8
16
 10
6.8580
 20
25.9080
 30
0.0000
 11
6.8580
 21
23.6220
 31
0.0000
  0
LINE
  8
16
 10
9.9060
 20
28.9560
 30
0.0000
 11
6.8580
 21
25.9080
 31
0.0000
  0
LINE
  8
16
 10
12.1920
 20
18.2880
 30
0.0000
 11
12.7000
 21
17.7800
 31
0.0000
  0
LINE
  8
16
 10
9.9060
 20
28.9560
 30
0.0000
 11
10.1600
 21
29.2354
 31
0.0000
  0
LINE
  8
16
 10
9.9060
 20
23.6220
 30
0.0000
 11
15.2400
 21
18.2880
 31
0.0000
  0
LINE
  8
16
 10
15.2400
 20
18.2880
 30
0.0000
 11
15.2400
 21
17.7800
 31
0.0000
  0
LINE
  8
16
 10
9.9060
 20
23.6220
 30
0.0000
 11
10.1600
 21
24.2570
 31
0.0000
  0
LINE
  8
16
 10
70.8660
 20
57.1500
 30
0.0000
 11
57.1500
 21
70.8660
 31
0.0000
  0
LINE
  8
16
 10
70.8660
 20
52.5780
 30
0.0000
 11
70.8660
 21
57.1500
 31
0.0000
  0
LINE
  8
16
 10
59.4360
 20
41.1480
 30
0.0000
 11
70.8660
 21
52.5780
 31
0.0000
  0
LINE
  8
16
 10
57.1500
 20
70.8660
 30
0.0000
 11
57.1500
 21
71.1200
 31
0.0000
  0
LINE
  8
16
 10
59.4360
 20
41.1480
 30
0.0000
 11
59.6900
 21
40.6400
 31
0.0000
  0
LINE
  8
16
 10
70.1040
 20
22.8600
 30
0.0000
 11
70.1040
 21
16.7640
 31
0.0000
  0
LINE
  8
16
 10
70.1040
 20
16.7640
 30
0.0000
 11
69.8500
 21
16.5100
 31
0.0000
  0
LINE
  8
16
 10
70.1040
 20
22.8600
 30
0.0000
 11
69.8500
 21
22.8600
 31
0.0000
  0
LINE
  8
16
 10
25.9080
 20
2.2860
 30
0.0000
 11
31.2420
 21
2.2860
 31
0.0000
  0
LINE
  8
16
 10
23.6220
 20
4.5720
 30
0.0000
 11
25.9080
 21
2.2860
 31
0.0000
  0
LINE
  8
16
 10
22.0980
 20
4.5720
 30
0.0000
 11
23.6220
 21
4.5720
 31
0.0000
  0
LINE
  8
16
 10
20.5740
 20
3.0480
 30
0.0000
 11
22.0980
 21
4.5720
 31
0.0000
  0
LINE
  8
16
 10
31.2420
 20
2.2860
 30
0.0000
 11
31.7500
 21
2.5400
 31
0.0000
  0
LINE
  8
16
 10
20.5740
 20
3.0480
 30
0.0000
 11
20.3200
 21
2.5400
 31
0.0000
  0
LINE
  8
16
 10
34.2900
 20
38.1000
 30
0.0000
 11
34.2900
 21
35.5600
 31
0.0000
  0
LINE
  8
16
 10
36.8300
 20
40.6400
 30
0.0000
 11
34.2900
 21
38.1000
 31
0.0000
  0
LINE
  8
16
 10
60.1980
 20
22.8600
 30
0.0000
 11
60.1980
 21
16.7640
 31
0.0000
  0
LINE
  8
16
 10
60.1980
 20
16.7640
 30
0.0000
 11
59.6900
 21
16.5100
 31
0.0000
  0
LINE
  8
16
 10
60.1980
 20
22.8600
 30
0.0000
 11
59.6900
 21
22.8600
 31
0.0000
  0
LINE
  8
16
 10
38.1000
 20
66.2940
 30
0.0000
 11
35.8140
 21
66.2940
 31
0.0000
  0
LINE
  8
16
 10
35.8140
 20
66.2940
 30
0.0000
 11
33.5280
 21
66.2940
 31
0.0000
  0
LINE
  8
16
 10
33.5280
 20
66.2940
 30
0.0000
 11
33.0200
 21
66.0400
 31
0.0000
  0
LINE
  8
16
 10
38.1000
 20
66.2940
 30
0.0000
 11
38.1000
 21
66.0400
 31
0.0000
  0
LINE
  8
16
 10
35.8140
 20
66.2940
 30
0.0000
 11
35.8140
 21
70.8660
 31
0.0000
  0
LINE
  8
16
 10
35.8140
 20
70.8660
 30
0.0000
 11
35.3060
 21
71.1200
 31
0.0000
  0
LINE
  8
16
 10
72.3900
 20
20.5740
 30
0.0000
 11
72.3900
 21
16.5100
 31
0.0000
  0
LINE
  8
16
 10
74.6760
 20
22.8600
 30
0.0000
 11
72.3900
 21
20.5740
 31
0.0000
  0
LINE
  8
16
 10
74.6760
 20
22.8600
 30
0.0000
 11
74.9300
 21
22.8600
 31
0.0000
  0
LINE
  8
16
 10
62.4840
 20
22.8600
 30
0.0000
 11
62.4840
 21
16.7640
 31
0.0000
  0
LINE
  8
16
 10
62.4840
 20
16.7640
 30
0.0000
 11
62.2300
 21
16.5100
 31
0.0000
  0
LINE
  8
16
 10
62.4840
 20
22.8600
 30
0.0000
 11
62.2300
 21
22.8600
 31
0.0000
  0
LINE
  8
16
 10
64.7700
 20
22.8600
 30
0.0000
 11
64.7700
 21
16.5100
 31
0.0000
  0
LINE
  8
16
 10
52.5780
 20
22.8600
 30
0.0000
 11
52.5780
 21
16.7640
 31
0.0000
  0
LINE
  8
16
 10
52.5780
 20
16.7640
 30
0.0000
 11
52.0700
 21
16.5100
 31
0.0000
  0
LINE
  8
16
 10
52.5780
 20
22.8600
 30
0.0000
 11
52.0700
 21
22.8600
 31
0.0000
  0
LINE
  8
16
 10
67.8180
 20
22.8600
 30
0.0000
 11
67.8180
 21
16.7640
 31
0.0000
  0
LINE
  8
16
 10
67.8180
 20
16.7640
 30
0.0000
 11
67.3100
 21
16.5100
 31
0.0000
  0
LINE
  8
16
 10
67.8180
 20
22.8600
 30
0.0000
 11
67.3100
 21
22.8600
 31
0.0000
  0
LINE
  8
16
 10
0.0000
 20
80.0100
 30
0.0000
 11
105.4100
 21
80.0100
 31
0.0000
  0
LINE
  8
16
 10
105.4100
 20
80.0100
 30
0.0000
 11
105.4100
 21
0.0000
 31
0.0000
  0
LINE
  8
16
 10
105.4100
 20
0.0000
 30
0.0000
 11
0.0000
 21
0.0000
 31
0.0000
  0
LINE
  8
16
 10
0.0000
 20
0.0000
 30
0.0000
 11
0.0000
 21
80.0100
 31
0.0000
  0
LINE
  8
16
 10
38.8620
 20
63.2460
 30
0.0000
 11
33.5280
 21
63.2460
 31
0.0000
  0
LINE
  8
16
 10
41.1480
 20
65.5320
 30
0.0000
 11
38.8620
 21
63.2460
 31
0.0000
  0
LINE
  8
16
 10
33.5280
 20
63.2460
 30
0.0000
 11
33.0200
 21
63.5000
 31
0.0000
  0
LINE
  8
16
 10
41.1480
 20
65.5320
 30
0.0000
 11
40.6400
 21
66.0400
 31
0.0000
  0
LINE
  8
16
 10
38.1000
 20
69.3420
 30
0.0000
 11
38.1000
 21
70.8660
 31
0.0000
  0
LINE
  8
16
 10
41.1480
 20
66.2940
 30
0.0000
 11
38.1000
 21
69.3420
 31
0.0000
  0
LINE
  8
16
 10
38.1000
 20
70.8660
 30
0.0000
 11
37.8460
 21
71.1200
 31
0.0000
  0
LINE
  8
16
 10
41.1480
 20
66.2940
 30
0.0000
 11
40.6400
 21
66.0400
 31
0.0000
  0
LINE
  8
16
 10
76.9620
 20
47.2440
 30
0.0000
 11
75.4380
 21
45.7200
 31
0.0000
  0
LINE
  8
16
 10
76.9620
 20
49.5300
 30
0.0000
 11
76.9620
 21
47.2440
 31
0.0000
  0
LINE
  8
16
 10
76.9620
 20
49.5300
 30
0.0000
 11
77.4700
 21
49.5300
 31
0.0000
  0
LINE
  8
16
 10
76.9620
 20
44.1960
 30
0.0000
 11
76.9620
 21
41.9100
 31
0.0000
  0
LINE
  8
16
 10
75.4380
 20
45.7200
 30
0.0000
 11
76.9620
 21
44.1960
 31
0.0000
  0
LINE
  8
16
 10
76.9620
 20
41.9100
 30
0.0000
 11
77.4700
 21
41.9100
 31
0.0000
  0
LINE
  8
16
 10
75.4380
 20
45.7200
 30
0.0000
 11
74.9300
 21
45.7200
 31
0.0000
  0
LINE
  8
16
 10
87.6300
 20
60.9600
 30
0.0000
 11
87.6300
 21
71.1200
 31
0.0000
  0
LINE
  8
16
 10
77.7240
 20
51.0540
 30
0.0000
 11
87.6300
 21
60.9600
 31
0.0000
  0
LINE
  8
16
 10
77.7240
 20
49.5300
 30
0.0000
 11
77.7240
 21
51.0540
 31
0.0000
  0
LINE
  8
16
 10
77.7240
 20
49.5300
 30
0.0000
 11
77.4700
 21
49.5300
 31
0.0000
  0
LINE
  8
16
 10
75.4380
 20
49.5300
 30
0.0000
 11
75.4380
 21
53.3400
 31
0.0000
  0
LINE
  8
16
 10
75.4380
 20
49.5300
 30
0.0000
 11
74.9300
 21
49.5300
 31
0.0000
  0
LINE
  8
16
 10
80.0100
 20
41.1480
 30
0.0000
 11
80.0100
 21
41.9100
 31
0.0000
  0
LINE
  8
16
 10
77.7240
 20
38.8620
 30
0.0000
 11
80.0100
 21
41.1480
 31
0.0000
  0
LINE
  8
16
 10
74.6760
 20
38.8620
 30
0.0000
 11
77.7240
 21
38.8620
 31
0.0000
  0
LINE
  8
16
 10
73.1520
 20
40.3860
 30
0.0000
 11
74.6760
 21
38.8620
 31
0.0000
  0
LINE
  8
16
 10
73.1520
 20
48.0060
 30
0.0000
 11
73.1520
 21
40.3860
 31
0.0000
  0
LINE
  8
16
 10
74.6760
 20
49.5300
 30
0.0000
 11
73.1520
 21
48.0060
 31
0.0000
  0
LINE
  8
16
 10
74.6760
 20
49.5300
 30
0.0000
 11
74.9300
 21
49.5300
 31
0.0000
  0
LINE
  8
16
 10
84.5820
 20
62.4840
 30
0.0000
 11
84.5820
 21
70.8660
 31
0.0000
  0
LINE
  8
16
 10
75.4380
 20
53.3400
 30
0.0000
 11
84.5820
 21
62.4840
 31
0.0000
  0
LINE
  8
16
 10
84.5820
 20
70.8660
 30
0.0000
 11
85.0900
 21
71.1200
 31
0.0000
  0
LINE
  8
16
 10
75.4380
 20
53.3400
 30
0.0000
 11
74.9300
 21
53.3400
 31
0.0000
  0
ENDSEC
  0
EOF
