  0
SECTION
  2
HEADER
  9
$ACADVER
  1
AC1009
  9
$FILLMODE
 70
0
  9
$EXTMIN
 10
-8.9535
 20
-1.9050
 30
0.0000
  9
$EXTMAX
 10
108.2750
 20
79.2480
 30
0.0000
  0
ENDSEC
  0
SECTION
  2
TABLES
  0
TABLE
  2
LTYPE
 70
1
  0
LTYPE
  2
CONTINUOUS
 70
64
  3
Solid line
 72
65
 73
0
 40
0
  0
ENDTAB
  0
TABLE
  2
LAYER
 70
255
  0
LAYER
  2
16
 70
64
 62
175
  6
CONTINUOUS
  0
LAYER
  2
17
 70
64
 62
82
  6
CONTINUOUS
  0
LAYER
  2
20
 70
64
 62
7
  6
CONTINUOUS
  0
LAYER
  2
44
 70
64
 62
253
  6
CONTINUOUS
  0
ENDTAB
  0
ENDSEC
  0
SECTION
  2
BLOCKS
  0
BLOCK
  8
0
  2
RECT
 70
64
 10
0.0000
 20
0.0000
 30
0.0000
  3
RECT
  0
SOLID
  8
0
 10
-0.5000
 20
-0.5000
 30
0.0000
 11
0.5000
 21
-0.5000
 31
0.0000
 12
-0.5000
 22
0.5000
 32
0.0000
 13
0.5000
 23
0.5000
 33
0.0000
  0
ENDBLK
  8
0
  0
BLOCK
  8
0
  2
PIE
 70
64
 10
0.0000
 20
0.0000
 30
0.0000
  3
PIE
  0
CIRCLE
  8
0
 10
0.0000
 20
0.0000
 30
0.0000
 40
0.5000
  0
ENDBLK
  8
0
  0
BLOCK
  8
0
  2
OCTAGONP
 70
64
 10
0.0000
 20
0.0000
 30
0.0000
  3
OCTAGONP
  0
POLYLINE
  8
0
 66
1
 10
0.0000
 20
0.0000
 30
0.0000
 40
0.0000
 41
0.0000
 70
1
  0
VERTEX
  8
0
 10
-0.5000
 20
-0.2071
 30
0.0000
  0
VERTEX
  8
0
 10
-0.5000
 20
0.2071
 30
0.0000
  0
VERTEX
  8
0
 10
-0.2071
 20
0.5000
 30
0.0000
  0
VERTEX
  8
0
 10
0.2071
 20
0.5000
 30
0.0000
  0
VERTEX
  8
0
 10
0.5000
 20
0.2071
 30
0.0000
  0
VERTEX
  8
0
 10
0.5000
 20
-0.2071
 30
0.0000
  0
VERTEX
  8
0
 10
0.2071
 20
-0.5000
 30
0.0000
  0
VERTEX
  8
0
 10
-0.2071
 20
-0.5000
 30
0.0000
  0
SEQEND
  8
0
  0
ENDBLK
  8
0
  0
BLOCK
  8
0
  2
SQUAREP
 70
64
 10
0.0000
 20
0.0000
 30
0.0000
  3
SQUAREP
  0
SOLID
  8
0
 10
-0.5000
 20
-0.5000
 30
0.0000
 11
0.5000
 21
-0.5000
 31
0.0000
 12
-0.5000
 22
0.5000
 32
0.0000
 13
0.5000
 23
0.5000
 33
0.0000
  0
ENDBLK
  8
0
  0
BLOCK
  8
0
  2
ROUNDP
 70
64
 10
0.0000
 20
0.0000
 30
0.0000
  3
ROUNDP
  0
CIRCLE
  8
0
 10
0.0000
 20
0.0000
 30
0.0000
 40
0.5000
  0
ENDBLK
  8
0
  0
BLOCK
  8
0
  2
ANNULUSP
 70
64
 10
0.0000
 20
0.0000
 30
0.0000
  3
ANNULUSP
  0
CIRCLE
  8
0
 10
0.0000
 20
0.0000
 30
0.0000
 40
0.5000
  0
ENDBLK
  8
0
  0
BLOCK
  8
0
  2
THERMALP
 70
64
 10
0.0000
 20
0.0000
 30
0.0000
  3
THERMALP
  0
POLYLINE
  8
0
 66
1
 10
0.0000
 20
0.0000
 30
0.0000
 40
0.0000
 41
0.0000
 70
1
  0
VERTEX
  8
0
 10
-0.2379
 20
0.4000
 30
0.0000
  0
VERTEX
  8
0
 10
0.2379
 20
0.4000
 30
0.0000
 42
1.0000
  0
VERTEX
  8
0
 10
0.2379
 20
0.5000
 30
0.0000
  0
VERTEX
  8
0
 10
-0.2379
 20
0.5000
 30
0.0000
 42
1.0000
  0
SEQEND
  8
0
  0
POLYLINE
  8
0
 66
1
 10
0.0000
 20
0.0000
 30
0.0000
 40
0.0000
 41
0.0000
 70
1
  0
VERTEX
  8
0
 10
0.4000
 20
0.2379
 30
0.0000
  0
VERTEX
  8
0
 10
0.4000
 20
-0.2379
 30
0.0000
 42
1.0000
  0
VERTEX
  8
0
 10
0.5000
 20
-0.2379
 30
0.0000
  0
VERTEX
  8
0
 10
0.5000
 20
0.2379
 30
0.0000
 42
1.0000
  0
SEQEND
  8
0
  0
POLYLINE
  8
0
 66
1
 10
0.0000
 20
0.0000
 30
0.0000
 40
0.0000
 41
0.0000
 70
1
  0
VERTEX
  8
0
 10
0.2379
 20
-0.4000
 30
0.0000
  0
VERTEX
  8
0
 10
-0.2379
 20
-0.4000
 30
0.0000
 42
1.0000
  0
VERTEX
  8
0
 10
-0.2379
 20
-0.5000
 30
0.0000
  0
VERTEX
  8
0
 10
0.2379
 20
-0.5000
 30
0.0000
 42
1.0000
  0
SEQEND
  8
0
  0
POLYLINE
  8
0
 66
1
 10
0.0000
 20
0.0000
 30
0.0000
 40
0.0000
 41
0.0000
 70
1
  0
VERTEX
  8
0
 10
-0.4000
 20
-0.2379
 30
0.0000
  0
VERTEX
  8
0
 10
-0.4000
 20
0.2379
 30
0.0000
 42
1.0000
  0
VERTEX
  8
0
 10
-0.5000
 20
0.2379
 30
0.0000
  0
VERTEX
  8
0
 10
-0.5000
 20
-0.2379
 30
0.0000
 42
1.0000
  0
SEQEND
  8
0
  0
ENDBLK
  8
0
  0
BLOCK
  8
0
  2
OCTAGONV
 70
64
 10
0.0000
 20
0.0000
 30
0.0000
  3
OCTAGONV
  0
POLYLINE
  8
0
 66
1
 10
0.0000
 20
0.0000
 30
0.0000
 40
0.0000
 41
0.0000
 70
1
  0
VERTEX
  8
0
 10
-0.5000
 20
-0.2071
 30
0.0000
  0
VERTEX
  8
0
 10
-0.5000
 20
0.2071
 30
0.0000
  0
VERTEX
  8
0
 10
-0.2071
 20
0.5000
 30
0.0000
  0
VERTEX
  8
0
 10
0.2071
 20
0.5000
 30
0.0000
  0
VERTEX
  8
0
 10
0.5000
 20
0.2071
 30
0.0000
  0
VERTEX
  8
0
 10
0.5000
 20
-0.2071
 30
0.0000
  0
VERTEX
  8
0
 10
0.2071
 20
-0.5000
 30
0.0000
  0
VERTEX
  8
0
 10
-0.2071
 20
-0.5000
 30
0.0000
  0
SEQEND
  8
0
  0
ENDBLK
  8
0
  0
BLOCK
  8
0
  2
SQUAREV
 70
64
 10
0.0000
 20
0.0000
 30
0.0000
  3
SQUAREV
  0
SOLID
  8
0
 10
-0.5000
 20
-0.5000
 30
0.0000
 11
0.5000
 21
-0.5000
 31
0.0000
 12
-0.5000
 22
0.5000
 32
0.0000
 13
0.5000
 23
0.5000
 33
0.0000
  0
ENDBLK
  8
0
  0
BLOCK
  8
0
  2
ROUNDV
 70
64
 10
0.0000
 20
0.0000
 30
0.0000
  3
ROUNDV
  0
CIRCLE
  8
0
 10
0.0000
 20
0.0000
 30
0.0000
 40
0.5000
  0
ENDBLK
  8
0
  0
BLOCK
  8
0
  2
ANNULUSV
 70
64
 10
0.0000
 20
0.0000
 30
0.0000
  3
ANNULUSV
  0
CIRCLE
  8
0
 10
0.0000
 20
0.0000
 30
0.0000
 40
0.5000
  0
ENDBLK
  8
0
  0
BLOCK
  8
0
  2
THERMALV
 70
64
 10
0.0000
 20
0.0000
 30
0.0000
  3
THERMALV
  0
POLYLINE
  8
0
 66
1
 10
0.0000
 20
0.0000
 30
0.0000
 40
0.0000
 41
0.0000
 70
1
  0
VERTEX
  8
0
 10
-0.2379
 20
0.4000
 30
0.0000
  0
VERTEX
  8
0
 10
0.2379
 20
0.4000
 30
0.0000
 42
1.0000
  0
VERTEX
  8
0
 10
0.2379
 20
0.5000
 30
0.0000
  0
VERTEX
  8
0
 10
-0.2379
 20
0.5000
 30
0.0000
 42
1.0000
  0
SEQEND
  8
0
  0
POLYLINE
  8
0
 66
1
 10
0.0000
 20
0.0000
 30
0.0000
 40
0.0000
 41
0.0000
 70
1
  0
VERTEX
  8
0
 10
0.4000
 20
0.2379
 30
0.0000
  0
VERTEX
  8
0
 10
0.4000
 20
-0.2379
 30
0.0000
 42
1.0000
  0
VERTEX
  8
0
 10
0.5000
 20
-0.2379
 30
0.0000
  0
VERTEX
  8
0
 10
0.5000
 20
0.2379
 30
0.0000
 42
1.0000
  0
SEQEND
  8
0
  0
POLYLINE
  8
0
 66
1
 10
0.0000
 20
0.0000
 30
0.0000
 40
0.0000
 41
0.0000
 70
1
  0
VERTEX
  8
0
 10
0.2379
 20
-0.4000
 30
0.0000
  0
VERTEX
  8
0
 10
-0.2379
 20
-0.4000
 30
0.0000
 42
1.0000
  0
VERTEX
  8
0
 10
-0.2379
 20
-0.5000
 30
0.0000
  0
VERTEX
  8
0
 10
0.2379
 20
-0.5000
 30
0.0000
 42
1.0000
  0
SEQEND
  8
0
  0
POLYLINE
  8
0
 66
1
 10
0.0000
 20
0.0000
 30
0.0000
 40
0.0000
 41
0.0000
 70
1
  0
VERTEX
  8
0
 10
-0.4000
 20
-0.2379
 30
0.0000
  0
VERTEX
  8
0
 10
-0.4000
 20
0.2379
 30
0.0000
 42
1.0000
  0
VERTEX
  8
0
 10
-0.5000
 20
0.2379
 30
0.0000
  0
VERTEX
  8
0
 10
-0.5000
 20
-0.2379
 30
0.0000
 42
1.0000
  0
SEQEND
  8
0
  0
ENDBLK
  8
0
  0
BLOCK
  8
0
  2
LONGP100
 70
64
 10
0.0000
 20
0.0000
 30
0.0000
  3
LONGP100
  0
POLYLINE
  8
0
 66
1
 10
0.0000
 20
0.0000
 30
0.0000
 40
0.0000
 41
0.0000
 70
1
  0
VERTEX
  8
0
 10
-0.5000
 20
-0.5000
 30
0.0000
  0
VERTEX
  8
0
 10
0.5000
 20
-0.5000
 30
0.0000
 42
1.0000
  0
VERTEX
  8
0
 10
0.5000
 20
0.5000
 30
0.0000
  0
VERTEX
  8
0
 10
-0.5000
 20
0.5000
 30
0.0000
 42
1.0000
  0
SEQEND
  8
0
  0
ENDBLK
  8
0
  0
ENDSEC
  0
SECTION
  2
ENTITIES
  0
LINE
  8
20
 10
0.6350
 20
3.8100
 30
0.0000
 11
101.2700
 21
3.8100
 31
0.0000
  0
LINE
  8
20
 10
101.2700
 20
3.8100
 30
0.0000
 11
101.2700
 21
73.0150
 31
0.0000
  0
LINE
  8
20
 10
101.2700
 20
73.0150
 30
0.0000
 11
0.6350
 21
73.0150
 31
0.0000
  0
LINE
  8
20
 10
0.6350
 20
73.0150
 30
0.0000
 11
0.6350
 21
3.8100
 31
0.0000
  0
INSERT
  8
17
  2
LONGP100
 10
84.4550
 20
41.9100
 30
0.0000
 41
1.5240
 42
1.5240
 43
1.0000
 50
270.0000
  0
CIRCLE
  8
44
 10
84.4550
 20
41.9100
 30
0.0000
 40
0.5080
  0
INSERT
  8
17
  2
LONGP100
 10
81.9150
 20
41.9100
 30
0.0000
 41
1.5240
 42
1.5240
 43
1.0000
 50
270.0000
  0
CIRCLE
  8
44
 10
81.9150
 20
41.9100
 30
0.0000
 40
0.5080
  0
INSERT
  8
17
  2
LONGP100
 10
79.3750
 20
41.9100
 30
0.0000
 41
1.5240
 42
1.5240
 43
1.0000
 50
270.0000
  0
CIRCLE
  8
44
 10
79.3750
 20
41.9100
 30
0.0000
 40
0.5080
  0
INSERT
  8
17
  2
LONGP100
 10
76.8350
 20
41.9100
 30
0.0000
 41
1.5240
 42
1.5240
 43
1.0000
 50
270.0000
  0
CIRCLE
  8
44
 10
76.8350
 20
41.9100
 30
0.0000
 40
0.5080
  0
INSERT
  8
17
  2
LONGP100
 10
74.2950
 20
41.9100
 30
0.0000
 41
1.5240
 42
1.5240
 43
1.0000
 50
270.0000
  0
CIRCLE
  8
44
 10
74.2950
 20
41.9100
 30
0.0000
 40
0.5080
  0
INSERT
  8
17
  2
LONGP100
 10
71.7550
 20
41.9100
 30
0.0000
 41
1.5240
 42
1.5240
 43
1.0000
 50
270.0000
  0
CIRCLE
  8
44
 10
71.7550
 20
41.9100
 30
0.0000
 40
0.5080
  0
CIRCLE
  8
20
 10
12.7000
 20
69.8500
 30
0.0000
 40
1.6000
  0
CIRCLE
  8
20
 10
11.4300
 20
21.5900
 30
0.0000
 40
1.6000
  0
CIRCLE
  8
20
 10
63.5000
 20
54.6100
 30
0.0000
 40
1.6000
  0
CIRCLE
  8
20
 10
63.5000
 20
26.6700
 30
0.0000
 40
1.6000
  0
CIRCLE
  8
20
 10
87.6300
 20
69.8500
 30
0.0000
 40
1.6000
  0
CIRCLE
  8
20
 10
93.9800
 20
21.5900
 30
0.0000
 40
1.6000
  0
INSERT
  8
17
  2
ROUNDP
 10
60.9600
 20
69.8500
 30
0.0000
 41
1.8796
 42
1.8796
 43
1.0000
 50
90.0000
  0
CIRCLE
  8
44
 10
60.9600
 20
69.8500
 30
0.0000
 40
0.5080
  0
INSERT
  8
17
  2
ROUNDP
 10
58.4200
 20
69.8500
 30
0.0000
 41
1.8796
 42
1.8796
 43
1.0000
 50
90.0000
  0
CIRCLE
  8
44
 10
58.4200
 20
69.8500
 30
0.0000
 40
0.5080
  0
INSERT
  8
17
  2
ROUNDP
 10
55.8800
 20
69.8500
 30
0.0000
 41
1.8796
 42
1.8796
 43
1.0000
 50
90.0000
  0
CIRCLE
  8
44
 10
55.8800
 20
69.8500
 30
0.0000
 40
0.5080
  0
INSERT
  8
17
  2
ROUNDP
 10
53.3400
 20
69.8500
 30
0.0000
 41
1.8796
 42
1.8796
 43
1.0000
 50
90.0000
  0
CIRCLE
  8
44
 10
53.3400
 20
69.8500
 30
0.0000
 40
0.5080
  0
INSERT
  8
17
  2
ROUNDP
 10
33.0200
 20
21.5900
 30
0.0000
 41
1.8796
 42
1.8796
 43
1.0000
 50
90.0000
  0
CIRCLE
  8
44
 10
33.0200
 20
21.5900
 30
0.0000
 40
0.5080
  0
INSERT
  8
17
  2
ROUNDP
 10
50.8000
 20
69.8500
 30
0.0000
 41
1.8796
 42
1.8796
 43
1.0000
 50
90.0000
  0
CIRCLE
  8
44
 10
50.8000
 20
69.8500
 30
0.0000
 40
0.5080
  0
INSERT
  8
17
  2
ROUNDP
 10
48.2600
 20
69.8500
 30
0.0000
 41
1.8796
 42
1.8796
 43
1.0000
 50
90.0000
  0
CIRCLE
  8
44
 10
48.2600
 20
69.8500
 30
0.0000
 40
0.5080
  0
INSERT
  8
17
  2
ROUNDP
 10
35.5600
 20
21.5900
 30
0.0000
 41
1.8796
 42
1.8796
 43
1.0000
 50
90.0000
  0
CIRCLE
  8
44
 10
35.5600
 20
21.5900
 30
0.0000
 40
0.5080
  0
INSERT
  8
17
  2
ROUNDP
 10
91.4400
 20
69.8500
 30
0.0000
 41
1.8796
 42
1.8796
 43
1.0000
 50
90.0000
  0
CIRCLE
  8
44
 10
91.4400
 20
69.8500
 30
0.0000
 40
0.5080
  0
INSERT
  8
17
  2
ROUNDP
 10
93.9800
 20
69.8500
 30
0.0000
 41
1.8796
 42
1.8796
 43
1.0000
 50
90.0000
  0
CIRCLE
  8
44
 10
93.9800
 20
69.8500
 30
0.0000
 40
0.5080
  0
INSERT
  8
17
  2
ROUNDP
 10
45.7200
 20
69.8500
 30
0.0000
 41
1.8796
 42
1.8796
 43
1.0000
 50
90.0000
  0
CIRCLE
  8
44
 10
45.7200
 20
69.8500
 30
0.0000
 40
0.5080
  0
INSERT
  8
17
  2
ROUNDP
 10
43.1800
 20
69.8500
 30
0.0000
 41
1.8796
 42
1.8796
 43
1.0000
 50
90.0000
  0
CIRCLE
  8
44
 10
43.1800
 20
69.8500
 30
0.0000
 40
0.5080
  0
INSERT
  8
17
  2
ROUNDP
 10
39.1160
 20
69.8500
 30
0.0000
 41
1.8796
 42
1.8796
 43
1.0000
 50
90.0000
  0
CIRCLE
  8
44
 10
39.1160
 20
69.8500
 30
0.0000
 40
0.5080
  0
INSERT
  8
17
  2
ROUNDP
 10
36.5760
 20
69.8500
 30
0.0000
 41
1.8796
 42
1.8796
 43
1.0000
 50
90.0000
  0
CIRCLE
  8
44
 10
36.5760
 20
69.8500
 30
0.0000
 40
0.5080
  0
INSERT
  8
17
  2
ROUNDP
 10
34.0360
 20
69.8500
 30
0.0000
 41
1.8796
 42
1.8796
 43
1.0000
 50
90.0000
  0
CIRCLE
  8
44
 10
34.0360
 20
69.8500
 30
0.0000
 40
0.5080
  0
INSERT
  8
17
  2
ROUNDP
 10
31.4960
 20
69.8500
 30
0.0000
 41
1.8796
 42
1.8796
 43
1.0000
 50
90.0000
  0
CIRCLE
  8
44
 10
31.4960
 20
69.8500
 30
0.0000
 40
0.5080
  0
INSERT
  8
17
  2
ROUNDP
 10
28.9560
 20
69.8500
 30
0.0000
 41
1.8796
 42
1.8796
 43
1.0000
 50
90.0000
  0
CIRCLE
  8
44
 10
28.9560
 20
69.8500
 30
0.0000
 40
0.5080
  0
INSERT
  8
17
  2
ROUNDP
 10
26.4160
 20
69.8500
 30
0.0000
 41
1.8796
 42
1.8796
 43
1.0000
 50
90.0000
  0
CIRCLE
  8
44
 10
26.4160
 20
69.8500
 30
0.0000
 40
0.5080
  0
INSERT
  8
17
  2
ROUNDP
 10
66.0400
 20
69.8500
 30
0.0000
 41
1.8796
 42
1.8796
 43
1.0000
 50
90.0000
  0
CIRCLE
  8
44
 10
66.0400
 20
69.8500
 30
0.0000
 40
0.5080
  0
INSERT
  8
17
  2
ROUNDP
 10
68.5800
 20
69.8500
 30
0.0000
 41
1.8796
 42
1.8796
 43
1.0000
 50
90.0000
  0
CIRCLE
  8
44
 10
68.5800
 20
69.8500
 30
0.0000
 40
0.5080
  0
INSERT
  8
17
  2
ROUNDP
 10
71.1200
 20
69.8500
 30
0.0000
 41
1.8796
 42
1.8796
 43
1.0000
 50
90.0000
  0
CIRCLE
  8
44
 10
71.1200
 20
69.8500
 30
0.0000
 40
0.5080
  0
INSERT
  8
17
  2
ROUNDP
 10
73.6600
 20
69.8500
 30
0.0000
 41
1.8796
 42
1.8796
 43
1.0000
 50
90.0000
  0
CIRCLE
  8
44
 10
73.6600
 20
69.8500
 30
0.0000
 40
0.5080
  0
INSERT
  8
17
  2
ROUNDP
 10
76.2000
 20
69.8500
 30
0.0000
 41
1.8796
 42
1.8796
 43
1.0000
 50
90.0000
  0
CIRCLE
  8
44
 10
76.2000
 20
69.8500
 30
0.0000
 40
0.5080
  0
INSERT
  8
17
  2
ROUNDP
 10
78.7400
 20
69.8500
 30
0.0000
 41
1.8796
 42
1.8796
 43
1.0000
 50
90.0000
  0
CIRCLE
  8
44
 10
78.7400
 20
69.8500
 30
0.0000
 40
0.5080
  0
INSERT
  8
17
  2
ROUNDP
 10
81.2800
 20
69.8500
 30
0.0000
 41
1.8796
 42
1.8796
 43
1.0000
 50
90.0000
  0
CIRCLE
  8
44
 10
81.2800
 20
69.8500
 30
0.0000
 40
0.5080
  0
INSERT
  8
17
  2
ROUNDP
 10
83.8200
 20
69.8500
 30
0.0000
 41
1.8796
 42
1.8796
 43
1.0000
 50
90.0000
  0
CIRCLE
  8
44
 10
83.8200
 20
69.8500
 30
0.0000
 40
0.5080
  0
INSERT
  8
17
  2
OCTAGONP
 10
91.4400
 20
67.3100
 30
0.0000
 41
1.8796
 42
1.8796
 43
1.0000
 50
90.0000
  0
CIRCLE
  8
44
 10
91.4400
 20
67.3100
 30
0.0000
 40
0.5080
  0
INSERT
  8
17
  2
OCTAGONP
 10
93.9800
 20
67.3100
 30
0.0000
 41
1.8796
 42
1.8796
 43
1.0000
 50
90.0000
  0
CIRCLE
  8
44
 10
93.9800
 20
67.3100
 30
0.0000
 40
0.5080
  0
INSERT
  8
17
  2
OCTAGONP
 10
91.4400
 20
64.7700
 30
0.0000
 41
1.8796
 42
1.8796
 43
1.0000
 50
90.0000
  0
CIRCLE
  8
44
 10
91.4400
 20
64.7700
 30
0.0000
 40
0.5080
  0
INSERT
  8
17
  2
OCTAGONP
 10
93.9800
 20
64.7700
 30
0.0000
 41
1.8796
 42
1.8796
 43
1.0000
 50
90.0000
  0
CIRCLE
  8
44
 10
93.9800
 20
64.7700
 30
0.0000
 40
0.5080
  0
INSERT
  8
17
  2
OCTAGONP
 10
91.4400
 20
62.2300
 30
0.0000
 41
1.8796
 42
1.8796
 43
1.0000
 50
90.0000
  0
CIRCLE
  8
44
 10
91.4400
 20
62.2300
 30
0.0000
 40
0.5080
  0
INSERT
  8
17
  2
OCTAGONP
 10
93.9800
 20
62.2300
 30
0.0000
 41
1.8796
 42
1.8796
 43
1.0000
 50
90.0000
  0
CIRCLE
  8
44
 10
93.9800
 20
62.2300
 30
0.0000
 40
0.5080
  0
INSERT
  8
17
  2
OCTAGONP
 10
91.4400
 20
59.6900
 30
0.0000
 41
1.8796
 42
1.8796
 43
1.0000
 50
90.0000
  0
CIRCLE
  8
44
 10
91.4400
 20
59.6900
 30
0.0000
 40
0.5080
  0
INSERT
  8
17
  2
OCTAGONP
 10
93.9800
 20
59.6900
 30
0.0000
 41
1.8796
 42
1.8796
 43
1.0000
 50
90.0000
  0
CIRCLE
  8
44
 10
93.9800
 20
59.6900
 30
0.0000
 40
0.5080
  0
INSERT
  8
17
  2
OCTAGONP
 10
91.4400
 20
57.1500
 30
0.0000
 41
1.8796
 42
1.8796
 43
1.0000
 50
90.0000
  0
CIRCLE
  8
44
 10
91.4400
 20
57.1500
 30
0.0000
 40
0.5080
  0
INSERT
  8
17
  2
OCTAGONP
 10
93.9800
 20
57.1500
 30
0.0000
 41
1.8796
 42
1.8796
 43
1.0000
 50
90.0000
  0
CIRCLE
  8
44
 10
93.9800
 20
57.1500
 30
0.0000
 40
0.5080
  0
INSERT
  8
17
  2
OCTAGONP
 10
91.4400
 20
54.6100
 30
0.0000
 41
1.8796
 42
1.8796
 43
1.0000
 50
90.0000
  0
CIRCLE
  8
44
 10
91.4400
 20
54.6100
 30
0.0000
 40
0.5080
  0
INSERT
  8
17
  2
OCTAGONP
 10
93.9800
 20
54.6100
 30
0.0000
 41
1.8796
 42
1.8796
 43
1.0000
 50
90.0000
  0
CIRCLE
  8
44
 10
93.9800
 20
54.6100
 30
0.0000
 40
0.5080
  0
INSERT
  8
17
  2
OCTAGONP
 10
91.4400
 20
52.0700
 30
0.0000
 41
1.8796
 42
1.8796
 43
1.0000
 50
90.0000
  0
CIRCLE
  8
44
 10
91.4400
 20
52.0700
 30
0.0000
 40
0.5080
  0
INSERT
  8
17
  2
OCTAGONP
 10
93.9800
 20
52.0700
 30
0.0000
 41
1.8796
 42
1.8796
 43
1.0000
 50
90.0000
  0
CIRCLE
  8
44
 10
93.9800
 20
52.0700
 30
0.0000
 40
0.5080
  0
INSERT
  8
17
  2
OCTAGONP
 10
91.4400
 20
49.5300
 30
0.0000
 41
1.8796
 42
1.8796
 43
1.0000
 50
90.0000
  0
CIRCLE
  8
44
 10
91.4400
 20
49.5300
 30
0.0000
 40
0.5080
  0
INSERT
  8
17
  2
OCTAGONP
 10
93.9800
 20
49.5300
 30
0.0000
 41
1.8796
 42
1.8796
 43
1.0000
 50
90.0000
  0
CIRCLE
  8
44
 10
93.9800
 20
49.5300
 30
0.0000
 40
0.5080
  0
INSERT
  8
17
  2
OCTAGONP
 10
91.4400
 20
46.9900
 30
0.0000
 41
1.8796
 42
1.8796
 43
1.0000
 50
90.0000
  0
CIRCLE
  8
44
 10
91.4400
 20
46.9900
 30
0.0000
 40
0.5080
  0
INSERT
  8
17
  2
OCTAGONP
 10
93.9800
 20
46.9900
 30
0.0000
 41
1.8796
 42
1.8796
 43
1.0000
 50
90.0000
  0
CIRCLE
  8
44
 10
93.9800
 20
46.9900
 30
0.0000
 40
0.5080
  0
INSERT
  8
17
  2
OCTAGONP
 10
91.4400
 20
44.4500
 30
0.0000
 41
1.8796
 42
1.8796
 43
1.0000
 50
90.0000
  0
CIRCLE
  8
44
 10
91.4400
 20
44.4500
 30
0.0000
 40
0.5080
  0
INSERT
  8
17
  2
OCTAGONP
 10
93.9800
 20
44.4500
 30
0.0000
 41
1.8796
 42
1.8796
 43
1.0000
 50
90.0000
  0
CIRCLE
  8
44
 10
93.9800
 20
44.4500
 30
0.0000
 40
0.5080
  0
INSERT
  8
17
  2
OCTAGONP
 10
91.4400
 20
41.9100
 30
0.0000
 41
1.8796
 42
1.8796
 43
1.0000
 50
90.0000
  0
CIRCLE
  8
44
 10
91.4400
 20
41.9100
 30
0.0000
 40
0.5080
  0
INSERT
  8
17
  2
OCTAGONP
 10
93.9800
 20
41.9100
 30
0.0000
 41
1.8796
 42
1.8796
 43
1.0000
 50
90.0000
  0
CIRCLE
  8
44
 10
93.9800
 20
41.9100
 30
0.0000
 40
0.5080
  0
INSERT
  8
17
  2
OCTAGONP
 10
91.4400
 20
39.3700
 30
0.0000
 41
1.8796
 42
1.8796
 43
1.0000
 50
90.0000
  0
CIRCLE
  8
44
 10
91.4400
 20
39.3700
 30
0.0000
 40
0.5080
  0
INSERT
  8
17
  2
OCTAGONP
 10
93.9800
 20
39.3700
 30
0.0000
 41
1.8796
 42
1.8796
 43
1.0000
 50
90.0000
  0
CIRCLE
  8
44
 10
93.9800
 20
39.3700
 30
0.0000
 40
0.5080
  0
INSERT
  8
17
  2
OCTAGONP
 10
91.4400
 20
36.8300
 30
0.0000
 41
1.8796
 42
1.8796
 43
1.0000
 50
90.0000
  0
CIRCLE
  8
44
 10
91.4400
 20
36.8300
 30
0.0000
 40
0.5080
  0
INSERT
  8
17
  2
OCTAGONP
 10
93.9800
 20
36.8300
 30
0.0000
 41
1.8796
 42
1.8796
 43
1.0000
 50
90.0000
  0
CIRCLE
  8
44
 10
93.9800
 20
36.8300
 30
0.0000
 40
0.5080
  0
INSERT
  8
17
  2
OCTAGONP
 10
91.4400
 20
34.2900
 30
0.0000
 41
1.8796
 42
1.8796
 43
1.0000
 50
90.0000
  0
CIRCLE
  8
44
 10
91.4400
 20
34.2900
 30
0.0000
 40
0.5080
  0
INSERT
  8
17
  2
OCTAGONP
 10
93.9800
 20
34.2900
 30
0.0000
 41
1.8796
 42
1.8796
 43
1.0000
 50
90.0000
  0
CIRCLE
  8
44
 10
93.9800
 20
34.2900
 30
0.0000
 40
0.5080
  0
INSERT
  8
17
  2
OCTAGONP
 10
91.4400
 20
31.7500
 30
0.0000
 41
1.8796
 42
1.8796
 43
1.0000
 50
90.0000
  0
CIRCLE
  8
44
 10
91.4400
 20
31.7500
 30
0.0000
 40
0.5080
  0
INSERT
  8
17
  2
OCTAGONP
 10
93.9800
 20
31.7500
 30
0.0000
 41
1.8796
 42
1.8796
 43
1.0000
 50
90.0000
  0
CIRCLE
  8
44
 10
93.9800
 20
31.7500
 30
0.0000
 40
0.5080
  0
INSERT
  8
17
  2
OCTAGONP
 10
91.4400
 20
29.2100
 30
0.0000
 41
1.8796
 42
1.8796
 43
1.0000
 50
90.0000
  0
CIRCLE
  8
44
 10
91.4400
 20
29.2100
 30
0.0000
 40
0.5080
  0
INSERT
  8
17
  2
OCTAGONP
 10
93.9800
 20
29.2100
 30
0.0000
 41
1.8796
 42
1.8796
 43
1.0000
 50
90.0000
  0
CIRCLE
  8
44
 10
93.9800
 20
29.2100
 30
0.0000
 40
0.5080
  0
INSERT
  8
17
  2
ROUNDP
 10
48.2600
 20
21.5900
 30
0.0000
 41
1.8796
 42
1.8796
 43
1.0000
 50
90.0000
  0
CIRCLE
  8
44
 10
48.2600
 20
21.5900
 30
0.0000
 40
0.5080
  0
INSERT
  8
17
  2
ROUNDP
 10
50.8000
 20
21.5900
 30
0.0000
 41
1.8796
 42
1.8796
 43
1.0000
 50
90.0000
  0
CIRCLE
  8
44
 10
50.8000
 20
21.5900
 30
0.0000
 40
0.5080
  0
INSERT
  8
17
  2
ROUNDP
 10
53.3400
 20
21.5900
 30
0.0000
 41
1.8796
 42
1.8796
 43
1.0000
 50
90.0000
  0
CIRCLE
  8
44
 10
53.3400
 20
21.5900
 30
0.0000
 40
0.5080
  0
INSERT
  8
17
  2
ROUNDP
 10
55.8800
 20
21.5900
 30
0.0000
 41
1.8796
 42
1.8796
 43
1.0000
 50
90.0000
  0
CIRCLE
  8
44
 10
55.8800
 20
21.5900
 30
0.0000
 40
0.5080
  0
INSERT
  8
17
  2
ROUNDP
 10
58.4200
 20
21.5900
 30
0.0000
 41
1.8796
 42
1.8796
 43
1.0000
 50
90.0000
  0
CIRCLE
  8
44
 10
58.4200
 20
21.5900
 30
0.0000
 40
0.5080
  0
INSERT
  8
17
  2
ROUNDP
 10
60.9600
 20
21.5900
 30
0.0000
 41
1.8796
 42
1.8796
 43
1.0000
 50
90.0000
  0
CIRCLE
  8
44
 10
60.9600
 20
21.5900
 30
0.0000
 40
0.5080
  0
INSERT
  8
17
  2
ROUNDP
 10
63.5000
 20
21.5900
 30
0.0000
 41
1.8796
 42
1.8796
 43
1.0000
 50
90.0000
  0
CIRCLE
  8
44
 10
63.5000
 20
21.5900
 30
0.0000
 40
0.5080
  0
INSERT
  8
17
  2
ROUNDP
 10
66.0400
 20
21.5900
 30
0.0000
 41
1.8796
 42
1.8796
 43
1.0000
 50
90.0000
  0
CIRCLE
  8
44
 10
66.0400
 20
21.5900
 30
0.0000
 40
0.5080
  0
INSERT
  8
17
  2
ROUNDP
 10
71.1200
 20
21.5900
 30
0.0000
 41
1.8796
 42
1.8796
 43
1.0000
 50
90.0000
  0
CIRCLE
  8
44
 10
71.1200
 20
21.5900
 30
0.0000
 40
0.5080
  0
INSERT
  8
17
  2
ROUNDP
 10
73.6600
 20
21.5900
 30
0.0000
 41
1.8796
 42
1.8796
 43
1.0000
 50
90.0000
  0
CIRCLE
  8
44
 10
73.6600
 20
21.5900
 30
0.0000
 40
0.5080
  0
INSERT
  8
17
  2
ROUNDP
 10
76.2000
 20
21.5900
 30
0.0000
 41
1.8796
 42
1.8796
 43
1.0000
 50
90.0000
  0
CIRCLE
  8
44
 10
76.2000
 20
21.5900
 30
0.0000
 40
0.5080
  0
INSERT
  8
17
  2
ROUNDP
 10
78.7400
 20
21.5900
 30
0.0000
 41
1.8796
 42
1.8796
 43
1.0000
 50
90.0000
  0
CIRCLE
  8
44
 10
78.7400
 20
21.5900
 30
0.0000
 40
0.5080
  0
INSERT
  8
17
  2
ROUNDP
 10
81.2800
 20
21.5900
 30
0.0000
 41
1.8796
 42
1.8796
 43
1.0000
 50
90.0000
  0
CIRCLE
  8
44
 10
81.2800
 20
21.5900
 30
0.0000
 40
0.5080
  0
INSERT
  8
17
  2
ROUNDP
 10
83.8200
 20
21.5900
 30
0.0000
 41
1.8796
 42
1.8796
 43
1.0000
 50
90.0000
  0
CIRCLE
  8
44
 10
83.8200
 20
21.5900
 30
0.0000
 40
0.5080
  0
INSERT
  8
17
  2
ROUNDP
 10
86.3600
 20
21.5900
 30
0.0000
 41
1.8796
 42
1.8796
 43
1.0000
 50
90.0000
  0
CIRCLE
  8
44
 10
86.3600
 20
21.5900
 30
0.0000
 40
0.5080
  0
INSERT
  8
17
  2
ROUNDP
 10
88.9000
 20
21.5900
 30
0.0000
 41
1.8796
 42
1.8796
 43
1.0000
 50
90.0000
  0
CIRCLE
  8
44
 10
88.9000
 20
21.5900
 30
0.0000
 40
0.5080
  0
INSERT
  8
17
  2
ROUNDP
 10
21.3360
 20
69.8500
 30
0.0000
 41
1.8796
 42
1.8796
 43
1.0000
 50
90.0000
  0
CIRCLE
  8
44
 10
21.3360
 20
69.8500
 30
0.0000
 40
0.5080
  0
INSERT
  8
17
  2
ROUNDP
 10
38.1000
 20
21.5900
 30
0.0000
 41
1.8796
 42
1.8796
 43
1.0000
 50
90.0000
  0
CIRCLE
  8
44
 10
38.1000
 20
21.5900
 30
0.0000
 40
0.5080
  0
INSERT
  8
17
  2
ROUNDP
 10
40.6400
 20
21.5900
 30
0.0000
 41
1.8796
 42
1.8796
 43
1.0000
 50
90.0000
  0
CIRCLE
  8
44
 10
40.6400
 20
21.5900
 30
0.0000
 40
0.5080
  0
INSERT
  8
17
  2
ROUNDP
 10
91.4400
 20
26.6700
 30
0.0000
 41
1.8796
 42
1.8796
 43
1.0000
 50
90.0000
  0
CIRCLE
  8
44
 10
91.4400
 20
26.6700
 30
0.0000
 40
0.5080
  0
INSERT
  8
17
  2
ROUNDP
 10
93.9800
 20
26.6700
 30
0.0000
 41
1.8796
 42
1.8796
 43
1.0000
 50
90.0000
  0
CIRCLE
  8
44
 10
93.9800
 20
26.6700
 30
0.0000
 40
0.5080
  0
INSERT
  8
17
  2
ROUNDP
 10
23.8760
 20
69.8500
 30
0.0000
 41
1.8796
 42
1.8796
 43
1.0000
 50
90.0000
  0
CIRCLE
  8
44
 10
23.8760
 20
69.8500
 30
0.0000
 40
0.5080
  0
INSERT
  8
17
  2
ROUNDP
 10
30.4800
 20
21.5900
 30
0.0000
 41
1.8796
 42
1.8796
 43
1.0000
 50
90.0000
  0
CIRCLE
  8
44
 10
30.4800
 20
21.5900
 30
0.0000
 40
0.5080
  0
INSERT
  8
17
  2
ROUNDP
 10
43.1800
 20
21.5900
 30
0.0000
 41
1.8796
 42
1.8796
 43
1.0000
 50
90.0000
  0
CIRCLE
  8
44
 10
43.1800
 20
21.5900
 30
0.0000
 40
0.5080
  0
INSERT
  8
17
  2
LONGP100
 10
84.4550
 20
48.2600
 30
0.0000
 41
1.5240
 42
1.5240
 43
1.0000
 50
270.0000
  0
CIRCLE
  8
44
 10
84.4550
 20
48.2600
 30
0.0000
 40
0.5080
  0
INSERT
  8
17
  2
LONGP100
 10
81.9150
 20
48.2600
 30
0.0000
 41
1.5240
 42
1.5240
 43
1.0000
 50
270.0000
  0
CIRCLE
  8
44
 10
81.9150
 20
48.2600
 30
0.0000
 40
0.5080
  0
INSERT
  8
17
  2
LONGP100
 10
79.3750
 20
48.2600
 30
0.0000
 41
1.5240
 42
1.5240
 43
1.0000
 50
270.0000
  0
CIRCLE
  8
44
 10
79.3750
 20
48.2600
 30
0.0000
 40
0.5080
  0
INSERT
  8
17
  2
LONGP100
 10
76.8350
 20
48.2600
 30
0.0000
 41
1.5240
 42
1.5240
 43
1.0000
 50
270.0000
  0
CIRCLE
  8
44
 10
76.8350
 20
48.2600
 30
0.0000
 40
0.5080
  0
INSERT
  8
17
  2
LONGP100
 10
74.2950
 20
48.2600
 30
0.0000
 41
1.5240
 42
1.5240
 43
1.0000
 50
270.0000
  0
CIRCLE
  8
44
 10
74.2950
 20
48.2600
 30
0.0000
 40
0.5080
  0
INSERT
  8
17
  2
SQUAREP
 10
44.4500
 20
55.8800
 30
0.0000
 41
2.0320
 42
2.0320
 43
1.0000
 50
0.0000
  0
CIRCLE
  8
44
 10
44.4500
 20
55.8800
 30
0.0000
 40
0.6000
  0
INSERT
  8
17
  2
ROUNDP
 10
47.9500
 20
55.8800
 30
0.0000
 41
2.0320
 42
2.0320
 43
1.0000
 50
0.0000
  0
CIRCLE
  8
44
 10
47.9500
 20
55.8800
 30
0.0000
 40
0.6000
  0
INSERT
  8
17
  2
SQUAREP
 10
22.8600
 20
57.7850
 30
0.0000
 41
2.0320
 42
2.0320
 43
1.0000
 50
0.0000
  0
CIRCLE
  8
44
 10
22.8600
 20
57.7850
 30
0.0000
 40
0.6000
  0
INSERT
  8
17
  2
ROUNDP
 10
26.3600
 20
57.7850
 30
0.0000
 41
2.0320
 42
2.0320
 43
1.0000
 50
0.0000
  0
CIRCLE
  8
44
 10
26.3600
 20
57.7850
 30
0.0000
 40
0.6000
  0
INSERT
  8
17
  2
SQUAREP
 10
15.2400
 20
57.7850
 30
0.0000
 41
2.0320
 42
2.0320
 43
1.0000
 50
0.0000
  0
CIRCLE
  8
44
 10
15.2400
 20
57.7850
 30
0.0000
 40
0.6000
  0
INSERT
  8
17
  2
ROUNDP
 10
18.7400
 20
57.7850
 30
0.0000
 41
2.0320
 42
2.0320
 43
1.0000
 50
0.0000
  0
CIRCLE
  8
44
 10
18.7400
 20
57.7850
 30
0.0000
 40
0.6000
  0
INSERT
  8
17
  2
SQUAREP
 10
36.8300
 20
55.8800
 30
0.0000
 41
2.0320
 42
2.0320
 43
1.0000
 50
0.0000
  0
CIRCLE
  8
44
 10
36.8300
 20
55.8800
 30
0.0000
 40
0.6000
  0
INSERT
  8
17
  2
ROUNDP
 10
40.3300
 20
55.8800
 30
0.0000
 41
2.0320
 42
2.0320
 43
1.0000
 50
0.0000
  0
CIRCLE
  8
44
 10
40.3300
 20
55.8800
 30
0.0000
 40
0.6000
  0
INSERT
  8
17
  2
SQUAREP
 10
52.0700
 20
55.8800
 30
0.0000
 41
2.0320
 42
2.0320
 43
1.0000
 50
0.0000
  0
CIRCLE
  8
44
 10
52.0700
 20
55.8800
 30
0.0000
 40
0.6000
  0
INSERT
  8
17
  2
ROUNDP
 10
55.5700
 20
55.8800
 30
0.0000
 41
2.0320
 42
2.0320
 43
1.0000
 50
0.0000
  0
CIRCLE
  8
44
 10
55.5700
 20
55.8800
 30
0.0000
 40
0.6000
  0
INSERT
  8
17
  2
SQUAREP
 10
6.3500
 20
20.3200
 30
0.0000
 41
2.0320
 42
2.0320
 43
1.0000
 50
90.0000
  0
CIRCLE
  8
44
 10
6.3500
 20
20.3200
 30
0.0000
 40
0.6000
  0
INSERT
  8
17
  2
ROUNDP
 10
6.3500
 20
23.8200
 30
0.0000
 41
2.0320
 42
2.0320
 43
1.0000
 50
90.0000
  0
CIRCLE
  8
44
 10
6.3500
 20
23.8200
 30
0.0000
 40
0.6000
  0
INSERT
  8
17
  2
SQUAREP
 10
3.1750
 20
8.2550
 30
0.0000
 41
2.0320
 42
2.0320
 43
1.0000
 50
0.0000
  0
CIRCLE
  8
44
 10
3.1750
 20
8.2550
 30
0.0000
 40
0.6000
  0
INSERT
  8
17
  2
ROUNDP
 10
6.6750
 20
8.2550
 30
0.0000
 41
2.0320
 42
2.0320
 43
1.0000
 50
0.0000
  0
CIRCLE
  8
44
 10
6.6750
 20
8.2550
 30
0.0000
 40
0.6000
  0
INSERT
  8
17
  2
SQUAREP
 10
10.7950
 20
8.2550
 30
0.0000
 41
2.0320
 42
2.0320
 43
1.0000
 50
0.0000
  0
CIRCLE
  8
44
 10
10.7950
 20
8.2550
 30
0.0000
 40
0.6000
  0
INSERT
  8
17
  2
ROUNDP
 10
14.2950
 20
8.2550
 30
0.0000
 41
2.0320
 42
2.0320
 43
1.0000
 50
0.0000
  0
CIRCLE
  8
44
 10
14.2950
 20
8.2550
 30
0.0000
 40
0.6000
  0
INSERT
  8
17
  2
SQUAREP
 10
18.4150
 20
8.2550
 30
0.0000
 41
2.0320
 42
2.0320
 43
1.0000
 50
0.0000
  0
CIRCLE
  8
44
 10
18.4150
 20
8.2550
 30
0.0000
 40
0.6000
  0
INSERT
  8
17
  2
ROUNDP
 10
21.9150
 20
8.2550
 30
0.0000
 41
2.0320
 42
2.0320
 43
1.0000
 50
0.0000
  0
CIRCLE
  8
44
 10
21.9150
 20
8.2550
 30
0.0000
 40
0.6000
  0
INSERT
  8
17
  2
SQUAREP
 10
26.0350
 20
8.2550
 30
0.0000
 41
2.0320
 42
2.0320
 43
1.0000
 50
0.0000
  0
CIRCLE
  8
44
 10
26.0350
 20
8.2550
 30
0.0000
 40
0.6000
  0
INSERT
  8
17
  2
ROUNDP
 10
29.5350
 20
8.2550
 30
0.0000
 41
2.0320
 42
2.0320
 43
1.0000
 50
0.0000
  0
CIRCLE
  8
44
 10
29.5350
 20
8.2550
 30
0.0000
 40
0.6000
  0
INSERT
  8
17
  2
SQUAREP
 10
33.6550
 20
8.2550
 30
0.0000
 41
2.0320
 42
2.0320
 43
1.0000
 50
0.0000
  0
CIRCLE
  8
44
 10
33.6550
 20
8.2550
 30
0.0000
 40
0.6000
  0
INSERT
  8
17
  2
ROUNDP
 10
37.1550
 20
8.2550
 30
0.0000
 41
2.0320
 42
2.0320
 43
1.0000
 50
0.0000
  0
CIRCLE
  8
44
 10
37.1550
 20
8.2550
 30
0.0000
 40
0.6000
  0
INSERT
  8
17
  2
SQUAREP
 10
41.2750
 20
8.2550
 30
0.0000
 41
2.0320
 42
2.0320
 43
1.0000
 50
0.0000
  0
CIRCLE
  8
44
 10
41.2750
 20
8.2550
 30
0.0000
 40
0.6000
  0
INSERT
  8
17
  2
ROUNDP
 10
44.7750
 20
8.2550
 30
0.0000
 41
2.0320
 42
2.0320
 43
1.0000
 50
0.0000
  0
CIRCLE
  8
44
 10
44.7750
 20
8.2550
 30
0.0000
 40
0.6000
  0
INSERT
  8
17
  2
SQUAREP
 10
48.8950
 20
8.2550
 30
0.0000
 41
2.0320
 42
2.0320
 43
1.0000
 50
0.0000
  0
CIRCLE
  8
44
 10
48.8950
 20
8.2550
 30
0.0000
 40
0.6000
  0
INSERT
  8
17
  2
ROUNDP
 10
52.3950
 20
8.2550
 30
0.0000
 41
2.0320
 42
2.0320
 43
1.0000
 50
0.0000
  0
CIRCLE
  8
44
 10
52.3950
 20
8.2550
 30
0.0000
 40
0.6000
  0
INSERT
  8
17
  2
SQUAREP
 10
56.5150
 20
8.2550
 30
0.0000
 41
2.0320
 42
2.0320
 43
1.0000
 50
0.0000
  0
CIRCLE
  8
44
 10
56.5150
 20
8.2550
 30
0.0000
 40
0.6000
  0
INSERT
  8
17
  2
ROUNDP
 10
60.0150
 20
8.2550
 30
0.0000
 41
2.0320
 42
2.0320
 43
1.0000
 50
0.0000
  0
CIRCLE
  8
44
 10
60.0150
 20
8.2550
 30
0.0000
 40
0.6000
  0
INSERT
  8
17
  2
SQUAREP
 10
64.1350
 20
8.2550
 30
0.0000
 41
2.0320
 42
2.0320
 43
1.0000
 50
0.0000
  0
CIRCLE
  8
44
 10
64.1350
 20
8.2550
 30
0.0000
 40
0.6000
  0
INSERT
  8
17
  2
ROUNDP
 10
67.6350
 20
8.2550
 30
0.0000
 41
2.0320
 42
2.0320
 43
1.0000
 50
0.0000
  0
CIRCLE
  8
44
 10
67.6350
 20
8.2550
 30
0.0000
 40
0.6000
  0
INSERT
  8
17
  2
SQUAREP
 10
71.7550
 20
8.2550
 30
0.0000
 41
2.0320
 42
2.0320
 43
1.0000
 50
0.0000
  0
CIRCLE
  8
44
 10
71.7550
 20
8.2550
 30
0.0000
 40
0.6000
  0
INSERT
  8
17
  2
ROUNDP
 10
75.2550
 20
8.2550
 30
0.0000
 41
2.0320
 42
2.0320
 43
1.0000
 50
0.0000
  0
CIRCLE
  8
44
 10
75.2550
 20
8.2550
 30
0.0000
 40
0.6000
  0
INSERT
  8
17
  2
SQUAREP
 10
79.3750
 20
8.2550
 30
0.0000
 41
2.0320
 42
2.0320
 43
1.0000
 50
0.0000
  0
CIRCLE
  8
44
 10
79.3750
 20
8.2550
 30
0.0000
 40
0.6000
  0
INSERT
  8
17
  2
ROUNDP
 10
82.8750
 20
8.2550
 30
0.0000
 41
2.0320
 42
2.0320
 43
1.0000
 50
0.0000
  0
CIRCLE
  8
44
 10
82.8750
 20
8.2550
 30
0.0000
 40
0.6000
  0
INSERT
  8
17
  2
SQUAREP
 10
86.9950
 20
8.2550
 30
0.0000
 41
2.0320
 42
2.0320
 43
1.0000
 50
0.0000
  0
CIRCLE
  8
44
 10
86.9950
 20
8.2550
 30
0.0000
 40
0.6000
  0
INSERT
  8
17
  2
ROUNDP
 10
90.4950
 20
8.2550
 30
0.0000
 41
2.0320
 42
2.0320
 43
1.0000
 50
0.0000
  0
CIRCLE
  8
44
 10
90.4950
 20
8.2550
 30
0.0000
 40
0.6000
  0
INSERT
  8
17
  2
SQUAREP
 10
94.6150
 20
8.2550
 30
0.0000
 41
2.0320
 42
2.0320
 43
1.0000
 50
0.0000
  0
CIRCLE
  8
44
 10
94.6150
 20
8.2550
 30
0.0000
 40
0.6000
  0
INSERT
  8
17
  2
ROUNDP
 10
98.1150
 20
8.2550
 30
0.0000
 41
2.0320
 42
2.0320
 43
1.0000
 50
0.0000
  0
CIRCLE
  8
44
 10
98.1150
 20
8.2550
 30
0.0000
 40
0.6000
  0
INSERT
  8
17
  2
OCTAGONP
 10
33.0200
 20
25.4000
 30
0.0000
 41
1.6002
 42
1.6002
 43
1.0000
 50
0.0000
  0
CIRCLE
  8
44
 10
33.0200
 20
25.4000
 30
0.0000
 40
0.4064
  0
INSERT
  8
17
  2
OCTAGONP
 10
43.1800
 20
25.4000
 30
0.0000
 41
1.6002
 42
1.6002
 43
1.0000
 50
0.0000
  0
CIRCLE
  8
44
 10
43.1800
 20
25.4000
 30
0.0000
 40
0.4064
  0
INSERT
  8
17
  2
OCTAGONP
 10
45.0850
 20
34.2900
 30
0.0000
 41
1.6002
 42
1.6002
 43
1.0000
 50
0.0000
  0
CIRCLE
  8
44
 10
45.0850
 20
34.2900
 30
0.0000
 40
0.4064
  0
INSERT
  8
17
  2
OCTAGONP
 10
55.2450
 20
34.2900
 30
0.0000
 41
1.6002
 42
1.6002
 43
1.0000
 50
0.0000
  0
CIRCLE
  8
44
 10
55.2450
 20
34.2900
 30
0.0000
 40
0.4064
  0
INSERT
  8
17
  2
OCTAGONP
 10
81.2800
 20
31.7500
 30
0.0000
 41
1.3208
 42
1.3208
 43
1.0000
 50
270.0000
  0
CIRCLE
  8
44
 10
81.2800
 20
31.7500
 30
0.0000
 40
0.4064
  0
INSERT
  8
17
  2
OCTAGONP
 10
81.2800
 20
24.1300
 30
0.0000
 41
1.3208
 42
1.3208
 43
1.0000
 50
270.0000
  0
CIRCLE
  8
44
 10
81.2800
 20
24.1300
 30
0.0000
 40
0.4064
  0
INSERT
  8
17
  2
OCTAGONP
 10
83.8200
 20
31.7500
 30
0.0000
 41
1.3208
 42
1.3208
 43
1.0000
 50
270.0000
  0
CIRCLE
  8
44
 10
83.8200
 20
31.7500
 30
0.0000
 40
0.4064
  0
INSERT
  8
17
  2
OCTAGONP
 10
83.8200
 20
24.1300
 30
0.0000
 41
1.3208
 42
1.3208
 43
1.0000
 50
270.0000
  0
CIRCLE
  8
44
 10
83.8200
 20
24.1300
 30
0.0000
 40
0.4064
  0
INSERT
  8
17
  2
OCTAGONP
 10
86.3600
 20
31.7500
 30
0.0000
 41
1.3208
 42
1.3208
 43
1.0000
 50
270.0000
  0
CIRCLE
  8
44
 10
86.3600
 20
31.7500
 30
0.0000
 40
0.4064
  0
INSERT
  8
17
  2
OCTAGONP
 10
86.3600
 20
24.1300
 30
0.0000
 41
1.3208
 42
1.3208
 43
1.0000
 50
270.0000
  0
CIRCLE
  8
44
 10
86.3600
 20
24.1300
 30
0.0000
 40
0.4064
  0
INSERT
  8
17
  2
OCTAGONP
 10
55.8800
 20
31.7500
 30
0.0000
 41
1.3208
 42
1.3208
 43
1.0000
 50
270.0000
  0
CIRCLE
  8
44
 10
55.8800
 20
31.7500
 30
0.0000
 40
0.4064
  0
INSERT
  8
17
  2
OCTAGONP
 10
55.8800
 20
24.1300
 30
0.0000
 41
1.3208
 42
1.3208
 43
1.0000
 50
270.0000
  0
CIRCLE
  8
44
 10
55.8800
 20
24.1300
 30
0.0000
 40
0.4064
  0
INSERT
  8
17
  2
OCTAGONP
 10
58.4200
 20
31.7500
 30
0.0000
 41
1.3208
 42
1.3208
 43
1.0000
 50
270.0000
  0
CIRCLE
  8
44
 10
58.4200
 20
31.7500
 30
0.0000
 40
0.4064
  0
INSERT
  8
17
  2
OCTAGONP
 10
58.4200
 20
24.1300
 30
0.0000
 41
1.3208
 42
1.3208
 43
1.0000
 50
270.0000
  0
CIRCLE
  8
44
 10
58.4200
 20
24.1300
 30
0.0000
 40
0.4064
  0
INSERT
  8
17
  2
OCTAGONP
 10
60.9600
 20
31.7500
 30
0.0000
 41
1.3208
 42
1.3208
 43
1.0000
 50
270.0000
  0
CIRCLE
  8
44
 10
60.9600
 20
31.7500
 30
0.0000
 40
0.4064
  0
INSERT
  8
17
  2
OCTAGONP
 10
60.9600
 20
24.1300
 30
0.0000
 41
1.3208
 42
1.3208
 43
1.0000
 50
270.0000
  0
CIRCLE
  8
44
 10
60.9600
 20
24.1300
 30
0.0000
 40
0.4064
  0
INSERT
  8
17
  2
OCTAGONP
 10
63.5000
 20
31.7500
 30
0.0000
 41
1.3208
 42
1.3208
 43
1.0000
 50
270.0000
  0
CIRCLE
  8
44
 10
63.5000
 20
31.7500
 30
0.0000
 40
0.4064
  0
INSERT
  8
17
  2
OCTAGONP
 10
63.5000
 20
24.1300
 30
0.0000
 41
1.3208
 42
1.3208
 43
1.0000
 50
270.0000
  0
CIRCLE
  8
44
 10
63.5000
 20
24.1300
 30
0.0000
 40
0.4064
  0
INSERT
  8
17
  2
OCTAGONP
 10
66.0400
 20
31.7500
 30
0.0000
 41
1.3208
 42
1.3208
 43
1.0000
 50
270.0000
  0
CIRCLE
  8
44
 10
66.0400
 20
31.7500
 30
0.0000
 40
0.4064
  0
INSERT
  8
17
  2
OCTAGONP
 10
66.0400
 20
24.1300
 30
0.0000
 41
1.3208
 42
1.3208
 43
1.0000
 50
270.0000
  0
CIRCLE
  8
44
 10
66.0400
 20
24.1300
 30
0.0000
 40
0.4064
  0
INSERT
  8
17
  2
OCTAGONP
 10
71.1200
 20
31.7500
 30
0.0000
 41
1.3208
 42
1.3208
 43
1.0000
 50
270.0000
  0
CIRCLE
  8
44
 10
71.1200
 20
31.7500
 30
0.0000
 40
0.4064
  0
INSERT
  8
17
  2
OCTAGONP
 10
71.1200
 20
24.1300
 30
0.0000
 41
1.3208
 42
1.3208
 43
1.0000
 50
270.0000
  0
CIRCLE
  8
44
 10
71.1200
 20
24.1300
 30
0.0000
 40
0.4064
  0
INSERT
  8
17
  2
OCTAGONP
 10
73.6600
 20
31.7500
 30
0.0000
 41
1.3208
 42
1.3208
 43
1.0000
 50
270.0000
  0
CIRCLE
  8
44
 10
73.6600
 20
31.7500
 30
0.0000
 40
0.4064
  0
INSERT
  8
17
  2
OCTAGONP
 10
73.6600
 20
24.1300
 30
0.0000
 41
1.3208
 42
1.3208
 43
1.0000
 50
270.0000
  0
CIRCLE
  8
44
 10
73.6600
 20
24.1300
 30
0.0000
 40
0.4064
  0
INSERT
  8
17
  2
OCTAGONP
 10
76.2000
 20
31.7500
 30
0.0000
 41
1.3208
 42
1.3208
 43
1.0000
 50
270.0000
  0
CIRCLE
  8
44
 10
76.2000
 20
31.7500
 30
0.0000
 40
0.4064
  0
INSERT
  8
17
  2
OCTAGONP
 10
76.2000
 20
24.1300
 30
0.0000
 41
1.3208
 42
1.3208
 43
1.0000
 50
270.0000
  0
CIRCLE
  8
44
 10
76.2000
 20
24.1300
 30
0.0000
 40
0.4064
  0
INSERT
  8
17
  2
OCTAGONP
 10
78.7400
 20
31.7500
 30
0.0000
 41
1.3208
 42
1.3208
 43
1.0000
 50
270.0000
  0
CIRCLE
  8
44
 10
78.7400
 20
31.7500
 30
0.0000
 40
0.4064
  0
INSERT
  8
17
  2
OCTAGONP
 10
78.7400
 20
24.1300
 30
0.0000
 41
1.3208
 42
1.3208
 43
1.0000
 50
270.0000
  0
CIRCLE
  8
44
 10
78.7400
 20
24.1300
 30
0.0000
 40
0.4064
  0
INSERT
  8
17
  2
OCTAGONP
 10
24.1300
 20
63.5000
 30
0.0000
 41
1.3208
 42
1.3208
 43
1.0000
 50
0.0000
  0
CIRCLE
  8
44
 10
24.1300
 20
63.5000
 30
0.0000
 40
0.4064
  0
INSERT
  8
17
  2
OCTAGONP
 10
31.7500
 20
63.5000
 30
0.0000
 41
1.3208
 42
1.3208
 43
1.0000
 50
0.0000
  0
CIRCLE
  8
44
 10
31.7500
 20
63.5000
 30
0.0000
 40
0.4064
  0
INSERT
  8
17
  2
OCTAGONP
 10
21.5900
 20
66.0400
 30
0.0000
 41
1.3208
 42
1.3208
 43
1.0000
 50
0.0000
  0
CIRCLE
  8
44
 10
21.5900
 20
66.0400
 30
0.0000
 40
0.4064
  0
INSERT
  8
17
  2
OCTAGONP
 10
29.2100
 20
66.0400
 30
0.0000
 41
1.3208
 42
1.3208
 43
1.0000
 50
0.0000
  0
CIRCLE
  8
44
 10
29.2100
 20
66.0400
 30
0.0000
 40
0.4064
  0
INSERT
  8
17
  2
OCTAGONP
 10
74.2950
 20
52.0700
 30
0.0000
 41
1.3208
 42
1.3208
 43
1.0000
 50
0.0000
  0
CIRCLE
  8
44
 10
74.2950
 20
52.0700
 30
0.0000
 40
0.4064
  0
INSERT
  8
17
  2
OCTAGONP
 10
81.9150
 20
52.0700
 30
0.0000
 41
1.3208
 42
1.3208
 43
1.0000
 50
0.0000
  0
CIRCLE
  8
44
 10
81.9150
 20
52.0700
 30
0.0000
 40
0.4064
  0
INSERT
  8
17
  2
OCTAGONP
 10
76.8350
 20
54.6100
 30
0.0000
 41
1.3208
 42
1.3208
 43
1.0000
 50
0.0000
  0
CIRCLE
  8
44
 10
76.8350
 20
54.6100
 30
0.0000
 40
0.4064
  0
INSERT
  8
17
  2
OCTAGONP
 10
84.4550
 20
54.6100
 30
0.0000
 41
1.3208
 42
1.3208
 43
1.0000
 50
0.0000
  0
CIRCLE
  8
44
 10
84.4550
 20
54.6100
 30
0.0000
 40
0.4064
  0
INSERT
  8
17
  2
OCTAGONP
 10
88.9000
 20
31.7500
 30
0.0000
 41
1.3208
 42
1.3208
 43
1.0000
 50
270.0000
  0
CIRCLE
  8
44
 10
88.9000
 20
31.7500
 30
0.0000
 40
0.4064
  0
INSERT
  8
17
  2
OCTAGONP
 10
88.9000
 20
24.1300
 30
0.0000
 41
1.3208
 42
1.3208
 43
1.0000
 50
270.0000
  0
CIRCLE
  8
44
 10
88.9000
 20
24.1300
 30
0.0000
 40
0.4064
  0
INSERT
  8
17
  2
LONGP100
 10
26.6700
 20
46.9900
 30
0.0000
 41
1.5240
 42
1.5240
 43
1.0000
 50
90.0000
  0
CIRCLE
  8
44
 10
26.6700
 20
46.9900
 30
0.0000
 40
0.5080
  0
INSERT
  8
17
  2
LONGP100
 10
29.2100
 20
46.9900
 30
0.0000
 41
1.5240
 42
1.5240
 43
1.0000
 50
90.0000
  0
CIRCLE
  8
44
 10
29.2100
 20
46.9900
 30
0.0000
 40
0.5080
  0
INSERT
  8
17
  2
LONGP100
 10
31.7500
 20
46.9900
 30
0.0000
 41
1.5240
 42
1.5240
 43
1.0000
 50
90.0000
  0
CIRCLE
  8
44
 10
31.7500
 20
46.9900
 30
0.0000
 40
0.5080
  0
INSERT
  8
17
  2
LONGP100
 10
34.2900
 20
46.9900
 30
0.0000
 41
1.5240
 42
1.5240
 43
1.0000
 50
90.0000
  0
CIRCLE
  8
44
 10
34.2900
 20
46.9900
 30
0.0000
 40
0.5080
  0
INSERT
  8
17
  2
SQUAREP
 10
59.6900
 20
55.8800
 30
0.0000
 41
2.0320
 42
2.0320
 43
1.0000
 50
0.0000
  0
CIRCLE
  8
44
 10
59.6900
 20
55.8800
 30
0.0000
 40
0.6000
  0
INSERT
  8
17
  2
ROUNDP
 10
63.1900
 20
55.8800
 30
0.0000
 41
2.0320
 42
2.0320
 43
1.0000
 50
0.0000
  0
CIRCLE
  8
44
 10
63.1900
 20
55.8800
 30
0.0000
 40
0.6000
  0
INSERT
  8
17
  2
SQUAREP
 10
67.3100
 20
55.8800
 30
0.0000
 41
2.0320
 42
2.0320
 43
1.0000
 50
0.0000
  0
CIRCLE
  8
44
 10
67.3100
 20
55.8800
 30
0.0000
 40
0.6000
  0
INSERT
  8
17
  2
ROUNDP
 10
70.8100
 20
55.8800
 30
0.0000
 41
2.0320
 42
2.0320
 43
1.0000
 50
0.0000
  0
CIRCLE
  8
44
 10
70.8100
 20
55.8800
 30
0.0000
 40
0.6000
  0
POLYLINE
  8
16
 66
1
 10
0.0000
 20
0.0000
 30
0.0000
 40
0.0000
 41
0.0000
 70
1
  0
VERTEX
  8
16
 10
33.4264
 20
21.5900
 30
0.0000
  0
VERTEX
  8
16
 10
33.4264
 20
25.4000
 30
0.0000
 42
1.0000
  0
VERTEX
  8
16
 10
32.6136
 20
25.4000
 30
0.0000
  0
VERTEX
  8
16
 10
32.6136
 20
21.5900
 30
0.0000
 42
1.0000
  0
SEQEND
  8
0
  0
POLYLINE
  8
16
 66
1
 10
0.0000
 20
0.0000
 30
0.0000
 40
0.0000
 41
0.0000
 70
1
  0
VERTEX
  8
16
 10
88.9000
 20
32.1564
 30
0.0000
  0
VERTEX
  8
16
 10
86.3600
 20
32.1564
 30
0.0000
 42
1.0000
  0
VERTEX
  8
16
 10
86.3600
 20
31.3436
 30
0.0000
  0
VERTEX
  8
16
 10
88.9000
 20
31.3436
 30
0.0000
 42
1.0000
  0
SEQEND
  8
0
  0
POLYLINE
  8
16
 66
1
 10
0.0000
 20
0.0000
 30
0.0000
 40
0.0000
 41
0.0000
 70
1
  0
VERTEX
  8
16
 10
86.3600
 20
32.1564
 30
0.0000
  0
VERTEX
  8
16
 10
83.8200
 20
32.1564
 30
0.0000
 42
1.0000
  0
VERTEX
  8
16
 10
83.8200
 20
31.3436
 30
0.0000
  0
VERTEX
  8
16
 10
86.3600
 20
31.3436
 30
0.0000
 42
1.0000
  0
SEQEND
  8
0
  0
POLYLINE
  8
16
 66
1
 10
0.0000
 20
0.0000
 30
0.0000
 40
0.0000
 41
0.0000
 70
1
  0
VERTEX
  8
16
 10
81.9150
 20
31.3436
 30
0.0000
  0
VERTEX
  8
16
 10
83.8200
 20
31.3436
 30
0.0000
 42
1.0000
  0
VERTEX
  8
16
 10
83.8200
 20
32.1564
 30
0.0000
  0
VERTEX
  8
16
 10
81.9150
 20
32.1564
 30
0.0000
 42
1.0000
  0
SEQEND
  8
0
  0
POLYLINE
  8
16
 66
1
 10
0.0000
 20
0.0000
 30
0.0000
 40
0.0000
 41
0.0000
 70
1
  0
VERTEX
  8
16
 10
81.2800
 20
32.1564
 30
0.0000
  0
VERTEX
  8
16
 10
78.7400
 20
32.1564
 30
0.0000
 42
1.0000
  0
VERTEX
  8
16
 10
78.7400
 20
31.3436
 30
0.0000
  0
VERTEX
  8
16
 10
81.2800
 20
31.3436
 30
0.0000
 42
1.0000
  0
SEQEND
  8
0
  0
POLYLINE
  8
16
 66
1
 10
0.0000
 20
0.0000
 30
0.0000
 40
0.0000
 41
0.0000
 70
1
  0
VERTEX
  8
16
 10
78.7400
 20
32.1564
 30
0.0000
  0
VERTEX
  8
16
 10
76.2000
 20
32.1564
 30
0.0000
 42
1.0000
  0
VERTEX
  8
16
 10
76.2000
 20
31.3436
 30
0.0000
  0
VERTEX
  8
16
 10
78.7400
 20
31.3436
 30
0.0000
 42
1.0000
  0
SEQEND
  8
0
  0
POLYLINE
  8
16
 66
1
 10
0.0000
 20
0.0000
 30
0.0000
 40
0.0000
 41
0.0000
 70
1
  0
VERTEX
  8
16
 10
76.2000
 20
32.1564
 30
0.0000
  0
VERTEX
  8
16
 10
73.6600
 20
32.1564
 30
0.0000
 42
1.0000
  0
VERTEX
  8
16
 10
73.6600
 20
31.3436
 30
0.0000
  0
VERTEX
  8
16
 10
76.2000
 20
31.3436
 30
0.0000
 42
1.0000
  0
SEQEND
  8
0
  0
POLYLINE
  8
16
 66
1
 10
0.0000
 20
0.0000
 30
0.0000
 40
0.0000
 41
0.0000
 70
1
  0
VERTEX
  8
16
 10
73.6600
 20
32.1564
 30
0.0000
  0
VERTEX
  8
16
 10
71.1200
 20
32.1564
 30
0.0000
 42
1.0000
  0
VERTEX
  8
16
 10
71.1200
 20
31.3436
 30
0.0000
  0
VERTEX
  8
16
 10
73.6600
 20
31.3436
 30
0.0000
 42
1.0000
  0
SEQEND
  8
0
  0
POLYLINE
  8
16
 66
1
 10
0.0000
 20
0.0000
 30
0.0000
 40
0.0000
 41
0.0000
 70
1
  0
VERTEX
  8
16
 10
66.0400
 20
31.3436
 30
0.0000
  0
VERTEX
  8
16
 10
71.1200
 20
31.3436
 30
0.0000
 42
1.0000
  0
VERTEX
  8
16
 10
71.1200
 20
32.1564
 30
0.0000
  0
VERTEX
  8
16
 10
66.0400
 20
32.1564
 30
0.0000
 42
1.0000
  0
SEQEND
  8
0
  0
POLYLINE
  8
16
 66
1
 10
0.0000
 20
0.0000
 30
0.0000
 40
0.0000
 41
0.0000
 70
1
  0
VERTEX
  8
16
 10
66.0400
 20
32.1564
 30
0.0000
  0
VERTEX
  8
16
 10
63.5000
 20
32.1564
 30
0.0000
 42
1.0000
  0
VERTEX
  8
16
 10
63.5000
 20
31.3436
 30
0.0000
  0
VERTEX
  8
16
 10
66.0400
 20
31.3436
 30
0.0000
 42
1.0000
  0
SEQEND
  8
0
  0
POLYLINE
  8
16
 66
1
 10
0.0000
 20
0.0000
 30
0.0000
 40
0.0000
 41
0.0000
 70
1
  0
VERTEX
  8
16
 10
63.5000
 20
32.1564
 30
0.0000
  0
VERTEX
  8
16
 10
60.9600
 20
32.1564
 30
0.0000
 42
1.0000
  0
VERTEX
  8
16
 10
60.9600
 20
31.3436
 30
0.0000
  0
VERTEX
  8
16
 10
63.5000
 20
31.3436
 30
0.0000
 42
1.0000
  0
SEQEND
  8
0
  0
POLYLINE
  8
16
 66
1
 10
0.0000
 20
0.0000
 30
0.0000
 40
0.0000
 41
0.0000
 70
1
  0
VERTEX
  8
16
 10
60.9600
 20
32.1564
 30
0.0000
  0
VERTEX
  8
16
 10
58.4200
 20
32.1564
 30
0.0000
 42
1.0000
  0
VERTEX
  8
16
 10
58.4200
 20
31.3436
 30
0.0000
  0
VERTEX
  8
16
 10
60.9600
 20
31.3436
 30
0.0000
 42
1.0000
  0
SEQEND
  8
0
  0
POLYLINE
  8
16
 66
1
 10
0.0000
 20
0.0000
 30
0.0000
 40
0.0000
 41
0.0000
 70
1
  0
VERTEX
  8
16
 10
58.4200
 20
32.1564
 30
0.0000
  0
VERTEX
  8
16
 10
55.8800
 20
32.1564
 30
0.0000
 42
1.0000
  0
VERTEX
  8
16
 10
55.8800
 20
31.3436
 30
0.0000
  0
VERTEX
  8
16
 10
58.4200
 20
31.3436
 30
0.0000
 42
1.0000
  0
SEQEND
  8
0
  0
POLYLINE
  8
16
 66
1
 10
0.0000
 20
0.0000
 30
0.0000
 40
0.0000
 41
0.0000
 70
1
  0
VERTEX
  8
16
 10
50.1650
 20
31.3436
 30
0.0000
  0
VERTEX
  8
16
 10
55.8800
 20
31.3436
 30
0.0000
 42
1.0000
  0
VERTEX
  8
16
 10
55.8800
 20
32.1564
 30
0.0000
  0
VERTEX
  8
16
 10
50.1650
 20
32.1564
 30
0.0000
 42
1.0000
  0
SEQEND
  8
0
  0
POLYLINE
  8
16
 66
1
 10
0.0000
 20
0.0000
 30
0.0000
 40
0.0000
 41
0.0000
 70
1
  0
VERTEX
  8
16
 10
49.8776
 20
32.0374
 30
0.0000
  0
VERTEX
  8
16
 10
46.7026
 20
28.8624
 30
0.0000
 42
1.0000
  0
VERTEX
  8
16
 10
47.2774
 20
28.2876
 30
0.0000
  0
VERTEX
  8
16
 10
50.4524
 20
31.4626
 30
0.0000
 42
1.0000
  0
SEQEND
  8
0
  0
POLYLINE
  8
16
 66
1
 10
0.0000
 20
0.0000
 30
0.0000
 40
0.0000
 41
0.0000
 70
1
  0
VERTEX
  8
16
 10
47.3964
 20
27.0350
 30
0.0000
  0
VERTEX
  8
16
 10
47.3964
 20
28.5750
 30
0.0000
 42
1.0000
  0
VERTEX
  8
16
 10
46.5836
 20
28.5750
 30
0.0000
  0
VERTEX
  8
16
 10
46.5836
 20
27.0350
 30
0.0000
 42
1.0000
  0
SEQEND
  8
0
  0
POLYLINE
  8
16
 66
1
 10
0.0000
 20
0.0000
 30
0.0000
 40
0.0000
 41
0.0000
 70
1
  0
VERTEX
  8
16
 10
43.1800
 20
24.9936
 30
0.0000
  0
VERTEX
  8
16
 10
45.3550
 20
24.9936
 30
0.0000
 42
1.0000
  0
VERTEX
  8
16
 10
45.3550
 20
25.8064
 30
0.0000
  0
VERTEX
  8
16
 10
43.1800
 20
25.8064
 30
0.0000
 42
1.0000
  0
SEQEND
  8
0
  0
POLYLINE
  8
16
 66
1
 10
0.0000
 20
0.0000
 30
0.0000
 40
0.0000
 41
0.0000
 70
1
  0
VERTEX
  8
16
 10
45.6424
 20
25.1126
 30
0.0000
  0
VERTEX
  8
16
 10
47.2774
 20
26.7476
 30
0.0000
 42
1.0000
  0
VERTEX
  8
16
 10
46.7026
 20
27.3224
 30
0.0000
  0
VERTEX
  8
16
 10
45.0676
 20
25.6874
 30
0.0000
 42
1.0000
  0
SEQEND
  8
0
  0
POLYLINE
  8
16
 66
1
 10
0.0000
 20
0.0000
 30
0.0000
 40
0.0000
 41
0.0000
 70
1
  0
VERTEX
  8
16
 10
26.2636
 20
46.9900
 30
0.0000
  0
VERTEX
  8
16
 10
26.2636
 20
45.0850
 30
0.0000
 42
1.0000
  0
VERTEX
  8
16
 10
27.0764
 20
45.0850
 30
0.0000
  0
VERTEX
  8
16
 10
27.0764
 20
46.9900
 30
0.0000
 42
1.0000
  0
SEQEND
  8
0
  0
POLYLINE
  8
16
 66
1
 10
0.0000
 20
0.0000
 30
0.0000
 40
0.0000
 41
0.0000
 70
1
  0
VERTEX
  8
16
 10
26.3826
 20
44.7976
 30
0.0000
  0
VERTEX
  8
16
 10
27.0176
 20
44.1626
 30
0.0000
 42
1.0000
  0
VERTEX
  8
16
 10
27.5924
 20
44.7374
 30
0.0000
  0
VERTEX
  8
16
 10
26.9574
 20
45.3724
 30
0.0000
 42
1.0000
  0
SEQEND
  8
0
  0
POLYLINE
  8
16
 66
1
 10
0.0000
 20
0.0000
 30
0.0000
 40
0.0000
 41
0.0000
 70
1
  0
VERTEX
  8
16
 10
27.3050
 20
44.0436
 30
0.0000
  0
VERTEX
  8
16
 10
31.7500
 20
44.0436
 30
0.0000
 42
1.0000
  0
VERTEX
  8
16
 10
31.7500
 20
44.8564
 30
0.0000
  0
VERTEX
  8
16
 10
27.3050
 20
44.8564
 30
0.0000
 42
1.0000
  0
SEQEND
  8
0
  0
POLYLINE
  8
16
 66
1
 10
0.0000
 20
0.0000
 30
0.0000
 40
0.0000
 41
0.0000
 70
1
  0
VERTEX
  8
16
 10
32.1564
 20
44.4500
 30
0.0000
  0
VERTEX
  8
16
 10
32.1564
 20
46.9900
 30
0.0000
 42
1.0000
  0
VERTEX
  8
16
 10
31.3436
 20
46.9900
 30
0.0000
  0
VERTEX
  8
16
 10
31.3436
 20
44.4500
 30
0.0000
 42
1.0000
  0
SEQEND
  8
0
  0
POLYLINE
  8
16
 66
1
 10
0.0000
 20
0.0000
 30
0.0000
 40
0.0000
 41
0.0000
 70
1
  0
VERTEX
  8
16
 10
31.7500
 20
44.0436
 30
0.0000
  0
VERTEX
  8
16
 10
36.1950
 20
44.0436
 30
0.0000
 42
1.0000
  0
VERTEX
  8
16
 10
36.1950
 20
44.8564
 30
0.0000
  0
VERTEX
  8
16
 10
31.7500
 20
44.8564
 30
0.0000
 42
1.0000
  0
SEQEND
  8
0
  0
POLYLINE
  8
16
 66
1
 10
0.0000
 20
0.0000
 30
0.0000
 40
0.0000
 41
0.0000
 70
1
  0
VERTEX
  8
16
 10
36.5426
 20
45.3724
 30
0.0000
  0
VERTEX
  8
16
 10
35.9076
 20
44.7374
 30
0.0000
 42
1.0000
  0
VERTEX
  8
16
 10
36.4824
 20
44.1626
 30
0.0000
  0
VERTEX
  8
16
 10
37.1174
 20
44.7976
 30
0.0000
 42
1.0000
  0
SEQEND
  8
0
  0
POLYLINE
  8
16
 66
1
 10
0.0000
 20
0.0000
 30
0.0000
 40
0.0000
 41
0.0000
 70
1
  0
VERTEX
  8
16
 10
37.2364
 20
45.0850
 30
0.0000
  0
VERTEX
  8
16
 10
37.2364
 20
55.8800
 30
0.0000
 42
1.0000
  0
VERTEX
  8
16
 10
36.4236
 20
55.8800
 30
0.0000
  0
VERTEX
  8
16
 10
36.4236
 20
45.0850
 30
0.0000
 42
1.0000
  0
SEQEND
  8
0
  0
POLYLINE
  8
16
 66
1
 10
0.0000
 20
0.0000
 30
0.0000
 40
0.0000
 41
0.0000
 70
1
  0
VERTEX
  8
16
 10
37.1174
 20
55.5926
 30
0.0000
  0
VERTEX
  8
16
 10
40.2924
 20
58.7676
 30
0.0000
 42
1.0000
  0
VERTEX
  8
16
 10
39.7176
 20
59.3424
 30
0.0000
  0
VERTEX
  8
16
 10
36.5426
 20
56.1674
 30
0.0000
 42
1.0000
  0
SEQEND
  8
0
  0
POLYLINE
  8
16
 66
1
 10
0.0000
 20
0.0000
 30
0.0000
 40
0.0000
 41
0.0000
 70
1
  0
VERTEX
  8
16
 10
40.0050
 20
58.6486
 30
0.0000
  0
VERTEX
  8
16
 10
47.6250
 20
58.6486
 30
0.0000
 42
1.0000
  0
VERTEX
  8
16
 10
47.6250
 20
59.4614
 30
0.0000
  0
VERTEX
  8
16
 10
40.0050
 20
59.4614
 30
0.0000
 42
1.0000
  0
SEQEND
  8
0
  0
POLYLINE
  8
16
 66
1
 10
0.0000
 20
0.0000
 30
0.0000
 40
0.0000
 41
0.0000
 70
1
  0
VERTEX
  8
16
 10
47.3376
 20
58.7676
 30
0.0000
  0
VERTEX
  8
16
 10
49.8776
 20
56.2276
 30
0.0000
 42
1.0000
  0
VERTEX
  8
16
 10
50.4524
 20
56.8024
 30
0.0000
  0
VERTEX
  8
16
 10
47.9124
 20
59.3424
 30
0.0000
 42
1.0000
  0
SEQEND
  8
0
  0
POLYLINE
  8
16
 66
1
 10
0.0000
 20
0.0000
 30
0.0000
 40
0.0000
 41
0.0000
 70
1
  0
VERTEX
  8
16
 10
50.5714
 20
52.0700
 30
0.0000
  0
VERTEX
  8
16
 10
50.5714
 20
56.5150
 30
0.0000
 42
1.0000
  0
VERTEX
  8
16
 10
49.7586
 20
56.5150
 30
0.0000
  0
VERTEX
  8
16
 10
49.7586
 20
52.0700
 30
0.0000
 42
1.0000
  0
SEQEND
  8
0
  0
POLYLINE
  8
16
 66
1
 10
0.0000
 20
0.0000
 30
0.0000
 40
0.0000
 41
0.0000
 70
1
  0
VERTEX
  8
16
 10
49.7586
 20
52.0700
 30
0.0000
  0
VERTEX
  8
16
 10
49.7586
 20
31.7500
 30
0.0000
 42
1.0000
  0
VERTEX
  8
16
 10
50.5714
 20
31.7500
 30
0.0000
  0
VERTEX
  8
16
 10
50.5714
 20
52.0700
 30
0.0000
 42
1.0000
  0
SEQEND
  8
0
  0
POLYLINE
  8
16
 66
1
 10
0.0000
 20
0.0000
 30
0.0000
 40
0.0000
 41
0.0000
 70
1
  0
VERTEX
  8
16
 10
44.0436
 20
55.8800
 30
0.0000
  0
VERTEX
  8
16
 10
44.0436
 20
53.9750
 30
0.0000
 42
1.0000
  0
VERTEX
  8
16
 10
44.8564
 20
53.9750
 30
0.0000
  0
VERTEX
  8
16
 10
44.8564
 20
55.8800
 30
0.0000
 42
1.0000
  0
SEQEND
  8
0
  0
POLYLINE
  8
16
 66
1
 10
0.0000
 20
0.0000
 30
0.0000
 40
0.0000
 41
0.0000
 70
1
  0
VERTEX
  8
16
 10
44.1626
 20
53.6876
 30
0.0000
  0
VERTEX
  8
16
 10
46.0676
 20
51.7826
 30
0.0000
 42
1.0000
  0
VERTEX
  8
16
 10
46.6424
 20
52.3574
 30
0.0000
  0
VERTEX
  8
16
 10
44.7374
 20
54.2624
 30
0.0000
 42
1.0000
  0
SEQEND
  8
0
  0
POLYLINE
  8
16
 66
1
 10
0.0000
 20
0.0000
 30
0.0000
 40
0.0000
 41
0.0000
 70
1
  0
VERTEX
  8
16
 10
46.3550
 20
51.6636
 30
0.0000
  0
VERTEX
  8
16
 10
50.1650
 20
51.6636
 30
0.0000
 42
1.0000
  0
VERTEX
  8
16
 10
50.1650
 20
52.4764
 30
0.0000
  0
VERTEX
  8
16
 10
46.3550
 20
52.4764
 30
0.0000
 42
1.0000
  0
SEQEND
  8
0
  0
POLYLINE
  8
16
 66
1
 10
0.0000
 20
0.0000
 30
0.0000
 40
0.0000
 41
0.0000
 70
1
  0
VERTEX
  8
16
 10
81.9150
 20
47.8536
 30
0.0000
  0
VERTEX
  8
16
 10
84.4550
 20
47.8536
 30
0.0000
 42
1.0000
  0
VERTEX
  8
16
 10
84.4550
 20
48.6664
 30
0.0000
  0
VERTEX
  8
16
 10
81.9150
 20
48.6664
 30
0.0000
 42
1.0000
  0
SEQEND
  8
0
  0
POLYLINE
  8
16
 66
1
 10
0.0000
 20
0.0000
 30
0.0000
 40
0.0000
 41
0.0000
 70
1
  0
VERTEX
  8
16
 10
81.9150
 20
42.3164
 30
0.0000
  0
VERTEX
  8
16
 10
79.3750
 20
42.3164
 30
0.0000
 42
1.0000
  0
VERTEX
  8
16
 10
79.3750
 20
41.5036
 30
0.0000
  0
VERTEX
  8
16
 10
81.9150
 20
41.5036
 30
0.0000
 42
1.0000
  0
SEQEND
  8
0
  0
POLYLINE
  8
16
 66
1
 10
0.0000
 20
0.0000
 30
0.0000
 40
0.0000
 41
0.0000
 70
1
  0
VERTEX
  8
16
 10
81.9150
 20
32.1564
 30
0.0000
  0
VERTEX
  8
16
 10
81.2800
 20
32.1564
 30
0.0000
 42
1.0000
  0
VERTEX
  8
16
 10
81.2800
 20
31.3436
 30
0.0000
  0
VERTEX
  8
16
 10
81.9150
 20
31.3436
 30
0.0000
 42
1.0000
  0
SEQEND
  8
0
  0
POLYLINE
  8
16
 66
1
 10
0.0000
 20
0.0000
 30
0.0000
 40
0.0000
 41
0.0000
 70
1
  0
VERTEX
  8
16
 10
84.4550
 20
55.0164
 30
0.0000
  0
VERTEX
  8
16
 10
83.1850
 20
55.0164
 30
0.0000
 42
1.0000
  0
VERTEX
  8
16
 10
83.1850
 20
54.2036
 30
0.0000
  0
VERTEX
  8
16
 10
84.4550
 20
54.2036
 30
0.0000
 42
1.0000
  0
SEQEND
  8
0
  0
POLYLINE
  8
16
 66
1
 10
0.0000
 20
0.0000
 30
0.0000
 40
0.0000
 41
0.0000
 70
1
  0
VERTEX
  8
16
 10
82.8976
 20
54.8974
 30
0.0000
  0
VERTEX
  8
16
 10
81.6276
 20
53.6274
 30
0.0000
 42
1.0000
  0
VERTEX
  8
16
 10
82.2024
 20
53.0526
 30
0.0000
  0
VERTEX
  8
16
 10
83.4724
 20
54.3226
 30
0.0000
 42
1.0000
  0
SEQEND
  8
0
  0
POLYLINE
  8
16
 66
1
 10
0.0000
 20
0.0000
 30
0.0000
 40
0.0000
 41
0.0000
 70
1
  0
VERTEX
  8
16
 10
81.5086
 20
53.3400
 30
0.0000
  0
VERTEX
  8
16
 10
81.5086
 20
52.0700
 30
0.0000
 42
1.0000
  0
VERTEX
  8
16
 10
82.3214
 20
52.0700
 30
0.0000
  0
VERTEX
  8
16
 10
82.3214
 20
53.3400
 30
0.0000
 42
1.0000
  0
SEQEND
  8
0
  0
POLYLINE
  8
16
 66
1
 10
0.0000
 20
0.0000
 30
0.0000
 40
0.0000
 41
0.0000
 70
1
  0
VERTEX
  8
16
 10
81.5086
 20
52.0700
 30
0.0000
  0
VERTEX
  8
16
 10
81.5086
 20
48.2600
 30
0.0000
 42
1.0000
  0
VERTEX
  8
16
 10
82.3214
 20
48.2600
 30
0.0000
  0
VERTEX
  8
16
 10
82.3214
 20
52.0700
 30
0.0000
 42
1.0000
  0
SEQEND
  8
0
  0
POLYLINE
  8
16
 66
1
 10
0.0000
 20
0.0000
 30
0.0000
 40
0.0000
 41
0.0000
 70
1
  0
VERTEX
  8
16
 10
84.4550
 20
47.8536
 30
0.0000
  0
VERTEX
  8
16
 10
85.7250
 20
47.8536
 30
0.0000
 42
1.0000
  0
VERTEX
  8
16
 10
85.7250
 20
48.6664
 30
0.0000
  0
VERTEX
  8
16
 10
84.4550
 20
48.6664
 30
0.0000
 42
1.0000
  0
SEQEND
  8
0
  0
POLYLINE
  8
16
 66
1
 10
0.0000
 20
0.0000
 30
0.0000
 40
0.0000
 41
0.0000
 70
1
  0
VERTEX
  8
16
 10
85.4376
 20
47.9726
 30
0.0000
  0
VERTEX
  8
16
 10
86.7076
 20
46.7026
 30
0.0000
 42
1.0000
  0
VERTEX
  8
16
 10
87.2824
 20
47.2774
 30
0.0000
  0
VERTEX
  8
16
 10
86.0124
 20
48.5474
 30
0.0000
 42
1.0000
  0
SEQEND
  8
0
  0
POLYLINE
  8
16
 66
1
 10
0.0000
 20
0.0000
 30
0.0000
 40
0.0000
 41
0.0000
 70
1
  0
VERTEX
  8
16
 10
86.5886
 20
46.9900
 30
0.0000
  0
VERTEX
  8
16
 10
86.5886
 20
40.0050
 30
0.0000
 42
1.0000
  0
VERTEX
  8
16
 10
87.4014
 20
40.0050
 30
0.0000
  0
VERTEX
  8
16
 10
87.4014
 20
46.9900
 30
0.0000
 42
1.0000
  0
SEQEND
  8
0
  0
POLYLINE
  8
16
 66
1
 10
0.0000
 20
0.0000
 30
0.0000
 40
0.0000
 41
0.0000
 70
1
  0
VERTEX
  8
16
 10
86.7076
 20
40.2924
 30
0.0000
  0
VERTEX
  8
16
 10
85.4376
 20
39.0224
 30
0.0000
 42
1.0000
  0
VERTEX
  8
16
 10
86.0124
 20
38.4476
 30
0.0000
  0
VERTEX
  8
16
 10
87.2824
 20
39.7176
 30
0.0000
 42
1.0000
  0
SEQEND
  8
0
  0
POLYLINE
  8
16
 66
1
 10
0.0000
 20
0.0000
 30
0.0000
 40
0.0000
 41
0.0000
 70
1
  0
VERTEX
  8
16
 10
85.7250
 20
39.1414
 30
0.0000
  0
VERTEX
  8
16
 10
81.9150
 20
39.1414
 30
0.0000
 42
1.0000
  0
VERTEX
  8
16
 10
81.9150
 20
38.3286
 30
0.0000
  0
VERTEX
  8
16
 10
85.7250
 20
38.3286
 30
0.0000
 42
1.0000
  0
SEQEND
  8
0
  0
POLYLINE
  8
16
 66
1
 10
0.0000
 20
0.0000
 30
0.0000
 40
0.0000
 41
0.0000
 70
1
  0
VERTEX
  8
16
 10
82.3214
 20
38.7350
 30
0.0000
  0
VERTEX
  8
16
 10
82.3214
 20
41.9100
 30
0.0000
 42
1.0000
  0
VERTEX
  8
16
 10
81.5086
 20
41.9100
 30
0.0000
  0
VERTEX
  8
16
 10
81.5086
 20
38.7350
 30
0.0000
 42
1.0000
  0
SEQEND
  8
0
  0
POLYLINE
  8
16
 66
1
 10
0.0000
 20
0.0000
 30
0.0000
 40
0.0000
 41
0.0000
 70
1
  0
VERTEX
  8
16
 10
81.5086
 20
38.7350
 30
0.0000
  0
VERTEX
  8
16
 10
81.5086
 20
31.7500
 30
0.0000
 42
1.0000
  0
VERTEX
  8
16
 10
82.3214
 20
31.7500
 30
0.0000
  0
VERTEX
  8
16
 10
82.3214
 20
38.7350
 30
0.0000
 42
1.0000
  0
SEQEND
  8
0
  0
POLYLINE
  8
16
 66
1
 10
0.0000
 20
0.0000
 30
0.0000
 40
0.0000
 41
0.0000
 70
1
  0
VERTEX
  8
16
 10
42.7736
 20
21.5900
 30
0.0000
  0
VERTEX
  8
16
 10
42.7736
 20
20.3200
 30
0.0000
 42
1.0000
  0
VERTEX
  8
16
 10
43.5864
 20
20.3200
 30
0.0000
  0
VERTEX
  8
16
 10
43.5864
 20
21.5900
 30
0.0000
 42
1.0000
  0
SEQEND
  8
0
  0
POLYLINE
  8
16
 66
1
 10
0.0000
 20
0.0000
 30
0.0000
 40
0.0000
 41
0.0000
 70
1
  0
VERTEX
  8
16
 10
42.8926
 20
20.6074
 30
0.0000
  0
VERTEX
  8
16
 10
41.6226
 20
19.3374
 30
0.0000
 42
1.0000
  0
VERTEX
  8
16
 10
42.1974
 20
18.7626
 30
0.0000
  0
VERTEX
  8
16
 10
43.4674
 20
20.0326
 30
0.0000
 42
1.0000
  0
SEQEND
  8
0
  0
POLYLINE
  8
16
 66
1
 10
0.0000
 20
0.0000
 30
0.0000
 40
0.0000
 41
0.0000
 70
1
  0
VERTEX
  8
16
 10
41.9100
 20
19.4564
 30
0.0000
  0
VERTEX
  8
16
 10
12.0650
 20
19.4564
 30
0.0000
 42
1.0000
  0
VERTEX
  8
16
 10
12.0650
 20
18.6436
 30
0.0000
  0
VERTEX
  8
16
 10
41.9100
 20
18.6436
 30
0.0000
 42
1.0000
  0
SEQEND
  8
0
  0
POLYLINE
  8
16
 66
1
 10
0.0000
 20
0.0000
 30
0.0000
 40
0.0000
 41
0.0000
 70
1
  0
VERTEX
  8
16
 10
12.3524
 20
19.3374
 30
0.0000
  0
VERTEX
  8
16
 10
7.9074
 20
23.7824
 30
0.0000
 42
1.0000
  0
VERTEX
  8
16
 10
7.3326
 20
23.2076
 30
0.0000
  0
VERTEX
  8
16
 10
11.7776
 20
18.7626
 30
0.0000
 42
1.0000
  0
SEQEND
  8
0
  0
POLYLINE
  8
16
 66
1
 10
0.0000
 20
0.0000
 30
0.0000
 40
0.0000
 41
0.0000
 70
1
  0
VERTEX
  8
16
 10
7.6200
 20
23.9014
 30
0.0000
  0
VERTEX
  8
16
 10
6.6750
 20
23.9014
 30
0.0000
 42
1.0000
  0
VERTEX
  8
16
 10
6.6750
 20
23.0886
 30
0.0000
  0
VERTEX
  8
16
 10
7.6200
 20
23.0886
 30
0.0000
 42
1.0000
  0
SEQEND
  8
0
  0
POLYLINE
  8
16
 66
1
 10
0.0000
 20
0.0000
 30
0.0000
 40
0.0000
 41
0.0000
 70
1
  0
VERTEX
  8
16
 10
6.9624
 20
23.7824
 30
0.0000
  0
VERTEX
  8
16
 10
6.6374
 20
24.1074
 30
0.0000
 42
1.0000
  0
VERTEX
  8
16
 10
6.0626
 20
23.5326
 30
0.0000
  0
VERTEX
  8
16
 10
6.3876
 20
23.2076
 30
0.0000
 42
1.0000
  0
SEQEND
  8
0
  0
POLYLINE
  8
16
 66
1
 10
0.0000
 20
0.0000
 30
0.0000
 40
0.0000
 41
0.0000
 70
1
  0
VERTEX
  8
16
 10
22.5726
 20
58.0724
 30
0.0000
  0
VERTEX
  8
16
 10
20.0326
 20
55.5324
 30
0.0000
 42
1.0000
  0
VERTEX
  8
16
 10
20.6074
 20
54.9576
 30
0.0000
  0
VERTEX
  8
16
 10
23.1474
 20
57.4976
 30
0.0000
 42
1.0000
  0
SEQEND
  8
0
  0
POLYLINE
  8
16
 66
1
 10
0.0000
 20
0.0000
 30
0.0000
 40
0.0000
 41
0.0000
 70
1
  0
VERTEX
  8
16
 10
20.3200
 20
55.6514
 30
0.0000
  0
VERTEX
  8
16
 10
15.2400
 20
55.6514
 30
0.0000
 42
1.0000
  0
VERTEX
  8
16
 10
15.2400
 20
54.8386
 30
0.0000
  0
VERTEX
  8
16
 10
20.3200
 20
54.8386
 30
0.0000
 42
1.0000
  0
SEQEND
  8
0
  0
POLYLINE
  8
16
 66
1
 10
0.0000
 20
0.0000
 30
0.0000
 40
0.0000
 41
0.0000
 70
1
  0
VERTEX
  8
16
 10
14.8336
 20
57.7850
 30
0.0000
  0
VERTEX
  8
16
 10
14.8336
 20
55.2450
 30
0.0000
 42
1.0000
  0
VERTEX
  8
16
 10
15.6464
 20
55.2450
 30
0.0000
  0
VERTEX
  8
16
 10
15.6464
 20
57.7850
 30
0.0000
 42
1.0000
  0
SEQEND
  8
0
  0
POLYLINE
  8
16
 66
1
 10
0.0000
 20
0.0000
 30
0.0000
 40
0.0000
 41
0.0000
 70
1
  0
VERTEX
  8
16
 10
8.0264
 20
23.4950
 30
0.0000
  0
VERTEX
  8
16
 10
8.0264
 20
47.6250
 30
0.0000
 42
1.0000
  0
VERTEX
  8
16
 10
7.2136
 20
47.6250
 30
0.0000
  0
VERTEX
  8
16
 10
7.2136
 20
23.4950
 30
0.0000
 42
1.0000
  0
SEQEND
  8
0
  0
POLYLINE
  8
16
 66
1
 10
0.0000
 20
0.0000
 30
0.0000
 40
0.0000
 41
0.0000
 70
1
  0
VERTEX
  8
16
 10
7.9074
 20
47.3376
 30
0.0000
  0
VERTEX
  8
16
 10
15.5274
 20
54.9576
 30
0.0000
 42
1.0000
  0
VERTEX
  8
16
 10
14.9526
 20
55.5324
 30
0.0000
  0
VERTEX
  8
16
 10
7.3326
 20
47.9124
 30
0.0000
 42
1.0000
  0
SEQEND
  8
0
  0
POLYLINE
  8
16
 66
1
 10
0.0000
 20
0.0000
 30
0.0000
 40
0.0000
 41
0.0000
 70
1
  0
VERTEX
  8
16
 10
42.7736
 20
69.8500
 30
0.0000
  0
VERTEX
  8
16
 10
42.7736
 20
69.2150
 30
0.0000
 42
1.0000
  0
VERTEX
  8
16
 10
43.5864
 20
69.2150
 30
0.0000
  0
VERTEX
  8
16
 10
43.5864
 20
69.8500
 30
0.0000
 42
1.0000
  0
SEQEND
  8
0
  0
POLYLINE
  8
16
 66
1
 10
0.0000
 20
0.0000
 30
0.0000
 40
0.0000
 41
0.0000
 70
1
  0
VERTEX
  8
16
 10
42.8926
 20
68.9276
 30
0.0000
  0
VERTEX
  8
16
 10
47.9726
 20
63.8476
 30
0.0000
 42
1.0000
  0
VERTEX
  8
16
 10
48.5474
 20
64.4224
 30
0.0000
  0
VERTEX
  8
16
 10
43.4674
 20
69.5024
 30
0.0000
 42
1.0000
  0
SEQEND
  8
0
  0
POLYLINE
  8
16
 66
1
 10
0.0000
 20
0.0000
 30
0.0000
 40
0.0000
 41
0.0000
 70
1
  0
VERTEX
  8
16
 10
48.2600
 20
63.7286
 30
0.0000
  0
VERTEX
  8
16
 10
55.2450
 20
63.7286
 30
0.0000
 42
1.0000
  0
VERTEX
  8
16
 10
55.2450
 20
64.5414
 30
0.0000
  0
VERTEX
  8
16
 10
48.2600
 20
64.5414
 30
0.0000
 42
1.0000
  0
SEQEND
  8
0
  0
POLYLINE
  8
16
 66
1
 10
0.0000
 20
0.0000
 30
0.0000
 40
0.0000
 41
0.0000
 70
1
  0
VERTEX
  8
16
 10
54.9576
 20
63.8476
 30
0.0000
  0
VERTEX
  8
16
 10
63.2126
 20
55.5926
 30
0.0000
 42
1.0000
  0
VERTEX
  8
16
 10
63.7874
 20
56.1674
 30
0.0000
  0
VERTEX
  8
16
 10
55.5324
 20
64.4224
 30
0.0000
 42
1.0000
  0
SEQEND
  8
0
  0
POLYLINE
  8
16
 66
1
 10
0.0000
 20
0.0000
 30
0.0000
 40
0.0000
 41
0.0000
 70
1
  0
VERTEX
  8
16
 10
63.9064
 20
55.8800
 30
0.0000
  0
VERTEX
  8
16
 10
63.9064
 20
56.1900
 30
0.0000
 42
1.0000
  0
VERTEX
  8
16
 10
63.0936
 20
56.1900
 30
0.0000
  0
VERTEX
  8
16
 10
63.0936
 20
55.8800
 30
0.0000
 42
1.0000
  0
SEQEND
  8
0
  0
POLYLINE
  8
16
 66
1
 10
0.0000
 20
0.0000
 30
0.0000
 40
0.0000
 41
0.0000
 70
1
  0
VERTEX
  8
16
 10
63.2126
 20
56.4774
 30
0.0000
  0
VERTEX
  8
16
 10
62.9026
 20
56.1674
 30
0.0000
 42
1.0000
  0
VERTEX
  8
16
 10
63.4774
 20
55.5926
 30
0.0000
  0
VERTEX
  8
16
 10
63.7874
 20
55.9026
 30
0.0000
 42
1.0000
  0
SEQEND
  8
0
  0
POLYLINE
  8
16
 66
1
 10
0.0000
 20
0.0000
 30
0.0000
 40
0.0000
 41
0.0000
 70
1
  0
VERTEX
  8
16
 10
47.8536
 20
69.8500
 30
0.0000
  0
VERTEX
  8
16
 10
47.8536
 20
69.2150
 30
0.0000
 42
1.0000
  0
VERTEX
  8
16
 10
48.6664
 20
69.2150
 30
0.0000
  0
VERTEX
  8
16
 10
48.6664
 20
69.8500
 30
0.0000
 42
1.0000
  0
SEQEND
  8
0
  0
POLYLINE
  8
16
 66
1
 10
0.0000
 20
0.0000
 30
0.0000
 40
0.0000
 41
0.0000
 70
1
  0
VERTEX
  8
16
 10
47.9726
 20
68.9276
 30
0.0000
  0
VERTEX
  8
16
 10
50.5126
 20
66.3876
 30
0.0000
 42
1.0000
  0
VERTEX
  8
16
 10
51.0874
 20
66.9624
 30
0.0000
  0
VERTEX
  8
16
 10
48.5474
 20
69.5024
 30
0.0000
 42
1.0000
  0
SEQEND
  8
0
  0
POLYLINE
  8
16
 66
1
 10
0.0000
 20
0.0000
 30
0.0000
 40
0.0000
 41
0.0000
 70
1
  0
VERTEX
  8
16
 10
50.8000
 20
66.2686
 30
0.0000
  0
VERTEX
  8
16
 10
60.3250
 20
66.2686
 30
0.0000
 42
1.0000
  0
VERTEX
  8
16
 10
60.3250
 20
67.0814
 30
0.0000
  0
VERTEX
  8
16
 10
50.8000
 20
67.0814
 30
0.0000
 42
1.0000
  0
SEQEND
  8
0
  0
POLYLINE
  8
16
 66
1
 10
0.0000
 20
0.0000
 30
0.0000
 40
0.0000
 41
0.0000
 70
1
  0
VERTEX
  8
16
 10
60.0376
 20
66.3876
 30
0.0000
  0
VERTEX
  8
16
 10
70.8326
 20
55.5926
 30
0.0000
 42
1.0000
  0
VERTEX
  8
16
 10
71.4074
 20
56.1674
 30
0.0000
  0
VERTEX
  8
16
 10
60.6124
 20
66.9624
 30
0.0000
 42
1.0000
  0
SEQEND
  8
0
  0
POLYLINE
  8
16
 66
1
 10
0.0000
 20
0.0000
 30
0.0000
 40
0.0000
 41
0.0000
 70
1
  0
VERTEX
  8
16
 10
70.7136
 20
55.8800
 30
0.0000
  0
VERTEX
  8
16
 10
70.7136
 20
55.5550
 30
0.0000
 42
1.0000
  0
VERTEX
  8
16
 10
71.5264
 20
55.5550
 30
0.0000
  0
VERTEX
  8
16
 10
71.5264
 20
55.8800
 30
0.0000
 42
1.0000
  0
SEQEND
  8
0
  0
POLYLINE
  8
16
 66
1
 10
0.0000
 20
0.0000
 30
0.0000
 40
0.0000
 41
0.0000
 70
1
  0
VERTEX
  8
16
 10
71.4141
 20
55.8355
 30
0.0000
  0
VERTEX
  8
16
 10
71.1041
 20
56.1605
 30
0.0000
 42
1.0000
  0
VERTEX
  8
16
 10
70.5159
 20
55.5995
 30
0.0000
  0
VERTEX
  8
16
 10
70.8259
 20
55.2745
 30
0.0000
 42
1.0000
  0
SEQEND
  8
0
  0
POLYLINE
  8
16
 66
1
 10
0.0000
 20
0.0000
 30
0.0000
 40
0.0000
 41
0.0000
 70
1
  0
VERTEX
  8
16
 10
33.6296
 20
69.8500
 30
0.0000
  0
VERTEX
  8
16
 10
33.6296
 20
68.8340
 30
0.0000
 42
1.0000
  0
VERTEX
  8
16
 10
34.4424
 20
68.8340
 30
0.0000
  0
VERTEX
  8
16
 10
34.4424
 20
69.8500
 30
0.0000
 42
1.0000
  0
SEQEND
  8
0
  0
POLYLINE
  8
16
 66
1
 10
0.0000
 20
0.0000
 30
0.0000
 40
0.0000
 41
0.0000
 70
1
  0
VERTEX
  8
16
 10
33.7486
 20
68.5466
 30
0.0000
  0
VERTEX
  8
16
 10
42.2576
 20
60.0376
 30
0.0000
 42
1.0000
  0
VERTEX
  8
16
 10
42.8324
 20
60.6124
 30
0.0000
  0
VERTEX
  8
16
 10
34.3234
 20
69.1214
 30
0.0000
 42
1.0000
  0
SEQEND
  8
0
  0
POLYLINE
  8
16
 66
1
 10
0.0000
 20
0.0000
 30
0.0000
 40
0.0000
 41
0.0000
 70
1
  0
VERTEX
  8
16
 10
42.5450
 20
59.9186
 30
0.0000
  0
VERTEX
  8
16
 10
48.2600
 20
59.9186
 30
0.0000
 42
1.0000
  0
VERTEX
  8
16
 10
48.2600
 20
60.7314
 30
0.0000
  0
VERTEX
  8
16
 10
42.5450
 20
60.7314
 30
0.0000
 42
1.0000
  0
SEQEND
  8
0
  0
POLYLINE
  8
16
 66
1
 10
0.0000
 20
0.0000
 30
0.0000
 40
0.0000
 41
0.0000
 70
1
  0
VERTEX
  8
16
 10
47.9726
 20
60.0376
 30
0.0000
  0
VERTEX
  8
16
 10
51.7826
 20
56.2276
 30
0.0000
 42
1.0000
  0
VERTEX
  8
16
 10
52.3574
 20
56.8024
 30
0.0000
  0
VERTEX
  8
16
 10
48.5474
 20
60.6124
 30
0.0000
 42
1.0000
  0
SEQEND
  8
0
  0
POLYLINE
  8
16
 66
1
 10
0.0000
 20
0.0000
 30
0.0000
 40
0.0000
 41
0.0000
 70
1
  0
VERTEX
  8
16
 10
51.6636
 20
56.5150
 30
0.0000
  0
VERTEX
  8
16
 10
51.6636
 20
55.8800
 30
0.0000
 42
1.0000
  0
VERTEX
  8
16
 10
52.4764
 20
55.8800
 30
0.0000
  0
VERTEX
  8
16
 10
52.4764
 20
56.5150
 30
0.0000
 42
1.0000
  0
SEQEND
  8
0
  0
POLYLINE
  8
16
 66
1
 10
0.0000
 20
0.0000
 30
0.0000
 40
0.0000
 41
0.0000
 70
1
  0
VERTEX
  8
16
 10
36.1696
 20
69.8500
 30
0.0000
  0
VERTEX
  8
16
 10
36.1696
 20
68.8340
 30
0.0000
 42
1.0000
  0
VERTEX
  8
16
 10
36.9824
 20
68.8340
 30
0.0000
  0
VERTEX
  8
16
 10
36.9824
 20
69.8500
 30
0.0000
 42
1.0000
  0
SEQEND
  8
0
  0
POLYLINE
  8
16
 66
1
 10
0.0000
 20
0.0000
 30
0.0000
 40
0.0000
 41
0.0000
 70
1
  0
VERTEX
  8
16
 10
36.2886
 20
68.5466
 30
0.0000
  0
VERTEX
  8
16
 10
43.5276
 20
61.3076
 30
0.0000
 42
1.0000
  0
VERTEX
  8
16
 10
44.1024
 20
61.8824
 30
0.0000
  0
VERTEX
  8
16
 10
36.8634
 20
69.1214
 30
0.0000
 42
1.0000
  0
SEQEND
  8
0
  0
POLYLINE
  8
16
 66
1
 10
0.0000
 20
0.0000
 30
0.0000
 40
0.0000
 41
0.0000
 70
1
  0
VERTEX
  8
16
 10
43.8150
 20
61.1886
 30
0.0000
  0
VERTEX
  8
16
 10
49.5300
 20
61.1886
 30
0.0000
 42
1.0000
  0
VERTEX
  8
16
 10
49.5300
 20
62.0014
 30
0.0000
  0
VERTEX
  8
16
 10
43.8150
 20
62.0014
 30
0.0000
 42
1.0000
  0
SEQEND
  8
0
  0
POLYLINE
  8
16
 66
1
 10
0.0000
 20
0.0000
 30
0.0000
 40
0.0000
 41
0.0000
 70
1
  0
VERTEX
  8
16
 10
49.2426
 20
61.3076
 30
0.0000
  0
VERTEX
  8
16
 10
54.9576
 20
55.5926
 30
0.0000
 42
1.0000
  0
VERTEX
  8
16
 10
55.5324
 20
56.1674
 30
0.0000
  0
VERTEX
  8
16
 10
49.8174
 20
61.8824
 30
0.0000
 42
1.0000
  0
SEQEND
  8
0
  0
POLYLINE
  8
16
 66
1
 10
0.0000
 20
0.0000
 30
0.0000
 40
0.0000
 41
0.0000
 70
1
  0
VERTEX
  8
16
 10
55.4233
 20
55.5148
 30
0.0000
  0
VERTEX
  8
16
 10
56.0583
 20
55.8248
 30
0.0000
 42
1.0000
  0
VERTEX
  8
16
 10
55.7017
 20
56.5552
 30
0.0000
  0
VERTEX
  8
16
 10
55.0667
 20
56.2452
 30
0.0000
 42
1.0000
  0
SEQEND
  8
0
  0
POLYLINE
  8
16
 66
1
 10
0.0000
 20
0.0000
 30
0.0000
 40
0.0000
 41
0.0000
 70
1
  0
VERTEX
  8
16
 10
55.5926
 20
56.4774
 30
0.0000
  0
VERTEX
  8
16
 10
55.2826
 20
56.1674
 30
0.0000
 42
1.0000
  0
VERTEX
  8
16
 10
55.8574
 20
55.5926
 30
0.0000
  0
VERTEX
  8
16
 10
56.1674
 20
55.9026
 30
0.0000
 42
1.0000
  0
SEQEND
  8
0
  0
POLYLINE
  8
16
 66
1
 10
0.0000
 20
0.0000
 30
0.0000
 40
0.0000
 41
0.0000
 70
1
  0
VERTEX
  8
16
 10
94.2086
 20
8.2550
 30
0.0000
  0
VERTEX
  8
16
 10
94.2086
 20
6.9850
 30
0.0000
 42
1.0000
  0
VERTEX
  8
16
 10
95.0214
 20
6.9850
 30
0.0000
  0
VERTEX
  8
16
 10
95.0214
 20
8.2550
 30
0.0000
 42
1.0000
  0
SEQEND
  8
0
  0
POLYLINE
  8
16
 66
1
 10
0.0000
 20
0.0000
 30
0.0000
 40
0.0000
 41
0.0000
 70
1
  0
VERTEX
  8
16
 10
94.3276
 20
7.2724
 30
0.0000
  0
VERTEX
  8
16
 10
93.0576
 20
6.0024
 30
0.0000
 42
1.0000
  0
VERTEX
  8
16
 10
93.6324
 20
5.4276
 30
0.0000
  0
VERTEX
  8
16
 10
94.9024
 20
6.6976
 30
0.0000
 42
1.0000
  0
SEQEND
  8
0
  0
POLYLINE
  8
16
 66
1
 10
0.0000
 20
0.0000
 30
0.0000
 40
0.0000
 41
0.0000
 70
1
  0
VERTEX
  8
16
 10
18.4150
 20
6.1214
 30
0.0000
  0
VERTEX
  8
16
 10
10.7950
 20
6.1214
 30
0.0000
 42
1.0000
  0
VERTEX
  8
16
 10
10.7950
 20
5.3086
 30
0.0000
  0
VERTEX
  8
16
 10
18.4150
 20
5.3086
 30
0.0000
 42
1.0000
  0
SEQEND
  8
0
  0
POLYLINE
  8
16
 66
1
 10
0.0000
 20
0.0000
 30
0.0000
 40
0.0000
 41
0.0000
 70
1
  0
VERTEX
  8
16
 10
26.0350
 20
6.1214
 30
0.0000
  0
VERTEX
  8
16
 10
18.4150
 20
6.1214
 30
0.0000
 42
1.0000
  0
VERTEX
  8
16
 10
18.4150
 20
5.3086
 30
0.0000
  0
VERTEX
  8
16
 10
26.0350
 20
5.3086
 30
0.0000
 42
1.0000
  0
SEQEND
  8
0
  0
POLYLINE
  8
16
 66
1
 10
0.0000
 20
0.0000
 30
0.0000
 40
0.0000
 41
0.0000
 70
1
  0
VERTEX
  8
16
 10
33.6550
 20
6.1214
 30
0.0000
  0
VERTEX
  8
16
 10
26.0350
 20
6.1214
 30
0.0000
 42
1.0000
  0
VERTEX
  8
16
 10
26.0350
 20
5.3086
 30
0.0000
  0
VERTEX
  8
16
 10
33.6550
 20
5.3086
 30
0.0000
 42
1.0000
  0
SEQEND
  8
0
  0
POLYLINE
  8
16
 66
1
 10
0.0000
 20
0.0000
 30
0.0000
 40
0.0000
 41
0.0000
 70
1
  0
VERTEX
  8
16
 10
41.2750
 20
6.1214
 30
0.0000
  0
VERTEX
  8
16
 10
33.6550
 20
6.1214
 30
0.0000
 42
1.0000
  0
VERTEX
  8
16
 10
33.6550
 20
5.3086
 30
0.0000
  0
VERTEX
  8
16
 10
41.2750
 20
5.3086
 30
0.0000
 42
1.0000
  0
SEQEND
  8
0
  0
POLYLINE
  8
16
 66
1
 10
0.0000
 20
0.0000
 30
0.0000
 40
0.0000
 41
0.0000
 70
1
  0
VERTEX
  8
16
 10
48.8950
 20
6.1214
 30
0.0000
  0
VERTEX
  8
16
 10
41.2750
 20
6.1214
 30
0.0000
 42
1.0000
  0
VERTEX
  8
16
 10
41.2750
 20
5.3086
 30
0.0000
  0
VERTEX
  8
16
 10
48.8950
 20
5.3086
 30
0.0000
 42
1.0000
  0
SEQEND
  8
0
  0
POLYLINE
  8
16
 66
1
 10
0.0000
 20
0.0000
 30
0.0000
 40
0.0000
 41
0.0000
 70
1
  0
VERTEX
  8
16
 10
56.5150
 20
6.1214
 30
0.0000
  0
VERTEX
  8
16
 10
48.8950
 20
6.1214
 30
0.0000
 42
1.0000
  0
VERTEX
  8
16
 10
48.8950
 20
5.3086
 30
0.0000
  0
VERTEX
  8
16
 10
56.5150
 20
5.3086
 30
0.0000
 42
1.0000
  0
SEQEND
  8
0
  0
POLYLINE
  8
16
 66
1
 10
0.0000
 20
0.0000
 30
0.0000
 40
0.0000
 41
0.0000
 70
1
  0
VERTEX
  8
16
 10
64.1350
 20
6.1214
 30
0.0000
  0
VERTEX
  8
16
 10
56.5150
 20
6.1214
 30
0.0000
 42
1.0000
  0
VERTEX
  8
16
 10
56.5150
 20
5.3086
 30
0.0000
  0
VERTEX
  8
16
 10
64.1350
 20
5.3086
 30
0.0000
 42
1.0000
  0
SEQEND
  8
0
  0
POLYLINE
  8
16
 66
1
 10
0.0000
 20
0.0000
 30
0.0000
 40
0.0000
 41
0.0000
 70
1
  0
VERTEX
  8
16
 10
71.7550
 20
6.1214
 30
0.0000
  0
VERTEX
  8
16
 10
64.1350
 20
6.1214
 30
0.0000
 42
1.0000
  0
VERTEX
  8
16
 10
64.1350
 20
5.3086
 30
0.0000
  0
VERTEX
  8
16
 10
71.7550
 20
5.3086
 30
0.0000
 42
1.0000
  0
SEQEND
  8
0
  0
POLYLINE
  8
16
 66
1
 10
0.0000
 20
0.0000
 30
0.0000
 40
0.0000
 41
0.0000
 70
1
  0
VERTEX
  8
16
 10
79.3750
 20
6.1214
 30
0.0000
  0
VERTEX
  8
16
 10
71.7550
 20
6.1214
 30
0.0000
 42
1.0000
  0
VERTEX
  8
16
 10
71.7550
 20
5.3086
 30
0.0000
  0
VERTEX
  8
16
 10
79.3750
 20
5.3086
 30
0.0000
 42
1.0000
  0
SEQEND
  8
0
  0
POLYLINE
  8
16
 66
1
 10
0.0000
 20
0.0000
 30
0.0000
 40
0.0000
 41
0.0000
 70
1
  0
VERTEX
  8
16
 10
86.9950
 20
6.1214
 30
0.0000
  0
VERTEX
  8
16
 10
79.3750
 20
6.1214
 30
0.0000
 42
1.0000
  0
VERTEX
  8
16
 10
79.3750
 20
5.3086
 30
0.0000
  0
VERTEX
  8
16
 10
86.9950
 20
5.3086
 30
0.0000
 42
1.0000
  0
SEQEND
  8
0
  0
POLYLINE
  8
16
 66
1
 10
0.0000
 20
0.0000
 30
0.0000
 40
0.0000
 41
0.0000
 70
1
  0
VERTEX
  8
16
 10
86.9950
 20
5.3086
 30
0.0000
  0
VERTEX
  8
16
 10
93.3450
 20
5.3086
 30
0.0000
 42
1.0000
  0
VERTEX
  8
16
 10
93.3450
 20
6.1214
 30
0.0000
  0
VERTEX
  8
16
 10
86.9950
 20
6.1214
 30
0.0000
 42
1.0000
  0
SEQEND
  8
0
  0
POLYLINE
  8
16
 66
1
 10
0.0000
 20
0.0000
 30
0.0000
 40
0.0000
 41
0.0000
 70
1
  0
VERTEX
  8
16
 10
10.7950
 20
6.1214
 30
0.0000
  0
VERTEX
  8
16
 10
5.0800
 20
6.1214
 30
0.0000
 42
1.0000
  0
VERTEX
  8
16
 10
5.0800
 20
5.3086
 30
0.0000
  0
VERTEX
  8
16
 10
10.7950
 20
5.3086
 30
0.0000
 42
1.0000
  0
SEQEND
  8
0
  0
POLYLINE
  8
16
 66
1
 10
0.0000
 20
0.0000
 30
0.0000
 40
0.0000
 41
0.0000
 70
1
  0
VERTEX
  8
16
 10
5.3674
 20
6.0024
 30
0.0000
  0
VERTEX
  8
16
 10
3.4624
 20
7.9074
 30
0.0000
 42
1.0000
  0
VERTEX
  8
16
 10
2.8876
 20
7.3326
 30
0.0000
  0
VERTEX
  8
16
 10
4.7926
 20
5.4276
 30
0.0000
 42
1.0000
  0
SEQEND
  8
0
  0
POLYLINE
  8
16
 66
1
 10
0.0000
 20
0.0000
 30
0.0000
 40
0.0000
 41
0.0000
 70
1
  0
VERTEX
  8
16
 10
3.5814
 20
7.6200
 30
0.0000
  0
VERTEX
  8
16
 10
3.5814
 20
8.2550
 30
0.0000
 42
1.0000
  0
VERTEX
  8
16
 10
2.7686
 20
8.2550
 30
0.0000
  0
VERTEX
  8
16
 10
2.7686
 20
7.6200
 30
0.0000
 42
1.0000
  0
SEQEND
  8
0
  0
POLYLINE
  8
16
 66
1
 10
0.0000
 20
0.0000
 30
0.0000
 40
0.0000
 41
0.0000
 70
1
  0
VERTEX
  8
16
 10
10.3886
 20
8.2550
 30
0.0000
  0
VERTEX
  8
16
 10
10.3886
 20
5.7150
 30
0.0000
 42
1.0000
  0
VERTEX
  8
16
 10
11.2014
 20
5.7150
 30
0.0000
  0
VERTEX
  8
16
 10
11.2014
 20
8.2550
 30
0.0000
 42
1.0000
  0
SEQEND
  8
0
  0
POLYLINE
  8
16
 66
1
 10
0.0000
 20
0.0000
 30
0.0000
 40
0.0000
 41
0.0000
 70
1
  0
VERTEX
  8
16
 10
18.0086
 20
8.2550
 30
0.0000
  0
VERTEX
  8
16
 10
18.0086
 20
5.7150
 30
0.0000
 42
1.0000
  0
VERTEX
  8
16
 10
18.8214
 20
5.7150
 30
0.0000
  0
VERTEX
  8
16
 10
18.8214
 20
8.2550
 30
0.0000
 42
1.0000
  0
SEQEND
  8
0
  0
POLYLINE
  8
16
 66
1
 10
0.0000
 20
0.0000
 30
0.0000
 40
0.0000
 41
0.0000
 70
1
  0
VERTEX
  8
16
 10
25.6286
 20
8.2550
 30
0.0000
  0
VERTEX
  8
16
 10
25.6286
 20
5.7150
 30
0.0000
 42
1.0000
  0
VERTEX
  8
16
 10
26.4414
 20
5.7150
 30
0.0000
  0
VERTEX
  8
16
 10
26.4414
 20
8.2550
 30
0.0000
 42
1.0000
  0
SEQEND
  8
0
  0
POLYLINE
  8
16
 66
1
 10
0.0000
 20
0.0000
 30
0.0000
 40
0.0000
 41
0.0000
 70
1
  0
VERTEX
  8
16
 10
33.2486
 20
8.2550
 30
0.0000
  0
VERTEX
  8
16
 10
33.2486
 20
5.7150
 30
0.0000
 42
1.0000
  0
VERTEX
  8
16
 10
34.0614
 20
5.7150
 30
0.0000
  0
VERTEX
  8
16
 10
34.0614
 20
8.2550
 30
0.0000
 42
1.0000
  0
SEQEND
  8
0
  0
POLYLINE
  8
16
 66
1
 10
0.0000
 20
0.0000
 30
0.0000
 40
0.0000
 41
0.0000
 70
1
  0
VERTEX
  8
16
 10
40.8686
 20
8.2550
 30
0.0000
  0
VERTEX
  8
16
 10
40.8686
 20
5.7150
 30
0.0000
 42
1.0000
  0
VERTEX
  8
16
 10
41.6814
 20
5.7150
 30
0.0000
  0
VERTEX
  8
16
 10
41.6814
 20
8.2550
 30
0.0000
 42
1.0000
  0
SEQEND
  8
0
  0
POLYLINE
  8
16
 66
1
 10
0.0000
 20
0.0000
 30
0.0000
 40
0.0000
 41
0.0000
 70
1
  0
VERTEX
  8
16
 10
48.4886
 20
8.2550
 30
0.0000
  0
VERTEX
  8
16
 10
48.4886
 20
5.7150
 30
0.0000
 42
1.0000
  0
VERTEX
  8
16
 10
49.3014
 20
5.7150
 30
0.0000
  0
VERTEX
  8
16
 10
49.3014
 20
8.2550
 30
0.0000
 42
1.0000
  0
SEQEND
  8
0
  0
POLYLINE
  8
16
 66
1
 10
0.0000
 20
0.0000
 30
0.0000
 40
0.0000
 41
0.0000
 70
1
  0
VERTEX
  8
16
 10
56.1086
 20
8.2550
 30
0.0000
  0
VERTEX
  8
16
 10
56.1086
 20
5.7150
 30
0.0000
 42
1.0000
  0
VERTEX
  8
16
 10
56.9214
 20
5.7150
 30
0.0000
  0
VERTEX
  8
16
 10
56.9214
 20
8.2550
 30
0.0000
 42
1.0000
  0
SEQEND
  8
0
  0
POLYLINE
  8
16
 66
1
 10
0.0000
 20
0.0000
 30
0.0000
 40
0.0000
 41
0.0000
 70
1
  0
VERTEX
  8
16
 10
63.7286
 20
8.2550
 30
0.0000
  0
VERTEX
  8
16
 10
63.7286
 20
5.7150
 30
0.0000
 42
1.0000
  0
VERTEX
  8
16
 10
64.5414
 20
5.7150
 30
0.0000
  0
VERTEX
  8
16
 10
64.5414
 20
8.2550
 30
0.0000
 42
1.0000
  0
SEQEND
  8
0
  0
POLYLINE
  8
16
 66
1
 10
0.0000
 20
0.0000
 30
0.0000
 40
0.0000
 41
0.0000
 70
1
  0
VERTEX
  8
16
 10
71.3486
 20
8.2550
 30
0.0000
  0
VERTEX
  8
16
 10
71.3486
 20
5.7150
 30
0.0000
 42
1.0000
  0
VERTEX
  8
16
 10
72.1614
 20
5.7150
 30
0.0000
  0
VERTEX
  8
16
 10
72.1614
 20
8.2550
 30
0.0000
 42
1.0000
  0
SEQEND
  8
0
  0
POLYLINE
  8
16
 66
1
 10
0.0000
 20
0.0000
 30
0.0000
 40
0.0000
 41
0.0000
 70
1
  0
VERTEX
  8
16
 10
78.9686
 20
8.2550
 30
0.0000
  0
VERTEX
  8
16
 10
78.9686
 20
5.7150
 30
0.0000
 42
1.0000
  0
VERTEX
  8
16
 10
79.7814
 20
5.7150
 30
0.0000
  0
VERTEX
  8
16
 10
79.7814
 20
8.2550
 30
0.0000
 42
1.0000
  0
SEQEND
  8
0
  0
POLYLINE
  8
16
 66
1
 10
0.0000
 20
0.0000
 30
0.0000
 40
0.0000
 41
0.0000
 70
1
  0
VERTEX
  8
16
 10
86.5886
 20
8.2550
 30
0.0000
  0
VERTEX
  8
16
 10
86.5886
 20
5.7150
 30
0.0000
 42
1.0000
  0
VERTEX
  8
16
 10
87.4014
 20
5.7150
 30
0.0000
  0
VERTEX
  8
16
 10
87.4014
 20
8.2550
 30
0.0000
 42
1.0000
  0
SEQEND
  8
0
  0
POLYLINE
  8
16
 66
1
 10
0.0000
 20
0.0000
 30
0.0000
 40
0.0000
 41
0.0000
 70
1
  0
VERTEX
  8
16
 10
6.0378
 20
20.5802
 30
0.0000
  0
VERTEX
  8
16
 10
2.8628
 20
16.7702
 30
0.0000
 42
1.0000
  0
VERTEX
  8
16
 10
3.4872
 20
16.2498
 30
0.0000
  0
VERTEX
  8
16
 10
6.6622
 20
20.0598
 30
0.0000
 42
1.0000
  0
SEQEND
  8
0
  0
POLYLINE
  8
16
 66
1
 10
0.0000
 20
0.0000
 30
0.0000
 40
0.0000
 41
0.0000
 70
1
  0
VERTEX
  8
16
 10
2.7686
 20
16.5100
 30
0.0000
  0
VERTEX
  8
16
 10
2.7686
 20
8.2550
 30
0.0000
 42
1.0000
  0
VERTEX
  8
16
 10
3.5814
 20
8.2550
 30
0.0000
  0
VERTEX
  8
16
 10
3.5814
 20
16.5100
 30
0.0000
 42
1.0000
  0
SEQEND
  8
0
  0
POLYLINE
  8
16
 66
1
 10
0.0000
 20
0.0000
 30
0.0000
 40
0.0000
 41
0.0000
 70
1
  0
VERTEX
  8
16
 10
93.9800
 20
27.0764
 30
0.0000
  0
VERTEX
  8
16
 10
91.4400
 20
27.0764
 30
0.0000
 42
1.0000
  0
VERTEX
  8
16
 10
91.4400
 20
26.2636
 30
0.0000
  0
VERTEX
  8
16
 10
93.9800
 20
26.2636
 30
0.0000
 42
1.0000
  0
SEQEND
  8
0
  0
POLYLINE
  8
16
 66
1
 10
0.0000
 20
0.0000
 30
0.0000
 40
0.0000
 41
0.0000
 70
1
  0
VERTEX
  8
16
 10
94.3276
 20
6.6976
 30
0.0000
  0
VERTEX
  8
16
 10
95.5976
 20
5.4276
 30
0.0000
 42
1.0000
  0
VERTEX
  8
16
 10
96.1724
 20
6.0024
 30
0.0000
  0
VERTEX
  8
16
 10
94.9024
 20
7.2724
 30
0.0000
 42
1.0000
  0
SEQEND
  8
0
  0
POLYLINE
  8
16
 66
1
 10
0.0000
 20
0.0000
 30
0.0000
 40
0.0000
 41
0.0000
 70
1
  0
VERTEX
  8
16
 10
95.8850
 20
5.3086
 30
0.0000
  0
VERTEX
  8
16
 10
99.0600
 20
5.3086
 30
0.0000
 42
1.0000
  0
VERTEX
  8
16
 10
99.0600
 20
6.1214
 30
0.0000
  0
VERTEX
  8
16
 10
95.8850
 20
6.1214
 30
0.0000
 42
1.0000
  0
SEQEND
  8
0
  0
POLYLINE
  8
16
 66
1
 10
0.0000
 20
0.0000
 30
0.0000
 40
0.0000
 41
0.0000
 70
1
  0
VERTEX
  8
16
 10
99.3474
 20
5.4276
 30
0.0000
  0
VERTEX
  8
16
 10
100.6174
 20
6.6976
 30
0.0000
 42
1.0000
  0
VERTEX
  8
16
 10
100.0426
 20
7.2724
 30
0.0000
  0
VERTEX
  8
16
 10
98.7726
 20
6.0024
 30
0.0000
 42
1.0000
  0
SEQEND
  8
0
  0
POLYLINE
  8
16
 66
1
 10
0.0000
 20
0.0000
 30
0.0000
 40
0.0000
 41
0.0000
 70
1
  0
VERTEX
  8
16
 10
100.7364
 20
6.9850
 30
0.0000
  0
VERTEX
  8
16
 10
100.7364
 20
12.0650
 30
0.0000
 42
1.0000
  0
VERTEX
  8
16
 10
99.9236
 20
12.0650
 30
0.0000
  0
VERTEX
  8
16
 10
99.9236
 20
6.9850
 30
0.0000
 42
1.0000
  0
SEQEND
  8
0
  0
POLYLINE
  8
16
 66
1
 10
0.0000
 20
0.0000
 30
0.0000
 40
0.0000
 41
0.0000
 70
1
  0
VERTEX
  8
16
 10
94.3864
 20
18.4150
 30
0.0000
  0
VERTEX
  8
16
 10
94.3864
 20
26.6700
 30
0.0000
 42
1.0000
  0
VERTEX
  8
16
 10
93.5736
 20
26.6700
 30
0.0000
  0
VERTEX
  8
16
 10
93.5736
 20
18.4150
 30
0.0000
 42
1.0000
  0
SEQEND
  8
0
  0
POLYLINE
  8
16
 66
1
 10
0.0000
 20
0.0000
 30
0.0000
 40
0.0000
 41
0.0000
 70
1
  0
VERTEX
  8
16
 10
100.6174
 20
12.3524
 30
0.0000
  0
VERTEX
  8
16
 10
94.2674
 20
18.7024
 30
0.0000
 42
1.0000
  0
VERTEX
  8
16
 10
93.6926
 20
18.1276
 30
0.0000
  0
VERTEX
  8
16
 10
100.0426
 20
11.7776
 30
0.0000
 42
1.0000
  0
SEQEND
  8
0
  0
POLYLINE
  8
16
 66
1
 10
0.0000
 20
0.0000
 30
0.0000
 40
0.0000
 41
0.0000
 70
1
  0
VERTEX
  8
16
 10
40.6400
 20
21.9964
 30
0.0000
  0
VERTEX
  8
16
 10
38.1000
 20
21.9964
 30
0.0000
 42
1.0000
  0
VERTEX
  8
16
 10
38.1000
 20
21.1836
 30
0.0000
  0
VERTEX
  8
16
 10
40.6400
 20
21.1836
 30
0.0000
 42
1.0000
  0
SEQEND
  8
0
  0
POLYLINE
  8
16
 66
1
 10
0.0000
 20
0.0000
 30
0.0000
 40
0.0000
 41
0.0000
 70
1
  0
VERTEX
  8
16
 10
23.4696
 20
69.8500
 30
0.0000
  0
VERTEX
  8
16
 10
23.4696
 20
68.3260
 30
0.0000
 42
1.0000
  0
VERTEX
  8
16
 10
24.2824
 20
68.3260
 30
0.0000
  0
VERTEX
  8
16
 10
24.2824
 20
69.8500
 30
0.0000
 42
1.0000
  0
SEQEND
  8
0
  0
POLYLINE
  8
16
 66
1
 10
0.0000
 20
0.0000
 30
0.0000
 40
0.0000
 41
0.0000
 70
1
  0
VERTEX
  8
16
 10
23.5886
 20
68.6134
 30
0.0000
  0
VERTEX
  8
16
 10
21.3026
 20
66.3274
 30
0.0000
 42
1.0000
  0
VERTEX
  8
16
 10
21.8774
 20
65.7526
 30
0.0000
  0
VERTEX
  8
16
 10
24.1634
 20
68.0386
 30
0.0000
 42
1.0000
  0
SEQEND
  8
0
  0
POLYLINE
  8
16
 66
1
 10
0.0000
 20
0.0000
 30
0.0000
 40
0.0000
 41
0.0000
 70
1
  0
VERTEX
  8
16
 10
21.3026
 20
65.7526
 30
0.0000
  0
VERTEX
  8
16
 10
23.8426
 20
63.2126
 30
0.0000
 42
1.0000
  0
VERTEX
  8
16
 10
24.4174
 20
63.7874
 30
0.0000
  0
VERTEX
  8
16
 10
21.8774
 20
66.3274
 30
0.0000
 42
1.0000
  0
SEQEND
  8
0
  0
POLYLINE
  8
16
 66
1
 10
0.0000
 20
0.0000
 30
0.0000
 40
0.0000
 41
0.0000
 70
1
  0
VERTEX
  8
16
 10
23.8426
 20
63.2126
 30
0.0000
  0
VERTEX
  8
16
 10
26.3826
 20
60.6726
 30
0.0000
 42
1.0000
  0
VERTEX
  8
16
 10
26.9574
 20
61.2474
 30
0.0000
  0
VERTEX
  8
16
 10
24.4174
 20
63.7874
 30
0.0000
 42
1.0000
  0
SEQEND
  8
0
  0
POLYLINE
  8
16
 66
1
 10
0.0000
 20
0.0000
 30
0.0000
 40
0.0000
 41
0.0000
 70
1
  0
VERTEX
  8
16
 10
26.2636
 20
60.9600
 30
0.0000
  0
VERTEX
  8
16
 10
26.2636
 20
58.0950
 30
0.0000
 42
1.0000
  0
VERTEX
  8
16
 10
27.0764
 20
58.0950
 30
0.0000
  0
VERTEX
  8
16
 10
27.0764
 20
60.9600
 30
0.0000
 42
1.0000
  0
SEQEND
  8
0
  0
POLYLINE
  8
16
 66
1
 10
0.0000
 20
0.0000
 30
0.0000
 40
0.0000
 41
0.0000
 70
1
  0
VERTEX
  8
16
 10
26.3826
 20
58.3824
 30
0.0000
  0
VERTEX
  8
16
 10
26.0726
 20
58.0724
 30
0.0000
 42
1.0000
  0
VERTEX
  8
16
 10
26.6474
 20
57.4976
 30
0.0000
  0
VERTEX
  8
16
 10
26.9574
 20
57.8076
 30
0.0000
 42
1.0000
  0
SEQEND
  8
0
  0
POLYLINE
  8
16
 66
1
 10
0.0000
 20
0.0000
 30
0.0000
 40
0.0000
 41
0.0000
 70
1
  0
VERTEX
  8
16
 10
23.8426
 20
63.7874
 30
0.0000
  0
VERTEX
  8
16
 10
18.7626
 20
58.7074
 30
0.0000
 42
1.0000
  0
VERTEX
  8
16
 10
19.3374
 20
58.1326
 30
0.0000
  0
VERTEX
  8
16
 10
24.4174
 20
63.2126
 30
0.0000
 42
1.0000
  0
SEQEND
  8
0
  0
POLYLINE
  8
16
 66
1
 10
0.0000
 20
0.0000
 30
0.0000
 40
0.0000
 41
0.0000
 70
1
  0
VERTEX
  8
16
 10
18.6436
 20
58.4200
 30
0.0000
  0
VERTEX
  8
16
 10
18.6436
 20
58.0950
 30
0.0000
 42
1.0000
  0
VERTEX
  8
16
 10
19.4564
 20
58.0950
 30
0.0000
  0
VERTEX
  8
16
 10
19.4564
 20
58.4200
 30
0.0000
 42
1.0000
  0
SEQEND
  8
0
  0
POLYLINE
  8
16
 66
1
 10
0.0000
 20
0.0000
 30
0.0000
 40
0.0000
 41
0.0000
 70
1
  0
VERTEX
  8
16
 10
19.0274
 20
57.4976
 30
0.0000
  0
VERTEX
  8
16
 10
19.3374
 20
57.8076
 30
0.0000
 42
1.0000
  0
VERTEX
  8
16
 10
18.7626
 20
58.3824
 30
0.0000
  0
VERTEX
  8
16
 10
18.4526
 20
58.0724
 30
0.0000
 42
1.0000
  0
SEQEND
  8
0
  0
POLYLINE
  8
16
 66
1
 10
0.0000
 20
0.0000
 30
0.0000
 40
0.0000
 41
0.0000
 70
1
  0
VERTEX
  8
16
 10
39.9236
 20
55.8800
 30
0.0000
  0
VERTEX
  8
16
 10
39.9236
 20
44.7750
 30
0.0000
 42
1.0000
  0
VERTEX
  8
16
 10
40.7364
 20
44.7750
 30
0.0000
  0
VERTEX
  8
16
 10
40.7364
 20
55.8800
 30
0.0000
 42
1.0000
  0
SEQEND
  8
0
  0
POLYLINE
  8
16
 66
1
 10
0.0000
 20
0.0000
 30
0.0000
 40
0.0000
 41
0.0000
 70
1
  0
VERTEX
  8
16
 10
38.3874
 20
42.2576
 30
0.0000
  0
VERTEX
  8
16
 10
40.6174
 20
44.4876
 30
0.0000
 42
1.0000
  0
VERTEX
  8
16
 10
40.0426
 20
45.0624
 30
0.0000
  0
VERTEX
  8
16
 10
37.8126
 20
42.8324
 30
0.0000
 42
1.0000
  0
SEQEND
  8
0
  0
POLYLINE
  8
16
 66
1
 10
0.0000
 20
0.0000
 30
0.0000
 40
0.0000
 41
0.0000
 70
1
  0
VERTEX
  8
16
 10
25.9536
 20
57.7850
 30
0.0000
  0
VERTEX
  8
16
 10
25.9536
 20
51.7600
 30
0.0000
 42
1.0000
  0
VERTEX
  8
16
 10
26.7664
 20
51.7600
 30
0.0000
  0
VERTEX
  8
16
 10
26.7664
 20
57.7850
 30
0.0000
 42
1.0000
  0
SEQEND
  8
0
  0
POLYLINE
  8
16
 66
1
 10
0.0000
 20
0.0000
 30
0.0000
 40
0.0000
 41
0.0000
 70
1
  0
VERTEX
  8
16
 10
26.0726
 20
52.0474
 30
0.0000
  0
VERTEX
  8
16
 10
23.8426
 20
49.8174
 30
0.0000
 42
1.0000
  0
VERTEX
  8
16
 10
24.4174
 20
49.2426
 30
0.0000
  0
VERTEX
  8
16
 10
26.6474
 20
51.4726
 30
0.0000
 42
1.0000
  0
SEQEND
  8
0
  0
POLYLINE
  8
16
 66
1
 10
0.0000
 20
0.0000
 30
0.0000
 40
0.0000
 41
0.0000
 70
1
  0
VERTEX
  8
16
 10
23.7236
 20
49.5300
 30
0.0000
  0
VERTEX
  8
16
 10
23.7236
 20
44.4500
 30
0.0000
 42
1.0000
  0
VERTEX
  8
16
 10
24.5364
 20
44.4500
 30
0.0000
  0
VERTEX
  8
16
 10
24.5364
 20
49.5300
 30
0.0000
 42
1.0000
  0
SEQEND
  8
0
  0
POLYLINE
  8
16
 66
1
 10
0.0000
 20
0.0000
 30
0.0000
 40
0.0000
 41
0.0000
 70
1
  0
VERTEX
  8
16
 10
23.8426
 20
44.1626
 30
0.0000
  0
VERTEX
  8
16
 10
25.7476
 20
42.2576
 30
0.0000
 42
1.0000
  0
VERTEX
  8
16
 10
26.3224
 20
42.8324
 30
0.0000
  0
VERTEX
  8
16
 10
24.4174
 20
44.7374
 30
0.0000
 42
1.0000
  0
SEQEND
  8
0
  0
POLYLINE
  8
16
 66
1
 10
0.0000
 20
0.0000
 30
0.0000
 40
0.0000
 41
0.0000
 70
1
  0
VERTEX
  8
16
 10
26.0350
 20
42.1386
 30
0.0000
  0
VERTEX
  8
16
 10
38.1000
 20
42.1386
 30
0.0000
 42
1.0000
  0
VERTEX
  8
16
 10
38.1000
 20
42.9514
 30
0.0000
  0
VERTEX
  8
16
 10
26.0350
 20
42.9514
 30
0.0000
 42
1.0000
  0
SEQEND
  8
0
  0
POLYLINE
  8
16
 66
1
 10
0.0000
 20
0.0000
 30
0.0000
 40
0.0000
 41
0.0000
 70
1
  0
VERTEX
  8
16
 10
37.6936
 20
34.2900
 30
0.0000
  0
VERTEX
  8
16
 10
37.6936
 20
21.5900
 30
0.0000
 42
1.0000
  0
VERTEX
  8
16
 10
38.5064
 20
21.5900
 30
0.0000
  0
VERTEX
  8
16
 10
38.5064
 20
34.2900
 30
0.0000
 42
1.0000
  0
SEQEND
  8
0
  0
POLYLINE
  8
16
 66
1
 10
0.0000
 20
0.0000
 30
0.0000
 40
0.0000
 41
0.0000
 70
1
  0
VERTEX
  8
16
 10
38.5064
 20
34.2900
 30
0.0000
  0
VERTEX
  8
16
 10
38.5064
 20
42.5450
 30
0.0000
 42
1.0000
  0
VERTEX
  8
16
 10
37.6936
 20
42.5450
 30
0.0000
  0
VERTEX
  8
16
 10
37.6936
 20
34.2900
 30
0.0000
 42
1.0000
  0
SEQEND
  8
0
  0
POLYLINE
  8
16
 66
1
 10
0.0000
 20
0.0000
 30
0.0000
 40
0.0000
 41
0.0000
 70
1
  0
VERTEX
  8
16
 10
21.5900
 20
66.4464
 30
0.0000
  0
VERTEX
  8
16
 10
17.7800
 20
66.4464
 30
0.0000
 42
1.0000
  0
VERTEX
  8
16
 10
17.7800
 20
65.6336
 30
0.0000
  0
VERTEX
  8
16
 10
21.5900
 20
65.6336
 30
0.0000
 42
1.0000
  0
SEQEND
  8
0
  0
POLYLINE
  8
16
 66
1
 10
0.0000
 20
0.0000
 30
0.0000
 40
0.0000
 41
0.0000
 70
1
  0
VERTEX
  8
16
 10
3.4036
 20
52.0700
 30
0.0000
  0
VERTEX
  8
16
 10
3.4036
 20
22.8600
 30
0.0000
 42
1.0000
  0
VERTEX
  8
16
 10
4.2164
 20
22.8600
 30
0.0000
  0
VERTEX
  8
16
 10
4.2164
 20
52.0700
 30
0.0000
 42
1.0000
  0
SEQEND
  8
0
  0
POLYLINE
  8
16
 66
1
 10
0.0000
 20
0.0000
 30
0.0000
 40
0.0000
 41
0.0000
 70
1
  0
VERTEX
  8
16
 10
3.5226
 20
22.5726
 30
0.0000
  0
VERTEX
  8
16
 10
6.0626
 20
20.0326
 30
0.0000
 42
1.0000
  0
VERTEX
  8
16
 10
6.6374
 20
20.6074
 30
0.0000
  0
VERTEX
  8
16
 10
4.0974
 20
23.1474
 30
0.0000
 42
1.0000
  0
SEQEND
  8
0
  0
POLYLINE
  8
16
 66
1
 10
0.0000
 20
0.0000
 30
0.0000
 40
0.0000
 41
0.0000
 70
1
  0
VERTEX
  8
16
 10
17.4926
 20
66.3274
 30
0.0000
  0
VERTEX
  8
16
 10
3.5226
 20
52.3574
 30
0.0000
 42
1.0000
  0
VERTEX
  8
16
 10
4.0974
 20
51.7826
 30
0.0000
  0
VERTEX
  8
16
 10
18.0674
 20
65.7526
 30
0.0000
 42
1.0000
  0
SEQEND
  8
0
  0
POLYLINE
  8
16
 66
1
 10
0.0000
 20
0.0000
 30
0.0000
 40
0.0000
 41
0.0000
 70
1
  0
VERTEX
  8
16
 10
48.3564
 20
55.8800
 30
0.0000
  0
VERTEX
  8
16
 10
48.3564
 20
56.1900
 30
0.0000
 42
1.0000
  0
VERTEX
  8
16
 10
47.5436
 20
56.1900
 30
0.0000
  0
VERTEX
  8
16
 10
47.5436
 20
55.8800
 30
0.0000
 42
1.0000
  0
SEQEND
  8
0
  0
POLYLINE
  8
16
 66
1
 10
0.0000
 20
0.0000
 30
0.0000
 40
0.0000
 41
0.0000
 70
1
  0
VERTEX
  8
16
 10
48.2374
 20
56.4774
 30
0.0000
  0
VERTEX
  8
16
 10
46.6424
 20
58.0724
 30
0.0000
 42
1.0000
  0
VERTEX
  8
16
 10
46.0676
 20
57.4976
 30
0.0000
  0
VERTEX
  8
16
 10
47.6626
 20
55.9026
 30
0.0000
 42
1.0000
  0
SEQEND
  8
0
  0
POLYLINE
  8
16
 66
1
 10
0.0000
 20
0.0000
 30
0.0000
 40
0.0000
 41
0.0000
 70
1
  0
VERTEX
  8
16
 10
46.3550
 20
58.1914
 30
0.0000
  0
VERTEX
  8
16
 10
42.5450
 20
58.1914
 30
0.0000
 42
1.0000
  0
VERTEX
  8
16
 10
42.5450
 20
57.3786
 30
0.0000
  0
VERTEX
  8
16
 10
46.3550
 20
57.3786
 30
0.0000
 42
1.0000
  0
SEQEND
  8
0
  0
POLYLINE
  8
16
 66
1
 10
0.0000
 20
0.0000
 30
0.0000
 40
0.0000
 41
0.0000
 70
1
  0
VERTEX
  8
16
 10
42.2576
 20
58.0724
 30
0.0000
  0
VERTEX
  8
16
 10
40.3526
 20
56.1674
 30
0.0000
 42
1.0000
  0
VERTEX
  8
16
 10
40.9274
 20
55.5926
 30
0.0000
  0
VERTEX
  8
16
 10
42.8324
 20
57.4976
 30
0.0000
 42
1.0000
  0
SEQEND
  8
0
  0
POLYLINE
  8
16
 66
1
 10
0.0000
 20
0.0000
 30
0.0000
 40
0.0000
 41
0.0000
 70
1
  0
VERTEX
  8
16
 10
40.2336
 20
55.8800
 30
0.0000
  0
VERTEX
  8
16
 10
40.2336
 20
55.5550
 30
0.0000
 42
1.0000
  0
VERTEX
  8
16
 10
41.0464
 20
55.5550
 30
0.0000
  0
VERTEX
  8
16
 10
41.0464
 20
55.8800
 30
0.0000
 42
1.0000
  0
SEQEND
  8
0
  0
POLYLINE
  8
16
 66
1
 10
0.0000
 20
0.0000
 30
0.0000
 40
0.0000
 41
0.0000
 70
1
  0
VERTEX
  8
16
 10
40.9341
 20
55.8355
 30
0.0000
  0
VERTEX
  8
16
 10
40.6241
 20
56.1605
 30
0.0000
 42
1.0000
  0
VERTEX
  8
16
 10
40.0359
 20
55.5995
 30
0.0000
  0
VERTEX
  8
16
 10
40.3459
 20
55.2745
 30
0.0000
 42
1.0000
  0
SEQEND
  8
0
  0
POLYLINE
  8
16
 66
1
 10
0.0000
 20
0.0000
 30
0.0000
 40
0.0000
 41
0.0000
 70
1
  0
VERTEX
  8
16
 10
45.0850
 20
34.6964
 30
0.0000
  0
VERTEX
  8
16
 10
38.1000
 20
34.6964
 30
0.0000
 42
1.0000
  0
VERTEX
  8
16
 10
38.1000
 20
33.8836
 30
0.0000
  0
VERTEX
  8
16
 10
45.0850
 20
33.8836
 30
0.0000
 42
1.0000
  0
SEQEND
  8
0
  0
POLYLINE
  8
16
 66
1
 10
0.0000
 20
0.0000
 30
0.0000
 40
0.0000
 41
0.0000
 70
1
  0
VERTEX
  8
16
 10
79.0876
 20
45.3724
 30
0.0000
  0
VERTEX
  8
16
 10
76.5476
 20
42.8324
 30
0.0000
 42
1.0000
  0
VERTEX
  8
16
 10
77.1224
 20
42.2576
 30
0.0000
  0
VERTEX
  8
16
 10
79.6624
 20
44.7976
 30
0.0000
 42
1.0000
  0
SEQEND
  8
0
  0
POLYLINE
  8
16
 66
1
 10
0.0000
 20
0.0000
 30
0.0000
 40
0.0000
 41
0.0000
 70
1
  0
VERTEX
  8
16
 10
76.4286
 20
42.5450
 30
0.0000
  0
VERTEX
  8
16
 10
76.4286
 20
41.9100
 30
0.0000
 42
1.0000
  0
VERTEX
  8
16
 10
77.2414
 20
41.9100
 30
0.0000
  0
VERTEX
  8
16
 10
77.2414
 20
42.5450
 30
0.0000
 42
1.0000
  0
SEQEND
  8
0
  0
POLYLINE
  8
16
 66
1
 10
0.0000
 20
0.0000
 30
0.0000
 40
0.0000
 41
0.0000
 70
1
  0
VERTEX
  8
16
 10
79.3750
 20
44.6786
 30
0.0000
  0
VERTEX
  8
16
 10
82.5500
 20
44.6786
 30
0.0000
 42
1.0000
  0
VERTEX
  8
16
 10
82.5500
 20
45.4914
 30
0.0000
  0
VERTEX
  8
16
 10
79.3750
 20
45.4914
 30
0.0000
 42
1.0000
  0
SEQEND
  8
0
  0
POLYLINE
  8
16
 66
1
 10
0.0000
 20
0.0000
 30
0.0000
 40
0.0000
 41
0.0000
 70
1
  0
VERTEX
  8
16
 10
84.0486
 20
43.1800
 30
0.0000
  0
VERTEX
  8
16
 10
84.0486
 20
41.9100
 30
0.0000
 42
1.0000
  0
VERTEX
  8
16
 10
84.8614
 20
41.9100
 30
0.0000
  0
VERTEX
  8
16
 10
84.8614
 20
43.1800
 30
0.0000
 42
1.0000
  0
SEQEND
  8
0
  0
POLYLINE
  8
16
 66
1
 10
0.0000
 20
0.0000
 30
0.0000
 40
0.0000
 41
0.0000
 70
1
  0
VERTEX
  8
16
 10
82.2626
 20
44.7976
 30
0.0000
  0
VERTEX
  8
16
 10
84.1676
 20
42.8926
 30
0.0000
 42
1.0000
  0
VERTEX
  8
16
 10
84.7424
 20
43.4674
 30
0.0000
  0
VERTEX
  8
16
 10
82.8374
 20
45.3724
 30
0.0000
 42
1.0000
  0
SEQEND
  8
0
  0
POLYLINE
  8
16
 66
1
 10
0.0000
 20
0.0000
 30
0.0000
 40
0.0000
 41
0.0000
 70
1
  0
VERTEX
  8
16
 10
76.4286
 20
41.9100
 30
0.0000
  0
VERTEX
  8
16
 10
76.4286
 20
37.4650
 30
0.0000
 42
1.0000
  0
VERTEX
  8
16
 10
77.2414
 20
37.4650
 30
0.0000
  0
VERTEX
  8
16
 10
77.2414
 20
41.9100
 30
0.0000
 42
1.0000
  0
SEQEND
  8
0
  0
POLYLINE
  8
16
 66
1
 10
0.0000
 20
0.0000
 30
0.0000
 40
0.0000
 41
0.0000
 70
1
  0
VERTEX
  8
16
 10
76.5476
 20
37.7524
 30
0.0000
  0
VERTEX
  8
16
 10
73.3726
 20
34.5774
 30
0.0000
 42
1.0000
  0
VERTEX
  8
16
 10
73.9474
 20
34.0026
 30
0.0000
  0
VERTEX
  8
16
 10
77.1224
 20
37.1776
 30
0.0000
 42
1.0000
  0
SEQEND
  8
0
  0
POLYLINE
  8
16
 66
1
 10
0.0000
 20
0.0000
 30
0.0000
 40
0.0000
 41
0.0000
 70
1
  0
VERTEX
  8
16
 10
73.6600
 20
34.6964
 30
0.0000
  0
VERTEX
  8
16
 10
55.2450
 20
34.6964
 30
0.0000
 42
1.0000
  0
VERTEX
  8
16
 10
55.2450
 20
33.8836
 30
0.0000
  0
VERTEX
  8
16
 10
73.6600
 20
33.8836
 30
0.0000
 42
1.0000
  0
SEQEND
  8
0
  0
POLYLINE
  8
16
 66
1
 10
0.0000
 20
0.0000
 30
0.0000
 40
0.0000
 41
0.0000
 70
1
  0
VERTEX
  8
16
 10
78.9686
 20
48.2600
 30
0.0000
  0
VERTEX
  8
16
 10
78.9686
 20
45.0850
 30
0.0000
 42
1.0000
  0
VERTEX
  8
16
 10
79.7814
 20
45.0850
 30
0.0000
  0
VERTEX
  8
16
 10
79.7814
 20
48.2600
 30
0.0000
 42
1.0000
  0
SEQEND
  8
0
  0
POLYLINE
  8
16
 66
1
 10
0.0000
 20
0.0000
 30
0.0000
 40
0.0000
 41
0.0000
 70
1
  0
VERTEX
  8
16
 10
80.8736
 20
24.1300
 30
0.0000
  0
VERTEX
  8
16
 10
80.8736
 20
21.5900
 30
0.0000
 42
1.0000
  0
VERTEX
  8
16
 10
81.6864
 20
21.5900
 30
0.0000
  0
VERTEX
  8
16
 10
81.6864
 20
24.1300
 30
0.0000
 42
1.0000
  0
SEQEND
  8
0
  0
POLYLINE
  8
16
 66
1
 10
0.0000
 20
0.0000
 30
0.0000
 40
0.0000
 41
0.0000
 70
1
  0
VERTEX
  8
16
 10
80.8736
 20
21.5900
 30
0.0000
  0
VERTEX
  8
16
 10
80.8736
 20
14.2800
 30
0.0000
 42
1.0000
  0
VERTEX
  8
16
 10
81.6864
 20
14.2800
 30
0.0000
  0
VERTEX
  8
16
 10
81.6864
 20
21.5900
 30
0.0000
 42
1.0000
  0
SEQEND
  8
0
  0
POLYLINE
  8
16
 66
1
 10
0.0000
 20
0.0000
 30
0.0000
 40
0.0000
 41
0.0000
 70
1
  0
VERTEX
  8
16
 10
80.9926
 20
14.5674
 30
0.0000
  0
VERTEX
  8
16
 10
74.9676
 20
8.5424
 30
0.0000
 42
1.0000
  0
VERTEX
  8
16
 10
75.5424
 20
7.9676
 30
0.0000
  0
VERTEX
  8
16
 10
81.5674
 20
13.9926
 30
0.0000
 42
1.0000
  0
SEQEND
  8
0
  0
POLYLINE
  8
16
 66
1
 10
0.0000
 20
0.0000
 30
0.0000
 40
0.0000
 41
0.0000
 70
1
  0
VERTEX
  8
16
 10
83.4136
 20
24.1300
 30
0.0000
  0
VERTEX
  8
16
 10
83.4136
 20
21.5900
 30
0.0000
 42
1.0000
  0
VERTEX
  8
16
 10
84.2264
 20
21.5900
 30
0.0000
  0
VERTEX
  8
16
 10
84.2264
 20
24.1300
 30
0.0000
 42
1.0000
  0
SEQEND
  8
0
  0
POLYLINE
  8
16
 66
1
 10
0.0000
 20
0.0000
 30
0.0000
 40
0.0000
 41
0.0000
 70
1
  0
VERTEX
  8
16
 10
83.4136
 20
21.5900
 30
0.0000
  0
VERTEX
  8
16
 10
83.4136
 20
9.2000
 30
0.0000
 42
1.0000
  0
VERTEX
  8
16
 10
84.2264
 20
9.2000
 30
0.0000
  0
VERTEX
  8
16
 10
84.2264
 20
21.5900
 30
0.0000
 42
1.0000
  0
SEQEND
  8
0
  0
POLYLINE
  8
16
 66
1
 10
0.0000
 20
0.0000
 30
0.0000
 40
0.0000
 41
0.0000
 70
1
  0
VERTEX
  8
16
 10
83.5326
 20
9.4874
 30
0.0000
  0
VERTEX
  8
16
 10
82.5876
 20
8.5424
 30
0.0000
 42
1.0000
  0
VERTEX
  8
16
 10
83.1624
 20
7.9676
 30
0.0000
  0
VERTEX
  8
16
 10
84.1074
 20
8.9126
 30
0.0000
 42
1.0000
  0
SEQEND
  8
0
  0
POLYLINE
  8
16
 66
1
 10
0.0000
 20
0.0000
 30
0.0000
 40
0.0000
 41
0.0000
 70
1
  0
VERTEX
  8
16
 10
85.9536
 20
24.1300
 30
0.0000
  0
VERTEX
  8
16
 10
85.9536
 20
21.5900
 30
0.0000
 42
1.0000
  0
VERTEX
  8
16
 10
86.7664
 20
21.5900
 30
0.0000
  0
VERTEX
  8
16
 10
86.7664
 20
24.1300
 30
0.0000
 42
1.0000
  0
SEQEND
  8
0
  0
POLYLINE
  8
16
 66
1
 10
0.0000
 20
0.0000
 30
0.0000
 40
0.0000
 41
0.0000
 70
1
  0
VERTEX
  8
16
 10
85.9536
 20
21.5900
 30
0.0000
  0
VERTEX
  8
16
 10
85.9536
 20
12.3900
 30
0.0000
 42
1.0000
  0
VERTEX
  8
16
 10
86.7664
 20
12.3900
 30
0.0000
  0
VERTEX
  8
16
 10
86.7664
 20
21.5900
 30
0.0000
 42
1.0000
  0
SEQEND
  8
0
  0
POLYLINE
  8
16
 66
1
 10
0.0000
 20
0.0000
 30
0.0000
 40
0.0000
 41
0.0000
 70
1
  0
VERTEX
  8
16
 10
86.0726
 20
12.1026
 30
0.0000
  0
VERTEX
  8
16
 10
90.2076
 20
7.9676
 30
0.0000
 42
1.0000
  0
VERTEX
  8
16
 10
90.7824
 20
8.5424
 30
0.0000
  0
VERTEX
  8
16
 10
86.6474
 20
12.6774
 30
0.0000
 42
1.0000
  0
SEQEND
  8
0
  0
POLYLINE
  8
16
 66
1
 10
0.0000
 20
0.0000
 30
0.0000
 40
0.0000
 41
0.0000
 70
1
  0
VERTEX
  8
16
 10
88.4936
 20
24.1300
 30
0.0000
  0
VERTEX
  8
16
 10
88.4936
 20
21.5900
 30
0.0000
 42
1.0000
  0
VERTEX
  8
16
 10
89.3064
 20
21.5900
 30
0.0000
  0
VERTEX
  8
16
 10
89.3064
 20
24.1300
 30
0.0000
 42
1.0000
  0
SEQEND
  8
0
  0
POLYLINE
  8
16
 66
1
 10
0.0000
 20
0.0000
 30
0.0000
 40
0.0000
 41
0.0000
 70
1
  0
VERTEX
  8
16
 10
88.4936
 20
21.5900
 30
0.0000
  0
VERTEX
  8
16
 10
88.4936
 20
17.4700
 30
0.0000
 42
1.0000
  0
VERTEX
  8
16
 10
89.3064
 20
17.4700
 30
0.0000
  0
VERTEX
  8
16
 10
89.3064
 20
21.5900
 30
0.0000
 42
1.0000
  0
SEQEND
  8
0
  0
POLYLINE
  8
16
 66
1
 10
0.0000
 20
0.0000
 30
0.0000
 40
0.0000
 41
0.0000
 70
1
  0
VERTEX
  8
16
 10
88.6126
 20
17.1826
 30
0.0000
  0
VERTEX
  8
16
 10
97.8276
 20
7.9676
 30
0.0000
 42
1.0000
  0
VERTEX
  8
16
 10
98.4024
 20
8.5424
 30
0.0000
  0
VERTEX
  8
16
 10
89.1874
 20
17.7574
 30
0.0000
 42
1.0000
  0
SEQEND
  8
0
  0
POLYLINE
  8
16
 66
1
 10
0.0000
 20
0.0000
 30
0.0000
 40
0.0000
 41
0.0000
 70
1
  0
VERTEX
  8
16
 10
56.2864
 20
20.3200
 30
0.0000
  0
VERTEX
  8
16
 10
56.2864
 20
21.5900
 30
0.0000
 42
1.0000
  0
VERTEX
  8
16
 10
55.4736
 20
21.5900
 30
0.0000
  0
VERTEX
  8
16
 10
55.4736
 20
20.3200
 30
0.0000
 42
1.0000
  0
SEQEND
  8
0
  0
POLYLINE
  8
16
 66
1
 10
0.0000
 20
0.0000
 30
0.0000
 40
0.0000
 41
0.0000
 70
1
  0
VERTEX
  8
16
 10
55.5926
 20
20.6074
 30
0.0000
  0
VERTEX
  8
16
 10
53.0526
 20
18.0674
 30
0.0000
 42
1.0000
  0
VERTEX
  8
16
 10
53.6274
 20
17.4926
 30
0.0000
  0
VERTEX
  8
16
 10
56.1674
 20
20.0326
 30
0.0000
 42
1.0000
  0
SEQEND
  8
0
  0
POLYLINE
  8
16
 66
1
 10
0.0000
 20
0.0000
 30
0.0000
 40
0.0000
 41
0.0000
 70
1
  0
VERTEX
  8
16
 10
53.3400
 20
18.1864
 30
0.0000
  0
VERTEX
  8
16
 10
15.8750
 20
18.1864
 30
0.0000
 42
1.0000
  0
VERTEX
  8
16
 10
15.8750
 20
17.3736
 30
0.0000
  0
VERTEX
  8
16
 10
53.3400
 20
17.3736
 30
0.0000
 42
1.0000
  0
SEQEND
  8
0
  0
POLYLINE
  8
16
 66
1
 10
0.0000
 20
0.0000
 30
0.0000
 40
0.0000
 41
0.0000
 70
1
  0
VERTEX
  8
16
 10
15.5876
 20
18.0674
 30
0.0000
  0
VERTEX
  8
16
 10
6.0626
 20
8.5424
 30
0.0000
 42
1.0000
  0
VERTEX
  8
16
 10
6.6374
 20
7.9676
 30
0.0000
  0
VERTEX
  8
16
 10
16.1624
 20
17.4926
 30
0.0000
 42
1.0000
  0
SEQEND
  8
0
  0
POLYLINE
  8
16
 66
1
 10
0.0000
 20
0.0000
 30
0.0000
 40
0.0000
 41
0.0000
 70
1
  0
VERTEX
  8
16
 10
6.7564
 20
8.2550
 30
0.0000
  0
VERTEX
  8
16
 10
6.7564
 20
8.5650
 30
0.0000
 42
1.0000
  0
VERTEX
  8
16
 10
5.9436
 20
8.5650
 30
0.0000
  0
VERTEX
  8
16
 10
5.9436
 20
8.2550
 30
0.0000
 42
1.0000
  0
SEQEND
  8
0
  0
POLYLINE
  8
16
 66
1
 10
0.0000
 20
0.0000
 30
0.0000
 40
0.0000
 41
0.0000
 70
1
  0
VERTEX
  8
16
 10
6.0695
 20
8.2709
 30
0.0000
  0
VERTEX
  8
16
 10
6.3945
 20
7.9609
 30
0.0000
 42
1.0000
  0
VERTEX
  8
16
 10
6.9555
 20
8.5491
 30
0.0000
  0
VERTEX
  8
16
 10
6.6305
 20
8.8591
 30
0.0000
 42
1.0000
  0
SEQEND
  8
0
  0
POLYLINE
  8
16
 66
1
 10
0.0000
 20
0.0000
 30
0.0000
 40
0.0000
 41
0.0000
 70
1
  0
VERTEX
  8
16
 10
56.2864
 20
21.5900
 30
0.0000
  0
VERTEX
  8
16
 10
56.2864
 20
24.1300
 30
0.0000
 42
1.0000
  0
VERTEX
  8
16
 10
55.4736
 20
24.1300
 30
0.0000
  0
VERTEX
  8
16
 10
55.4736
 20
21.5900
 30
0.0000
 42
1.0000
  0
SEQEND
  8
0
  0
POLYLINE
  8
16
 66
1
 10
0.0000
 20
0.0000
 30
0.0000
 40
0.0000
 41
0.0000
 70
1
  0
VERTEX
  8
16
 10
31.0896
 20
69.8500
 30
0.0000
  0
VERTEX
  8
16
 10
31.0896
 20
63.7540
 30
0.0000
 42
1.0000
  0
VERTEX
  8
16
 10
31.9024
 20
63.7540
 30
0.0000
  0
VERTEX
  8
16
 10
31.9024
 20
69.8500
 30
0.0000
 42
1.0000
  0
SEQEND
  8
0
  0
POLYLINE
  8
16
 66
1
 10
0.0000
 20
0.0000
 30
0.0000
 40
0.0000
 41
0.0000
 70
1
  0
VERTEX
  8
16
 10
31.2086
 20
63.4666
 30
0.0000
  0
VERTEX
  8
16
 10
31.4626
 20
63.2126
 30
0.0000
 42
1.0000
  0
VERTEX
  8
16
 10
32.0374
 20
63.7874
 30
0.0000
  0
VERTEX
  8
16
 10
31.7834
 20
64.0414
 30
0.0000
 42
1.0000
  0
SEQEND
  8
0
  0
POLYLINE
  8
16
 66
1
 10
0.0000
 20
0.0000
 30
0.0000
 40
0.0000
 41
0.0000
 70
1
  0
VERTEX
  8
16
 10
31.3436
 20
63.5000
 30
0.0000
  0
VERTEX
  8
16
 10
31.3436
 20
61.5950
 30
0.0000
 42
1.0000
  0
VERTEX
  8
16
 10
32.1564
 20
61.5950
 30
0.0000
  0
VERTEX
  8
16
 10
32.1564
 20
63.5000
 30
0.0000
 42
1.0000
  0
SEQEND
  8
0
  0
POLYLINE
  8
16
 66
1
 10
0.0000
 20
0.0000
 30
0.0000
 40
0.0000
 41
0.0000
 70
1
  0
VERTEX
  8
16
 10
31.4626
 20
61.3076
 30
0.0000
  0
VERTEX
  8
16
 10
34.0026
 20
58.7676
 30
0.0000
 42
1.0000
  0
VERTEX
  8
16
 10
34.5774
 20
59.3424
 30
0.0000
  0
VERTEX
  8
16
 10
32.0374
 20
61.8824
 30
0.0000
 42
1.0000
  0
SEQEND
  8
0
  0
POLYLINE
  8
16
 66
1
 10
0.0000
 20
0.0000
 30
0.0000
 40
0.0000
 41
0.0000
 70
1
  0
VERTEX
  8
16
 10
33.8836
 20
59.0550
 30
0.0000
  0
VERTEX
  8
16
 10
33.8836
 20
46.9900
 30
0.0000
 42
1.0000
  0
VERTEX
  8
16
 10
34.6964
 20
46.9900
 30
0.0000
  0
VERTEX
  8
16
 10
34.6964
 20
59.0550
 30
0.0000
 42
1.0000
  0
SEQEND
  8
0
  0
POLYLINE
  8
16
 66
1
 10
0.0000
 20
0.0000
 30
0.0000
 40
0.0000
 41
0.0000
 70
1
  0
VERTEX
  8
16
 10
58.8264
 20
20.3200
 30
0.0000
  0
VERTEX
  8
16
 10
58.8264
 20
21.5900
 30
0.0000
 42
1.0000
  0
VERTEX
  8
16
 10
58.0136
 20
21.5900
 30
0.0000
  0
VERTEX
  8
16
 10
58.0136
 20
20.3200
 30
0.0000
 42
1.0000
  0
SEQEND
  8
0
  0
POLYLINE
  8
16
 66
1
 10
0.0000
 20
0.0000
 30
0.0000
 40
0.0000
 41
0.0000
 70
1
  0
VERTEX
  8
16
 10
58.1326
 20
20.6074
 30
0.0000
  0
VERTEX
  8
16
 10
54.3226
 20
16.7974
 30
0.0000
 42
1.0000
  0
VERTEX
  8
16
 10
54.8974
 20
16.2226
 30
0.0000
  0
VERTEX
  8
16
 10
58.7074
 20
20.0326
 30
0.0000
 42
1.0000
  0
SEQEND
  8
0
  0
POLYLINE
  8
16
 66
1
 10
0.0000
 20
0.0000
 30
0.0000
 40
0.0000
 41
0.0000
 70
1
  0
VERTEX
  8
16
 10
54.6100
 20
16.9164
 30
0.0000
  0
VERTEX
  8
16
 10
22.2250
 20
16.9164
 30
0.0000
 42
1.0000
  0
VERTEX
  8
16
 10
22.2250
 20
16.1036
 30
0.0000
  0
VERTEX
  8
16
 10
54.6100
 20
16.1036
 30
0.0000
 42
1.0000
  0
SEQEND
  8
0
  0
POLYLINE
  8
16
 66
1
 10
0.0000
 20
0.0000
 30
0.0000
 40
0.0000
 41
0.0000
 70
1
  0
VERTEX
  8
16
 10
21.9376
 20
16.7974
 30
0.0000
  0
VERTEX
  8
16
 10
13.6826
 20
8.5424
 30
0.0000
 42
1.0000
  0
VERTEX
  8
16
 10
14.2574
 20
7.9676
 30
0.0000
  0
VERTEX
  8
16
 10
22.5124
 20
16.2226
 30
0.0000
 42
1.0000
  0
SEQEND
  8
0
  0
POLYLINE
  8
16
 66
1
 10
0.0000
 20
0.0000
 30
0.0000
 40
0.0000
 41
0.0000
 70
1
  0
VERTEX
  8
16
 10
14.3764
 20
8.2550
 30
0.0000
  0
VERTEX
  8
16
 10
14.3764
 20
8.5650
 30
0.0000
 42
1.0000
  0
VERTEX
  8
16
 10
13.5636
 20
8.5650
 30
0.0000
  0
VERTEX
  8
16
 10
13.5636
 20
8.2550
 30
0.0000
 42
1.0000
  0
SEQEND
  8
0
  0
POLYLINE
  8
16
 66
1
 10
0.0000
 20
0.0000
 30
0.0000
 40
0.0000
 41
0.0000
 70
1
  0
VERTEX
  8
16
 10
13.6895
 20
8.2709
 30
0.0000
  0
VERTEX
  8
16
 10
14.0145
 20
7.9609
 30
0.0000
 42
1.0000
  0
VERTEX
  8
16
 10
14.5755
 20
8.5491
 30
0.0000
  0
VERTEX
  8
16
 10
14.2505
 20
8.8591
 30
0.0000
 42
1.0000
  0
SEQEND
  8
0
  0
POLYLINE
  8
16
 66
1
 10
0.0000
 20
0.0000
 30
0.0000
 40
0.0000
 41
0.0000
 70
1
  0
VERTEX
  8
16
 10
58.8264
 20
21.5900
 30
0.0000
  0
VERTEX
  8
16
 10
58.8264
 20
24.1300
 30
0.0000
 42
1.0000
  0
VERTEX
  8
16
 10
58.0136
 20
24.1300
 30
0.0000
  0
VERTEX
  8
16
 10
58.0136
 20
21.5900
 30
0.0000
 42
1.0000
  0
SEQEND
  8
0
  0
POLYLINE
  8
16
 66
1
 10
0.0000
 20
0.0000
 30
0.0000
 40
0.0000
 41
0.0000
 70
1
  0
VERTEX
  8
16
 10
61.3664
 20
20.3200
 30
0.0000
  0
VERTEX
  8
16
 10
61.3664
 20
21.5900
 30
0.0000
 42
1.0000
  0
VERTEX
  8
16
 10
60.5536
 20
21.5900
 30
0.0000
  0
VERTEX
  8
16
 10
60.5536
 20
20.3200
 30
0.0000
 42
1.0000
  0
SEQEND
  8
0
  0
POLYLINE
  8
16
 66
1
 10
0.0000
 20
0.0000
 30
0.0000
 40
0.0000
 41
0.0000
 70
1
  0
VERTEX
  8
16
 10
60.6726
 20
20.6074
 30
0.0000
  0
VERTEX
  8
16
 10
55.5926
 20
15.5274
 30
0.0000
 42
1.0000
  0
VERTEX
  8
16
 10
56.1674
 20
14.9526
 30
0.0000
  0
VERTEX
  8
16
 10
61.2474
 20
20.0326
 30
0.0000
 42
1.0000
  0
SEQEND
  8
0
  0
POLYLINE
  8
16
 66
1
 10
0.0000
 20
0.0000
 30
0.0000
 40
0.0000
 41
0.0000
 70
1
  0
VERTEX
  8
16
 10
55.8800
 20
15.6464
 30
0.0000
  0
VERTEX
  8
16
 10
28.5750
 20
15.6464
 30
0.0000
 42
1.0000
  0
VERTEX
  8
16
 10
28.5750
 20
14.8336
 30
0.0000
  0
VERTEX
  8
16
 10
55.8800
 20
14.8336
 30
0.0000
 42
1.0000
  0
SEQEND
  8
0
  0
POLYLINE
  8
16
 66
1
 10
0.0000
 20
0.0000
 30
0.0000
 40
0.0000
 41
0.0000
 70
1
  0
VERTEX
  8
16
 10
28.2876
 20
15.5274
 30
0.0000
  0
VERTEX
  8
16
 10
21.3026
 20
8.5424
 30
0.0000
 42
1.0000
  0
VERTEX
  8
16
 10
21.8774
 20
7.9676
 30
0.0000
  0
VERTEX
  8
16
 10
28.8624
 20
14.9526
 30
0.0000
 42
1.0000
  0
SEQEND
  8
0
  0
POLYLINE
  8
16
 66
1
 10
0.0000
 20
0.0000
 30
0.0000
 40
0.0000
 41
0.0000
 70
1
  0
VERTEX
  8
16
 10
21.9964
 20
8.2550
 30
0.0000
  0
VERTEX
  8
16
 10
21.9964
 20
8.5650
 30
0.0000
 42
1.0000
  0
VERTEX
  8
16
 10
21.1836
 20
8.5650
 30
0.0000
  0
VERTEX
  8
16
 10
21.1836
 20
8.2550
 30
0.0000
 42
1.0000
  0
SEQEND
  8
0
  0
POLYLINE
  8
16
 66
1
 10
0.0000
 20
0.0000
 30
0.0000
 40
0.0000
 41
0.0000
 70
1
  0
VERTEX
  8
16
 10
21.3095
 20
8.2709
 30
0.0000
  0
VERTEX
  8
16
 10
21.6345
 20
7.9609
 30
0.0000
 42
1.0000
  0
VERTEX
  8
16
 10
22.1955
 20
8.5491
 30
0.0000
  0
VERTEX
  8
16
 10
21.8705
 20
8.8591
 30
0.0000
 42
1.0000
  0
SEQEND
  8
0
  0
POLYLINE
  8
16
 66
1
 10
0.0000
 20
0.0000
 30
0.0000
 40
0.0000
 41
0.0000
 70
1
  0
VERTEX
  8
16
 10
61.3664
 20
21.5900
 30
0.0000
  0
VERTEX
  8
16
 10
61.3664
 20
24.1300
 30
0.0000
 42
1.0000
  0
VERTEX
  8
16
 10
60.5536
 20
24.1300
 30
0.0000
  0
VERTEX
  8
16
 10
60.5536
 20
21.5900
 30
0.0000
 42
1.0000
  0
SEQEND
  8
0
  0
POLYLINE
  8
16
 66
1
 10
0.0000
 20
0.0000
 30
0.0000
 40
0.0000
 41
0.0000
 70
1
  0
VERTEX
  8
16
 10
63.9064
 20
20.3200
 30
0.0000
  0
VERTEX
  8
16
 10
63.9064
 20
21.5900
 30
0.0000
 42
1.0000
  0
VERTEX
  8
16
 10
63.0936
 20
21.5900
 30
0.0000
  0
VERTEX
  8
16
 10
63.0936
 20
20.3200
 30
0.0000
 42
1.0000
  0
SEQEND
  8
0
  0
POLYLINE
  8
16
 66
1
 10
0.0000
 20
0.0000
 30
0.0000
 40
0.0000
 41
0.0000
 70
1
  0
VERTEX
  8
16
 10
63.2126
 20
20.6074
 30
0.0000
  0
VERTEX
  8
16
 10
56.8626
 20
14.2574
 30
0.0000
 42
1.0000
  0
VERTEX
  8
16
 10
57.4374
 20
13.6826
 30
0.0000
  0
VERTEX
  8
16
 10
63.7874
 20
20.0326
 30
0.0000
 42
1.0000
  0
SEQEND
  8
0
  0
POLYLINE
  8
16
 66
1
 10
0.0000
 20
0.0000
 30
0.0000
 40
0.0000
 41
0.0000
 70
1
  0
VERTEX
  8
16
 10
57.1500
 20
14.3764
 30
0.0000
  0
VERTEX
  8
16
 10
34.9250
 20
14.3764
 30
0.0000
 42
1.0000
  0
VERTEX
  8
16
 10
34.9250
 20
13.5636
 30
0.0000
  0
VERTEX
  8
16
 10
57.1500
 20
13.5636
 30
0.0000
 42
1.0000
  0
SEQEND
  8
0
  0
POLYLINE
  8
16
 66
1
 10
0.0000
 20
0.0000
 30
0.0000
 40
0.0000
 41
0.0000
 70
1
  0
VERTEX
  8
16
 10
34.6376
 20
14.2574
 30
0.0000
  0
VERTEX
  8
16
 10
28.9226
 20
8.5424
 30
0.0000
 42
1.0000
  0
VERTEX
  8
16
 10
29.4974
 20
7.9676
 30
0.0000
  0
VERTEX
  8
16
 10
35.2124
 20
13.6826
 30
0.0000
 42
1.0000
  0
SEQEND
  8
0
  0
POLYLINE
  8
16
 66
1
 10
0.0000
 20
0.0000
 30
0.0000
 40
0.0000
 41
0.0000
 70
1
  0
VERTEX
  8
16
 10
29.6164
 20
8.2550
 30
0.0000
  0
VERTEX
  8
16
 10
29.6164
 20
8.5650
 30
0.0000
 42
1.0000
  0
VERTEX
  8
16
 10
28.8036
 20
8.5650
 30
0.0000
  0
VERTEX
  8
16
 10
28.8036
 20
8.2550
 30
0.0000
 42
1.0000
  0
SEQEND
  8
0
  0
POLYLINE
  8
16
 66
1
 10
0.0000
 20
0.0000
 30
0.0000
 40
0.0000
 41
0.0000
 70
1
  0
VERTEX
  8
16
 10
28.9295
 20
8.2709
 30
0.0000
  0
VERTEX
  8
16
 10
29.2545
 20
7.9609
 30
0.0000
 42
1.0000
  0
VERTEX
  8
16
 10
29.8155
 20
8.5491
 30
0.0000
  0
VERTEX
  8
16
 10
29.4905
 20
8.8591
 30
0.0000
 42
1.0000
  0
SEQEND
  8
0
  0
POLYLINE
  8
16
 66
1
 10
0.0000
 20
0.0000
 30
0.0000
 40
0.0000
 41
0.0000
 70
1
  0
VERTEX
  8
16
 10
63.9064
 20
21.5900
 30
0.0000
  0
VERTEX
  8
16
 10
63.9064
 20
24.1300
 30
0.0000
 42
1.0000
  0
VERTEX
  8
16
 10
63.0936
 20
24.1300
 30
0.0000
  0
VERTEX
  8
16
 10
63.0936
 20
21.5900
 30
0.0000
 42
1.0000
  0
SEQEND
  8
0
  0
POLYLINE
  8
16
 66
1
 10
0.0000
 20
0.0000
 30
0.0000
 40
0.0000
 41
0.0000
 70
1
  0
VERTEX
  8
16
 10
65.6336
 20
21.5900
 30
0.0000
  0
VERTEX
  8
16
 10
65.6336
 20
20.3200
 30
0.0000
 42
1.0000
  0
VERTEX
  8
16
 10
66.4464
 20
20.3200
 30
0.0000
  0
VERTEX
  8
16
 10
66.4464
 20
21.5900
 30
0.0000
 42
1.0000
  0
SEQEND
  8
0
  0
POLYLINE
  8
16
 66
1
 10
0.0000
 20
0.0000
 30
0.0000
 40
0.0000
 41
0.0000
 70
1
  0
VERTEX
  8
16
 10
65.7526
 20
20.6074
 30
0.0000
  0
VERTEX
  8
16
 10
58.1326
 20
12.9874
 30
0.0000
 42
1.0000
  0
VERTEX
  8
16
 10
58.7074
 20
12.4126
 30
0.0000
  0
VERTEX
  8
16
 10
66.3274
 20
20.0326
 30
0.0000
 42
1.0000
  0
SEQEND
  8
0
  0
POLYLINE
  8
16
 66
1
 10
0.0000
 20
0.0000
 30
0.0000
 40
0.0000
 41
0.0000
 70
1
  0
VERTEX
  8
16
 10
58.4200
 20
13.1064
 30
0.0000
  0
VERTEX
  8
16
 10
41.2750
 20
13.1064
 30
0.0000
 42
1.0000
  0
VERTEX
  8
16
 10
41.2750
 20
12.2936
 30
0.0000
  0
VERTEX
  8
16
 10
58.4200
 20
12.2936
 30
0.0000
 42
1.0000
  0
SEQEND
  8
0
  0
POLYLINE
  8
16
 66
1
 10
0.0000
 20
0.0000
 30
0.0000
 40
0.0000
 41
0.0000
 70
1
  0
VERTEX
  8
16
 10
40.9876
 20
12.9874
 30
0.0000
  0
VERTEX
  8
16
 10
36.5426
 20
8.5424
 30
0.0000
 42
1.0000
  0
VERTEX
  8
16
 10
37.1174
 20
7.9676
 30
0.0000
  0
VERTEX
  8
16
 10
41.5624
 20
12.4126
 30
0.0000
 42
1.0000
  0
SEQEND
  8
0
  0
POLYLINE
  8
16
 66
1
 10
0.0000
 20
0.0000
 30
0.0000
 40
0.0000
 41
0.0000
 70
1
  0
VERTEX
  8
16
 10
37.2364
 20
8.2550
 30
0.0000
  0
VERTEX
  8
16
 10
37.2364
 20
8.5650
 30
0.0000
 42
1.0000
  0
VERTEX
  8
16
 10
36.4236
 20
8.5650
 30
0.0000
  0
VERTEX
  8
16
 10
36.4236
 20
8.2550
 30
0.0000
 42
1.0000
  0
SEQEND
  8
0
  0
POLYLINE
  8
16
 66
1
 10
0.0000
 20
0.0000
 30
0.0000
 40
0.0000
 41
0.0000
 70
1
  0
VERTEX
  8
16
 10
36.5495
 20
8.2709
 30
0.0000
  0
VERTEX
  8
16
 10
36.8745
 20
7.9609
 30
0.0000
 42
1.0000
  0
VERTEX
  8
16
 10
37.4355
 20
8.5491
 30
0.0000
  0
VERTEX
  8
16
 10
37.1105
 20
8.8591
 30
0.0000
 42
1.0000
  0
SEQEND
  8
0
  0
POLYLINE
  8
16
 66
1
 10
0.0000
 20
0.0000
 30
0.0000
 40
0.0000
 41
0.0000
 70
1
  0
VERTEX
  8
16
 10
66.4464
 20
21.5900
 30
0.0000
  0
VERTEX
  8
16
 10
66.4464
 20
24.1300
 30
0.0000
 42
1.0000
  0
VERTEX
  8
16
 10
65.6336
 20
24.1300
 30
0.0000
  0
VERTEX
  8
16
 10
65.6336
 20
21.5900
 30
0.0000
 42
1.0000
  0
SEQEND
  8
0
  0
POLYLINE
  8
16
 66
1
 10
0.0000
 20
0.0000
 30
0.0000
 40
0.0000
 41
0.0000
 70
1
  0
VERTEX
  8
16
 10
71.5264
 20
20.3200
 30
0.0000
  0
VERTEX
  8
16
 10
71.5264
 20
21.5900
 30
0.0000
 42
1.0000
  0
VERTEX
  8
16
 10
70.7136
 20
21.5900
 30
0.0000
  0
VERTEX
  8
16
 10
70.7136
 20
20.3200
 30
0.0000
 42
1.0000
  0
SEQEND
  8
0
  0
POLYLINE
  8
16
 66
1
 10
0.0000
 20
0.0000
 30
0.0000
 40
0.0000
 41
0.0000
 70
1
  0
VERTEX
  8
16
 10
70.8326
 20
20.6074
 30
0.0000
  0
VERTEX
  8
16
 10
63.2126
 20
12.9874
 30
0.0000
 42
1.0000
  0
VERTEX
  8
16
 10
63.7874
 20
12.4126
 30
0.0000
  0
VERTEX
  8
16
 10
71.4074
 20
20.0326
 30
0.0000
 42
1.0000
  0
SEQEND
  8
0
  0
POLYLINE
  8
16
 66
1
 10
0.0000
 20
0.0000
 30
0.0000
 40
0.0000
 41
0.0000
 70
1
  0
VERTEX
  8
16
 10
63.5000
 20
13.1064
 30
0.0000
  0
VERTEX
  8
16
 10
60.3250
 20
13.1064
 30
0.0000
 42
1.0000
  0
VERTEX
  8
16
 10
60.3250
 20
12.2936
 30
0.0000
  0
VERTEX
  8
16
 10
63.5000
 20
12.2936
 30
0.0000
 42
1.0000
  0
SEQEND
  8
0
  0
POLYLINE
  8
16
 66
1
 10
0.0000
 20
0.0000
 30
0.0000
 40
0.0000
 41
0.0000
 70
1
  0
VERTEX
  8
16
 10
59.0550
 20
11.8364
 30
0.0000
  0
VERTEX
  8
16
 10
47.6250
 20
11.8364
 30
0.0000
 42
1.0000
  0
VERTEX
  8
16
 10
47.6250
 20
11.0236
 30
0.0000
  0
VERTEX
  8
16
 10
59.0550
 20
11.0236
 30
0.0000
 42
1.0000
  0
SEQEND
  8
0
  0
POLYLINE
  8
16
 66
1
 10
0.0000
 20
0.0000
 30
0.0000
 40
0.0000
 41
0.0000
 70
1
  0
VERTEX
  8
16
 10
47.3376
 20
11.7174
 30
0.0000
  0
VERTEX
  8
16
 10
44.1626
 20
8.5424
 30
0.0000
 42
1.0000
  0
VERTEX
  8
16
 10
44.7374
 20
7.9676
 30
0.0000
  0
VERTEX
  8
16
 10
47.9124
 20
11.1426
 30
0.0000
 42
1.0000
  0
SEQEND
  8
0
  0
POLYLINE
  8
16
 66
1
 10
0.0000
 20
0.0000
 30
0.0000
 40
0.0000
 41
0.0000
 70
1
  0
VERTEX
  8
16
 10
44.8564
 20
8.2550
 30
0.0000
  0
VERTEX
  8
16
 10
44.8564
 20
8.5650
 30
0.0000
 42
1.0000
  0
VERTEX
  8
16
 10
44.0436
 20
8.5650
 30
0.0000
  0
VERTEX
  8
16
 10
44.0436
 20
8.2550
 30
0.0000
 42
1.0000
  0
SEQEND
  8
0
  0
POLYLINE
  8
16
 66
1
 10
0.0000
 20
0.0000
 30
0.0000
 40
0.0000
 41
0.0000
 70
1
  0
VERTEX
  8
16
 10
44.1695
 20
8.2709
 30
0.0000
  0
VERTEX
  8
16
 10
44.4945
 20
7.9609
 30
0.0000
 42
1.0000
  0
VERTEX
  8
16
 10
45.0555
 20
8.5491
 30
0.0000
  0
VERTEX
  8
16
 10
44.7305
 20
8.8591
 30
0.0000
 42
1.0000
  0
SEQEND
  8
0
  0
POLYLINE
  8
16
 66
1
 10
0.0000
 20
0.0000
 30
0.0000
 40
0.0000
 41
0.0000
 70
1
  0
VERTEX
  8
16
 10
60.0376
 20
12.9874
 30
0.0000
  0
VERTEX
  8
16
 10
58.7676
 20
11.7174
 30
0.0000
 42
1.0000
  0
VERTEX
  8
16
 10
59.3424
 20
11.1426
 30
0.0000
  0
VERTEX
  8
16
 10
60.6124
 20
12.4126
 30
0.0000
 42
1.0000
  0
SEQEND
  8
0
  0
POLYLINE
  8
16
 66
1
 10
0.0000
 20
0.0000
 30
0.0000
 40
0.0000
 41
0.0000
 70
1
  0
VERTEX
  8
16
 10
71.5264
 20
21.5900
 30
0.0000
  0
VERTEX
  8
16
 10
71.5264
 20
24.1300
 30
0.0000
 42
1.0000
  0
VERTEX
  8
16
 10
70.7136
 20
24.1300
 30
0.0000
  0
VERTEX
  8
16
 10
70.7136
 20
21.5900
 30
0.0000
 42
1.0000
  0
SEQEND
  8
0
  0
POLYLINE
  8
16
 66
1
 10
0.0000
 20
0.0000
 30
0.0000
 40
0.0000
 41
0.0000
 70
1
  0
VERTEX
  8
16
 10
74.0664
 20
19.6850
 30
0.0000
  0
VERTEX
  8
16
 10
74.0664
 20
21.5900
 30
0.0000
 42
1.0000
  0
VERTEX
  8
16
 10
73.2536
 20
21.5900
 30
0.0000
  0
VERTEX
  8
16
 10
73.2536
 20
19.6850
 30
0.0000
 42
1.0000
  0
SEQEND
  8
0
  0
POLYLINE
  8
16
 66
1
 10
0.0000
 20
0.0000
 30
0.0000
 40
0.0000
 41
0.0000
 70
1
  0
VERTEX
  8
16
 10
73.3726
 20
19.9724
 30
0.0000
  0
VERTEX
  8
16
 10
65.1176
 20
11.7174
 30
0.0000
 42
1.0000
  0
VERTEX
  8
16
 10
65.6924
 20
11.1426
 30
0.0000
  0
VERTEX
  8
16
 10
73.9474
 20
19.3976
 30
0.0000
 42
1.0000
  0
SEQEND
  8
0
  0
POLYLINE
  8
16
 66
1
 10
0.0000
 20
0.0000
 30
0.0000
 40
0.0000
 41
0.0000
 70
1
  0
VERTEX
  8
16
 10
65.4050
 20
11.8364
 30
0.0000
  0
VERTEX
  8
16
 10
60.9600
 20
11.8364
 30
0.0000
 42
1.0000
  0
VERTEX
  8
16
 10
60.9600
 20
11.0236
 30
0.0000
  0
VERTEX
  8
16
 10
65.4050
 20
11.0236
 30
0.0000
 42
1.0000
  0
SEQEND
  8
0
  0
POLYLINE
  8
16
 66
1
 10
0.0000
 20
0.0000
 30
0.0000
 40
0.0000
 41
0.0000
 70
1
  0
VERTEX
  8
16
 10
60.6726
 20
11.7174
 30
0.0000
  0
VERTEX
  8
16
 10
59.4026
 20
10.4474
 30
0.0000
 42
1.0000
  0
VERTEX
  8
16
 10
59.9774
 20
9.8726
 30
0.0000
  0
VERTEX
  8
16
 10
61.2474
 20
11.1426
 30
0.0000
 42
1.0000
  0
SEQEND
  8
0
  0
POLYLINE
  8
16
 66
1
 10
0.0000
 20
0.0000
 30
0.0000
 40
0.0000
 41
0.0000
 70
1
  0
VERTEX
  8
16
 10
59.6900
 20
10.5664
 30
0.0000
  0
VERTEX
  8
16
 10
53.9750
 20
10.5664
 30
0.0000
 42
1.0000
  0
VERTEX
  8
16
 10
53.9750
 20
9.7536
 30
0.0000
  0
VERTEX
  8
16
 10
59.6900
 20
9.7536
 30
0.0000
 42
1.0000
  0
SEQEND
  8
0
  0
POLYLINE
  8
16
 66
1
 10
0.0000
 20
0.0000
 30
0.0000
 40
0.0000
 41
0.0000
 70
1
  0
VERTEX
  8
16
 10
53.6876
 20
10.4474
 30
0.0000
  0
VERTEX
  8
16
 10
51.7826
 20
8.5424
 30
0.0000
 42
1.0000
  0
VERTEX
  8
16
 10
52.3574
 20
7.9676
 30
0.0000
  0
VERTEX
  8
16
 10
54.2624
 20
9.8726
 30
0.0000
 42
1.0000
  0
SEQEND
  8
0
  0
POLYLINE
  8
16
 66
1
 10
0.0000
 20
0.0000
 30
0.0000
 40
0.0000
 41
0.0000
 70
1
  0
VERTEX
  8
16
 10
52.4764
 20
8.2550
 30
0.0000
  0
VERTEX
  8
16
 10
52.4764
 20
8.5650
 30
0.0000
 42
1.0000
  0
VERTEX
  8
16
 10
51.6636
 20
8.5650
 30
0.0000
  0
VERTEX
  8
16
 10
51.6636
 20
8.2550
 30
0.0000
 42
1.0000
  0
SEQEND
  8
0
  0
POLYLINE
  8
16
 66
1
 10
0.0000
 20
0.0000
 30
0.0000
 40
0.0000
 41
0.0000
 70
1
  0
VERTEX
  8
16
 10
51.7895
 20
8.2709
 30
0.0000
  0
VERTEX
  8
16
 10
52.1145
 20
7.9609
 30
0.0000
 42
1.0000
  0
VERTEX
  8
16
 10
52.6755
 20
8.5491
 30
0.0000
  0
VERTEX
  8
16
 10
52.3505
 20
8.8591
 30
0.0000
 42
1.0000
  0
SEQEND
  8
0
  0
POLYLINE
  8
16
 66
1
 10
0.0000
 20
0.0000
 30
0.0000
 40
0.0000
 41
0.0000
 70
1
  0
VERTEX
  8
16
 10
74.0664
 20
21.5900
 30
0.0000
  0
VERTEX
  8
16
 10
74.0664
 20
24.1300
 30
0.0000
 42
1.0000
  0
VERTEX
  8
16
 10
73.2536
 20
24.1300
 30
0.0000
  0
VERTEX
  8
16
 10
73.2536
 20
21.5900
 30
0.0000
 42
1.0000
  0
SEQEND
  8
0
  0
POLYLINE
  8
16
 66
1
 10
0.0000
 20
0.0000
 30
0.0000
 40
0.0000
 41
0.0000
 70
1
  0
VERTEX
  8
16
 10
76.6064
 20
19.6850
 30
0.0000
  0
VERTEX
  8
16
 10
76.6064
 20
21.5900
 30
0.0000
 42
1.0000
  0
VERTEX
  8
16
 10
75.7936
 20
21.5900
 30
0.0000
  0
VERTEX
  8
16
 10
75.7936
 20
19.6850
 30
0.0000
 42
1.0000
  0
SEQEND
  8
0
  0
POLYLINE
  8
16
 66
1
 10
0.0000
 20
0.0000
 30
0.0000
 40
0.0000
 41
0.0000
 70
1
  0
VERTEX
  8
16
 10
75.9126
 20
19.9724
 30
0.0000
  0
VERTEX
  8
16
 10
66.3876
 20
10.4474
 30
0.0000
 42
1.0000
  0
VERTEX
  8
16
 10
66.9624
 20
9.8726
 30
0.0000
  0
VERTEX
  8
16
 10
76.4874
 20
19.3976
 30
0.0000
 42
1.0000
  0
SEQEND
  8
0
  0
POLYLINE
  8
16
 66
1
 10
0.0000
 20
0.0000
 30
0.0000
 40
0.0000
 41
0.0000
 70
1
  0
VERTEX
  8
16
 10
66.6750
 20
10.5664
 30
0.0000
  0
VERTEX
  8
16
 10
61.5950
 20
10.5664
 30
0.0000
 42
1.0000
  0
VERTEX
  8
16
 10
61.5950
 20
9.7536
 30
0.0000
  0
VERTEX
  8
16
 10
66.6750
 20
9.7536
 30
0.0000
 42
1.0000
  0
SEQEND
  8
0
  0
POLYLINE
  8
16
 66
1
 10
0.0000
 20
0.0000
 30
0.0000
 40
0.0000
 41
0.0000
 70
1
  0
VERTEX
  8
16
 10
60.0964
 20
8.2550
 30
0.0000
  0
VERTEX
  8
16
 10
60.0964
 20
8.5650
 30
0.0000
 42
1.0000
  0
VERTEX
  8
16
 10
59.2836
 20
8.5650
 30
0.0000
  0
VERTEX
  8
16
 10
59.2836
 20
8.2550
 30
0.0000
 42
1.0000
  0
SEQEND
  8
0
  0
POLYLINE
  8
16
 66
1
 10
0.0000
 20
0.0000
 30
0.0000
 40
0.0000
 41
0.0000
 70
1
  0
VERTEX
  8
16
 10
59.4095
 20
8.2709
 30
0.0000
  0
VERTEX
  8
16
 10
59.7345
 20
7.9609
 30
0.0000
 42
1.0000
  0
VERTEX
  8
16
 10
60.2955
 20
8.5491
 30
0.0000
  0
VERTEX
  8
16
 10
59.9705
 20
8.8591
 30
0.0000
 42
1.0000
  0
SEQEND
  8
0
  0
POLYLINE
  8
16
 66
1
 10
0.0000
 20
0.0000
 30
0.0000
 40
0.0000
 41
0.0000
 70
1
  0
VERTEX
  8
16
 10
61.3076
 20
10.4474
 30
0.0000
  0
VERTEX
  8
16
 10
59.4026
 20
8.5424
 30
0.0000
 42
1.0000
  0
VERTEX
  8
16
 10
59.9774
 20
7.9676
 30
0.0000
  0
VERTEX
  8
16
 10
61.8824
 20
9.8726
 30
0.0000
 42
1.0000
  0
SEQEND
  8
0
  0
POLYLINE
  8
16
 66
1
 10
0.0000
 20
0.0000
 30
0.0000
 40
0.0000
 41
0.0000
 70
1
  0
VERTEX
  8
16
 10
76.6064
 20
21.5900
 30
0.0000
  0
VERTEX
  8
16
 10
76.6064
 20
24.1300
 30
0.0000
 42
1.0000
  0
VERTEX
  8
16
 10
75.7936
 20
24.1300
 30
0.0000
  0
VERTEX
  8
16
 10
75.7936
 20
21.5900
 30
0.0000
 42
1.0000
  0
SEQEND
  8
0
  0
POLYLINE
  8
16
 66
1
 10
0.0000
 20
0.0000
 30
0.0000
 40
0.0000
 41
0.0000
 70
1
  0
VERTEX
  8
16
 10
78.3336
 20
24.1300
 30
0.0000
  0
VERTEX
  8
16
 10
78.3336
 20
21.5900
 30
0.0000
 42
1.0000
  0
VERTEX
  8
16
 10
79.1464
 20
21.5900
 30
0.0000
  0
VERTEX
  8
16
 10
79.1464
 20
24.1300
 30
0.0000
 42
1.0000
  0
SEQEND
  8
0
  0
POLYLINE
  8
16
 66
1
 10
0.0000
 20
0.0000
 30
0.0000
 40
0.0000
 41
0.0000
 70
1
  0
VERTEX
  8
16
 10
78.3336
 20
21.5900
 30
0.0000
  0
VERTEX
  8
16
 10
78.3336
 20
19.3600
 30
0.0000
 42
1.0000
  0
VERTEX
  8
16
 10
79.1464
 20
19.3600
 30
0.0000
  0
VERTEX
  8
16
 10
79.1464
 20
21.5900
 30
0.0000
 42
1.0000
  0
SEQEND
  8
0
  0
POLYLINE
  8
16
 66
1
 10
0.0000
 20
0.0000
 30
0.0000
 40
0.0000
 41
0.0000
 70
1
  0
VERTEX
  8
16
 10
78.4526
 20
19.6474
 30
0.0000
  0
VERTEX
  8
16
 10
67.3476
 20
8.5424
 30
0.0000
 42
1.0000
  0
VERTEX
  8
16
 10
67.9224
 20
7.9676
 30
0.0000
  0
VERTEX
  8
16
 10
79.0274
 20
19.0726
 30
0.0000
 42
1.0000
  0
SEQEND
  8
0
  0
POLYLINE
  8
16
 66
1
 10
0.0000
 20
0.0000
 30
0.0000
 40
0.0000
 41
0.0000
 70
1
  0
VERTEX
  8
16
 10
28.5496
 20
69.8500
 30
0.0000
  0
VERTEX
  8
16
 10
28.5496
 20
66.2940
 30
0.0000
 42
1.0000
  0
VERTEX
  8
16
 10
29.3624
 20
66.2940
 30
0.0000
  0
VERTEX
  8
16
 10
29.3624
 20
69.8500
 30
0.0000
 42
1.0000
  0
SEQEND
  8
0
  0
POLYLINE
  8
16
 66
1
 10
0.0000
 20
0.0000
 30
0.0000
 40
0.0000
 41
0.0000
 70
1
  0
VERTEX
  8
16
 10
28.6686
 20
66.0066
 30
0.0000
  0
VERTEX
  8
16
 10
28.9226
 20
65.7526
 30
0.0000
 42
1.0000
  0
VERTEX
  8
16
 10
29.4974
 20
66.3274
 30
0.0000
  0
VERTEX
  8
16
 10
29.2434
 20
66.5814
 30
0.0000
 42
1.0000
  0
SEQEND
  8
0
  0
POLYLINE
  8
16
 66
1
 10
0.0000
 20
0.0000
 30
0.0000
 40
0.0000
 41
0.0000
 70
1
  0
VERTEX
  8
16
 10
28.8036
 20
66.0400
 30
0.0000
  0
VERTEX
  8
16
 10
28.8036
 20
46.9900
 30
0.0000
 42
1.0000
  0
VERTEX
  8
16
 10
29.6164
 20
46.9900
 30
0.0000
  0
VERTEX
  8
16
 10
29.6164
 20
66.0400
 30
0.0000
 42
1.0000
  0
SEQEND
  8
0
  0
POLYLINE
  8
16
 66
1
 10
0.0000
 20
0.0000
 30
0.0000
 40
0.0000
 41
0.0000
 70
1
  0
VERTEX
  8
16
 10
83.5326
 20
64.4224
 30
0.0000
  0
VERTEX
  8
16
 10
76.5476
 20
57.4374
 30
0.0000
 42
1.0000
  0
VERTEX
  8
16
 10
77.1224
 20
56.8626
 30
0.0000
  0
VERTEX
  8
16
 10
84.1074
 20
63.8476
 30
0.0000
 42
1.0000
  0
SEQEND
  8
0
  0
POLYLINE
  8
16
 66
1
 10
0.0000
 20
0.0000
 30
0.0000
 40
0.0000
 41
0.0000
 70
1
  0
VERTEX
  8
16
 10
84.2264
 20
64.1350
 30
0.0000
  0
VERTEX
  8
16
 10
84.2264
 20
69.8500
 30
0.0000
 42
1.0000
  0
VERTEX
  8
16
 10
83.4136
 20
69.8500
 30
0.0000
  0
VERTEX
  8
16
 10
83.4136
 20
64.1350
 30
0.0000
 42
1.0000
  0
SEQEND
  8
0
  0
POLYLINE
  8
16
 66
1
 10
0.0000
 20
0.0000
 30
0.0000
 40
0.0000
 41
0.0000
 70
1
  0
VERTEX
  8
16
 10
76.4286
 20
48.2600
 30
0.0000
  0
VERTEX
  8
16
 10
76.4286
 20
46.3550
 30
0.0000
 42
1.0000
  0
VERTEX
  8
16
 10
77.2414
 20
46.3550
 30
0.0000
  0
VERTEX
  8
16
 10
77.2414
 20
48.2600
 30
0.0000
 42
1.0000
  0
SEQEND
  8
0
  0
POLYLINE
  8
16
 66
1
 10
0.0000
 20
0.0000
 30
0.0000
 40
0.0000
 41
0.0000
 70
1
  0
VERTEX
  8
16
 10
76.5476
 20
46.6424
 30
0.0000
  0
VERTEX
  8
16
 10
75.2776
 20
45.3724
 30
0.0000
 42
1.0000
  0
VERTEX
  8
16
 10
75.8524
 20
44.7976
 30
0.0000
  0
VERTEX
  8
16
 10
77.1224
 20
46.0676
 30
0.0000
 42
1.0000
  0
SEQEND
  8
0
  0
POLYLINE
  8
16
 66
1
 10
0.0000
 20
0.0000
 30
0.0000
 40
0.0000
 41
0.0000
 70
1
  0
VERTEX
  8
16
 10
75.5650
 20
45.4914
 30
0.0000
  0
VERTEX
  8
16
 10
72.3900
 20
45.4914
 30
0.0000
 42
1.0000
  0
VERTEX
  8
16
 10
72.3900
 20
44.6786
 30
0.0000
  0
VERTEX
  8
16
 10
75.5650
 20
44.6786
 30
0.0000
 42
1.0000
  0
SEQEND
  8
0
  0
POLYLINE
  8
16
 66
1
 10
0.0000
 20
0.0000
 30
0.0000
 40
0.0000
 41
0.0000
 70
1
  0
VERTEX
  8
16
 10
72.1026
 20
45.3724
 30
0.0000
  0
VERTEX
  8
16
 10
71.4676
 20
44.7374
 30
0.0000
 42
1.0000
  0
VERTEX
  8
16
 10
72.0424
 20
44.1626
 30
0.0000
  0
VERTEX
  8
16
 10
72.6774
 20
44.7976
 30
0.0000
 42
1.0000
  0
SEQEND
  8
0
  0
POLYLINE
  8
16
 66
1
 10
0.0000
 20
0.0000
 30
0.0000
 40
0.0000
 41
0.0000
 70
1
  0
VERTEX
  8
16
 10
71.3486
 20
44.4500
 30
0.0000
  0
VERTEX
  8
16
 10
71.3486
 20
41.9100
 30
0.0000
 42
1.0000
  0
VERTEX
  8
16
 10
72.1614
 20
41.9100
 30
0.0000
  0
VERTEX
  8
16
 10
72.1614
 20
44.4500
 30
0.0000
 42
1.0000
  0
SEQEND
  8
0
  0
POLYLINE
  8
16
 66
1
 10
0.0000
 20
0.0000
 30
0.0000
 40
0.0000
 41
0.0000
 70
1
  0
VERTEX
  8
16
 10
76.4286
 20
57.1500
 30
0.0000
  0
VERTEX
  8
16
 10
76.4286
 20
54.6100
 30
0.0000
 42
1.0000
  0
VERTEX
  8
16
 10
77.2414
 20
54.6100
 30
0.0000
  0
VERTEX
  8
16
 10
77.2414
 20
57.1500
 30
0.0000
 42
1.0000
  0
SEQEND
  8
0
  0
POLYLINE
  8
16
 66
1
 10
0.0000
 20
0.0000
 30
0.0000
 40
0.0000
 41
0.0000
 70
1
  0
VERTEX
  8
16
 10
76.4286
 20
54.6100
 30
0.0000
  0
VERTEX
  8
16
 10
76.4286
 20
48.2600
 30
0.0000
 42
1.0000
  0
VERTEX
  8
16
 10
77.2414
 20
48.2600
 30
0.0000
  0
VERTEX
  8
16
 10
77.2414
 20
54.6100
 30
0.0000
 42
1.0000
  0
SEQEND
  8
0
  0
POLYLINE
  8
16
 66
1
 10
0.0000
 20
0.0000
 30
0.0000
 40
0.0000
 41
0.0000
 70
1
  0
VERTEX
  8
16
 10
80.8736
 20
69.8500
 30
0.0000
  0
VERTEX
  8
16
 10
80.8736
 20
64.7700
 30
0.0000
 42
1.0000
  0
VERTEX
  8
16
 10
81.6864
 20
64.7700
 30
0.0000
  0
VERTEX
  8
16
 10
81.6864
 20
69.8500
 30
0.0000
 42
1.0000
  0
SEQEND
  8
0
  0
POLYLINE
  8
16
 66
1
 10
0.0000
 20
0.0000
 30
0.0000
 40
0.0000
 41
0.0000
 70
1
  0
VERTEX
  8
16
 10
80.9926
 20
65.0574
 30
0.0000
  0
VERTEX
  8
16
 10
74.0076
 20
58.0724
 30
0.0000
 42
1.0000
  0
VERTEX
  8
16
 10
74.5824
 20
57.4976
 30
0.0000
  0
VERTEX
  8
16
 10
81.5674
 20
64.4826
 30
0.0000
 42
1.0000
  0
SEQEND
  8
0
  0
POLYLINE
  8
16
 66
1
 10
0.0000
 20
0.0000
 30
0.0000
 40
0.0000
 41
0.0000
 70
1
  0
VERTEX
  8
16
 10
73.8886
 20
57.7850
 30
0.0000
  0
VERTEX
  8
16
 10
73.8886
 20
52.0700
 30
0.0000
 42
1.0000
  0
VERTEX
  8
16
 10
74.7014
 20
52.0700
 30
0.0000
  0
VERTEX
  8
16
 10
74.7014
 20
57.7850
 30
0.0000
 42
1.0000
  0
SEQEND
  8
0
  0
POLYLINE
  8
16
 66
1
 10
0.0000
 20
0.0000
 30
0.0000
 40
0.0000
 41
0.0000
 70
1
  0
VERTEX
  8
16
 10
73.8886
 20
52.0700
 30
0.0000
  0
VERTEX
  8
16
 10
73.8886
 20
48.2600
 30
0.0000
 42
1.0000
  0
VERTEX
  8
16
 10
74.7014
 20
48.2600
 30
0.0000
  0
VERTEX
  8
16
 10
74.7014
 20
52.0700
 30
0.0000
 42
1.0000
  0
SEQEND
  8
0
  0
POLYLINE
  8
16
 66
1
 10
0.0000
 20
0.0000
 30
0.0000
 40
0.0000
 41
0.0000
 70
1
  0
VERTEX
  8
16
 10
74.2950
 20
48.6664
 30
0.0000
  0
VERTEX
  8
16
 10
73.0250
 20
48.6664
 30
0.0000
 42
1.0000
  0
VERTEX
  8
16
 10
73.0250
 20
47.8536
 30
0.0000
  0
VERTEX
  8
16
 10
74.2950
 20
47.8536
 30
0.0000
 42
1.0000
  0
SEQEND
  8
0
  0
POLYLINE
  8
16
 66
1
 10
0.0000
 20
0.0000
 30
0.0000
 40
0.0000
 41
0.0000
 70
1
  0
VERTEX
  8
16
 10
72.7376
 20
48.5474
 30
0.0000
  0
VERTEX
  8
16
 10
69.5626
 20
45.3724
 30
0.0000
 42
1.0000
  0
VERTEX
  8
16
 10
70.1374
 20
44.7976
 30
0.0000
  0
VERTEX
  8
16
 10
73.3124
 20
47.9726
 30
0.0000
 42
1.0000
  0
SEQEND
  8
0
  0
POLYLINE
  8
16
 66
1
 10
0.0000
 20
0.0000
 30
0.0000
 40
0.0000
 41
0.0000
 70
1
  0
VERTEX
  8
16
 10
69.4436
 20
45.0850
 30
0.0000
  0
VERTEX
  8
16
 10
69.4436
 20
39.3700
 30
0.0000
 42
1.0000
  0
VERTEX
  8
16
 10
70.2564
 20
39.3700
 30
0.0000
  0
VERTEX
  8
16
 10
70.2564
 20
45.0850
 30
0.0000
 42
1.0000
  0
SEQEND
  8
0
  0
POLYLINE
  8
16
 66
1
 10
0.0000
 20
0.0000
 30
0.0000
 40
0.0000
 41
0.0000
 70
1
  0
VERTEX
  8
16
 10
69.5626
 20
39.0826
 30
0.0000
  0
VERTEX
  8
16
 10
70.1976
 20
38.4476
 30
0.0000
 42
1.0000
  0
VERTEX
  8
16
 10
70.7724
 20
39.0224
 30
0.0000
  0
VERTEX
  8
16
 10
70.1374
 20
39.6574
 30
0.0000
 42
1.0000
  0
SEQEND
  8
0
  0
POLYLINE
  8
16
 66
1
 10
0.0000
 20
0.0000
 30
0.0000
 40
0.0000
 41
0.0000
 70
1
  0
VERTEX
  8
16
 10
70.4850
 20
38.3286
 30
0.0000
  0
VERTEX
  8
16
 10
73.6600
 20
38.3286
 30
0.0000
 42
1.0000
  0
VERTEX
  8
16
 10
73.6600
 20
39.1414
 30
0.0000
  0
VERTEX
  8
16
 10
70.4850
 20
39.1414
 30
0.0000
 42
1.0000
  0
SEQEND
  8
0
  0
POLYLINE
  8
16
 66
1
 10
0.0000
 20
0.0000
 30
0.0000
 40
0.0000
 41
0.0000
 70
1
  0
VERTEX
  8
16
 10
73.9474
 20
38.4476
 30
0.0000
  0
VERTEX
  8
16
 10
74.5824
 20
39.0826
 30
0.0000
 42
1.0000
  0
VERTEX
  8
16
 10
74.0076
 20
39.6574
 30
0.0000
  0
VERTEX
  8
16
 10
73.3726
 20
39.0224
 30
0.0000
 42
1.0000
  0
SEQEND
  8
0
  0
POLYLINE
  8
16
 66
1
 10
0.0000
 20
0.0000
 30
0.0000
 40
0.0000
 41
0.0000
 70
1
  0
VERTEX
  8
16
 10
74.7014
 20
39.3700
 30
0.0000
  0
VERTEX
  8
16
 10
74.7014
 20
41.9100
 30
0.0000
 42
1.0000
  0
VERTEX
  8
16
 10
73.8886
 20
41.9100
 30
0.0000
  0
VERTEX
  8
16
 10
73.8886
 20
39.3700
 30
0.0000
 42
1.0000
  0
SEQEND
  8
0
  0
POLYLINE
  8
16
 66
1
 10
0.0000
 20
0.0000
 30
0.0000
 40
0.0000
 41
0.0000
 70
1
  0
VERTEX
  8
16
 10
38.7096
 20
69.8500
 30
0.0000
  0
VERTEX
  8
16
 10
38.7096
 20
68.8340
 30
0.0000
 42
1.0000
  0
VERTEX
  8
16
 10
39.5224
 20
68.8340
 30
0.0000
  0
VERTEX
  8
16
 10
39.5224
 20
69.8500
 30
0.0000
 42
1.0000
  0
SEQEND
  8
0
  0
POLYLINE
  8
16
 66
1
 10
0.0000
 20
0.0000
 30
0.0000
 40
0.0000
 41
0.0000
 70
1
  0
VERTEX
  8
16
 10
38.8286
 20
68.5466
 30
0.0000
  0
VERTEX
  8
16
 10
44.7976
 20
62.5776
 30
0.0000
 42
1.0000
  0
VERTEX
  8
16
 10
45.3724
 20
63.1524
 30
0.0000
  0
VERTEX
  8
16
 10
39.4034
 20
69.1214
 30
0.0000
 42
1.0000
  0
SEQEND
  8
0
  0
POLYLINE
  8
16
 66
1
 10
0.0000
 20
0.0000
 30
0.0000
 40
0.0000
 41
0.0000
 70
1
  0
VERTEX
  8
16
 10
45.0850
 20
62.4586
 30
0.0000
  0
VERTEX
  8
16
 10
52.7050
 20
62.4586
 30
0.0000
 42
1.0000
  0
VERTEX
  8
16
 10
52.7050
 20
63.2714
 30
0.0000
  0
VERTEX
  8
16
 10
45.0850
 20
63.2714
 30
0.0000
 42
1.0000
  0
SEQEND
  8
0
  0
POLYLINE
  8
16
 66
1
 10
0.0000
 20
0.0000
 30
0.0000
 40
0.0000
 41
0.0000
 70
1
  0
VERTEX
  8
16
 10
52.4176
 20
62.5776
 30
0.0000
  0
VERTEX
  8
16
 10
59.4026
 20
55.5926
 30
0.0000
 42
1.0000
  0
VERTEX
  8
16
 10
59.9774
 20
56.1674
 30
0.0000
  0
VERTEX
  8
16
 10
52.9924
 20
63.1524
 30
0.0000
 42
1.0000
  0
SEQEND
  8
0
  0
POLYLINE
  8
16
 66
1
 10
0.0000
 20
0.0000
 30
0.0000
 40
0.0000
 41
0.0000
 70
1
  0
VERTEX
  8
16
 10
45.3136
 20
69.8500
 30
0.0000
  0
VERTEX
  8
16
 10
45.3136
 20
69.2150
 30
0.0000
 42
1.0000
  0
VERTEX
  8
16
 10
46.1264
 20
69.2150
 30
0.0000
  0
VERTEX
  8
16
 10
46.1264
 20
69.8500
 30
0.0000
 42
1.0000
  0
SEQEND
  8
0
  0
POLYLINE
  8
16
 66
1
 10
0.0000
 20
0.0000
 30
0.0000
 40
0.0000
 41
0.0000
 70
1
  0
VERTEX
  8
16
 10
45.4326
 20
68.9276
 30
0.0000
  0
VERTEX
  8
16
 10
49.2426
 20
65.1176
 30
0.0000
 42
1.0000
  0
VERTEX
  8
16
 10
49.8174
 20
65.6924
 30
0.0000
  0
VERTEX
  8
16
 10
46.0074
 20
69.5024
 30
0.0000
 42
1.0000
  0
SEQEND
  8
0
  0
POLYLINE
  8
16
 66
1
 10
0.0000
 20
0.0000
 30
0.0000
 40
0.0000
 41
0.0000
 70
1
  0
VERTEX
  8
16
 10
49.5300
 20
64.9986
 30
0.0000
  0
VERTEX
  8
16
 10
57.7850
 20
64.9986
 30
0.0000
 42
1.0000
  0
VERTEX
  8
16
 10
57.7850
 20
65.8114
 30
0.0000
  0
VERTEX
  8
16
 10
49.5300
 20
65.8114
 30
0.0000
 42
1.0000
  0
SEQEND
  8
0
  0
POLYLINE
  8
16
 66
1
 10
0.0000
 20
0.0000
 30
0.0000
 40
0.0000
 41
0.0000
 70
1
  0
VERTEX
  8
16
 10
57.4976
 20
65.1176
 30
0.0000
  0
VERTEX
  8
16
 10
67.0226
 20
55.5926
 30
0.0000
 42
1.0000
  0
VERTEX
  8
16
 10
67.5974
 20
56.1674
 30
0.0000
  0
VERTEX
  8
16
 10
58.0724
 20
65.6924
 30
0.0000
 42
1.0000
  0
SEQEND
  8
0
  0
ENDSEC
  0
EOF
