  0
SECTION
  2
HEADER
  9
$ACADVER
  1
AC1009
  9
$FILLMODE
 70
0
  9
$EXTMIN
 10
-8.3270
 20
-29.4848
 30
0.0000
  9
$EXTMAX
 10
19.6740
 20
23.5162
 30
0.0000
  0
ENDSEC
  0
SECTION
  2
TABLES
  0
TABLE
  2
LTYPE
 70
1
  0
LTYPE
  2
CONTINUOUS
 70
64
  3
Solid line
 72
65
 73
0
 40
0
  0
ENDTAB
  0
TABLE
  2
LAYER
 70
255
  0
LAYER
  2
16
 70
64
 62
132
  6
CONTINUOUS
  0
LAYER
  2
17
 70
64
 62
110
  6
CONTINUOUS
  0
LAYER
  2
20
 70
64
 62
31
  6
CONTINUOUS
  0
LAYER
  2
44
 70
64
 62
253
  6
CONTINUOUS
  0
ENDTAB
  0
ENDSEC
  0
SECTION
  2
BLOCKS
  0
BLOCK
  8
0
  2
RECT
 70
64
 10
0.0000
 20
0.0000
 30
0.0000
  3
RECT
  0
SOLID
  8
0
 10
-0.5000
 20
-0.5000
 30
0.0000
 11
0.5000
 21
-0.5000
 31
0.0000
 12
-0.5000
 22
0.5000
 32
0.0000
 13
0.5000
 23
0.5000
 33
0.0000
  0
ENDBLK
  8
0
  0
BLOCK
  8
0
  2
PIE
 70
64
 10
0.0000
 20
0.0000
 30
0.0000
  3
PIE
  0
CIRCLE
  8
0
 10
0.0000
 20
0.0000
 30
0.0000
 40
0.5000
  0
ENDBLK
  8
0
  0
BLOCK
  8
0
  2
OCTAGONP
 70
64
 10
0.0000
 20
0.0000
 30
0.0000
  3
OCTAGONP
  0
POLYLINE
  8
0
 66
1
 10
0.0000
 20
0.0000
 30
0.0000
 40
0.0000
 41
0.0000
 70
1
  0
VERTEX
  8
0
 10
-0.5000
 20
-0.2071
 30
0.0000
  0
VERTEX
  8
0
 10
-0.5000
 20
0.2071
 30
0.0000
  0
VERTEX
  8
0
 10
-0.2071
 20
0.5000
 30
0.0000
  0
VERTEX
  8
0
 10
0.2071
 20
0.5000
 30
0.0000
  0
VERTEX
  8
0
 10
0.5000
 20
0.2071
 30
0.0000
  0
VERTEX
  8
0
 10
0.5000
 20
-0.2071
 30
0.0000
  0
VERTEX
  8
0
 10
0.2071
 20
-0.5000
 30
0.0000
  0
VERTEX
  8
0
 10
-0.2071
 20
-0.5000
 30
0.0000
  0
SEQEND
  8
0
  0
ENDBLK
  8
0
  0
BLOCK
  8
0
  2
SQUAREP
 70
64
 10
0.0000
 20
0.0000
 30
0.0000
  3
SQUAREP
  0
SOLID
  8
0
 10
-0.5000
 20
-0.5000
 30
0.0000
 11
0.5000
 21
-0.5000
 31
0.0000
 12
-0.5000
 22
0.5000
 32
0.0000
 13
0.5000
 23
0.5000
 33
0.0000
  0
ENDBLK
  8
0
  0
BLOCK
  8
0
  2
ROUNDP
 70
64
 10
0.0000
 20
0.0000
 30
0.0000
  3
ROUNDP
  0
CIRCLE
  8
0
 10
0.0000
 20
0.0000
 30
0.0000
 40
0.5000
  0
ENDBLK
  8
0
  0
BLOCK
  8
0
  2
ANNULUSP
 70
64
 10
0.0000
 20
0.0000
 30
0.0000
  3
ANNULUSP
  0
CIRCLE
  8
0
 10
0.0000
 20
0.0000
 30
0.0000
 40
0.5000
  0
ENDBLK
  8
0
  0
BLOCK
  8
0
  2
THERMALP
 70
64
 10
0.0000
 20
0.0000
 30
0.0000
  3
THERMALP
  0
POLYLINE
  8
0
 66
1
 10
0.0000
 20
0.0000
 30
0.0000
 40
0.0000
 41
0.0000
 70
1
  0
VERTEX
  8
0
 10
-0.2379
 20
0.4000
 30
0.0000
  0
VERTEX
  8
0
 10
0.2379
 20
0.4000
 30
0.0000
 42
1.0000
  0
VERTEX
  8
0
 10
0.2379
 20
0.5000
 30
0.0000
  0
VERTEX
  8
0
 10
-0.2379
 20
0.5000
 30
0.0000
 42
1.0000
  0
SEQEND
  8
0
  0
POLYLINE
  8
0
 66
1
 10
0.0000
 20
0.0000
 30
0.0000
 40
0.0000
 41
0.0000
 70
1
  0
VERTEX
  8
0
 10
0.4000
 20
0.2379
 30
0.0000
  0
VERTEX
  8
0
 10
0.4000
 20
-0.2379
 30
0.0000
 42
1.0000
  0
VERTEX
  8
0
 10
0.5000
 20
-0.2379
 30
0.0000
  0
VERTEX
  8
0
 10
0.5000
 20
0.2379
 30
0.0000
 42
1.0000
  0
SEQEND
  8
0
  0
POLYLINE
  8
0
 66
1
 10
0.0000
 20
0.0000
 30
0.0000
 40
0.0000
 41
0.0000
 70
1
  0
VERTEX
  8
0
 10
0.2379
 20
-0.4000
 30
0.0000
  0
VERTEX
  8
0
 10
-0.2379
 20
-0.4000
 30
0.0000
 42
1.0000
  0
VERTEX
  8
0
 10
-0.2379
 20
-0.5000
 30
0.0000
  0
VERTEX
  8
0
 10
0.2379
 20
-0.5000
 30
0.0000
 42
1.0000
  0
SEQEND
  8
0
  0
POLYLINE
  8
0
 66
1
 10
0.0000
 20
0.0000
 30
0.0000
 40
0.0000
 41
0.0000
 70
1
  0
VERTEX
  8
0
 10
-0.4000
 20
-0.2379
 30
0.0000
  0
VERTEX
  8
0
 10
-0.4000
 20
0.2379
 30
0.0000
 42
1.0000
  0
VERTEX
  8
0
 10
-0.5000
 20
0.2379
 30
0.0000
  0
VERTEX
  8
0
 10
-0.5000
 20
-0.2379
 30
0.0000
 42
1.0000
  0
SEQEND
  8
0
  0
ENDBLK
  8
0
  0
BLOCK
  8
0
  2
OCTAGONV
 70
64
 10
0.0000
 20
0.0000
 30
0.0000
  3
OCTAGONV
  0
POLYLINE
  8
0
 66
1
 10
0.0000
 20
0.0000
 30
0.0000
 40
0.0000
 41
0.0000
 70
1
  0
VERTEX
  8
0
 10
-0.5000
 20
-0.2071
 30
0.0000
  0
VERTEX
  8
0
 10
-0.5000
 20
0.2071
 30
0.0000
  0
VERTEX
  8
0
 10
-0.2071
 20
0.5000
 30
0.0000
  0
VERTEX
  8
0
 10
0.2071
 20
0.5000
 30
0.0000
  0
VERTEX
  8
0
 10
0.5000
 20
0.2071
 30
0.0000
  0
VERTEX
  8
0
 10
0.5000
 20
-0.2071
 30
0.0000
  0
VERTEX
  8
0
 10
0.2071
 20
-0.5000
 30
0.0000
  0
VERTEX
  8
0
 10
-0.2071
 20
-0.5000
 30
0.0000
  0
SEQEND
  8
0
  0
ENDBLK
  8
0
  0
BLOCK
  8
0
  2
SQUAREV
 70
64
 10
0.0000
 20
0.0000
 30
0.0000
  3
SQUAREV
  0
SOLID
  8
0
 10
-0.5000
 20
-0.5000
 30
0.0000
 11
0.5000
 21
-0.5000
 31
0.0000
 12
-0.5000
 22
0.5000
 32
0.0000
 13
0.5000
 23
0.5000
 33
0.0000
  0
ENDBLK
  8
0
  0
BLOCK
  8
0
  2
ROUNDV
 70
64
 10
0.0000
 20
0.0000
 30
0.0000
  3
ROUNDV
  0
CIRCLE
  8
0
 10
0.0000
 20
0.0000
 30
0.0000
 40
0.5000
  0
ENDBLK
  8
0
  0
BLOCK
  8
0
  2
ANNULUSV
 70
64
 10
0.0000
 20
0.0000
 30
0.0000
  3
ANNULUSV
  0
CIRCLE
  8
0
 10
0.0000
 20
0.0000
 30
0.0000
 40
0.5000
  0
ENDBLK
  8
0
  0
BLOCK
  8
0
  2
THERMALV
 70
64
 10
0.0000
 20
0.0000
 30
0.0000
  3
THERMALV
  0
POLYLINE
  8
0
 66
1
 10
0.0000
 20
0.0000
 30
0.0000
 40
0.0000
 41
0.0000
 70
1
  0
VERTEX
  8
0
 10
-0.2379
 20
0.4000
 30
0.0000
  0
VERTEX
  8
0
 10
0.2379
 20
0.4000
 30
0.0000
 42
1.0000
  0
VERTEX
  8
0
 10
0.2379
 20
0.5000
 30
0.0000
  0
VERTEX
  8
0
 10
-0.2379
 20
0.5000
 30
0.0000
 42
1.0000
  0
SEQEND
  8
0
  0
POLYLINE
  8
0
 66
1
 10
0.0000
 20
0.0000
 30
0.0000
 40
0.0000
 41
0.0000
 70
1
  0
VERTEX
  8
0
 10
0.4000
 20
0.2379
 30
0.0000
  0
VERTEX
  8
0
 10
0.4000
 20
-0.2379
 30
0.0000
 42
1.0000
  0
VERTEX
  8
0
 10
0.5000
 20
-0.2379
 30
0.0000
  0
VERTEX
  8
0
 10
0.5000
 20
0.2379
 30
0.0000
 42
1.0000
  0
SEQEND
  8
0
  0
POLYLINE
  8
0
 66
1
 10
0.0000
 20
0.0000
 30
0.0000
 40
0.0000
 41
0.0000
 70
1
  0
VERTEX
  8
0
 10
0.2379
 20
-0.4000
 30
0.0000
  0
VERTEX
  8
0
 10
-0.2379
 20
-0.4000
 30
0.0000
 42
1.0000
  0
VERTEX
  8
0
 10
-0.2379
 20
-0.5000
 30
0.0000
  0
VERTEX
  8
0
 10
0.2379
 20
-0.5000
 30
0.0000
 42
1.0000
  0
SEQEND
  8
0
  0
POLYLINE
  8
0
 66
1
 10
0.0000
 20
0.0000
 30
0.0000
 40
0.0000
 41
0.0000
 70
1
  0
VERTEX
  8
0
 10
-0.4000
 20
-0.2379
 30
0.0000
  0
VERTEX
  8
0
 10
-0.4000
 20
0.2379
 30
0.0000
 42
1.0000
  0
VERTEX
  8
0
 10
-0.5000
 20
0.2379
 30
0.0000
  0
VERTEX
  8
0
 10
-0.5000
 20
-0.2379
 30
0.0000
 42
1.0000
  0
SEQEND
  8
0
  0
ENDBLK
  8
0
  0
BLOCK
  8
0
  2
LONGP100
 70
64
 10
0.0000
 20
0.0000
 30
0.0000
  3
LONGP100
  0
POLYLINE
  8
0
 66
1
 10
0.0000
 20
0.0000
 30
0.0000
 40
0.0000
 41
0.0000
 70
1
  0
VERTEX
  8
0
 10
-0.5000
 20
-0.5000
 30
0.0000
  0
VERTEX
  8
0
 10
0.5000
 20
-0.5000
 30
0.0000
 42
1.0000
  0
VERTEX
  8
0
 10
0.5000
 20
0.5000
 30
0.0000
  0
VERTEX
  8
0
 10
-0.5000
 20
0.5000
 30
0.0000
 42
1.0000
  0
SEQEND
  8
0
  0
ENDBLK
  8
0
  0
ENDSEC
  0
SECTION
  2
ENTITIES
  0
POLYLINE
  8
20
 66
1
 10
0.0000
 20
0.0000
 30
0.0000
 40
0.0000
 41
0.0000
 70
1
  0
VERTEX
  8
20
 10
-8.3260
 20
-27.4843
 30
0.0000
 42
1.0000
  0
VERTEX
  8
20
 10
-8.3270
 20
-27.4843
 30
0.0000
 42
0.4142
  0
VERTEX
  8
20
 10
-6.3265
 20
-29.4848
 30
0.0000
 42
1.0000
  0
VERTEX
  8
20
 10
-6.3265
 20
-29.4838
 30
0.0000
 42
-0.4142
  0
SEQEND
  8
0
  0
POLYLINE
  8
20
 66
1
 10
0.0000
 20
0.0000
 30
0.0000
 40
0.0000
 41
0.0000
 70
1
  0
VERTEX
  8
20
 10
17.6735
 20
-29.4838
 30
0.0000
 42
1.0000
  0
VERTEX
  8
20
 10
17.6735
 20
-29.4848
 30
0.0000
 42
0.4142
  0
VERTEX
  8
20
 10
19.6740
 20
-27.4843
 30
0.0000
 42
1.0000
  0
VERTEX
  8
20
 10
19.6730
 20
-27.4843
 30
0.0000
 42
-0.4142
  0
SEQEND
  8
0
  0
POLYLINE
  8
20
 66
1
 10
0.0000
 20
0.0000
 30
0.0000
 40
0.0000
 41
0.0000
 70
1
  0
VERTEX
  8
20
 10
19.6730
 20
21.5157
 30
0.0000
 42
1.0000
  0
VERTEX
  8
20
 10
19.6740
 20
21.5157
 30
0.0000
 42
0.4142
  0
VERTEX
  8
20
 10
17.6735
 20
23.5162
 30
0.0000
 42
1.0000
  0
VERTEX
  8
20
 10
17.6735
 20
23.5152
 30
0.0000
 42
-0.4142
  0
SEQEND
  8
0
  0
POLYLINE
  8
20
 66
1
 10
0.0000
 20
0.0000
 30
0.0000
 40
0.0000
 41
0.0000
 70
1
  0
VERTEX
  8
20
 10
-6.3265
 20
23.5152
 30
0.0000
 42
1.0000
  0
VERTEX
  8
20
 10
-6.3265
 20
23.5162
 30
0.0000
 42
0.4142
  0
VERTEX
  8
20
 10
-8.3270
 20
21.5157
 30
0.0000
 42
1.0000
  0
VERTEX
  8
20
 10
-8.3260
 20
21.5157
 30
0.0000
 42
-0.4142
  0
SEQEND
  8
0
  0
POLYLINE
  8
20
 66
1
 10
0.0000
 20
0.0000
 30
0.0000
 40
0.0000
 41
0.0000
 70
1
  0
VERTEX
  8
20
 10
-1.8265
 20
16.5152
 30
0.0000
  0
VERTEX
  8
20
 10
13.1735
 20
16.5152
 30
0.0000
 42
1.0000
  0
VERTEX
  8
20
 10
13.1735
 20
16.5162
 30
0.0000
  0
VERTEX
  8
20
 10
-1.8265
 20
16.5162
 30
0.0000
 42
1.0000
  0
SEQEND
  8
0
  0
POLYLINE
  8
20
 66
1
 10
0.0000
 20
0.0000
 30
0.0000
 40
0.0000
 41
0.0000
 70
1
  0
VERTEX
  8
20
 10
-1.8270
 20
16.5157
 30
0.0000
  0
VERTEX
  8
20
 10
-1.8270
 20
-4.4843
 30
0.0000
 42
1.0000
  0
VERTEX
  8
20
 10
-1.8260
 20
-4.4843
 30
0.0000
  0
VERTEX
  8
20
 10
-1.8260
 20
16.5157
 30
0.0000
 42
1.0000
  0
SEQEND
  8
0
  0
POLYLINE
  8
20
 66
1
 10
0.0000
 20
0.0000
 30
0.0000
 40
0.0000
 41
0.0000
 70
1
  0
VERTEX
  8
20
 10
-1.8265
 20
-4.4848
 30
0.0000
  0
VERTEX
  8
20
 10
13.1735
 20
-4.4848
 30
0.0000
 42
1.0000
  0
VERTEX
  8
20
 10
13.1735
 20
-4.4838
 30
0.0000
  0
VERTEX
  8
20
 10
-1.8265
 20
-4.4838
 30
0.0000
 42
1.0000
  0
SEQEND
  8
0
  0
POLYLINE
  8
20
 66
1
 10
0.0000
 20
0.0000
 30
0.0000
 40
0.0000
 41
0.0000
 70
1
  0
VERTEX
  8
20
 10
13.1730
 20
16.5157
 30
0.0000
  0
VERTEX
  8
20
 10
13.1730
 20
-4.4843
 30
0.0000
 42
1.0000
  0
VERTEX
  8
20
 10
13.1740
 20
-4.4843
 30
0.0000
  0
VERTEX
  8
20
 10
13.1740
 20
16.5157
 30
0.0000
 42
1.0000
  0
SEQEND
  8
0
  0
POLYLINE
  8
20
 66
1
 10
0.0000
 20
0.0000
 30
0.0000
 40
0.0000
 41
0.0000
 70
1
  0
VERTEX
  8
20
 10
-6.3265
 20
23.5152
 30
0.0000
  0
VERTEX
  8
20
 10
17.6735
 20
23.5152
 30
0.0000
 42
1.0000
  0
VERTEX
  8
20
 10
17.6735
 20
23.5162
 30
0.0000
  0
VERTEX
  8
20
 10
-6.3265
 20
23.5162
 30
0.0000
 42
1.0000
  0
SEQEND
  8
0
  0
POLYLINE
  8
20
 66
1
 10
0.0000
 20
0.0000
 30
0.0000
 40
0.0000
 41
0.0000
 70
1
  0
VERTEX
  8
20
 10
-8.3270
 20
21.5157
 30
0.0000
  0
VERTEX
  8
20
 10
-8.3270
 20
-27.4843
 30
0.0000
 42
1.0000
  0
VERTEX
  8
20
 10
-8.3260
 20
-27.4843
 30
0.0000
  0
VERTEX
  8
20
 10
-8.3260
 20
21.5157
 30
0.0000
 42
1.0000
  0
SEQEND
  8
0
  0
POLYLINE
  8
20
 66
1
 10
0.0000
 20
0.0000
 30
0.0000
 40
0.0000
 41
0.0000
 70
1
  0
VERTEX
  8
20
 10
-6.3265
 20
-29.4848
 30
0.0000
  0
VERTEX
  8
20
 10
17.6735
 20
-29.4848
 30
0.0000
 42
1.0000
  0
VERTEX
  8
20
 10
17.6735
 20
-29.4838
 30
0.0000
  0
VERTEX
  8
20
 10
-6.3265
 20
-29.4838
 30
0.0000
 42
1.0000
  0
SEQEND
  8
0
  0
POLYLINE
  8
20
 66
1
 10
0.0000
 20
0.0000
 30
0.0000
 40
0.0000
 41
0.0000
 70
1
  0
VERTEX
  8
20
 10
19.6730
 20
21.5157
 30
0.0000
  0
VERTEX
  8
20
 10
19.6730
 20
-27.4843
 30
0.0000
 42
1.0000
  0
VERTEX
  8
20
 10
19.6740
 20
-27.4843
 30
0.0000
  0
VERTEX
  8
20
 10
19.6740
 20
21.5157
 30
0.0000
 42
1.0000
  0
SEQEND
  8
0
  0
CIRCLE
  8
20
 10
-5.3265
 20
20.5157
 30
0.0000
 40
1.4995
  0
CIRCLE
  8
20
 10
-5.3265
 20
20.5157
 30
0.0000
 40
1.5005
  0
CIRCLE
  8
20
 10
16.6735
 20
20.5157
 30
0.0000
 40
1.4995
  0
CIRCLE
  8
20
 10
16.6735
 20
20.5157
 30
0.0000
 40
1.5005
  0
CIRCLE
  8
20
 10
-5.3265
 20
-26.4843
 30
0.0000
 40
1.4995
  0
CIRCLE
  8
20
 10
-5.3265
 20
-26.4843
 30
0.0000
 40
1.5005
  0
CIRCLE
  8
20
 10
16.6735
 20
-26.4843
 30
0.0000
 40
1.4995
  0
CIRCLE
  8
20
 10
16.6735
 20
-26.4843
 30
0.0000
 40
1.5005
  0
CIRCLE
  8
20
 10
5.6735
 20
-18.4843
 30
0.0000
 40
5.9995
  0
CIRCLE
  8
20
 10
5.6735
 20
-18.4843
 30
0.0000
 40
6.0005
  0
INSERT
  8
17
  2
LONGP100
 10
-3.1750
 20
2.5400
 30
0.0000
 41
1.8796
 42
1.8796
 43
1.0000
 50
180.0000
  0
CIRCLE
  8
44
 10
-3.1750
 20
2.5400
 30
0.0000
 40
0.5588
  0
INSERT
  8
17
  2
LONGP100
 10
-3.1750
 20
5.0800
 30
0.0000
 41
1.8796
 42
1.8796
 43
1.0000
 50
180.0000
  0
CIRCLE
  8
44
 10
-3.1750
 20
5.0800
 30
0.0000
 40
0.5588
  0
INSERT
  8
17
  2
LONGP100
 10
-3.1750
 20
7.6200
 30
0.0000
 41
1.8796
 42
1.8796
 43
1.0000
 50
180.0000
  0
CIRCLE
  8
44
 10
-3.1750
 20
7.6200
 30
0.0000
 40
0.5588
  0
INSERT
  8
17
  2
LONGP100
 10
-3.1750
 20
10.1600
 30
0.0000
 41
1.8796
 42
1.8796
 43
1.0000
 50
180.0000
  0
CIRCLE
  8
44
 10
-3.1750
 20
10.1600
 30
0.0000
 40
0.5588
  0
INSERT
  8
17
  2
LONGP100
 10
-1.2700
 20
-6.9850
 30
0.0000
 41
1.8796
 42
1.8796
 43
1.0000
 50
90.0000
  0
CIRCLE
  8
44
 10
-1.2700
 20
-6.9850
 30
0.0000
 40
0.5588
  0
INSERT
  8
17
  2
LONGP100
 10
1.2700
 20
-6.9850
 30
0.0000
 41
1.8796
 42
1.8796
 43
1.0000
 50
90.0000
  0
CIRCLE
  8
44
 10
1.2700
 20
-6.9850
 30
0.0000
 40
0.5588
  0
INSERT
  8
17
  2
LONGP100
 10
3.8100
 20
-6.9850
 30
0.0000
 41
1.8796
 42
1.8796
 43
1.0000
 50
90.0000
  0
CIRCLE
  8
44
 10
3.8100
 20
-6.9850
 30
0.0000
 40
0.5588
  0
INSERT
  8
17
  2
LONGP100
 10
6.3500
 20
-6.9850
 30
0.0000
 41
1.8796
 42
1.8796
 43
1.0000
 50
90.0000
  0
CIRCLE
  8
44
 10
6.3500
 20
-6.9850
 30
0.0000
 40
0.5588
  0
INSERT
  8
17
  2
LONGP100
 10
8.8900
 20
-6.9850
 30
0.0000
 41
1.8796
 42
1.8796
 43
1.0000
 50
90.0000
  0
CIRCLE
  8
44
 10
8.8900
 20
-6.9850
 30
0.0000
 40
0.5588
  0
INSERT
  8
17
  2
LONGP100
 10
11.4300
 20
-6.9850
 30
0.0000
 41
1.8796
 42
1.8796
 43
1.0000
 50
90.0000
  0
CIRCLE
  8
44
 10
11.4300
 20
-6.9850
 30
0.0000
 40
0.5588
  0
INSERT
  8
17
  2
LONGP100
 10
14.6050
 20
0.0000
 30
0.0000
 41
1.8796
 42
1.8796
 43
1.0000
 50
180.0000
  0
CIRCLE
  8
44
 10
14.6050
 20
0.0000
 30
0.0000
 40
0.5588
  0
INSERT
  8
17
  2
LONGP100
 10
14.6050
 20
2.5400
 30
0.0000
 41
1.8796
 42
1.8796
 43
1.0000
 50
180.0000
  0
CIRCLE
  8
44
 10
14.6050
 20
2.5400
 30
0.0000
 40
0.5588
  0
INSERT
  8
17
  2
LONGP100
 10
14.6050
 20
5.0800
 30
0.0000
 41
1.8796
 42
1.8796
 43
1.0000
 50
180.0000
  0
CIRCLE
  8
44
 10
14.6050
 20
5.0800
 30
0.0000
 40
0.5588
  0
INSERT
  8
17
  2
LONGP100
 10
14.6050
 20
7.6200
 30
0.0000
 41
1.8796
 42
1.8796
 43
1.0000
 50
180.0000
  0
CIRCLE
  8
44
 10
14.6050
 20
7.6200
 30
0.0000
 40
0.5588
  0
INSERT
  8
17
  2
LONGP100
 10
14.6050
 20
10.1600
 30
0.0000
 41
1.8796
 42
1.8796
 43
1.0000
 50
180.0000
  0
CIRCLE
  8
44
 10
14.6050
 20
10.1600
 30
0.0000
 40
0.5588
  0
INSERT
  8
17
  2
LONGP100
 10
14.6050
 20
12.7000
 30
0.0000
 41
1.8796
 42
1.8796
 43
1.0000
 50
180.0000
  0
CIRCLE
  8
44
 10
14.6050
 20
12.7000
 30
0.0000
 40
0.5588
  0
POLYLINE
  8
16
 66
1
 10
0.0000
 20
0.0000
 30
0.0000
 40
0.0000
 41
0.0000
 70
1
  0
VERTEX
  8
16
 10
14.6050
 20
0.6350
 30
0.0000
  0
VERTEX
  8
16
 10
13.3350
 20
0.6350
 30
0.0000
 42
1.0000
  0
VERTEX
  8
16
 10
13.3350
 20
-0.6350
 30
0.0000
  0
VERTEX
  8
16
 10
14.6050
 20
-0.6350
 30
0.0000
 42
1.0000
  0
SEQEND
  8
0
  0
POLYLINE
  8
16
 66
1
 10
0.0000
 20
0.0000
 30
0.0000
 40
0.0000
 41
0.0000
 70
1
  0
VERTEX
  8
16
 10
12.8860
 20
0.4490
 30
0.0000
  0
VERTEX
  8
16
 10
10.9810
 20
-1.4560
 30
0.0000
 42
1.0000
  0
VERTEX
  8
16
 10
11.8790
 20
-2.3540
 30
0.0000
  0
VERTEX
  8
16
 10
13.7840
 20
-0.4490
 30
0.0000
 42
1.0000
  0
SEQEND
  8
0
  0
POLYLINE
  8
16
 66
1
 10
0.0000
 20
0.0000
 30
0.0000
 40
0.0000
 41
0.0000
 70
1
  0
VERTEX
  8
16
 10
10.7950
 20
-1.9050
 30
0.0000
  0
VERTEX
  8
16
 10
10.7950
 20
-6.9850
 30
0.0000
 42
1.0000
  0
VERTEX
  8
16
 10
12.0650
 20
-6.9850
 30
0.0000
  0
VERTEX
  8
16
 10
12.0650
 20
-1.9050
 30
0.0000
 42
1.0000
  0
SEQEND
  8
0
  0
POLYLINE
  8
16
 66
1
 10
0.0000
 20
0.0000
 30
0.0000
 40
0.0000
 41
0.0000
 70
1
  0
VERTEX
  8
16
 10
14.6050
 20
5.7150
 30
0.0000
  0
VERTEX
  8
16
 10
10.1600
 20
5.7150
 30
0.0000
 42
1.0000
  0
VERTEX
  8
16
 10
10.1600
 20
4.4450
 30
0.0000
  0
VERTEX
  8
16
 10
14.6050
 20
4.4450
 30
0.0000
 42
1.0000
  0
SEQEND
  8
0
  0
POLYLINE
  8
16
 66
1
 10
0.0000
 20
0.0000
 30
0.0000
 40
0.0000
 41
0.0000
 70
1
  0
VERTEX
  8
16
 10
9.7110
 20
5.5290
 30
0.0000
  0
VERTEX
  8
16
 10
5.9010
 20
1.7190
 30
0.0000
 42
1.0000
  0
VERTEX
  8
16
 10
6.7990
 20
0.8210
 30
0.0000
  0
VERTEX
  8
16
 10
10.6090
 20
4.6310
 30
0.0000
 42
1.0000
  0
SEQEND
  8
0
  0
POLYLINE
  8
16
 66
1
 10
0.0000
 20
0.0000
 30
0.0000
 40
0.0000
 41
0.0000
 70
1
  0
VERTEX
  8
16
 10
5.7150
 20
1.2700
 30
0.0000
  0
VERTEX
  8
16
 10
5.7150
 20
-6.9850
 30
0.0000
 42
1.0000
  0
VERTEX
  8
16
 10
6.9850
 20
-6.9850
 30
0.0000
  0
VERTEX
  8
16
 10
6.9850
 20
1.2700
 30
0.0000
 42
1.0000
  0
SEQEND
  8
0
  0
POLYLINE
  8
16
 66
1
 10
0.0000
 20
0.0000
 30
0.0000
 40
0.0000
 41
0.0000
 70
1
  0
VERTEX
  8
16
 10
14.6050
 20
8.2550
 30
0.0000
  0
VERTEX
  8
16
 10
7.6200
 20
8.2550
 30
0.0000
 42
1.0000
  0
VERTEX
  8
16
 10
7.6200
 20
6.9850
 30
0.0000
  0
VERTEX
  8
16
 10
14.6050
 20
6.9850
 30
0.0000
 42
1.0000
  0
SEQEND
  8
0
  0
POLYLINE
  8
16
 66
1
 10
0.0000
 20
0.0000
 30
0.0000
 40
0.0000
 41
0.0000
 70
1
  0
VERTEX
  8
16
 10
7.1710
 20
8.0690
 30
0.0000
  0
VERTEX
  8
16
 10
3.3610
 20
4.2590
 30
0.0000
 42
1.0000
  0
VERTEX
  8
16
 10
4.2590
 20
3.3610
 30
0.0000
  0
VERTEX
  8
16
 10
8.0690
 20
7.1710
 30
0.0000
 42
1.0000
  0
SEQEND
  8
0
  0
POLYLINE
  8
16
 66
1
 10
0.0000
 20
0.0000
 30
0.0000
 40
0.0000
 41
0.0000
 70
1
  0
VERTEX
  8
16
 10
3.1750
 20
3.8100
 30
0.0000
  0
VERTEX
  8
16
 10
3.1750
 20
-6.9850
 30
0.0000
 42
1.0000
  0
VERTEX
  8
16
 10
4.4450
 20
-6.9850
 30
0.0000
  0
VERTEX
  8
16
 10
4.4450
 20
3.8100
 30
0.0000
 42
1.0000
  0
SEQEND
  8
0
  0
POLYLINE
  8
16
 66
1
 10
0.0000
 20
0.0000
 30
0.0000
 40
0.0000
 41
0.0000
 70
1
  0
VERTEX
  8
16
 10
14.6050
 20
10.7950
 30
0.0000
  0
VERTEX
  8
16
 10
5.0800
 20
10.7950
 30
0.0000
 42
1.0000
  0
VERTEX
  8
16
 10
5.0800
 20
9.5250
 30
0.0000
  0
VERTEX
  8
16
 10
14.6050
 20
9.5250
 30
0.0000
 42
1.0000
  0
SEQEND
  8
0
  0
POLYLINE
  8
16
 66
1
 10
0.0000
 20
0.0000
 30
0.0000
 40
0.0000
 41
0.0000
 70
1
  0
VERTEX
  8
16
 10
4.6310
 20
10.6090
 30
0.0000
  0
VERTEX
  8
16
 10
0.8210
 20
6.7990
 30
0.0000
 42
1.0000
  0
VERTEX
  8
16
 10
1.7190
 20
5.9010
 30
0.0000
  0
VERTEX
  8
16
 10
5.5290
 20
9.7110
 30
0.0000
 42
1.0000
  0
SEQEND
  8
0
  0
POLYLINE
  8
16
 66
1
 10
0.0000
 20
0.0000
 30
0.0000
 40
0.0000
 41
0.0000
 70
1
  0
VERTEX
  8
16
 10
0.6350
 20
6.3500
 30
0.0000
  0
VERTEX
  8
16
 10
0.6350
 20
-6.9850
 30
0.0000
 42
1.0000
  0
VERTEX
  8
16
 10
1.9050
 20
-6.9850
 30
0.0000
  0
VERTEX
  8
16
 10
1.9050
 20
6.3500
 30
0.0000
 42
1.0000
  0
SEQEND
  8
0
  0
ENDSEC
  0
EOF
