  0
SECTION
  2
HEADER
  9
$ACADVER
  1
AC1009
  9
$FILLMODE
 70
0
  9
$EXTMIN
 10
-6.4600
 20
-1.6764
 30
0.0000
  9
$EXTMAX
 10
82.9564
 20
53.7464
 30
0.0000
  0
ENDSEC
  0
SECTION
  2
TABLES
  0
TABLE
  2
LTYPE
 70
1
  0
LTYPE
  2
CONTINUOUS
 70
64
  3
Solid line
 72
65
 73
0
 40
0
  0
ENDTAB
  0
TABLE
  2
LAYER
 70
255
  0
LAYER
  2
16
 70
64
 62
174
  6
CONTINUOUS
  0
LAYER
  2
17
 70
64
 62
94
  6
CONTINUOUS
  0
LAYER
  2
18
 70
64
 62
94
  6
CONTINUOUS
  0
LAYER
  2
20
 70
64
 62
178
  6
CONTINUOUS
  0
LAYER
  2
44
 70
64
 62
250
  6
CONTINUOUS
  0
ENDTAB
  0
ENDSEC
  0
SECTION
  2
BLOCKS
  0
BLOCK
  8
0
  2
RECT
 70
64
 10
0.0000
 20
0.0000
 30
0.0000
  3
RECT
  0
SOLID
  8
0
 10
-0.5000
 20
-0.5000
 30
0.0000
 11
0.5000
 21
-0.5000
 31
0.0000
 12
-0.5000
 22
0.5000
 32
0.0000
 13
0.5000
 23
0.5000
 33
0.0000
  0
ENDBLK
  8
0
  0
BLOCK
  8
0
  2
PIE
 70
64
 10
0.0000
 20
0.0000
 30
0.0000
  3
PIE
  0
CIRCLE
  8
0
 10
0.0000
 20
0.0000
 30
0.0000
 40
0.5000
  0
ENDBLK
  8
0
  0
BLOCK
  8
0
  2
OCTAGONP
 70
64
 10
0.0000
 20
0.0000
 30
0.0000
  3
OCTAGONP
  0
POLYLINE
  8
0
 66
1
 10
0.0000
 20
0.0000
 30
0.0000
 40
0.0000
 41
0.0000
 70
1
  0
VERTEX
  8
0
 10
-0.5000
 20
-0.2071
 30
0.0000
  0
VERTEX
  8
0
 10
-0.5000
 20
0.2071
 30
0.0000
  0
VERTEX
  8
0
 10
-0.2071
 20
0.5000
 30
0.0000
  0
VERTEX
  8
0
 10
0.2071
 20
0.5000
 30
0.0000
  0
VERTEX
  8
0
 10
0.5000
 20
0.2071
 30
0.0000
  0
VERTEX
  8
0
 10
0.5000
 20
-0.2071
 30
0.0000
  0
VERTEX
  8
0
 10
0.2071
 20
-0.5000
 30
0.0000
  0
VERTEX
  8
0
 10
-0.2071
 20
-0.5000
 30
0.0000
  0
SEQEND
  8
0
  0
ENDBLK
  8
0
  0
BLOCK
  8
0
  2
SQUAREP
 70
64
 10
0.0000
 20
0.0000
 30
0.0000
  3
SQUAREP
  0
SOLID
  8
0
 10
-0.5000
 20
-0.5000
 30
0.0000
 11
0.5000
 21
-0.5000
 31
0.0000
 12
-0.5000
 22
0.5000
 32
0.0000
 13
0.5000
 23
0.5000
 33
0.0000
  0
ENDBLK
  8
0
  0
BLOCK
  8
0
  2
ROUNDP
 70
64
 10
0.0000
 20
0.0000
 30
0.0000
  3
ROUNDP
  0
CIRCLE
  8
0
 10
0.0000
 20
0.0000
 30
0.0000
 40
0.5000
  0
ENDBLK
  8
0
  0
BLOCK
  8
0
  2
ANNULUSP
 70
64
 10
0.0000
 20
0.0000
 30
0.0000
  3
ANNULUSP
  0
CIRCLE
  8
0
 10
0.0000
 20
0.0000
 30
0.0000
 40
0.5000
  0
ENDBLK
  8
0
  0
BLOCK
  8
0
  2
THERMALP
 70
64
 10
0.0000
 20
0.0000
 30
0.0000
  3
THERMALP
  0
LINE
  8
0
 10
-0.2379
 20
0.4500
 30
0.0000
 11
0.2379
 21
0.4500
 31
0.0000
  0
LINE
  8
0
 10
0.4500
 20
0.2379
 30
0.0000
 11
0.4500
 21
-0.2379
 31
0.0000
  0
LINE
  8
0
 10
0.2379
 20
-0.4500
 30
0.0000
 11
-0.2379
 21
-0.4500
 31
0.0000
  0
LINE
  8
0
 10
-0.4500
 20
-0.2379
 30
0.0000
 11
-0.4500
 21
0.2379
 31
0.0000
  0
ENDBLK
  8
0
  0
BLOCK
  8
0
  2
OCTAGONV
 70
64
 10
0.0000
 20
0.0000
 30
0.0000
  3
OCTAGONV
  0
POLYLINE
  8
0
 66
1
 10
0.0000
 20
0.0000
 30
0.0000
 40
0.0000
 41
0.0000
 70
1
  0
VERTEX
  8
0
 10
-0.5000
 20
-0.2071
 30
0.0000
  0
VERTEX
  8
0
 10
-0.5000
 20
0.2071
 30
0.0000
  0
VERTEX
  8
0
 10
-0.2071
 20
0.5000
 30
0.0000
  0
VERTEX
  8
0
 10
0.2071
 20
0.5000
 30
0.0000
  0
VERTEX
  8
0
 10
0.5000
 20
0.2071
 30
0.0000
  0
VERTEX
  8
0
 10
0.5000
 20
-0.2071
 30
0.0000
  0
VERTEX
  8
0
 10
0.2071
 20
-0.5000
 30
0.0000
  0
VERTEX
  8
0
 10
-0.2071
 20
-0.5000
 30
0.0000
  0
SEQEND
  8
0
  0
ENDBLK
  8
0
  0
BLOCK
  8
0
  2
SQUAREV
 70
64
 10
0.0000
 20
0.0000
 30
0.0000
  3
SQUAREV
  0
SOLID
  8
0
 10
-0.5000
 20
-0.5000
 30
0.0000
 11
0.5000
 21
-0.5000
 31
0.0000
 12
-0.5000
 22
0.5000
 32
0.0000
 13
0.5000
 23
0.5000
 33
0.0000
  0
ENDBLK
  8
0
  0
BLOCK
  8
0
  2
ROUNDV
 70
64
 10
0.0000
 20
0.0000
 30
0.0000
  3
ROUNDV
  0
CIRCLE
  8
0
 10
0.0000
 20
0.0000
 30
0.0000
 40
0.5000
  0
ENDBLK
  8
0
  0
BLOCK
  8
0
  2
ANNULUSV
 70
64
 10
0.0000
 20
0.0000
 30
0.0000
  3
ANNULUSV
  0
CIRCLE
  8
0
 10
0.0000
 20
0.0000
 30
0.0000
 40
0.5000
  0
ENDBLK
  8
0
  0
BLOCK
  8
0
  2
THERMALV
 70
64
 10
0.0000
 20
0.0000
 30
0.0000
  3
THERMALV
  0
LINE
  8
0
 10
-0.2379
 20
0.4500
 30
0.0000
 11
0.2379
 21
0.4500
 31
0.0000
  0
LINE
  8
0
 10
0.4500
 20
0.2379
 30
0.0000
 11
0.4500
 21
-0.2379
 31
0.0000
  0
LINE
  8
0
 10
0.2379
 20
-0.4500
 30
0.0000
 11
-0.2379
 21
-0.4500
 31
0.0000
  0
LINE
  8
0
 10
-0.4500
 20
-0.2379
 30
0.0000
 11
-0.4500
 21
0.2379
 31
0.0000
  0
ENDBLK
  8
0
  0
BLOCK
  8
0
  2
LONGP100
 70
64
 10
0.0000
 20
0.0000
 30
0.0000
  3
LONGP100
  0
POLYLINE
  8
0
 66
1
 10
0.0000
 20
0.0000
 30
0.0000
 40
0.0000
 41
0.0000
 70
1
  0
VERTEX
  8
0
 10
-0.5000
 20
-0.5000
 30
0.0000
  0
VERTEX
  8
0
 10
0.5000
 20
-0.5000
 30
0.0000
 42
1.0000
  0
VERTEX
  8
0
 10
0.5000
 20
0.5000
 30
0.0000
  0
VERTEX
  8
0
 10
-0.5000
 20
0.5000
 30
0.0000
 42
1.0000
  0
SEQEND
  8
0
  0
ENDBLK
  8
0
  0
ENDSEC
  0
SECTION
  2
ENTITIES
  0
LINE
  8
20
 10
-1.2700
 20
-1.2700
 30
0.0000
 11
82.2200
 21
-1.2700
 31
0.0000
  0
LINE
  8
20
 10
82.2200
 20
-1.2700
 30
0.0000
 11
82.2200
 21
53.3300
 31
0.0000
  0
LINE
  8
20
 10
82.2200
 20
53.3300
 30
0.0000
 11
-1.2700
 21
53.3300
 31
0.0000
  0
LINE
  8
20
 10
-1.2700
 20
53.3300
 30
0.0000
 11
-1.2700
 21
-1.2700
 31
0.0000
  0
INSERT
  8
17
  2
OCTAGONP
 10
63.5000
 20
20.3200
 30
0.0000
 41
1.3208
 42
1.3208
 43
1.0000
 50
90.0000
  0
CIRCLE
  8
44
 10
63.5000
 20
20.3200
 30
0.0000
 40
0.4064
  0
INSERT
  8
17
  2
OCTAGONP
 10
63.5000
 20
27.9400
 30
0.0000
 41
1.3208
 42
1.3208
 43
1.0000
 50
90.0000
  0
CIRCLE
  8
44
 10
63.5000
 20
27.9400
 30
0.0000
 40
0.4064
  0
INSERT
  8
17
  2
OCTAGONP
 10
55.8800
 20
20.3200
 30
0.0000
 41
1.3208
 42
1.3208
 43
1.0000
 50
90.0000
  0
CIRCLE
  8
44
 10
55.8800
 20
20.3200
 30
0.0000
 40
0.4064
  0
INSERT
  8
17
  2
OCTAGONP
 10
55.8800
 20
27.9400
 30
0.0000
 41
1.3208
 42
1.3208
 43
1.0000
 50
90.0000
  0
CIRCLE
  8
44
 10
55.8800
 20
27.9400
 30
0.0000
 40
0.4064
  0
INSERT
  8
17
  2
OCTAGONP
 10
48.2600
 20
20.3200
 30
0.0000
 41
1.3208
 42
1.3208
 43
1.0000
 50
90.0000
  0
CIRCLE
  8
44
 10
48.2600
 20
20.3200
 30
0.0000
 40
0.4064
  0
INSERT
  8
17
  2
OCTAGONP
 10
48.2600
 20
27.9400
 30
0.0000
 41
1.3208
 42
1.3208
 43
1.0000
 50
90.0000
  0
CIRCLE
  8
44
 10
48.2600
 20
27.9400
 30
0.0000
 40
0.4064
  0
INSERT
  8
17
  2
OCTAGONP
 10
40.6400
 20
20.3200
 30
0.0000
 41
1.3208
 42
1.3208
 43
1.0000
 50
90.0000
  0
CIRCLE
  8
44
 10
40.6400
 20
20.3200
 30
0.0000
 40
0.4064
  0
INSERT
  8
17
  2
OCTAGONP
 10
40.6400
 20
27.9400
 30
0.0000
 41
1.3208
 42
1.3208
 43
1.0000
 50
90.0000
  0
CIRCLE
  8
44
 10
40.6400
 20
27.9400
 30
0.0000
 40
0.4064
  0
INSERT
  8
17
  2
OCTAGONP
 10
33.0200
 20
20.3200
 30
0.0000
 41
1.3208
 42
1.3208
 43
1.0000
 50
90.0000
  0
CIRCLE
  8
44
 10
33.0200
 20
20.3200
 30
0.0000
 40
0.4064
  0
INSERT
  8
17
  2
OCTAGONP
 10
33.0200
 20
27.9400
 30
0.0000
 41
1.3208
 42
1.3208
 43
1.0000
 50
90.0000
  0
CIRCLE
  8
44
 10
33.0200
 20
27.9400
 30
0.0000
 40
0.4064
  0
INSERT
  8
17
  2
OCTAGONP
 10
25.4000
 20
20.3200
 30
0.0000
 41
1.3208
 42
1.3208
 43
1.0000
 50
90.0000
  0
CIRCLE
  8
44
 10
25.4000
 20
20.3200
 30
0.0000
 40
0.4064
  0
INSERT
  8
17
  2
OCTAGONP
 10
25.4000
 20
27.9400
 30
0.0000
 41
1.3208
 42
1.3208
 43
1.0000
 50
90.0000
  0
CIRCLE
  8
44
 10
25.4000
 20
27.9400
 30
0.0000
 40
0.4064
  0
INSERT
  8
17
  2
OCTAGONP
 10
17.7800
 20
20.3200
 30
0.0000
 41
1.3208
 42
1.3208
 43
1.0000
 50
90.0000
  0
CIRCLE
  8
44
 10
17.7800
 20
20.3200
 30
0.0000
 40
0.4064
  0
INSERT
  8
17
  2
OCTAGONP
 10
17.7800
 20
27.9400
 30
0.0000
 41
1.3208
 42
1.3208
 43
1.0000
 50
90.0000
  0
CIRCLE
  8
44
 10
17.7800
 20
27.9400
 30
0.0000
 40
0.4064
  0
INSERT
  8
17
  2
OCTAGONP
 10
10.1600
 20
20.3200
 30
0.0000
 41
1.3208
 42
1.3208
 43
1.0000
 50
90.0000
  0
CIRCLE
  8
44
 10
10.1600
 20
20.3200
 30
0.0000
 40
0.4064
  0
INSERT
  8
17
  2
OCTAGONP
 10
10.1600
 20
27.9400
 30
0.0000
 41
1.3208
 42
1.3208
 43
1.0000
 50
90.0000
  0
CIRCLE
  8
44
 10
10.1600
 20
27.9400
 30
0.0000
 40
0.4064
  0
INSERT
  8
17
  2
OCTAGONP
 10
2.5400
 20
20.3200
 30
0.0000
 41
1.3208
 42
1.3208
 43
1.0000
 50
90.0000
  0
CIRCLE
  8
44
 10
2.5400
 20
20.3200
 30
0.0000
 40
0.4064
  0
INSERT
  8
17
  2
OCTAGONP
 10
2.5400
 20
27.9400
 30
0.0000
 41
1.3208
 42
1.3208
 43
1.0000
 50
90.0000
  0
CIRCLE
  8
44
 10
2.5400
 20
27.9400
 30
0.0000
 40
0.4064
  0
INSERT
  8
17
  2
LONGP100
 10
63.5000
 20
16.5100
 30
0.0000
 41
1.8000
 42
1.8000
 43
1.0000
 50
90.0000
  0
CIRCLE
  8
44
 10
63.5000
 20
16.5100
 30
0.0000
 40
0.6000
  0
INSERT
  8
17
  2
LONGP100
 10
66.0400
 20
16.5100
 30
0.0000
 41
1.8000
 42
1.8000
 43
1.0000
 50
90.0000
  0
CIRCLE
  8
44
 10
66.0400
 20
16.5100
 30
0.0000
 40
0.6000
  0
INSERT
  8
17
  2
LONGP100
 10
55.8800
 20
16.5100
 30
0.0000
 41
1.8000
 42
1.8000
 43
1.0000
 50
90.0000
  0
CIRCLE
  8
44
 10
55.8800
 20
16.5100
 30
0.0000
 40
0.6000
  0
INSERT
  8
17
  2
LONGP100
 10
58.4200
 20
16.5100
 30
0.0000
 41
1.8000
 42
1.8000
 43
1.0000
 50
90.0000
  0
CIRCLE
  8
44
 10
58.4200
 20
16.5100
 30
0.0000
 40
0.6000
  0
INSERT
  8
17
  2
LONGP100
 10
48.2600
 20
16.5100
 30
0.0000
 41
1.8000
 42
1.8000
 43
1.0000
 50
90.0000
  0
CIRCLE
  8
44
 10
48.2600
 20
16.5100
 30
0.0000
 40
0.6000
  0
INSERT
  8
17
  2
LONGP100
 10
50.8000
 20
16.5100
 30
0.0000
 41
1.8000
 42
1.8000
 43
1.0000
 50
90.0000
  0
CIRCLE
  8
44
 10
50.8000
 20
16.5100
 30
0.0000
 40
0.6000
  0
INSERT
  8
17
  2
LONGP100
 10
40.6400
 20
16.5100
 30
0.0000
 41
1.8000
 42
1.8000
 43
1.0000
 50
90.0000
  0
CIRCLE
  8
44
 10
40.6400
 20
16.5100
 30
0.0000
 40
0.6000
  0
INSERT
  8
17
  2
LONGP100
 10
43.1800
 20
16.5100
 30
0.0000
 41
1.8000
 42
1.8000
 43
1.0000
 50
90.0000
  0
CIRCLE
  8
44
 10
43.1800
 20
16.5100
 30
0.0000
 40
0.6000
  0
INSERT
  8
17
  2
LONGP100
 10
33.0200
 20
16.5100
 30
0.0000
 41
1.8000
 42
1.8000
 43
1.0000
 50
90.0000
  0
CIRCLE
  8
44
 10
33.0200
 20
16.5100
 30
0.0000
 40
0.6000
  0
INSERT
  8
17
  2
LONGP100
 10
35.5600
 20
16.5100
 30
0.0000
 41
1.8000
 42
1.8000
 43
1.0000
 50
90.0000
  0
CIRCLE
  8
44
 10
35.5600
 20
16.5100
 30
0.0000
 40
0.6000
  0
INSERT
  8
17
  2
LONGP100
 10
25.4000
 20
16.5100
 30
0.0000
 41
1.8000
 42
1.8000
 43
1.0000
 50
90.0000
  0
CIRCLE
  8
44
 10
25.4000
 20
16.5100
 30
0.0000
 40
0.6000
  0
INSERT
  8
17
  2
LONGP100
 10
27.9400
 20
16.5100
 30
0.0000
 41
1.8000
 42
1.8000
 43
1.0000
 50
90.0000
  0
CIRCLE
  8
44
 10
27.9400
 20
16.5100
 30
0.0000
 40
0.6000
  0
INSERT
  8
17
  2
LONGP100
 10
17.7800
 20
16.5100
 30
0.0000
 41
1.8000
 42
1.8000
 43
1.0000
 50
90.0000
  0
CIRCLE
  8
44
 10
17.7800
 20
16.5100
 30
0.0000
 40
0.6000
  0
INSERT
  8
17
  2
LONGP100
 10
20.3200
 20
16.5100
 30
0.0000
 41
1.8000
 42
1.8000
 43
1.0000
 50
90.0000
  0
CIRCLE
  8
44
 10
20.3200
 20
16.5100
 30
0.0000
 40
0.6000
  0
INSERT
  8
17
  2
LONGP100
 10
10.1600
 20
16.5100
 30
0.0000
 41
1.8000
 42
1.8000
 43
1.0000
 50
90.0000
  0
CIRCLE
  8
44
 10
10.1600
 20
16.5100
 30
0.0000
 40
0.6000
  0
INSERT
  8
17
  2
LONGP100
 10
12.7000
 20
16.5100
 30
0.0000
 41
1.8000
 42
1.8000
 43
1.0000
 50
90.0000
  0
CIRCLE
  8
44
 10
12.7000
 20
16.5100
 30
0.0000
 40
0.6000
  0
INSERT
  8
17
  2
LONGP100
 10
2.5400
 20
16.5100
 30
0.0000
 41
1.8000
 42
1.8000
 43
1.0000
 50
90.0000
  0
CIRCLE
  8
44
 10
2.5400
 20
16.5100
 30
0.0000
 40
0.6000
  0
INSERT
  8
17
  2
LONGP100
 10
5.0800
 20
16.5100
 30
0.0000
 41
1.8000
 42
1.8000
 43
1.0000
 50
90.0000
  0
CIRCLE
  8
44
 10
5.0800
 20
16.5100
 30
0.0000
 40
0.6000
  0
INSERT
  8
17
  2
LONGP100
 10
2.5400
 20
31.7500
 30
0.0000
 41
1.8000
 42
1.8000
 43
1.0000
 50
90.0000
  0
CIRCLE
  8
44
 10
2.5400
 20
31.7500
 30
0.0000
 40
0.6000
  0
INSERT
  8
17
  2
LONGP100
 10
5.0800
 20
31.7500
 30
0.0000
 41
1.8000
 42
1.8000
 43
1.0000
 50
90.0000
  0
CIRCLE
  8
44
 10
5.0800
 20
31.7500
 30
0.0000
 40
0.6000
  0
INSERT
  8
17
  2
LONGP100
 10
22.8600
 20
36.8300
 30
0.0000
 41
1.8000
 42
1.8000
 43
1.0000
 50
270.0000
  0
CIRCLE
  8
44
 10
22.8600
 20
36.8300
 30
0.0000
 40
0.6000
  0
INSERT
  8
17
  2
LONGP100
 10
20.3200
 20
36.8300
 30
0.0000
 41
1.8000
 42
1.8000
 43
1.0000
 50
270.0000
  0
CIRCLE
  8
44
 10
20.3200
 20
36.8300
 30
0.0000
 40
0.6000
  0
INSERT
  8
17
  2
LONGP100
 10
17.7800
 20
36.8300
 30
0.0000
 41
1.8000
 42
1.8000
 43
1.0000
 50
270.0000
  0
CIRCLE
  8
44
 10
17.7800
 20
36.8300
 30
0.0000
 40
0.6000
  0
INSERT
  8
17
  2
LONGP100
 10
15.2400
 20
36.8300
 30
0.0000
 41
1.8000
 42
1.8000
 43
1.0000
 50
270.0000
  0
CIRCLE
  8
44
 10
15.2400
 20
36.8300
 30
0.0000
 40
0.6000
  0
INSERT
  8
17
  2
LONGP100
 10
12.7000
 20
36.8300
 30
0.0000
 41
1.8000
 42
1.8000
 43
1.0000
 50
270.0000
  0
CIRCLE
  8
44
 10
12.7000
 20
36.8300
 30
0.0000
 40
0.6000
  0
INSERT
  8
17
  2
LONGP100
 10
10.1600
 20
36.8300
 30
0.0000
 41
1.8000
 42
1.8000
 43
1.0000
 50
270.0000
  0
CIRCLE
  8
44
 10
10.1600
 20
36.8300
 30
0.0000
 40
0.6000
  0
INSERT
  8
17
  2
LONGP100
 10
7.6200
 20
36.8300
 30
0.0000
 41
1.8000
 42
1.8000
 43
1.0000
 50
270.0000
  0
CIRCLE
  8
44
 10
7.6200
 20
36.8300
 30
0.0000
 40
0.6000
  0
INSERT
  8
17
  2
LONGP100
 10
5.0800
 20
36.8300
 30
0.0000
 41
1.8000
 42
1.8000
 43
1.0000
 50
270.0000
  0
CIRCLE
  8
44
 10
5.0800
 20
36.8300
 30
0.0000
 40
0.6000
  0
INSERT
  8
17
  2
LONGP100
 10
2.5400
 20
36.8300
 30
0.0000
 41
1.8000
 42
1.8000
 43
1.0000
 50
270.0000
  0
CIRCLE
  8
44
 10
2.5400
 20
36.8300
 30
0.0000
 40
0.6000
  0
LINE
  8
16
 10
80.7976
 20
0.1524
 30
0.0000
 11
0.1524
 21
0.1524
 31
0.0000
  0
LINE
  8
16
 10
0.1524
 20
0.1524
 30
0.0000
 11
0.1524
 21
51.9076
 31
0.0000
  0
LINE
  8
16
 10
0.1524
 20
51.9076
 30
0.0000
 11
80.7976
 21
51.9076
 31
0.0000
  0
LINE
  8
16
 10
80.7976
 20
51.9076
 30
0.0000
 11
80.7976
 21
0.1524
 31
0.0000
  0
LINE
  8
16
 10
65.3796
 20
19.5414
 30
0.0000
 11
65.3796
 21
21.0986
 31
0.0000
  0
LINE
  8
16
 10
65.3796
 20
21.0986
 30
0.0000
 11
64.2786
 21
22.1996
 31
0.0000
  0
LINE
  8
16
 10
64.2786
 20
22.1996
 30
0.0000
 11
62.7214
 21
22.1996
 31
0.0000
  0
LINE
  8
16
 10
62.7214
 20
22.1996
 30
0.0000
 11
61.6204
 21
21.0986
 31
0.0000
  0
LINE
  8
16
 10
61.6204
 20
21.0986
 30
0.0000
 11
61.6204
 21
19.5414
 31
0.0000
  0
LINE
  8
16
 10
61.6204
 20
19.5414
 30
0.0000
 11
61.8744
 21
19.2874
 31
0.0000
  0
LINE
  8
16
 10
61.8744
 20
19.2874
 30
0.0000
 11
61.8744
 21
18.7814
 31
0.0000
  0
LINE
  8
16
 10
61.8744
 20
18.7814
 30
0.0000
 11
61.7034
 21
18.6104
 31
0.0000
  0
LINE
  8
16
 10
61.7034
 20
18.6104
 30
0.0000
 11
61.3808
 21
17.8315
 31
0.0000
  0
LINE
  8
16
 10
61.3808
 20
17.8315
 30
0.0000
 11
61.3808
 21
15.1885
 31
0.0000
  0
LINE
  8
16
 10
61.3808
 20
15.1885
 30
0.0000
 11
61.7034
 21
14.4096
 31
0.0000
  0
LINE
  8
16
 10
61.7034
 20
14.4096
 30
0.0000
 11
61.8744
 21
14.2386
 31
0.0000
  0
LINE
  8
16
 10
61.8744
 20
14.2386
 30
0.0000
 11
61.8744
 21
13.6466
 31
0.0000
  0
LINE
  8
16
 10
61.8744
 20
13.6466
 30
0.0000
 11
62.1192
 21
13.0556
 31
0.0000
  0
LINE
  8
16
 10
62.1192
 20
13.0556
 30
0.0000
 11
57.8233
 21
13.0556
 31
0.0000
  0
LINE
  8
16
 10
57.8233
 20
13.0556
 30
0.0000
 11
57.5056
 21
13.3733
 31
0.0000
  0
LINE
  8
16
 10
57.5056
 20
13.3733
 30
0.0000
 11
57.5056
 21
14.2386
 31
0.0000
  0
LINE
  8
16
 10
57.5056
 20
14.2386
 30
0.0000
 11
57.6766
 21
14.4096
 31
0.0000
  0
LINE
  8
16
 10
57.6766
 20
14.4096
 30
0.0000
 11
57.9992
 21
15.1885
 31
0.0000
  0
LINE
  8
16
 10
57.9992
 20
15.1885
 30
0.0000
 11
57.9992
 21
17.8315
 31
0.0000
  0
LINE
  8
16
 10
57.9992
 20
17.8315
 30
0.0000
 11
57.6766
 21
18.6104
 31
0.0000
  0
LINE
  8
16
 10
57.6766
 20
18.6104
 30
0.0000
 11
57.5056
 21
18.7814
 31
0.0000
  0
LINE
  8
16
 10
57.5056
 20
18.7814
 30
0.0000
 11
57.5056
 21
19.2874
 31
0.0000
  0
LINE
  8
16
 10
57.5056
 20
19.2874
 30
0.0000
 11
57.7596
 21
19.5414
 31
0.0000
  0
LINE
  8
16
 10
57.7596
 20
19.5414
 30
0.0000
 11
57.7596
 21
21.0986
 31
0.0000
  0
LINE
  8
16
 10
57.7596
 20
21.0986
 30
0.0000
 11
56.6586
 21
22.1996
 31
0.0000
  0
LINE
  8
16
 10
56.6586
 20
22.1996
 30
0.0000
 11
55.1014
 21
22.1996
 31
0.0000
  0
LINE
  8
16
 10
55.1014
 20
22.1996
 30
0.0000
 11
54.0004
 21
21.0986
 31
0.0000
  0
LINE
  8
16
 10
54.0004
 20
21.0986
 30
0.0000
 11
54.0004
 21
19.5414
 31
0.0000
  0
LINE
  8
16
 10
54.0004
 20
19.5414
 30
0.0000
 11
54.2544
 21
19.2874
 31
0.0000
  0
LINE
  8
16
 10
54.2544
 20
19.2874
 30
0.0000
 11
54.2544
 21
18.7814
 31
0.0000
  0
LINE
  8
16
 10
54.2544
 20
18.7814
 30
0.0000
 11
54.0834
 21
18.6104
 31
0.0000
  0
LINE
  8
16
 10
54.0834
 20
18.6104
 30
0.0000
 11
53.7608
 21
17.8315
 31
0.0000
  0
LINE
  8
16
 10
53.7608
 20
17.8315
 30
0.0000
 11
53.7608
 21
15.1885
 31
0.0000
  0
LINE
  8
16
 10
53.7608
 20
15.1885
 30
0.0000
 11
54.0834
 21
14.4096
 31
0.0000
  0
LINE
  8
16
 10
54.0834
 20
14.4096
 30
0.0000
 11
54.2544
 21
14.2386
 31
0.0000
  0
LINE
  8
16
 10
54.2544
 20
14.2386
 30
0.0000
 11
54.2544
 21
12.3766
 31
0.0000
  0
LINE
  8
16
 10
54.2544
 20
12.3766
 30
0.0000
 11
54.4992
 21
11.7856
 31
0.0000
  0
LINE
  8
16
 10
54.4992
 20
11.7856
 30
0.0000
 11
50.2033
 21
11.7856
 31
0.0000
  0
LINE
  8
16
 10
50.2033
 20
11.7856
 30
0.0000
 11
49.8856
 21
12.1033
 31
0.0000
  0
LINE
  8
16
 10
49.8856
 20
12.1033
 30
0.0000
 11
49.8856
 21
14.2386
 31
0.0000
  0
LINE
  8
16
 10
49.8856
 20
14.2386
 30
0.0000
 11
50.0566
 21
14.4096
 31
0.0000
  0
LINE
  8
16
 10
50.0566
 20
14.4096
 30
0.0000
 11
50.3792
 21
15.1885
 31
0.0000
  0
LINE
  8
16
 10
50.3792
 20
15.1885
 30
0.0000
 11
50.3792
 21
17.8315
 31
0.0000
  0
LINE
  8
16
 10
50.3792
 20
17.8315
 30
0.0000
 11
50.0566
 21
18.6104
 31
0.0000
  0
LINE
  8
16
 10
50.0566
 20
18.6104
 30
0.0000
 11
49.8856
 21
18.7814
 31
0.0000
  0
LINE
  8
16
 10
49.8856
 20
18.7814
 30
0.0000
 11
49.8856
 21
19.2874
 31
0.0000
  0
LINE
  8
16
 10
49.8856
 20
19.2874
 30
0.0000
 11
50.1396
 21
19.5414
 31
0.0000
  0
LINE
  8
16
 10
50.1396
 20
19.5414
 30
0.0000
 11
50.1396
 21
21.0986
 31
0.0000
  0
LINE
  8
16
 10
50.1396
 20
21.0986
 30
0.0000
 11
49.0386
 21
22.1996
 31
0.0000
  0
LINE
  8
16
 10
49.0386
 20
22.1996
 30
0.0000
 11
47.4814
 21
22.1996
 31
0.0000
  0
LINE
  8
16
 10
47.4814
 20
22.1996
 30
0.0000
 11
46.3804
 21
21.0986
 31
0.0000
  0
LINE
  8
16
 10
46.3804
 20
21.0986
 30
0.0000
 11
46.3804
 21
19.5414
 31
0.0000
  0
LINE
  8
16
 10
46.3804
 20
19.5414
 30
0.0000
 11
46.6344
 21
19.2874
 31
0.0000
  0
LINE
  8
16
 10
46.6344
 20
19.2874
 30
0.0000
 11
46.6344
 21
18.7814
 31
0.0000
  0
LINE
  8
16
 10
46.6344
 20
18.7814
 30
0.0000
 11
46.4634
 21
18.6104
 31
0.0000
  0
LINE
  8
16
 10
46.4634
 20
18.6104
 30
0.0000
 11
46.1408
 21
17.8315
 31
0.0000
  0
LINE
  8
16
 10
46.1408
 20
17.8315
 30
0.0000
 11
46.1408
 21
15.1885
 31
0.0000
  0
LINE
  8
16
 10
46.1408
 20
15.1885
 30
0.0000
 11
46.4634
 21
14.4096
 31
0.0000
  0
LINE
  8
16
 10
46.4634
 20
14.4096
 30
0.0000
 11
46.6344
 21
14.2386
 31
0.0000
  0
LINE
  8
16
 10
46.6344
 20
14.2386
 30
0.0000
 11
46.6344
 21
11.1066
 31
0.0000
  0
LINE
  8
16
 10
46.6344
 20
11.1066
 30
0.0000
 11
46.8792
 21
10.5156
 31
0.0000
  0
LINE
  8
16
 10
46.8792
 20
10.5156
 30
0.0000
 11
42.5833
 21
10.5156
 31
0.0000
  0
LINE
  8
16
 10
42.5833
 20
10.5156
 30
0.0000
 11
42.2656
 21
10.8333
 31
0.0000
  0
LINE
  8
16
 10
42.2656
 20
10.8333
 30
0.0000
 11
42.2656
 21
14.2386
 31
0.0000
  0
LINE
  8
16
 10
42.2656
 20
14.2386
 30
0.0000
 11
42.4366
 21
14.4096
 31
0.0000
  0
LINE
  8
16
 10
42.4366
 20
14.4096
 30
0.0000
 11
42.7592
 21
15.1885
 31
0.0000
  0
LINE
  8
16
 10
42.7592
 20
15.1885
 30
0.0000
 11
42.7592
 21
17.8315
 31
0.0000
  0
LINE
  8
16
 10
42.7592
 20
17.8315
 30
0.0000
 11
42.4366
 21
18.6104
 31
0.0000
  0
LINE
  8
16
 10
42.4366
 20
18.6104
 30
0.0000
 11
42.2656
 21
18.7814
 31
0.0000
  0
LINE
  8
16
 10
42.2656
 20
18.7814
 30
0.0000
 11
42.2656
 21
19.2874
 31
0.0000
  0
LINE
  8
16
 10
42.2656
 20
19.2874
 30
0.0000
 11
42.5196
 21
19.5414
 31
0.0000
  0
LINE
  8
16
 10
42.5196
 20
19.5414
 30
0.0000
 11
42.5196
 21
21.0986
 31
0.0000
  0
LINE
  8
16
 10
42.5196
 20
21.0986
 30
0.0000
 11
41.4186
 21
22.1996
 31
0.0000
  0
LINE
  8
16
 10
41.4186
 20
22.1996
 30
0.0000
 11
39.8614
 21
22.1996
 31
0.0000
  0
LINE
  8
16
 10
39.8614
 20
22.1996
 30
0.0000
 11
38.7604
 21
21.0986
 31
0.0000
  0
LINE
  8
16
 10
38.7604
 20
21.0986
 30
0.0000
 11
38.7604
 21
19.5414
 31
0.0000
  0
LINE
  8
16
 10
38.7604
 20
19.5414
 30
0.0000
 11
39.0144
 21
19.2874
 31
0.0000
  0
LINE
  8
16
 10
39.0144
 20
19.2874
 30
0.0000
 11
39.0144
 21
18.7814
 31
0.0000
  0
LINE
  8
16
 10
39.0144
 20
18.7814
 30
0.0000
 11
38.8434
 21
18.6104
 31
0.0000
  0
LINE
  8
16
 10
38.8434
 20
18.6104
 30
0.0000
 11
38.5208
 21
17.8315
 31
0.0000
  0
LINE
  8
16
 10
38.5208
 20
17.8315
 30
0.0000
 11
38.5208
 21
15.1885
 31
0.0000
  0
LINE
  8
16
 10
38.5208
 20
15.1885
 30
0.0000
 11
38.8434
 21
14.4096
 31
0.0000
  0
LINE
  8
16
 10
38.8434
 20
14.4096
 30
0.0000
 11
39.0144
 21
14.2386
 31
0.0000
  0
LINE
  8
16
 10
39.0144
 20
14.2386
 30
0.0000
 11
39.0144
 21
9.8366
 31
0.0000
  0
LINE
  8
16
 10
39.0144
 20
9.8366
 30
0.0000
 11
39.2592
 21
9.2456
 31
0.0000
  0
LINE
  8
16
 10
39.2592
 20
9.2456
 30
0.0000
 11
34.9633
 21
9.2456
 31
0.0000
  0
LINE
  8
16
 10
34.9633
 20
9.2456
 30
0.0000
 11
34.6456
 21
9.5633
 31
0.0000
  0
LINE
  8
16
 10
34.6456
 20
9.5633
 30
0.0000
 11
34.6456
 21
14.2386
 31
0.0000
  0
LINE
  8
16
 10
34.6456
 20
14.2386
 30
0.0000
 11
34.8166
 21
14.4096
 31
0.0000
  0
LINE
  8
16
 10
34.8166
 20
14.4096
 30
0.0000
 11
35.1392
 21
15.1885
 31
0.0000
  0
LINE
  8
16
 10
35.1392
 20
15.1885
 30
0.0000
 11
35.1392
 21
17.8315
 31
0.0000
  0
LINE
  8
16
 10
35.1392
 20
17.8315
 30
0.0000
 11
34.8166
 21
18.6104
 31
0.0000
  0
LINE
  8
16
 10
34.8166
 20
18.6104
 30
0.0000
 11
34.6456
 21
18.7814
 31
0.0000
  0
LINE
  8
16
 10
34.6456
 20
18.7814
 30
0.0000
 11
34.6456
 21
19.2874
 31
0.0000
  0
LINE
  8
16
 10
34.6456
 20
19.2874
 30
0.0000
 11
34.8996
 21
19.5414
 31
0.0000
  0
LINE
  8
16
 10
34.8996
 20
19.5414
 30
0.0000
 11
34.8996
 21
21.0986
 31
0.0000
  0
LINE
  8
16
 10
34.8996
 20
21.0986
 30
0.0000
 11
33.7986
 21
22.1996
 31
0.0000
  0
LINE
  8
16
 10
33.7986
 20
22.1996
 30
0.0000
 11
32.2414
 21
22.1996
 31
0.0000
  0
LINE
  8
16
 10
32.2414
 20
22.1996
 30
0.0000
 11
31.1404
 21
21.0986
 31
0.0000
  0
LINE
  8
16
 10
31.1404
 20
21.0986
 30
0.0000
 11
31.1404
 21
19.5414
 31
0.0000
  0
LINE
  8
16
 10
31.1404
 20
19.5414
 30
0.0000
 11
31.3944
 21
19.2874
 31
0.0000
  0
LINE
  8
16
 10
31.3944
 20
19.2874
 30
0.0000
 11
31.3944
 21
18.7814
 31
0.0000
  0
LINE
  8
16
 10
31.3944
 20
18.7814
 30
0.0000
 11
31.2234
 21
18.6104
 31
0.0000
  0
LINE
  8
16
 10
31.2234
 20
18.6104
 30
0.0000
 11
30.9008
 21
17.8315
 31
0.0000
  0
LINE
  8
16
 10
30.9008
 20
17.8315
 30
0.0000
 11
30.9008
 21
15.1885
 31
0.0000
  0
LINE
  8
16
 10
30.9008
 20
15.1885
 30
0.0000
 11
31.2234
 21
14.4096
 31
0.0000
  0
LINE
  8
16
 10
31.2234
 20
14.4096
 30
0.0000
 11
31.3944
 21
14.2386
 31
0.0000
  0
LINE
  8
16
 10
31.3944
 20
14.2386
 30
0.0000
 11
31.3944
 21
8.5666
 31
0.0000
  0
LINE
  8
16
 10
31.3944
 20
8.5666
 30
0.0000
 11
31.6392
 21
7.9756
 31
0.0000
  0
LINE
  8
16
 10
31.6392
 20
7.9756
 30
0.0000
 11
27.3433
 21
7.9756
 31
0.0000
  0
LINE
  8
16
 10
27.3433
 20
7.9756
 30
0.0000
 11
27.0256
 21
8.2933
 31
0.0000
  0
LINE
  8
16
 10
27.0256
 20
8.2933
 30
0.0000
 11
27.0256
 21
14.2386
 31
0.0000
  0
LINE
  8
16
 10
27.0256
 20
14.2386
 30
0.0000
 11
27.1966
 21
14.4096
 31
0.0000
  0
LINE
  8
16
 10
27.1966
 20
14.4096
 30
0.0000
 11
27.5192
 21
15.1885
 31
0.0000
  0
LINE
  8
16
 10
27.5192
 20
15.1885
 30
0.0000
 11
27.5192
 21
17.8315
 31
0.0000
  0
LINE
  8
16
 10
27.5192
 20
17.8315
 30
0.0000
 11
27.1966
 21
18.6104
 31
0.0000
  0
LINE
  8
16
 10
27.1966
 20
18.6104
 30
0.0000
 11
27.0256
 21
18.7814
 31
0.0000
  0
LINE
  8
16
 10
27.0256
 20
18.7814
 30
0.0000
 11
27.0256
 21
19.2874
 31
0.0000
  0
LINE
  8
16
 10
27.0256
 20
19.2874
 30
0.0000
 11
27.2796
 21
19.5414
 31
0.0000
  0
LINE
  8
16
 10
27.2796
 20
19.5414
 30
0.0000
 11
27.2796
 21
21.0986
 31
0.0000
  0
LINE
  8
16
 10
27.2796
 20
21.0986
 30
0.0000
 11
26.1786
 21
22.1996
 31
0.0000
  0
LINE
  8
16
 10
26.1786
 20
22.1996
 30
0.0000
 11
24.6214
 21
22.1996
 31
0.0000
  0
LINE
  8
16
 10
24.6214
 20
22.1996
 30
0.0000
 11
23.5204
 21
21.0986
 31
0.0000
  0
LINE
  8
16
 10
23.5204
 20
21.0986
 30
0.0000
 11
23.5204
 21
19.5414
 31
0.0000
  0
LINE
  8
16
 10
23.5204
 20
19.5414
 30
0.0000
 11
23.7744
 21
19.2874
 31
0.0000
  0
LINE
  8
16
 10
23.7744
 20
19.2874
 30
0.0000
 11
23.7744
 21
18.7814
 31
0.0000
  0
LINE
  8
16
 10
23.7744
 20
18.7814
 30
0.0000
 11
23.6034
 21
18.6104
 31
0.0000
  0
LINE
  8
16
 10
23.6034
 20
18.6104
 30
0.0000
 11
23.2808
 21
17.8315
 31
0.0000
  0
LINE
  8
16
 10
23.2808
 20
17.8315
 30
0.0000
 11
23.2808
 21
15.1885
 31
0.0000
  0
LINE
  8
16
 10
23.2808
 20
15.1885
 30
0.0000
 11
23.6034
 21
14.4096
 31
0.0000
  0
LINE
  8
16
 10
23.6034
 20
14.4096
 30
0.0000
 11
23.7744
 21
14.2386
 31
0.0000
  0
LINE
  8
16
 10
23.7744
 20
14.2386
 30
0.0000
 11
23.7744
 21
7.2966
 31
0.0000
  0
LINE
  8
16
 10
23.7744
 20
7.2966
 30
0.0000
 11
24.0192
 21
6.7056
 31
0.0000
  0
LINE
  8
16
 10
24.0192
 20
6.7056
 30
0.0000
 11
19.7233
 21
6.7056
 31
0.0000
  0
LINE
  8
16
 10
19.7233
 20
6.7056
 30
0.0000
 11
19.4056
 21
7.0233
 31
0.0000
  0
LINE
  8
16
 10
19.4056
 20
7.0233
 30
0.0000
 11
19.4056
 21
14.2386
 31
0.0000
  0
LINE
  8
16
 10
19.4056
 20
14.2386
 30
0.0000
 11
19.5766
 21
14.4096
 31
0.0000
  0
LINE
  8
16
 10
19.5766
 20
14.4096
 30
0.0000
 11
19.8992
 21
15.1885
 31
0.0000
  0
LINE
  8
16
 10
19.8992
 20
15.1885
 30
0.0000
 11
19.8992
 21
17.8315
 31
0.0000
  0
LINE
  8
16
 10
19.8992
 20
17.8315
 30
0.0000
 11
19.5766
 21
18.6104
 31
0.0000
  0
LINE
  8
16
 10
19.5766
 20
18.6104
 30
0.0000
 11
19.4056
 21
18.7814
 31
0.0000
  0
LINE
  8
16
 10
19.4056
 20
18.7814
 30
0.0000
 11
19.4056
 21
19.2874
 31
0.0000
  0
LINE
  8
16
 10
19.4056
 20
19.2874
 30
0.0000
 11
19.6596
 21
19.5414
 31
0.0000
  0
LINE
  8
16
 10
19.6596
 20
19.5414
 30
0.0000
 11
19.6596
 21
21.0986
 31
0.0000
  0
LINE
  8
16
 10
19.6596
 20
21.0986
 30
0.0000
 11
18.5586
 21
22.1996
 31
0.0000
  0
LINE
  8
16
 10
18.5586
 20
22.1996
 30
0.0000
 11
17.0014
 21
22.1996
 31
0.0000
  0
LINE
  8
16
 10
17.0014
 20
22.1996
 30
0.0000
 11
15.9004
 21
21.0986
 31
0.0000
  0
LINE
  8
16
 10
15.9004
 20
21.0986
 30
0.0000
 11
15.9004
 21
19.5414
 31
0.0000
  0
LINE
  8
16
 10
15.9004
 20
19.5414
 30
0.0000
 11
16.1544
 21
19.2874
 31
0.0000
  0
LINE
  8
16
 10
16.1544
 20
19.2874
 30
0.0000
 11
16.1544
 21
18.7814
 31
0.0000
  0
LINE
  8
16
 10
16.1544
 20
18.7814
 30
0.0000
 11
15.9834
 21
18.6104
 31
0.0000
  0
LINE
  8
16
 10
15.9834
 20
18.6104
 30
0.0000
 11
15.6608
 21
17.8315
 31
0.0000
  0
LINE
  8
16
 10
15.6608
 20
17.8315
 30
0.0000
 11
15.6608
 21
15.1885
 31
0.0000
  0
LINE
  8
16
 10
15.6608
 20
15.1885
 30
0.0000
 11
15.9834
 21
14.4096
 31
0.0000
  0
LINE
  8
16
 10
15.9834
 20
14.4096
 30
0.0000
 11
16.1544
 21
14.2386
 31
0.0000
  0
LINE
  8
16
 10
16.1544
 20
14.2386
 30
0.0000
 11
16.1544
 21
6.0266
 31
0.0000
  0
LINE
  8
16
 10
16.1544
 20
6.0266
 30
0.0000
 11
16.3992
 21
5.4356
 31
0.0000
  0
LINE
  8
16
 10
16.3992
 20
5.4356
 30
0.0000
 11
12.1033
 21
5.4356
 31
0.0000
  0
LINE
  8
16
 10
12.1033
 20
5.4356
 30
0.0000
 11
11.7856
 21
5.7533
 31
0.0000
  0
LINE
  8
16
 10
11.7856
 20
5.7533
 30
0.0000
 11
11.7856
 21
14.2386
 31
0.0000
  0
LINE
  8
16
 10
11.7856
 20
14.2386
 30
0.0000
 11
11.9566
 21
14.4096
 31
0.0000
  0
LINE
  8
16
 10
11.9566
 20
14.4096
 30
0.0000
 11
12.2792
 21
15.1885
 31
0.0000
  0
LINE
  8
16
 10
12.2792
 20
15.1885
 30
0.0000
 11
12.2792
 21
17.8315
 31
0.0000
  0
LINE
  8
16
 10
12.2792
 20
17.8315
 30
0.0000
 11
11.9566
 21
18.6104
 31
0.0000
  0
LINE
  8
16
 10
11.9566
 20
18.6104
 30
0.0000
 11
11.7856
 21
18.7814
 31
0.0000
  0
LINE
  8
16
 10
11.7856
 20
18.7814
 30
0.0000
 11
11.7856
 21
19.2874
 31
0.0000
  0
LINE
  8
16
 10
11.7856
 20
19.2874
 30
0.0000
 11
12.0396
 21
19.5414
 31
0.0000
  0
LINE
  8
16
 10
12.0396
 20
19.5414
 30
0.0000
 11
12.0396
 21
21.0986
 31
0.0000
  0
LINE
  8
16
 10
12.0396
 20
21.0986
 30
0.0000
 11
10.9386
 21
22.1996
 31
0.0000
  0
LINE
  8
16
 10
10.9386
 20
22.1996
 30
0.0000
 11
9.3814
 21
22.1996
 31
0.0000
  0
LINE
  8
16
 10
9.3814
 20
22.1996
 30
0.0000
 11
8.2804
 21
21.0986
 31
0.0000
  0
LINE
  8
16
 10
8.2804
 20
21.0986
 30
0.0000
 11
8.2804
 21
19.5414
 31
0.0000
  0
LINE
  8
16
 10
8.2804
 20
19.5414
 30
0.0000
 11
8.5344
 21
19.2874
 31
0.0000
  0
LINE
  8
16
 10
8.5344
 20
19.2874
 30
0.0000
 11
8.5344
 21
18.7814
 31
0.0000
  0
LINE
  8
16
 10
8.5344
 20
18.7814
 30
0.0000
 11
8.3634
 21
18.6104
 31
0.0000
  0
LINE
  8
16
 10
8.3634
 20
18.6104
 30
0.0000
 11
8.0408
 21
17.8315
 31
0.0000
  0
LINE
  8
16
 10
8.0408
 20
17.8315
 30
0.0000
 11
8.0408
 21
15.1885
 31
0.0000
  0
LINE
  8
16
 10
8.0408
 20
15.1885
 30
0.0000
 11
8.3634
 21
14.4096
 31
0.0000
  0
LINE
  8
16
 10
8.3634
 20
14.4096
 30
0.0000
 11
8.5344
 21
14.2386
 31
0.0000
  0
LINE
  8
16
 10
8.5344
 20
14.2386
 30
0.0000
 11
8.5344
 21
4.7566
 31
0.0000
  0
LINE
  8
16
 10
8.5344
 20
4.7566
 30
0.0000
 11
8.7792
 21
4.1656
 31
0.0000
  0
LINE
  8
16
 10
8.7792
 20
4.1656
 30
0.0000
 11
4.4833
 21
4.1656
 31
0.0000
  0
LINE
  8
16
 10
4.4833
 20
4.1656
 30
0.0000
 11
4.1656
 21
4.4833
 31
0.0000
  0
LINE
  8
16
 10
4.1656
 20
4.4833
 30
0.0000
 11
4.1656
 21
14.2386
 31
0.0000
  0
LINE
  8
16
 10
4.1656
 20
14.2386
 30
0.0000
 11
4.3366
 21
14.4096
 31
0.0000
  0
LINE
  8
16
 10
4.3366
 20
14.4096
 30
0.0000
 11
4.6592
 21
15.1885
 31
0.0000
  0
LINE
  8
16
 10
4.6592
 20
15.1885
 30
0.0000
 11
4.6592
 21
17.8315
 31
0.0000
  0
LINE
  8
16
 10
4.6592
 20
17.8315
 30
0.0000
 11
4.3366
 21
18.6104
 31
0.0000
  0
LINE
  8
16
 10
4.3366
 20
18.6104
 30
0.0000
 11
4.1656
 21
18.7814
 31
0.0000
  0
LINE
  8
16
 10
4.1656
 20
18.7814
 30
0.0000
 11
4.1656
 21
19.2874
 31
0.0000
  0
LINE
  8
16
 10
4.1656
 20
19.2874
 30
0.0000
 11
4.4196
 21
19.5414
 31
0.0000
  0
LINE
  8
16
 10
4.4196
 20
19.5414
 30
0.0000
 11
4.4196
 21
21.0986
 31
0.0000
  0
LINE
  8
16
 10
4.4196
 20
21.0986
 30
0.0000
 11
3.3186
 21
22.1996
 31
0.0000
  0
LINE
  8
16
 10
3.3186
 20
22.1996
 30
0.0000
 11
1.7614
 21
22.1996
 31
0.0000
  0
LINE
  8
16
 10
1.7614
 20
22.1996
 30
0.0000
 11
0.6604
 21
21.0986
 31
0.0000
  0
LINE
  8
16
 10
0.6604
 20
21.0986
 30
0.0000
 11
0.6604
 21
19.5414
 31
0.0000
  0
LINE
  8
16
 10
0.6604
 20
19.5414
 30
0.0000
 11
0.9144
 21
19.2874
 31
0.0000
  0
LINE
  8
16
 10
0.9144
 20
19.2874
 30
0.0000
 11
0.9144
 21
18.7814
 31
0.0000
  0
LINE
  8
16
 10
0.9144
 20
18.7814
 30
0.0000
 11
0.7434
 21
18.6104
 31
0.0000
  0
LINE
  8
16
 10
0.7434
 20
18.6104
 30
0.0000
 11
0.4208
 21
17.8315
 31
0.0000
  0
LINE
  8
16
 10
0.4208
 20
17.8315
 30
0.0000
 11
0.4208
 21
15.1885
 31
0.0000
  0
LINE
  8
16
 10
0.4208
 20
15.1885
 30
0.0000
 11
0.7434
 21
14.4096
 31
0.0000
  0
LINE
  8
16
 10
0.7434
 20
14.4096
 30
0.0000
 11
0.9144
 21
14.2386
 31
0.0000
  0
LINE
  8
16
 10
0.9144
 20
14.2386
 30
0.0000
 11
0.9144
 21
3.4866
 31
0.0000
  0
LINE
  8
16
 10
0.9144
 20
3.4866
 30
0.0000
 11
1.1619
 21
2.8892
 31
0.0000
  0
LINE
  8
16
 10
1.1619
 20
2.8892
 30
0.0000
 11
2.4319
 21
1.6192
 31
0.0000
  0
LINE
  8
16
 10
2.4319
 20
1.6192
 30
0.0000
 11
2.8892
 21
1.1619
 31
0.0000
  0
LINE
  8
16
 10
2.8892
 20
1.1619
 30
0.0000
 11
3.4866
 21
0.9144
 31
0.0000
  0
LINE
  8
16
 10
3.4866
 20
0.9144
 30
0.0000
 11
77.7934
 21
0.9144
 31
0.0000
  0
LINE
  8
16
 10
77.7934
 20
0.9144
 30
0.0000
 11
78.3908
 21
1.1619
 31
0.0000
  0
LINE
  8
16
 10
78.3908
 20
1.1619
 30
0.0000
 11
79.6608
 21
2.4319
 31
0.0000
  0
LINE
  8
16
 10
79.6608
 20
2.4319
 30
0.0000
 11
80.1181
 21
2.8892
 31
0.0000
  0
LINE
  8
16
 10
80.1181
 20
2.8892
 30
0.0000
 11
80.3656
 21
3.4866
 31
0.0000
  0
LINE
  8
16
 10
80.3656
 20
3.4866
 30
0.0000
 11
80.3656
 21
40.9634
 31
0.0000
  0
LINE
  8
16
 10
80.3656
 20
40.9634
 30
0.0000
 11
80.1181
 21
41.5608
 31
0.0000
  0
LINE
  8
16
 10
80.1181
 20
41.5608
 30
0.0000
 11
77.5781
 21
44.1008
 31
0.0000
  0
LINE
  8
16
 10
77.5781
 20
44.1008
 30
0.0000
 11
77.1208
 21
44.5581
 31
0.0000
  0
LINE
  8
16
 10
77.1208
 20
44.5581
 30
0.0000
 11
76.5234
 21
44.8056
 31
0.0000
  0
LINE
  8
16
 10
76.5234
 20
44.8056
 30
0.0000
 11
36.2333
 21
44.8056
 31
0.0000
  0
LINE
  8
16
 10
36.2333
 20
44.8056
 30
0.0000
 11
35.9156
 21
45.1233
 31
0.0000
  0
LINE
  8
16
 10
35.9156
 20
45.1233
 30
0.0000
 11
35.9156
 21
48.5834
 31
0.0000
  0
LINE
  8
16
 10
35.9156
 20
48.5834
 30
0.0000
 11
35.6681
 21
49.1808
 31
0.0000
  0
LINE
  8
16
 10
35.6681
 20
49.1808
 30
0.0000
 11
34.3981
 21
50.4508
 31
0.0000
  0
LINE
  8
16
 10
34.3981
 20
50.4508
 30
0.0000
 11
33.9408
 21
50.9081
 31
0.0000
  0
LINE
  8
16
 10
33.9408
 20
50.9081
 30
0.0000
 11
33.3434
 21
51.1556
 31
0.0000
  0
LINE
  8
16
 10
33.3434
 20
51.1556
 30
0.0000
 11
3.4866
 21
51.1556
 31
0.0000
  0
LINE
  8
16
 10
3.4866
 20
51.1556
 30
0.0000
 11
2.8892
 21
50.9081
 31
0.0000
  0
LINE
  8
16
 10
2.8892
 20
50.9081
 30
0.0000
 11
1.6192
 21
49.6381
 31
0.0000
  0
LINE
  8
16
 10
1.6192
 20
49.6381
 30
0.0000
 11
1.1619
 21
49.1808
 31
0.0000
  0
LINE
  8
16
 10
1.1619
 20
49.1808
 30
0.0000
 11
0.9144
 21
48.5834
 31
0.0000
  0
LINE
  8
16
 10
0.9144
 20
48.5834
 30
0.0000
 11
0.9144
 21
39.1014
 31
0.0000
  0
LINE
  8
16
 10
0.9144
 20
39.1014
 30
0.0000
 11
0.7434
 21
38.9304
 31
0.0000
  0
LINE
  8
16
 10
0.7434
 20
38.9304
 30
0.0000
 11
0.4208
 21
38.1515
 31
0.0000
  0
LINE
  8
16
 10
0.4208
 20
38.1515
 30
0.0000
 11
0.4208
 21
35.5085
 31
0.0000
  0
LINE
  8
16
 10
0.4208
 20
35.5085
 30
0.0000
 11
0.7434
 21
34.7296
 31
0.0000
  0
LINE
  8
16
 10
0.7434
 20
34.7296
 30
0.0000
 11
1.1830
 21
34.2900
 31
0.0000
  0
LINE
  8
16
 10
1.1830
 20
34.2900
 30
0.0000
 11
0.7434
 21
33.8504
 31
0.0000
  0
LINE
  8
16
 10
0.7434
 20
33.8504
 30
0.0000
 11
0.4208
 21
33.0715
 31
0.0000
  0
LINE
  8
16
 10
0.4208
 20
33.0715
 30
0.0000
 11
0.4208
 21
30.4285
 31
0.0000
  0
LINE
  8
16
 10
0.4208
 20
30.4285
 30
0.0000
 11
0.7434
 21
29.6496
 31
0.0000
  0
LINE
  8
16
 10
0.7434
 20
29.6496
 30
0.0000
 11
0.9144
 21
29.4786
 31
0.0000
  0
LINE
  8
16
 10
0.9144
 20
29.4786
 30
0.0000
 11
0.9144
 21
28.9726
 31
0.0000
  0
LINE
  8
16
 10
0.9144
 20
28.9726
 30
0.0000
 11
0.6604
 21
28.7186
 31
0.0000
  0
LINE
  8
16
 10
0.6604
 20
28.7186
 30
0.0000
 11
0.6604
 21
27.1614
 31
0.0000
  0
LINE
  8
16
 10
0.6604
 20
27.1614
 30
0.0000
 11
1.7614
 21
26.0604
 31
0.0000
  0
LINE
  8
16
 10
1.7614
 20
26.0604
 30
0.0000
 11
3.3186
 21
26.0604
 31
0.0000
  0
LINE
  8
16
 10
3.3186
 20
26.0604
 30
0.0000
 11
3.5726
 21
26.3144
 31
0.0000
  0
LINE
  8
16
 10
3.5726
 20
26.3144
 30
0.0000
 11
9.1274
 21
26.3144
 31
0.0000
  0
LINE
  8
16
 10
9.1274
 20
26.3144
 30
0.0000
 11
9.3814
 21
26.0604
 31
0.0000
  0
LINE
  8
16
 10
9.3814
 20
26.0604
 30
0.0000
 11
10.9386
 21
26.0604
 31
0.0000
  0
LINE
  8
16
 10
10.9386
 20
26.0604
 30
0.0000
 11
11.1926
 21
26.3144
 31
0.0000
  0
LINE
  8
16
 10
11.1926
 20
26.3144
 30
0.0000
 11
16.7474
 21
26.3144
 31
0.0000
  0
LINE
  8
16
 10
16.7474
 20
26.3144
 30
0.0000
 11
17.0014
 21
26.0604
 31
0.0000
  0
LINE
  8
16
 10
17.0014
 20
26.0604
 30
0.0000
 11
18.5586
 21
26.0604
 31
0.0000
  0
LINE
  8
16
 10
18.5586
 20
26.0604
 30
0.0000
 11
18.8126
 21
26.3144
 31
0.0000
  0
LINE
  8
16
 10
18.8126
 20
26.3144
 30
0.0000
 11
24.3674
 21
26.3144
 31
0.0000
  0
LINE
  8
16
 10
24.3674
 20
26.3144
 30
0.0000
 11
24.6214
 21
26.0604
 31
0.0000
  0
LINE
  8
16
 10
24.6214
 20
26.0604
 30
0.0000
 11
26.1786
 21
26.0604
 31
0.0000
  0
LINE
  8
16
 10
26.1786
 20
26.0604
 30
0.0000
 11
26.4326
 21
26.3144
 31
0.0000
  0
LINE
  8
16
 10
26.4326
 20
26.3144
 30
0.0000
 11
31.9874
 21
26.3144
 31
0.0000
  0
LINE
  8
16
 10
31.9874
 20
26.3144
 30
0.0000
 11
32.2414
 21
26.0604
 31
0.0000
  0
LINE
  8
16
 10
32.2414
 20
26.0604
 30
0.0000
 11
33.7986
 21
26.0604
 31
0.0000
  0
LINE
  8
16
 10
33.7986
 20
26.0604
 30
0.0000
 11
34.0526
 21
26.3144
 31
0.0000
  0
LINE
  8
16
 10
34.0526
 20
26.3144
 30
0.0000
 11
39.6074
 21
26.3144
 31
0.0000
  0
LINE
  8
16
 10
39.6074
 20
26.3144
 30
0.0000
 11
39.8614
 21
26.0604
 31
0.0000
  0
LINE
  8
16
 10
39.8614
 20
26.0604
 30
0.0000
 11
41.4186
 21
26.0604
 31
0.0000
  0
LINE
  8
16
 10
41.4186
 20
26.0604
 30
0.0000
 11
41.6726
 21
26.3144
 31
0.0000
  0
LINE
  8
16
 10
41.6726
 20
26.3144
 30
0.0000
 11
47.2274
 21
26.3144
 31
0.0000
  0
LINE
  8
16
 10
47.2274
 20
26.3144
 30
0.0000
 11
47.4814
 21
26.0604
 31
0.0000
  0
LINE
  8
16
 10
47.4814
 20
26.0604
 30
0.0000
 11
49.0386
 21
26.0604
 31
0.0000
  0
LINE
  8
16
 10
49.0386
 20
26.0604
 30
0.0000
 11
49.2926
 21
26.3144
 31
0.0000
  0
LINE
  8
16
 10
49.2926
 20
26.3144
 30
0.0000
 11
54.8474
 21
26.3144
 31
0.0000
  0
LINE
  8
16
 10
54.8474
 20
26.3144
 30
0.0000
 11
55.1014
 21
26.0604
 31
0.0000
  0
LINE
  8
16
 10
55.1014
 20
26.0604
 30
0.0000
 11
56.6586
 21
26.0604
 31
0.0000
  0
LINE
  8
16
 10
56.6586
 20
26.0604
 30
0.0000
 11
56.9126
 21
26.3144
 31
0.0000
  0
LINE
  8
16
 10
56.9126
 20
26.3144
 30
0.0000
 11
62.4674
 21
26.3144
 31
0.0000
  0
LINE
  8
16
 10
62.4674
 20
26.3144
 30
0.0000
 11
62.7214
 21
26.0604
 31
0.0000
  0
LINE
  8
16
 10
62.7214
 20
26.0604
 30
0.0000
 11
64.2786
 21
26.0604
 31
0.0000
  0
LINE
  8
16
 10
64.2786
 20
26.0604
 30
0.0000
 11
65.3796
 21
27.1614
 31
0.0000
  0
LINE
  8
16
 10
65.3796
 20
27.1614
 30
0.0000
 11
65.3796
 21
28.7186
 31
0.0000
  0
LINE
  8
16
 10
65.3796
 20
28.7186
 30
0.0000
 11
64.2786
 21
29.8196
 31
0.0000
  0
LINE
  8
16
 10
64.2786
 20
29.8196
 30
0.0000
 11
62.7214
 21
29.8196
 31
0.0000
  0
LINE
  8
16
 10
62.7214
 20
29.8196
 30
0.0000
 11
62.4674
 21
29.5656
 31
0.0000
  0
LINE
  8
16
 10
62.4674
 20
29.5656
 30
0.0000
 11
56.9126
 21
29.5656
 31
0.0000
  0
LINE
  8
16
 10
56.9126
 20
29.5656
 30
0.0000
 11
56.6586
 21
29.8196
 31
0.0000
  0
LINE
  8
16
 10
56.6586
 20
29.8196
 30
0.0000
 11
55.1014
 21
29.8196
 31
0.0000
  0
LINE
  8
16
 10
55.1014
 20
29.8196
 30
0.0000
 11
54.8474
 21
29.5656
 31
0.0000
  0
LINE
  8
16
 10
54.8474
 20
29.5656
 30
0.0000
 11
49.2926
 21
29.5656
 31
0.0000
  0
LINE
  8
16
 10
49.2926
 20
29.5656
 30
0.0000
 11
49.0386
 21
29.8196
 31
0.0000
  0
LINE
  8
16
 10
49.0386
 20
29.8196
 30
0.0000
 11
47.4814
 21
29.8196
 31
0.0000
  0
LINE
  8
16
 10
47.4814
 20
29.8196
 30
0.0000
 11
47.2274
 21
29.5656
 31
0.0000
  0
LINE
  8
16
 10
47.2274
 20
29.5656
 30
0.0000
 11
41.6726
 21
29.5656
 31
0.0000
  0
LINE
  8
16
 10
41.6726
 20
29.5656
 30
0.0000
 11
41.4186
 21
29.8196
 31
0.0000
  0
LINE
  8
16
 10
41.4186
 20
29.8196
 30
0.0000
 11
39.8614
 21
29.8196
 31
0.0000
  0
LINE
  8
16
 10
39.8614
 20
29.8196
 30
0.0000
 11
39.6074
 21
29.5656
 31
0.0000
  0
LINE
  8
16
 10
39.6074
 20
29.5656
 30
0.0000
 11
34.0526
 21
29.5656
 31
0.0000
  0
LINE
  8
16
 10
34.0526
 20
29.5656
 30
0.0000
 11
33.7986
 21
29.8196
 31
0.0000
  0
LINE
  8
16
 10
33.7986
 20
29.8196
 30
0.0000
 11
32.2414
 21
29.8196
 31
0.0000
  0
LINE
  8
16
 10
32.2414
 20
29.8196
 30
0.0000
 11
31.9874
 21
29.5656
 31
0.0000
  0
LINE
  8
16
 10
31.9874
 20
29.5656
 30
0.0000
 11
26.4326
 21
29.5656
 31
0.0000
  0
LINE
  8
16
 10
26.4326
 20
29.5656
 30
0.0000
 11
26.1786
 21
29.8196
 31
0.0000
  0
LINE
  8
16
 10
26.1786
 20
29.8196
 30
0.0000
 11
24.6214
 21
29.8196
 31
0.0000
  0
LINE
  8
16
 10
24.6214
 20
29.8196
 30
0.0000
 11
24.3674
 21
29.5656
 31
0.0000
  0
LINE
  8
16
 10
24.3674
 20
29.5656
 30
0.0000
 11
18.8126
 21
29.5656
 31
0.0000
  0
LINE
  8
16
 10
18.8126
 20
29.5656
 30
0.0000
 11
18.5586
 21
29.8196
 31
0.0000
  0
LINE
  8
16
 10
18.5586
 20
29.8196
 30
0.0000
 11
17.0014
 21
29.8196
 31
0.0000
  0
LINE
  8
16
 10
17.0014
 20
29.8196
 30
0.0000
 11
16.7474
 21
29.5656
 31
0.0000
  0
LINE
  8
16
 10
16.7474
 20
29.5656
 30
0.0000
 11
11.1926
 21
29.5656
 31
0.0000
  0
LINE
  8
16
 10
11.1926
 20
29.5656
 30
0.0000
 11
10.9386
 21
29.8196
 31
0.0000
  0
LINE
  8
16
 10
10.9386
 20
29.8196
 30
0.0000
 11
9.3814
 21
29.8196
 31
0.0000
  0
LINE
  8
16
 10
9.3814
 20
29.8196
 30
0.0000
 11
9.1274
 21
29.5656
 31
0.0000
  0
LINE
  8
16
 10
9.1274
 20
29.5656
 30
0.0000
 11
4.2526
 21
29.5656
 31
0.0000
  0
LINE
  8
16
 10
4.2526
 20
29.5656
 30
0.0000
 11
4.3366
 21
29.6496
 31
0.0000
  0
LINE
  8
16
 10
4.3366
 20
29.6496
 30
0.0000
 11
4.6592
 21
30.4285
 31
0.0000
  0
LINE
  8
16
 10
4.6592
 20
30.4285
 30
0.0000
 11
4.6592
 21
33.0715
 31
0.0000
  0
LINE
  8
16
 10
4.6592
 20
33.0715
 30
0.0000
 11
4.3366
 21
33.8504
 31
0.0000
  0
LINE
  8
16
 10
4.3366
 20
33.8504
 30
0.0000
 11
4.1766
 21
34.0104
 31
0.0000
  0
LINE
  8
16
 10
4.1766
 20
34.0104
 30
0.0000
 11
4.6585
 21
33.8108
 31
0.0000
  0
LINE
  8
16
 10
4.6585
 20
33.8108
 30
0.0000
 11
5.5015
 21
33.8108
 31
0.0000
  0
LINE
  8
16
 10
5.5015
 20
33.8108
 30
0.0000
 11
6.2804
 21
34.1334
 31
0.0000
  0
LINE
  8
16
 10
6.2804
 20
34.1334
 30
0.0000
 11
6.3500
 21
34.2030
 31
0.0000
  0
LINE
  8
16
 10
6.3500
 20
34.2030
 30
0.0000
 11
6.4196
 21
34.1334
 31
0.0000
  0
LINE
  8
16
 10
6.4196
 20
34.1334
 30
0.0000
 11
7.1985
 21
33.8108
 31
0.0000
  0
LINE
  8
16
 10
7.1985
 20
33.8108
 30
0.0000
 11
8.0415
 21
33.8108
 31
0.0000
  0
LINE
  8
16
 10
8.0415
 20
33.8108
 30
0.0000
 11
8.8204
 21
34.1334
 31
0.0000
  0
LINE
  8
16
 10
8.8204
 20
34.1334
 30
0.0000
 11
8.8900
 21
34.2030
 31
0.0000
  0
LINE
  8
16
 10
8.8900
 20
34.2030
 30
0.0000
 11
8.9596
 21
34.1334
 31
0.0000
  0
LINE
  8
16
 10
8.9596
 20
34.1334
 30
0.0000
 11
9.7385
 21
33.8108
 31
0.0000
  0
LINE
  8
16
 10
9.7385
 20
33.8108
 30
0.0000
 11
10.5815
 21
33.8108
 31
0.0000
  0
LINE
  8
16
 10
10.5815
 20
33.8108
 30
0.0000
 11
11.3604
 21
34.1334
 31
0.0000
  0
LINE
  8
16
 10
11.3604
 20
34.1334
 30
0.0000
 11
11.4300
 21
34.2030
 31
0.0000
  0
LINE
  8
16
 10
11.4300
 20
34.2030
 30
0.0000
 11
11.4996
 21
34.1334
 31
0.0000
  0
LINE
  8
16
 10
11.4996
 20
34.1334
 30
0.0000
 11
12.2785
 21
33.8108
 31
0.0000
  0
LINE
  8
16
 10
12.2785
 20
33.8108
 30
0.0000
 11
13.1215
 21
33.8108
 31
0.0000
  0
LINE
  8
16
 10
13.1215
 20
33.8108
 30
0.0000
 11
13.9004
 21
34.1334
 31
0.0000
  0
LINE
  8
16
 10
13.9004
 20
34.1334
 30
0.0000
 11
13.9700
 21
34.2030
 31
0.0000
  0
LINE
  8
16
 10
13.9700
 20
34.2030
 30
0.0000
 11
14.0396
 21
34.1334
 31
0.0000
  0
LINE
  8
16
 10
14.0396
 20
34.1334
 30
0.0000
 11
14.8185
 21
33.8108
 31
0.0000
  0
LINE
  8
16
 10
14.8185
 20
33.8108
 30
0.0000
 11
15.6615
 21
33.8108
 31
0.0000
  0
LINE
  8
16
 10
15.6615
 20
33.8108
 30
0.0000
 11
16.4404
 21
34.1334
 31
0.0000
  0
LINE
  8
16
 10
16.4404
 20
34.1334
 30
0.0000
 11
16.5100
 21
34.2030
 31
0.0000
  0
LINE
  8
16
 10
16.5100
 20
34.2030
 30
0.0000
 11
16.5796
 21
34.1334
 31
0.0000
  0
LINE
  8
16
 10
16.5796
 20
34.1334
 30
0.0000
 11
17.3585
 21
33.8108
 31
0.0000
  0
LINE
  8
16
 10
17.3585
 20
33.8108
 30
0.0000
 11
18.2015
 21
33.8108
 31
0.0000
  0
LINE
  8
16
 10
18.2015
 20
33.8108
 30
0.0000
 11
18.9804
 21
34.1334
 31
0.0000
  0
LINE
  8
16
 10
18.9804
 20
34.1334
 30
0.0000
 11
19.0500
 21
34.2030
 31
0.0000
  0
LINE
  8
16
 10
19.0500
 20
34.2030
 30
0.0000
 11
19.1196
 21
34.1334
 31
0.0000
  0
LINE
  8
16
 10
19.1196
 20
34.1334
 30
0.0000
 11
19.8985
 21
33.8108
 31
0.0000
  0
LINE
  8
16
 10
19.8985
 20
33.8108
 30
0.0000
 11
20.7415
 21
33.8108
 31
0.0000
  0
LINE
  8
16
 10
20.7415
 20
33.8108
 30
0.0000
 11
21.2344
 21
34.0150
 31
0.0000
  0
LINE
  8
16
 10
21.2344
 20
34.0150
 30
0.0000
 11
21.2344
 21
33.9666
 31
0.0000
  0
LINE
  8
16
 10
21.2344
 20
33.9666
 30
0.0000
 11
21.4819
 21
33.3692
 31
0.0000
  0
LINE
  8
16
 10
21.4819
 20
33.3692
 30
0.0000
 11
21.9392
 21
32.9119
 31
0.0000
  0
LINE
  8
16
 10
21.9392
 20
32.9119
 30
0.0000
 11
23.2092
 21
31.6419
 31
0.0000
  0
LINE
  8
16
 10
23.2092
 20
31.6419
 30
0.0000
 11
23.8066
 21
31.3944
 31
0.0000
  0
LINE
  8
16
 10
23.8066
 20
31.3944
 30
0.0000
 11
65.3667
 21
31.3944
 31
0.0000
  0
LINE
  8
16
 10
65.3667
 20
31.3944
 30
0.0000
 11
66.9544
 21
29.8067
 31
0.0000
  0
LINE
  8
16
 10
66.9544
 20
29.8067
 30
0.0000
 11
66.9544
 21
14.6433
 31
0.0000
  0
LINE
  8
16
 10
66.9544
 20
14.6433
 30
0.0000
 11
66.6367
 21
14.3256
 31
0.0000
  0
LINE
  8
16
 10
66.6367
 20
14.3256
 30
0.0000
 11
65.4433
 21
14.3256
 31
0.0000
  0
LINE
  8
16
 10
65.4433
 20
14.3256
 30
0.0000
 11
65.3150
 21
14.4540
 31
0.0000
  0
LINE
  8
16
 10
65.3150
 20
14.4540
 30
0.0000
 11
65.6192
 21
15.1885
 31
0.0000
  0
LINE
  8
16
 10
65.6192
 20
15.1885
 30
0.0000
 11
65.6192
 21
17.8315
 31
0.0000
  0
LINE
  8
16
 10
65.6192
 20
17.8315
 30
0.0000
 11
65.2966
 21
18.6104
 31
0.0000
  0
LINE
  8
16
 10
65.2966
 20
18.6104
 30
0.0000
 11
65.1256
 21
18.7814
 31
0.0000
  0
LINE
  8
16
 10
65.1256
 20
18.7814
 30
0.0000
 11
65.1256
 21
19.2874
 31
0.0000
  0
LINE
  8
16
 10
65.1256
 20
19.2874
 30
0.0000
 11
65.3796
 21
19.5414
 31
0.0000
  0
LINE
  8
16
 10
0.1524
 20
0.8128
 30
0.0000
 11
80.7976
 21
0.8128
 31
0.0000
  0
LINE
  8
16
 10
0.1524
 20
1.6256
 30
0.0000
 11
2.4255
 21
1.6256
 31
0.0000
  0
LINE
  8
16
 10
78.8545
 20
1.6256
 30
0.0000
 11
80.7976
 21
1.6256
 31
0.0000
  0
LINE
  8
16
 10
0.1524
 20
2.4384
 30
0.0000
 11
1.6127
 21
2.4384
 31
0.0000
  0
LINE
  8
16
 10
79.6673
 20
2.4384
 30
0.0000
 11
80.7976
 21
2.4384
 31
0.0000
  0
LINE
  8
16
 10
0.1524
 20
3.2512
 30
0.0000
 11
1.0119
 21
3.2512
 31
0.0000
  0
LINE
  8
16
 10
80.2681
 20
3.2512
 30
0.0000
 11
80.7976
 21
3.2512
 31
0.0000
  0
LINE
  8
16
 10
0.1524
 20
4.0640
 30
0.0000
 11
0.9144
 21
4.0640
 31
0.0000
  0
LINE
  8
16
 10
80.3656
 20
4.0640
 30
0.0000
 11
80.7976
 21
4.0640
 31
0.0000
  0
LINE
  8
16
 10
0.1524
 20
4.8768
 30
0.0000
 11
0.9144
 21
4.8768
 31
0.0000
  0
LINE
  8
16
 10
4.1656
 20
4.8768
 30
0.0000
 11
8.5344
 21
4.8768
 31
0.0000
  0
LINE
  8
16
 10
80.3656
 20
4.8768
 30
0.0000
 11
80.7976
 21
4.8768
 31
0.0000
  0
LINE
  8
16
 10
0.1524
 20
5.6896
 30
0.0000
 11
0.9144
 21
5.6896
 31
0.0000
  0
LINE
  8
16
 10
4.1656
 20
5.6896
 30
0.0000
 11
8.5344
 21
5.6896
 31
0.0000
  0
LINE
  8
16
 10
11.8493
 20
5.6896
 30
0.0000
 11
16.2940
 21
5.6896
 31
0.0000
  0
LINE
  8
16
 10
80.3656
 20
5.6896
 30
0.0000
 11
80.7976
 21
5.6896
 31
0.0000
  0
LINE
  8
16
 10
0.1524
 20
6.5024
 30
0.0000
 11
0.9144
 21
6.5024
 31
0.0000
  0
LINE
  8
16
 10
4.1656
 20
6.5024
 30
0.0000
 11
8.5344
 21
6.5024
 31
0.0000
  0
LINE
  8
16
 10
11.7856
 20
6.5024
 30
0.0000
 11
16.1544
 21
6.5024
 31
0.0000
  0
LINE
  8
16
 10
80.3656
 20
6.5024
 30
0.0000
 11
80.7976
 21
6.5024
 31
0.0000
  0
LINE
  8
16
 10
0.1524
 20
7.3152
 30
0.0000
 11
0.9144
 21
7.3152
 31
0.0000
  0
LINE
  8
16
 10
4.1656
 20
7.3152
 30
0.0000
 11
8.5344
 21
7.3152
 31
0.0000
  0
LINE
  8
16
 10
11.7856
 20
7.3152
 30
0.0000
 11
16.1544
 21
7.3152
 31
0.0000
  0
LINE
  8
16
 10
19.4056
 20
7.3152
 30
0.0000
 11
23.7744
 21
7.3152
 31
0.0000
  0
LINE
  8
16
 10
80.3656
 20
7.3152
 30
0.0000
 11
80.7976
 21
7.3152
 31
0.0000
  0
LINE
  8
16
 10
0.1524
 20
8.1280
 30
0.0000
 11
0.9144
 21
8.1280
 31
0.0000
  0
LINE
  8
16
 10
4.1656
 20
8.1280
 30
0.0000
 11
8.5344
 21
8.1280
 31
0.0000
  0
LINE
  8
16
 10
11.7856
 20
8.1280
 30
0.0000
 11
16.1544
 21
8.1280
 31
0.0000
  0
LINE
  8
16
 10
19.4056
 20
8.1280
 30
0.0000
 11
23.7744
 21
8.1280
 31
0.0000
  0
LINE
  8
16
 10
27.1909
 20
8.1280
 30
0.0000
 11
31.5761
 21
8.1280
 31
0.0000
  0
LINE
  8
16
 10
80.3656
 20
8.1280
 30
0.0000
 11
80.7976
 21
8.1280
 31
0.0000
  0
LINE
  8
16
 10
0.1524
 20
8.9408
 30
0.0000
 11
0.9144
 21
8.9408
 31
0.0000
  0
LINE
  8
16
 10
4.1656
 20
8.9408
 30
0.0000
 11
8.5344
 21
8.9408
 31
0.0000
  0
LINE
  8
16
 10
11.7856
 20
8.9408
 30
0.0000
 11
16.1544
 21
8.9408
 31
0.0000
  0
LINE
  8
16
 10
19.4056
 20
8.9408
 30
0.0000
 11
23.7744
 21
8.9408
 31
0.0000
  0
LINE
  8
16
 10
27.0256
 20
8.9408
 30
0.0000
 11
31.3944
 21
8.9408
 31
0.0000
  0
LINE
  8
16
 10
80.3656
 20
8.9408
 30
0.0000
 11
80.7976
 21
8.9408
 31
0.0000
  0
LINE
  8
16
 10
0.1524
 20
9.7536
 30
0.0000
 11
0.9144
 21
9.7536
 31
0.0000
  0
LINE
  8
16
 10
4.1656
 20
9.7536
 30
0.0000
 11
8.5344
 21
9.7536
 31
0.0000
  0
LINE
  8
16
 10
11.7856
 20
9.7536
 30
0.0000
 11
16.1544
 21
9.7536
 31
0.0000
  0
LINE
  8
16
 10
19.4056
 20
9.7536
 30
0.0000
 11
23.7744
 21
9.7536
 31
0.0000
  0
LINE
  8
16
 10
27.0256
 20
9.7536
 30
0.0000
 11
31.3944
 21
9.7536
 31
0.0000
  0
LINE
  8
16
 10
34.6456
 20
9.7536
 30
0.0000
 11
39.0488
 21
9.7536
 31
0.0000
  0
LINE
  8
16
 10
80.3656
 20
9.7536
 30
0.0000
 11
80.7976
 21
9.7536
 31
0.0000
  0
LINE
  8
16
 10
0.1524
 20
10.5664
 30
0.0000
 11
0.9144
 21
10.5664
 31
0.0000
  0
LINE
  8
16
 10
4.1656
 20
10.5664
 30
0.0000
 11
8.5344
 21
10.5664
 31
0.0000
  0
LINE
  8
16
 10
11.7856
 20
10.5664
 30
0.0000
 11
16.1544
 21
10.5664
 31
0.0000
  0
LINE
  8
16
 10
19.4056
 20
10.5664
 30
0.0000
 11
23.7744
 21
10.5664
 31
0.0000
  0
LINE
  8
16
 10
27.0256
 20
10.5664
 30
0.0000
 11
31.3944
 21
10.5664
 31
0.0000
  0
LINE
  8
16
 10
34.6456
 20
10.5664
 30
0.0000
 11
39.0144
 21
10.5664
 31
0.0000
  0
LINE
  8
16
 10
42.5325
 20
10.5664
 30
0.0000
 11
46.8582
 21
10.5664
 31
0.0000
  0
LINE
  8
16
 10
80.3656
 20
10.5664
 30
0.0000
 11
80.7976
 21
10.5664
 31
0.0000
  0
LINE
  8
16
 10
0.1524
 20
11.3792
 30
0.0000
 11
0.9144
 21
11.3792
 31
0.0000
  0
LINE
  8
16
 10
4.1656
 20
11.3792
 30
0.0000
 11
8.5344
 21
11.3792
 31
0.0000
  0
LINE
  8
16
 10
11.7856
 20
11.3792
 30
0.0000
 11
16.1544
 21
11.3792
 31
0.0000
  0
LINE
  8
16
 10
19.4056
 20
11.3792
 30
0.0000
 11
23.7744
 21
11.3792
 31
0.0000
  0
LINE
  8
16
 10
27.0256
 20
11.3792
 30
0.0000
 11
31.3944
 21
11.3792
 31
0.0000
  0
LINE
  8
16
 10
34.6456
 20
11.3792
 30
0.0000
 11
39.0144
 21
11.3792
 31
0.0000
  0
LINE
  8
16
 10
42.2656
 20
11.3792
 30
0.0000
 11
46.6344
 21
11.3792
 31
0.0000
  0
LINE
  8
16
 10
80.3656
 20
11.3792
 30
0.0000
 11
80.7976
 21
11.3792
 31
0.0000
  0
LINE
  8
16
 10
0.1524
 20
12.1920
 30
0.0000
 11
0.9144
 21
12.1920
 31
0.0000
  0
LINE
  8
16
 10
4.1656
 20
12.1920
 30
0.0000
 11
8.5344
 21
12.1920
 31
0.0000
  0
LINE
  8
16
 10
11.7856
 20
12.1920
 30
0.0000
 11
16.1544
 21
12.1920
 31
0.0000
  0
LINE
  8
16
 10
19.4056
 20
12.1920
 30
0.0000
 11
23.7744
 21
12.1920
 31
0.0000
  0
LINE
  8
16
 10
27.0256
 20
12.1920
 30
0.0000
 11
31.3944
 21
12.1920
 31
0.0000
  0
LINE
  8
16
 10
34.6456
 20
12.1920
 30
0.0000
 11
39.0144
 21
12.1920
 31
0.0000
  0
LINE
  8
16
 10
42.2656
 20
12.1920
 30
0.0000
 11
46.6344
 21
12.1920
 31
0.0000
  0
LINE
  8
16
 10
49.8856
 20
12.1920
 30
0.0000
 11
54.3309
 21
12.1920
 31
0.0000
  0
LINE
  8
16
 10
80.3656
 20
12.1920
 30
0.0000
 11
80.7976
 21
12.1920
 31
0.0000
  0
LINE
  8
16
 10
0.1524
 20
13.0048
 30
0.0000
 11
0.9144
 21
13.0048
 31
0.0000
  0
LINE
  8
16
 10
4.1656
 20
13.0048
 30
0.0000
 11
8.5344
 21
13.0048
 31
0.0000
  0
LINE
  8
16
 10
11.7856
 20
13.0048
 30
0.0000
 11
16.1544
 21
13.0048
 31
0.0000
  0
LINE
  8
16
 10
19.4056
 20
13.0048
 30
0.0000
 11
23.7744
 21
13.0048
 31
0.0000
  0
LINE
  8
16
 10
27.0256
 20
13.0048
 30
0.0000
 11
31.3944
 21
13.0048
 31
0.0000
  0
LINE
  8
16
 10
34.6456
 20
13.0048
 30
0.0000
 11
39.0144
 21
13.0048
 31
0.0000
  0
LINE
  8
16
 10
42.2656
 20
13.0048
 30
0.0000
 11
46.6344
 21
13.0048
 31
0.0000
  0
LINE
  8
16
 10
49.8856
 20
13.0048
 30
0.0000
 11
54.2544
 21
13.0048
 31
0.0000
  0
LINE
  8
16
 10
80.3656
 20
13.0048
 30
0.0000
 11
80.7976
 21
13.0048
 31
0.0000
  0
LINE
  8
16
 10
0.1524
 20
13.8176
 30
0.0000
 11
0.9144
 21
13.8176
 31
0.0000
  0
LINE
  8
16
 10
4.1656
 20
13.8176
 30
0.0000
 11
8.5344
 21
13.8176
 31
0.0000
  0
LINE
  8
16
 10
11.7856
 20
13.8176
 30
0.0000
 11
16.1544
 21
13.8176
 31
0.0000
  0
LINE
  8
16
 10
19.4056
 20
13.8176
 30
0.0000
 11
23.7744
 21
13.8176
 31
0.0000
  0
LINE
  8
16
 10
27.0256
 20
13.8176
 30
0.0000
 11
31.3944
 21
13.8176
 31
0.0000
  0
LINE
  8
16
 10
34.6456
 20
13.8176
 30
0.0000
 11
39.0144
 21
13.8176
 31
0.0000
  0
LINE
  8
16
 10
42.2656
 20
13.8176
 30
0.0000
 11
46.6344
 21
13.8176
 31
0.0000
  0
LINE
  8
16
 10
49.8856
 20
13.8176
 30
0.0000
 11
54.2544
 21
13.8176
 31
0.0000
  0
LINE
  8
16
 10
57.5056
 20
13.8176
 30
0.0000
 11
61.8744
 21
13.8176
 31
0.0000
  0
LINE
  8
16
 10
80.3656
 20
13.8176
 30
0.0000
 11
80.7976
 21
13.8176
 31
0.0000
  0
LINE
  8
16
 10
0.1524
 20
14.6304
 30
0.0000
 11
0.6520
 21
14.6304
 31
0.0000
  0
LINE
  8
16
 10
4.4280
 20
14.6304
 30
0.0000
 11
8.2720
 21
14.6304
 31
0.0000
  0
LINE
  8
16
 10
12.0480
 20
14.6304
 30
0.0000
 11
15.8920
 21
14.6304
 31
0.0000
  0
LINE
  8
16
 10
19.6680
 20
14.6304
 30
0.0000
 11
23.5120
 21
14.6304
 31
0.0000
  0
LINE
  8
16
 10
27.2880
 20
14.6304
 30
0.0000
 11
31.1320
 21
14.6304
 31
0.0000
  0
LINE
  8
16
 10
34.9080
 20
14.6304
 30
0.0000
 11
38.7520
 21
14.6304
 31
0.0000
  0
LINE
  8
16
 10
42.5280
 20
14.6304
 30
0.0000
 11
46.3720
 21
14.6304
 31
0.0000
  0
LINE
  8
16
 10
50.1480
 20
14.6304
 30
0.0000
 11
53.9920
 21
14.6304
 31
0.0000
  0
LINE
  8
16
 10
57.7680
 20
14.6304
 30
0.0000
 11
61.6120
 21
14.6304
 31
0.0000
  0
LINE
  8
16
 10
65.3880
 20
14.6304
 30
0.0000
 11
66.9415
 21
14.6304
 31
0.0000
  0
LINE
  8
16
 10
80.3656
 20
14.6304
 30
0.0000
 11
80.7976
 21
14.6304
 31
0.0000
  0
LINE
  8
16
 10
0.1524
 20
15.4432
 30
0.0000
 11
0.4208
 21
15.4432
 31
0.0000
  0
LINE
  8
16
 10
4.6592
 20
15.4432
 30
0.0000
 11
8.0408
 21
15.4432
 31
0.0000
  0
LINE
  8
16
 10
12.2792
 20
15.4432
 30
0.0000
 11
15.6608
 21
15.4432
 31
0.0000
  0
LINE
  8
16
 10
19.8992
 20
15.4432
 30
0.0000
 11
23.2808
 21
15.4432
 31
0.0000
  0
LINE
  8
16
 10
27.5192
 20
15.4432
 30
0.0000
 11
30.9008
 21
15.4432
 31
0.0000
  0
LINE
  8
16
 10
35.1392
 20
15.4432
 30
0.0000
 11
38.5208
 21
15.4432
 31
0.0000
  0
LINE
  8
16
 10
42.7592
 20
15.4432
 30
0.0000
 11
46.1408
 21
15.4432
 31
0.0000
  0
LINE
  8
16
 10
50.3792
 20
15.4432
 30
0.0000
 11
53.7608
 21
15.4432
 31
0.0000
  0
LINE
  8
16
 10
57.9992
 20
15.4432
 30
0.0000
 11
61.3808
 21
15.4432
 31
0.0000
  0
LINE
  8
16
 10
65.6192
 20
15.4432
 30
0.0000
 11
66.9544
 21
15.4432
 31
0.0000
  0
LINE
  8
16
 10
80.3656
 20
15.4432
 30
0.0000
 11
80.7976
 21
15.4432
 31
0.0000
  0
LINE
  8
16
 10
0.1524
 20
16.2560
 30
0.0000
 11
0.4208
 21
16.2560
 31
0.0000
  0
LINE
  8
16
 10
4.6592
 20
16.2560
 30
0.0000
 11
8.0408
 21
16.2560
 31
0.0000
  0
LINE
  8
16
 10
12.2792
 20
16.2560
 30
0.0000
 11
15.6608
 21
16.2560
 31
0.0000
  0
LINE
  8
16
 10
19.8992
 20
16.2560
 30
0.0000
 11
23.2808
 21
16.2560
 31
0.0000
  0
LINE
  8
16
 10
27.5192
 20
16.2560
 30
0.0000
 11
30.9008
 21
16.2560
 31
0.0000
  0
LINE
  8
16
 10
35.1392
 20
16.2560
 30
0.0000
 11
38.5208
 21
16.2560
 31
0.0000
  0
LINE
  8
16
 10
42.7592
 20
16.2560
 30
0.0000
 11
46.1408
 21
16.2560
 31
0.0000
  0
LINE
  8
16
 10
50.3792
 20
16.2560
 30
0.0000
 11
53.7608
 21
16.2560
 31
0.0000
  0
LINE
  8
16
 10
57.9992
 20
16.2560
 30
0.0000
 11
61.3808
 21
16.2560
 31
0.0000
  0
LINE
  8
16
 10
65.6192
 20
16.2560
 30
0.0000
 11
66.9544
 21
16.2560
 31
0.0000
  0
LINE
  8
16
 10
80.3656
 20
16.2560
 30
0.0000
 11
80.7976
 21
16.2560
 31
0.0000
  0
LINE
  8
16
 10
0.1524
 20
17.0688
 30
0.0000
 11
0.4208
 21
17.0688
 31
0.0000
  0
LINE
  8
16
 10
4.6592
 20
17.0688
 30
0.0000
 11
8.0408
 21
17.0688
 31
0.0000
  0
LINE
  8
16
 10
12.2792
 20
17.0688
 30
0.0000
 11
15.6608
 21
17.0688
 31
0.0000
  0
LINE
  8
16
 10
19.8992
 20
17.0688
 30
0.0000
 11
23.2808
 21
17.0688
 31
0.0000
  0
LINE
  8
16
 10
27.5192
 20
17.0688
 30
0.0000
 11
30.9008
 21
17.0688
 31
0.0000
  0
LINE
  8
16
 10
35.1392
 20
17.0688
 30
0.0000
 11
38.5208
 21
17.0688
 31
0.0000
  0
LINE
  8
16
 10
42.7592
 20
17.0688
 30
0.0000
 11
46.1408
 21
17.0688
 31
0.0000
  0
LINE
  8
16
 10
50.3792
 20
17.0688
 30
0.0000
 11
53.7608
 21
17.0688
 31
0.0000
  0
LINE
  8
16
 10
57.9992
 20
17.0688
 30
0.0000
 11
61.3808
 21
17.0688
 31
0.0000
  0
LINE
  8
16
 10
65.6192
 20
17.0688
 30
0.0000
 11
66.9544
 21
17.0688
 31
0.0000
  0
LINE
  8
16
 10
80.3656
 20
17.0688
 30
0.0000
 11
80.7976
 21
17.0688
 31
0.0000
  0
LINE
  8
16
 10
0.1524
 20
17.8816
 30
0.0000
 11
0.4415
 21
17.8816
 31
0.0000
  0
LINE
  8
16
 10
4.6385
 20
17.8816
 30
0.0000
 11
8.0615
 21
17.8816
 31
0.0000
  0
LINE
  8
16
 10
12.2585
 20
17.8816
 30
0.0000
 11
15.6815
 21
17.8816
 31
0.0000
  0
LINE
  8
16
 10
19.8785
 20
17.8816
 30
0.0000
 11
23.3015
 21
17.8816
 31
0.0000
  0
LINE
  8
16
 10
27.4985
 20
17.8816
 30
0.0000
 11
30.9215
 21
17.8816
 31
0.0000
  0
LINE
  8
16
 10
35.1185
 20
17.8816
 30
0.0000
 11
38.5415
 21
17.8816
 31
0.0000
  0
LINE
  8
16
 10
42.7385
 20
17.8816
 30
0.0000
 11
46.1615
 21
17.8816
 31
0.0000
  0
LINE
  8
16
 10
50.3585
 20
17.8816
 30
0.0000
 11
53.7815
 21
17.8816
 31
0.0000
  0
LINE
  8
16
 10
57.9785
 20
17.8816
 30
0.0000
 11
61.4015
 21
17.8816
 31
0.0000
  0
LINE
  8
16
 10
65.5985
 20
17.8816
 30
0.0000
 11
66.9544
 21
17.8816
 31
0.0000
  0
LINE
  8
16
 10
80.3656
 20
17.8816
 30
0.0000
 11
80.7976
 21
17.8816
 31
0.0000
  0
LINE
  8
16
 10
0.1524
 20
18.6944
 30
0.0000
 11
0.8274
 21
18.6944
 31
0.0000
  0
LINE
  8
16
 10
4.2526
 20
18.6944
 30
0.0000
 11
8.4474
 21
18.6944
 31
0.0000
  0
LINE
  8
16
 10
11.8726
 20
18.6944
 30
0.0000
 11
16.0674
 21
18.6944
 31
0.0000
  0
LINE
  8
16
 10
19.4926
 20
18.6944
 30
0.0000
 11
23.6874
 21
18.6944
 31
0.0000
  0
LINE
  8
16
 10
27.1126
 20
18.6944
 30
0.0000
 11
31.3074
 21
18.6944
 31
0.0000
  0
LINE
  8
16
 10
34.7326
 20
18.6944
 30
0.0000
 11
38.9274
 21
18.6944
 31
0.0000
  0
LINE
  8
16
 10
42.3526
 20
18.6944
 30
0.0000
 11
46.5474
 21
18.6944
 31
0.0000
  0
LINE
  8
16
 10
49.9726
 20
18.6944
 30
0.0000
 11
54.1674
 21
18.6944
 31
0.0000
  0
LINE
  8
16
 10
57.5926
 20
18.6944
 30
0.0000
 11
61.7874
 21
18.6944
 31
0.0000
  0
LINE
  8
16
 10
65.2126
 20
18.6944
 30
0.0000
 11
66.9544
 21
18.6944
 31
0.0000
  0
LINE
  8
16
 10
80.3656
 20
18.6944
 30
0.0000
 11
80.7976
 21
18.6944
 31
0.0000
  0
LINE
  8
16
 10
0.1524
 20
19.5072
 30
0.0000
 11
0.6946
 21
19.5072
 31
0.0000
  0
LINE
  8
16
 10
4.3853
 20
19.5072
 30
0.0000
 11
8.3146
 21
19.5072
 31
0.0000
  0
LINE
  8
16
 10
12.0054
 20
19.5072
 30
0.0000
 11
15.9346
 21
19.5072
 31
0.0000
  0
LINE
  8
16
 10
19.6254
 20
19.5072
 30
0.0000
 11
23.5546
 21
19.5072
 31
0.0000
  0
LINE
  8
16
 10
27.2454
 20
19.5072
 30
0.0000
 11
31.1746
 21
19.5072
 31
0.0000
  0
LINE
  8
16
 10
34.8654
 20
19.5072
 30
0.0000
 11
38.7946
 21
19.5072
 31
0.0000
  0
LINE
  8
16
 10
42.4854
 20
19.5072
 30
0.0000
 11
46.4146
 21
19.5072
 31
0.0000
  0
LINE
  8
16
 10
50.1054
 20
19.5072
 30
0.0000
 11
54.0346
 21
19.5072
 31
0.0000
  0
LINE
  8
16
 10
57.7254
 20
19.5072
 30
0.0000
 11
61.6546
 21
19.5072
 31
0.0000
  0
LINE
  8
16
 10
65.3453
 20
19.5072
 30
0.0000
 11
66.9544
 21
19.5072
 31
0.0000
  0
LINE
  8
16
 10
80.3656
 20
19.5072
 30
0.0000
 11
80.7976
 21
19.5072
 31
0.0000
  0
LINE
  8
16
 10
0.1524
 20
20.3200
 30
0.0000
 11
0.6604
 21
20.3200
 31
0.0000
  0
LINE
  8
16
 10
4.4196
 20
20.3200
 30
0.0000
 11
8.2804
 21
20.3200
 31
0.0000
  0
LINE
  8
16
 10
12.0396
 20
20.3200
 30
0.0000
 11
15.9004
 21
20.3200
 31
0.0000
  0
LINE
  8
16
 10
19.6596
 20
20.3200
 30
0.0000
 11
23.5204
 21
20.3200
 31
0.0000
  0
LINE
  8
16
 10
27.2796
 20
20.3200
 30
0.0000
 11
31.1404
 21
20.3200
 31
0.0000
  0
LINE
  8
16
 10
34.8996
 20
20.3200
 30
0.0000
 11
38.7604
 21
20.3200
 31
0.0000
  0
LINE
  8
16
 10
42.5196
 20
20.3200
 30
0.0000
 11
46.3804
 21
20.3200
 31
0.0000
  0
LINE
  8
16
 10
50.1396
 20
20.3200
 30
0.0000
 11
54.0004
 21
20.3200
 31
0.0000
  0
LINE
  8
16
 10
57.7596
 20
20.3200
 30
0.0000
 11
61.6204
 21
20.3200
 31
0.0000
  0
LINE
  8
16
 10
65.3796
 20
20.3200
 30
0.0000
 11
66.9544
 21
20.3200
 31
0.0000
  0
LINE
  8
16
 10
80.3656
 20
20.3200
 30
0.0000
 11
80.7976
 21
20.3200
 31
0.0000
  0
LINE
  8
16
 10
0.1524
 20
21.1328
 30
0.0000
 11
0.6946
 21
21.1328
 31
0.0000
  0
LINE
  8
16
 10
4.3853
 20
21.1328
 30
0.0000
 11
8.3146
 21
21.1328
 31
0.0000
  0
LINE
  8
16
 10
12.0053
 20
21.1328
 30
0.0000
 11
15.9346
 21
21.1328
 31
0.0000
  0
LINE
  8
16
 10
19.6254
 20
21.1328
 30
0.0000
 11
23.5546
 21
21.1328
 31
0.0000
  0
LINE
  8
16
 10
27.2454
 20
21.1328
 30
0.0000
 11
31.1746
 21
21.1328
 31
0.0000
  0
LINE
  8
16
 10
34.8653
 20
21.1328
 30
0.0000
 11
38.7946
 21
21.1328
 31
0.0000
  0
LINE
  8
16
 10
42.4854
 20
21.1328
 30
0.0000
 11
46.4146
 21
21.1328
 31
0.0000
  0
LINE
  8
16
 10
50.1054
 20
21.1328
 30
0.0000
 11
54.0346
 21
21.1328
 31
0.0000
  0
LINE
  8
16
 10
57.7254
 20
21.1328
 30
0.0000
 11
61.6546
 21
21.1328
 31
0.0000
  0
LINE
  8
16
 10
65.3453
 20
21.1328
 30
0.0000
 11
66.9544
 21
21.1328
 31
0.0000
  0
LINE
  8
16
 10
80.3656
 20
21.1328
 30
0.0000
 11
80.7976
 21
21.1328
 31
0.0000
  0
LINE
  8
16
 10
0.1524
 20
21.9456
 30
0.0000
 11
1.5074
 21
21.9456
 31
0.0000
  0
LINE
  8
16
 10
3.5726
 20
21.9456
 30
0.0000
 11
9.1274
 21
21.9456
 31
0.0000
  0
LINE
  8
16
 10
11.1926
 20
21.9456
 30
0.0000
 11
16.7474
 21
21.9456
 31
0.0000
  0
LINE
  8
16
 10
18.8126
 20
21.9456
 30
0.0000
 11
24.3674
 21
21.9456
 31
0.0000
  0
LINE
  8
16
 10
26.4326
 20
21.9456
 30
0.0000
 11
31.9874
 21
21.9456
 31
0.0000
  0
LINE
  8
16
 10
34.0526
 20
21.9456
 30
0.0000
 11
39.6074
 21
21.9456
 31
0.0000
  0
LINE
  8
16
 10
41.6726
 20
21.9456
 30
0.0000
 11
47.2274
 21
21.9456
 31
0.0000
  0
LINE
  8
16
 10
49.2926
 20
21.9456
 30
0.0000
 11
54.8474
 21
21.9456
 31
0.0000
  0
LINE
  8
16
 10
56.9126
 20
21.9456
 30
0.0000
 11
62.4674
 21
21.9456
 31
0.0000
  0
LINE
  8
16
 10
64.5326
 20
21.9456
 30
0.0000
 11
66.9544
 21
21.9456
 31
0.0000
  0
LINE
  8
16
 10
80.3656
 20
21.9456
 30
0.0000
 11
80.7976
 21
21.9456
 31
0.0000
  0
LINE
  8
16
 10
0.1524
 20
22.7584
 30
0.0000
 11
66.9544
 21
22.7584
 31
0.0000
  0
LINE
  8
16
 10
80.3656
 20
22.7584
 30
0.0000
 11
80.7976
 21
22.7584
 31
0.0000
  0
LINE
  8
16
 10
0.1524
 20
23.5712
 30
0.0000
 11
66.9544
 21
23.5712
 31
0.0000
  0
LINE
  8
16
 10
80.3656
 20
23.5712
 30
0.0000
 11
80.7976
 21
23.5712
 31
0.0000
  0
LINE
  8
16
 10
0.1524
 20
24.3840
 30
0.0000
 11
66.9544
 21
24.3840
 31
0.0000
  0
LINE
  8
16
 10
80.3656
 20
24.3840
 30
0.0000
 11
80.7976
 21
24.3840
 31
0.0000
  0
LINE
  8
16
 10
0.1524
 20
25.1968
 30
0.0000
 11
66.9544
 21
25.1968
 31
0.0000
  0
LINE
  8
16
 10
80.3656
 20
25.1968
 30
0.0000
 11
80.7976
 21
25.1968
 31
0.0000
  0
LINE
  8
16
 10
0.1524
 20
26.0096
 30
0.0000
 11
66.9544
 21
26.0096
 31
0.0000
  0
LINE
  8
16
 10
80.3656
 20
26.0096
 30
0.0000
 11
80.7976
 21
26.0096
 31
0.0000
  0
LINE
  8
16
 10
0.1524
 20
26.8224
 30
0.0000
 11
0.9994
 21
26.8224
 31
0.0000
  0
LINE
  8
16
 10
65.0406
 20
26.8224
 30
0.0000
 11
66.9544
 21
26.8224
 31
0.0000
  0
LINE
  8
16
 10
80.3656
 20
26.8224
 30
0.0000
 11
80.7976
 21
26.8224
 31
0.0000
  0
LINE
  8
16
 10
0.1524
 20
27.6352
 30
0.0000
 11
0.6604
 21
27.6352
 31
0.0000
  0
LINE
  8
16
 10
65.3796
 20
27.6352
 30
0.0000
 11
66.9544
 21
27.6352
 31
0.0000
  0
LINE
  8
16
 10
80.3656
 20
27.6352
 30
0.0000
 11
80.7976
 21
27.6352
 31
0.0000
  0
LINE
  8
16
 10
0.1524
 20
28.4480
 30
0.0000
 11
0.6604
 21
28.4480
 31
0.0000
  0
LINE
  8
16
 10
65.3796
 20
28.4480
 30
0.0000
 11
66.9544
 21
28.4480
 31
0.0000
  0
LINE
  8
16
 10
80.3656
 20
28.4480
 30
0.0000
 11
80.7976
 21
28.4480
 31
0.0000
  0
LINE
  8
16
 10
0.1524
 20
29.2608
 30
0.0000
 11
0.9144
 21
29.2608
 31
0.0000
  0
LINE
  8
16
 10
64.8374
 20
29.2608
 30
0.0000
 11
66.9544
 21
29.2608
 31
0.0000
  0
LINE
  8
16
 10
80.3656
 20
29.2608
 30
0.0000
 11
80.7976
 21
29.2608
 31
0.0000
  0
LINE
  8
16
 10
0.1524
 20
30.0736
 30
0.0000
 11
0.5678
 21
30.0736
 31
0.0000
  0
LINE
  8
16
 10
4.5122
 20
30.0736
 30
0.0000
 11
66.6874
 21
30.0736
 31
0.0000
  0
LINE
  8
16
 10
80.3656
 20
30.0736
 30
0.0000
 11
80.7976
 21
30.0736
 31
0.0000
  0
LINE
  8
16
 10
0.1524
 20
30.8864
 30
0.0000
 11
0.4208
 21
30.8864
 31
0.0000
  0
LINE
  8
16
 10
4.6592
 20
30.8864
 30
0.0000
 11
65.8747
 21
30.8864
 31
0.0000
  0
LINE
  8
16
 10
80.3656
 20
30.8864
 30
0.0000
 11
80.7976
 21
30.8864
 31
0.0000
  0
LINE
  8
16
 10
0.1524
 20
31.6992
 30
0.0000
 11
0.4208
 21
31.6992
 31
0.0000
  0
LINE
  8
16
 10
4.6592
 20
31.6992
 30
0.0000
 11
23.1518
 21
31.6992
 31
0.0000
  0
LINE
  8
16
 10
80.3656
 20
31.6992
 30
0.0000
 11
80.7976
 21
31.6992
 31
0.0000
  0
LINE
  8
16
 10
0.1524
 20
32.5120
 30
0.0000
 11
0.4208
 21
32.5120
 31
0.0000
  0
LINE
  8
16
 10
4.6592
 20
32.5120
 30
0.0000
 11
22.3391
 21
32.5120
 31
0.0000
  0
LINE
  8
16
 10
80.3656
 20
32.5120
 30
0.0000
 11
80.7976
 21
32.5120
 31
0.0000
  0
LINE
  8
16
 10
0.1524
 20
33.3248
 30
0.0000
 11
0.5257
 21
33.3248
 31
0.0000
  0
LINE
  8
16
 10
4.5543
 20
33.3248
 30
0.0000
 11
21.5263
 21
33.3248
 31
0.0000
  0
LINE
  8
16
 10
80.3656
 20
33.3248
 30
0.0000
 11
80.7976
 21
33.3248
 31
0.0000
  0
LINE
  8
16
 10
0.1524
 20
34.1376
 30
0.0000
 11
1.0306
 21
34.1376
 31
0.0000
  0
LINE
  8
16
 10
6.2846
 20
34.1376
 30
0.0000
 11
6.4154
 21
34.1376
 31
0.0000
  0
LINE
  8
16
 10
8.8246
 20
34.1376
 30
0.0000
 11
8.9554
 21
34.1376
 31
0.0000
  0
LINE
  8
16
 10
11.3646
 20
34.1376
 30
0.0000
 11
11.4954
 21
34.1376
 31
0.0000
  0
LINE
  8
16
 10
13.9046
 20
34.1376
 30
0.0000
 11
14.0354
 21
34.1376
 31
0.0000
  0
LINE
  8
16
 10
16.4446
 20
34.1376
 30
0.0000
 11
16.5754
 21
34.1376
 31
0.0000
  0
LINE
  8
16
 10
18.9846
 20
34.1376
 30
0.0000
 11
19.1154
 21
34.1376
 31
0.0000
  0
LINE
  8
16
 10
80.3656
 20
34.1376
 30
0.0000
 11
80.7976
 21
34.1376
 31
0.0000
  0
LINE
  8
16
 10
0.1524
 20
34.9504
 30
0.0000
 11
0.6520
 21
34.9504
 31
0.0000
  0
LINE
  8
16
 10
80.3656
 20
34.9504
 30
0.0000
 11
80.7976
 21
34.9504
 31
0.0000
  0
LINE
  8
16
 10
0.1524
 20
35.7632
 30
0.0000
 11
0.4208
 21
35.7632
 31
0.0000
  0
LINE
  8
16
 10
80.3656
 20
35.7632
 30
0.0000
 11
80.7976
 21
35.7632
 31
0.0000
  0
LINE
  8
16
 10
0.1524
 20
36.5760
 30
0.0000
 11
0.4208
 21
36.5760
 31
0.0000
  0
LINE
  8
16
 10
80.3656
 20
36.5760
 30
0.0000
 11
80.7976
 21
36.5760
 31
0.0000
  0
LINE
  8
16
 10
0.1524
 20
37.3888
 30
0.0000
 11
0.4208
 21
37.3888
 31
0.0000
  0
LINE
  8
16
 10
80.3656
 20
37.3888
 30
0.0000
 11
80.7976
 21
37.3888
 31
0.0000
  0
LINE
  8
16
 10
0.1524
 20
38.2016
 30
0.0000
 11
0.4415
 21
38.2016
 31
0.0000
  0
LINE
  8
16
 10
80.3656
 20
38.2016
 30
0.0000
 11
80.7976
 21
38.2016
 31
0.0000
  0
LINE
  8
16
 10
0.1524
 20
39.0144
 30
0.0000
 11
0.8274
 21
39.0144
 31
0.0000
  0
LINE
  8
16
 10
80.3656
 20
39.0144
 30
0.0000
 11
80.7976
 21
39.0144
 31
0.0000
  0
LINE
  8
16
 10
0.1524
 20
39.8272
 30
0.0000
 11
0.9144
 21
39.8272
 31
0.0000
  0
LINE
  8
16
 10
80.3656
 20
39.8272
 30
0.0000
 11
80.7976
 21
39.8272
 31
0.0000
  0
LINE
  8
16
 10
0.1524
 20
40.6400
 30
0.0000
 11
0.9144
 21
40.6400
 31
0.0000
  0
LINE
  8
16
 10
80.3656
 20
40.6400
 30
0.0000
 11
80.7976
 21
40.6400
 31
0.0000
  0
LINE
  8
16
 10
0.1524
 20
41.4528
 30
0.0000
 11
0.9144
 21
41.4528
 31
0.0000
  0
LINE
  8
16
 10
80.1629
 20
41.4528
 30
0.0000
 11
80.7976
 21
41.4528
 31
0.0000
  0
LINE
  8
16
 10
0.1524
 20
42.2656
 30
0.0000
 11
0.9144
 21
42.2656
 31
0.0000
  0
LINE
  8
16
 10
79.4133
 20
42.2656
 30
0.0000
 11
80.7976
 21
42.2656
 31
0.0000
  0
LINE
  8
16
 10
0.1524
 20
43.0784
 30
0.0000
 11
0.9144
 21
43.0784
 31
0.0000
  0
LINE
  8
16
 10
78.6005
 20
43.0784
 30
0.0000
 11
80.7976
 21
43.0784
 31
0.0000
  0
LINE
  8
16
 10
0.1524
 20
43.8912
 30
0.0000
 11
0.9144
 21
43.8912
 31
0.0000
  0
LINE
  8
16
 10
77.7877
 20
43.8912
 30
0.0000
 11
80.7976
 21
43.8912
 31
0.0000
  0
LINE
  8
16
 10
0.1524
 20
44.7040
 30
0.0000
 11
0.9144
 21
44.7040
 31
0.0000
  0
LINE
  8
16
 10
76.7686
 20
44.7040
 30
0.0000
 11
80.7976
 21
44.7040
 31
0.0000
  0
LINE
  8
16
 10
0.1524
 20
45.5168
 30
0.0000
 11
0.9144
 21
45.5168
 31
0.0000
  0
LINE
  8
16
 10
35.9156
 20
45.5168
 30
0.0000
 11
80.7976
 21
45.5168
 31
0.0000
  0
LINE
  8
16
 10
0.1524
 20
46.3296
 30
0.0000
 11
0.9144
 21
46.3296
 31
0.0000
  0
LINE
  8
16
 10
35.9156
 20
46.3296
 30
0.0000
 11
80.7976
 21
46.3296
 31
0.0000
  0
LINE
  8
16
 10
0.1524
 20
47.1424
 30
0.0000
 11
0.9144
 21
47.1424
 31
0.0000
  0
LINE
  8
16
 10
35.9156
 20
47.1424
 30
0.0000
 11
80.7976
 21
47.1424
 31
0.0000
  0
LINE
  8
16
 10
0.1524
 20
47.9552
 30
0.0000
 11
0.9144
 21
47.9552
 31
0.0000
  0
LINE
  8
16
 10
35.9156
 20
47.9552
 30
0.0000
 11
80.7976
 21
47.9552
 31
0.0000
  0
LINE
  8
16
 10
0.1524
 20
48.7680
 30
0.0000
 11
0.9909
 21
48.7680
 31
0.0000
  0
LINE
  8
16
 10
35.8391
 20
48.7680
 30
0.0000
 11
80.7976
 21
48.7680
 31
0.0000
  0
LINE
  8
16
 10
0.1524
 20
49.5808
 30
0.0000
 11
1.5619
 21
49.5808
 31
0.0000
  0
LINE
  8
16
 10
35.2681
 20
49.5808
 30
0.0000
 11
80.7976
 21
49.5808
 31
0.0000
  0
LINE
  8
16
 10
0.1524
 20
50.3936
 30
0.0000
 11
2.3747
 21
50.3936
 31
0.0000
  0
LINE
  8
16
 10
34.4553
 20
50.3936
 30
0.0000
 11
80.7976
 21
50.3936
 31
0.0000
  0
LINE
  8
16
 10
0.1524
 20
51.2064
 30
0.0000
 11
80.7976
 21
51.2064
 31
0.0000
  0
LINE
  8
16
 10
5.0800
 20
31.7500
 30
0.0000
 11
64.7700
 21
31.7500
 31
0.0000
  0
LINE
  8
16
 10
64.7700
 20
31.7500
 30
0.0000
 11
66.0400
 21
30.4800
 31
0.0000
  0
LINE
  8
16
 10
66.0400
 20
30.4800
 30
0.0000
 11
66.0400
 21
24.1300
 31
0.0000
  0
LINE
  8
16
 10
66.0400
 20
24.1300
 30
0.0000
 11
66.0400
 21
16.5100
 31
0.0000
  0
LINE
  8
16
 10
20.3200
 20
24.1300
 30
0.0000
 11
12.7000
 21
24.1300
 31
0.0000
  0
LINE
  8
16
 10
27.9400
 20
24.1300
 30
0.0000
 11
20.3200
 21
24.1300
 31
0.0000
  0
LINE
  8
16
 10
35.5600
 20
24.1300
 30
0.0000
 11
27.9400
 21
24.1300
 31
0.0000
  0
LINE
  8
16
 10
43.1800
 20
24.1300
 30
0.0000
 11
35.5600
 21
24.1300
 31
0.0000
  0
LINE
  8
16
 10
50.8000
 20
24.1300
 30
0.0000
 11
43.1800
 21
24.1300
 31
0.0000
  0
LINE
  8
16
 10
58.4200
 20
24.1300
 30
0.0000
 11
50.8000
 21
24.1300
 31
0.0000
  0
LINE
  8
16
 10
58.4200
 20
24.1300
 30
0.0000
 11
66.0400
 21
24.1300
 31
0.0000
  0
LINE
  8
16
 10
12.7000
 20
24.1300
 30
0.0000
 11
6.3500
 21
24.1300
 31
0.0000
  0
LINE
  8
16
 10
6.3500
 20
24.1300
 30
0.0000
 11
5.0800
 21
22.8600
 31
0.0000
  0
LINE
  8
16
 10
5.0800
 20
22.8600
 30
0.0000
 11
5.0800
 21
16.5100
 31
0.0000
  0
LINE
  8
16
 10
12.7000
 20
16.5100
 30
0.0000
 11
12.7000
 21
24.1300
 31
0.0000
  0
LINE
  8
16
 10
20.3200
 20
16.5100
 30
0.0000
 11
20.3200
 21
24.1300
 31
0.0000
  0
LINE
  8
16
 10
27.9400
 20
16.5100
 30
0.0000
 11
27.9400
 21
24.1300
 31
0.0000
  0
LINE
  8
16
 10
35.5600
 20
16.5100
 30
0.0000
 11
35.5600
 21
24.1300
 31
0.0000
  0
LINE
  8
16
 10
43.1800
 20
16.5100
 30
0.0000
 11
43.1800
 21
24.1300
 31
0.0000
  0
LINE
  8
16
 10
50.8000
 20
16.5100
 30
0.0000
 11
50.8000
 21
24.1300
 31
0.0000
  0
LINE
  8
16
 10
58.4200
 20
16.5100
 30
0.0000
 11
58.4200
 21
24.1300
 31
0.0000
  0
LINE
  8
16
 10
2.5400
 20
31.7500
 30
0.0000
 11
2.5400
 21
27.9400
 31
0.0000
  0
LINE
  8
16
 10
2.5400
 20
27.9400
 30
0.0000
 11
10.1600
 21
27.9400
 31
0.0000
  0
LINE
  8
16
 10
10.1600
 20
27.9400
 30
0.0000
 11
17.7800
 21
27.9400
 31
0.0000
  0
LINE
  8
16
 10
17.7800
 20
27.9400
 30
0.0000
 11
25.4000
 21
27.9400
 31
0.0000
  0
LINE
  8
16
 10
25.4000
 20
27.9400
 30
0.0000
 11
33.0200
 21
27.9400
 31
0.0000
  0
LINE
  8
16
 10
33.0200
 20
27.9400
 30
0.0000
 11
40.6400
 21
27.9400
 31
0.0000
  0
LINE
  8
16
 10
40.6400
 20
27.9400
 30
0.0000
 11
48.2600
 21
27.9400
 31
0.0000
  0
LINE
  8
16
 10
48.2600
 20
27.9400
 30
0.0000
 11
55.8800
 21
27.9400
 31
0.0000
  0
LINE
  8
16
 10
55.8800
 20
27.9400
 30
0.0000
 11
63.5000
 21
27.9400
 31
0.0000
  0
LINE
  8
16
 10
63.5000
 20
16.5100
 30
0.0000
 11
63.5000
 21
13.9700
 31
0.0000
  0
LINE
  8
16
 10
63.5000
 20
13.9700
 30
0.0000
 11
64.7700
 21
12.7000
 31
0.0000
  0
LINE
  8
16
 10
64.7700
 20
12.7000
 30
0.0000
 11
67.3100
 21
12.7000
 31
0.0000
  0
LINE
  8
16
 10
67.3100
 20
12.7000
 30
0.0000
 11
68.5800
 21
13.9700
 31
0.0000
  0
LINE
  8
16
 10
68.5800
 20
13.9700
 30
0.0000
 11
68.5800
 21
30.4800
 31
0.0000
  0
LINE
  8
16
 10
68.5800
 20
30.4800
 30
0.0000
 11
66.0400
 21
33.0200
 31
0.0000
  0
LINE
  8
16
 10
66.0400
 20
33.0200
 30
0.0000
 11
24.1300
 21
33.0200
 31
0.0000
  0
LINE
  8
16
 10
24.1300
 20
33.0200
 30
0.0000
 11
22.8600
 21
34.2900
 31
0.0000
  0
LINE
  8
16
 10
22.8600
 20
34.2900
 30
0.0000
 11
22.8600
 21
36.8300
 31
0.0000
  0
LINE
  8
16
 10
63.5000
 20
20.3200
 30
0.0000
 11
63.5000
 21
16.5100
 31
0.0000
  0
LINE
  8
16
 10
55.8800
 20
16.5100
 30
0.0000
 11
55.8800
 21
12.7000
 31
0.0000
  0
LINE
  8
16
 10
55.8800
 20
12.7000
 30
0.0000
 11
57.1500
 21
11.4300
 31
0.0000
  0
LINE
  8
16
 10
57.1500
 20
11.4300
 30
0.0000
 11
68.5800
 21
11.4300
 31
0.0000
  0
LINE
  8
16
 10
68.5800
 20
11.4300
 30
0.0000
 11
69.8500
 21
12.7000
 31
0.0000
  0
LINE
  8
16
 10
69.8500
 20
12.7000
 30
0.0000
 11
69.8500
 21
31.7500
 31
0.0000
  0
LINE
  8
16
 10
69.8500
 20
31.7500
 30
0.0000
 11
67.3100
 21
34.2900
 31
0.0000
  0
LINE
  8
16
 10
67.3100
 20
34.2900
 30
0.0000
 11
26.6700
 21
34.2900
 31
0.0000
  0
LINE
  8
16
 10
26.6700
 20
34.2900
 30
0.0000
 11
25.4000
 21
35.5600
 31
0.0000
  0
LINE
  8
16
 10
25.4000
 20
35.5600
 30
0.0000
 11
25.4000
 21
39.3700
 31
0.0000
  0
LINE
  8
16
 10
25.4000
 20
39.3700
 30
0.0000
 11
24.1300
 21
40.6400
 31
0.0000
  0
LINE
  8
16
 10
24.1300
 20
40.6400
 30
0.0000
 11
21.5900
 21
40.6400
 31
0.0000
  0
LINE
  8
16
 10
21.5900
 20
40.6400
 30
0.0000
 11
20.3200
 21
39.3700
 31
0.0000
  0
LINE
  8
16
 10
20.3200
 20
39.3700
 30
0.0000
 11
20.3200
 21
36.8300
 31
0.0000
  0
LINE
  8
16
 10
55.8800
 20
20.3200
 30
0.0000
 11
55.8800
 21
16.5100
 31
0.0000
  0
LINE
  8
16
 10
17.7800
 20
36.8300
 30
0.0000
 11
17.7800
 21
40.6400
 31
0.0000
  0
LINE
  8
16
 10
17.7800
 20
40.6400
 30
0.0000
 11
19.0500
 21
41.9100
 31
0.0000
  0
LINE
  8
16
 10
19.0500
 20
41.9100
 30
0.0000
 11
25.4000
 21
41.9100
 31
0.0000
  0
LINE
  8
16
 10
25.4000
 20
41.9100
 30
0.0000
 11
26.6700
 21
40.6400
 31
0.0000
  0
LINE
  8
16
 10
26.6700
 20
40.6400
 30
0.0000
 11
26.6700
 21
36.8300
 31
0.0000
  0
LINE
  8
16
 10
26.6700
 20
36.8300
 30
0.0000
 11
27.9400
 21
35.5600
 31
0.0000
  0
LINE
  8
16
 10
27.9400
 20
35.5600
 30
0.0000
 11
68.5800
 21
35.5600
 31
0.0000
  0
LINE
  8
16
 10
68.5800
 20
35.5600
 30
0.0000
 11
71.1200
 21
33.0200
 31
0.0000
  0
LINE
  8
16
 10
71.1200
 20
33.0200
 30
0.0000
 11
71.1200
 21
11.4300
 31
0.0000
  0
LINE
  8
16
 10
71.1200
 20
11.4300
 30
0.0000
 11
69.8500
 21
10.1600
 31
0.0000
  0
LINE
  8
16
 10
69.8500
 20
10.1600
 30
0.0000
 11
49.5300
 21
10.1600
 31
0.0000
  0
LINE
  8
16
 10
49.5300
 20
10.1600
 30
0.0000
 11
48.2600
 21
11.4300
 31
0.0000
  0
LINE
  8
16
 10
48.2600
 20
16.5100
 30
0.0000
 11
48.2600
 21
11.4300
 31
0.0000
  0
LINE
  8
16
 10
48.2600
 20
20.3200
 30
0.0000
 11
48.2600
 21
16.5100
 31
0.0000
  0
LINE
  8
16
 10
40.6400
 20
16.5100
 30
0.0000
 11
40.6400
 21
10.1600
 31
0.0000
  0
LINE
  8
16
 10
40.6400
 20
10.1600
 30
0.0000
 11
41.9100
 21
8.8900
 31
0.0000
  0
LINE
  8
16
 10
41.9100
 20
8.8900
 30
0.0000
 11
71.1200
 21
8.8900
 31
0.0000
  0
LINE
  8
16
 10
71.1200
 20
8.8900
 30
0.0000
 11
72.3900
 21
10.1600
 31
0.0000
  0
LINE
  8
16
 10
72.3900
 20
10.1600
 30
0.0000
 11
72.3900
 21
34.2900
 31
0.0000
  0
LINE
  8
16
 10
72.3900
 20
34.2900
 30
0.0000
 11
69.8500
 21
36.8300
 31
0.0000
  0
LINE
  8
16
 10
69.8500
 20
36.8300
 30
0.0000
 11
29.2100
 21
36.8300
 31
0.0000
  0
LINE
  8
16
 10
29.2100
 20
36.8300
 30
0.0000
 11
27.9400
 21
38.1000
 31
0.0000
  0
LINE
  8
16
 10
27.9400
 20
38.1000
 30
0.0000
 11
27.9400
 21
41.9100
 31
0.0000
  0
LINE
  8
16
 10
27.9400
 20
41.9100
 30
0.0000
 11
26.6700
 21
43.1800
 31
0.0000
  0
LINE
  8
16
 10
26.6700
 20
43.1800
 30
0.0000
 11
16.5100
 21
43.1800
 31
0.0000
  0
LINE
  8
16
 10
16.5100
 20
43.1800
 30
0.0000
 11
15.2400
 21
41.9100
 31
0.0000
  0
LINE
  8
16
 10
15.2400
 20
41.9100
 30
0.0000
 11
15.2400
 21
36.8300
 31
0.0000
  0
LINE
  8
16
 10
40.6400
 20
20.3200
 30
0.0000
 11
40.6400
 21
16.5100
 31
0.0000
  0
LINE
  8
16
 10
12.7000
 20
36.8300
 30
0.0000
 11
12.7000
 21
43.1800
 31
0.0000
  0
LINE
  8
16
 10
12.7000
 20
43.1800
 30
0.0000
 11
13.9700
 21
44.4500
 31
0.0000
  0
LINE
  8
16
 10
13.9700
 20
44.4500
 30
0.0000
 11
27.9400
 21
44.4500
 31
0.0000
  0
LINE
  8
16
 10
27.9400
 20
44.4500
 30
0.0000
 11
29.2100
 21
43.1800
 31
0.0000
  0
LINE
  8
16
 10
29.2100
 20
43.1800
 30
0.0000
 11
29.2100
 21
39.3700
 31
0.0000
  0
LINE
  8
16
 10
29.2100
 20
39.3700
 30
0.0000
 11
30.4800
 21
38.1000
 31
0.0000
  0
LINE
  8
16
 10
30.4800
 20
38.1000
 30
0.0000
 11
71.1200
 21
38.1000
 31
0.0000
  0
LINE
  8
16
 10
71.1200
 20
38.1000
 30
0.0000
 11
73.6600
 21
35.5600
 31
0.0000
  0
LINE
  8
16
 10
73.6600
 20
35.5600
 30
0.0000
 11
73.6600
 21
8.8900
 31
0.0000
  0
LINE
  8
16
 10
73.6600
 20
8.8900
 30
0.0000
 11
72.3900
 21
7.6200
 31
0.0000
  0
LINE
  8
16
 10
72.3900
 20
7.6200
 30
0.0000
 11
34.2900
 21
7.6200
 31
0.0000
  0
LINE
  8
16
 10
34.2900
 20
7.6200
 30
0.0000
 11
33.0200
 21
8.8900
 31
0.0000
  0
LINE
  8
16
 10
33.0200
 20
16.5100
 30
0.0000
 11
33.0200
 21
8.8900
 31
0.0000
  0
LINE
  8
16
 10
33.0200
 20
20.3200
 30
0.0000
 11
33.0200
 21
16.5100
 31
0.0000
  0
LINE
  8
16
 10
25.4000
 20
16.5100
 30
0.0000
 11
25.4000
 21
7.6200
 31
0.0000
  0
LINE
  8
16
 10
25.4000
 20
7.6200
 30
0.0000
 11
26.6700
 21
6.3500
 31
0.0000
  0
LINE
  8
16
 10
26.6700
 20
6.3500
 30
0.0000
 11
73.6600
 21
6.3500
 31
0.0000
  0
LINE
  8
16
 10
73.6600
 20
6.3500
 30
0.0000
 11
74.9300
 21
7.6200
 31
0.0000
  0
LINE
  8
16
 10
74.9300
 20
7.6200
 30
0.0000
 11
74.9300
 21
36.8300
 31
0.0000
  0
LINE
  8
16
 10
74.9300
 20
36.8300
 30
0.0000
 11
72.3900
 21
39.3700
 31
0.0000
  0
LINE
  8
16
 10
72.3900
 20
39.3700
 30
0.0000
 11
31.7500
 21
39.3700
 31
0.0000
  0
LINE
  8
16
 10
31.7500
 20
39.3700
 30
0.0000
 11
30.4800
 21
40.6400
 31
0.0000
  0
LINE
  8
16
 10
30.4800
 20
40.6400
 30
0.0000
 11
30.4800
 21
44.4500
 31
0.0000
  0
LINE
  8
16
 10
30.4800
 20
44.4500
 30
0.0000
 11
29.2100
 21
45.7200
 31
0.0000
  0
LINE
  8
16
 10
29.2100
 20
45.7200
 30
0.0000
 11
11.4300
 21
45.7200
 31
0.0000
  0
LINE
  8
16
 10
11.4300
 20
45.7200
 30
0.0000
 11
10.1600
 21
44.4500
 31
0.0000
  0
LINE
  8
16
 10
10.1600
 20
44.4500
 30
0.0000
 11
10.1600
 21
36.8300
 31
0.0000
  0
LINE
  8
16
 10
25.4000
 20
20.3200
 30
0.0000
 11
25.4000
 21
16.5100
 31
0.0000
  0
LINE
  8
16
 10
7.6200
 20
36.8300
 30
0.0000
 11
7.6200
 21
45.7200
 31
0.0000
  0
LINE
  8
16
 10
7.6200
 20
45.7200
 30
0.0000
 11
8.8900
 21
46.9900
 31
0.0000
  0
LINE
  8
16
 10
8.8900
 20
46.9900
 30
0.0000
 11
30.4800
 21
46.9900
 31
0.0000
  0
LINE
  8
16
 10
30.4800
 20
46.9900
 30
0.0000
 11
31.7500
 21
45.7200
 31
0.0000
  0
LINE
  8
16
 10
31.7500
 20
45.7200
 30
0.0000
 11
31.7500
 21
41.9100
 31
0.0000
  0
LINE
  8
16
 10
31.7500
 20
41.9100
 30
0.0000
 11
33.0200
 21
40.6400
 31
0.0000
  0
LINE
  8
16
 10
33.0200
 20
40.6400
 30
0.0000
 11
73.6600
 21
40.6400
 31
0.0000
  0
LINE
  8
16
 10
73.6600
 20
40.6400
 30
0.0000
 11
76.2000
 21
38.1000
 31
0.0000
  0
LINE
  8
16
 10
76.2000
 20
38.1000
 30
0.0000
 11
76.2000
 21
6.3500
 31
0.0000
  0
LINE
  8
16
 10
76.2000
 20
6.3500
 30
0.0000
 11
74.9300
 21
5.0800
 31
0.0000
  0
LINE
  8
16
 10
74.9300
 20
5.0800
 30
0.0000
 11
19.0500
 21
5.0800
 31
0.0000
  0
LINE
  8
16
 10
19.0500
 20
5.0800
 30
0.0000
 11
17.7800
 21
6.3500
 31
0.0000
  0
LINE
  8
16
 10
17.7800
 20
16.5100
 30
0.0000
 11
17.7800
 21
6.3500
 31
0.0000
  0
LINE
  8
16
 10
17.7800
 20
20.3200
 30
0.0000
 11
17.7800
 21
16.5100
 31
0.0000
  0
LINE
  8
16
 10
10.1600
 20
16.5100
 30
0.0000
 11
10.1600
 21
5.0800
 31
0.0000
  0
LINE
  8
16
 10
10.1600
 20
5.0800
 30
0.0000
 11
11.4300
 21
3.8100
 31
0.0000
  0
LINE
  8
16
 10
11.4300
 20
3.8100
 30
0.0000
 11
76.2000
 21
3.8100
 31
0.0000
  0
LINE
  8
16
 10
76.2000
 20
3.8100
 30
0.0000
 11
77.4700
 21
5.0800
 31
0.0000
  0
LINE
  8
16
 10
77.4700
 20
5.0800
 30
0.0000
 11
77.4700
 21
39.3700
 31
0.0000
  0
LINE
  8
16
 10
77.4700
 20
39.3700
 30
0.0000
 11
74.9300
 21
41.9100
 31
0.0000
  0
LINE
  8
16
 10
74.9300
 20
41.9100
 30
0.0000
 11
34.2900
 21
41.9100
 31
0.0000
  0
LINE
  8
16
 10
34.2900
 20
41.9100
 30
0.0000
 11
33.0200
 21
43.1800
 31
0.0000
  0
LINE
  8
16
 10
33.0200
 20
43.1800
 30
0.0000
 11
33.0200
 21
46.9900
 31
0.0000
  0
LINE
  8
16
 10
33.0200
 20
46.9900
 30
0.0000
 11
31.7500
 21
48.2600
 31
0.0000
  0
LINE
  8
16
 10
31.7500
 20
48.2600
 30
0.0000
 11
6.3500
 21
48.2600
 31
0.0000
  0
LINE
  8
16
 10
6.3500
 20
48.2600
 30
0.0000
 11
5.0800
 21
46.9900
 31
0.0000
  0
LINE
  8
16
 10
5.0800
 20
46.9900
 30
0.0000
 11
5.0800
 21
36.8300
 31
0.0000
  0
LINE
  8
16
 10
10.1600
 20
20.3200
 30
0.0000
 11
10.1600
 21
16.5100
 31
0.0000
  0
LINE
  8
16
 10
2.5400
 20
16.5100
 30
0.0000
 11
2.5400
 21
3.8100
 31
0.0000
  0
LINE
  8
16
 10
2.5400
 20
3.8100
 30
0.0000
 11
3.8100
 21
2.5400
 31
0.0000
  0
LINE
  8
16
 10
3.8100
 20
2.5400
 30
0.0000
 11
77.4700
 21
2.5400
 31
0.0000
  0
LINE
  8
16
 10
77.4700
 20
2.5400
 30
0.0000
 11
78.7400
 21
3.8100
 31
0.0000
  0
LINE
  8
16
 10
78.7400
 20
3.8100
 30
0.0000
 11
78.7400
 21
40.6400
 31
0.0000
  0
LINE
  8
16
 10
78.7400
 20
40.6400
 30
0.0000
 11
76.2000
 21
43.1800
 31
0.0000
  0
LINE
  8
16
 10
76.2000
 20
43.1800
 30
0.0000
 11
35.5600
 21
43.1800
 31
0.0000
  0
LINE
  8
16
 10
35.5600
 20
43.1800
 30
0.0000
 11
34.2900
 21
44.4500
 31
0.0000
  0
LINE
  8
16
 10
34.2900
 20
44.4500
 30
0.0000
 11
34.2900
 21
48.2600
 31
0.0000
  0
LINE
  8
16
 10
34.2900
 20
48.2600
 30
0.0000
 11
33.0200
 21
49.5300
 31
0.0000
  0
LINE
  8
16
 10
33.0200
 20
49.5300
 30
0.0000
 11
3.8100
 21
49.5300
 31
0.0000
  0
LINE
  8
16
 10
3.8100
 20
49.5300
 30
0.0000
 11
2.5400
 21
48.2600
 31
0.0000
  0
LINE
  8
16
 10
2.5400
 20
48.2600
 30
0.0000
 11
2.5400
 21
36.8300
 31
0.0000
  0
LINE
  8
16
 10
2.5400
 20
20.3200
 30
0.0000
 11
2.5400
 21
16.5100
 31
0.0000
  0
ENDSEC
  0
EOF
