  0
SECTION
  2
HEADER
  9
$ACADVER
  1
AC1009
  9
$FILLMODE
 70
0
  9
$EXTMIN
 10
2.0320
 20
5.8420
 30
0.0000
  9
$EXTMAX
 10
72.8980
 20
118.1735
 30
0.0000
  0
ENDSEC
  0
SECTION
  2
TABLES
  0
TABLE
  2
LTYPE
 70
1
  0
LTYPE
  2
CONTINUOUS
 70
64
  3
Solid line
 72
65
 73
0
 40
0
  0
ENDTAB
  0
TABLE
  2
LAYER
 70
255
  0
LAYER
  2
16
 70
64
 62
175
  6
CONTINUOUS
  0
LAYER
  2
17
 70
64
 62
82
  6
CONTINUOUS
  0
LAYER
  2
18
 70
64
 62
82
  6
CONTINUOUS
  0
LAYER
  2
19
 70
64
 62
53
  6
CONTINUOUS
  0
LAYER
  2
20
 70
64
 62
7
  6
CONTINUOUS
  0
LAYER
  2
44
 70
64
 62
253
  6
CONTINUOUS
  0
ENDTAB
  0
ENDSEC
  0
SECTION
  2
BLOCKS
  0
BLOCK
  8
0
  2
RECT
 70
64
 10
0.0000
 20
0.0000
 30
0.0000
  3
RECT
  0
SOLID
  8
0
 10
-0.5000
 20
-0.5000
 30
0.0000
 11
0.5000
 21
-0.5000
 31
0.0000
 12
-0.5000
 22
0.5000
 32
0.0000
 13
0.5000
 23
0.5000
 33
0.0000
  0
ENDBLK
  8
0
  0
BLOCK
  8
0
  2
PIE
 70
64
 10
0.0000
 20
0.0000
 30
0.0000
  3
PIE
  0
CIRCLE
  8
0
 10
0.0000
 20
0.0000
 30
0.0000
 40
0.5000
  0
ENDBLK
  8
0
  0
BLOCK
  8
0
  2
OCTAGONP
 70
64
 10
0.0000
 20
0.0000
 30
0.0000
  3
OCTAGONP
  0
POLYLINE
  8
0
 66
1
 10
0.0000
 20
0.0000
 30
0.0000
 40
0.0000
 41
0.0000
 70
1
  0
VERTEX
  8
0
 10
-0.5000
 20
-0.2071
 30
0.0000
  0
VERTEX
  8
0
 10
-0.5000
 20
0.2071
 30
0.0000
  0
VERTEX
  8
0
 10
-0.2071
 20
0.5000
 30
0.0000
  0
VERTEX
  8
0
 10
0.2071
 20
0.5000
 30
0.0000
  0
VERTEX
  8
0
 10
0.5000
 20
0.2071
 30
0.0000
  0
VERTEX
  8
0
 10
0.5000
 20
-0.2071
 30
0.0000
  0
VERTEX
  8
0
 10
0.2071
 20
-0.5000
 30
0.0000
  0
VERTEX
  8
0
 10
-0.2071
 20
-0.5000
 30
0.0000
  0
SEQEND
  8
0
  0
ENDBLK
  8
0
  0
BLOCK
  8
0
  2
SQUAREP
 70
64
 10
0.0000
 20
0.0000
 30
0.0000
  3
SQUAREP
  0
SOLID
  8
0
 10
-0.5000
 20
-0.5000
 30
0.0000
 11
0.5000
 21
-0.5000
 31
0.0000
 12
-0.5000
 22
0.5000
 32
0.0000
 13
0.5000
 23
0.5000
 33
0.0000
  0
ENDBLK
  8
0
  0
BLOCK
  8
0
  2
ROUNDP
 70
64
 10
0.0000
 20
0.0000
 30
0.0000
  3
ROUNDP
  0
CIRCLE
  8
0
 10
0.0000
 20
0.0000
 30
0.0000
 40
0.5000
  0
ENDBLK
  8
0
  0
BLOCK
  8
0
  2
ANNULUSP
 70
64
 10
0.0000
 20
0.0000
 30
0.0000
  3
ANNULUSP
  0
CIRCLE
  8
0
 10
0.0000
 20
0.0000
 30
0.0000
 40
0.5000
  0
ENDBLK
  8
0
  0
BLOCK
  8
0
  2
THERMALP
 70
64
 10
0.0000
 20
0.0000
 30
0.0000
  3
THERMALP
  0
POLYLINE
  8
0
 66
1
 10
0.0000
 20
0.0000
 30
0.0000
 40
0.0000
 41
0.0000
 70
1
  0
VERTEX
  8
0
 10
-0.2379
 20
0.4000
 30
0.0000
  0
VERTEX
  8
0
 10
0.2379
 20
0.4000
 30
0.0000
 42
1.0000
  0
VERTEX
  8
0
 10
0.2379
 20
0.5000
 30
0.0000
  0
VERTEX
  8
0
 10
-0.2379
 20
0.5000
 30
0.0000
 42
1.0000
  0
SEQEND
  8
0
  0
POLYLINE
  8
0
 66
1
 10
0.0000
 20
0.0000
 30
0.0000
 40
0.0000
 41
0.0000
 70
1
  0
VERTEX
  8
0
 10
0.4000
 20
0.2379
 30
0.0000
  0
VERTEX
  8
0
 10
0.4000
 20
-0.2379
 30
0.0000
 42
1.0000
  0
VERTEX
  8
0
 10
0.5000
 20
-0.2379
 30
0.0000
  0
VERTEX
  8
0
 10
0.5000
 20
0.2379
 30
0.0000
 42
1.0000
  0
SEQEND
  8
0
  0
POLYLINE
  8
0
 66
1
 10
0.0000
 20
0.0000
 30
0.0000
 40
0.0000
 41
0.0000
 70
1
  0
VERTEX
  8
0
 10
0.2379
 20
-0.4000
 30
0.0000
  0
VERTEX
  8
0
 10
-0.2379
 20
-0.4000
 30
0.0000
 42
1.0000
  0
VERTEX
  8
0
 10
-0.2379
 20
-0.5000
 30
0.0000
  0
VERTEX
  8
0
 10
0.2379
 20
-0.5000
 30
0.0000
 42
1.0000
  0
SEQEND
  8
0
  0
POLYLINE
  8
0
 66
1
 10
0.0000
 20
0.0000
 30
0.0000
 40
0.0000
 41
0.0000
 70
1
  0
VERTEX
  8
0
 10
-0.4000
 20
-0.2379
 30
0.0000
  0
VERTEX
  8
0
 10
-0.4000
 20
0.2379
 30
0.0000
 42
1.0000
  0
VERTEX
  8
0
 10
-0.5000
 20
0.2379
 30
0.0000
  0
VERTEX
  8
0
 10
-0.5000
 20
-0.2379
 30
0.0000
 42
1.0000
  0
SEQEND
  8
0
  0
ENDBLK
  8
0
  0
BLOCK
  8
0
  2
OCTAGONV
 70
64
 10
0.0000
 20
0.0000
 30
0.0000
  3
OCTAGONV
  0
POLYLINE
  8
0
 66
1
 10
0.0000
 20
0.0000
 30
0.0000
 40
0.0000
 41
0.0000
 70
1
  0
VERTEX
  8
0
 10
-0.5000
 20
-0.2071
 30
0.0000
  0
VERTEX
  8
0
 10
-0.5000
 20
0.2071
 30
0.0000
  0
VERTEX
  8
0
 10
-0.2071
 20
0.5000
 30
0.0000
  0
VERTEX
  8
0
 10
0.2071
 20
0.5000
 30
0.0000
  0
VERTEX
  8
0
 10
0.5000
 20
0.2071
 30
0.0000
  0
VERTEX
  8
0
 10
0.5000
 20
-0.2071
 30
0.0000
  0
VERTEX
  8
0
 10
0.2071
 20
-0.5000
 30
0.0000
  0
VERTEX
  8
0
 10
-0.2071
 20
-0.5000
 30
0.0000
  0
SEQEND
  8
0
  0
ENDBLK
  8
0
  0
BLOCK
  8
0
  2
SQUAREV
 70
64
 10
0.0000
 20
0.0000
 30
0.0000
  3
SQUAREV
  0
SOLID
  8
0
 10
-0.5000
 20
-0.5000
 30
0.0000
 11
0.5000
 21
-0.5000
 31
0.0000
 12
-0.5000
 22
0.5000
 32
0.0000
 13
0.5000
 23
0.5000
 33
0.0000
  0
ENDBLK
  8
0
  0
BLOCK
  8
0
  2
ROUNDV
 70
64
 10
0.0000
 20
0.0000
 30
0.0000
  3
ROUNDV
  0
CIRCLE
  8
0
 10
0.0000
 20
0.0000
 30
0.0000
 40
0.5000
  0
ENDBLK
  8
0
  0
BLOCK
  8
0
  2
ANNULUSV
 70
64
 10
0.0000
 20
0.0000
 30
0.0000
  3
ANNULUSV
  0
CIRCLE
  8
0
 10
0.0000
 20
0.0000
 30
0.0000
 40
0.5000
  0
ENDBLK
  8
0
  0
BLOCK
  8
0
  2
THERMALV
 70
64
 10
0.0000
 20
0.0000
 30
0.0000
  3
THERMALV
  0
POLYLINE
  8
0
 66
1
 10
0.0000
 20
0.0000
 30
0.0000
 40
0.0000
 41
0.0000
 70
1
  0
VERTEX
  8
0
 10
-0.2379
 20
0.4000
 30
0.0000
  0
VERTEX
  8
0
 10
0.2379
 20
0.4000
 30
0.0000
 42
1.0000
  0
VERTEX
  8
0
 10
0.2379
 20
0.5000
 30
0.0000
  0
VERTEX
  8
0
 10
-0.2379
 20
0.5000
 30
0.0000
 42
1.0000
  0
SEQEND
  8
0
  0
POLYLINE
  8
0
 66
1
 10
0.0000
 20
0.0000
 30
0.0000
 40
0.0000
 41
0.0000
 70
1
  0
VERTEX
  8
0
 10
0.4000
 20
0.2379
 30
0.0000
  0
VERTEX
  8
0
 10
0.4000
 20
-0.2379
 30
0.0000
 42
1.0000
  0
VERTEX
  8
0
 10
0.5000
 20
-0.2379
 30
0.0000
  0
VERTEX
  8
0
 10
0.5000
 20
0.2379
 30
0.0000
 42
1.0000
  0
SEQEND
  8
0
  0
POLYLINE
  8
0
 66
1
 10
0.0000
 20
0.0000
 30
0.0000
 40
0.0000
 41
0.0000
 70
1
  0
VERTEX
  8
0
 10
0.2379
 20
-0.4000
 30
0.0000
  0
VERTEX
  8
0
 10
-0.2379
 20
-0.4000
 30
0.0000
 42
1.0000
  0
VERTEX
  8
0
 10
-0.2379
 20
-0.5000
 30
0.0000
  0
VERTEX
  8
0
 10
0.2379
 20
-0.5000
 30
0.0000
 42
1.0000
  0
SEQEND
  8
0
  0
POLYLINE
  8
0
 66
1
 10
0.0000
 20
0.0000
 30
0.0000
 40
0.0000
 41
0.0000
 70
1
  0
VERTEX
  8
0
 10
-0.4000
 20
-0.2379
 30
0.0000
  0
VERTEX
  8
0
 10
-0.4000
 20
0.2379
 30
0.0000
 42
1.0000
  0
VERTEX
  8
0
 10
-0.5000
 20
0.2379
 30
0.0000
  0
VERTEX
  8
0
 10
-0.5000
 20
-0.2379
 30
0.0000
 42
1.0000
  0
SEQEND
  8
0
  0
ENDBLK
  8
0
  0
BLOCK
  8
0
  2
LONGP100
 70
64
 10
0.0000
 20
0.0000
 30
0.0000
  3
LONGP100
  0
POLYLINE
  8
0
 66
1
 10
0.0000
 20
0.0000
 30
0.0000
 40
0.0000
 41
0.0000
 70
1
  0
VERTEX
  8
0
 10
-0.5000
 20
-0.5000
 30
0.0000
  0
VERTEX
  8
0
 10
0.5000
 20
-0.5000
 30
0.0000
 42
1.0000
  0
VERTEX
  8
0
 10
0.5000
 20
0.5000
 30
0.0000
  0
VERTEX
  8
0
 10
-0.5000
 20
0.5000
 30
0.0000
 42
1.0000
  0
SEQEND
  8
0
  0
ENDBLK
  8
0
  0
ENDSEC
  0
SECTION
  2
ENTITIES
  0
LINE
  8
20
 10
5.0800
 20
10.1600
 30
0.0000
 11
69.5200
 21
10.1600
 31
0.0000
  0
LINE
  8
20
 10
69.5200
 20
10.1600
 30
0.0000
 11
69.5200
 21
111.7500
 31
0.0000
  0
LINE
  8
20
 10
69.5200
 20
111.7500
 30
0.0000
 11
5.0800
 21
111.7500
 31
0.0000
  0
LINE
  8
20
 10
5.0800
 20
111.7500
 30
0.0000
 11
5.0800
 21
10.1600
 31
0.0000
  0
CIRCLE
  8
20
 10
59.6900
 20
96.5200
 30
0.0000
 40
1.6000
  0
CIRCLE
  8
20
 10
11.4300
 20
97.7900
 30
0.0000
 40
1.6000
  0
CIRCLE
  8
20
 10
44.4500
 20
45.7200
 30
0.0000
 40
1.6000
  0
CIRCLE
  8
20
 10
16.5100
 20
45.7200
 30
0.0000
 40
1.6000
  0
CIRCLE
  8
20
 10
59.6900
 20
21.5900
 30
0.0000
 40
1.6000
  0
CIRCLE
  8
20
 10
11.4300
 20
15.2400
 30
0.0000
 40
1.6000
  0
INSERT
  8
17
  2
ROUNDP
 10
59.6900
 20
48.2600
 30
0.0000
 41
1.8796
 42
1.8796
 43
1.0000
 50
0.0000
  0
CIRCLE
  8
44
 10
59.6900
 20
48.2600
 30
0.0000
 40
0.5080
  0
INSERT
  8
17
  2
ROUNDP
 10
59.6900
 20
50.8000
 30
0.0000
 41
1.8796
 42
1.8796
 43
1.0000
 50
0.0000
  0
CIRCLE
  8
44
 10
59.6900
 20
50.8000
 30
0.0000
 40
0.5080
  0
INSERT
  8
17
  2
ROUNDP
 10
59.6900
 20
53.3400
 30
0.0000
 41
1.8796
 42
1.8796
 43
1.0000
 50
0.0000
  0
CIRCLE
  8
44
 10
59.6900
 20
53.3400
 30
0.0000
 40
0.5080
  0
INSERT
  8
17
  2
ROUNDP
 10
59.6900
 20
55.8800
 30
0.0000
 41
1.8796
 42
1.8796
 43
1.0000
 50
0.0000
  0
CIRCLE
  8
44
 10
59.6900
 20
55.8800
 30
0.0000
 40
0.5080
  0
INSERT
  8
17
  2
ROUNDP
 10
11.4300
 20
76.2000
 30
0.0000
 41
1.8796
 42
1.8796
 43
1.0000
 50
0.0000
  0
CIRCLE
  8
44
 10
11.4300
 20
76.2000
 30
0.0000
 40
0.5080
  0
INSERT
  8
17
  2
ROUNDP
 10
59.6900
 20
58.4200
 30
0.0000
 41
1.8796
 42
1.8796
 43
1.0000
 50
0.0000
  0
CIRCLE
  8
44
 10
59.6900
 20
58.4200
 30
0.0000
 40
0.5080
  0
INSERT
  8
17
  2
ROUNDP
 10
59.6900
 20
60.9600
 30
0.0000
 41
1.8796
 42
1.8796
 43
1.0000
 50
0.0000
  0
CIRCLE
  8
44
 10
59.6900
 20
60.9600
 30
0.0000
 40
0.5080
  0
INSERT
  8
17
  2
ROUNDP
 10
11.4300
 20
73.6600
 30
0.0000
 41
1.8796
 42
1.8796
 43
1.0000
 50
0.0000
  0
CIRCLE
  8
44
 10
11.4300
 20
73.6600
 30
0.0000
 40
0.5080
  0
INSERT
  8
17
  2
ROUNDP
 10
59.6900
 20
17.7800
 30
0.0000
 41
1.8796
 42
1.8796
 43
1.0000
 50
0.0000
  0
CIRCLE
  8
44
 10
59.6900
 20
17.7800
 30
0.0000
 40
0.5080
  0
INSERT
  8
17
  2
ROUNDP
 10
59.6900
 20
15.2400
 30
0.0000
 41
1.8796
 42
1.8796
 43
1.0000
 50
0.0000
  0
CIRCLE
  8
44
 10
59.6900
 20
15.2400
 30
0.0000
 40
0.5080
  0
INSERT
  8
17
  2
ROUNDP
 10
59.6900
 20
63.5000
 30
0.0000
 41
1.8796
 42
1.8796
 43
1.0000
 50
0.0000
  0
CIRCLE
  8
44
 10
59.6900
 20
63.5000
 30
0.0000
 40
0.5080
  0
INSERT
  8
17
  2
ROUNDP
 10
59.6900
 20
66.0400
 30
0.0000
 41
1.8796
 42
1.8796
 43
1.0000
 50
0.0000
  0
CIRCLE
  8
44
 10
59.6900
 20
66.0400
 30
0.0000
 40
0.5080
  0
INSERT
  8
17
  2
ROUNDP
 10
59.6900
 20
70.1040
 30
0.0000
 41
1.8796
 42
1.8796
 43
1.0000
 50
0.0000
  0
CIRCLE
  8
44
 10
59.6900
 20
70.1040
 30
0.0000
 40
0.5080
  0
INSERT
  8
17
  2
ROUNDP
 10
59.6900
 20
72.6440
 30
0.0000
 41
1.8796
 42
1.8796
 43
1.0000
 50
0.0000
  0
CIRCLE
  8
44
 10
59.6900
 20
72.6440
 30
0.0000
 40
0.5080
  0
INSERT
  8
17
  2
ROUNDP
 10
59.6900
 20
75.1840
 30
0.0000
 41
1.8796
 42
1.8796
 43
1.0000
 50
0.0000
  0
CIRCLE
  8
44
 10
59.6900
 20
75.1840
 30
0.0000
 40
0.5080
  0
INSERT
  8
17
  2
ROUNDP
 10
59.6900
 20
77.7240
 30
0.0000
 41
1.8796
 42
1.8796
 43
1.0000
 50
0.0000
  0
CIRCLE
  8
44
 10
59.6900
 20
77.7240
 30
0.0000
 40
0.5080
  0
INSERT
  8
17
  2
ROUNDP
 10
59.6900
 20
80.2640
 30
0.0000
 41
1.8796
 42
1.8796
 43
1.0000
 50
0.0000
  0
CIRCLE
  8
44
 10
59.6900
 20
80.2640
 30
0.0000
 40
0.5080
  0
INSERT
  8
17
  2
ROUNDP
 10
59.6900
 20
82.8040
 30
0.0000
 41
1.8796
 42
1.8796
 43
1.0000
 50
0.0000
  0
CIRCLE
  8
44
 10
59.6900
 20
82.8040
 30
0.0000
 40
0.5080
  0
INSERT
  8
17
  2
ROUNDP
 10
59.6900
 20
43.1800
 30
0.0000
 41
1.8796
 42
1.8796
 43
1.0000
 50
0.0000
  0
CIRCLE
  8
44
 10
59.6900
 20
43.1800
 30
0.0000
 40
0.5080
  0
INSERT
  8
17
  2
ROUNDP
 10
59.6900
 20
40.6400
 30
0.0000
 41
1.8796
 42
1.8796
 43
1.0000
 50
0.0000
  0
CIRCLE
  8
44
 10
59.6900
 20
40.6400
 30
0.0000
 40
0.5080
  0
INSERT
  8
17
  2
ROUNDP
 10
59.6900
 20
38.1000
 30
0.0000
 41
1.8796
 42
1.8796
 43
1.0000
 50
0.0000
  0
CIRCLE
  8
44
 10
59.6900
 20
38.1000
 30
0.0000
 40
0.5080
  0
INSERT
  8
17
  2
ROUNDP
 10
59.6900
 20
35.5600
 30
0.0000
 41
1.8796
 42
1.8796
 43
1.0000
 50
0.0000
  0
CIRCLE
  8
44
 10
59.6900
 20
35.5600
 30
0.0000
 40
0.5080
  0
INSERT
  8
17
  2
ROUNDP
 10
59.6900
 20
33.0200
 30
0.0000
 41
1.8796
 42
1.8796
 43
1.0000
 50
0.0000
  0
CIRCLE
  8
44
 10
59.6900
 20
33.0200
 30
0.0000
 40
0.5080
  0
INSERT
  8
17
  2
ROUNDP
 10
59.6900
 20
30.4800
 30
0.0000
 41
1.8796
 42
1.8796
 43
1.0000
 50
0.0000
  0
CIRCLE
  8
44
 10
59.6900
 20
30.4800
 30
0.0000
 40
0.5080
  0
INSERT
  8
17
  2
ROUNDP
 10
59.6900
 20
27.9400
 30
0.0000
 41
1.8796
 42
1.8796
 43
1.0000
 50
0.0000
  0
CIRCLE
  8
44
 10
59.6900
 20
27.9400
 30
0.0000
 40
0.5080
  0
INSERT
  8
17
  2
ROUNDP
 10
59.6900
 20
25.4000
 30
0.0000
 41
1.8796
 42
1.8796
 43
1.0000
 50
0.0000
  0
CIRCLE
  8
44
 10
59.6900
 20
25.4000
 30
0.0000
 40
0.5080
  0
INSERT
  8
17
  2
OCTAGONP
 10
57.1500
 20
17.7800
 30
0.0000
 41
1.8796
 42
1.8796
 43
1.0000
 50
0.0000
  0
CIRCLE
  8
44
 10
57.1500
 20
17.7800
 30
0.0000
 40
0.5080
  0
INSERT
  8
17
  2
OCTAGONP
 10
57.1500
 20
15.2400
 30
0.0000
 41
1.8796
 42
1.8796
 43
1.0000
 50
0.0000
  0
CIRCLE
  8
44
 10
57.1500
 20
15.2400
 30
0.0000
 40
0.5080
  0
INSERT
  8
17
  2
OCTAGONP
 10
54.6100
 20
17.7800
 30
0.0000
 41
1.8796
 42
1.8796
 43
1.0000
 50
0.0000
  0
CIRCLE
  8
44
 10
54.6100
 20
17.7800
 30
0.0000
 40
0.5080
  0
INSERT
  8
17
  2
OCTAGONP
 10
54.6100
 20
15.2400
 30
0.0000
 41
1.8796
 42
1.8796
 43
1.0000
 50
0.0000
  0
CIRCLE
  8
44
 10
54.6100
 20
15.2400
 30
0.0000
 40
0.5080
  0
INSERT
  8
17
  2
OCTAGONP
 10
52.0700
 20
17.7800
 30
0.0000
 41
1.8796
 42
1.8796
 43
1.0000
 50
0.0000
  0
CIRCLE
  8
44
 10
52.0700
 20
17.7800
 30
0.0000
 40
0.5080
  0
INSERT
  8
17
  2
OCTAGONP
 10
52.0700
 20
15.2400
 30
0.0000
 41
1.8796
 42
1.8796
 43
1.0000
 50
0.0000
  0
CIRCLE
  8
44
 10
52.0700
 20
15.2400
 30
0.0000
 40
0.5080
  0
INSERT
  8
17
  2
OCTAGONP
 10
49.5300
 20
17.7800
 30
0.0000
 41
1.8796
 42
1.8796
 43
1.0000
 50
0.0000
  0
CIRCLE
  8
44
 10
49.5300
 20
17.7800
 30
0.0000
 40
0.5080
  0
INSERT
  8
17
  2
OCTAGONP
 10
49.5300
 20
15.2400
 30
0.0000
 41
1.8796
 42
1.8796
 43
1.0000
 50
0.0000
  0
CIRCLE
  8
44
 10
49.5300
 20
15.2400
 30
0.0000
 40
0.5080
  0
INSERT
  8
17
  2
OCTAGONP
 10
46.9900
 20
17.7800
 30
0.0000
 41
1.8796
 42
1.8796
 43
1.0000
 50
0.0000
  0
CIRCLE
  8
44
 10
46.9900
 20
17.7800
 30
0.0000
 40
0.5080
  0
INSERT
  8
17
  2
OCTAGONP
 10
46.9900
 20
15.2400
 30
0.0000
 41
1.8796
 42
1.8796
 43
1.0000
 50
0.0000
  0
CIRCLE
  8
44
 10
46.9900
 20
15.2400
 30
0.0000
 40
0.5080
  0
INSERT
  8
17
  2
OCTAGONP
 10
44.4500
 20
17.7800
 30
0.0000
 41
1.8796
 42
1.8796
 43
1.0000
 50
0.0000
  0
CIRCLE
  8
44
 10
44.4500
 20
17.7800
 30
0.0000
 40
0.5080
  0
INSERT
  8
17
  2
OCTAGONP
 10
44.4500
 20
15.2400
 30
0.0000
 41
1.8796
 42
1.8796
 43
1.0000
 50
0.0000
  0
CIRCLE
  8
44
 10
44.4500
 20
15.2400
 30
0.0000
 40
0.5080
  0
INSERT
  8
17
  2
OCTAGONP
 10
41.9100
 20
17.7800
 30
0.0000
 41
1.8796
 42
1.8796
 43
1.0000
 50
0.0000
  0
CIRCLE
  8
44
 10
41.9100
 20
17.7800
 30
0.0000
 40
0.5080
  0
INSERT
  8
17
  2
OCTAGONP
 10
41.9100
 20
15.2400
 30
0.0000
 41
1.8796
 42
1.8796
 43
1.0000
 50
0.0000
  0
CIRCLE
  8
44
 10
41.9100
 20
15.2400
 30
0.0000
 40
0.5080
  0
INSERT
  8
17
  2
OCTAGONP
 10
39.3700
 20
17.7800
 30
0.0000
 41
1.8796
 42
1.8796
 43
1.0000
 50
0.0000
  0
CIRCLE
  8
44
 10
39.3700
 20
17.7800
 30
0.0000
 40
0.5080
  0
INSERT
  8
17
  2
OCTAGONP
 10
39.3700
 20
15.2400
 30
0.0000
 41
1.8796
 42
1.8796
 43
1.0000
 50
0.0000
  0
CIRCLE
  8
44
 10
39.3700
 20
15.2400
 30
0.0000
 40
0.5080
  0
INSERT
  8
17
  2
OCTAGONP
 10
36.8300
 20
17.7800
 30
0.0000
 41
1.8796
 42
1.8796
 43
1.0000
 50
0.0000
  0
CIRCLE
  8
44
 10
36.8300
 20
17.7800
 30
0.0000
 40
0.5080
  0
INSERT
  8
17
  2
OCTAGONP
 10
36.8300
 20
15.2400
 30
0.0000
 41
1.8796
 42
1.8796
 43
1.0000
 50
0.0000
  0
CIRCLE
  8
44
 10
36.8300
 20
15.2400
 30
0.0000
 40
0.5080
  0
INSERT
  8
17
  2
OCTAGONP
 10
34.2900
 20
17.7800
 30
0.0000
 41
1.8796
 42
1.8796
 43
1.0000
 50
0.0000
  0
CIRCLE
  8
44
 10
34.2900
 20
17.7800
 30
0.0000
 40
0.5080
  0
INSERT
  8
17
  2
OCTAGONP
 10
34.2900
 20
15.2400
 30
0.0000
 41
1.8796
 42
1.8796
 43
1.0000
 50
0.0000
  0
CIRCLE
  8
44
 10
34.2900
 20
15.2400
 30
0.0000
 40
0.5080
  0
INSERT
  8
17
  2
OCTAGONP
 10
31.7500
 20
17.7800
 30
0.0000
 41
1.8796
 42
1.8796
 43
1.0000
 50
0.0000
  0
CIRCLE
  8
44
 10
31.7500
 20
17.7800
 30
0.0000
 40
0.5080
  0
INSERT
  8
17
  2
OCTAGONP
 10
31.7500
 20
15.2400
 30
0.0000
 41
1.8796
 42
1.8796
 43
1.0000
 50
0.0000
  0
CIRCLE
  8
44
 10
31.7500
 20
15.2400
 30
0.0000
 40
0.5080
  0
INSERT
  8
17
  2
OCTAGONP
 10
29.2100
 20
17.7800
 30
0.0000
 41
1.8796
 42
1.8796
 43
1.0000
 50
0.0000
  0
CIRCLE
  8
44
 10
29.2100
 20
17.7800
 30
0.0000
 40
0.5080
  0
INSERT
  8
17
  2
OCTAGONP
 10
29.2100
 20
15.2400
 30
0.0000
 41
1.8796
 42
1.8796
 43
1.0000
 50
0.0000
  0
CIRCLE
  8
44
 10
29.2100
 20
15.2400
 30
0.0000
 40
0.5080
  0
INSERT
  8
17
  2
OCTAGONP
 10
26.6700
 20
17.7800
 30
0.0000
 41
1.8796
 42
1.8796
 43
1.0000
 50
0.0000
  0
CIRCLE
  8
44
 10
26.6700
 20
17.7800
 30
0.0000
 40
0.5080
  0
INSERT
  8
17
  2
OCTAGONP
 10
26.6700
 20
15.2400
 30
0.0000
 41
1.8796
 42
1.8796
 43
1.0000
 50
0.0000
  0
CIRCLE
  8
44
 10
26.6700
 20
15.2400
 30
0.0000
 40
0.5080
  0
INSERT
  8
17
  2
OCTAGONP
 10
24.1300
 20
17.7800
 30
0.0000
 41
1.8796
 42
1.8796
 43
1.0000
 50
0.0000
  0
CIRCLE
  8
44
 10
24.1300
 20
17.7800
 30
0.0000
 40
0.5080
  0
INSERT
  8
17
  2
OCTAGONP
 10
24.1300
 20
15.2400
 30
0.0000
 41
1.8796
 42
1.8796
 43
1.0000
 50
0.0000
  0
CIRCLE
  8
44
 10
24.1300
 20
15.2400
 30
0.0000
 40
0.5080
  0
INSERT
  8
17
  2
OCTAGONP
 10
21.5900
 20
17.7800
 30
0.0000
 41
1.8796
 42
1.8796
 43
1.0000
 50
0.0000
  0
CIRCLE
  8
44
 10
21.5900
 20
17.7800
 30
0.0000
 40
0.5080
  0
INSERT
  8
17
  2
OCTAGONP
 10
21.5900
 20
15.2400
 30
0.0000
 41
1.8796
 42
1.8796
 43
1.0000
 50
0.0000
  0
CIRCLE
  8
44
 10
21.5900
 20
15.2400
 30
0.0000
 40
0.5080
  0
INSERT
  8
17
  2
OCTAGONP
 10
19.0500
 20
17.7800
 30
0.0000
 41
1.8796
 42
1.8796
 43
1.0000
 50
0.0000
  0
CIRCLE
  8
44
 10
19.0500
 20
17.7800
 30
0.0000
 40
0.5080
  0
INSERT
  8
17
  2
OCTAGONP
 10
19.0500
 20
15.2400
 30
0.0000
 41
1.8796
 42
1.8796
 43
1.0000
 50
0.0000
  0
CIRCLE
  8
44
 10
19.0500
 20
15.2400
 30
0.0000
 40
0.5080
  0
INSERT
  8
17
  2
ROUNDP
 10
11.4300
 20
60.9600
 30
0.0000
 41
1.8796
 42
1.8796
 43
1.0000
 50
0.0000
  0
CIRCLE
  8
44
 10
11.4300
 20
60.9600
 30
0.0000
 40
0.5080
  0
INSERT
  8
17
  2
ROUNDP
 10
11.4300
 20
58.4200
 30
0.0000
 41
1.8796
 42
1.8796
 43
1.0000
 50
0.0000
  0
CIRCLE
  8
44
 10
11.4300
 20
58.4200
 30
0.0000
 40
0.5080
  0
INSERT
  8
17
  2
ROUNDP
 10
11.4300
 20
55.8800
 30
0.0000
 41
1.8796
 42
1.8796
 43
1.0000
 50
0.0000
  0
CIRCLE
  8
44
 10
11.4300
 20
55.8800
 30
0.0000
 40
0.5080
  0
INSERT
  8
17
  2
ROUNDP
 10
11.4300
 20
53.3400
 30
0.0000
 41
1.8796
 42
1.8796
 43
1.0000
 50
0.0000
  0
CIRCLE
  8
44
 10
11.4300
 20
53.3400
 30
0.0000
 40
0.5080
  0
INSERT
  8
17
  2
ROUNDP
 10
11.4300
 20
50.8000
 30
0.0000
 41
1.8796
 42
1.8796
 43
1.0000
 50
0.0000
  0
CIRCLE
  8
44
 10
11.4300
 20
50.8000
 30
0.0000
 40
0.5080
  0
INSERT
  8
17
  2
ROUNDP
 10
11.4300
 20
48.2600
 30
0.0000
 41
1.8796
 42
1.8796
 43
1.0000
 50
0.0000
  0
CIRCLE
  8
44
 10
11.4300
 20
48.2600
 30
0.0000
 40
0.5080
  0
INSERT
  8
17
  2
ROUNDP
 10
11.4300
 20
45.7200
 30
0.0000
 41
1.8796
 42
1.8796
 43
1.0000
 50
0.0000
  0
CIRCLE
  8
44
 10
11.4300
 20
45.7200
 30
0.0000
 40
0.5080
  0
INSERT
  8
17
  2
ROUNDP
 10
11.4300
 20
43.1800
 30
0.0000
 41
1.8796
 42
1.8796
 43
1.0000
 50
0.0000
  0
CIRCLE
  8
44
 10
11.4300
 20
43.1800
 30
0.0000
 40
0.5080
  0
INSERT
  8
17
  2
ROUNDP
 10
11.4300
 20
38.1000
 30
0.0000
 41
1.8796
 42
1.8796
 43
1.0000
 50
0.0000
  0
CIRCLE
  8
44
 10
11.4300
 20
38.1000
 30
0.0000
 40
0.5080
  0
INSERT
  8
17
  2
ROUNDP
 10
11.4300
 20
35.5600
 30
0.0000
 41
1.8796
 42
1.8796
 43
1.0000
 50
0.0000
  0
CIRCLE
  8
44
 10
11.4300
 20
35.5600
 30
0.0000
 40
0.5080
  0
INSERT
  8
17
  2
ROUNDP
 10
11.4300
 20
33.0200
 30
0.0000
 41
1.8796
 42
1.8796
 43
1.0000
 50
0.0000
  0
CIRCLE
  8
44
 10
11.4300
 20
33.0200
 30
0.0000
 40
0.5080
  0
INSERT
  8
17
  2
ROUNDP
 10
11.4300
 20
30.4800
 30
0.0000
 41
1.8796
 42
1.8796
 43
1.0000
 50
0.0000
  0
CIRCLE
  8
44
 10
11.4300
 20
30.4800
 30
0.0000
 40
0.5080
  0
INSERT
  8
17
  2
ROUNDP
 10
11.4300
 20
27.9400
 30
0.0000
 41
1.8796
 42
1.8796
 43
1.0000
 50
0.0000
  0
CIRCLE
  8
44
 10
11.4300
 20
27.9400
 30
0.0000
 40
0.5080
  0
INSERT
  8
17
  2
ROUNDP
 10
11.4300
 20
25.4000
 30
0.0000
 41
1.8796
 42
1.8796
 43
1.0000
 50
0.0000
  0
CIRCLE
  8
44
 10
11.4300
 20
25.4000
 30
0.0000
 40
0.5080
  0
INSERT
  8
17
  2
ROUNDP
 10
11.4300
 20
22.8600
 30
0.0000
 41
1.8796
 42
1.8796
 43
1.0000
 50
0.0000
  0
CIRCLE
  8
44
 10
11.4300
 20
22.8600
 30
0.0000
 40
0.5080
  0
INSERT
  8
17
  2
ROUNDP
 10
11.4300
 20
20.3200
 30
0.0000
 41
1.8796
 42
1.8796
 43
1.0000
 50
0.0000
  0
CIRCLE
  8
44
 10
11.4300
 20
20.3200
 30
0.0000
 40
0.5080
  0
INSERT
  8
17
  2
ROUNDP
 10
59.6900
 20
87.8840
 30
0.0000
 41
1.8796
 42
1.8796
 43
1.0000
 50
0.0000
  0
CIRCLE
  8
44
 10
59.6900
 20
87.8840
 30
0.0000
 40
0.5080
  0
INSERT
  8
17
  2
ROUNDP
 10
11.4300
 20
71.1200
 30
0.0000
 41
1.8796
 42
1.8796
 43
1.0000
 50
0.0000
  0
CIRCLE
  8
44
 10
11.4300
 20
71.1200
 30
0.0000
 40
0.5080
  0
INSERT
  8
17
  2
ROUNDP
 10
11.4300
 20
68.5800
 30
0.0000
 41
1.8796
 42
1.8796
 43
1.0000
 50
0.0000
  0
CIRCLE
  8
44
 10
11.4300
 20
68.5800
 30
0.0000
 40
0.5080
  0
INSERT
  8
17
  2
ROUNDP
 10
16.5100
 20
17.7800
 30
0.0000
 41
1.8796
 42
1.8796
 43
1.0000
 50
0.0000
  0
CIRCLE
  8
44
 10
16.5100
 20
17.7800
 30
0.0000
 40
0.5080
  0
INSERT
  8
17
  2
ROUNDP
 10
16.5100
 20
15.2400
 30
0.0000
 41
1.8796
 42
1.8796
 43
1.0000
 50
0.0000
  0
CIRCLE
  8
44
 10
16.5100
 20
15.2400
 30
0.0000
 40
0.5080
  0
INSERT
  8
17
  2
ROUNDP
 10
59.6900
 20
85.3440
 30
0.0000
 41
1.8796
 42
1.8796
 43
1.0000
 50
0.0000
  0
CIRCLE
  8
44
 10
59.6900
 20
85.3440
 30
0.0000
 40
0.5080
  0
INSERT
  8
17
  2
ROUNDP
 10
11.4300
 20
78.7400
 30
0.0000
 41
1.8796
 42
1.8796
 43
1.0000
 50
0.0000
  0
CIRCLE
  8
44
 10
11.4300
 20
78.7400
 30
0.0000
 40
0.5080
  0
INSERT
  8
17
  2
ROUNDP
 10
11.4300
 20
66.0400
 30
0.0000
 41
1.8796
 42
1.8796
 43
1.0000
 50
0.0000
  0
CIRCLE
  8
44
 10
11.4300
 20
66.0400
 30
0.0000
 40
0.5080
  0
INSERT
  8
17
  2
OCTAGONP
 10
48.2600
 20
101.6000
 30
0.0000
 41
1.3208
 42
1.3208
 43
1.0000
 50
90.0000
  0
CIRCLE
  8
44
 10
48.2600
 20
101.6000
 30
0.0000
 40
0.4064
  0
INSERT
  8
17
  2
OCTAGONP
 10
48.2600
 20
106.6800
 30
0.0000
 41
1.3208
 42
1.3208
 43
1.0000
 50
90.0000
  0
CIRCLE
  8
44
 10
48.2600
 20
106.6800
 30
0.0000
 40
0.4064
  0
INSERT
  8
17
  2
OCTAGONP
 10
30.4800
 20
106.6800
 30
0.0000
 41
1.3208
 42
1.3208
 43
1.0000
 50
270.0000
  0
CIRCLE
  8
44
 10
30.4800
 20
106.6800
 30
0.0000
 40
0.4064
  0
INSERT
  8
17
  2
OCTAGONP
 10
30.4800
 20
104.1400
 30
0.0000
 41
1.3208
 42
1.3208
 43
1.0000
 50
270.0000
  0
CIRCLE
  8
44
 10
30.4800
 20
104.1400
 30
0.0000
 40
0.4064
  0
INSERT
  8
17
  2
ROUNDP
 10
59.6900
 20
99.0600
 30
0.0000
 41
1.9304
 42
1.9304
 43
1.0000
 50
0.0000
  0
CIRCLE
  8
44
 10
59.6900
 20
99.0600
 30
0.0000
 40
0.5588
  0
INSERT
  8
17
  2
ROUNDP
 10
49.5300
 20
99.0600
 30
0.0000
 41
1.9304
 42
1.9304
 43
1.0000
 50
0.0000
  0
CIRCLE
  8
44
 10
49.5300
 20
99.0600
 30
0.0000
 40
0.5588
  0
INSERT
  8
17
  2
ROUNDP
 10
12.7000
 20
104.1400
 30
0.0000
 41
1.9304
 42
1.9304
 43
1.0000
 50
180.0000
  0
CIRCLE
  8
44
 10
12.7000
 20
104.1400
 30
0.0000
 40
0.5588
  0
INSERT
  8
17
  2
ROUNDP
 10
22.8600
 20
104.1400
 30
0.0000
 41
1.9304
 42
1.9304
 43
1.0000
 50
180.0000
  0
CIRCLE
  8
44
 10
22.8600
 20
104.1400
 30
0.0000
 40
0.5588
  0
INSERT
  8
17
  2
ROUNDP
 10
16.5100
 20
88.9000
 30
0.0000
 41
1.9304
 42
1.9304
 43
1.0000
 50
90.0000
  0
CIRCLE
  8
44
 10
16.5100
 20
88.9000
 30
0.0000
 40
0.5588
  0
INSERT
  8
17
  2
ROUNDP
 10
16.5100
 20
78.7400
 30
0.0000
 41
1.9304
 42
1.9304
 43
1.0000
 50
90.0000
  0
CIRCLE
  8
44
 10
16.5100
 20
78.7400
 30
0.0000
 40
0.5588
  0
INSERT
  8
17
  2
ROUNDP
 10
25.4000
 20
88.9000
 30
0.0000
 41
1.9304
 42
1.9304
 43
1.0000
 50
90.0000
  0
CIRCLE
  8
44
 10
25.4000
 20
88.9000
 30
0.0000
 40
0.5588
  0
INSERT
  8
17
  2
ROUNDP
 10
25.4000
 20
78.7400
 30
0.0000
 41
1.9304
 42
1.9304
 43
1.0000
 50
90.0000
  0
CIRCLE
  8
44
 10
25.4000
 20
78.7400
 30
0.0000
 40
0.5588
  0
INSERT
  8
17
  2
ROUNDP
 10
34.2900
 20
88.9000
 30
0.0000
 41
1.9304
 42
1.9304
 43
1.0000
 50
90.0000
  0
CIRCLE
  8
44
 10
34.2900
 20
88.9000
 30
0.0000
 40
0.5588
  0
INSERT
  8
17
  2
ROUNDP
 10
34.2900
 20
78.7400
 30
0.0000
 41
1.9304
 42
1.9304
 43
1.0000
 50
90.0000
  0
CIRCLE
  8
44
 10
34.2900
 20
78.7400
 30
0.0000
 40
0.5588
  0
INSERT
  8
17
  2
ROUNDP
 10
43.1800
 20
88.9000
 30
0.0000
 41
1.9304
 42
1.9304
 43
1.0000
 50
90.0000
  0
CIRCLE
  8
44
 10
43.1800
 20
88.9000
 30
0.0000
 40
0.5588
  0
INSERT
  8
17
  2
ROUNDP
 10
43.1800
 20
78.7400
 30
0.0000
 41
1.9304
 42
1.9304
 43
1.0000
 50
90.0000
  0
CIRCLE
  8
44
 10
43.1800
 20
78.7400
 30
0.0000
 40
0.5588
  0
INSERT
  8
17
  2
SQUAREP
 10
58.4200
 20
106.8578
 30
0.0000
 41
2.0320
 42
2.0320
 43
1.0000
 50
270.0000
  0
CIRCLE
  8
44
 10
58.4200
 20
106.8578
 30
0.0000
 40
0.6000
  0
INSERT
  8
17
  2
ROUNDP
 10
58.4200
 20
103.0022
 30
0.0000
 41
2.0320
 42
2.0320
 43
1.0000
 50
270.0000
  0
CIRCLE
  8
44
 10
58.4200
 20
103.0022
 30
0.0000
 40
0.6000
  0
INSERT
  8
17
  2
ROUNDP
 10
16.5100
 20
92.0750
 30
0.0000
 41
1.6002
 42
1.6002
 43
1.0000
 50
90.0000
  0
CIRCLE
  8
44
 10
16.5100
 20
92.0750
 30
0.0000
 40
0.5334
  0
INSERT
  8
17
  2
ROUNDP
 10
16.5100
 20
95.8850
 30
0.0000
 41
1.6002
 42
1.6002
 43
1.0000
 50
90.0000
  0
CIRCLE
  8
44
 10
16.5100
 20
95.8850
 30
0.0000
 40
0.5334
  0
INSERT
  8
17
  2
ROUNDP
 10
25.4000
 20
92.0750
 30
0.0000
 41
1.6002
 42
1.6002
 43
1.0000
 50
90.0000
  0
CIRCLE
  8
44
 10
25.4000
 20
92.0750
 30
0.0000
 40
0.5334
  0
INSERT
  8
17
  2
ROUNDP
 10
25.4000
 20
95.8850
 30
0.0000
 41
1.6002
 42
1.6002
 43
1.0000
 50
90.0000
  0
CIRCLE
  8
44
 10
25.4000
 20
95.8850
 30
0.0000
 40
0.5334
  0
INSERT
  8
17
  2
ROUNDP
 10
34.2900
 20
92.0750
 30
0.0000
 41
1.6002
 42
1.6002
 43
1.0000
 50
90.0000
  0
CIRCLE
  8
44
 10
34.2900
 20
92.0750
 30
0.0000
 40
0.5334
  0
INSERT
  8
17
  2
ROUNDP
 10
34.2900
 20
95.8850
 30
0.0000
 41
1.6002
 42
1.6002
 43
1.0000
 50
90.0000
  0
CIRCLE
  8
44
 10
34.2900
 20
95.8850
 30
0.0000
 40
0.5334
  0
INSERT
  8
17
  2
ROUNDP
 10
43.1800
 20
92.0750
 30
0.0000
 41
1.6002
 42
1.6002
 43
1.0000
 50
90.0000
  0
CIRCLE
  8
44
 10
43.1800
 20
92.0750
 30
0.0000
 40
0.5334
  0
INSERT
  8
17
  2
ROUNDP
 10
43.1800
 20
95.8850
 30
0.0000
 41
1.6002
 42
1.6002
 43
1.0000
 50
90.0000
  0
CIRCLE
  8
44
 10
43.1800
 20
95.8850
 30
0.0000
 40
0.5334
  0
INSERT
  8
17
  2
LONGP100
 10
16.5100
 20
60.9600
 30
0.0000
 41
1.6764
 42
1.6764
 43
1.0000
 50
0.0000
  0
CIRCLE
  8
44
 10
16.5100
 20
60.9600
 30
0.0000
 40
0.5588
  0
INSERT
  8
17
  2
LONGP100
 10
16.5100
 20
58.4200
 30
0.0000
 41
1.6764
 42
1.6764
 43
1.0000
 50
0.0000
  0
CIRCLE
  8
44
 10
16.5100
 20
58.4200
 30
0.0000
 40
0.5588
  0
INSERT
  8
17
  2
LONGP100
 10
16.5100
 20
55.8800
 30
0.0000
 41
1.6764
 42
1.6764
 43
1.0000
 50
0.0000
  0
CIRCLE
  8
44
 10
16.5100
 20
55.8800
 30
0.0000
 40
0.5588
  0
INSERT
  8
17
  2
LONGP100
 10
16.5100
 20
53.3400
 30
0.0000
 41
1.6764
 42
1.6764
 43
1.0000
 50
0.0000
  0
CIRCLE
  8
44
 10
16.5100
 20
53.3400
 30
0.0000
 40
0.5588
  0
INSERT
  8
17
  2
LONGP100
 10
16.5100
 20
50.8000
 30
0.0000
 41
1.6764
 42
1.6764
 43
1.0000
 50
0.0000
  0
CIRCLE
  8
44
 10
16.5100
 20
50.8000
 30
0.0000
 40
0.5588
  0
INSERT
  8
17
  2
LONGP100
 10
16.5100
 20
48.2600
 30
0.0000
 41
1.6764
 42
1.6764
 43
1.0000
 50
0.0000
  0
CIRCLE
  8
44
 10
16.5100
 20
48.2600
 30
0.0000
 40
0.5588
  0
INSERT
  8
17
  2
LONGP100
 10
16.5100
 20
45.7200
 30
0.0000
 41
1.6764
 42
1.6764
 43
1.0000
 50
0.0000
  0
CIRCLE
  8
44
 10
16.5100
 20
45.7200
 30
0.0000
 40
0.5588
  0
INSERT
  8
17
  2
LONGP100
 10
16.5100
 20
43.1800
 30
0.0000
 41
1.6764
 42
1.6764
 43
1.0000
 50
0.0000
  0
CIRCLE
  8
44
 10
16.5100
 20
43.1800
 30
0.0000
 40
0.5588
  0
INSERT
  8
17
  2
LONGP100
 10
16.5100
 20
40.6400
 30
0.0000
 41
1.6764
 42
1.6764
 43
1.0000
 50
0.0000
  0
CIRCLE
  8
44
 10
16.5100
 20
40.6400
 30
0.0000
 40
0.5588
  0
INSERT
  8
17
  2
LONGP100
 10
16.5100
 20
38.1000
 30
0.0000
 41
1.6764
 42
1.6764
 43
1.0000
 50
0.0000
  0
CIRCLE
  8
44
 10
16.5100
 20
38.1000
 30
0.0000
 40
0.5588
  0
INSERT
  8
17
  2
LONGP100
 10
16.5100
 20
35.5600
 30
0.0000
 41
1.6764
 42
1.6764
 43
1.0000
 50
0.0000
  0
CIRCLE
  8
44
 10
16.5100
 20
35.5600
 30
0.0000
 40
0.5588
  0
INSERT
  8
17
  2
LONGP100
 10
16.5100
 20
33.0200
 30
0.0000
 41
1.6764
 42
1.6764
 43
1.0000
 50
0.0000
  0
CIRCLE
  8
44
 10
16.5100
 20
33.0200
 30
0.0000
 40
0.5588
  0
INSERT
  8
17
  2
LONGP100
 10
16.5100
 20
30.4800
 30
0.0000
 41
1.6764
 42
1.6764
 43
1.0000
 50
0.0000
  0
CIRCLE
  8
44
 10
16.5100
 20
30.4800
 30
0.0000
 40
0.5588
  0
INSERT
  8
17
  2
LONGP100
 10
16.5100
 20
69.9770
 30
0.0000
 41
1.5240
 42
1.5240
 43
1.0000
 50
0.0000
  0
CIRCLE
  8
44
 10
16.5100
 20
69.9770
 30
0.0000
 40
0.5080
  0
INSERT
  8
17
  2
LONGP100
 10
16.5100
 20
67.1830
 30
0.0000
 41
1.5240
 42
1.5240
 43
1.0000
 50
0.0000
  0
CIRCLE
  8
44
 10
16.5100
 20
67.1830
 30
0.0000
 40
0.5080
  0
INSERT
  8
17
  2
LONGP100
 10
26.6700
 20
59.6900
 30
0.0000
 41
1.8796
 42
1.8796
 43
1.0000
 50
270.0000
  0
CIRCLE
  8
44
 10
26.6700
 20
59.6900
 30
0.0000
 40
0.5588
  0
INSERT
  8
17
  2
LONGP100
 10
24.1300
 20
59.6900
 30
0.0000
 41
1.8796
 42
1.8796
 43
1.0000
 50
270.0000
  0
CIRCLE
  8
44
 10
24.1300
 20
59.6900
 30
0.0000
 40
0.5588
  0
INSERT
  8
17
  2
LONGP100
 10
21.5900
 20
59.6900
 30
0.0000
 41
1.8796
 42
1.8796
 43
1.0000
 50
270.0000
  0
CIRCLE
  8
44
 10
21.5900
 20
59.6900
 30
0.0000
 40
0.5588
  0
INSERT
  8
17
  2
LONGP100
 10
43.1800
 20
35.5600
 30
0.0000
 41
1.8796
 42
1.8796
 43
1.0000
 50
0.0000
  0
CIRCLE
  8
44
 10
43.1800
 20
35.5600
 30
0.0000
 40
0.5588
  0
INSERT
  8
17
  2
LONGP100
 10
43.1800
 20
33.0200
 30
0.0000
 41
1.8796
 42
1.8796
 43
1.0000
 50
0.0000
  0
CIRCLE
  8
44
 10
43.1800
 20
33.0200
 30
0.0000
 40
0.5588
  0
INSERT
  8
17
  2
LONGP100
 10
43.1800
 20
30.4800
 30
0.0000
 41
1.8796
 42
1.8796
 43
1.0000
 50
0.0000
  0
CIRCLE
  8
44
 10
43.1800
 20
30.4800
 30
0.0000
 40
0.5588
  0
INSERT
  8
17
  2
LONGP100
 10
43.1800
 20
27.9400
 30
0.0000
 41
1.8796
 42
1.8796
 43
1.0000
 50
0.0000
  0
CIRCLE
  8
44
 10
43.1800
 20
27.9400
 30
0.0000
 40
0.5588
  0
INSERT
  8
17
  2
LONGP100
 10
43.1800
 20
25.4000
 30
0.0000
 41
1.8796
 42
1.8796
 43
1.0000
 50
0.0000
  0
CIRCLE
  8
44
 10
43.1800
 20
25.4000
 30
0.0000
 40
0.5588
  0
INSERT
  8
17
  2
LONGP100
 10
49.5300
 20
38.1000
 30
0.0000
 41
1.8796
 42
1.8796
 43
1.0000
 50
0.0000
  0
CIRCLE
  8
44
 10
49.5300
 20
38.1000
 30
0.0000
 40
0.5588
  0
INSERT
  8
17
  2
LONGP100
 10
49.5300
 20
35.5600
 30
0.0000
 41
1.8796
 42
1.8796
 43
1.0000
 50
0.0000
  0
CIRCLE
  8
44
 10
49.5300
 20
35.5600
 30
0.0000
 40
0.5588
  0
INSERT
  8
17
  2
LONGP100
 10
49.5300
 20
33.0200
 30
0.0000
 41
1.8796
 42
1.8796
 43
1.0000
 50
0.0000
  0
CIRCLE
  8
44
 10
49.5300
 20
33.0200
 30
0.0000
 40
0.5588
  0
INSERT
  8
17
  2
LONGP100
 10
49.5300
 20
30.4800
 30
0.0000
 41
1.8796
 42
1.8796
 43
1.0000
 50
0.0000
  0
CIRCLE
  8
44
 10
49.5300
 20
30.4800
 30
0.0000
 40
0.5588
  0
INSERT
  8
17
  2
LONGP100
 10
49.5300
 20
27.9400
 30
0.0000
 41
1.8796
 42
1.8796
 43
1.0000
 50
0.0000
  0
CIRCLE
  8
44
 10
49.5300
 20
27.9400
 30
0.0000
 40
0.5588
  0
INSERT
  8
17
  2
LONGP100
 10
49.5300
 20
25.4000
 30
0.0000
 41
1.8796
 42
1.8796
 43
1.0000
 50
0.0000
  0
CIRCLE
  8
44
 10
49.5300
 20
25.4000
 30
0.0000
 40
0.5588
  0
INSERT
  8
17
  2
LONGP100
 10
54.6100
 20
66.0400
 30
0.0000
 41
1.8796
 42
1.8796
 43
1.0000
 50
0.0000
  0
CIRCLE
  8
44
 10
54.6100
 20
66.0400
 30
0.0000
 40
0.5588
  0
INSERT
  8
17
  2
LONGP100
 10
54.6100
 20
63.5000
 30
0.0000
 41
1.8796
 42
1.8796
 43
1.0000
 50
0.0000
  0
CIRCLE
  8
44
 10
54.6100
 20
63.5000
 30
0.0000
 40
0.5588
  0
INSERT
  8
17
  2
LONGP100
 10
54.6100
 20
60.9600
 30
0.0000
 41
1.8796
 42
1.8796
 43
1.0000
 50
0.0000
  0
CIRCLE
  8
44
 10
54.6100
 20
60.9600
 30
0.0000
 40
0.5588
  0
INSERT
  8
17
  2
LONGP100
 10
54.6100
 20
58.4200
 30
0.0000
 41
1.8796
 42
1.8796
 43
1.0000
 50
0.0000
  0
CIRCLE
  8
44
 10
54.6100
 20
58.4200
 30
0.0000
 40
0.5588
  0
INSERT
  8
17
  2
LONGP100
 10
57.1500
 20
21.5900
 30
0.0000
 41
1.8796
 42
1.8796
 43
1.0000
 50
270.0000
  0
CIRCLE
  8
44
 10
57.1500
 20
21.5900
 30
0.0000
 40
0.5588
  0
INSERT
  8
17
  2
LONGP100
 10
54.6100
 20
21.5900
 30
0.0000
 41
1.8796
 42
1.8796
 43
1.0000
 50
270.0000
  0
CIRCLE
  8
44
 10
54.6100
 20
21.5900
 30
0.0000
 40
0.5588
  0
INSERT
  8
17
  2
LONGP100
 10
52.0700
 20
21.5900
 30
0.0000
 41
1.8796
 42
1.8796
 43
1.0000
 50
270.0000
  0
CIRCLE
  8
44
 10
52.0700
 20
21.5900
 30
0.0000
 40
0.5588
  0
INSERT
  8
17
  2
LONGP100
 10
49.5300
 20
21.5900
 30
0.0000
 41
1.8796
 42
1.8796
 43
1.0000
 50
270.0000
  0
CIRCLE
  8
44
 10
49.5300
 20
21.5900
 30
0.0000
 40
0.5588
  0
INSERT
  8
17
  2
LONGP100
 10
26.6700
 20
50.8000
 30
0.0000
 41
1.8796
 42
1.8796
 43
1.0000
 50
270.0000
  0
CIRCLE
  8
44
 10
26.6700
 20
50.8000
 30
0.0000
 40
0.5588
  0
INSERT
  8
17
  2
LONGP100
 10
24.1300
 20
50.8000
 30
0.0000
 41
1.8796
 42
1.8796
 43
1.0000
 50
270.0000
  0
CIRCLE
  8
44
 10
24.1300
 20
50.8000
 30
0.0000
 40
0.5588
  0
INSERT
  8
17
  2
LONGP100
 10
21.5900
 20
50.8000
 30
0.0000
 41
1.8796
 42
1.8796
 43
1.0000
 50
270.0000
  0
CIRCLE
  8
44
 10
21.5900
 20
50.8000
 30
0.0000
 40
0.5588
  0
INSERT
  8
17
  2
LONGP100
 10
26.6700
 20
41.9100
 30
0.0000
 41
1.8796
 42
1.8796
 43
1.0000
 50
270.0000
  0
CIRCLE
  8
44
 10
26.6700
 20
41.9100
 30
0.0000
 40
0.5588
  0
INSERT
  8
17
  2
LONGP100
 10
24.1300
 20
41.9100
 30
0.0000
 41
1.8796
 42
1.8796
 43
1.0000
 50
270.0000
  0
CIRCLE
  8
44
 10
24.1300
 20
41.9100
 30
0.0000
 40
0.5588
  0
INSERT
  8
17
  2
LONGP100
 10
21.5900
 20
41.9100
 30
0.0000
 41
1.8796
 42
1.8796
 43
1.0000
 50
270.0000
  0
CIRCLE
  8
44
 10
21.5900
 20
41.9100
 30
0.0000
 40
0.5588
  0
INSERT
  8
17
  2
LONGP100
 10
26.6700
 20
33.0200
 30
0.0000
 41
1.8796
 42
1.8796
 43
1.0000
 50
270.0000
  0
CIRCLE
  8
44
 10
26.6700
 20
33.0200
 30
0.0000
 40
0.5588
  0
INSERT
  8
17
  2
LONGP100
 10
24.1300
 20
33.0200
 30
0.0000
 41
1.8796
 42
1.8796
 43
1.0000
 50
270.0000
  0
CIRCLE
  8
44
 10
24.1300
 20
33.0200
 30
0.0000
 40
0.5588
  0
INSERT
  8
17
  2
LONGP100
 10
21.5900
 20
33.0200
 30
0.0000
 41
1.8796
 42
1.8796
 43
1.0000
 50
270.0000
  0
CIRCLE
  8
44
 10
21.5900
 20
33.0200
 30
0.0000
 40
0.5588
  0
INSERT
  8
17
  2
LONGP100
 10
63.5000
 20
33.0200
 30
0.0000
 41
1.8796
 42
1.8796
 43
1.0000
 50
180.0000
  0
CIRCLE
  8
44
 10
63.5000
 20
33.0200
 30
0.0000
 40
0.5588
  0
INSERT
  8
17
  2
LONGP100
 10
63.5000
 20
35.5600
 30
0.0000
 41
1.8796
 42
1.8796
 43
1.0000
 50
180.0000
  0
CIRCLE
  8
44
 10
63.5000
 20
35.5600
 30
0.0000
 40
0.5588
  0
INSERT
  8
17
  2
LONGP100
 10
63.5000
 20
38.1000
 30
0.0000
 41
1.8796
 42
1.8796
 43
1.0000
 50
180.0000
  0
CIRCLE
  8
44
 10
63.5000
 20
38.1000
 30
0.0000
 40
0.5588
  0
INSERT
  8
17
  2
LONGP100
 10
63.5000
 20
40.6400
 30
0.0000
 41
1.8796
 42
1.8796
 43
1.0000
 50
180.0000
  0
CIRCLE
  8
44
 10
63.5000
 20
40.6400
 30
0.0000
 40
0.5588
  0
INSERT
  8
17
  2
LONGP100
 10
40.6400
 20
101.6000
 30
0.0000
 41
1.8796
 42
1.8796
 43
1.0000
 50
180.0000
  0
CIRCLE
  8
44
 10
40.6400
 20
101.6000
 30
0.0000
 40
0.5588
  0
INSERT
  8
17
  2
LONGP100
 10
40.6400
 20
104.1400
 30
0.0000
 41
1.8796
 42
1.8796
 43
1.0000
 50
180.0000
  0
CIRCLE
  8
44
 10
40.6400
 20
104.1400
 30
0.0000
 40
0.5588
  0
INSERT
  8
17
  2
LONGP100
 10
40.6400
 20
106.6800
 30
0.0000
 41
1.8796
 42
1.8796
 43
1.0000
 50
180.0000
  0
CIRCLE
  8
44
 10
40.6400
 20
106.6800
 30
0.0000
 40
0.5588
  0
INSERT
  8
17
  2
OCTAGONP
 10
29.2100
 20
55.8800
 30
0.0000
 41
1.6002
 42
1.6002
 43
1.0000
 50
180.0000
  0
CIRCLE
  8
44
 10
29.2100
 20
55.8800
 30
0.0000
 40
0.4064
  0
INSERT
  8
17
  2
OCTAGONP
 10
24.1300
 20
55.8800
 30
0.0000
 41
1.6002
 42
1.6002
 43
1.0000
 50
180.0000
  0
CIRCLE
  8
44
 10
24.1300
 20
55.8800
 30
0.0000
 40
0.4064
  0
INSERT
  8
17
  2
OCTAGONP
 10
29.2100
 20
46.9900
 30
0.0000
 41
1.6002
 42
1.6002
 43
1.0000
 50
180.0000
  0
CIRCLE
  8
44
 10
29.2100
 20
46.9900
 30
0.0000
 40
0.4064
  0
INSERT
  8
17
  2
OCTAGONP
 10
24.1300
 20
46.9900
 30
0.0000
 41
1.6002
 42
1.6002
 43
1.0000
 50
180.0000
  0
CIRCLE
  8
44
 10
24.1300
 20
46.9900
 30
0.0000
 40
0.4064
  0
INSERT
  8
17
  2
OCTAGONP
 10
29.2100
 20
38.1000
 30
0.0000
 41
1.6002
 42
1.6002
 43
1.0000
 50
180.0000
  0
CIRCLE
  8
44
 10
29.2100
 20
38.1000
 30
0.0000
 40
0.4064
  0
INSERT
  8
17
  2
OCTAGONP
 10
24.1300
 20
38.1000
 30
0.0000
 41
1.6002
 42
1.6002
 43
1.0000
 50
180.0000
  0
CIRCLE
  8
44
 10
24.1300
 20
38.1000
 30
0.0000
 40
0.4064
  0
INSERT
  8
17
  2
LONGP100
 10
21.5900
 20
91.4400
 30
0.0000
 41
1.5240
 42
1.5240
 43
1.0000
 50
180.0000
  0
CIRCLE
  8
44
 10
21.5900
 20
91.4400
 30
0.0000
 40
0.5080
  0
INSERT
  8
17
  2
LONGP100
 10
21.5900
 20
88.9000
 30
0.0000
 41
1.5240
 42
1.5240
 43
1.0000
 50
180.0000
  0
CIRCLE
  8
44
 10
21.5900
 20
88.9000
 30
0.0000
 40
0.5080
  0
INSERT
  8
17
  2
LONGP100
 10
21.5900
 20
93.9800
 30
0.0000
 41
1.5240
 42
1.5240
 43
1.0000
 50
180.0000
  0
CIRCLE
  8
44
 10
21.5900
 20
93.9800
 30
0.0000
 40
0.5080
  0
INSERT
  8
17
  2
LONGP100
 10
30.4800
 20
91.4400
 30
0.0000
 41
1.5240
 42
1.5240
 43
1.0000
 50
180.0000
  0
CIRCLE
  8
44
 10
30.4800
 20
91.4400
 30
0.0000
 40
0.5080
  0
INSERT
  8
17
  2
LONGP100
 10
30.4800
 20
88.9000
 30
0.0000
 41
1.5240
 42
1.5240
 43
1.0000
 50
180.0000
  0
CIRCLE
  8
44
 10
30.4800
 20
88.9000
 30
0.0000
 40
0.5080
  0
INSERT
  8
17
  2
LONGP100
 10
30.4800
 20
93.9800
 30
0.0000
 41
1.5240
 42
1.5240
 43
1.0000
 50
180.0000
  0
CIRCLE
  8
44
 10
30.4800
 20
93.9800
 30
0.0000
 40
0.5080
  0
INSERT
  8
17
  2
LONGP100
 10
39.3700
 20
91.4400
 30
0.0000
 41
1.5240
 42
1.5240
 43
1.0000
 50
180.0000
  0
CIRCLE
  8
44
 10
39.3700
 20
91.4400
 30
0.0000
 40
0.5080
  0
INSERT
  8
17
  2
LONGP100
 10
39.3700
 20
88.9000
 30
0.0000
 41
1.5240
 42
1.5240
 43
1.0000
 50
180.0000
  0
CIRCLE
  8
44
 10
39.3700
 20
88.9000
 30
0.0000
 40
0.5080
  0
INSERT
  8
17
  2
LONGP100
 10
39.3700
 20
93.9800
 30
0.0000
 41
1.5240
 42
1.5240
 43
1.0000
 50
180.0000
  0
CIRCLE
  8
44
 10
39.3700
 20
93.9800
 30
0.0000
 40
0.5080
  0
INSERT
  8
17
  2
LONGP100
 10
48.2600
 20
91.4400
 30
0.0000
 41
1.5240
 42
1.5240
 43
1.0000
 50
180.0000
  0
CIRCLE
  8
44
 10
48.2600
 20
91.4400
 30
0.0000
 40
0.5080
  0
INSERT
  8
17
  2
LONGP100
 10
48.2600
 20
88.9000
 30
0.0000
 41
1.5240
 42
1.5240
 43
1.0000
 50
180.0000
  0
CIRCLE
  8
44
 10
48.2600
 20
88.9000
 30
0.0000
 40
0.5080
  0
INSERT
  8
17
  2
LONGP100
 10
48.2600
 20
93.9800
 30
0.0000
 41
1.5240
 42
1.5240
 43
1.0000
 50
180.0000
  0
CIRCLE
  8
44
 10
48.2600
 20
93.9800
 30
0.0000
 40
0.5080
  0
INSERT
  8
17
  2
OCTAGONP
 10
55.8800
 20
27.9400
 30
0.0000
 41
1.3208
 42
1.3208
 43
1.0000
 50
90.0000
  0
CIRCLE
  8
44
 10
55.8800
 20
27.9400
 30
0.0000
 40
0.4064
  0
INSERT
  8
17
  2
OCTAGONP
 10
55.8800
 20
35.5600
 30
0.0000
 41
1.3208
 42
1.3208
 43
1.0000
 50
90.0000
  0
CIRCLE
  8
44
 10
55.8800
 20
35.5600
 30
0.0000
 40
0.4064
  0
INSERT
  8
17
  2
OCTAGONP
 10
53.3400
 20
25.4000
 30
0.0000
 41
1.3208
 42
1.3208
 43
1.0000
 50
90.0000
  0
CIRCLE
  8
44
 10
53.3400
 20
25.4000
 30
0.0000
 40
0.4064
  0
INSERT
  8
17
  2
OCTAGONP
 10
53.3400
 20
33.0200
 30
0.0000
 41
1.3208
 42
1.3208
 43
1.0000
 50
90.0000
  0
CIRCLE
  8
44
 10
53.3400
 20
33.0200
 30
0.0000
 40
0.4064
  0
INSERT
  8
17
  2
OCTAGONP
 10
48.2600
 20
68.5800
 30
0.0000
 41
1.3208
 42
1.3208
 43
1.0000
 50
90.0000
  0
CIRCLE
  8
44
 10
48.2600
 20
68.5800
 30
0.0000
 40
0.4064
  0
INSERT
  8
17
  2
OCTAGONP
 10
48.2600
 20
78.7400
 30
0.0000
 41
1.3208
 42
1.3208
 43
1.0000
 50
90.0000
  0
CIRCLE
  8
44
 10
48.2600
 20
78.7400
 30
0.0000
 40
0.4064
  0
INSERT
  8
17
  2
OCTAGONP
 10
50.8000
 20
68.5800
 30
0.0000
 41
1.3208
 42
1.3208
 43
1.0000
 50
90.0000
  0
CIRCLE
  8
44
 10
50.8000
 20
68.5800
 30
0.0000
 40
0.4064
  0
INSERT
  8
17
  2
OCTAGONP
 10
50.8000
 20
78.7400
 30
0.0000
 41
1.3208
 42
1.3208
 43
1.0000
 50
90.0000
  0
CIRCLE
  8
44
 10
50.8000
 20
78.7400
 30
0.0000
 40
0.4064
  0
INSERT
  8
17
  2
OCTAGONP
 10
53.3400
 20
68.5800
 30
0.0000
 41
1.3208
 42
1.3208
 43
1.0000
 50
90.0000
  0
CIRCLE
  8
44
 10
53.3400
 20
68.5800
 30
0.0000
 40
0.4064
  0
INSERT
  8
17
  2
OCTAGONP
 10
53.3400
 20
78.7400
 30
0.0000
 41
1.3208
 42
1.3208
 43
1.0000
 50
90.0000
  0
CIRCLE
  8
44
 10
53.3400
 20
78.7400
 30
0.0000
 40
0.4064
  0
INSERT
  8
17
  2
OCTAGONP
 10
55.8800
 20
68.5800
 30
0.0000
 41
1.3208
 42
1.3208
 43
1.0000
 50
90.0000
  0
CIRCLE
  8
44
 10
55.8800
 20
68.5800
 30
0.0000
 40
0.4064
  0
INSERT
  8
17
  2
OCTAGONP
 10
55.8800
 20
78.7400
 30
0.0000
 41
1.3208
 42
1.3208
 43
1.0000
 50
90.0000
  0
CIRCLE
  8
44
 10
55.8800
 20
78.7400
 30
0.0000
 40
0.4064
  0
INSERT
  8
17
  2
OCTAGONP
 10
16.5100
 20
20.3200
 30
0.0000
 41
1.6764
 42
1.6764
 43
1.0000
 50
0.0000
  0
CIRCLE
  8
44
 10
16.5100
 20
20.3200
 30
0.0000
 40
0.4064
  0
INSERT
  8
17
  2
OCTAGONP
 10
26.6700
 20
20.3200
 30
0.0000
 41
1.6764
 42
1.6764
 43
1.0000
 50
0.0000
  0
CIRCLE
  8
44
 10
26.6700
 20
20.3200
 30
0.0000
 40
0.4064
  0
INSERT
  8
17
  2
OCTAGONP
 10
16.5100
 20
22.8600
 30
0.0000
 41
1.6764
 42
1.6764
 43
1.0000
 50
0.0000
  0
CIRCLE
  8
44
 10
16.5100
 20
22.8600
 30
0.0000
 40
0.4064
  0
INSERT
  8
17
  2
OCTAGONP
 10
26.6700
 20
22.8600
 30
0.0000
 41
1.6764
 42
1.6764
 43
1.0000
 50
0.0000
  0
CIRCLE
  8
44
 10
26.6700
 20
22.8600
 30
0.0000
 40
0.4064
  0
INSERT
  8
17
  2
OCTAGONP
 10
16.5100
 20
25.4000
 30
0.0000
 41
1.6764
 42
1.6764
 43
1.0000
 50
0.0000
  0
CIRCLE
  8
44
 10
16.5100
 20
25.4000
 30
0.0000
 40
0.4064
  0
INSERT
  8
17
  2
OCTAGONP
 10
26.6700
 20
25.4000
 30
0.0000
 41
1.6764
 42
1.6764
 43
1.0000
 50
0.0000
  0
CIRCLE
  8
44
 10
26.6700
 20
25.4000
 30
0.0000
 40
0.4064
  0
INSERT
  8
17
  2
OCTAGONP
 10
16.5100
 20
27.9400
 30
0.0000
 41
1.6764
 42
1.6764
 43
1.0000
 50
0.0000
  0
CIRCLE
  8
44
 10
16.5100
 20
27.9400
 30
0.0000
 40
0.4064
  0
INSERT
  8
17
  2
OCTAGONP
 10
26.6700
 20
27.9400
 30
0.0000
 41
1.6764
 42
1.6764
 43
1.0000
 50
0.0000
  0
CIRCLE
  8
44
 10
26.6700
 20
27.9400
 30
0.0000
 40
0.4064
  0
POLYLINE
  8
16
 66
1
 10
0.0000
 20
0.0000
 30
0.0000
 40
0.0000
 41
0.0000
 70
1
  0
VERTEX
  8
16
 10
30.4800
 20
107.3150
 30
0.0000
  0
VERTEX
  8
16
 10
12.7000
 20
107.3150
 30
0.0000
 42
1.0000
  0
VERTEX
  8
16
 10
12.7000
 20
106.0450
 30
0.0000
  0
VERTEX
  8
16
 10
30.4800
 20
106.0450
 30
0.0000
 42
1.0000
  0
SEQEND
  8
0
  0
POLYLINE
  8
16
 66
1
 10
0.0000
 20
0.0000
 30
0.0000
 40
0.0000
 41
0.0000
 70
1
  0
VERTEX
  8
16
 10
12.7000
 20
107.3150
 30
0.0000
  0
VERTEX
  8
16
 10
10.1600
 20
107.3150
 30
0.0000
 42
1.0000
  0
VERTEX
  8
16
 10
10.1600
 20
106.0450
 30
0.0000
  0
VERTEX
  8
16
 10
12.7000
 20
106.0450
 30
0.0000
 42
1.0000
  0
SEQEND
  8
0
  0
POLYLINE
  8
16
 66
1
 10
0.0000
 20
0.0000
 30
0.0000
 40
0.0000
 41
0.0000
 70
1
  0
VERTEX
  8
16
 10
9.7110
 20
107.1290
 30
0.0000
  0
VERTEX
  8
16
 10
7.1710
 20
104.5890
 30
0.0000
 42
1.0000
  0
VERTEX
  8
16
 10
8.0690
 20
103.6910
 30
0.0000
  0
VERTEX
  8
16
 10
10.6090
 20
106.2310
 30
0.0000
 42
1.0000
  0
SEQEND
  8
0
  0
POLYLINE
  8
16
 66
1
 10
0.0000
 20
0.0000
 30
0.0000
 40
0.0000
 41
0.0000
 70
1
  0
VERTEX
  8
16
 10
6.9850
 20
104.1400
 30
0.0000
  0
VERTEX
  8
16
 10
6.9850
 20
67.3100
 30
0.0000
 42
1.0000
  0
VERTEX
  8
16
 10
8.2550
 20
67.3100
 30
0.0000
  0
VERTEX
  8
16
 10
8.2550
 20
104.1400
 30
0.0000
 42
1.0000
  0
SEQEND
  8
0
  0
POLYLINE
  8
16
 66
1
 10
0.0000
 20
0.0000
 30
0.0000
 40
0.0000
 41
0.0000
 70
1
  0
VERTEX
  8
16
 10
7.1710
 20
66.8610
 30
0.0000
  0
VERTEX
  8
16
 10
8.4410
 20
65.5910
 30
0.0000
 42
1.0000
  0
VERTEX
  8
16
 10
9.3390
 20
66.4890
 30
0.0000
  0
VERTEX
  8
16
 10
8.0690
 20
67.7590
 30
0.0000
 42
1.0000
  0
SEQEND
  8
0
  0
POLYLINE
  8
16
 66
1
 10
0.0000
 20
0.0000
 30
0.0000
 40
0.0000
 41
0.0000
 70
1
  0
VERTEX
  8
16
 10
8.8900
 20
65.4050
 30
0.0000
  0
VERTEX
  8
16
 10
11.4300
 20
65.4050
 30
0.0000
 42
1.0000
  0
VERTEX
  8
16
 10
11.4300
 20
66.6750
 30
0.0000
  0
VERTEX
  8
16
 10
8.8900
 20
66.6750
 30
0.0000
 42
1.0000
  0
SEQEND
  8
0
  0
POLYLINE
  8
16
 66
1
 10
0.0000
 20
0.0000
 30
0.0000
 40
0.0000
 41
0.0000
 70
1
  0
VERTEX
  8
16
 10
13.3350
 20
104.1400
 30
0.0000
  0
VERTEX
  8
16
 10
13.3350
 20
106.6800
 30
0.0000
 42
1.0000
  0
VERTEX
  8
16
 10
12.0650
 20
106.6800
 30
0.0000
  0
VERTEX
  8
16
 10
12.0650
 20
104.1400
 30
0.0000
 42
1.0000
  0
SEQEND
  8
0
  0
POLYLINE
  8
16
 66
1
 10
0.0000
 20
0.0000
 30
0.0000
 40
0.0000
 41
0.0000
 70
1
  0
VERTEX
  8
16
 10
40.6400
 20
107.3150
 30
0.0000
  0
VERTEX
  8
16
 10
30.4800
 20
107.3150
 30
0.0000
 42
1.0000
  0
VERTEX
  8
16
 10
30.4800
 20
106.0450
 30
0.0000
  0
VERTEX
  8
16
 10
40.6400
 20
106.0450
 30
0.0000
 42
1.0000
  0
SEQEND
  8
0
  0
POLYLINE
  8
16
 66
1
 10
0.0000
 20
0.0000
 30
0.0000
 40
0.0000
 41
0.0000
 70
1
  0
VERTEX
  8
16
 10
43.8150
 20
33.0200
 30
0.0000
  0
VERTEX
  8
16
 10
43.8150
 20
35.5600
 30
0.0000
 42
1.0000
  0
VERTEX
  8
16
 10
42.5450
 20
35.5600
 30
0.0000
  0
VERTEX
  8
16
 10
42.5450
 20
33.0200
 30
0.0000
 42
1.0000
  0
SEQEND
  8
0
  0
POLYLINE
  8
16
 66
1
 10
0.0000
 20
0.0000
 30
0.0000
 40
0.0000
 41
0.0000
 70
1
  0
VERTEX
  8
16
 10
48.8950
 20
35.5600
 30
0.0000
  0
VERTEX
  8
16
 10
48.8950
 20
33.0200
 30
0.0000
 42
1.0000
  0
VERTEX
  8
16
 10
50.1650
 20
33.0200
 30
0.0000
  0
VERTEX
  8
16
 10
50.1650
 20
35.5600
 30
0.0000
 42
1.0000
  0
SEQEND
  8
0
  0
POLYLINE
  8
16
 66
1
 10
0.0000
 20
0.0000
 30
0.0000
 40
0.0000
 41
0.0000
 70
1
  0
VERTEX
  8
16
 10
49.5300
 20
33.6550
 30
0.0000
  0
VERTEX
  8
16
 10
43.1800
 20
33.6550
 30
0.0000
 42
1.0000
  0
VERTEX
  8
16
 10
43.1800
 20
32.3850
 30
0.0000
  0
VERTEX
  8
16
 10
49.5300
 20
32.3850
 30
0.0000
 42
1.0000
  0
SEQEND
  8
0
  0
POLYLINE
  8
16
 66
1
 10
0.0000
 20
0.0000
 30
0.0000
 40
0.0000
 41
0.0000
 70
1
  0
VERTEX
  8
16
 10
49.5300
 20
32.3850
 30
0.0000
  0
VERTEX
  8
16
 10
53.3400
 20
32.3850
 30
0.0000
 42
1.0000
  0
VERTEX
  8
16
 10
53.3400
 20
33.6550
 30
0.0000
  0
VERTEX
  8
16
 10
49.5300
 20
33.6550
 30
0.0000
 42
1.0000
  0
SEQEND
  8
0
  0
POLYLINE
  8
16
 66
1
 10
0.0000
 20
0.0000
 30
0.0000
 40
0.0000
 41
0.0000
 70
1
  0
VERTEX
  8
16
 10
53.7890
 20
32.5710
 30
0.0000
  0
VERTEX
  8
16
 10
56.3290
 20
35.1110
 30
0.0000
 42
1.0000
  0
VERTEX
  8
16
 10
55.4310
 20
36.0090
 30
0.0000
  0
VERTEX
  8
16
 10
52.8910
 20
33.4690
 30
0.0000
 42
1.0000
  0
SEQEND
  8
0
  0
POLYLINE
  8
16
 66
1
 10
0.0000
 20
0.0000
 30
0.0000
 40
0.0000
 41
0.0000
 70
1
  0
VERTEX
  8
16
 10
27.3050
 20
33.0200
 30
0.0000
  0
VERTEX
  8
16
 10
27.3050
 20
41.9100
 30
0.0000
 42
1.0000
  0
VERTEX
  8
16
 10
26.0350
 20
41.9100
 30
0.0000
  0
VERTEX
  8
16
 10
26.0350
 20
33.0200
 30
0.0000
 42
1.0000
  0
SEQEND
  8
0
  0
POLYLINE
  8
16
 66
1
 10
0.0000
 20
0.0000
 30
0.0000
 40
0.0000
 41
0.0000
 70
1
  0
VERTEX
  8
16
 10
27.3050
 20
41.9100
 30
0.0000
  0
VERTEX
  8
16
 10
27.3050
 20
50.8000
 30
0.0000
 42
1.0000
  0
VERTEX
  8
16
 10
26.0350
 20
50.8000
 30
0.0000
  0
VERTEX
  8
16
 10
26.0350
 20
41.9100
 30
0.0000
 42
1.0000
  0
SEQEND
  8
0
  0
POLYLINE
  8
16
 66
1
 10
0.0000
 20
0.0000
 30
0.0000
 40
0.0000
 41
0.0000
 70
1
  0
VERTEX
  8
16
 10
26.0350
 20
59.6900
 30
0.0000
  0
VERTEX
  8
16
 10
26.0350
 20
50.8000
 30
0.0000
 42
1.0000
  0
VERTEX
  8
16
 10
27.3050
 20
50.8000
 30
0.0000
  0
VERTEX
  8
16
 10
27.3050
 20
59.6900
 30
0.0000
 42
1.0000
  0
SEQEND
  8
0
  0
POLYLINE
  8
16
 66
1
 10
0.0000
 20
0.0000
 30
0.0000
 40
0.0000
 41
0.0000
 70
1
  0
VERTEX
  8
16
 10
15.8750
 20
72.3900
 30
0.0000
  0
VERTEX
  8
16
 10
15.8750
 20
69.9770
 30
0.0000
 42
1.0000
  0
VERTEX
  8
16
 10
17.1450
 20
69.9770
 30
0.0000
  0
VERTEX
  8
16
 10
17.1450
 20
72.3900
 30
0.0000
 42
1.0000
  0
SEQEND
  8
0
  0
POLYLINE
  8
16
 66
1
 10
0.0000
 20
0.0000
 30
0.0000
 40
0.0000
 41
0.0000
 70
1
  0
VERTEX
  8
16
 10
16.9590
 20
72.8390
 30
0.0000
  0
VERTEX
  8
16
 10
15.6890
 20
74.1090
 30
0.0000
 42
1.0000
  0
VERTEX
  8
16
 10
14.7910
 20
73.2110
 30
0.0000
  0
VERTEX
  8
16
 10
16.0610
 20
71.9410
 30
0.0000
 42
1.0000
  0
SEQEND
  8
0
  0
POLYLINE
  8
16
 66
1
 10
0.0000
 20
0.0000
 30
0.0000
 40
0.0000
 41
0.0000
 70
1
  0
VERTEX
  8
16
 10
15.2400
 20
74.2950
 30
0.0000
  0
VERTEX
  8
16
 10
11.4300
 20
74.2950
 30
0.0000
 42
1.0000
  0
VERTEX
  8
16
 10
11.4300
 20
73.0250
 30
0.0000
  0
VERTEX
  8
16
 10
15.2400
 20
73.0250
 30
0.0000
 42
1.0000
  0
SEQEND
  8
0
  0
POLYLINE
  8
16
 66
1
 10
0.0000
 20
0.0000
 30
0.0000
 40
0.0000
 41
0.0000
 70
1
  0
VERTEX
  8
16
 10
16.5100
 20
69.3420
 30
0.0000
  0
VERTEX
  8
16
 10
17.6530
 20
69.3420
 30
0.0000
 42
1.0000
  0
VERTEX
  8
16
 10
17.6530
 20
70.6120
 30
0.0000
  0
VERTEX
  8
16
 10
16.5100
 20
70.6120
 30
0.0000
 42
1.0000
  0
SEQEND
  8
0
  0
POLYLINE
  8
16
 66
1
 10
0.0000
 20
0.0000
 30
0.0000
 40
0.0000
 41
0.0000
 70
1
  0
VERTEX
  8
16
 10
26.0350
 20
60.9600
 30
0.0000
  0
VERTEX
  8
16
 10
26.0350
 20
59.6900
 30
0.0000
 42
1.0000
  0
VERTEX
  8
16
 10
27.3050
 20
59.6900
 30
0.0000
  0
VERTEX
  8
16
 10
27.3050
 20
60.9600
 30
0.0000
 42
1.0000
  0
SEQEND
  8
0
  0
POLYLINE
  8
16
 66
1
 10
0.0000
 20
0.0000
 30
0.0000
 40
0.0000
 41
0.0000
 70
1
  0
VERTEX
  8
16
 10
17.2040
 20
69.5280
 30
0.0000
  0
VERTEX
  8
16
 10
26.2210
 20
60.5110
 30
0.0000
 42
1.0000
  0
VERTEX
  8
16
 10
27.1190
 20
61.4090
 30
0.0000
  0
VERTEX
  8
16
 10
18.1020
 20
70.4260
 30
0.0000
 42
1.0000
  0
SEQEND
  8
0
  0
POLYLINE
  8
16
 66
1
 10
0.0000
 20
0.0000
 30
0.0000
 40
0.0000
 41
0.0000
 70
1
  0
VERTEX
  8
16
 10
56.5150
 20
35.5600
 30
0.0000
  0
VERTEX
  8
16
 10
56.5150
 20
36.8300
 30
0.0000
 42
1.0000
  0
VERTEX
  8
16
 10
55.2450
 20
36.8300
 30
0.0000
  0
VERTEX
  8
16
 10
55.2450
 20
35.5600
 30
0.0000
 42
1.0000
  0
SEQEND
  8
0
  0
POLYLINE
  8
16
 66
1
 10
0.0000
 20
0.0000
 30
0.0000
 40
0.0000
 41
0.0000
 70
1
  0
VERTEX
  8
16
 10
51.6210
 20
40.1910
 30
0.0000
  0
VERTEX
  8
16
 10
55.4310
 20
36.3810
 30
0.0000
 42
1.0000
  0
VERTEX
  8
16
 10
56.3290
 20
37.2790
 30
0.0000
  0
VERTEX
  8
16
 10
52.5190
 20
41.0890
 30
0.0000
 42
1.0000
  0
SEQEND
  8
0
  0
POLYLINE
  8
16
 66
1
 10
0.0000
 20
0.0000
 30
0.0000
 40
0.0000
 41
0.0000
 70
1
  0
VERTEX
  8
16
 10
52.0700
 20
41.2750
 30
0.0000
  0
VERTEX
  8
16
 10
38.1000
 20
41.2750
 30
0.0000
 42
1.0000
  0
VERTEX
  8
16
 10
38.1000
 20
40.0050
 30
0.0000
  0
VERTEX
  8
16
 10
52.0700
 20
40.0050
 30
0.0000
 42
1.0000
  0
SEQEND
  8
0
  0
POLYLINE
  8
16
 66
1
 10
0.0000
 20
0.0000
 30
0.0000
 40
0.0000
 41
0.0000
 70
1
  0
VERTEX
  8
16
 10
38.5490
 20
41.0890
 30
0.0000
  0
VERTEX
  8
16
 10
34.7390
 20
44.8990
 30
0.0000
 42
1.0000
  0
VERTEX
  8
16
 10
33.8410
 20
44.0010
 30
0.0000
  0
VERTEX
  8
16
 10
37.6510
 20
40.1910
 30
0.0000
 42
1.0000
  0
SEQEND
  8
0
  0
POLYLINE
  8
16
 66
1
 10
0.0000
 20
0.0000
 30
0.0000
 40
0.0000
 41
0.0000
 70
1
  0
VERTEX
  8
16
 10
34.9250
 20
44.4500
 30
0.0000
  0
VERTEX
  8
16
 10
34.9250
 20
49.5300
 30
0.0000
 42
1.0000
  0
VERTEX
  8
16
 10
33.6550
 20
49.5300
 30
0.0000
  0
VERTEX
  8
16
 10
33.6550
 20
44.4500
 30
0.0000
 42
1.0000
  0
SEQEND
  8
0
  0
POLYLINE
  8
16
 66
1
 10
0.0000
 20
0.0000
 30
0.0000
 40
0.0000
 41
0.0000
 70
1
  0
VERTEX
  8
16
 10
32.3850
 20
52.0700
 30
0.0000
  0
VERTEX
  8
16
 10
32.3850
 20
58.4200
 30
0.0000
 42
1.0000
  0
VERTEX
  8
16
 10
31.1150
 20
58.4200
 30
0.0000
  0
VERTEX
  8
16
 10
31.1150
 20
52.0700
 30
0.0000
 42
1.0000
  0
SEQEND
  8
0
  0
POLYLINE
  8
16
 66
1
 10
0.0000
 20
0.0000
 30
0.0000
 40
0.0000
 41
0.0000
 70
1
  0
VERTEX
  8
16
 10
34.7390
 20
49.9790
 30
0.0000
  0
VERTEX
  8
16
 10
32.1990
 20
52.5190
 30
0.0000
 42
1.0000
  0
VERTEX
  8
16
 10
31.3010
 20
51.6210
 30
0.0000
  0
VERTEX
  8
16
 10
33.8410
 20
49.0810
 30
0.0000
 42
1.0000
  0
SEQEND
  8
0
  0
POLYLINE
  8
16
 66
1
 10
0.0000
 20
0.0000
 30
0.0000
 40
0.0000
 41
0.0000
 70
1
  0
VERTEX
  8
16
 10
32.1990
 20
58.8690
 30
0.0000
  0
VERTEX
  8
16
 10
30.9290
 20
60.1390
 30
0.0000
 42
1.0000
  0
VERTEX
  8
16
 10
30.0310
 20
59.2410
 30
0.0000
  0
VERTEX
  8
16
 10
31.3010
 20
57.9710
 30
0.0000
 42
1.0000
  0
SEQEND
  8
0
  0
POLYLINE
  8
16
 66
1
 10
0.0000
 20
0.0000
 30
0.0000
 40
0.0000
 41
0.0000
 70
1
  0
VERTEX
  8
16
 10
30.4800
 20
60.3250
 30
0.0000
  0
VERTEX
  8
16
 10
26.6700
 20
60.3250
 30
0.0000
 42
1.0000
  0
VERTEX
  8
16
 10
26.6700
 20
59.0550
 30
0.0000
  0
VERTEX
  8
16
 10
30.4800
 20
59.0550
 30
0.0000
 42
1.0000
  0
SEQEND
  8
0
  0
POLYLINE
  8
16
 66
1
 10
0.0000
 20
0.0000
 30
0.0000
 40
0.0000
 41
0.0000
 70
1
  0
VERTEX
  8
16
 10
64.1350
 20
40.6400
 30
0.0000
  0
VERTEX
  8
16
 10
64.1350
 20
43.1800
 30
0.0000
 42
1.0000
  0
VERTEX
  8
16
 10
62.8650
 20
43.1800
 30
0.0000
  0
VERTEX
  8
16
 10
62.8650
 20
40.6400
 30
0.0000
 42
1.0000
  0
SEQEND
  8
0
  0
POLYLINE
  8
16
 66
1
 10
0.0000
 20
0.0000
 30
0.0000
 40
0.0000
 41
0.0000
 70
1
  0
VERTEX
  8
16
 10
63.9490
 20
43.6290
 30
0.0000
  0
VERTEX
  8
16
 10
61.4090
 20
46.1690
 30
0.0000
 42
1.0000
  0
VERTEX
  8
16
 10
60.5110
 20
45.2710
 30
0.0000
  0
VERTEX
  8
16
 10
63.0510
 20
42.7310
 30
0.0000
 42
1.0000
  0
SEQEND
  8
0
  0
POLYLINE
  8
16
 66
1
 10
0.0000
 20
0.0000
 30
0.0000
 40
0.0000
 41
0.0000
 70
1
  0
VERTEX
  8
16
 10
60.9600
 20
46.3550
 30
0.0000
  0
VERTEX
  8
16
 10
57.1500
 20
46.3550
 30
0.0000
 42
1.0000
  0
VERTEX
  8
16
 10
57.1500
 20
45.0850
 30
0.0000
  0
VERTEX
  8
16
 10
60.9600
 20
45.0850
 30
0.0000
 42
1.0000
  0
SEQEND
  8
0
  0
POLYLINE
  8
16
 66
1
 10
0.0000
 20
0.0000
 30
0.0000
 40
0.0000
 41
0.0000
 70
1
  0
VERTEX
  8
16
 10
56.7010
 20
46.1690
 30
0.0000
  0
VERTEX
  8
16
 10
51.6210
 20
41.0890
 30
0.0000
 42
1.0000
  0
VERTEX
  8
16
 10
52.5190
 20
40.1910
 30
0.0000
  0
VERTEX
  8
16
 10
57.5990
 20
45.2710
 30
0.0000
 42
1.0000
  0
SEQEND
  8
0
  0
POLYLINE
  8
16
 66
1
 10
0.0000
 20
0.0000
 30
0.0000
 40
0.0000
 41
0.0000
 70
1
  0
VERTEX
  8
16
 10
60.3250
 20
99.0600
 30
0.0000
  0
VERTEX
  8
16
 10
60.3250
 20
101.7322
 30
0.0000
 42
1.0000
  0
VERTEX
  8
16
 10
59.0550
 20
101.7322
 30
0.0000
  0
VERTEX
  8
16
 10
59.0550
 20
99.0600
 30
0.0000
 42
1.0000
  0
SEQEND
  8
0
  0
POLYLINE
  8
16
 66
1
 10
0.0000
 20
0.0000
 30
0.0000
 40
0.0000
 41
0.0000
 70
1
  0
VERTEX
  8
16
 10
60.1390
 20
102.1812
 30
0.0000
  0
VERTEX
  8
16
 10
58.8690
 20
103.4512
 30
0.0000
 42
1.0000
  0
VERTEX
  8
16
 10
57.9710
 20
102.5532
 30
0.0000
  0
VERTEX
  8
16
 10
59.2410
 20
101.2832
 30
0.0000
 42
1.0000
  0
SEQEND
  8
0
  0
POLYLINE
  8
16
 66
1
 10
0.0000
 20
0.0000
 30
0.0000
 40
0.0000
 41
0.0000
 70
1
  0
VERTEX
  8
16
 10
40.6400
 20
100.9650
 30
0.0000
  0
VERTEX
  8
16
 10
48.2600
 20
100.9650
 30
0.0000
 42
1.0000
  0
VERTEX
  8
16
 10
48.2600
 20
102.2350
 30
0.0000
  0
VERTEX
  8
16
 10
40.6400
 20
102.2350
 30
0.0000
 42
1.0000
  0
SEQEND
  8
0
  0
POLYLINE
  8
16
 66
1
 10
0.0000
 20
0.0000
 30
0.0000
 40
0.0000
 41
0.0000
 70
1
  0
VERTEX
  8
16
 10
50.1650
 20
99.0600
 30
0.0000
  0
VERTEX
  8
16
 10
50.1650
 20
100.3300
 30
0.0000
 42
1.0000
  0
VERTEX
  8
16
 10
48.8950
 20
100.3300
 30
0.0000
  0
VERTEX
  8
16
 10
48.8950
 20
99.0600
 30
0.0000
 42
1.0000
  0
SEQEND
  8
0
  0
POLYLINE
  8
16
 66
1
 10
0.0000
 20
0.0000
 30
0.0000
 40
0.0000
 41
0.0000
 70
1
  0
VERTEX
  8
16
 10
49.9790
 20
100.7790
 30
0.0000
  0
VERTEX
  8
16
 10
48.7090
 20
102.0490
 30
0.0000
 42
1.0000
  0
VERTEX
  8
16
 10
47.8110
 20
101.1510
 30
0.0000
  0
VERTEX
  8
16
 10
49.0810
 20
99.8810
 30
0.0000
 42
1.0000
  0
SEQEND
  8
0
  0
POLYLINE
  8
16
 66
1
 10
0.0000
 20
0.0000
 30
0.0000
 40
0.0000
 41
0.0000
 70
1
  0
VERTEX
  8
16
 10
22.2250
 20
104.1400
 30
0.0000
  0
VERTEX
  8
16
 10
22.2250
 20
102.8700
 30
0.0000
 42
1.0000
  0
VERTEX
  8
16
 10
23.4950
 20
102.8700
 30
0.0000
  0
VERTEX
  8
16
 10
23.4950
 20
104.1400
 30
0.0000
 42
1.0000
  0
SEQEND
  8
0
  0
POLYLINE
  8
16
 66
1
 10
0.0000
 20
0.0000
 30
0.0000
 40
0.0000
 41
0.0000
 70
1
  0
VERTEX
  8
16
 10
22.4110
 20
102.4210
 30
0.0000
  0
VERTEX
  8
16
 10
23.6810
 20
101.1510
 30
0.0000
 42
1.0000
  0
VERTEX
  8
16
 10
24.5790
 20
102.0490
 30
0.0000
  0
VERTEX
  8
16
 10
23.3090
 20
103.3190
 30
0.0000
 42
1.0000
  0
SEQEND
  8
0
  0
POLYLINE
  8
16
 66
1
 10
0.0000
 20
0.0000
 30
0.0000
 40
0.0000
 41
0.0000
 70
1
  0
VERTEX
  8
16
 10
25.4000
 20
102.2350
 30
0.0000
  0
VERTEX
  8
16
 10
24.1300
 20
102.2350
 30
0.0000
 42
1.0000
  0
VERTEX
  8
16
 10
24.1300
 20
100.9650
 30
0.0000
  0
VERTEX
  8
16
 10
25.4000
 20
100.9650
 30
0.0000
 42
1.0000
  0
SEQEND
  8
0
  0
POLYLINE
  8
16
 66
1
 10
0.0000
 20
0.0000
 30
0.0000
 40
0.0000
 41
0.0000
 70
1
  0
VERTEX
  8
16
 10
25.4000
 20
100.9650
 30
0.0000
  0
VERTEX
  8
16
 10
40.6400
 20
100.9650
 30
0.0000
 42
1.0000
  0
VERTEX
  8
16
 10
40.6400
 20
102.2350
 30
0.0000
  0
VERTEX
  8
16
 10
25.4000
 20
102.2350
 30
0.0000
 42
1.0000
  0
SEQEND
  8
0
  0
POLYLINE
  8
16
 66
1
 10
0.0000
 20
0.0000
 30
0.0000
 40
0.0000
 41
0.0000
 70
1
  0
VERTEX
  8
16
 10
43.1800
 20
96.5200
 30
0.0000
  0
VERTEX
  8
16
 10
34.2900
 20
96.5200
 30
0.0000
 42
1.0000
  0
VERTEX
  8
16
 10
34.2900
 20
95.2500
 30
0.0000
  0
VERTEX
  8
16
 10
43.1800
 20
95.2500
 30
0.0000
 42
1.0000
  0
SEQEND
  8
0
  0
POLYLINE
  8
16
 66
1
 10
0.0000
 20
0.0000
 30
0.0000
 40
0.0000
 41
0.0000
 70
1
  0
VERTEX
  8
16
 10
34.2900
 20
96.5200
 30
0.0000
  0
VERTEX
  8
16
 10
25.4000
 20
96.5200
 30
0.0000
 42
1.0000
  0
VERTEX
  8
16
 10
25.4000
 20
95.2500
 30
0.0000
  0
VERTEX
  8
16
 10
34.2900
 20
95.2500
 30
0.0000
 42
1.0000
  0
SEQEND
  8
0
  0
POLYLINE
  8
16
 66
1
 10
0.0000
 20
0.0000
 30
0.0000
 40
0.0000
 41
0.0000
 70
1
  0
VERTEX
  8
16
 10
25.4000
 20
96.5200
 30
0.0000
  0
VERTEX
  8
16
 10
16.5100
 20
96.5200
 30
0.0000
 42
1.0000
  0
VERTEX
  8
16
 10
16.5100
 20
95.2500
 30
0.0000
  0
VERTEX
  8
16
 10
25.4000
 20
95.2500
 30
0.0000
 42
1.0000
  0
SEQEND
  8
0
  0
POLYLINE
  8
16
 66
1
 10
0.0000
 20
0.0000
 30
0.0000
 40
0.0000
 41
0.0000
 70
1
  0
VERTEX
  8
16
 10
26.0350
 20
95.8850
 30
0.0000
  0
VERTEX
  8
16
 10
26.0350
 20
101.6000
 30
0.0000
 42
1.0000
  0
VERTEX
  8
16
 10
24.7650
 20
101.6000
 30
0.0000
  0
VERTEX
  8
16
 10
24.7650
 20
95.8850
 30
0.0000
 42
1.0000
  0
SEQEND
  8
0
  0
LINE
  8
19
 10
16.5100
 20
95.8850
 30
0.0000
 11
16.5100
 21
95.8850
 31
0.0000
  0
POLYLINE
  8
16
 66
1
 10
0.0000
 20
0.0000
 30
0.0000
 40
0.0000
 41
0.0000
 70
1
  0
VERTEX
  8
16
 10
53.3400
 20
106.2228
 30
0.0000
  0
VERTEX
  8
16
 10
58.4200
 20
106.2228
 30
0.0000
 42
1.0000
  0
VERTEX
  8
16
 10
58.4200
 20
107.4928
 30
0.0000
  0
VERTEX
  8
16
 10
53.3400
 20
107.4928
 30
0.0000
 42
1.0000
  0
SEQEND
  8
0
  0
POLYLINE
  8
16
 66
1
 10
0.0000
 20
0.0000
 30
0.0000
 40
0.0000
 41
0.0000
 70
1
  0
VERTEX
  8
16
 10
53.3400
 20
107.4928
 30
0.0000
  0
VERTEX
  8
16
 10
49.5300
 20
107.4928
 30
0.0000
 42
1.0000
  0
VERTEX
  8
16
 10
49.5300
 20
106.2228
 30
0.0000
  0
VERTEX
  8
16
 10
53.3400
 20
106.2228
 30
0.0000
 42
1.0000
  0
SEQEND
  8
0
  0
POLYLINE
  8
16
 66
1
 10
0.0000
 20
0.0000
 30
0.0000
 40
0.0000
 41
0.0000
 70
1
  0
VERTEX
  8
16
 10
49.4420
 20
107.4867
 30
0.0000
  0
VERTEX
  8
16
 10
48.1720
 20
107.3089
 30
0.0000
 42
1.0000
  0
VERTEX
  8
16
 10
48.3480
 20
106.0511
 30
0.0000
  0
VERTEX
  8
16
 10
49.6180
 20
106.2289
 30
0.0000
 42
1.0000
  0
SEQEND
  8
0
  0
POLYLINE
  8
16
 66
1
 10
0.0000
 20
0.0000
 30
0.0000
 40
0.0000
 41
0.0000
 70
1
  0
VERTEX
  8
16
 10
48.2600
 20
107.3150
 30
0.0000
  0
VERTEX
  8
16
 10
46.9900
 20
107.3150
 30
0.0000
 42
1.0000
  0
VERTEX
  8
16
 10
46.9900
 20
106.0450
 30
0.0000
  0
VERTEX
  8
16
 10
48.2600
 20
106.0450
 30
0.0000
 42
1.0000
  0
SEQEND
  8
0
  0
POLYLINE
  8
16
 66
1
 10
0.0000
 20
0.0000
 30
0.0000
 40
0.0000
 41
0.0000
 70
1
  0
VERTEX
  8
16
 10
46.5410
 20
107.1290
 30
0.0000
  0
VERTEX
  8
16
 10
44.0010
 20
104.5890
 30
0.0000
 42
1.0000
  0
VERTEX
  8
16
 10
44.8990
 20
103.6910
 30
0.0000
  0
VERTEX
  8
16
 10
47.4390
 20
106.2310
 30
0.0000
 42
1.0000
  0
SEQEND
  8
0
  0
POLYLINE
  8
16
 66
1
 10
0.0000
 20
0.0000
 30
0.0000
 40
0.0000
 41
0.0000
 70
1
  0
VERTEX
  8
16
 10
44.4500
 20
104.7750
 30
0.0000
  0
VERTEX
  8
16
 10
40.6400
 20
104.7750
 30
0.0000
 42
1.0000
  0
VERTEX
  8
16
 10
40.6400
 20
103.5050
 30
0.0000
  0
VERTEX
  8
16
 10
44.4500
 20
103.5050
 30
0.0000
 42
1.0000
  0
SEQEND
  8
0
  0
POLYLINE
  8
16
 66
1
 10
0.0000
 20
0.0000
 30
0.0000
 40
0.0000
 41
0.0000
 70
1
  0
VERTEX
  8
16
 10
40.6400
 20
104.7750
 30
0.0000
  0
VERTEX
  8
16
 10
30.4800
 20
104.7750
 30
0.0000
 42
1.0000
  0
VERTEX
  8
16
 10
30.4800
 20
103.5050
 30
0.0000
  0
VERTEX
  8
16
 10
40.6400
 20
103.5050
 30
0.0000
 42
1.0000
  0
SEQEND
  8
0
  0
POLYLINE
  8
16
 66
1
 10
0.0000
 20
0.0000
 30
0.0000
 40
0.0000
 41
0.0000
 70
1
  0
VERTEX
  8
16
 10
43.1800
 20
29.8450
 30
0.0000
  0
VERTEX
  8
16
 10
49.5300
 20
29.8450
 30
0.0000
 42
1.0000
  0
VERTEX
  8
16
 10
49.5300
 20
31.1150
 30
0.0000
  0
VERTEX
  8
16
 10
43.1800
 20
31.1150
 30
0.0000
 42
1.0000
  0
SEQEND
  8
0
  0
POLYLINE
  8
16
 66
1
 10
0.0000
 20
0.0000
 30
0.0000
 40
0.0000
 41
0.0000
 70
1
  0
VERTEX
  8
16
 10
49.5300
 20
38.7350
 30
0.0000
  0
VERTEX
  8
16
 10
40.6400
 20
38.7350
 30
0.0000
 42
1.0000
  0
VERTEX
  8
16
 10
40.6400
 20
37.4650
 30
0.0000
  0
VERTEX
  8
16
 10
49.5300
 20
37.4650
 30
0.0000
 42
1.0000
  0
SEQEND
  8
0
  0
POLYLINE
  8
16
 66
1
 10
0.0000
 20
0.0000
 30
0.0000
 40
0.0000
 41
0.0000
 70
1
  0
VERTEX
  8
16
 10
40.1910
 20
38.5490
 30
0.0000
  0
VERTEX
  8
16
 10
38.9210
 20
37.2790
 30
0.0000
 42
1.0000
  0
VERTEX
  8
16
 10
39.8190
 20
36.3810
 30
0.0000
  0
VERTEX
  8
16
 10
41.0890
 20
37.6510
 30
0.0000
 42
1.0000
  0
SEQEND
  8
0
  0
POLYLINE
  8
16
 66
1
 10
0.0000
 20
0.0000
 30
0.0000
 40
0.0000
 41
0.0000
 70
1
  0
VERTEX
  8
16
 10
40.0050
 20
31.7500
 30
0.0000
  0
VERTEX
  8
16
 10
40.0050
 20
36.8300
 30
0.0000
 42
1.0000
  0
VERTEX
  8
16
 10
38.7350
 20
36.8300
 30
0.0000
  0
VERTEX
  8
16
 10
38.7350
 20
31.7500
 30
0.0000
 42
1.0000
  0
SEQEND
  8
0
  0
POLYLINE
  8
16
 66
1
 10
0.0000
 20
0.0000
 30
0.0000
 40
0.0000
 41
0.0000
 70
1
  0
VERTEX
  8
16
 10
38.9210
 20
31.3010
 30
0.0000
  0
VERTEX
  8
16
 10
40.1910
 20
30.0310
 30
0.0000
 42
1.0000
  0
VERTEX
  8
16
 10
41.0890
 20
30.9290
 30
0.0000
  0
VERTEX
  8
16
 10
39.8190
 20
32.1990
 30
0.0000
 42
1.0000
  0
SEQEND
  8
0
  0
POLYLINE
  8
16
 66
1
 10
0.0000
 20
0.0000
 30
0.0000
 40
0.0000
 41
0.0000
 70
1
  0
VERTEX
  8
16
 10
40.6400
 20
29.8450
 30
0.0000
  0
VERTEX
  8
16
 10
43.1800
 20
29.8450
 30
0.0000
 42
1.0000
  0
VERTEX
  8
16
 10
43.1800
 20
31.1150
 30
0.0000
  0
VERTEX
  8
16
 10
40.6400
 20
31.1150
 30
0.0000
 42
1.0000
  0
SEQEND
  8
0
  0
POLYLINE
  8
16
 66
1
 10
0.0000
 20
0.0000
 30
0.0000
 40
0.0000
 41
0.0000
 70
1
  0
VERTEX
  8
16
 10
15.8750
 20
17.7800
 30
0.0000
  0
VERTEX
  8
16
 10
15.8750
 20
15.2400
 30
0.0000
 42
1.0000
  0
VERTEX
  8
16
 10
17.1450
 20
15.2400
 30
0.0000
  0
VERTEX
  8
16
 10
17.1450
 20
17.7800
 30
0.0000
 42
1.0000
  0
SEQEND
  8
0
  0
POLYLINE
  8
16
 66
1
 10
0.0000
 20
0.0000
 30
0.0000
 40
0.0000
 41
0.0000
 70
1
  0
VERTEX
  8
16
 10
17.1450
 20
17.7800
 30
0.0000
  0
VERTEX
  8
16
 10
17.1450
 20
20.3200
 30
0.0000
 42
1.0000
  0
VERTEX
  8
16
 10
15.8750
 20
20.3200
 30
0.0000
  0
VERTEX
  8
16
 10
15.8750
 20
17.7800
 30
0.0000
 42
1.0000
  0
SEQEND
  8
0
  0
POLYLINE
  8
16
 66
1
 10
0.0000
 20
0.0000
 30
0.0000
 40
0.0000
 41
0.0000
 70
1
  0
VERTEX
  8
16
 10
17.1450
 20
20.3200
 30
0.0000
  0
VERTEX
  8
16
 10
17.1450
 20
22.8600
 30
0.0000
 42
1.0000
  0
VERTEX
  8
16
 10
15.8750
 20
22.8600
 30
0.0000
  0
VERTEX
  8
16
 10
15.8750
 20
20.3200
 30
0.0000
 42
1.0000
  0
SEQEND
  8
0
  0
POLYLINE
  8
16
 66
1
 10
0.0000
 20
0.0000
 30
0.0000
 40
0.0000
 41
0.0000
 70
1
  0
VERTEX
  8
16
 10
17.1450
 20
22.8600
 30
0.0000
  0
VERTEX
  8
16
 10
17.1450
 20
25.4000
 30
0.0000
 42
1.0000
  0
VERTEX
  8
16
 10
15.8750
 20
25.4000
 30
0.0000
  0
VERTEX
  8
16
 10
15.8750
 20
22.8600
 30
0.0000
 42
1.0000
  0
SEQEND
  8
0
  0
POLYLINE
  8
16
 66
1
 10
0.0000
 20
0.0000
 30
0.0000
 40
0.0000
 41
0.0000
 70
1
  0
VERTEX
  8
16
 10
15.8750
 20
27.9400
 30
0.0000
  0
VERTEX
  8
16
 10
15.8750
 20
25.4000
 30
0.0000
 42
1.0000
  0
VERTEX
  8
16
 10
17.1450
 20
25.4000
 30
0.0000
  0
VERTEX
  8
16
 10
17.1450
 20
27.9400
 30
0.0000
 42
1.0000
  0
SEQEND
  8
0
  0
POLYLINE
  8
16
 66
1
 10
0.0000
 20
0.0000
 30
0.0000
 40
0.0000
 41
0.0000
 70
1
  0
VERTEX
  8
16
 10
20.9550
 20
41.9100
 30
0.0000
  0
VERTEX
  8
16
 10
20.9550
 20
33.0200
 30
0.0000
 42
1.0000
  0
VERTEX
  8
16
 10
22.2250
 20
33.0200
 30
0.0000
  0
VERTEX
  8
16
 10
22.2250
 20
41.9100
 30
0.0000
 42
1.0000
  0
SEQEND
  8
0
  0
POLYLINE
  8
16
 66
1
 10
0.0000
 20
0.0000
 30
0.0000
 40
0.0000
 41
0.0000
 70
1
  0
VERTEX
  8
16
 10
22.2250
 20
41.9100
 30
0.0000
  0
VERTEX
  8
16
 10
22.2250
 20
50.8000
 30
0.0000
 42
1.0000
  0
VERTEX
  8
16
 10
20.9550
 20
50.8000
 30
0.0000
  0
VERTEX
  8
16
 10
20.9550
 20
41.9100
 30
0.0000
 42
1.0000
  0
SEQEND
  8
0
  0
POLYLINE
  8
16
 66
1
 10
0.0000
 20
0.0000
 30
0.0000
 40
0.0000
 41
0.0000
 70
1
  0
VERTEX
  8
16
 10
22.2250
 20
50.8000
 30
0.0000
  0
VERTEX
  8
16
 10
22.2250
 20
59.6900
 30
0.0000
 42
1.0000
  0
VERTEX
  8
16
 10
20.9550
 20
59.6900
 30
0.0000
  0
VERTEX
  8
16
 10
20.9550
 20
50.8000
 30
0.0000
 42
1.0000
  0
SEQEND
  8
0
  0
POLYLINE
  8
16
 66
1
 10
0.0000
 20
0.0000
 30
0.0000
 40
0.0000
 41
0.0000
 70
1
  0
VERTEX
  8
16
 10
16.5100
 20
67.8180
 30
0.0000
  0
VERTEX
  8
16
 10
14.0970
 20
67.8180
 30
0.0000
 42
1.0000
  0
VERTEX
  8
16
 10
14.0970
 20
66.5480
 30
0.0000
  0
VERTEX
  8
16
 10
16.5100
 20
66.5480
 30
0.0000
 42
1.0000
  0
SEQEND
  8
0
  0
POLYLINE
  8
16
 66
1
 10
0.0000
 20
0.0000
 30
0.0000
 40
0.0000
 41
0.0000
 70
1
  0
VERTEX
  8
16
 10
14.5460
 20
67.6320
 30
0.0000
  0
VERTEX
  8
16
 10
13.1490
 20
69.0290
 30
0.0000
 42
1.0000
  0
VERTEX
  8
16
 10
12.2510
 20
68.1310
 30
0.0000
  0
VERTEX
  8
16
 10
13.6480
 20
66.7340
 30
0.0000
 42
1.0000
  0
SEQEND
  8
0
  0
POLYLINE
  8
16
 66
1
 10
0.0000
 20
0.0000
 30
0.0000
 40
0.0000
 41
0.0000
 70
1
  0
VERTEX
  8
16
 10
11.4300
 20
67.9450
 30
0.0000
  0
VERTEX
  8
16
 10
12.7000
 20
67.9450
 30
0.0000
 42
1.0000
  0
VERTEX
  8
16
 10
12.7000
 20
69.2150
 30
0.0000
  0
VERTEX
  8
16
 10
11.4300
 20
69.2150
 30
0.0000
 42
1.0000
  0
SEQEND
  8
0
  0
POLYLINE
  8
16
 66
1
 10
0.0000
 20
0.0000
 30
0.0000
 40
0.0000
 41
0.0000
 70
1
  0
VERTEX
  8
16
 10
20.9550
 20
33.0200
 30
0.0000
  0
VERTEX
  8
16
 10
20.9550
 20
30.4800
 30
0.0000
 42
1.0000
  0
VERTEX
  8
16
 10
22.2250
 20
30.4800
 30
0.0000
  0
VERTEX
  8
16
 10
22.2250
 20
33.0200
 30
0.0000
 42
1.0000
  0
SEQEND
  8
0
  0
POLYLINE
  8
16
 66
1
 10
0.0000
 20
0.0000
 30
0.0000
 40
0.0000
 41
0.0000
 70
1
  0
VERTEX
  8
16
 10
19.0500
 20
28.5750
 30
0.0000
  0
VERTEX
  8
16
 10
16.5100
 20
28.5750
 30
0.0000
 42
1.0000
  0
VERTEX
  8
16
 10
16.5100
 20
27.3050
 30
0.0000
  0
VERTEX
  8
16
 10
19.0500
 20
27.3050
 30
0.0000
 42
1.0000
  0
SEQEND
  8
0
  0
POLYLINE
  8
16
 66
1
 10
0.0000
 20
0.0000
 30
0.0000
 40
0.0000
 41
0.0000
 70
1
  0
VERTEX
  8
16
 10
21.1410
 20
30.9290
 30
0.0000
  0
VERTEX
  8
16
 10
18.6010
 20
28.3890
 30
0.0000
 42
1.0000
  0
VERTEX
  8
16
 10
19.4990
 20
27.4910
 30
0.0000
  0
VERTEX
  8
16
 10
22.0390
 20
30.0310
 30
0.0000
 42
1.0000
  0
SEQEND
  8
0
  0
POLYLINE
  8
16
 66
1
 10
0.0000
 20
0.0000
 30
0.0000
 40
0.0000
 41
0.0000
 70
1
  0
VERTEX
  8
16
 10
22.2250
 20
59.6900
 30
0.0000
  0
VERTEX
  8
16
 10
22.2250
 20
62.1030
 30
0.0000
 42
1.0000
  0
VERTEX
  8
16
 10
20.9550
 20
62.1030
 30
0.0000
  0
VERTEX
  8
16
 10
20.9550
 20
59.6900
 30
0.0000
 42
1.0000
  0
SEQEND
  8
0
  0
POLYLINE
  8
16
 66
1
 10
0.0000
 20
0.0000
 30
0.0000
 40
0.0000
 41
0.0000
 70
1
  0
VERTEX
  8
16
 10
22.0390
 20
62.5520
 30
0.0000
  0
VERTEX
  8
16
 10
16.9590
 20
67.6320
 30
0.0000
 42
1.0000
  0
VERTEX
  8
16
 10
16.0610
 20
66.7340
 30
0.0000
  0
VERTEX
  8
16
 10
21.1410
 20
61.6540
 30
0.0000
 42
1.0000
  0
SEQEND
  8
0
  0
POLYLINE
  8
16
 66
1
 10
0.0000
 20
0.0000
 30
0.0000
 40
0.0000
 41
0.0000
 70
1
  0
VERTEX
  8
16
 10
10.7950
 20
71.1200
 30
0.0000
  0
VERTEX
  8
16
 10
10.7950
 20
68.5800
 30
0.0000
 42
1.0000
  0
VERTEX
  8
16
 10
12.0650
 20
68.5800
 30
0.0000
  0
VERTEX
  8
16
 10
12.0650
 20
71.1200
 30
0.0000
 42
1.0000
  0
SEQEND
  8
0
  0
POLYLINE
  8
16
 66
1
 10
0.0000
 20
0.0000
 30
0.0000
 40
0.0000
 41
0.0000
 70
1
  0
VERTEX
  8
16
 10
59.6900
 20
85.9790
 30
0.0000
  0
VERTEX
  8
16
 10
58.1660
 20
85.9790
 30
0.0000
 42
1.0000
  0
VERTEX
  8
16
 10
58.1660
 20
84.7090
 30
0.0000
  0
VERTEX
  8
16
 10
59.6900
 20
84.7090
 30
0.0000
 42
1.0000
  0
SEQEND
  8
0
  0
POLYLINE
  8
16
 66
1
 10
0.0000
 20
0.0000
 30
0.0000
 40
0.0000
 41
0.0000
 70
1
  0
VERTEX
  8
16
 10
58.6150
 20
85.7930
 30
0.0000
  0
VERTEX
  8
16
 10
56.3290
 20
88.0790
 30
0.0000
 42
1.0000
  0
VERTEX
  8
16
 10
55.4310
 20
87.1810
 30
0.0000
  0
VERTEX
  8
16
 10
57.7170
 20
84.8950
 30
0.0000
 42
1.0000
  0
SEQEND
  8
0
  0
POLYLINE
  8
16
 66
1
 10
0.0000
 20
0.0000
 30
0.0000
 40
0.0000
 41
0.0000
 70
1
  0
VERTEX
  8
16
 10
56.5150
 20
87.6300
 30
0.0000
  0
VERTEX
  8
16
 10
56.5150
 20
100.3300
 30
0.0000
 42
1.0000
  0
VERTEX
  8
16
 10
55.2450
 20
100.3300
 30
0.0000
  0
VERTEX
  8
16
 10
55.2450
 20
87.6300
 30
0.0000
 42
1.0000
  0
SEQEND
  8
0
  0
POLYLINE
  8
16
 66
1
 10
0.0000
 20
0.0000
 30
0.0000
 40
0.0000
 41
0.0000
 70
1
  0
VERTEX
  8
16
 10
56.3290
 20
100.7790
 30
0.0000
  0
VERTEX
  8
16
 10
53.7890
 20
103.3190
 30
0.0000
 42
1.0000
  0
VERTEX
  8
16
 10
52.8910
 20
102.4210
 30
0.0000
  0
VERTEX
  8
16
 10
55.4310
 20
99.8810
 30
0.0000
 42
1.0000
  0
SEQEND
  8
0
  0
POLYLINE
  8
16
 66
1
 10
0.0000
 20
0.0000
 30
0.0000
 40
0.0000
 41
0.0000
 70
1
  0
VERTEX
  8
16
 10
53.9750
 20
102.8700
 30
0.0000
  0
VERTEX
  8
16
 10
53.9750
 20
106.8578
 30
0.0000
 42
1.0000
  0
VERTEX
  8
16
 10
52.7050
 20
106.8578
 30
0.0000
  0
VERTEX
  8
16
 10
52.7050
 20
102.8700
 30
0.0000
 42
1.0000
  0
SEQEND
  8
0
  0
POLYLINE
  8
16
 66
1
 10
0.0000
 20
0.0000
 30
0.0000
 40
0.0000
 41
0.0000
 70
1
  0
VERTEX
  8
16
 10
48.2600
 20
67.9450
 30
0.0000
  0
VERTEX
  8
16
 10
50.8000
 20
67.9450
 30
0.0000
 42
1.0000
  0
VERTEX
  8
16
 10
50.8000
 20
69.2150
 30
0.0000
  0
VERTEX
  8
16
 10
48.2600
 20
69.2150
 30
0.0000
 42
1.0000
  0
SEQEND
  8
0
  0
POLYLINE
  8
16
 66
1
 10
0.0000
 20
0.0000
 30
0.0000
 40
0.0000
 41
0.0000
 70
1
  0
VERTEX
  8
16
 10
50.8000
 20
67.9450
 30
0.0000
  0
VERTEX
  8
16
 10
53.3400
 20
67.9450
 30
0.0000
 42
1.0000
  0
VERTEX
  8
16
 10
53.3400
 20
69.2150
 30
0.0000
  0
VERTEX
  8
16
 10
50.8000
 20
69.2150
 30
0.0000
 42
1.0000
  0
SEQEND
  8
0
  0
POLYLINE
  8
16
 66
1
 10
0.0000
 20
0.0000
 30
0.0000
 40
0.0000
 41
0.0000
 70
1
  0
VERTEX
  8
16
 10
53.3400
 20
67.9450
 30
0.0000
  0
VERTEX
  8
16
 10
55.8800
 20
67.9450
 30
0.0000
 42
1.0000
  0
VERTEX
  8
16
 10
55.8800
 20
69.2150
 30
0.0000
  0
VERTEX
  8
16
 10
53.3400
 20
69.2150
 30
0.0000
 42
1.0000
  0
SEQEND
  8
0
  0
LINE
  8
19
 10
55.8800
 20
68.5800
 30
0.0000
 11
58.1660
 21
85.3440
 31
0.0000
  0
LINE
  8
19
 10
21.5900
 20
62.1030
 30
0.0000
 11
48.2600
 21
68.5800
 31
0.0000
  0
LINE
  8
19
 10
39.3700
 20
31.7500
 30
0.0000
 11
21.5900
 21
33.0200
 31
0.0000
  0
LINE
  8
19
 10
63.5000
 20
38.1000
 30
0.0000
 11
49.5300
 21
38.1000
 31
0.0000
  0
POLYLINE
  8
16
 66
1
 10
0.0000
 20
0.0000
 30
0.0000
 40
0.0000
 41
0.0000
 70
1
  0
VERTEX
  8
16
 10
11.4300
 20
60.3250
 30
0.0000
  0
VERTEX
  8
16
 10
16.5100
 20
60.3250
 30
0.0000
 42
1.0000
  0
VERTEX
  8
16
 10
16.5100
 20
61.5950
 30
0.0000
  0
VERTEX
  8
16
 10
11.4300
 20
61.5950
 30
0.0000
 42
1.0000
  0
SEQEND
  8
0
  0
POLYLINE
  8
16
 66
1
 10
0.0000
 20
0.0000
 30
0.0000
 40
0.0000
 41
0.0000
 70
1
  0
VERTEX
  8
16
 10
11.4300
 20
57.7850
 30
0.0000
  0
VERTEX
  8
16
 10
16.5100
 20
57.7850
 30
0.0000
 42
1.0000
  0
VERTEX
  8
16
 10
16.5100
 20
59.0550
 30
0.0000
  0
VERTEX
  8
16
 10
11.4300
 20
59.0550
 30
0.0000
 42
1.0000
  0
SEQEND
  8
0
  0
POLYLINE
  8
16
 66
1
 10
0.0000
 20
0.0000
 30
0.0000
 40
0.0000
 41
0.0000
 70
1
  0
VERTEX
  8
16
 10
11.4300
 20
55.2450
 30
0.0000
  0
VERTEX
  8
16
 10
16.5100
 20
55.2450
 30
0.0000
 42
1.0000
  0
VERTEX
  8
16
 10
16.5100
 20
56.5150
 30
0.0000
  0
VERTEX
  8
16
 10
11.4300
 20
56.5150
 30
0.0000
 42
1.0000
  0
SEQEND
  8
0
  0
POLYLINE
  8
16
 66
1
 10
0.0000
 20
0.0000
 30
0.0000
 40
0.0000
 41
0.0000
 70
1
  0
VERTEX
  8
16
 10
11.4300
 20
52.7050
 30
0.0000
  0
VERTEX
  8
16
 10
16.5100
 20
52.7050
 30
0.0000
 42
1.0000
  0
VERTEX
  8
16
 10
16.5100
 20
53.9750
 30
0.0000
  0
VERTEX
  8
16
 10
11.4300
 20
53.9750
 30
0.0000
 42
1.0000
  0
SEQEND
  8
0
  0
POLYLINE
  8
16
 66
1
 10
0.0000
 20
0.0000
 30
0.0000
 40
0.0000
 41
0.0000
 70
1
  0
VERTEX
  8
16
 10
11.4300
 20
50.1650
 30
0.0000
  0
VERTEX
  8
16
 10
16.5100
 20
50.1650
 30
0.0000
 42
1.0000
  0
VERTEX
  8
16
 10
16.5100
 20
51.4350
 30
0.0000
  0
VERTEX
  8
16
 10
11.4300
 20
51.4350
 30
0.0000
 42
1.0000
  0
SEQEND
  8
0
  0
POLYLINE
  8
16
 66
1
 10
0.0000
 20
0.0000
 30
0.0000
 40
0.0000
 41
0.0000
 70
1
  0
VERTEX
  8
16
 10
11.4300
 20
47.6250
 30
0.0000
  0
VERTEX
  8
16
 10
14.4524
 20
47.6250
 30
0.0000
 42
1.0000
  0
VERTEX
  8
16
 10
14.4524
 20
48.8950
 30
0.0000
  0
VERTEX
  8
16
 10
11.4300
 20
48.8950
 30
0.0000
 42
1.0000
  0
SEQEND
  8
0
  0
LINE
  8
19
 10
14.4524
 20
48.2600
 30
0.0000
 11
16.5100
 21
48.2600
 31
0.0000
  0
POLYLINE
  8
16
 66
1
 10
0.0000
 20
0.0000
 30
0.0000
 40
0.0000
 41
0.0000
 70
1
  0
VERTEX
  8
16
 10
16.5100
 20
46.3550
 30
0.0000
  0
VERTEX
  8
16
 10
11.4300
 20
46.3550
 30
0.0000
 42
1.0000
  0
VERTEX
  8
16
 10
11.4300
 20
45.0850
 30
0.0000
  0
VERTEX
  8
16
 10
16.5100
 20
45.0850
 30
0.0000
 42
1.0000
  0
SEQEND
  8
0
  0
POLYLINE
  8
16
 66
1
 10
0.0000
 20
0.0000
 30
0.0000
 40
0.0000
 41
0.0000
 70
1
  0
VERTEX
  8
16
 10
16.5100
 20
43.8150
 30
0.0000
  0
VERTEX
  8
16
 10
11.4300
 20
43.8150
 30
0.0000
 42
1.0000
  0
VERTEX
  8
16
 10
11.4300
 20
42.5450
 30
0.0000
  0
VERTEX
  8
16
 10
16.5100
 20
42.5450
 30
0.0000
 42
1.0000
  0
SEQEND
  8
0
  0
POLYLINE
  8
16
 66
1
 10
0.0000
 20
0.0000
 30
0.0000
 40
0.0000
 41
0.0000
 70
1
  0
VERTEX
  8
16
 10
11.4300
 20
37.4650
 30
0.0000
  0
VERTEX
  8
16
 10
12.7000
 20
37.4650
 30
0.0000
 42
1.0000
  0
VERTEX
  8
16
 10
12.7000
 20
38.7350
 30
0.0000
  0
VERTEX
  8
16
 10
11.4300
 20
38.7350
 30
0.0000
 42
1.0000
  0
SEQEND
  8
0
  0
POLYLINE
  8
16
 66
1
 10
0.0000
 20
0.0000
 30
0.0000
 40
0.0000
 41
0.0000
 70
1
  0
VERTEX
  8
16
 10
13.1490
 20
37.6510
 30
0.0000
  0
VERTEX
  8
16
 10
15.6890
 20
40.1910
 30
0.0000
 42
1.0000
  0
VERTEX
  8
16
 10
14.7910
 20
41.0890
 30
0.0000
  0
VERTEX
  8
16
 10
12.2510
 20
38.5490
 30
0.0000
 42
1.0000
  0
SEQEND
  8
0
  0
POLYLINE
  8
16
 66
1
 10
0.0000
 20
0.0000
 30
0.0000
 40
0.0000
 41
0.0000
 70
1
  0
VERTEX
  8
16
 10
15.2400
 20
40.0050
 30
0.0000
  0
VERTEX
  8
16
 10
16.5100
 20
40.0050
 30
0.0000
 42
1.0000
  0
VERTEX
  8
16
 10
16.5100
 20
41.2750
 30
0.0000
  0
VERTEX
  8
16
 10
15.2400
 20
41.2750
 30
0.0000
 42
1.0000
  0
SEQEND
  8
0
  0
POLYLINE
  8
16
 66
1
 10
0.0000
 20
0.0000
 30
0.0000
 40
0.0000
 41
0.0000
 70
1
  0
VERTEX
  8
16
 10
11.4300
 20
34.9250
 30
0.0000
  0
VERTEX
  8
16
 10
12.7000
 20
34.9250
 30
0.0000
 42
1.0000
  0
VERTEX
  8
16
 10
12.7000
 20
36.1950
 30
0.0000
  0
VERTEX
  8
16
 10
11.4300
 20
36.1950
 30
0.0000
 42
1.0000
  0
SEQEND
  8
0
  0
POLYLINE
  8
16
 66
1
 10
0.0000
 20
0.0000
 30
0.0000
 40
0.0000
 41
0.0000
 70
1
  0
VERTEX
  8
16
 10
13.1490
 20
35.1110
 30
0.0000
  0
VERTEX
  8
16
 10
15.6890
 20
37.6510
 30
0.0000
 42
1.0000
  0
VERTEX
  8
16
 10
14.7910
 20
38.5490
 30
0.0000
  0
VERTEX
  8
16
 10
12.2510
 20
36.0090
 30
0.0000
 42
1.0000
  0
SEQEND
  8
0
  0
POLYLINE
  8
16
 66
1
 10
0.0000
 20
0.0000
 30
0.0000
 40
0.0000
 41
0.0000
 70
1
  0
VERTEX
  8
16
 10
15.2400
 20
37.4650
 30
0.0000
  0
VERTEX
  8
16
 10
16.5100
 20
37.4650
 30
0.0000
 42
1.0000
  0
VERTEX
  8
16
 10
16.5100
 20
38.7350
 30
0.0000
  0
VERTEX
  8
16
 10
15.2400
 20
38.7350
 30
0.0000
 42
1.0000
  0
SEQEND
  8
0
  0
POLYLINE
  8
16
 66
1
 10
0.0000
 20
0.0000
 30
0.0000
 40
0.0000
 41
0.0000
 70
1
  0
VERTEX
  8
16
 10
11.4300
 20
32.3850
 30
0.0000
  0
VERTEX
  8
16
 10
12.7000
 20
32.3850
 30
0.0000
 42
1.0000
  0
VERTEX
  8
16
 10
12.7000
 20
33.6550
 30
0.0000
  0
VERTEX
  8
16
 10
11.4300
 20
33.6550
 30
0.0000
 42
1.0000
  0
SEQEND
  8
0
  0
POLYLINE
  8
16
 66
1
 10
0.0000
 20
0.0000
 30
0.0000
 40
0.0000
 41
0.0000
 70
1
  0
VERTEX
  8
16
 10
13.1490
 20
32.5710
 30
0.0000
  0
VERTEX
  8
16
 10
15.6890
 20
35.1110
 30
0.0000
 42
1.0000
  0
VERTEX
  8
16
 10
14.7910
 20
36.0090
 30
0.0000
  0
VERTEX
  8
16
 10
12.2510
 20
33.4690
 30
0.0000
 42
1.0000
  0
SEQEND
  8
0
  0
POLYLINE
  8
16
 66
1
 10
0.0000
 20
0.0000
 30
0.0000
 40
0.0000
 41
0.0000
 70
1
  0
VERTEX
  8
16
 10
15.2400
 20
34.9250
 30
0.0000
  0
VERTEX
  8
16
 10
16.5100
 20
34.9250
 30
0.0000
 42
1.0000
  0
VERTEX
  8
16
 10
16.5100
 20
36.1950
 30
0.0000
  0
VERTEX
  8
16
 10
15.2400
 20
36.1950
 30
0.0000
 42
1.0000
  0
SEQEND
  8
0
  0
POLYLINE
  8
16
 66
1
 10
0.0000
 20
0.0000
 30
0.0000
 40
0.0000
 41
0.0000
 70
1
  0
VERTEX
  8
16
 10
11.4300
 20
29.8450
 30
0.0000
  0
VERTEX
  8
16
 10
12.7000
 20
29.8450
 30
0.0000
 42
1.0000
  0
VERTEX
  8
16
 10
12.7000
 20
31.1150
 30
0.0000
  0
VERTEX
  8
16
 10
11.4300
 20
31.1150
 30
0.0000
 42
1.0000
  0
SEQEND
  8
0
  0
POLYLINE
  8
16
 66
1
 10
0.0000
 20
0.0000
 30
0.0000
 40
0.0000
 41
0.0000
 70
1
  0
VERTEX
  8
16
 10
13.1490
 20
30.0310
 30
0.0000
  0
VERTEX
  8
16
 10
15.6890
 20
32.5710
 30
0.0000
 42
1.0000
  0
VERTEX
  8
16
 10
14.7910
 20
33.4690
 30
0.0000
  0
VERTEX
  8
16
 10
12.2510
 20
30.9290
 30
0.0000
 42
1.0000
  0
SEQEND
  8
0
  0
POLYLINE
  8
16
 66
1
 10
0.0000
 20
0.0000
 30
0.0000
 40
0.0000
 41
0.0000
 70
1
  0
VERTEX
  8
16
 10
15.2400
 20
32.3850
 30
0.0000
  0
VERTEX
  8
16
 10
16.5100
 20
32.3850
 30
0.0000
 42
1.0000
  0
VERTEX
  8
16
 10
16.5100
 20
33.6550
 30
0.0000
  0
VERTEX
  8
16
 10
15.2400
 20
33.6550
 30
0.0000
 42
1.0000
  0
SEQEND
  8
0
  0
POLYLINE
  8
16
 66
1
 10
0.0000
 20
0.0000
 30
0.0000
 40
0.0000
 41
0.0000
 70
1
  0
VERTEX
  8
16
 10
11.4300
 20
27.3050
 30
0.0000
  0
VERTEX
  8
16
 10
12.7000
 20
27.3050
 30
0.0000
 42
1.0000
  0
VERTEX
  8
16
 10
12.7000
 20
28.5750
 30
0.0000
  0
VERTEX
  8
16
 10
11.4300
 20
28.5750
 30
0.0000
 42
1.0000
  0
SEQEND
  8
0
  0
POLYLINE
  8
16
 66
1
 10
0.0000
 20
0.0000
 30
0.0000
 40
0.0000
 41
0.0000
 70
1
  0
VERTEX
  8
16
 10
13.1490
 20
27.4910
 30
0.0000
  0
VERTEX
  8
16
 10
15.6890
 20
30.0310
 30
0.0000
 42
1.0000
  0
VERTEX
  8
16
 10
14.7910
 20
30.9290
 30
0.0000
  0
VERTEX
  8
16
 10
12.2510
 20
28.3890
 30
0.0000
 42
1.0000
  0
SEQEND
  8
0
  0
POLYLINE
  8
16
 66
1
 10
0.0000
 20
0.0000
 30
0.0000
 40
0.0000
 41
0.0000
 70
1
  0
VERTEX
  8
16
 10
15.2400
 20
29.8450
 30
0.0000
  0
VERTEX
  8
16
 10
16.5100
 20
29.8450
 30
0.0000
 42
1.0000
  0
VERTEX
  8
16
 10
16.5100
 20
31.1150
 30
0.0000
  0
VERTEX
  8
16
 10
15.2400
 20
31.1150
 30
0.0000
 42
1.0000
  0
SEQEND
  8
0
  0
POLYLINE
  8
16
 66
1
 10
0.0000
 20
0.0000
 30
0.0000
 40
0.0000
 41
0.0000
 70
1
  0
VERTEX
  8
16
 10
22.8600
 20
27.3050
 30
0.0000
  0
VERTEX
  8
16
 10
26.6700
 20
27.3050
 30
0.0000
 42
1.0000
  0
VERTEX
  8
16
 10
26.6700
 20
28.5750
 30
0.0000
  0
VERTEX
  8
16
 10
22.8600
 20
28.5750
 30
0.0000
 42
1.0000
  0
SEQEND
  8
0
  0
POLYLINE
  8
16
 66
1
 10
0.0000
 20
0.0000
 30
0.0000
 40
0.0000
 41
0.0000
 70
1
  0
VERTEX
  8
16
 10
22.4110
 20
28.3890
 30
0.0000
  0
VERTEX
  8
16
 10
18.6010
 20
24.5790
 30
0.0000
 42
1.0000
  0
VERTEX
  8
16
 10
19.4990
 20
23.6810
 30
0.0000
  0
VERTEX
  8
16
 10
23.3090
 20
27.4910
 30
0.0000
 42
1.0000
  0
SEQEND
  8
0
  0
POLYLINE
  8
16
 66
1
 10
0.0000
 20
0.0000
 30
0.0000
 40
0.0000
 41
0.0000
 70
1
  0
VERTEX
  8
16
 10
18.4150
 20
24.1300
 30
0.0000
  0
VERTEX
  8
16
 10
18.4150
 20
17.7800
 30
0.0000
 42
1.0000
  0
VERTEX
  8
16
 10
19.6850
 20
17.7800
 30
0.0000
  0
VERTEX
  8
16
 10
19.6850
 20
24.1300
 30
0.0000
 42
1.0000
  0
SEQEND
  8
0
  0
POLYLINE
  8
16
 66
1
 10
0.0000
 20
0.0000
 30
0.0000
 40
0.0000
 41
0.0000
 70
1
  0
VERTEX
  8
16
 10
27.3050
 20
27.9400
 30
0.0000
  0
VERTEX
  8
16
 10
27.3050
 20
29.2100
 30
0.0000
 42
1.0000
  0
VERTEX
  8
16
 10
26.0350
 20
29.2100
 30
0.0000
  0
VERTEX
  8
16
 10
26.0350
 20
27.9400
 30
0.0000
 42
1.0000
  0
SEQEND
  8
0
  0
POLYLINE
  8
16
 66
1
 10
0.0000
 20
0.0000
 30
0.0000
 40
0.0000
 41
0.0000
 70
1
  0
VERTEX
  8
16
 10
27.1190
 20
29.6590
 30
0.0000
  0
VERTEX
  8
16
 10
24.5790
 20
32.1990
 30
0.0000
 42
1.0000
  0
VERTEX
  8
16
 10
23.6810
 20
31.3010
 30
0.0000
  0
VERTEX
  8
16
 10
26.2210
 20
28.7610
 30
0.0000
 42
1.0000
  0
SEQEND
  8
0
  0
POLYLINE
  8
16
 66
1
 10
0.0000
 20
0.0000
 30
0.0000
 40
0.0000
 41
0.0000
 70
1
  0
VERTEX
  8
16
 10
24.7650
 20
31.7500
 30
0.0000
  0
VERTEX
  8
16
 10
24.7650
 20
33.0200
 30
0.0000
 42
1.0000
  0
VERTEX
  8
16
 10
23.4950
 20
33.0200
 30
0.0000
  0
VERTEX
  8
16
 10
23.4950
 20
31.7500
 30
0.0000
 42
1.0000
  0
SEQEND
  8
0
  0
POLYLINE
  8
16
 66
1
 10
0.0000
 20
0.0000
 30
0.0000
 40
0.0000
 41
0.0000
 70
1
  0
VERTEX
  8
16
 10
24.1300
 20
24.7650
 30
0.0000
  0
VERTEX
  8
16
 10
26.6700
 20
24.7650
 30
0.0000
 42
1.0000
  0
VERTEX
  8
16
 10
26.6700
 20
26.0350
 30
0.0000
  0
VERTEX
  8
16
 10
24.1300
 20
26.0350
 30
0.0000
 42
1.0000
  0
SEQEND
  8
0
  0
POLYLINE
  8
16
 66
1
 10
0.0000
 20
0.0000
 30
0.0000
 40
0.0000
 41
0.0000
 70
1
  0
VERTEX
  8
16
 10
23.6810
 20
25.8490
 30
0.0000
  0
VERTEX
  8
16
 10
21.1410
 20
23.3090
 30
0.0000
 42
1.0000
  0
VERTEX
  8
16
 10
22.0390
 20
22.4110
 30
0.0000
  0
VERTEX
  8
16
 10
24.5790
 20
24.9510
 30
0.0000
 42
1.0000
  0
SEQEND
  8
0
  0
POLYLINE
  8
16
 66
1
 10
0.0000
 20
0.0000
 30
0.0000
 40
0.0000
 41
0.0000
 70
1
  0
VERTEX
  8
16
 10
20.9550
 20
22.8600
 30
0.0000
  0
VERTEX
  8
16
 10
20.9550
 20
17.7800
 30
0.0000
 42
1.0000
  0
VERTEX
  8
16
 10
22.2250
 20
17.7800
 30
0.0000
  0
VERTEX
  8
16
 10
22.2250
 20
22.8600
 30
0.0000
 42
1.0000
  0
SEQEND
  8
0
  0
POLYLINE
  8
16
 66
1
 10
0.0000
 20
0.0000
 30
0.0000
 40
0.0000
 41
0.0000
 70
1
  0
VERTEX
  8
16
 10
26.6700
 20
24.7650
 30
0.0000
  0
VERTEX
  8
16
 10
27.9400
 20
24.7650
 30
0.0000
 42
1.0000
  0
VERTEX
  8
16
 10
27.9400
 20
26.0350
 30
0.0000
  0
VERTEX
  8
16
 10
26.6700
 20
26.0350
 30
0.0000
 42
1.0000
  0
SEQEND
  8
0
  0
POLYLINE
  8
16
 66
1
 10
0.0000
 20
0.0000
 30
0.0000
 40
0.0000
 41
0.0000
 70
1
  0
VERTEX
  8
16
 10
28.3890
 20
24.9510
 30
0.0000
  0
VERTEX
  8
16
 10
29.6590
 20
26.2210
 30
0.0000
 42
1.0000
  0
VERTEX
  8
16
 10
28.7610
 20
27.1190
 30
0.0000
  0
VERTEX
  8
16
 10
27.4910
 20
25.8490
 30
0.0000
 42
1.0000
  0
SEQEND
  8
0
  0
POLYLINE
  8
16
 66
1
 10
0.0000
 20
0.0000
 30
0.0000
 40
0.0000
 41
0.0000
 70
1
  0
VERTEX
  8
16
 10
29.8450
 20
26.6700
 30
0.0000
  0
VERTEX
  8
16
 10
29.8450
 20
38.1000
 30
0.0000
 42
1.0000
  0
VERTEX
  8
16
 10
28.5750
 20
38.1000
 30
0.0000
  0
VERTEX
  8
16
 10
28.5750
 20
26.6700
 30
0.0000
 42
1.0000
  0
SEQEND
  8
0
  0
POLYLINE
  8
16
 66
1
 10
0.0000
 20
0.0000
 30
0.0000
 40
0.0000
 41
0.0000
 70
1
  0
VERTEX
  8
16
 10
25.4000
 20
22.2250
 30
0.0000
  0
VERTEX
  8
16
 10
26.6700
 20
22.2250
 30
0.0000
 42
1.0000
  0
VERTEX
  8
16
 10
26.6700
 20
23.4950
 30
0.0000
  0
VERTEX
  8
16
 10
25.4000
 20
23.4950
 30
0.0000
 42
1.0000
  0
SEQEND
  8
0
  0
POLYLINE
  8
16
 66
1
 10
0.0000
 20
0.0000
 30
0.0000
 40
0.0000
 41
0.0000
 70
1
  0
VERTEX
  8
16
 10
24.9510
 20
23.3090
 30
0.0000
  0
VERTEX
  8
16
 10
23.6810
 20
22.0390
 30
0.0000
 42
1.0000
  0
VERTEX
  8
16
 10
24.5790
 20
21.1410
 30
0.0000
  0
VERTEX
  8
16
 10
25.8490
 20
22.4110
 30
0.0000
 42
1.0000
  0
SEQEND
  8
0
  0
POLYLINE
  8
16
 66
1
 10
0.0000
 20
0.0000
 30
0.0000
 40
0.0000
 41
0.0000
 70
1
  0
VERTEX
  8
16
 10
23.4950
 20
21.5900
 30
0.0000
  0
VERTEX
  8
16
 10
23.4950
 20
17.7800
 30
0.0000
 42
1.0000
  0
VERTEX
  8
16
 10
24.7650
 20
17.7800
 30
0.0000
  0
VERTEX
  8
16
 10
24.7650
 20
21.5900
 30
0.0000
 42
1.0000
  0
SEQEND
  8
0
  0
POLYLINE
  8
16
 66
1
 10
0.0000
 20
0.0000
 30
0.0000
 40
0.0000
 41
0.0000
 70
1
  0
VERTEX
  8
16
 10
26.6700
 20
22.2250
 30
0.0000
  0
VERTEX
  8
16
 10
29.2100
 20
22.2250
 30
0.0000
 42
1.0000
  0
VERTEX
  8
16
 10
29.2100
 20
23.4950
 30
0.0000
  0
VERTEX
  8
16
 10
26.6700
 20
23.4950
 30
0.0000
 42
1.0000
  0
SEQEND
  8
0
  0
POLYLINE
  8
16
 66
1
 10
0.0000
 20
0.0000
 30
0.0000
 40
0.0000
 41
0.0000
 70
1
  0
VERTEX
  8
16
 10
29.6590
 20
22.4110
 30
0.0000
  0
VERTEX
  8
16
 10
32.1990
 20
24.9510
 30
0.0000
 42
1.0000
  0
VERTEX
  8
16
 10
31.3010
 20
25.8490
 30
0.0000
  0
VERTEX
  8
16
 10
28.7610
 20
23.3090
 30
0.0000
 42
1.0000
  0
SEQEND
  8
0
  0
POLYLINE
  8
16
 66
1
 10
0.0000
 20
0.0000
 30
0.0000
 40
0.0000
 41
0.0000
 70
1
  0
VERTEX
  8
16
 10
32.3850
 20
25.4000
 30
0.0000
  0
VERTEX
  8
16
 10
32.3850
 20
39.3700
 30
0.0000
 42
1.0000
  0
VERTEX
  8
16
 10
31.1150
 20
39.3700
 30
0.0000
  0
VERTEX
  8
16
 10
31.1150
 20
25.4000
 30
0.0000
 42
1.0000
  0
SEQEND
  8
0
  0
POLYLINE
  8
16
 66
1
 10
0.0000
 20
0.0000
 30
0.0000
 40
0.0000
 41
0.0000
 70
1
  0
VERTEX
  8
16
 10
32.1990
 20
39.8190
 30
0.0000
  0
VERTEX
  8
16
 10
29.6590
 20
42.3590
 30
0.0000
 42
1.0000
  0
VERTEX
  8
16
 10
28.7610
 20
41.4610
 30
0.0000
  0
VERTEX
  8
16
 10
31.3010
 20
38.9210
 30
0.0000
 42
1.0000
  0
SEQEND
  8
0
  0
POLYLINE
  8
16
 66
1
 10
0.0000
 20
0.0000
 30
0.0000
 40
0.0000
 41
0.0000
 70
1
  0
VERTEX
  8
16
 10
29.8450
 20
41.9100
 30
0.0000
  0
VERTEX
  8
16
 10
29.8450
 20
46.9900
 30
0.0000
 42
1.0000
  0
VERTEX
  8
16
 10
28.5750
 20
46.9900
 30
0.0000
  0
VERTEX
  8
16
 10
28.5750
 20
41.9100
 30
0.0000
 42
1.0000
  0
SEQEND
  8
0
  0
POLYLINE
  8
16
 66
1
 10
0.0000
 20
0.0000
 30
0.0000
 40
0.0000
 41
0.0000
 70
1
  0
VERTEX
  8
16
 10
27.3050
 20
17.7800
 30
0.0000
  0
VERTEX
  8
16
 10
27.3050
 20
20.3200
 30
0.0000
 42
1.0000
  0
VERTEX
  8
16
 10
26.0350
 20
20.3200
 30
0.0000
  0
VERTEX
  8
16
 10
26.0350
 20
17.7800
 30
0.0000
 42
1.0000
  0
SEQEND
  8
0
  0
POLYLINE
  8
16
 66
1
 10
0.0000
 20
0.0000
 30
0.0000
 40
0.0000
 41
0.0000
 70
1
  0
VERTEX
  8
16
 10
26.6700
 20
19.6850
 30
0.0000
  0
VERTEX
  8
16
 10
30.4800
 20
19.6850
 30
0.0000
 42
1.0000
  0
VERTEX
  8
16
 10
30.4800
 20
20.9550
 30
0.0000
  0
VERTEX
  8
16
 10
26.6700
 20
20.9550
 30
0.0000
 42
1.0000
  0
SEQEND
  8
0
  0
POLYLINE
  8
16
 66
1
 10
0.0000
 20
0.0000
 30
0.0000
 40
0.0000
 41
0.0000
 70
1
  0
VERTEX
  8
16
 10
30.9290
 20
19.8710
 30
0.0000
  0
VERTEX
  8
16
 10
34.7390
 20
23.6810
 30
0.0000
 42
1.0000
  0
VERTEX
  8
16
 10
33.8410
 20
24.5790
 30
0.0000
  0
VERTEX
  8
16
 10
30.0310
 20
20.7690
 30
0.0000
 42
1.0000
  0
SEQEND
  8
0
  0
POLYLINE
  8
16
 66
1
 10
0.0000
 20
0.0000
 30
0.0000
 40
0.0000
 41
0.0000
 70
1
  0
VERTEX
  8
16
 10
34.9250
 20
24.1300
 30
0.0000
  0
VERTEX
  8
16
 10
34.9250
 20
40.6400
 30
0.0000
 42
1.0000
  0
VERTEX
  8
16
 10
33.6550
 20
40.6400
 30
0.0000
  0
VERTEX
  8
16
 10
33.6550
 20
24.1300
 30
0.0000
 42
1.0000
  0
SEQEND
  8
0
  0
POLYLINE
  8
16
 66
1
 10
0.0000
 20
0.0000
 30
0.0000
 40
0.0000
 41
0.0000
 70
1
  0
VERTEX
  8
16
 10
34.7390
 20
41.0890
 30
0.0000
  0
VERTEX
  8
16
 10
32.1990
 20
43.6290
 30
0.0000
 42
1.0000
  0
VERTEX
  8
16
 10
31.3010
 20
42.7310
 30
0.0000
  0
VERTEX
  8
16
 10
33.8410
 20
40.1910
 30
0.0000
 42
1.0000
  0
SEQEND
  8
0
  0
POLYLINE
  8
16
 66
1
 10
0.0000
 20
0.0000
 30
0.0000
 40
0.0000
 41
0.0000
 70
1
  0
VERTEX
  8
16
 10
32.3850
 20
43.1800
 30
0.0000
  0
VERTEX
  8
16
 10
32.3850
 20
48.2600
 30
0.0000
 42
1.0000
  0
VERTEX
  8
16
 10
31.1150
 20
48.2600
 30
0.0000
  0
VERTEX
  8
16
 10
31.1150
 20
43.1800
 30
0.0000
 42
1.0000
  0
SEQEND
  8
0
  0
POLYLINE
  8
16
 66
1
 10
0.0000
 20
0.0000
 30
0.0000
 40
0.0000
 41
0.0000
 70
1
  0
VERTEX
  8
16
 10
32.1990
 20
48.7090
 30
0.0000
  0
VERTEX
  8
16
 10
29.6590
 20
51.2490
 30
0.0000
 42
1.0000
  0
VERTEX
  8
16
 10
28.7610
 20
50.3510
 30
0.0000
  0
VERTEX
  8
16
 10
31.3010
 20
47.8110
 30
0.0000
 42
1.0000
  0
SEQEND
  8
0
  0
POLYLINE
  8
16
 66
1
 10
0.0000
 20
0.0000
 30
0.0000
 40
0.0000
 41
0.0000
 70
1
  0
VERTEX
  8
16
 10
29.8450
 20
50.8000
 30
0.0000
  0
VERTEX
  8
16
 10
29.8450
 20
55.8800
 30
0.0000
 42
1.0000
  0
VERTEX
  8
16
 10
28.5750
 20
55.8800
 30
0.0000
  0
VERTEX
  8
16
 10
28.5750
 20
50.8000
 30
0.0000
 42
1.0000
  0
SEQEND
  8
0
  0
POLYLINE
  8
16
 66
1
 10
0.0000
 20
0.0000
 30
0.0000
 40
0.0000
 41
0.0000
 70
1
  0
VERTEX
  8
16
 10
59.6900
 20
28.5750
 30
0.0000
  0
VERTEX
  8
16
 10
55.8800
 20
28.5750
 30
0.0000
 42
1.0000
  0
VERTEX
  8
16
 10
55.8800
 20
27.3050
 30
0.0000
  0
VERTEX
  8
16
 10
59.6900
 20
27.3050
 30
0.0000
 42
1.0000
  0
SEQEND
  8
0
  0
POLYLINE
  8
16
 66
1
 10
0.0000
 20
0.0000
 30
0.0000
 40
0.0000
 41
0.0000
 70
1
  0
VERTEX
  8
16
 10
49.5300
 20
27.3050
 30
0.0000
  0
VERTEX
  8
16
 10
55.8800
 20
27.3050
 30
0.0000
 42
1.0000
  0
VERTEX
  8
16
 10
55.8800
 20
28.5750
 30
0.0000
  0
VERTEX
  8
16
 10
49.5300
 20
28.5750
 30
0.0000
 42
1.0000
  0
SEQEND
  8
0
  0
POLYLINE
  8
16
 66
1
 10
0.0000
 20
0.0000
 30
0.0000
 40
0.0000
 41
0.0000
 70
1
  0
VERTEX
  8
16
 10
49.5300
 20
28.5750
 30
0.0000
  0
VERTEX
  8
16
 10
46.9900
 20
28.5750
 30
0.0000
 42
1.0000
  0
VERTEX
  8
16
 10
46.9900
 20
27.3050
 30
0.0000
  0
VERTEX
  8
16
 10
49.5300
 20
27.3050
 30
0.0000
 42
1.0000
  0
SEQEND
  8
0
  0
POLYLINE
  8
16
 66
1
 10
0.0000
 20
0.0000
 30
0.0000
 40
0.0000
 41
0.0000
 70
1
  0
VERTEX
  8
16
 10
46.5410
 20
28.3890
 30
0.0000
  0
VERTEX
  8
16
 10
44.0010
 20
25.8490
 30
0.0000
 42
1.0000
  0
VERTEX
  8
16
 10
44.8990
 20
24.9510
 30
0.0000
  0
VERTEX
  8
16
 10
47.4390
 20
27.4910
 30
0.0000
 42
1.0000
  0
SEQEND
  8
0
  0
POLYLINE
  8
16
 66
1
 10
0.0000
 20
0.0000
 30
0.0000
 40
0.0000
 41
0.0000
 70
1
  0
VERTEX
  8
16
 10
44.4500
 20
26.0350
 30
0.0000
  0
VERTEX
  8
16
 10
43.1800
 20
26.0350
 30
0.0000
 42
1.0000
  0
VERTEX
  8
16
 10
43.1800
 20
24.7650
 30
0.0000
  0
VERTEX
  8
16
 10
44.4500
 20
24.7650
 30
0.0000
 42
1.0000
  0
SEQEND
  8
0
  0
POLYLINE
  8
16
 66
1
 10
0.0000
 20
0.0000
 30
0.0000
 40
0.0000
 41
0.0000
 70
1
  0
VERTEX
  8
16
 10
59.6900
 20
26.0350
 30
0.0000
  0
VERTEX
  8
16
 10
53.3400
 20
26.0350
 30
0.0000
 42
1.0000
  0
VERTEX
  8
16
 10
53.3400
 20
24.7650
 30
0.0000
  0
VERTEX
  8
16
 10
59.6900
 20
24.7650
 30
0.0000
 42
1.0000
  0
SEQEND
  8
0
  0
POLYLINE
  8
16
 66
1
 10
0.0000
 20
0.0000
 30
0.0000
 40
0.0000
 41
0.0000
 70
1
  0
VERTEX
  8
16
 10
49.5300
 20
24.7650
 30
0.0000
  0
VERTEX
  8
16
 10
53.3400
 20
24.7650
 30
0.0000
 42
1.0000
  0
VERTEX
  8
16
 10
53.3400
 20
26.0350
 30
0.0000
  0
VERTEX
  8
16
 10
49.5300
 20
26.0350
 30
0.0000
 42
1.0000
  0
SEQEND
  8
0
  0
POLYLINE
  8
16
 66
1
 10
0.0000
 20
0.0000
 30
0.0000
 40
0.0000
 41
0.0000
 70
1
  0
VERTEX
  8
16
 10
43.1800
 20
28.5750
 30
0.0000
  0
VERTEX
  8
16
 10
40.6400
 20
28.5750
 30
0.0000
 42
1.0000
  0
VERTEX
  8
16
 10
40.6400
 20
27.3050
 30
0.0000
  0
VERTEX
  8
16
 10
43.1800
 20
27.3050
 30
0.0000
 42
1.0000
  0
SEQEND
  8
0
  0
POLYLINE
  8
16
 66
1
 10
0.0000
 20
0.0000
 30
0.0000
 40
0.0000
 41
0.0000
 70
1
  0
VERTEX
  8
16
 10
40.1910
 20
28.3890
 30
0.0000
  0
VERTEX
  8
16
 10
38.9210
 20
27.1190
 30
0.0000
 42
1.0000
  0
VERTEX
  8
16
 10
39.8190
 20
26.2210
 30
0.0000
  0
VERTEX
  8
16
 10
41.0890
 20
27.4910
 30
0.0000
 42
1.0000
  0
SEQEND
  8
0
  0
POLYLINE
  8
16
 66
1
 10
0.0000
 20
0.0000
 30
0.0000
 40
0.0000
 41
0.0000
 70
1
  0
VERTEX
  8
16
 10
38.7350
 20
26.6700
 30
0.0000
  0
VERTEX
  8
16
 10
38.7350
 20
24.1300
 30
0.0000
 42
1.0000
  0
VERTEX
  8
16
 10
40.0050
 20
24.1300
 30
0.0000
  0
VERTEX
  8
16
 10
40.0050
 20
26.6700
 30
0.0000
 42
1.0000
  0
SEQEND
  8
0
  0
POLYLINE
  8
16
 66
1
 10
0.0000
 20
0.0000
 30
0.0000
 40
0.0000
 41
0.0000
 70
1
  0
VERTEX
  8
16
 10
38.9210
 20
23.6810
 30
0.0000
  0
VERTEX
  8
16
 10
40.1910
 20
22.4110
 30
0.0000
 42
1.0000
  0
VERTEX
  8
16
 10
41.0890
 20
23.3090
 30
0.0000
  0
VERTEX
  8
16
 10
39.8190
 20
24.5790
 30
0.0000
 42
1.0000
  0
SEQEND
  8
0
  0
POLYLINE
  8
16
 66
1
 10
0.0000
 20
0.0000
 30
0.0000
 40
0.0000
 41
0.0000
 70
1
  0
VERTEX
  8
16
 10
40.6400
 20
22.2250
 30
0.0000
  0
VERTEX
  8
16
 10
45.7200
 20
22.2250
 30
0.0000
 42
1.0000
  0
VERTEX
  8
16
 10
45.7200
 20
23.4950
 30
0.0000
  0
VERTEX
  8
16
 10
40.6400
 20
23.4950
 30
0.0000
 42
1.0000
  0
SEQEND
  8
0
  0
POLYLINE
  8
16
 66
1
 10
0.0000
 20
0.0000
 30
0.0000
 40
0.0000
 41
0.0000
 70
1
  0
VERTEX
  8
16
 10
46.1690
 20
22.4110
 30
0.0000
  0
VERTEX
  8
16
 10
48.7090
 20
24.9510
 30
0.0000
 42
1.0000
  0
VERTEX
  8
16
 10
47.8110
 20
25.8490
 30
0.0000
  0
VERTEX
  8
16
 10
45.2710
 20
23.3090
 30
0.0000
 42
1.0000
  0
SEQEND
  8
0
  0
POLYLINE
  8
16
 66
1
 10
0.0000
 20
0.0000
 30
0.0000
 40
0.0000
 41
0.0000
 70
1
  0
VERTEX
  8
16
 10
48.2600
 20
24.7650
 30
0.0000
  0
VERTEX
  8
16
 10
49.5300
 20
24.7650
 30
0.0000
 42
1.0000
  0
VERTEX
  8
16
 10
49.5300
 20
26.0350
 30
0.0000
  0
VERTEX
  8
16
 10
48.2600
 20
26.0350
 30
0.0000
 42
1.0000
  0
SEQEND
  8
0
  0
POLYLINE
  8
16
 66
1
 10
0.0000
 20
0.0000
 30
0.0000
 40
0.0000
 41
0.0000
 70
1
  0
VERTEX
  8
16
 10
56.5150
 20
21.5900
 30
0.0000
  0
VERTEX
  8
16
 10
56.5150
 20
17.7800
 30
0.0000
 42
1.0000
  0
VERTEX
  8
16
 10
57.7850
 20
17.7800
 30
0.0000
  0
VERTEX
  8
16
 10
57.7850
 20
21.5900
 30
0.0000
 42
1.0000
  0
SEQEND
  8
0
  0
POLYLINE
  8
16
 66
1
 10
0.0000
 20
0.0000
 30
0.0000
 40
0.0000
 41
0.0000
 70
1
  0
VERTEX
  8
16
 10
53.9750
 20
21.5900
 30
0.0000
  0
VERTEX
  8
16
 10
53.9750
 20
17.7800
 30
0.0000
 42
1.0000
  0
VERTEX
  8
16
 10
55.2450
 20
17.7800
 30
0.0000
  0
VERTEX
  8
16
 10
55.2450
 20
21.5900
 30
0.0000
 42
1.0000
  0
SEQEND
  8
0
  0
POLYLINE
  8
16
 66
1
 10
0.0000
 20
0.0000
 30
0.0000
 40
0.0000
 41
0.0000
 70
1
  0
VERTEX
  8
16
 10
59.6900
 20
59.0550
 30
0.0000
  0
VERTEX
  8
16
 10
54.6100
 20
59.0550
 30
0.0000
 42
1.0000
  0
VERTEX
  8
16
 10
54.6100
 20
57.7850
 30
0.0000
  0
VERTEX
  8
16
 10
59.6900
 20
57.7850
 30
0.0000
 42
1.0000
  0
SEQEND
  8
0
  0
POLYLINE
  8
16
 66
1
 10
0.0000
 20
0.0000
 30
0.0000
 40
0.0000
 41
0.0000
 70
1
  0
VERTEX
  8
16
 10
59.6900
 20
61.5950
 30
0.0000
  0
VERTEX
  8
16
 10
54.6100
 20
61.5950
 30
0.0000
 42
1.0000
  0
VERTEX
  8
16
 10
54.6100
 20
60.3250
 30
0.0000
  0
VERTEX
  8
16
 10
59.6900
 20
60.3250
 30
0.0000
 42
1.0000
  0
SEQEND
  8
0
  0
POLYLINE
  8
16
 66
1
 10
0.0000
 20
0.0000
 30
0.0000
 40
0.0000
 41
0.0000
 70
1
  0
VERTEX
  8
16
 10
59.6900
 20
64.1350
 30
0.0000
  0
VERTEX
  8
16
 10
54.6100
 20
64.1350
 30
0.0000
 42
1.0000
  0
VERTEX
  8
16
 10
54.6100
 20
62.8650
 30
0.0000
  0
VERTEX
  8
16
 10
59.6900
 20
62.8650
 30
0.0000
 42
1.0000
  0
SEQEND
  8
0
  0
POLYLINE
  8
16
 66
1
 10
0.0000
 20
0.0000
 30
0.0000
 40
0.0000
 41
0.0000
 70
1
  0
VERTEX
  8
16
 10
59.6900
 20
66.6750
 30
0.0000
  0
VERTEX
  8
16
 10
54.6100
 20
66.6750
 30
0.0000
 42
1.0000
  0
VERTEX
  8
16
 10
54.6100
 20
65.4050
 30
0.0000
  0
VERTEX
  8
16
 10
59.6900
 20
65.4050
 30
0.0000
 42
1.0000
  0
SEQEND
  8
0
  0
POLYLINE
  8
16
 66
1
 10
0.0000
 20
0.0000
 30
0.0000
 40
0.0000
 41
0.0000
 70
1
  0
VERTEX
  8
16
 10
51.4350
 20
21.5900
 30
0.0000
  0
VERTEX
  8
16
 10
51.4350
 20
17.7800
 30
0.0000
 42
1.0000
  0
VERTEX
  8
16
 10
52.7050
 20
17.7800
 30
0.0000
  0
VERTEX
  8
16
 10
52.7050
 20
21.5900
 30
0.0000
 42
1.0000
  0
SEQEND
  8
0
  0
POLYLINE
  8
16
 66
1
 10
0.0000
 20
0.0000
 30
0.0000
 40
0.0000
 41
0.0000
 70
1
  0
VERTEX
  8
16
 10
48.8950
 20
21.5900
 30
0.0000
  0
VERTEX
  8
16
 10
48.8950
 20
17.7800
 30
0.0000
 42
1.0000
  0
VERTEX
  8
16
 10
50.1650
 20
17.7800
 30
0.0000
  0
VERTEX
  8
16
 10
50.1650
 20
21.5900
 30
0.0000
 42
1.0000
  0
SEQEND
  8
0
  0
POLYLINE
  8
16
 66
1
 10
0.0000
 20
0.0000
 30
0.0000
 40
0.0000
 41
0.0000
 70
1
  0
VERTEX
  8
16
 10
15.8750
 20
92.0750
 30
0.0000
  0
VERTEX
  8
16
 10
15.8750
 20
88.9000
 30
0.0000
 42
1.0000
  0
VERTEX
  8
16
 10
17.1450
 20
88.9000
 30
0.0000
  0
VERTEX
  8
16
 10
17.1450
 20
92.0750
 30
0.0000
 42
1.0000
  0
SEQEND
  8
0
  0
POLYLINE
  8
16
 66
1
 10
0.0000
 20
0.0000
 30
0.0000
 40
0.0000
 41
0.0000
 70
1
  0
VERTEX
  8
16
 10
17.5940
 20
91.8890
 30
0.0000
  0
VERTEX
  8
16
 10
16.9590
 20
92.5240
 30
0.0000
 42
1.0000
  0
VERTEX
  8
16
 10
16.0610
 20
91.6260
 30
0.0000
  0
VERTEX
  8
16
 10
16.6960
 20
90.9910
 30
0.0000
 42
1.0000
  0
SEQEND
  8
0
  0
POLYLINE
  8
16
 66
1
 10
0.0000
 20
0.0000
 30
0.0000
 40
0.0000
 41
0.0000
 70
1
  0
VERTEX
  8
16
 10
21.5900
 20
92.0750
 30
0.0000
  0
VERTEX
  8
16
 10
17.1450
 20
92.0750
 30
0.0000
 42
1.0000
  0
VERTEX
  8
16
 10
17.1450
 20
90.8050
 30
0.0000
  0
VERTEX
  8
16
 10
21.5900
 20
90.8050
 30
0.0000
 42
1.0000
  0
SEQEND
  8
0
  0
POLYLINE
  8
16
 66
1
 10
0.0000
 20
0.0000
 30
0.0000
 40
0.0000
 41
0.0000
 70
1
  0
VERTEX
  8
16
 10
30.4800
 20
92.0750
 30
0.0000
  0
VERTEX
  8
16
 10
26.0350
 20
92.0750
 30
0.0000
 42
1.0000
  0
VERTEX
  8
16
 10
26.0350
 20
90.8050
 30
0.0000
  0
VERTEX
  8
16
 10
30.4800
 20
90.8050
 30
0.0000
 42
1.0000
  0
SEQEND
  8
0
  0
POLYLINE
  8
16
 66
1
 10
0.0000
 20
0.0000
 30
0.0000
 40
0.0000
 41
0.0000
 70
1
  0
VERTEX
  8
16
 10
24.9510
 20
91.6260
 30
0.0000
  0
VERTEX
  8
16
 10
25.5860
 20
90.9910
 30
0.0000
 42
1.0000
  0
VERTEX
  8
16
 10
26.4840
 20
91.8890
 30
0.0000
  0
VERTEX
  8
16
 10
25.8490
 20
92.5240
 30
0.0000
 42
1.0000
  0
SEQEND
  8
0
  0
POLYLINE
  8
16
 66
1
 10
0.0000
 20
0.0000
 30
0.0000
 40
0.0000
 41
0.0000
 70
1
  0
VERTEX
  8
16
 10
26.0350
 20
88.9000
 30
0.0000
  0
VERTEX
  8
16
 10
26.0350
 20
92.0750
 30
0.0000
 42
1.0000
  0
VERTEX
  8
16
 10
24.7650
 20
92.0750
 30
0.0000
  0
VERTEX
  8
16
 10
24.7650
 20
88.9000
 30
0.0000
 42
1.0000
  0
SEQEND
  8
0
  0
POLYLINE
  8
16
 66
1
 10
0.0000
 20
0.0000
 30
0.0000
 40
0.0000
 41
0.0000
 70
1
  0
VERTEX
  8
16
 10
33.6550
 20
91.4400
 30
0.0000
  0
VERTEX
  8
16
 10
33.6550
 20
88.9000
 30
0.0000
 42
1.0000
  0
VERTEX
  8
16
 10
34.9250
 20
88.9000
 30
0.0000
  0
VERTEX
  8
16
 10
34.9250
 20
91.4400
 30
0.0000
 42
1.0000
  0
SEQEND
  8
0
  0
POLYLINE
  8
16
 66
1
 10
0.0000
 20
0.0000
 30
0.0000
 40
0.0000
 41
0.0000
 70
1
  0
VERTEX
  8
16
 10
34.9250
 20
91.4400
 30
0.0000
  0
VERTEX
  8
16
 10
34.9250
 20
92.0750
 30
0.0000
 42
1.0000
  0
VERTEX
  8
16
 10
33.6550
 20
92.0750
 30
0.0000
  0
VERTEX
  8
16
 10
33.6550
 20
91.4400
 30
0.0000
 42
1.0000
  0
SEQEND
  8
0
  0
POLYLINE
  8
16
 66
1
 10
0.0000
 20
0.0000
 30
0.0000
 40
0.0000
 41
0.0000
 70
1
  0
VERTEX
  8
16
 10
39.3700
 20
92.0750
 30
0.0000
  0
VERTEX
  8
16
 10
34.2900
 20
92.0750
 30
0.0000
 42
1.0000
  0
VERTEX
  8
16
 10
34.2900
 20
90.8050
 30
0.0000
  0
VERTEX
  8
16
 10
39.3700
 20
90.8050
 30
0.0000
 42
1.0000
  0
SEQEND
  8
0
  0
POLYLINE
  8
16
 66
1
 10
0.0000
 20
0.0000
 30
0.0000
 40
0.0000
 41
0.0000
 70
1
  0
VERTEX
  8
16
 10
42.5450
 20
91.4400
 30
0.0000
  0
VERTEX
  8
16
 10
42.5450
 20
88.9000
 30
0.0000
 42
1.0000
  0
VERTEX
  8
16
 10
43.8150
 20
88.9000
 30
0.0000
  0
VERTEX
  8
16
 10
43.8150
 20
91.4400
 30
0.0000
 42
1.0000
  0
SEQEND
  8
0
  0
POLYLINE
  8
16
 66
1
 10
0.0000
 20
0.0000
 30
0.0000
 40
0.0000
 41
0.0000
 70
1
  0
VERTEX
  8
16
 10
43.8150
 20
91.4400
 30
0.0000
  0
VERTEX
  8
16
 10
43.8150
 20
92.0750
 30
0.0000
 42
1.0000
  0
VERTEX
  8
16
 10
42.5450
 20
92.0750
 30
0.0000
  0
VERTEX
  8
16
 10
42.5450
 20
91.4400
 30
0.0000
 42
1.0000
  0
SEQEND
  8
0
  0
POLYLINE
  8
16
 66
1
 10
0.0000
 20
0.0000
 30
0.0000
 40
0.0000
 41
0.0000
 70
1
  0
VERTEX
  8
16
 10
48.2600
 20
92.0750
 30
0.0000
  0
VERTEX
  8
16
 10
43.1800
 20
92.0750
 30
0.0000
 42
1.0000
  0
VERTEX
  8
16
 10
43.1800
 20
90.8050
 30
0.0000
  0
VERTEX
  8
16
 10
48.2600
 20
90.8050
 30
0.0000
 42
1.0000
  0
SEQEND
  8
0
  0
POLYLINE
  8
16
 66
1
 10
0.0000
 20
0.0000
 30
0.0000
 40
0.0000
 41
0.0000
 70
1
  0
VERTEX
  8
16
 10
43.1800
 20
79.3750
 30
0.0000
  0
VERTEX
  8
16
 10
34.2900
 20
79.3750
 30
0.0000
 42
1.0000
  0
VERTEX
  8
16
 10
34.2900
 20
78.1050
 30
0.0000
  0
VERTEX
  8
16
 10
43.1800
 20
78.1050
 30
0.0000
 42
1.0000
  0
SEQEND
  8
0
  0
POLYLINE
  8
16
 66
1
 10
0.0000
 20
0.0000
 30
0.0000
 40
0.0000
 41
0.0000
 70
1
  0
VERTEX
  8
16
 10
34.2900
 20
79.3750
 30
0.0000
  0
VERTEX
  8
16
 10
25.4000
 20
79.3750
 30
0.0000
 42
1.0000
  0
VERTEX
  8
16
 10
25.4000
 20
78.1050
 30
0.0000
  0
VERTEX
  8
16
 10
34.2900
 20
78.1050
 30
0.0000
 42
1.0000
  0
SEQEND
  8
0
  0
POLYLINE
  8
16
 66
1
 10
0.0000
 20
0.0000
 30
0.0000
 40
0.0000
 41
0.0000
 70
1
  0
VERTEX
  8
16
 10
16.5100
 20
78.1050
 30
0.0000
  0
VERTEX
  8
16
 10
25.4000
 20
78.1050
 30
0.0000
 42
1.0000
  0
VERTEX
  8
16
 10
25.4000
 20
79.3750
 30
0.0000
  0
VERTEX
  8
16
 10
16.5100
 20
79.3750
 30
0.0000
 42
1.0000
  0
SEQEND
  8
0
  0
POLYLINE
  8
16
 66
1
 10
0.0000
 20
0.0000
 30
0.0000
 40
0.0000
 41
0.0000
 70
1
  0
VERTEX
  8
16
 10
48.2600
 20
94.6150
 30
0.0000
  0
VERTEX
  8
16
 10
39.3700
 20
94.6150
 30
0.0000
 42
1.0000
  0
VERTEX
  8
16
 10
39.3700
 20
93.3450
 30
0.0000
  0
VERTEX
  8
16
 10
48.2600
 20
93.3450
 30
0.0000
 42
1.0000
  0
SEQEND
  8
0
  0
POLYLINE
  8
16
 66
1
 10
0.0000
 20
0.0000
 30
0.0000
 40
0.0000
 41
0.0000
 70
1
  0
VERTEX
  8
16
 10
39.3700
 20
94.6150
 30
0.0000
  0
VERTEX
  8
16
 10
30.4800
 20
94.6150
 30
0.0000
 42
1.0000
  0
VERTEX
  8
16
 10
30.4800
 20
93.3450
 30
0.0000
  0
VERTEX
  8
16
 10
39.3700
 20
93.3450
 30
0.0000
 42
1.0000
  0
SEQEND
  8
0
  0
POLYLINE
  8
16
 66
1
 10
0.0000
 20
0.0000
 30
0.0000
 40
0.0000
 41
0.0000
 70
1
  0
VERTEX
  8
16
 10
30.4800
 20
94.6150
 30
0.0000
  0
VERTEX
  8
16
 10
21.5900
 20
94.6150
 30
0.0000
 42
1.0000
  0
VERTEX
  8
16
 10
21.5900
 20
93.3450
 30
0.0000
  0
VERTEX
  8
16
 10
30.4800
 20
93.3450
 30
0.0000
 42
1.0000
  0
SEQEND
  8
0
  0
POLYLINE
  8
16
 66
1
 10
0.0000
 20
0.0000
 30
0.0000
 40
0.0000
 41
0.0000
 70
1
  0
VERTEX
  8
16
 10
21.5900
 20
94.6150
 30
0.0000
  0
VERTEX
  8
16
 10
15.2400
 20
94.6150
 30
0.0000
 42
1.0000
  0
VERTEX
  8
16
 10
15.2400
 20
93.3450
 30
0.0000
  0
VERTEX
  8
16
 10
21.5900
 20
93.3450
 30
0.0000
 42
1.0000
  0
SEQEND
  8
0
  0
POLYLINE
  8
16
 66
1
 10
0.0000
 20
0.0000
 30
0.0000
 40
0.0000
 41
0.0000
 70
1
  0
VERTEX
  8
16
 10
14.7910
 20
94.4290
 30
0.0000
  0
VERTEX
  8
16
 10
13.5210
 20
93.1590
 30
0.0000
 42
1.0000
  0
VERTEX
  8
16
 10
14.4190
 20
92.2610
 30
0.0000
  0
VERTEX
  8
16
 10
15.6890
 20
93.5310
 30
0.0000
 42
1.0000
  0
SEQEND
  8
0
  0
POLYLINE
  8
16
 66
1
 10
0.0000
 20
0.0000
 30
0.0000
 40
0.0000
 41
0.0000
 70
1
  0
VERTEX
  8
16
 10
13.3350
 20
92.7100
 30
0.0000
  0
VERTEX
  8
16
 10
13.3350
 20
80.0100
 30
0.0000
 42
1.0000
  0
VERTEX
  8
16
 10
14.6050
 20
80.0100
 30
0.0000
  0
VERTEX
  8
16
 10
14.6050
 20
92.7100
 30
0.0000
 42
1.0000
  0
SEQEND
  8
0
  0
POLYLINE
  8
16
 66
1
 10
0.0000
 20
0.0000
 30
0.0000
 40
0.0000
 41
0.0000
 70
1
  0
VERTEX
  8
16
 10
13.5210
 20
79.5610
 30
0.0000
  0
VERTEX
  8
16
 10
14.7910
 20
78.2910
 30
0.0000
 42
1.0000
  0
VERTEX
  8
16
 10
15.6890
 20
79.1890
 30
0.0000
  0
VERTEX
  8
16
 10
14.4190
 20
80.4590
 30
0.0000
 42
1.0000
  0
SEQEND
  8
0
  0
POLYLINE
  8
16
 66
1
 10
0.0000
 20
0.0000
 30
0.0000
 40
0.0000
 41
0.0000
 70
1
  0
VERTEX
  8
16
 10
15.2400
 20
78.1050
 30
0.0000
  0
VERTEX
  8
16
 10
16.5100
 20
78.1050
 30
0.0000
 42
1.0000
  0
VERTEX
  8
16
 10
16.5100
 20
79.3750
 30
0.0000
  0
VERTEX
  8
16
 10
15.2400
 20
79.3750
 30
0.0000
 42
1.0000
  0
SEQEND
  8
0
  0
POLYLINE
  8
16
 66
1
 10
0.0000
 20
0.0000
 30
0.0000
 40
0.0000
 41
0.0000
 70
1
  0
VERTEX
  8
16
 10
59.6900
 20
29.8450
 30
0.0000
  0
VERTEX
  8
16
 10
66.0400
 20
29.8450
 30
0.0000
 42
1.0000
  0
VERTEX
  8
16
 10
66.0400
 20
31.1150
 30
0.0000
  0
VERTEX
  8
16
 10
59.6900
 20
31.1150
 30
0.0000
 42
1.0000
  0
SEQEND
  8
0
  0
POLYLINE
  8
16
 66
1
 10
0.0000
 20
0.0000
 30
0.0000
 40
0.0000
 41
0.0000
 70
1
  0
VERTEX
  8
16
 10
66.4890
 20
30.0310
 30
0.0000
  0
VERTEX
  8
16
 10
67.7590
 20
31.3010
 30
0.0000
 42
1.0000
  0
VERTEX
  8
16
 10
66.8610
 20
32.1990
 30
0.0000
  0
VERTEX
  8
16
 10
65.5910
 20
30.9290
 30
0.0000
 42
1.0000
  0
SEQEND
  8
0
  0
POLYLINE
  8
16
 66
1
 10
0.0000
 20
0.0000
 30
0.0000
 40
0.0000
 41
0.0000
 70
1
  0
VERTEX
  8
16
 10
67.9450
 20
31.7500
 30
0.0000
  0
VERTEX
  8
16
 10
67.9450
 20
34.2900
 30
0.0000
 42
1.0000
  0
VERTEX
  8
16
 10
66.6750
 20
34.2900
 30
0.0000
  0
VERTEX
  8
16
 10
66.6750
 20
31.7500
 30
0.0000
 42
1.0000
  0
SEQEND
  8
0
  0
POLYLINE
  8
16
 66
1
 10
0.0000
 20
0.0000
 30
0.0000
 40
0.0000
 41
0.0000
 70
1
  0
VERTEX
  8
16
 10
67.7590
 20
34.7390
 30
0.0000
  0
VERTEX
  8
16
 10
66.4890
 20
36.0090
 30
0.0000
 42
1.0000
  0
VERTEX
  8
16
 10
65.5910
 20
35.1110
 30
0.0000
  0
VERTEX
  8
16
 10
66.8610
 20
33.8410
 30
0.0000
 42
1.0000
  0
SEQEND
  8
0
  0
POLYLINE
  8
16
 66
1
 10
0.0000
 20
0.0000
 30
0.0000
 40
0.0000
 41
0.0000
 70
1
  0
VERTEX
  8
16
 10
66.0400
 20
36.1950
 30
0.0000
  0
VERTEX
  8
16
 10
63.5000
 20
36.1950
 30
0.0000
 42
1.0000
  0
VERTEX
  8
16
 10
63.5000
 20
34.9250
 30
0.0000
  0
VERTEX
  8
16
 10
66.0400
 20
34.9250
 30
0.0000
 42
1.0000
  0
SEQEND
  8
0
  0
POLYLINE
  8
16
 66
1
 10
0.0000
 20
0.0000
 30
0.0000
 40
0.0000
 41
0.0000
 70
1
  0
VERTEX
  8
16
 10
63.5000
 20
33.6550
 30
0.0000
  0
VERTEX
  8
16
 10
59.6900
 20
33.6550
 30
0.0000
 42
1.0000
  0
VERTEX
  8
16
 10
59.6900
 20
32.3850
 30
0.0000
  0
VERTEX
  8
16
 10
63.5000
 20
32.3850
 30
0.0000
 42
1.0000
  0
SEQEND
  8
0
  0
POLYLINE
  8
16
 66
1
 10
0.0000
 20
0.0000
 30
0.0000
 40
0.0000
 41
0.0000
 70
1
  0
VERTEX
  8
16
 10
59.6900
 20
70.7390
 30
0.0000
  0
VERTEX
  8
16
 10
54.3560
 20
70.7390
 30
0.0000
 42
1.0000
  0
VERTEX
  8
16
 10
54.3560
 20
69.4690
 30
0.0000
  0
VERTEX
  8
16
 10
59.6900
 20
69.4690
 30
0.0000
 42
1.0000
  0
SEQEND
  8
0
  0
POLYLINE
  8
16
 66
1
 10
0.0000
 20
0.0000
 30
0.0000
 40
0.0000
 41
0.0000
 70
1
  0
VERTEX
  8
16
 10
54.8050
 20
70.5530
 30
0.0000
  0
VERTEX
  8
16
 10
48.7090
 20
76.6490
 30
0.0000
 42
1.0000
  0
VERTEX
  8
16
 10
47.8110
 20
75.7510
 30
0.0000
  0
VERTEX
  8
16
 10
53.9070
 20
69.6550
 30
0.0000
 42
1.0000
  0
SEQEND
  8
0
  0
POLYLINE
  8
16
 66
1
 10
0.0000
 20
0.0000
 30
0.0000
 40
0.0000
 41
0.0000
 70
1
  0
VERTEX
  8
16
 10
48.8950
 20
76.2000
 30
0.0000
  0
VERTEX
  8
16
 10
48.8950
 20
78.7400
 30
0.0000
 42
1.0000
  0
VERTEX
  8
16
 10
47.6250
 20
78.7400
 30
0.0000
  0
VERTEX
  8
16
 10
47.6250
 20
76.2000
 30
0.0000
 42
1.0000
  0
SEQEND
  8
0
  0
POLYLINE
  8
16
 66
1
 10
0.0000
 20
0.0000
 30
0.0000
 40
0.0000
 41
0.0000
 70
1
  0
VERTEX
  8
16
 10
48.8950
 20
78.7400
 30
0.0000
  0
VERTEX
  8
16
 10
48.8950
 20
80.0100
 30
0.0000
 42
1.0000
  0
VERTEX
  8
16
 10
47.6250
 20
80.0100
 30
0.0000
  0
VERTEX
  8
16
 10
47.6250
 20
78.7400
 30
0.0000
 42
1.0000
  0
SEQEND
  8
0
  0
POLYLINE
  8
16
 66
1
 10
0.0000
 20
0.0000
 30
0.0000
 40
0.0000
 41
0.0000
 70
1
  0
VERTEX
  8
16
 10
48.7090
 20
80.4590
 30
0.0000
  0
VERTEX
  8
16
 10
47.4390
 20
81.7290
 30
0.0000
 42
1.0000
  0
VERTEX
  8
16
 10
46.5410
 20
80.8310
 30
0.0000
  0
VERTEX
  8
16
 10
47.8110
 20
79.5610
 30
0.0000
 42
1.0000
  0
SEQEND
  8
0
  0
POLYLINE
  8
16
 66
1
 10
0.0000
 20
0.0000
 30
0.0000
 40
0.0000
 41
0.0000
 70
1
  0
VERTEX
  8
16
 10
46.9900
 20
81.9150
 30
0.0000
  0
VERTEX
  8
16
 10
25.4000
 20
81.9150
 30
0.0000
 42
1.0000
  0
VERTEX
  8
16
 10
25.4000
 20
80.6450
 30
0.0000
  0
VERTEX
  8
16
 10
46.9900
 20
80.6450
 30
0.0000
 42
1.0000
  0
SEQEND
  8
0
  0
POLYLINE
  8
16
 66
1
 10
0.0000
 20
0.0000
 30
0.0000
 40
0.0000
 41
0.0000
 70
1
  0
VERTEX
  8
16
 10
25.8490
 20
81.7290
 30
0.0000
  0
VERTEX
  8
16
 10
22.0390
 20
85.5390
 30
0.0000
 42
1.0000
  0
VERTEX
  8
16
 10
21.1410
 20
84.6410
 30
0.0000
  0
VERTEX
  8
16
 10
24.9510
 20
80.8310
 30
0.0000
 42
1.0000
  0
SEQEND
  8
0
  0
POLYLINE
  8
16
 66
1
 10
0.0000
 20
0.0000
 30
0.0000
 40
0.0000
 41
0.0000
 70
1
  0
VERTEX
  8
16
 10
22.2250
 20
85.0900
 30
0.0000
  0
VERTEX
  8
16
 10
22.2250
 20
88.9000
 30
0.0000
 42
1.0000
  0
VERTEX
  8
16
 10
20.9550
 20
88.9000
 30
0.0000
  0
VERTEX
  8
16
 10
20.9550
 20
85.0900
 30
0.0000
 42
1.0000
  0
SEQEND
  8
0
  0
POLYLINE
  8
16
 66
1
 10
0.0000
 20
0.0000
 30
0.0000
 40
0.0000
 41
0.0000
 70
1
  0
VERTEX
  8
16
 10
59.6900
 20
73.2790
 30
0.0000
  0
VERTEX
  8
16
 10
54.3560
 20
73.2790
 30
0.0000
 42
1.0000
  0
VERTEX
  8
16
 10
54.3560
 20
72.0090
 30
0.0000
  0
VERTEX
  8
16
 10
59.6900
 20
72.0090
 30
0.0000
 42
1.0000
  0
SEQEND
  8
0
  0
POLYLINE
  8
16
 66
1
 10
0.0000
 20
0.0000
 30
0.0000
 40
0.0000
 41
0.0000
 70
1
  0
VERTEX
  8
16
 10
54.8050
 20
73.0930
 30
0.0000
  0
VERTEX
  8
16
 10
51.2490
 20
76.6490
 30
0.0000
 42
1.0000
  0
VERTEX
  8
16
 10
50.3510
 20
75.7510
 30
0.0000
  0
VERTEX
  8
16
 10
53.9070
 20
72.1950
 30
0.0000
 42
1.0000
  0
SEQEND
  8
0
  0
POLYLINE
  8
16
 66
1
 10
0.0000
 20
0.0000
 30
0.0000
 40
0.0000
 41
0.0000
 70
1
  0
VERTEX
  8
16
 10
51.4350
 20
76.2000
 30
0.0000
  0
VERTEX
  8
16
 10
51.4350
 20
78.7400
 30
0.0000
 42
1.0000
  0
VERTEX
  8
16
 10
50.1650
 20
78.7400
 30
0.0000
  0
VERTEX
  8
16
 10
50.1650
 20
76.2000
 30
0.0000
 42
1.0000
  0
SEQEND
  8
0
  0
POLYLINE
  8
16
 66
1
 10
0.0000
 20
0.0000
 30
0.0000
 40
0.0000
 41
0.0000
 70
1
  0
VERTEX
  8
16
 10
51.4350
 20
78.7400
 30
0.0000
  0
VERTEX
  8
16
 10
51.4350
 20
81.2800
 30
0.0000
 42
1.0000
  0
VERTEX
  8
16
 10
50.1650
 20
81.2800
 30
0.0000
  0
VERTEX
  8
16
 10
50.1650
 20
78.7400
 30
0.0000
 42
1.0000
  0
SEQEND
  8
0
  0
POLYLINE
  8
16
 66
1
 10
0.0000
 20
0.0000
 30
0.0000
 40
0.0000
 41
0.0000
 70
1
  0
VERTEX
  8
16
 10
51.2490
 20
81.7290
 30
0.0000
  0
VERTEX
  8
16
 10
48.7090
 20
84.2690
 30
0.0000
 42
1.0000
  0
VERTEX
  8
16
 10
47.8110
 20
83.3710
 30
0.0000
  0
VERTEX
  8
16
 10
50.3510
 20
80.8310
 30
0.0000
 42
1.0000
  0
SEQEND
  8
0
  0
POLYLINE
  8
16
 66
1
 10
0.0000
 20
0.0000
 30
0.0000
 40
0.0000
 41
0.0000
 70
1
  0
VERTEX
  8
16
 10
48.2600
 20
84.4550
 30
0.0000
  0
VERTEX
  8
16
 10
33.0200
 20
84.4550
 30
0.0000
 42
1.0000
  0
VERTEX
  8
16
 10
33.0200
 20
83.1850
 30
0.0000
  0
VERTEX
  8
16
 10
48.2600
 20
83.1850
 30
0.0000
 42
1.0000
  0
SEQEND
  8
0
  0
POLYLINE
  8
16
 66
1
 10
0.0000
 20
0.0000
 30
0.0000
 40
0.0000
 41
0.0000
 70
1
  0
VERTEX
  8
16
 10
33.4690
 20
84.2690
 30
0.0000
  0
VERTEX
  8
16
 10
30.9290
 20
86.8090
 30
0.0000
 42
1.0000
  0
VERTEX
  8
16
 10
30.0310
 20
85.9110
 30
0.0000
  0
VERTEX
  8
16
 10
32.5710
 20
83.3710
 30
0.0000
 42
1.0000
  0
SEQEND
  8
0
  0
POLYLINE
  8
16
 66
1
 10
0.0000
 20
0.0000
 30
0.0000
 40
0.0000
 41
0.0000
 70
1
  0
VERTEX
  8
16
 10
31.1150
 20
86.3600
 30
0.0000
  0
VERTEX
  8
16
 10
31.1150
 20
88.9000
 30
0.0000
 42
1.0000
  0
VERTEX
  8
16
 10
29.8450
 20
88.9000
 30
0.0000
  0
VERTEX
  8
16
 10
29.8450
 20
86.3600
 30
0.0000
 42
1.0000
  0
SEQEND
  8
0
  0
POLYLINE
  8
16
 66
1
 10
0.0000
 20
0.0000
 30
0.0000
 40
0.0000
 41
0.0000
 70
1
  0
VERTEX
  8
16
 10
59.6900
 20
75.8190
 30
0.0000
  0
VERTEX
  8
16
 10
55.6260
 20
75.8190
 30
0.0000
 42
1.0000
  0
VERTEX
  8
16
 10
55.6260
 20
74.5490
 30
0.0000
  0
VERTEX
  8
16
 10
59.6900
 20
74.5490
 30
0.0000
 42
1.0000
  0
SEQEND
  8
0
  0
POLYLINE
  8
16
 66
1
 10
0.0000
 20
0.0000
 30
0.0000
 40
0.0000
 41
0.0000
 70
1
  0
VERTEX
  8
16
 10
56.0750
 20
75.6330
 30
0.0000
  0
VERTEX
  8
16
 10
53.7890
 20
77.9190
 30
0.0000
 42
1.0000
  0
VERTEX
  8
16
 10
52.8910
 20
77.0210
 30
0.0000
  0
VERTEX
  8
16
 10
55.1770
 20
74.7350
 30
0.0000
 42
1.0000
  0
SEQEND
  8
0
  0
POLYLINE
  8
16
 66
1
 10
0.0000
 20
0.0000
 30
0.0000
 40
0.0000
 41
0.0000
 70
1
  0
VERTEX
  8
16
 10
53.9750
 20
77.4700
 30
0.0000
  0
VERTEX
  8
16
 10
53.9750
 20
78.7400
 30
0.0000
 42
1.0000
  0
VERTEX
  8
16
 10
52.7050
 20
78.7400
 30
0.0000
  0
VERTEX
  8
16
 10
52.7050
 20
77.4700
 30
0.0000
 42
1.0000
  0
SEQEND
  8
0
  0
POLYLINE
  8
16
 66
1
 10
0.0000
 20
0.0000
 30
0.0000
 40
0.0000
 41
0.0000
 70
1
  0
VERTEX
  8
16
 10
53.9750
 20
78.7400
 30
0.0000
  0
VERTEX
  8
16
 10
53.9750
 20
82.5500
 30
0.0000
 42
1.0000
  0
VERTEX
  8
16
 10
52.7050
 20
82.5500
 30
0.0000
  0
VERTEX
  8
16
 10
52.7050
 20
78.7400
 30
0.0000
 42
1.0000
  0
SEQEND
  8
0
  0
POLYLINE
  8
16
 66
1
 10
0.0000
 20
0.0000
 30
0.0000
 40
0.0000
 41
0.0000
 70
1
  0
VERTEX
  8
16
 10
53.7890
 20
82.9990
 30
0.0000
  0
VERTEX
  8
16
 10
49.9790
 20
86.8090
 30
0.0000
 42
1.0000
  0
VERTEX
  8
16
 10
49.0810
 20
85.9110
 30
0.0000
  0
VERTEX
  8
16
 10
52.8910
 20
82.1010
 30
0.0000
 42
1.0000
  0
SEQEND
  8
0
  0
POLYLINE
  8
16
 66
1
 10
0.0000
 20
0.0000
 30
0.0000
 40
0.0000
 41
0.0000
 70
1
  0
VERTEX
  8
16
 10
49.5300
 20
86.9950
 30
0.0000
  0
VERTEX
  8
16
 10
40.6400
 20
86.9950
 30
0.0000
 42
1.0000
  0
VERTEX
  8
16
 10
40.6400
 20
85.7250
 30
0.0000
  0
VERTEX
  8
16
 10
49.5300
 20
85.7250
 30
0.0000
 42
1.0000
  0
SEQEND
  8
0
  0
POLYLINE
  8
16
 66
1
 10
0.0000
 20
0.0000
 30
0.0000
 40
0.0000
 41
0.0000
 70
1
  0
VERTEX
  8
16
 10
41.0890
 20
86.8090
 30
0.0000
  0
VERTEX
  8
16
 10
39.8190
 20
88.0790
 30
0.0000
 42
1.0000
  0
VERTEX
  8
16
 10
38.9210
 20
87.1810
 30
0.0000
  0
VERTEX
  8
16
 10
40.1910
 20
85.9110
 30
0.0000
 42
1.0000
  0
SEQEND
  8
0
  0
POLYLINE
  8
16
 66
1
 10
0.0000
 20
0.0000
 30
0.0000
 40
0.0000
 41
0.0000
 70
1
  0
VERTEX
  8
16
 10
40.0050
 20
87.6300
 30
0.0000
  0
VERTEX
  8
16
 10
40.0050
 20
88.9000
 30
0.0000
 42
1.0000
  0
VERTEX
  8
16
 10
38.7350
 20
88.9000
 30
0.0000
  0
VERTEX
  8
16
 10
38.7350
 20
87.6300
 30
0.0000
 42
1.0000
  0
SEQEND
  8
0
  0
POLYLINE
  8
16
 66
1
 10
0.0000
 20
0.0000
 30
0.0000
 40
0.0000
 41
0.0000
 70
1
  0
VERTEX
  8
16
 10
59.6900
 20
78.3590
 30
0.0000
  0
VERTEX
  8
16
 10
56.8960
 20
78.3590
 30
0.0000
 42
1.0000
  0
VERTEX
  8
16
 10
56.8960
 20
77.0890
 30
0.0000
  0
VERTEX
  8
16
 10
59.6900
 20
77.0890
 30
0.0000
 42
1.0000
  0
SEQEND
  8
0
  0
POLYLINE
  8
16
 66
1
 10
0.0000
 20
0.0000
 30
0.0000
 40
0.0000
 41
0.0000
 70
1
  0
VERTEX
  8
16
 10
57.3450
 20
78.1730
 30
0.0000
  0
VERTEX
  8
16
 10
56.3290
 20
79.1890
 30
0.0000
 42
1.0000
  0
VERTEX
  8
16
 10
55.4310
 20
78.2910
 30
0.0000
  0
VERTEX
  8
16
 10
56.4470
 20
77.2750
 30
0.0000
 42
1.0000
  0
SEQEND
  8
0
  0
POLYLINE
  8
16
 66
1
 10
0.0000
 20
0.0000
 30
0.0000
 40
0.0000
 41
0.0000
 70
1
  0
VERTEX
  8
16
 10
56.5150
 20
78.7400
 30
0.0000
  0
VERTEX
  8
16
 10
56.5150
 20
83.8200
 30
0.0000
 42
1.0000
  0
VERTEX
  8
16
 10
55.2450
 20
83.8200
 30
0.0000
  0
VERTEX
  8
16
 10
55.2450
 20
78.7400
 30
0.0000
 42
1.0000
  0
SEQEND
  8
0
  0
POLYLINE
  8
16
 66
1
 10
0.0000
 20
0.0000
 30
0.0000
 40
0.0000
 41
0.0000
 70
1
  0
VERTEX
  8
16
 10
56.3290
 20
84.2690
 30
0.0000
  0
VERTEX
  8
16
 10
51.2490
 20
89.3490
 30
0.0000
 42
1.0000
  0
VERTEX
  8
16
 10
50.3510
 20
88.4510
 30
0.0000
  0
VERTEX
  8
16
 10
55.4310
 20
83.3710
 30
0.0000
 42
1.0000
  0
SEQEND
  8
0
  0
POLYLINE
  8
16
 66
1
 10
0.0000
 20
0.0000
 30
0.0000
 40
0.0000
 41
0.0000
 70
1
  0
VERTEX
  8
16
 10
50.8000
 20
89.5350
 30
0.0000
  0
VERTEX
  8
16
 10
48.2600
 20
89.5350
 30
0.0000
 42
1.0000
  0
VERTEX
  8
16
 10
48.2600
 20
88.2650
 30
0.0000
  0
VERTEX
  8
16
 10
50.8000
 20
88.2650
 30
0.0000
 42
1.0000
  0
SEQEND
  8
0
  0
POLYLINE
  8
16
 66
1
 10
0.0000
 20
0.0000
 30
0.0000
 40
0.0000
 41
0.0000
 70
1
  0
VERTEX
  8
16
 10
24.7650
 20
38.1000
 30
0.0000
  0
VERTEX
  8
16
 10
24.7650
 20
41.9100
 30
0.0000
 42
1.0000
  0
VERTEX
  8
16
 10
23.4950
 20
41.9100
 30
0.0000
  0
VERTEX
  8
16
 10
23.4950
 20
38.1000
 30
0.0000
 42
1.0000
  0
SEQEND
  8
0
  0
POLYLINE
  8
16
 66
1
 10
0.0000
 20
0.0000
 30
0.0000
 40
0.0000
 41
0.0000
 70
1
  0
VERTEX
  8
16
 10
24.7650
 20
46.9900
 30
0.0000
  0
VERTEX
  8
16
 10
24.7650
 20
50.8000
 30
0.0000
 42
1.0000
  0
VERTEX
  8
16
 10
23.4950
 20
50.8000
 30
0.0000
  0
VERTEX
  8
16
 10
23.4950
 20
46.9900
 30
0.0000
 42
1.0000
  0
SEQEND
  8
0
  0
POLYLINE
  8
16
 66
1
 10
0.0000
 20
0.0000
 30
0.0000
 40
0.0000
 41
0.0000
 70
1
  0
VERTEX
  8
16
 10
24.7650
 20
55.8800
 30
0.0000
  0
VERTEX
  8
16
 10
24.7650
 20
59.6900
 30
0.0000
 42
1.0000
  0
VERTEX
  8
16
 10
23.4950
 20
59.6900
 30
0.0000
  0
VERTEX
  8
16
 10
23.4950
 20
55.8800
 30
0.0000
 42
1.0000
  0
SEQEND
  8
0
  0
ENDSEC
  0
EOF
