  0
SECTION
  2
HEADER
  9
$ACADVER
  1
AC1009
  9
$FILLMODE
 70
0
  9
$EXTMIN
 10
0.0000
 20
0.0000
 30
0.0000
  9
$EXTMAX
 10
100.0000
 20
80.0000
 30
0.0000
  0
ENDSEC
  0
SECTION
  2
TABLES
  0
TABLE
  2
LTYPE
 70
1
  0
LTYPE
  2
CONTINUOUS
 70
64
  3
Solid line
 72
65
 73
0
 40
0
  0
ENDTAB
  0
TABLE
  2
LAYER
 70
255
  0
LAYER
  2
16
 70
64
 62
175
  6
CONTINUOUS
  0
LAYER
  2
17
 70
64
 62
82
  6
CONTINUOUS
  0
LAYER
  2
18
 70
64
 62
82
  6
CONTINUOUS
  0
LAYER
  2
19
 70
64
 62
53
  6
CONTINUOUS
  0
LAYER
  2
20
 70
64
 62
7
  6
CONTINUOUS
  0
LAYER
  2
23
 70
64
 62
7
  6
CONTINUOUS
  0
LAYER
  2
24
 70
64
 62
7
  6
CONTINUOUS
  0
LAYER
  2
44
 70
64
 62
253
  6
CONTINUOUS
  0
ENDTAB
  0
ENDSEC
  0
SECTION
  2
BLOCKS
  0
BLOCK
  8
0
  2
RECT
 70
64
 10
0.0000
 20
0.0000
 30
0.0000
  3
RECT
  0
SOLID
  8
0
 10
-0.5000
 20
-0.5000
 30
0.0000
 11
0.5000
 21
-0.5000
 31
0.0000
 12
-0.5000
 22
0.5000
 32
0.0000
 13
0.5000
 23
0.5000
 33
0.0000
  0
ENDBLK
  8
0
  0
BLOCK
  8
0
  2
PIE
 70
64
 10
0.0000
 20
0.0000
 30
0.0000
  3
PIE
  0
CIRCLE
  8
0
 10
0.0000
 20
0.0000
 30
0.0000
 40
0.5000
  0
ENDBLK
  8
0
  0
BLOCK
  8
0
  2
OCTAGONP
 70
64
 10
0.0000
 20
0.0000
 30
0.0000
  3
OCTAGONP
  0
POLYLINE
  8
0
 66
1
 10
0.0000
 20
0.0000
 30
0.0000
 40
0.0000
 41
0.0000
 70
1
  0
VERTEX
  8
0
 10
-0.5000
 20
-0.2071
 30
0.0000
  0
VERTEX
  8
0
 10
-0.5000
 20
0.2071
 30
0.0000
  0
VERTEX
  8
0
 10
-0.2071
 20
0.5000
 30
0.0000
  0
VERTEX
  8
0
 10
0.2071
 20
0.5000
 30
0.0000
  0
VERTEX
  8
0
 10
0.5000
 20
0.2071
 30
0.0000
  0
VERTEX
  8
0
 10
0.5000
 20
-0.2071
 30
0.0000
  0
VERTEX
  8
0
 10
0.2071
 20
-0.5000
 30
0.0000
  0
VERTEX
  8
0
 10
-0.2071
 20
-0.5000
 30
0.0000
  0
SEQEND
  8
0
  0
ENDBLK
  8
0
  0
BLOCK
  8
0
  2
SQUAREP
 70
64
 10
0.0000
 20
0.0000
 30
0.0000
  3
SQUAREP
  0
SOLID
  8
0
 10
-0.5000
 20
-0.5000
 30
0.0000
 11
0.5000
 21
-0.5000
 31
0.0000
 12
-0.5000
 22
0.5000
 32
0.0000
 13
0.5000
 23
0.5000
 33
0.0000
  0
ENDBLK
  8
0
  0
BLOCK
  8
0
  2
ROUNDP
 70
64
 10
0.0000
 20
0.0000
 30
0.0000
  3
ROUNDP
  0
CIRCLE
  8
0
 10
0.0000
 20
0.0000
 30
0.0000
 40
0.5000
  0
ENDBLK
  8
0
  0
BLOCK
  8
0
  2
ANNULUSP
 70
64
 10
0.0000
 20
0.0000
 30
0.0000
  3
ANNULUSP
  0
CIRCLE
  8
0
 10
0.0000
 20
0.0000
 30
0.0000
 40
0.5000
  0
ENDBLK
  8
0
  0
BLOCK
  8
0
  2
THERMALP
 70
64
 10
0.0000
 20
0.0000
 30
0.0000
  3
THERMALP
  0
POLYLINE
  8
0
 66
1
 10
0.0000
 20
0.0000
 30
0.0000
 40
0.0000
 41
0.0000
 70
1
  0
VERTEX
  8
0
 10
-0.2379
 20
0.4000
 30
0.0000
  0
VERTEX
  8
0
 10
0.2379
 20
0.4000
 30
0.0000
 42
1.0000
  0
VERTEX
  8
0
 10
0.2379
 20
0.5000
 30
0.0000
  0
VERTEX
  8
0
 10
-0.2379
 20
0.5000
 30
0.0000
 42
1.0000
  0
SEQEND
  8
0
  0
POLYLINE
  8
0
 66
1
 10
0.0000
 20
0.0000
 30
0.0000
 40
0.0000
 41
0.0000
 70
1
  0
VERTEX
  8
0
 10
0.4000
 20
0.2379
 30
0.0000
  0
VERTEX
  8
0
 10
0.4000
 20
-0.2379
 30
0.0000
 42
1.0000
  0
VERTEX
  8
0
 10
0.5000
 20
-0.2379
 30
0.0000
  0
VERTEX
  8
0
 10
0.5000
 20
0.2379
 30
0.0000
 42
1.0000
  0
SEQEND
  8
0
  0
POLYLINE
  8
0
 66
1
 10
0.0000
 20
0.0000
 30
0.0000
 40
0.0000
 41
0.0000
 70
1
  0
VERTEX
  8
0
 10
0.2379
 20
-0.4000
 30
0.0000
  0
VERTEX
  8
0
 10
-0.2379
 20
-0.4000
 30
0.0000
 42
1.0000
  0
VERTEX
  8
0
 10
-0.2379
 20
-0.5000
 30
0.0000
  0
VERTEX
  8
0
 10
0.2379
 20
-0.5000
 30
0.0000
 42
1.0000
  0
SEQEND
  8
0
  0
POLYLINE
  8
0
 66
1
 10
0.0000
 20
0.0000
 30
0.0000
 40
0.0000
 41
0.0000
 70
1
  0
VERTEX
  8
0
 10
-0.4000
 20
-0.2379
 30
0.0000
  0
VERTEX
  8
0
 10
-0.4000
 20
0.2379
 30
0.0000
 42
1.0000
  0
VERTEX
  8
0
 10
-0.5000
 20
0.2379
 30
0.0000
  0
VERTEX
  8
0
 10
-0.5000
 20
-0.2379
 30
0.0000
 42
1.0000
  0
SEQEND
  8
0
  0
ENDBLK
  8
0
  0
BLOCK
  8
0
  2
OCTAGONV
 70
64
 10
0.0000
 20
0.0000
 30
0.0000
  3
OCTAGONV
  0
POLYLINE
  8
0
 66
1
 10
0.0000
 20
0.0000
 30
0.0000
 40
0.0000
 41
0.0000
 70
1
  0
VERTEX
  8
0
 10
-0.5000
 20
-0.2071
 30
0.0000
  0
VERTEX
  8
0
 10
-0.5000
 20
0.2071
 30
0.0000
  0
VERTEX
  8
0
 10
-0.2071
 20
0.5000
 30
0.0000
  0
VERTEX
  8
0
 10
0.2071
 20
0.5000
 30
0.0000
  0
VERTEX
  8
0
 10
0.5000
 20
0.2071
 30
0.0000
  0
VERTEX
  8
0
 10
0.5000
 20
-0.2071
 30
0.0000
  0
VERTEX
  8
0
 10
0.2071
 20
-0.5000
 30
0.0000
  0
VERTEX
  8
0
 10
-0.2071
 20
-0.5000
 30
0.0000
  0
SEQEND
  8
0
  0
ENDBLK
  8
0
  0
BLOCK
  8
0
  2
SQUAREV
 70
64
 10
0.0000
 20
0.0000
 30
0.0000
  3
SQUAREV
  0
SOLID
  8
0
 10
-0.5000
 20
-0.5000
 30
0.0000
 11
0.5000
 21
-0.5000
 31
0.0000
 12
-0.5000
 22
0.5000
 32
0.0000
 13
0.5000
 23
0.5000
 33
0.0000
  0
ENDBLK
  8
0
  0
BLOCK
  8
0
  2
ROUNDV
 70
64
 10
0.0000
 20
0.0000
 30
0.0000
  3
ROUNDV
  0
CIRCLE
  8
0
 10
0.0000
 20
0.0000
 30
0.0000
 40
0.5000
  0
ENDBLK
  8
0
  0
BLOCK
  8
0
  2
ANNULUSV
 70
64
 10
0.0000
 20
0.0000
 30
0.0000
  3
ANNULUSV
  0
CIRCLE
  8
0
 10
0.0000
 20
0.0000
 30
0.0000
 40
0.5000
  0
ENDBLK
  8
0
  0
BLOCK
  8
0
  2
THERMALV
 70
64
 10
0.0000
 20
0.0000
 30
0.0000
  3
THERMALV
  0
POLYLINE
  8
0
 66
1
 10
0.0000
 20
0.0000
 30
0.0000
 40
0.0000
 41
0.0000
 70
1
  0
VERTEX
  8
0
 10
-0.2379
 20
0.4000
 30
0.0000
  0
VERTEX
  8
0
 10
0.2379
 20
0.4000
 30
0.0000
 42
1.0000
  0
VERTEX
  8
0
 10
0.2379
 20
0.5000
 30
0.0000
  0
VERTEX
  8
0
 10
-0.2379
 20
0.5000
 30
0.0000
 42
1.0000
  0
SEQEND
  8
0
  0
POLYLINE
  8
0
 66
1
 10
0.0000
 20
0.0000
 30
0.0000
 40
0.0000
 41
0.0000
 70
1
  0
VERTEX
  8
0
 10
0.4000
 20
0.2379
 30
0.0000
  0
VERTEX
  8
0
 10
0.4000
 20
-0.2379
 30
0.0000
 42
1.0000
  0
VERTEX
  8
0
 10
0.5000
 20
-0.2379
 30
0.0000
  0
VERTEX
  8
0
 10
0.5000
 20
0.2379
 30
0.0000
 42
1.0000
  0
SEQEND
  8
0
  0
POLYLINE
  8
0
 66
1
 10
0.0000
 20
0.0000
 30
0.0000
 40
0.0000
 41
0.0000
 70
1
  0
VERTEX
  8
0
 10
0.2379
 20
-0.4000
 30
0.0000
  0
VERTEX
  8
0
 10
-0.2379
 20
-0.4000
 30
0.0000
 42
1.0000
  0
VERTEX
  8
0
 10
-0.2379
 20
-0.5000
 30
0.0000
  0
VERTEX
  8
0
 10
0.2379
 20
-0.5000
 30
0.0000
 42
1.0000
  0
SEQEND
  8
0
  0
POLYLINE
  8
0
 66
1
 10
0.0000
 20
0.0000
 30
0.0000
 40
0.0000
 41
0.0000
 70
1
  0
VERTEX
  8
0
 10
-0.4000
 20
-0.2379
 30
0.0000
  0
VERTEX
  8
0
 10
-0.4000
 20
0.2379
 30
0.0000
 42
1.0000
  0
VERTEX
  8
0
 10
-0.5000
 20
0.2379
 30
0.0000
  0
VERTEX
  8
0
 10
-0.5000
 20
-0.2379
 30
0.0000
 42
1.0000
  0
SEQEND
  8
0
  0
ENDBLK
  8
0
  0
BLOCK
  8
0
  2
LONGP100
 70
64
 10
0.0000
 20
0.0000
 30
0.0000
  3
LONGP100
  0
POLYLINE
  8
0
 66
1
 10
0.0000
 20
0.0000
 30
0.0000
 40
0.0000
 41
0.0000
 70
1
  0
VERTEX
  8
0
 10
-0.5000
 20
-0.5000
 30
0.0000
  0
VERTEX
  8
0
 10
0.5000
 20
-0.5000
 30
0.0000
 42
1.0000
  0
VERTEX
  8
0
 10
0.5000
 20
0.5000
 30
0.0000
  0
VERTEX
  8
0
 10
-0.5000
 20
0.5000
 30
0.0000
 42
1.0000
  0
SEQEND
  8
0
  0
ENDBLK
  8
0
  0
ENDSEC
  0
SECTION
  2
ENTITIES
  0
LINE
  8
20
 10
0.0000
 20
0.0000
 30
0.0000
 11
100.0000
 21
0.0000
 31
0.0000
  0
LINE
  8
20
 10
100.0000
 20
0.0000
 30
0.0000
 11
100.0000
 21
80.0000
 31
0.0000
  0
LINE
  8
20
 10
100.0000
 20
80.0000
 30
0.0000
 11
0.0000
 21
80.0000
 31
0.0000
  0
LINE
  8
20
 10
0.0000
 20
80.0000
 30
0.0000
 11
0.0000
 21
0.0000
 31
0.0000
  0
POLYLINE
  8
20
 66
1
 10
0.0000
 20
0.0000
 30
0.0000
 40
0.0000
 41
0.0000
 70
1
  0
VERTEX
  8
20
 10
24.8610
 20
50.0615
 30
0.0000
  0
VERTEX
  8
20
 10
15.5864
 20
59.3361
 30
0.0000
 42
1.0000
  0
VERTEX
  8
20
 10
15.5857
 20
59.3354
 30
0.0000
  0
VERTEX
  8
20
 10
24.8602
 20
50.0608
 30
0.0000
 42
1.0000
  0
SEQEND
  8
0
  0
POLYLINE
  8
20
 66
1
 10
0.0000
 20
0.0000
 30
0.0000
 40
0.0000
 41
0.0000
 70
1
  0
VERTEX
  8
20
 10
64.7669
 20
41.5664
 30
0.0000
 42
1.0000
  0
VERTEX
  8
20
 10
64.7679
 20
41.5664
 30
0.0000
 42
1.0000
  0
VERTEX
  8
20
 10
62.7669
 20
41.5664
 30
0.0000
 42
1.0000
  0
VERTEX
  8
20
 10
62.7679
 20
41.5664
 30
0.0000
 42
-1.0000
  0
SEQEND
  8
0
  0
POLYLINE
  8
20
 66
1
 10
0.0000
 20
0.0000
 30
0.0000
 40
0.0000
 41
0.0000
 70
1
  0
VERTEX
  8
20
 10
64.7679
 20
35.5664
 30
0.0000
  0
VERTEX
  8
20
 10
64.7679
 20
41.5664
 30
0.0000
 42
1.0000
  0
VERTEX
  8
20
 10
64.7669
 20
41.5664
 30
0.0000
  0
VERTEX
  8
20
 10
64.7669
 20
35.5664
 30
0.0000
 42
1.0000
  0
SEQEND
  8
0
  0
POLYLINE
  8
20
 66
1
 10
0.0000
 20
0.0000
 30
0.0000
 40
0.0000
 41
0.0000
 70
1
  0
VERTEX
  8
20
 10
62.7679
 20
35.5664
 30
0.0000
 42
1.0000
  0
VERTEX
  8
20
 10
62.7669
 20
35.5664
 30
0.0000
 42
1.0000
  0
VERTEX
  8
20
 10
64.7679
 20
35.5664
 30
0.0000
 42
1.0000
  0
VERTEX
  8
20
 10
64.7669
 20
35.5664
 30
0.0000
 42
-1.0000
  0
SEQEND
  8
0
  0
POLYLINE
  8
20
 66
1
 10
0.0000
 20
0.0000
 30
0.0000
 40
0.0000
 41
0.0000
 70
1
  0
VERTEX
  8
20
 10
60.2674
 20
35.5659
 30
0.0000
  0
VERTEX
  8
20
 10
62.7674
 20
35.5659
 30
0.0000
 42
1.0000
  0
VERTEX
  8
20
 10
62.7674
 20
35.5669
 30
0.0000
  0
VERTEX
  8
20
 10
60.2674
 20
35.5669
 30
0.0000
 42
1.0000
  0
SEQEND
  8
0
  0
POLYLINE
  8
20
 66
1
 10
0.0000
 20
0.0000
 30
0.0000
 40
0.0000
 41
0.0000
 70
1
  0
VERTEX
  8
20
 10
58.2679
 20
35.5664
 30
0.0000
 42
1.0000
  0
VERTEX
  8
20
 10
58.2669
 20
35.5664
 30
0.0000
 42
1.0000
  0
VERTEX
  8
20
 10
60.2679
 20
35.5664
 30
0.0000
 42
1.0000
  0
VERTEX
  8
20
 10
60.2669
 20
35.5664
 30
0.0000
 42
-1.0000
  0
SEQEND
  8
0
  0
POLYLINE
  8
20
 66
1
 10
0.0000
 20
0.0000
 30
0.0000
 40
0.0000
 41
0.0000
 70
1
  0
VERTEX
  8
20
 10
58.2669
 20
41.5664
 30
0.0000
  0
VERTEX
  8
20
 10
58.2669
 20
35.5664
 30
0.0000
 42
1.0000
  0
VERTEX
  8
20
 10
58.2679
 20
35.5664
 30
0.0000
  0
VERTEX
  8
20
 10
58.2679
 20
41.5664
 30
0.0000
 42
1.0000
  0
SEQEND
  8
0
  0
POLYLINE
  8
20
 66
1
 10
0.0000
 20
0.0000
 30
0.0000
 40
0.0000
 41
0.0000
 70
1
  0
VERTEX
  8
20
 10
60.2669
 20
41.5664
 30
0.0000
 42
1.0000
  0
VERTEX
  8
20
 10
60.2679
 20
41.5664
 30
0.0000
 42
1.0000
  0
VERTEX
  8
20
 10
58.2669
 20
41.5664
 30
0.0000
 42
1.0000
  0
VERTEX
  8
20
 10
58.2679
 20
41.5664
 30
0.0000
 42
-1.0000
  0
SEQEND
  8
0
  0
POLYLINE
  8
20
 66
1
 10
0.0000
 20
0.0000
 30
0.0000
 40
0.0000
 41
0.0000
 70
1
  0
VERTEX
  8
20
 10
62.7674
 20
41.5669
 30
0.0000
  0
VERTEX
  8
20
 10
60.2674
 20
41.5669
 30
0.0000
 42
1.0000
  0
VERTEX
  8
20
 10
60.2674
 20
41.5659
 30
0.0000
  0
VERTEX
  8
20
 10
62.7674
 20
41.5659
 30
0.0000
 42
1.0000
  0
SEQEND
  8
0
  0
POLYLINE
  8
20
 66
1
 10
0.0000
 20
0.0000
 30
0.0000
 40
0.0000
 41
0.0000
 70
1
  0
VERTEX
  8
20
 10
50.3140
 20
21.1135
 30
0.0000
 42
1.0000
  0
VERTEX
  8
20
 10
50.3140
 20
21.1125
 30
0.0000
 42
1.0000
  0
VERTEX
  8
20
 10
50.3140
 20
23.1135
 30
0.0000
 42
1.0000
  0
VERTEX
  8
20
 10
50.3140
 20
23.1125
 30
0.0000
 42
-1.0000
  0
SEQEND
  8
0
  0
POLYLINE
  8
20
 66
1
 10
0.0000
 20
0.0000
 30
0.0000
 40
0.0000
 41
0.0000
 70
1
  0
VERTEX
  8
20
 10
44.3140
 20
21.1125
 30
0.0000
  0
VERTEX
  8
20
 10
50.3140
 20
21.1125
 30
0.0000
 42
1.0000
  0
VERTEX
  8
20
 10
50.3140
 20
21.1135
 30
0.0000
  0
VERTEX
  8
20
 10
44.3140
 20
21.1135
 30
0.0000
 42
1.0000
  0
SEQEND
  8
0
  0
POLYLINE
  8
20
 66
1
 10
0.0000
 20
0.0000
 30
0.0000
 40
0.0000
 41
0.0000
 70
1
  0
VERTEX
  8
20
 10
44.3140
 20
23.1125
 30
0.0000
 42
1.0000
  0
VERTEX
  8
20
 10
44.3140
 20
23.1135
 30
0.0000
 42
1.0000
  0
VERTEX
  8
20
 10
44.3140
 20
21.1125
 30
0.0000
 42
1.0000
  0
VERTEX
  8
20
 10
44.3140
 20
21.1135
 30
0.0000
 42
-1.0000
  0
SEQEND
  8
0
  0
POLYLINE
  8
20
 66
1
 10
0.0000
 20
0.0000
 30
0.0000
 40
0.0000
 41
0.0000
 70
1
  0
VERTEX
  8
20
 10
44.3135
 20
25.6130
 30
0.0000
  0
VERTEX
  8
20
 10
44.3135
 20
23.1130
 30
0.0000
 42
1.0000
  0
VERTEX
  8
20
 10
44.3145
 20
23.1130
 30
0.0000
  0
VERTEX
  8
20
 10
44.3145
 20
25.6130
 30
0.0000
 42
1.0000
  0
SEQEND
  8
0
  0
POLYLINE
  8
20
 66
1
 10
0.0000
 20
0.0000
 30
0.0000
 40
0.0000
 41
0.0000
 70
1
  0
VERTEX
  8
20
 10
44.3140
 20
27.6125
 30
0.0000
 42
1.0000
  0
VERTEX
  8
20
 10
44.3140
 20
27.6135
 30
0.0000
 42
1.0000
  0
VERTEX
  8
20
 10
44.3140
 20
25.6125
 30
0.0000
 42
1.0000
  0
VERTEX
  8
20
 10
44.3140
 20
25.6135
 30
0.0000
 42
-1.0000
  0
SEQEND
  8
0
  0
POLYLINE
  8
20
 66
1
 10
0.0000
 20
0.0000
 30
0.0000
 40
0.0000
 41
0.0000
 70
1
  0
VERTEX
  8
20
 10
50.3140
 20
27.6135
 30
0.0000
  0
VERTEX
  8
20
 10
44.3140
 20
27.6135
 30
0.0000
 42
1.0000
  0
VERTEX
  8
20
 10
44.3140
 20
27.6125
 30
0.0000
  0
VERTEX
  8
20
 10
50.3140
 20
27.6125
 30
0.0000
 42
1.0000
  0
SEQEND
  8
0
  0
POLYLINE
  8
20
 66
1
 10
0.0000
 20
0.0000
 30
0.0000
 40
0.0000
 41
0.0000
 70
1
  0
VERTEX
  8
20
 10
50.3140
 20
25.6135
 30
0.0000
 42
1.0000
  0
VERTEX
  8
20
 10
50.3140
 20
25.6125
 30
0.0000
 42
1.0000
  0
VERTEX
  8
20
 10
50.3140
 20
27.6135
 30
0.0000
 42
1.0000
  0
VERTEX
  8
20
 10
50.3140
 20
27.6125
 30
0.0000
 42
-1.0000
  0
SEQEND
  8
0
  0
POLYLINE
  8
20
 66
1
 10
0.0000
 20
0.0000
 30
0.0000
 40
0.0000
 41
0.0000
 70
1
  0
VERTEX
  8
20
 10
50.3145
 20
23.1130
 30
0.0000
  0
VERTEX
  8
20
 10
50.3145
 20
25.6130
 30
0.0000
 42
1.0000
  0
VERTEX
  8
20
 10
50.3135
 20
25.6130
 30
0.0000
  0
VERTEX
  8
20
 10
50.3135
 20
23.1130
 30
0.0000
 42
1.0000
  0
SEQEND
  8
0
  0
POLYLINE
  8
20
 66
1
 10
0.0000
 20
0.0000
 30
0.0000
 40
0.0000
 41
0.0000
 70
1
  0
VERTEX
  8
20
 10
44.3140
 20
51.5193
 30
0.0000
 42
1.0000
  0
VERTEX
  8
20
 10
44.3140
 20
51.5203
 30
0.0000
 42
1.0000
  0
VERTEX
  8
20
 10
44.3140
 20
49.5193
 30
0.0000
 42
1.0000
  0
VERTEX
  8
20
 10
44.3140
 20
49.5203
 30
0.0000
 42
-1.0000
  0
SEQEND
  8
0
  0
POLYLINE
  8
20
 66
1
 10
0.0000
 20
0.0000
 30
0.0000
 40
0.0000
 41
0.0000
 70
1
  0
VERTEX
  8
20
 10
50.3140
 20
49.5203
 30
0.0000
  0
VERTEX
  8
20
 10
44.3140
 20
49.5203
 30
0.0000
 42
1.0000
  0
VERTEX
  8
20
 10
44.3140
 20
49.5193
 30
0.0000
  0
VERTEX
  8
20
 10
50.3140
 20
49.5193
 30
0.0000
 42
1.0000
  0
SEQEND
  8
0
  0
POLYLINE
  8
20
 66
1
 10
0.0000
 20
0.0000
 30
0.0000
 40
0.0000
 41
0.0000
 70
1
  0
VERTEX
  8
20
 10
50.3140
 20
49.5203
 30
0.0000
 42
1.0000
  0
VERTEX
  8
20
 10
50.3140
 20
49.5193
 30
0.0000
 42
1.0000
  0
VERTEX
  8
20
 10
50.3140
 20
51.5203
 30
0.0000
 42
1.0000
  0
VERTEX
  8
20
 10
50.3140
 20
51.5193
 30
0.0000
 42
-1.0000
  0
SEQEND
  8
0
  0
POLYLINE
  8
20
 66
1
 10
0.0000
 20
0.0000
 30
0.0000
 40
0.0000
 41
0.0000
 70
1
  0
VERTEX
  8
20
 10
50.3135
 20
54.0198
 30
0.0000
  0
VERTEX
  8
20
 10
50.3135
 20
51.5198
 30
0.0000
 42
1.0000
  0
VERTEX
  8
20
 10
50.3145
 20
51.5198
 30
0.0000
  0
VERTEX
  8
20
 10
50.3145
 20
54.0198
 30
0.0000
 42
1.0000
  0
SEQEND
  8
0
  0
POLYLINE
  8
20
 66
1
 10
0.0000
 20
0.0000
 30
0.0000
 40
0.0000
 41
0.0000
 70
1
  0
VERTEX
  8
20
 10
50.3140
 20
54.0203
 30
0.0000
 42
1.0000
  0
VERTEX
  8
20
 10
50.3140
 20
54.0193
 30
0.0000
 42
1.0000
  0
VERTEX
  8
20
 10
50.3140
 20
56.0203
 30
0.0000
 42
1.0000
  0
VERTEX
  8
20
 10
50.3140
 20
56.0193
 30
0.0000
 42
-1.0000
  0
SEQEND
  8
0
  0
POLYLINE
  8
20
 66
1
 10
0.0000
 20
0.0000
 30
0.0000
 40
0.0000
 41
0.0000
 70
1
  0
VERTEX
  8
20
 10
44.3140
 20
56.0193
 30
0.0000
  0
VERTEX
  8
20
 10
50.3140
 20
56.0193
 30
0.0000
 42
1.0000
  0
VERTEX
  8
20
 10
50.3140
 20
56.0203
 30
0.0000
  0
VERTEX
  8
20
 10
44.3140
 20
56.0203
 30
0.0000
 42
1.0000
  0
SEQEND
  8
0
  0
POLYLINE
  8
20
 66
1
 10
0.0000
 20
0.0000
 30
0.0000
 40
0.0000
 41
0.0000
 70
1
  0
VERTEX
  8
20
 10
44.3140
 20
56.0193
 30
0.0000
 42
1.0000
  0
VERTEX
  8
20
 10
44.3140
 20
56.0203
 30
0.0000
 42
1.0000
  0
VERTEX
  8
20
 10
44.3140
 20
54.0193
 30
0.0000
 42
1.0000
  0
VERTEX
  8
20
 10
44.3140
 20
54.0203
 30
0.0000
 42
-1.0000
  0
SEQEND
  8
0
  0
POLYLINE
  8
20
 66
1
 10
0.0000
 20
0.0000
 30
0.0000
 40
0.0000
 41
0.0000
 70
1
  0
VERTEX
  8
20
 10
44.3145
 20
51.5198
 30
0.0000
  0
VERTEX
  8
20
 10
44.3145
 20
54.0198
 30
0.0000
 42
1.0000
  0
VERTEX
  8
20
 10
44.3135
 20
54.0198
 30
0.0000
  0
VERTEX
  8
20
 10
44.3135
 20
51.5198
 30
0.0000
 42
1.0000
  0
SEQEND
  8
0
  0
POLYLINE
  8
20
 66
1
 10
0.0000
 20
0.0000
 30
0.0000
 40
0.0000
 41
0.0000
 70
1
  0
VERTEX
  8
20
 10
34.3611
 20
35.5664
 30
0.0000
 42
1.0000
  0
VERTEX
  8
20
 10
34.3601
 20
35.5664
 30
0.0000
 42
1.0000
  0
VERTEX
  8
20
 10
36.3611
 20
35.5664
 30
0.0000
 42
1.0000
  0
VERTEX
  8
20
 10
36.3601
 20
35.5664
 30
0.0000
 42
-1.0000
  0
SEQEND
  8
0
  0
POLYLINE
  8
20
 66
1
 10
0.0000
 20
0.0000
 30
0.0000
 40
0.0000
 41
0.0000
 70
1
  0
VERTEX
  8
20
 10
36.3601
 20
41.5664
 30
0.0000
  0
VERTEX
  8
20
 10
36.3601
 20
35.5664
 30
0.0000
 42
1.0000
  0
VERTEX
  8
20
 10
36.3611
 20
35.5664
 30
0.0000
  0
VERTEX
  8
20
 10
36.3611
 20
41.5664
 30
0.0000
 42
1.0000
  0
SEQEND
  8
0
  0
POLYLINE
  8
20
 66
1
 10
0.0000
 20
0.0000
 30
0.0000
 40
0.0000
 41
0.0000
 70
1
  0
VERTEX
  8
20
 10
36.3601
 20
41.5664
 30
0.0000
 42
1.0000
  0
VERTEX
  8
20
 10
36.3611
 20
41.5664
 30
0.0000
 42
1.0000
  0
VERTEX
  8
20
 10
34.3601
 20
41.5664
 30
0.0000
 42
1.0000
  0
VERTEX
  8
20
 10
34.3611
 20
41.5664
 30
0.0000
 42
-1.0000
  0
SEQEND
  8
0
  0
POLYLINE
  8
20
 66
1
 10
0.0000
 20
0.0000
 30
0.0000
 40
0.0000
 41
0.0000
 70
1
  0
VERTEX
  8
20
 10
31.8606
 20
41.5659
 30
0.0000
  0
VERTEX
  8
20
 10
34.3606
 20
41.5659
 30
0.0000
 42
1.0000
  0
VERTEX
  8
20
 10
34.3606
 20
41.5669
 30
0.0000
  0
VERTEX
  8
20
 10
31.8606
 20
41.5669
 30
0.0000
 42
1.0000
  0
SEQEND
  8
0
  0
POLYLINE
  8
20
 66
1
 10
0.0000
 20
0.0000
 30
0.0000
 40
0.0000
 41
0.0000
 70
1
  0
VERTEX
  8
20
 10
31.8601
 20
41.5664
 30
0.0000
 42
1.0000
  0
VERTEX
  8
20
 10
31.8611
 20
41.5664
 30
0.0000
 42
1.0000
  0
VERTEX
  8
20
 10
29.8601
 20
41.5664
 30
0.0000
 42
1.0000
  0
VERTEX
  8
20
 10
29.8611
 20
41.5664
 30
0.0000
 42
-1.0000
  0
SEQEND
  8
0
  0
POLYLINE
  8
20
 66
1
 10
0.0000
 20
0.0000
 30
0.0000
 40
0.0000
 41
0.0000
 70
1
  0
VERTEX
  8
20
 10
29.8611
 20
35.5664
 30
0.0000
  0
VERTEX
  8
20
 10
29.8611
 20
41.5664
 30
0.0000
 42
1.0000
  0
VERTEX
  8
20
 10
29.8601
 20
41.5664
 30
0.0000
  0
VERTEX
  8
20
 10
29.8601
 20
35.5664
 30
0.0000
 42
1.0000
  0
SEQEND
  8
0
  0
POLYLINE
  8
20
 66
1
 10
0.0000
 20
0.0000
 30
0.0000
 40
0.0000
 41
0.0000
 70
1
  0
VERTEX
  8
20
 10
29.8611
 20
35.5664
 30
0.0000
 42
1.0000
  0
VERTEX
  8
20
 10
29.8601
 20
35.5664
 30
0.0000
 42
1.0000
  0
VERTEX
  8
20
 10
31.8611
 20
35.5664
 30
0.0000
 42
1.0000
  0
VERTEX
  8
20
 10
31.8601
 20
35.5664
 30
0.0000
 42
-1.0000
  0
SEQEND
  8
0
  0
POLYLINE
  8
20
 66
1
 10
0.0000
 20
0.0000
 30
0.0000
 40
0.0000
 41
0.0000
 70
1
  0
VERTEX
  8
20
 10
34.3606
 20
35.5669
 30
0.0000
  0
VERTEX
  8
20
 10
31.8606
 20
35.5669
 30
0.0000
 42
1.0000
  0
VERTEX
  8
20
 10
31.8606
 20
35.5659
 30
0.0000
  0
VERTEX
  8
20
 10
34.3606
 20
35.5659
 30
0.0000
 42
1.0000
  0
SEQEND
  8
0
  0
POLYLINE
  8
20
 66
1
 10
0.0000
 20
0.0000
 30
0.0000
 40
0.0000
 41
0.0000
 70
1
  0
VERTEX
  8
20
 10
15.5864
 20
17.7967
 30
0.0000
  0
VERTEX
  8
20
 10
24.8610
 20
27.0713
 30
0.0000
 42
1.0000
  0
VERTEX
  8
20
 10
24.8602
 20
27.0720
 30
0.0000
  0
VERTEX
  8
20
 10
15.5857
 20
17.7974
 30
0.0000
 42
1.0000
  0
SEQEND
  8
0
  0
POLYLINE
  8
20
 66
1
 10
0.0000
 20
0.0000
 30
0.0000
 40
0.0000
 41
0.0000
 70
1
  0
VERTEX
  8
20
 10
15.5864
 20
17.7967
 30
0.0000
 42
1.0000
  0
VERTEX
  8
20
 10
15.5857
 20
17.7974
 30
0.0000
 42
1.0000
  0
VERTEX
  8
20
 10
26.5450
 20
6.8381
 30
0.0000
 42
1.0000
  0
VERTEX
  8
20
 10
26.5443
 20
6.8388
 30
0.0000
 42
-1.0000
  0
SEQEND
  8
0
  0
POLYLINE
  8
20
 66
1
 10
0.0000
 20
0.0000
 30
0.0000
 40
0.0000
 41
0.0000
 70
1
  0
VERTEX
  8
20
 10
35.8189
 20
16.1134
 30
0.0000
  0
VERTEX
  8
20
 10
26.5443
 20
6.8388
 30
0.0000
 42
1.0000
  0
VERTEX
  8
20
 10
26.5450
 20
6.8381
 30
0.0000
  0
VERTEX
  8
20
 10
35.8196
 20
16.1126
 30
0.0000
 42
1.0000
  0
SEQEND
  8
0
  0
POLYLINE
  8
20
 66
1
 10
0.0000
 20
0.0000
 30
0.0000
 40
0.0000
 41
0.0000
 70
1
  0
VERTEX
  8
20
 10
58.8088
 20
16.1135
 30
0.0000
  0
VERTEX
  8
20
 10
35.8192
 20
16.1135
 30
0.0000
 42
1.0000
  0
VERTEX
  8
20
 10
35.8192
 20
16.1125
 30
0.0000
  0
VERTEX
  8
20
 10
58.8088
 20
16.1125
 30
0.0000
 42
1.0000
  0
SEQEND
  8
0
  0
POLYLINE
  8
20
 66
1
 10
0.0000
 20
0.0000
 30
0.0000
 40
0.0000
 41
0.0000
 70
1
  0
VERTEX
  8
20
 10
68.0837
 20
6.8388
 30
0.0000
  0
VERTEX
  8
20
 10
58.8091
 20
16.1134
 30
0.0000
 42
1.0000
  0
VERTEX
  8
20
 10
58.8084
 20
16.1126
 30
0.0000
  0
VERTEX
  8
20
 10
68.0830
 20
6.8381
 30
0.0000
 42
1.0000
  0
SEQEND
  8
0
  0
POLYLINE
  8
20
 66
1
 10
0.0000
 20
0.0000
 30
0.0000
 40
0.0000
 41
0.0000
 70
1
  0
VERTEX
  8
20
 10
68.0837
 20
6.8388
 30
0.0000
 42
1.0000
  0
VERTEX
  8
20
 10
68.0830
 20
6.8381
 30
0.0000
 42
1.0000
  0
VERTEX
  8
20
 10
79.0423
 20
17.7974
 30
0.0000
 42
1.0000
  0
VERTEX
  8
20
 10
79.0416
 20
17.7967
 30
0.0000
 42
-1.0000
  0
SEQEND
  8
0
  0
POLYLINE
  8
20
 66
1
 10
0.0000
 20
0.0000
 30
0.0000
 40
0.0000
 41
0.0000
 70
1
  0
VERTEX
  8
20
 10
69.7671
 20
27.0713
 30
0.0000
  0
VERTEX
  8
20
 10
79.0416
 20
17.7967
 30
0.0000
 42
1.0000
  0
VERTEX
  8
20
 10
79.0423
 20
17.7974
 30
0.0000
  0
VERTEX
  8
20
 10
69.7678
 20
27.0720
 30
0.0000
 42
1.0000
  0
SEQEND
  8
0
  0
POLYLINE
  8
20
 66
1
 10
0.0000
 20
0.0000
 30
0.0000
 40
0.0000
 41
0.0000
 70
1
  0
VERTEX
  8
20
 10
69.7669
 20
50.0612
 30
0.0000
  0
VERTEX
  8
20
 10
69.7669
 20
27.0716
 30
0.0000
 42
1.0000
  0
VERTEX
  8
20
 10
69.7679
 20
27.0716
 30
0.0000
  0
VERTEX
  8
20
 10
69.7679
 20
50.0612
 30
0.0000
 42
1.0000
  0
SEQEND
  8
0
  0
POLYLINE
  8
20
 66
1
 10
0.0000
 20
0.0000
 30
0.0000
 40
0.0000
 41
0.0000
 70
1
  0
VERTEX
  8
20
 10
79.0416
 20
59.3361
 30
0.0000
  0
VERTEX
  8
20
 10
69.7671
 20
50.0615
 30
0.0000
 42
1.0000
  0
VERTEX
  8
20
 10
69.7678
 20
50.0608
 30
0.0000
  0
VERTEX
  8
20
 10
79.0423
 20
59.3354
 30
0.0000
 42
1.0000
  0
SEQEND
  8
0
  0
POLYLINE
  8
20
 66
1
 10
0.0000
 20
0.0000
 30
0.0000
 40
0.0000
 41
0.0000
 70
1
  0
VERTEX
  8
20
 10
79.0416
 20
59.3361
 30
0.0000
 42
1.0000
  0
VERTEX
  8
20
 10
79.0423
 20
59.3354
 30
0.0000
 42
1.0000
  0
VERTEX
  8
20
 10
68.0830
 20
70.2947
 30
0.0000
 42
1.0000
  0
VERTEX
  8
20
 10
68.0837
 20
70.2940
 30
0.0000
 42
-1.0000
  0
SEQEND
  8
0
  0
POLYLINE
  8
20
 66
1
 10
0.0000
 20
0.0000
 30
0.0000
 40
0.0000
 41
0.0000
 70
1
  0
VERTEX
  8
20
 10
58.8091
 20
61.0195
 30
0.0000
  0
VERTEX
  8
20
 10
68.0837
 20
70.2940
 30
0.0000
 42
1.0000
  0
VERTEX
  8
20
 10
68.0830
 20
70.2947
 30
0.0000
  0
VERTEX
  8
20
 10
58.8084
 20
61.0202
 30
0.0000
 42
1.0000
  0
SEQEND
  8
0
  0
POLYLINE
  8
20
 66
1
 10
0.0000
 20
0.0000
 30
0.0000
 40
0.0000
 41
0.0000
 70
1
  0
VERTEX
  8
20
 10
35.8192
 20
61.0193
 30
0.0000
  0
VERTEX
  8
20
 10
58.8088
 20
61.0193
 30
0.0000
 42
1.0000
  0
VERTEX
  8
20
 10
58.8088
 20
61.0203
 30
0.0000
  0
VERTEX
  8
20
 10
35.8192
 20
61.0203
 30
0.0000
 42
1.0000
  0
SEQEND
  8
0
  0
POLYLINE
  8
20
 66
1
 10
0.0000
 20
0.0000
 30
0.0000
 40
0.0000
 41
0.0000
 70
1
  0
VERTEX
  8
20
 10
26.5443
 20
70.2940
 30
0.0000
  0
VERTEX
  8
20
 10
35.8189
 20
61.0195
 30
0.0000
 42
1.0000
  0
VERTEX
  8
20
 10
35.8196
 20
61.0202
 30
0.0000
  0
VERTEX
  8
20
 10
26.5450
 20
70.2947
 30
0.0000
 42
1.0000
  0
SEQEND
  8
0
  0
POLYLINE
  8
20
 66
1
 10
0.0000
 20
0.0000
 30
0.0000
 40
0.0000
 41
0.0000
 70
1
  0
VERTEX
  8
20
 10
26.5443
 20
70.2940
 30
0.0000
 42
1.0000
  0
VERTEX
  8
20
 10
26.5450
 20
70.2947
 30
0.0000
 42
1.0000
  0
VERTEX
  8
20
 10
15.5857
 20
59.3354
 30
0.0000
 42
1.0000
  0
VERTEX
  8
20
 10
15.5864
 20
59.3361
 30
0.0000
 42
-1.0000
  0
SEQEND
  8
0
  0
POLYLINE
  8
20
 66
1
 10
0.0000
 20
0.0000
 30
0.0000
 40
0.0000
 41
0.0000
 70
1
  0
VERTEX
  8
20
 10
24.8611
 20
27.0716
 30
0.0000
  0
VERTEX
  8
20
 10
24.8611
 20
50.0612
 30
0.0000
 42
1.0000
  0
VERTEX
  8
20
 10
24.8601
 20
50.0612
 30
0.0000
  0
VERTEX
  8
20
 10
24.8601
 20
27.0716
 30
0.0000
 42
1.0000
  0
SEQEND
  8
0
  0
CIRCLE
  8
20
 10
47.3140
 20
38.5664
 30
0.0000
 40
3.8095
  0
CIRCLE
  8
20
 10
47.3140
 20
38.5664
 30
0.0000
 40
3.8105
  0
CIRCLE
  8
20
 10
74.2744
 20
11.6060
 30
0.0000
 40
3.8095
  0
CIRCLE
  8
20
 10
74.2744
 20
11.6060
 30
0.0000
 40
3.8105
  0
CIRCLE
  8
20
 10
65.2856
 20
20.5948
 30
0.0000
 40
3.8095
  0
CIRCLE
  8
20
 10
65.2856
 20
20.5948
 30
0.0000
 40
3.8105
  0
CIRCLE
  8
20
 10
56.3013
 20
29.5791
 30
0.0000
 40
3.8095
  0
CIRCLE
  8
20
 10
56.3013
 20
29.5791
 30
0.0000
 40
3.8105
  0
CIRCLE
  8
20
 10
74.2744
 20
65.5268
 30
0.0000
 40
3.8095
  0
CIRCLE
  8
20
 10
74.2744
 20
65.5268
 30
0.0000
 40
3.8105
  0
CIRCLE
  8
20
 10
65.2856
 20
56.5380
 30
0.0000
 40
3.8095
  0
CIRCLE
  8
20
 10
65.2856
 20
56.5380
 30
0.0000
 40
3.8105
  0
CIRCLE
  8
20
 10
56.3013
 20
47.5537
 30
0.0000
 40
3.8095
  0
CIRCLE
  8
20
 10
56.3013
 20
47.5537
 30
0.0000
 40
3.8105
  0
CIRCLE
  8
20
 10
38.3312
 20
29.5836
 30
0.0000
 40
3.8095
  0
CIRCLE
  8
20
 10
38.3312
 20
29.5836
 30
0.0000
 40
3.8105
  0
CIRCLE
  8
20
 10
29.3424
 20
20.5948
 30
0.0000
 40
3.8095
  0
CIRCLE
  8
20
 10
29.3424
 20
20.5948
 30
0.0000
 40
3.8105
  0
CIRCLE
  8
20
 10
20.3536
 20
11.6060
 30
0.0000
 40
3.8095
  0
CIRCLE
  8
20
 10
20.3536
 20
11.6060
 30
0.0000
 40
3.8105
  0
CIRCLE
  8
20
 10
38.3312
 20
47.5492
 30
0.0000
 40
3.8095
  0
CIRCLE
  8
20
 10
38.3312
 20
47.5492
 30
0.0000
 40
3.8105
  0
CIRCLE
  8
20
 10
29.3424
 20
56.5380
 30
0.0000
 40
3.8095
  0
CIRCLE
  8
20
 10
29.3424
 20
56.5380
 30
0.0000
 40
3.8105
  0
CIRCLE
  8
20
 10
20.3536
 20
65.5268
 30
0.0000
 40
3.8095
  0
CIRCLE
  8
20
 10
20.3536
 20
65.5268
 30
0.0000
 40
3.8105
  0
CIRCLE
  8
20
 10
19.1445
 20
64.3176
 30
0.0000
 40
0.9995
  0
CIRCLE
  8
20
 10
19.1445
 20
64.3176
 30
0.0000
 40
1.0005
  0
CIRCLE
  8
20
 10
21.5628
 20
66.7359
 30
0.0000
 40
0.9995
  0
CIRCLE
  8
20
 10
21.5628
 20
66.7359
 30
0.0000
 40
1.0005
  0
CIRCLE
  8
20
 10
30.5516
 20
57.7471
 30
0.0000
 40
0.9995
  0
CIRCLE
  8
20
 10
30.5516
 20
57.7471
 30
0.0000
 40
1.0005
  0
CIRCLE
  8
20
 10
28.1333
 20
55.3288
 30
0.0000
 40
0.9995
  0
CIRCLE
  8
20
 10
28.1333
 20
55.3288
 30
0.0000
 40
1.0005
  0
CIRCLE
  8
20
 10
39.5404
 20
48.7583
 30
0.0000
 40
0.9995
  0
CIRCLE
  8
20
 10
39.5404
 20
48.7583
 30
0.0000
 40
1.0005
  0
CIRCLE
  8
20
 10
37.1221
 20
46.3400
 30
0.0000
 40
0.9995
  0
CIRCLE
  8
20
 10
37.1221
 20
46.3400
 30
0.0000
 40
1.0005
  0
CIRCLE
  8
20
 10
48.5232
 20
39.7756
 30
0.0000
 40
0.9995
  0
CIRCLE
  8
20
 10
48.5232
 20
39.7756
 30
0.0000
 40
1.0005
  0
CIRCLE
  8
20
 10
46.1048
 20
37.3573
 30
0.0000
 40
0.9995
  0
CIRCLE
  8
20
 10
46.1048
 20
37.3573
 30
0.0000
 40
1.0005
  0
CIRCLE
  8
20
 10
57.5105
 20
30.7883
 30
0.0000
 40
0.9995
  0
CIRCLE
  8
20
 10
57.5105
 20
30.7883
 30
0.0000
 40
1.0005
  0
CIRCLE
  8
20
 10
55.0921
 20
28.3700
 30
0.0000
 40
0.9995
  0
CIRCLE
  8
20
 10
55.0921
 20
28.3700
 30
0.0000
 40
1.0005
  0
CIRCLE
  8
20
 10
66.4947
 20
21.8040
 30
0.0000
 40
0.9995
  0
CIRCLE
  8
20
 10
66.4947
 20
21.8040
 30
0.0000
 40
1.0005
  0
CIRCLE
  8
20
 10
64.0764
 20
19.3857
 30
0.0000
 40
0.9995
  0
CIRCLE
  8
20
 10
64.0764
 20
19.3857
 30
0.0000
 40
1.0005
  0
CIRCLE
  8
20
 10
75.4835
 20
12.8152
 30
0.0000
 40
0.9995
  0
CIRCLE
  8
20
 10
75.4835
 20
12.8152
 30
0.0000
 40
1.0005
  0
CIRCLE
  8
20
 10
73.0652
 20
10.3969
 30
0.0000
 40
0.9995
  0
CIRCLE
  8
20
 10
73.0652
 20
10.3969
 30
0.0000
 40
1.0005
  0
CIRCLE
  8
20
 10
19.1445
 20
12.8152
 30
0.0000
 40
0.9995
  0
CIRCLE
  8
20
 10
19.1445
 20
12.8152
 30
0.0000
 40
1.0005
  0
CIRCLE
  8
20
 10
21.5628
 20
10.3969
 30
0.0000
 40
0.9995
  0
CIRCLE
  8
20
 10
21.5628
 20
10.3969
 30
0.0000
 40
1.0005
  0
CIRCLE
  8
20
 10
30.5516
 20
19.3857
 30
0.0000
 40
0.9995
  0
CIRCLE
  8
20
 10
30.5516
 20
19.3857
 30
0.0000
 40
1.0005
  0
CIRCLE
  8
20
 10
28.1333
 20
21.8040
 30
0.0000
 40
0.9995
  0
CIRCLE
  8
20
 10
28.1333
 20
21.8040
 30
0.0000
 40
1.0005
  0
CIRCLE
  8
20
 10
39.5404
 20
28.3745
 30
0.0000
 40
0.9995
  0
CIRCLE
  8
20
 10
39.5404
 20
28.3745
 30
0.0000
 40
1.0005
  0
CIRCLE
  8
20
 10
37.1221
 20
30.7928
 30
0.0000
 40
0.9995
  0
CIRCLE
  8
20
 10
37.1221
 20
30.7928
 30
0.0000
 40
1.0005
  0
CIRCLE
  8
20
 10
57.5105
 20
46.3445
 30
0.0000
 40
0.9995
  0
CIRCLE
  8
20
 10
57.5105
 20
46.3445
 30
0.0000
 40
1.0005
  0
CIRCLE
  8
20
 10
55.0921
 20
48.7629
 30
0.0000
 40
0.9995
  0
CIRCLE
  8
20
 10
55.0921
 20
48.7629
 30
0.0000
 40
1.0005
  0
CIRCLE
  8
20
 10
66.4947
 20
55.3288
 30
0.0000
 40
0.9995
  0
CIRCLE
  8
20
 10
66.4947
 20
55.3288
 30
0.0000
 40
1.0005
  0
CIRCLE
  8
20
 10
64.0764
 20
57.7471
 30
0.0000
 40
0.9995
  0
CIRCLE
  8
20
 10
64.0764
 20
57.7471
 30
0.0000
 40
1.0005
  0
CIRCLE
  8
20
 10
75.4835
 20
64.3176
 30
0.0000
 40
0.9995
  0
CIRCLE
  8
20
 10
75.4835
 20
64.3176
 30
0.0000
 40
1.0005
  0
CIRCLE
  8
20
 10
73.0652
 20
66.7359
 30
0.0000
 40
0.9995
  0
CIRCLE
  8
20
 10
73.0652
 20
66.7359
 30
0.0000
 40
1.0005
  0
POINT
  8
23
 10
69.0000
 20
32.0000
 30
0.0000
  0
INSERT
  8
17
  2
LONGP100
 10
69.0000
 20
32.0000
 30
0.0000
 41
1.8796
 42
1.8796
 43
1.0000
 50
270.0000
  0
CIRCLE
  8
44
 10
69.0000
 20
32.0000
 30
0.0000
 40
0.5588
  0
INSERT
  8
17
  2
LONGP100
 10
66.4600
 20
32.0000
 30
0.0000
 41
1.8796
 42
1.8796
 43
1.0000
 50
270.0000
  0
CIRCLE
  8
44
 10
66.4600
 20
32.0000
 30
0.0000
 40
0.5588
  0
INSERT
  8
17
  2
LONGP100
 10
63.9200
 20
32.0000
 30
0.0000
 41
1.8796
 42
1.8796
 43
1.0000
 50
270.0000
  0
CIRCLE
  8
44
 10
63.9200
 20
32.0000
 30
0.0000
 40
0.5588
  0
POINT
  8
23
 10
28.0000
 20
30.0000
 30
0.0000
  0
INSERT
  8
17
  2
LONGP100
 10
28.0000
 20
30.0000
 30
0.0000
 41
1.8796
 42
1.8796
 43
1.0000
 50
90.0000
  0
CIRCLE
  8
44
 10
28.0000
 20
30.0000
 30
0.0000
 40
0.5588
  0
INSERT
  8
17
  2
LONGP100
 10
30.5400
 20
30.0000
 30
0.0000
 41
1.8796
 42
1.8796
 43
1.0000
 50
90.0000
  0
CIRCLE
  8
44
 10
30.5400
 20
30.0000
 30
0.0000
 40
0.5588
  0
INSERT
  8
17
  2
LONGP100
 10
33.0800
 20
30.0000
 30
0.0000
 41
1.8796
 42
1.8796
 43
1.0000
 50
90.0000
  0
CIRCLE
  8
44
 10
33.0800
 20
30.0000
 30
0.0000
 40
0.5588
  0
POINT
  8
23
 10
61.0000
 20
45.0000
 30
0.0000
  0
INSERT
  8
17
  2
LONGP100
 10
61.0000
 20
45.0000
 30
0.0000
 41
1.8796
 42
1.8796
 43
1.0000
 50
90.0000
  0
CIRCLE
  8
44
 10
61.0000
 20
45.0000
 30
0.0000
 40
0.5588
  0
INSERT
  8
17
  2
LONGP100
 10
63.5400
 20
45.0000
 30
0.0000
 41
1.8796
 42
1.8796
 43
1.0000
 50
90.0000
  0
CIRCLE
  8
44
 10
63.5400
 20
45.0000
 30
0.0000
 40
0.5588
  0
INSERT
  8
17
  2
LONGP100
 10
66.0800
 20
45.0000
 30
0.0000
 41
1.8796
 42
1.8796
 43
1.0000
 50
90.0000
  0
CIRCLE
  8
44
 10
66.0800
 20
45.0000
 30
0.0000
 40
0.5588
  0
POINT
  8
23
 10
55.0000
 20
19.0000
 30
0.0000
  0
INSERT
  8
17
  2
LONGP100
 10
55.0000
 20
19.0000
 30
0.0000
 41
1.8796
 42
1.8796
 43
1.0000
 50
180.0000
  0
CIRCLE
  8
44
 10
55.0000
 20
19.0000
 30
0.0000
 40
0.5588
  0
INSERT
  8
17
  2
LONGP100
 10
55.0000
 20
21.5400
 30
0.0000
 41
1.8796
 42
1.8796
 43
1.0000
 50
180.0000
  0
CIRCLE
  8
44
 10
55.0000
 20
21.5400
 30
0.0000
 40
0.5588
  0
INSERT
  8
17
  2
LONGP100
 10
55.0000
 20
24.0800
 30
0.0000
 41
1.8796
 42
1.8796
 43
1.0000
 50
180.0000
  0
CIRCLE
  8
44
 10
55.0000
 20
24.0800
 30
0.0000
 40
0.5588
  0
POINT
  8
23
 10
39.0000
 20
52.0000
 30
0.0000
  0
INSERT
  8
17
  2
LONGP100
 10
39.0000
 20
52.0000
 30
0.0000
 41
1.8796
 42
1.8796
 43
1.0000
 50
180.0000
  0
CIRCLE
  8
44
 10
39.0000
 20
52.0000
 30
0.0000
 40
0.5588
  0
INSERT
  8
17
  2
LONGP100
 10
39.0000
 20
54.5400
 30
0.0000
 41
1.8796
 42
1.8796
 43
1.0000
 50
180.0000
  0
CIRCLE
  8
44
 10
39.0000
 20
54.5400
 30
0.0000
 40
0.5588
  0
INSERT
  8
17
  2
LONGP100
 10
39.0000
 20
57.0800
 30
0.0000
 41
1.8796
 42
1.8796
 43
1.0000
 50
180.0000
  0
CIRCLE
  8
44
 10
39.0000
 20
57.0800
 30
0.0000
 40
0.5588
  0
POINT
  8
23
 10
20.2000
 20
11.6200
 30
0.0000
  0
INSERT
  8
17
  2
ROUNDP
 10
21.4021
 20
10.4179
 30
0.0000
 41
1.4000
 42
1.4000
 43
1.0000
 50
135.0000
  0
CIRCLE
  8
44
 10
21.4021
 20
10.4179
 30
0.0000
 40
0.3500
  0
INSERT
  8
17
  2
ROUNDP
 10
18.9979
 20
12.8221
 30
0.0000
 41
1.4000
 42
1.4000
 43
1.0000
 50
135.0000
  0
CIRCLE
  8
44
 10
18.9979
 20
12.8221
 30
0.0000
 40
0.3500
  0
POINT
  8
23
 10
29.0400
 20
20.6200
 30
0.0000
  0
INSERT
  8
17
  2
ROUNDP
 10
30.2421
 20
19.4179
 30
0.0000
 41
1.4000
 42
1.4000
 43
1.0000
 50
135.0000
  0
CIRCLE
  8
44
 10
30.2421
 20
19.4179
 30
0.0000
 40
0.3500
  0
INSERT
  8
17
  2
ROUNDP
 10
27.8379
 20
21.8221
 30
0.0000
 41
1.4000
 42
1.4000
 43
1.0000
 50
135.0000
  0
CIRCLE
  8
44
 10
27.8379
 20
21.8221
 30
0.0000
 40
0.3500
  0
POINT
  8
23
 10
37.9500
 20
29.4800
 30
0.0000
  0
INSERT
  8
17
  2
ROUNDP
 10
39.1521
 20
28.2779
 30
0.0000
 41
1.4000
 42
1.4000
 43
1.0000
 50
135.0000
  0
CIRCLE
  8
44
 10
39.1521
 20
28.2779
 30
0.0000
 40
0.3500
  0
INSERT
  8
17
  2
ROUNDP
 10
36.7479
 20
30.6821
 30
0.0000
 41
1.4000
 42
1.4000
 43
1.0000
 50
135.0000
  0
CIRCLE
  8
44
 10
36.7479
 20
30.6821
 30
0.0000
 40
0.3500
  0
POINT
  8
23
 10
47.7900
 20
38.4800
 30
0.0000
  0
INSERT
  8
17
  2
ROUNDP
 10
46.5879
 20
37.2779
 30
0.0000
 41
1.4000
 42
1.4000
 43
1.0000
 50
45.0000
  0
CIRCLE
  8
44
 10
46.5879
 20
37.2779
 30
0.0000
 40
0.3500
  0
INSERT
  8
17
  2
ROUNDP
 10
48.9921
 20
39.6821
 30
0.0000
 41
1.4000
 42
1.4000
 43
1.0000
 50
45.0000
  0
CIRCLE
  8
44
 10
48.9921
 20
39.6821
 30
0.0000
 40
0.3500
  0
POINT
  8
23
 10
56.6300
 20
47.4800
 30
0.0000
  0
INSERT
  8
17
  2
ROUNDP
 10
55.4279
 20
48.6821
 30
0.0000
 41
1.4000
 42
1.4000
 43
1.0000
 50
315.0000
  0
CIRCLE
  8
44
 10
55.4279
 20
48.6821
 30
0.0000
 40
0.3500
  0
INSERT
  8
17
  2
ROUNDP
 10
57.8321
 20
46.2779
 30
0.0000
 41
1.4000
 42
1.4000
 43
1.0000
 50
315.0000
  0
CIRCLE
  8
44
 10
57.8321
 20
46.2779
 30
0.0000
 40
0.3500
  0
POINT
  8
23
 10
65.4700
 20
56.4800
 30
0.0000
  0
INSERT
  8
17
  2
ROUNDP
 10
64.2679
 20
57.6821
 30
0.0000
 41
1.4000
 42
1.4000
 43
1.0000
 50
315.0000
  0
CIRCLE
  8
44
 10
64.2679
 20
57.6821
 30
0.0000
 40
0.3500
  0
INSERT
  8
17
  2
ROUNDP
 10
66.6721
 20
55.2779
 30
0.0000
 41
1.4000
 42
1.4000
 43
1.0000
 50
315.0000
  0
CIRCLE
  8
44
 10
66.6721
 20
55.2779
 30
0.0000
 40
0.3500
  0
POINT
  8
23
 10
74.3100
 20
65.4800
 30
0.0000
  0
INSERT
  8
17
  2
ROUNDP
 10
73.1079
 20
66.6821
 30
0.0000
 41
1.4000
 42
1.4000
 43
1.0000
 50
315.0000
  0
CIRCLE
  8
44
 10
73.1079
 20
66.6821
 30
0.0000
 40
0.3500
  0
INSERT
  8
17
  2
ROUNDP
 10
75.5121
 20
64.2779
 30
0.0000
 41
1.4000
 42
1.4000
 43
1.0000
 50
315.0000
  0
CIRCLE
  8
44
 10
75.5121
 20
64.2779
 30
0.0000
 40
0.3500
  0
POINT
  8
23
 10
73.9500
 20
11.4500
 30
0.0000
  0
INSERT
  8
17
  2
ROUNDP
 10
75.1521
 20
12.6521
 30
0.0000
 41
1.4000
 42
1.4000
 43
1.0000
 50
225.0000
  0
CIRCLE
  8
44
 10
75.1521
 20
12.6521
 30
0.0000
 40
0.3500
  0
INSERT
  8
17
  2
ROUNDP
 10
72.7479
 20
10.2479
 30
0.0000
 41
1.4000
 42
1.4000
 43
1.0000
 50
225.0000
  0
CIRCLE
  8
44
 10
72.7479
 20
10.2479
 30
0.0000
 40
0.3500
  0
POINT
  8
23
 10
64.7900
 20
20.4500
 30
0.0000
  0
INSERT
  8
17
  2
ROUNDP
 10
65.9921
 20
21.6521
 30
0.0000
 41
1.4000
 42
1.4000
 43
1.0000
 50
225.0000
  0
CIRCLE
  8
44
 10
65.9921
 20
21.6521
 30
0.0000
 40
0.3500
  0
INSERT
  8
17
  2
ROUNDP
 10
63.5879
 20
19.2479
 30
0.0000
 41
1.4000
 42
1.4000
 43
1.0000
 50
225.0000
  0
CIRCLE
  8
44
 10
63.5879
 20
19.2479
 30
0.0000
 40
0.3500
  0
POINT
  8
23
 10
55.6300
 20
29.4500
 30
0.0000
  0
INSERT
  8
17
  2
ROUNDP
 10
56.8321
 20
30.6521
 30
0.0000
 41
1.4000
 42
1.4000
 43
1.0000
 50
225.0000
  0
CIRCLE
  8
44
 10
56.8321
 20
30.6521
 30
0.0000
 40
0.3500
  0
INSERT
  8
17
  2
ROUNDP
 10
54.4279
 20
28.2479
 30
0.0000
 41
1.4000
 42
1.4000
 43
1.0000
 50
225.0000
  0
CIRCLE
  8
44
 10
54.4279
 20
28.2479
 30
0.0000
 40
0.3500
  0
POINT
  8
23
 10
38.4700
 20
47.4500
 30
0.0000
  0
INSERT
  8
17
  2
ROUNDP
 10
37.2679
 20
46.2479
 30
0.0000
 41
1.4000
 42
1.4000
 43
1.0000
 50
45.0000
  0
CIRCLE
  8
44
 10
37.2679
 20
46.2479
 30
0.0000
 40
0.3500
  0
INSERT
  8
17
  2
ROUNDP
 10
39.6721
 20
48.6521
 30
0.0000
 41
1.4000
 42
1.4000
 43
1.0000
 50
45.0000
  0
CIRCLE
  8
44
 10
39.6721
 20
48.6521
 30
0.0000
 40
0.3500
  0
POINT
  8
23
 10
29.3100
 20
56.4500
 30
0.0000
  0
INSERT
  8
17
  2
ROUNDP
 10
28.1079
 20
55.2479
 30
0.0000
 41
1.4000
 42
1.4000
 43
1.0000
 50
45.0000
  0
CIRCLE
  8
44
 10
28.1079
 20
55.2479
 30
0.0000
 40
0.3500
  0
INSERT
  8
17
  2
ROUNDP
 10
30.5121
 20
57.6521
 30
0.0000
 41
1.4000
 42
1.4000
 43
1.0000
 50
45.0000
  0
CIRCLE
  8
44
 10
30.5121
 20
57.6521
 30
0.0000
 40
0.3500
  0
POINT
  8
23
 10
19.9500
 20
65.4200
 30
0.0000
  0
INSERT
  8
17
  2
ROUNDP
 10
18.7479
 20
64.2179
 30
0.0000
 41
1.4000
 42
1.4000
 43
1.0000
 50
45.0000
  0
CIRCLE
  8
44
 10
18.7479
 20
64.2179
 30
0.0000
 40
0.3500
  0
INSERT
  8
17
  2
ROUNDP
 10
21.1521
 20
66.6221
 30
0.0000
 41
1.4000
 42
1.4000
 43
1.0000
 50
45.0000
  0
CIRCLE
  8
44
 10
21.1521
 20
66.6221
 30
0.0000
 40
0.3500
  0
POINT
  8
23
 10
24.6600
 20
14.7900
 30
0.0000
  0
INSERT
  8
17
  2
OCTAGONP
 10
27.3541
 20
12.0959
 30
0.0000
 41
1.6764
 42
1.6764
 43
1.0000
 50
135.0000
  0
CIRCLE
  8
44
 10
27.3541
 20
12.0959
 30
0.0000
 40
0.4064
  0
INSERT
  8
17
  2
OCTAGONP
 10
21.9659
 20
17.4841
 30
0.0000
 41
1.6764
 42
1.6764
 43
1.0000
 50
135.0000
  0
CIRCLE
  8
44
 10
21.9659
 20
17.4841
 30
0.0000
 40
0.4064
  0
POINT
  8
23
 10
33.6600
 20
23.6300
 30
0.0000
  0
INSERT
  8
17
  2
OCTAGONP
 10
36.3541
 20
20.9359
 30
0.0000
 41
1.6764
 42
1.6764
 43
1.0000
 50
135.0000
  0
CIRCLE
  8
44
 10
36.3541
 20
20.9359
 30
0.0000
 40
0.4064
  0
INSERT
  8
17
  2
OCTAGONP
 10
30.9659
 20
26.3241
 30
0.0000
 41
1.6764
 42
1.6764
 43
1.0000
 50
135.0000
  0
CIRCLE
  8
44
 10
30.9659
 20
26.3241
 30
0.0000
 40
0.4064
  0
POINT
  8
23
 10
42.6600
 20
32.4700
 30
0.0000
  0
INSERT
  8
17
  2
OCTAGONP
 10
45.3541
 20
29.7759
 30
0.0000
 41
1.6764
 42
1.6764
 43
1.0000
 50
135.0000
  0
CIRCLE
  8
44
 10
45.3541
 20
29.7759
 30
0.0000
 40
0.4064
  0
INSERT
  8
17
  2
OCTAGONP
 10
39.9659
 20
35.1641
 30
0.0000
 41
1.6764
 42
1.6764
 43
1.0000
 50
135.0000
  0
CIRCLE
  8
44
 10
39.9659
 20
35.1641
 30
0.0000
 40
0.4064
  0
POINT
  8
23
 10
50.3100
 20
34.3400
 30
0.0000
  0
INSERT
  8
17
  2
OCTAGONP
 10
47.6159
 20
31.6459
 30
0.0000
 41
1.6764
 42
1.6764
 43
1.0000
 50
45.0000
  0
CIRCLE
  8
44
 10
47.6159
 20
31.6459
 30
0.0000
 40
0.4064
  0
INSERT
  8
17
  2
OCTAGONP
 10
53.0041
 20
37.0341
 30
0.0000
 41
1.6764
 42
1.6764
 43
1.0000
 50
45.0000
  0
CIRCLE
  8
44
 10
53.0041
 20
37.0341
 30
0.0000
 40
0.4064
  0
POINT
  8
23
 10
51.6900
 20
43.2200
 30
0.0000
  0
INSERT
  8
17
  2
OCTAGONP
 10
48.9959
 20
45.9141
 30
0.0000
 41
1.6764
 42
1.6764
 43
1.0000
 50
315.0000
  0
CIRCLE
  8
44
 10
48.9959
 20
45.9141
 30
0.0000
 40
0.4064
  0
INSERT
  8
17
  2
OCTAGONP
 10
54.3841
 20
40.5259
 30
0.0000
 41
1.6764
 42
1.6764
 43
1.0000
 50
315.0000
  0
CIRCLE
  8
44
 10
54.3841
 20
40.5259
 30
0.0000
 40
0.4064
  0
POINT
  8
23
 10
60.6900
 20
52.0600
 30
0.0000
  0
INSERT
  8
17
  2
OCTAGONP
 10
57.9959
 20
54.7541
 30
0.0000
 41
1.6764
 42
1.6764
 43
1.0000
 50
315.0000
  0
CIRCLE
  8
44
 10
57.9959
 20
54.7541
 30
0.0000
 40
0.4064
  0
INSERT
  8
17
  2
OCTAGONP
 10
63.3841
 20
49.3659
 30
0.0000
 41
1.6764
 42
1.6764
 43
1.0000
 50
315.0000
  0
CIRCLE
  8
44
 10
63.3841
 20
49.3659
 30
0.0000
 40
0.4064
  0
POINT
  8
23
 10
69.3100
 20
61.1000
 30
0.0000
  0
INSERT
  8
17
  2
OCTAGONP
 10
66.6159
 20
63.7941
 30
0.0000
 41
1.6764
 42
1.6764
 43
1.0000
 50
315.0000
  0
CIRCLE
  8
44
 10
66.6159
 20
63.7941
 30
0.0000
 40
0.4064
  0
INSERT
  8
17
  2
OCTAGONP
 10
72.0041
 20
58.4059
 30
0.0000
 41
1.6764
 42
1.6764
 43
1.0000
 50
315.0000
  0
CIRCLE
  8
44
 10
72.0041
 20
58.4059
 30
0.0000
 40
0.4064
  0
POINT
  8
23
 10
69.7400
 20
16.3100
 30
0.0000
  0
INSERT
  8
17
  2
OCTAGONP
 10
72.4341
 20
19.0041
 30
0.0000
 41
1.6764
 42
1.6764
 43
1.0000
 50
225.0000
  0
CIRCLE
  8
44
 10
72.4341
 20
19.0041
 30
0.0000
 40
0.4064
  0
INSERT
  8
17
  2
OCTAGONP
 10
67.0459
 20
13.6159
 30
0.0000
 41
1.6764
 42
1.6764
 43
1.0000
 50
225.0000
  0
CIRCLE
  8
44
 10
67.0459
 20
13.6159
 30
0.0000
 40
0.4064
  0
POINT
  8
23
 10
61.5800
 20
24.3100
 30
0.0000
  0
INSERT
  8
17
  2
OCTAGONP
 10
64.2741
 20
27.0041
 30
0.0000
 41
1.6764
 42
1.6764
 43
1.0000
 50
225.0000
  0
CIRCLE
  8
44
 10
64.2741
 20
27.0041
 30
0.0000
 40
0.4064
  0
INSERT
  8
17
  2
OCTAGONP
 10
58.8859
 20
21.6159
 30
0.0000
 41
1.6764
 42
1.6764
 43
1.0000
 50
225.0000
  0
CIRCLE
  8
44
 10
58.8859
 20
21.6159
 30
0.0000
 40
0.4064
  0
POINT
  8
23
 10
53.2200
 20
33.1200
 30
0.0000
  0
INSERT
  8
17
  2
OCTAGONP
 10
55.9141
 20
35.8141
 30
0.0000
 41
1.6764
 42
1.6764
 43
1.0000
 50
225.0000
  0
CIRCLE
  8
44
 10
55.9141
 20
35.8141
 30
0.0000
 40
0.4064
  0
INSERT
  8
17
  2
OCTAGONP
 10
50.5259
 20
30.4259
 30
0.0000
 41
1.6764
 42
1.6764
 43
1.0000
 50
225.0000
  0
CIRCLE
  8
44
 10
50.5259
 20
30.4259
 30
0.0000
 40
0.4064
  0
POINT
  8
23
 10
42.0600
 20
43.1200
 30
0.0000
  0
INSERT
  8
17
  2
OCTAGONP
 10
39.3659
 20
40.4259
 30
0.0000
 41
1.6764
 42
1.6764
 43
1.0000
 50
45.0000
  0
CIRCLE
  8
44
 10
39.3659
 20
40.4259
 30
0.0000
 40
0.4064
  0
INSERT
  8
17
  2
OCTAGONP
 10
44.7541
 20
45.8141
 30
0.0000
 41
1.6764
 42
1.6764
 43
1.0000
 50
45.0000
  0
CIRCLE
  8
44
 10
44.7541
 20
45.8141
 30
0.0000
 40
0.4064
  0
POINT
  8
23
 10
32.9000
 20
52.1200
 30
0.0000
  0
INSERT
  8
17
  2
OCTAGONP
 10
30.2059
 20
49.4259
 30
0.0000
 41
1.6764
 42
1.6764
 43
1.0000
 50
45.0000
  0
CIRCLE
  8
44
 10
30.2059
 20
49.4259
 30
0.0000
 40
0.4064
  0
INSERT
  8
17
  2
OCTAGONP
 10
35.5941
 20
54.8141
 30
0.0000
 41
1.6764
 42
1.6764
 43
1.0000
 50
45.0000
  0
CIRCLE
  8
44
 10
35.5941
 20
54.8141
 30
0.0000
 40
0.4064
  0
POINT
  8
23
 10
23.7400
 20
61.1200
 30
0.0000
  0
INSERT
  8
17
  2
OCTAGONP
 10
21.0459
 20
58.4259
 30
0.0000
 41
1.6764
 42
1.6764
 43
1.0000
 50
45.0000
  0
CIRCLE
  8
44
 10
21.0459
 20
58.4259
 30
0.0000
 40
0.4064
  0
INSERT
  8
17
  2
OCTAGONP
 10
26.4341
 20
63.8141
 30
0.0000
 41
1.6764
 42
1.6764
 43
1.0000
 50
45.0000
  0
CIRCLE
  8
44
 10
26.4341
 20
63.8141
 30
0.0000
 40
0.4064
  0
POLYLINE
  8
16
 66
1
 10
0.0000
 20
0.0000
 30
0.0000
 40
0.0000
 41
0.0000
 70
1
  0
VERTEX
  8
16
 10
27.3541
 20
11.5879
 30
0.0000
  0
VERTEX
  8
16
 10
27.5141
 20
11.5879
 30
0.0000
 42
1.0000
  0
VERTEX
  8
16
 10
27.5141
 20
12.6039
 30
0.0000
  0
VERTEX
  8
16
 10
27.3541
 20
12.6039
 30
0.0000
 42
1.0000
  0
SEQEND
  8
0
  0
POLYLINE
  8
16
 66
1
 10
0.0000
 20
0.0000
 30
0.0000
 40
0.0000
 41
0.0000
 70
1
  0
VERTEX
  8
16
 10
27.8733
 20
11.7367
 30
0.0000
  0
VERTEX
  8
16
 10
36.7133
 20
20.5767
 30
0.0000
 42
1.0000
  0
VERTEX
  8
16
 10
35.9949
 20
21.2951
 30
0.0000
  0
VERTEX
  8
16
 10
27.1549
 20
12.4551
 30
0.0000
 42
1.0000
  0
SEQEND
  8
0
  0
POLYLINE
  8
16
 66
1
 10
0.0000
 20
0.0000
 30
0.0000
 40
0.0000
 41
0.0000
 70
1
  0
VERTEX
  8
16
 10
36.3541
 20
20.4279
 30
0.0000
  0
VERTEX
  8
16
 10
36.5141
 20
20.4279
 30
0.0000
 42
1.0000
  0
VERTEX
  8
16
 10
36.5141
 20
21.4439
 30
0.0000
  0
VERTEX
  8
16
 10
36.3541
 20
21.4439
 30
0.0000
 42
1.0000
  0
SEQEND
  8
0
  0
POLYLINE
  8
16
 66
1
 10
0.0000
 20
0.0000
 30
0.0000
 40
0.0000
 41
0.0000
 70
1
  0
VERTEX
  8
16
 10
36.8733
 20
20.5767
 30
0.0000
  0
VERTEX
  8
16
 10
45.7133
 20
29.4167
 30
0.0000
 42
1.0000
  0
VERTEX
  8
16
 10
44.9949
 20
30.1351
 30
0.0000
  0
VERTEX
  8
16
 10
36.1549
 20
21.2951
 30
0.0000
 42
1.0000
  0
SEQEND
  8
0
  0
POLYLINE
  8
16
 66
1
 10
0.0000
 20
0.0000
 30
0.0000
 40
0.0000
 41
0.0000
 70
1
  0
VERTEX
  8
16
 10
39.3659
 20
40.9339
 30
0.0000
  0
VERTEX
  8
16
 10
39.2059
 20
40.9339
 30
0.0000
 42
1.0000
  0
VERTEX
  8
16
 10
39.2059
 20
39.9179
 30
0.0000
  0
VERTEX
  8
16
 10
39.3659
 20
39.9179
 30
0.0000
 42
1.0000
  0
SEQEND
  8
0
  0
POLYLINE
  8
16
 66
1
 10
0.0000
 20
0.0000
 30
0.0000
 40
0.0000
 41
0.0000
 70
1
  0
VERTEX
  8
16
 10
39.5651
 20
40.7851
 30
0.0000
  0
VERTEX
  8
16
 10
30.5651
 20
49.7851
 30
0.0000
 42
1.0000
  0
VERTEX
  8
16
 10
29.8467
 20
49.0667
 30
0.0000
  0
VERTEX
  8
16
 10
38.8467
 20
40.0667
 30
0.0000
 42
1.0000
  0
SEQEND
  8
0
  0
POLYLINE
  8
16
 66
1
 10
0.0000
 20
0.0000
 30
0.0000
 40
0.0000
 41
0.0000
 70
1
  0
VERTEX
  8
16
 10
30.2059
 20
49.9339
 30
0.0000
  0
VERTEX
  8
16
 10
30.0459
 20
49.9339
 30
0.0000
 42
1.0000
  0
VERTEX
  8
16
 10
30.0459
 20
48.9179
 30
0.0000
  0
VERTEX
  8
16
 10
30.2059
 20
48.9179
 30
0.0000
 42
1.0000
  0
SEQEND
  8
0
  0
POLYLINE
  8
16
 66
1
 10
0.0000
 20
0.0000
 30
0.0000
 40
0.0000
 41
0.0000
 70
1
  0
VERTEX
  8
16
 10
30.4051
 20
49.7851
 30
0.0000
  0
VERTEX
  8
16
 10
21.4051
 20
58.7851
 30
0.0000
 42
1.0000
  0
VERTEX
  8
16
 10
20.6867
 20
58.0667
 30
0.0000
  0
VERTEX
  8
16
 10
29.6867
 20
49.0667
 30
0.0000
 42
1.0000
  0
SEQEND
  8
0
  0
POLYLINE
  8
16
 66
1
 10
0.0000
 20
0.0000
 30
0.0000
 40
0.0000
 41
0.0000
 70
1
  0
VERTEX
  8
16
 10
66.2567
 20
64.1533
 30
0.0000
  0
VERTEX
  8
16
 10
57.6367
 20
55.5333
 30
0.0000
 42
1.0000
  0
VERTEX
  8
16
 10
58.3551
 20
54.8149
 30
0.0000
  0
VERTEX
  8
16
 10
66.9751
 20
63.4349
 30
0.0000
 42
1.0000
  0
SEQEND
  8
0
  0
POLYLINE
  8
16
 66
1
 10
0.0000
 20
0.0000
 30
0.0000
 40
0.0000
 41
0.0000
 70
1
  0
VERTEX
  8
16
 10
57.4879
 20
55.1741
 30
0.0000
  0
VERTEX
  8
16
 10
57.4879
 20
54.7541
 30
0.0000
 42
1.0000
  0
VERTEX
  8
16
 10
58.5039
 20
54.7541
 30
0.0000
  0
VERTEX
  8
16
 10
58.5039
 20
55.1741
 30
0.0000
 42
1.0000
  0
SEQEND
  8
0
  0
POLYLINE
  8
16
 66
1
 10
0.0000
 20
0.0000
 30
0.0000
 40
0.0000
 41
0.0000
 70
1
  0
VERTEX
  8
16
 10
57.6367
 20
55.1133
 30
0.0000
  0
VERTEX
  8
16
 10
48.7967
 20
46.2733
 30
0.0000
 42
1.0000
  0
VERTEX
  8
16
 10
49.5151
 20
45.5549
 30
0.0000
  0
VERTEX
  8
16
 10
58.3551
 20
54.3949
 30
0.0000
 42
1.0000
  0
SEQEND
  8
0
  0
POLYLINE
  8
16
 66
1
 10
0.0000
 20
0.0000
 30
0.0000
 40
0.0000
 41
0.0000
 70
1
  0
VERTEX
  8
16
 10
49.1559
 20
46.4221
 30
0.0000
  0
VERTEX
  8
16
 10
48.9959
 20
46.4221
 30
0.0000
 42
1.0000
  0
VERTEX
  8
16
 10
48.9959
 20
45.4061
 30
0.0000
  0
VERTEX
  8
16
 10
49.1559
 20
45.4061
 30
0.0000
 42
1.0000
  0
SEQEND
  8
0
  0
POLYLINE
  8
16
 66
1
 10
0.0000
 20
0.0000
 30
0.0000
 40
0.0000
 41
0.0000
 70
1
  0
VERTEX
  8
16
 10
65.9041
 20
24.8156
 30
0.0000
  0
VERTEX
  8
16
 10
72.0749
 20
18.6449
 30
0.0000
 42
1.0000
  0
VERTEX
  8
16
 10
72.7933
 20
19.3633
 30
0.0000
  0
VERTEX
  8
16
 10
66.6226
 20
25.5340
 30
0.0000
 42
1.0000
  0
SEQEND
  8
0
  0
POLYLINE
  8
16
 66
1
 10
0.0000
 20
0.0000
 30
0.0000
 40
0.0000
 41
0.0000
 70
1
  0
VERTEX
  8
16
 10
66.6226
 20
25.5340
 30
0.0000
  0
VERTEX
  8
16
 10
64.7933
 20
27.3633
 30
0.0000
 42
1.0000
  0
VERTEX
  8
16
 10
64.0749
 20
26.6449
 30
0.0000
  0
VERTEX
  8
16
 10
65.9041
 20
24.8156
 30
0.0000
 42
1.0000
  0
SEQEND
  8
0
  0
POLYLINE
  8
16
 66
1
 10
0.0000
 20
0.0000
 30
0.0000
 40
0.0000
 41
0.0000
 70
1
  0
VERTEX
  8
16
 10
64.4341
 20
27.5121
 30
0.0000
  0
VERTEX
  8
16
 10
64.2741
 20
27.5121
 30
0.0000
 42
1.0000
  0
VERTEX
  8
16
 10
64.2741
 20
26.4961
 30
0.0000
  0
VERTEX
  8
16
 10
64.4341
 20
26.4961
 30
0.0000
 42
1.0000
  0
SEQEND
  8
0
  0
POLYLINE
  8
16
 66
1
 10
0.0000
 20
0.0000
 30
0.0000
 40
0.0000
 41
0.0000
 70
1
  0
VERTEX
  8
16
 10
64.6333
 20
27.3633
 30
0.0000
  0
VERTEX
  8
16
 10
56.6374
 20
35.3592
 30
0.0000
 42
1.0000
  0
VERTEX
  8
16
 10
55.9189
 20
34.6408
 30
0.0000
  0
VERTEX
  8
16
 10
63.9149
 20
26.6449
 30
0.0000
 42
1.0000
  0
SEQEND
  8
0
  0
POLYLINE
  8
16
 66
1
 10
0.0000
 20
0.0000
 30
0.0000
 40
0.0000
 41
0.0000
 70
1
  0
VERTEX
  8
16
 10
56.2782
 20
35.5080
 30
0.0000
  0
VERTEX
  8
16
 10
56.0000
 20
35.5080
 30
0.0000
 42
1.0000
  0
VERTEX
  8
16
 10
56.0000
 20
34.4920
 30
0.0000
  0
VERTEX
  8
16
 10
56.2782
 20
34.4920
 30
0.0000
 42
1.0000
  0
SEQEND
  8
0
  0
POLYLINE
  8
16
 66
1
 10
0.0000
 20
0.0000
 30
0.0000
 40
0.0000
 41
0.0000
 70
1
  0
VERTEX
  8
16
 10
56.3592
 20
35.3592
 30
0.0000
  0
VERTEX
  8
16
 10
56.2733
 20
35.4451
 30
0.0000
 42
1.0000
  0
VERTEX
  8
16
 10
55.5549
 20
34.7267
 30
0.0000
  0
VERTEX
  8
16
 10
55.6408
 20
34.6408
 30
0.0000
 42
1.0000
  0
SEQEND
  8
0
  0
POLYLINE
  8
16
 66
1
 10
0.0000
 20
0.0000
 30
0.0000
 40
0.0000
 41
0.0000
 70
1
  0
VERTEX
  8
16
 10
56.4221
 20
35.0859
 30
0.0000
  0
VERTEX
  8
16
 10
56.4221
 20
35.8141
 30
0.0000
 42
1.0000
  0
VERTEX
  8
16
 10
55.4061
 20
35.8141
 30
0.0000
  0
VERTEX
  8
16
 10
55.4061
 20
35.0859
 30
0.0000
 42
1.0000
  0
SEQEND
  8
0
  0
POLYLINE
  8
16
 66
1
 10
0.0000
 20
0.0000
 30
0.0000
 40
0.0000
 41
0.0000
 70
1
  0
VERTEX
  8
16
 10
46.8649
 20
32.0051
 30
0.0000
  0
VERTEX
  8
16
 10
44.9949
 20
30.1351
 30
0.0000
 42
1.0000
  0
VERTEX
  8
16
 10
45.7133
 20
29.4167
 30
0.0000
  0
VERTEX
  8
16
 10
47.5833
 20
31.2867
 30
0.0000
 42
1.0000
  0
SEQEND
  8
0
  0
POLYLINE
  8
16
 66
1
 10
0.0000
 20
0.0000
 30
0.0000
 40
0.0000
 41
0.0000
 70
1
  0
VERTEX
  8
16
 10
47.2241
 20
31.1379
 30
0.0000
  0
VERTEX
  8
16
 10
47.6159
 20
31.1379
 30
0.0000
 42
1.0000
  0
VERTEX
  8
16
 10
47.6159
 20
32.1539
 30
0.0000
  0
VERTEX
  8
16
 10
47.2241
 20
32.1539
 30
0.0000
 42
1.0000
  0
SEQEND
  8
0
  0
POLYLINE
  8
16
 66
1
 10
0.0000
 20
0.0000
 30
0.0000
 40
0.0000
 41
0.0000
 70
1
  0
VERTEX
  8
16
 10
48.1239
 20
31.6459
 30
0.0000
  0
VERTEX
  8
16
 10
48.1239
 20
32.1759
 30
0.0000
 42
1.0000
  0
VERTEX
  8
16
 10
47.1079
 20
32.1759
 30
0.0000
  0
VERTEX
  8
16
 10
47.1079
 20
31.6459
 30
0.0000
 42
1.0000
  0
SEQEND
  8
0
  0
POLYLINE
  8
16
 66
1
 10
0.0000
 20
0.0000
 30
0.0000
 40
0.0000
 41
0.0000
 70
1
  0
VERTEX
  8
16
 10
41.1050
 20
37.9685
 30
0.0000
  0
VERTEX
  8
16
 10
47.2567
 20
31.8167
 30
0.0000
 42
1.0000
  0
VERTEX
  8
16
 10
47.9751
 20
32.5351
 30
0.0000
  0
VERTEX
  8
16
 10
41.8234
 20
38.6869
 30
0.0000
 42
1.0000
  0
SEQEND
  8
0
  0
POLYLINE
  8
16
 66
1
 10
0.0000
 20
0.0000
 30
0.0000
 40
0.0000
 41
0.0000
 70
1
  0
VERTEX
  8
16
 10
41.8234
 20
38.6869
 30
0.0000
  0
VERTEX
  8
16
 10
39.7251
 20
40.7851
 30
0.0000
 42
1.0000
  0
VERTEX
  8
16
 10
39.0067
 20
40.0667
 30
0.0000
  0
VERTEX
  8
16
 10
41.1050
 20
37.9685
 30
0.0000
 42
1.0000
  0
SEQEND
  8
0
  0
POLYLINE
  8
16
 66
1
 10
0.0000
 20
0.0000
 30
0.0000
 40
0.0000
 41
0.0000
 70
1
  0
VERTEX
  8
16
 10
48.4879
 20
45.9141
 30
0.0000
  0
VERTEX
  8
16
 10
48.4879
 20
45.8594
 30
0.0000
 42
1.0000
  0
VERTEX
  8
16
 10
49.5039
 20
45.8594
 30
0.0000
  0
VERTEX
  8
16
 10
49.5039
 20
45.9141
 30
0.0000
 42
1.0000
  0
SEQEND
  8
0
  0
POLYLINE
  8
16
 66
1
 10
0.0000
 20
0.0000
 30
0.0000
 40
0.0000
 41
0.0000
 70
1
  0
VERTEX
  8
16
 10
48.6367
 20
46.2186
 30
0.0000
  0
VERTEX
  8
16
 10
41.1050
 20
38.6869
 30
0.0000
 42
1.0000
  0
VERTEX
  8
16
 10
41.8234
 20
37.9685
 30
0.0000
  0
VERTEX
  8
16
 10
49.3551
 20
45.5002
 30
0.0000
 42
1.0000
  0
SEQEND
  8
0
  0
POLYLINE
  8
16
 66
1
 10
0.0000
 20
0.0000
 30
0.0000
 40
0.0000
 41
0.0000
 70
1
  0
VERTEX
  8
16
 10
55.9141
 20
36.3221
 30
0.0000
  0
VERTEX
  8
16
 10
55.8141
 20
36.3221
 30
0.0000
 42
1.0000
  0
VERTEX
  8
16
 10
55.8141
 20
35.3061
 30
0.0000
  0
VERTEX
  8
16
 10
55.9141
 20
35.3061
 30
0.0000
 42
1.0000
  0
SEQEND
  8
0
  0
POLYLINE
  8
16
 66
1
 10
0.0000
 20
0.0000
 30
0.0000
 40
0.0000
 41
0.0000
 70
1
  0
VERTEX
  8
16
 10
55.4549
 20
36.1733
 30
0.0000
  0
VERTEX
  8
16
 10
53.6408
 20
34.3592
 30
0.0000
 42
1.0000
  0
VERTEX
  8
16
 10
54.3592
 20
33.6408
 30
0.0000
  0
VERTEX
  8
16
 10
56.1733
 20
35.4549
 30
0.0000
 42
1.0000
  0
SEQEND
  8
0
  0
POLYLINE
  8
16
 66
1
 10
0.0000
 20
0.0000
 30
0.0000
 40
0.0000
 41
0.0000
 70
1
  0
VERTEX
  8
16
 10
54.0000
 20
34.5080
 30
0.0000
  0
VERTEX
  8
16
 10
49.5782
 20
34.5080
 30
0.0000
 42
1.0000
  0
VERTEX
  8
16
 10
49.5782
 20
33.4920
 30
0.0000
  0
VERTEX
  8
16
 10
54.0000
 20
33.4920
 30
0.0000
 42
1.0000
  0
SEQEND
  8
0
  0
POLYLINE
  8
16
 66
1
 10
0.0000
 20
0.0000
 30
0.0000
 40
0.0000
 41
0.0000
 70
1
  0
VERTEX
  8
16
 10
49.2189
 20
34.3592
 30
0.0000
  0
VERTEX
  8
16
 10
46.8649
 20
32.0051
 30
0.0000
 42
1.0000
  0
VERTEX
  8
16
 10
47.5833
 20
31.2867
 30
0.0000
  0
VERTEX
  8
16
 10
49.9374
 20
33.6408
 30
0.0000
 42
1.0000
  0
SEQEND
  8
0
  0
POLYLINE
  8
16
 66
1
 10
0.0000
 20
0.0000
 30
0.0000
 40
0.0000
 41
0.0000
 70
1
  0
VERTEX
  8
16
 10
68.4920
 20
32.0000
 30
0.0000
  0
VERTEX
  8
16
 10
68.4920
 20
27.9115
 30
0.0000
 42
1.0000
  0
VERTEX
  8
16
 10
69.5080
 20
27.9115
 30
0.0000
  0
VERTEX
  8
16
 10
69.5080
 20
32.0000
 30
0.0000
 42
1.0000
  0
SEQEND
  8
0
  0
POLYLINE
  8
16
 66
1
 10
0.0000
 20
0.0000
 30
0.0000
 40
0.0000
 41
0.0000
 70
1
  0
VERTEX
  8
16
 10
68.6408
 20
28.2707
 30
0.0000
  0
VERTEX
  8
16
 10
65.9041
 20
25.5340
 30
0.0000
 42
1.0000
  0
VERTEX
  8
16
 10
66.6226
 20
24.8156
 30
0.0000
  0
VERTEX
  8
16
 10
69.3592
 20
27.5522
 30
0.0000
 42
1.0000
  0
SEQEND
  8
0
  0
POLYLINE
  8
16
 66
1
 10
0.0000
 20
0.0000
 30
0.0000
 40
0.0000
 41
0.0000
 70
1
  0
VERTEX
  8
16
 10
20.8941
 20
10.5779
 30
0.0000
  0
VERTEX
  8
16
 10
20.8941
 20
10.4179
 30
0.0000
 42
1.0000
  0
VERTEX
  8
16
 10
21.9101
 20
10.4179
 30
0.0000
  0
VERTEX
  8
16
 10
21.9101
 20
10.5779
 30
0.0000
 42
1.0000
  0
SEQEND
  8
0
  0
POLYLINE
  8
16
 66
1
 10
0.0000
 20
0.0000
 30
0.0000
 40
0.0000
 41
0.0000
 70
1
  0
VERTEX
  8
16
 10
21.7613
 20
10.2187
 30
0.0000
  0
VERTEX
  8
16
 10
30.6013
 20
19.0587
 30
0.0000
 42
1.0000
  0
VERTEX
  8
16
 10
29.8829
 20
19.7771
 30
0.0000
  0
VERTEX
  8
16
 10
21.0429
 20
10.9371
 30
0.0000
 42
1.0000
  0
SEQEND
  8
0
  0
POLYLINE
  8
16
 66
1
 10
0.0000
 20
0.0000
 30
0.0000
 40
0.0000
 41
0.0000
 70
1
  0
VERTEX
  8
16
 10
30.2421
 20
18.9099
 30
0.0000
  0
VERTEX
  8
16
 10
30.2921
 20
18.9099
 30
0.0000
 42
1.0000
  0
VERTEX
  8
16
 10
30.2921
 20
19.9259
 30
0.0000
  0
VERTEX
  8
16
 10
30.2421
 20
19.9259
 30
0.0000
 42
1.0000
  0
SEQEND
  8
0
  0
POLYLINE
  8
16
 66
1
 10
0.0000
 20
0.0000
 30
0.0000
 40
0.0000
 41
0.0000
 70
1
  0
VERTEX
  8
16
 10
30.6513
 20
19.0587
 30
0.0000
  0
VERTEX
  8
16
 10
39.5113
 20
27.9187
 30
0.0000
 42
1.0000
  0
VERTEX
  8
16
 10
38.7929
 20
28.6371
 30
0.0000
  0
VERTEX
  8
16
 10
29.9329
 20
19.7771
 30
0.0000
 42
1.0000
  0
SEQEND
  8
0
  0
POLYLINE
  8
16
 66
1
 10
0.0000
 20
0.0000
 30
0.0000
 40
0.0000
 41
0.0000
 70
1
  0
VERTEX
  8
16
 10
18.7479
 20
63.7099
 30
0.0000
  0
VERTEX
  8
16
 10
19.1379
 20
63.7099
 30
0.0000
 42
1.0000
  0
VERTEX
  8
16
 10
19.1379
 20
64.7259
 30
0.0000
  0
VERTEX
  8
16
 10
18.7479
 20
64.7259
 30
0.0000
 42
1.0000
  0
SEQEND
  8
0
  0
POLYLINE
  8
16
 66
1
 10
0.0000
 20
0.0000
 30
0.0000
 40
0.0000
 41
0.0000
 70
1
  0
VERTEX
  8
16
 10
18.7787
 20
63.8587
 30
0.0000
  0
VERTEX
  8
16
 10
27.7487
 20
54.8887
 30
0.0000
 42
1.0000
  0
VERTEX
  8
16
 10
28.4671
 20
55.6071
 30
0.0000
  0
VERTEX
  8
16
 10
19.4971
 20
64.5771
 30
0.0000
 42
1.0000
  0
SEQEND
  8
0
  0
POLYLINE
  8
16
 66
1
 10
0.0000
 20
0.0000
 30
0.0000
 40
0.0000
 41
0.0000
 70
1
  0
VERTEX
  8
16
 10
28.1079
 20
54.7399
 30
0.0000
  0
VERTEX
  8
16
 10
28.2679
 20
54.7399
 30
0.0000
 42
1.0000
  0
VERTEX
  8
16
 10
28.2679
 20
55.7559
 30
0.0000
  0
VERTEX
  8
16
 10
28.1079
 20
55.7559
 30
0.0000
 42
1.0000
  0
SEQEND
  8
0
  0
POLYLINE
  8
16
 66
1
 10
0.0000
 20
0.0000
 30
0.0000
 40
0.0000
 41
0.0000
 70
1
  0
VERTEX
  8
16
 10
27.9087
 20
54.8887
 30
0.0000
  0
VERTEX
  8
16
 10
36.9087
 20
45.8887
 30
0.0000
 42
1.0000
  0
VERTEX
  8
16
 10
37.6271
 20
46.6071
 30
0.0000
  0
VERTEX
  8
16
 10
28.6271
 20
55.6071
 30
0.0000
 42
1.0000
  0
SEQEND
  8
0
  0
POLYLINE
  8
16
 66
1
 10
0.0000
 20
0.0000
 30
0.0000
 40
0.0000
 41
0.0000
 70
1
  0
VERTEX
  8
16
 10
37.2679
 20
45.7399
 30
0.0000
  0
VERTEX
  8
16
 10
37.6179
 20
45.7399
 30
0.0000
 42
1.0000
  0
VERTEX
  8
16
 10
37.6179
 20
46.7559
 30
0.0000
  0
VERTEX
  8
16
 10
37.2679
 20
46.7559
 30
0.0000
 42
1.0000
  0
SEQEND
  8
0
  0
POLYLINE
  8
16
 66
1
 10
0.0000
 20
0.0000
 30
0.0000
 40
0.0000
 41
0.0000
 70
1
  0
VERTEX
  8
16
 10
72.7487
 20
67.0413
 30
0.0000
  0
VERTEX
  8
16
 10
63.9087
 20
58.2013
 30
0.0000
 42
1.0000
  0
VERTEX
  8
16
 10
64.6271
 20
57.4829
 30
0.0000
  0
VERTEX
  8
16
 10
73.4671
 20
66.3229
 30
0.0000
 42
1.0000
  0
SEQEND
  8
0
  0
POLYLINE
  8
16
 66
1
 10
0.0000
 20
0.0000
 30
0.0000
 40
0.0000
 41
0.0000
 70
1
  0
VERTEX
  8
16
 10
63.7599
 20
57.8421
 30
0.0000
  0
VERTEX
  8
16
 10
63.7599
 20
57.6821
 30
0.0000
 42
1.0000
  0
VERTEX
  8
16
 10
64.7759
 20
57.6821
 30
0.0000
  0
VERTEX
  8
16
 10
64.7759
 20
57.8421
 30
0.0000
 42
1.0000
  0
SEQEND
  8
0
  0
POLYLINE
  8
16
 66
1
 10
0.0000
 20
0.0000
 30
0.0000
 40
0.0000
 41
0.0000
 70
1
  0
VERTEX
  8
16
 10
63.9087
 20
58.0413
 30
0.0000
  0
VERTEX
  8
16
 10
55.0687
 20
49.2013
 30
0.0000
 42
1.0000
  0
VERTEX
  8
16
 10
55.7871
 20
48.4829
 30
0.0000
  0
VERTEX
  8
16
 10
64.6271
 20
57.3229
 30
0.0000
 42
1.0000
  0
SEQEND
  8
0
  0
POLYLINE
  8
16
 66
1
 10
0.0000
 20
0.0000
 30
0.0000
 40
0.0000
 41
0.0000
 70
1
  0
VERTEX
  8
16
 10
54.9199
 20
48.8421
 30
0.0000
  0
VERTEX
  8
16
 10
54.9199
 20
48.6821
 30
0.0000
 42
1.0000
  0
VERTEX
  8
16
 10
55.9359
 20
48.6821
 30
0.0000
  0
VERTEX
  8
16
 10
55.9359
 20
48.8421
 30
0.0000
 42
1.0000
  0
SEQEND
  8
0
  0
POLYLINE
  8
16
 66
1
 10
0.0000
 20
0.0000
 30
0.0000
 40
0.0000
 41
0.0000
 70
1
  0
VERTEX
  8
16
 10
75.5113
 20
13.0113
 30
0.0000
  0
VERTEX
  8
16
 10
66.5113
 20
22.0113
 30
0.0000
 42
1.0000
  0
VERTEX
  8
16
 10
65.7929
 20
21.2929
 30
0.0000
  0
VERTEX
  8
16
 10
74.7929
 20
12.2929
 30
0.0000
 42
1.0000
  0
SEQEND
  8
0
  0
POLYLINE
  8
16
 66
1
 10
0.0000
 20
0.0000
 30
0.0000
 40
0.0000
 41
0.0000
 70
1
  0
VERTEX
  8
16
 10
66.1521
 20
22.1601
 30
0.0000
  0
VERTEX
  8
16
 10
65.9921
 20
22.1601
 30
0.0000
 42
1.0000
  0
VERTEX
  8
16
 10
65.9921
 20
21.1441
 30
0.0000
  0
VERTEX
  8
16
 10
66.1521
 20
21.1441
 30
0.0000
 42
1.0000
  0
SEQEND
  8
0
  0
POLYLINE
  8
16
 66
1
 10
0.0000
 20
0.0000
 30
0.0000
 40
0.0000
 41
0.0000
 70
1
  0
VERTEX
  8
16
 10
66.3513
 20
22.0113
 30
0.0000
  0
VERTEX
  8
16
 10
57.3513
 20
31.0113
 30
0.0000
 42
1.0000
  0
VERTEX
  8
16
 10
56.6329
 20
30.2929
 30
0.0000
  0
VERTEX
  8
16
 10
65.6329
 20
21.2929
 30
0.0000
 42
1.0000
  0
SEQEND
  8
0
  0
POLYLINE
  8
16
 66
1
 10
0.0000
 20
0.0000
 30
0.0000
 40
0.0000
 41
0.0000
 70
1
  0
VERTEX
  8
16
 10
56.9921
 20
31.1601
 30
0.0000
  0
VERTEX
  8
16
 10
56.8321
 20
31.1601
 30
0.0000
 42
1.0000
  0
VERTEX
  8
16
 10
56.8321
 20
30.1441
 30
0.0000
  0
VERTEX
  8
16
 10
56.9921
 20
30.1441
 30
0.0000
 42
1.0000
  0
SEQEND
  8
0
  0
POLYLINE
  8
16
 66
1
 10
0.0000
 20
0.0000
 30
0.0000
 40
0.0000
 41
0.0000
 70
1
  0
VERTEX
  8
16
 10
55.4279
 20
49.1901
 30
0.0000
  0
VERTEX
  8
16
 10
54.6821
 20
49.1901
 30
0.0000
 42
1.0000
  0
VERTEX
  8
16
 10
54.6821
 20
48.1741
 30
0.0000
  0
VERTEX
  8
16
 10
55.4279
 20
48.1741
 30
0.0000
 42
1.0000
  0
SEQEND
  8
0
  0
POLYLINE
  8
16
 66
1
 10
0.0000
 20
0.0000
 30
0.0000
 40
0.0000
 41
0.0000
 70
1
  0
VERTEX
  8
16
 10
54.3229
 20
49.0413
 30
0.0000
  0
VERTEX
  8
16
 10
45.6408
 20
40.3592
 30
0.0000
 42
1.0000
  0
VERTEX
  8
16
 10
46.3592
 20
39.6408
 30
0.0000
  0
VERTEX
  8
16
 10
55.0413
 20
48.3229
 30
0.0000
 42
1.0000
  0
SEQEND
  8
0
  0
POLYLINE
  8
16
 66
1
 10
0.0000
 20
0.0000
 30
0.0000
 40
0.0000
 41
0.0000
 70
1
  0
VERTEX
  8
16
 10
45.4920
 20
40.0000
 30
0.0000
  0
VERTEX
  8
16
 10
45.4920
 20
37.8658
 30
0.0000
 42
1.0000
  0
VERTEX
  8
16
 10
46.5080
 20
37.8658
 30
0.0000
  0
VERTEX
  8
16
 10
46.5080
 20
40.0000
 30
0.0000
 42
1.0000
  0
SEQEND
  8
0
  0
POLYLINE
  8
16
 66
1
 10
0.0000
 20
0.0000
 30
0.0000
 40
0.0000
 41
0.0000
 70
1
  0
VERTEX
  8
16
 10
45.6408
 20
37.5066
 30
0.0000
  0
VERTEX
  8
16
 10
46.2287
 20
36.9187
 30
0.0000
 42
1.0000
  0
VERTEX
  8
16
 10
46.9471
 20
37.6371
 30
0.0000
  0
VERTEX
  8
16
 10
46.3592
 20
38.2250
 30
0.0000
 42
1.0000
  0
SEQEND
  8
0
  0
LINE
  8
19
 10
56.9921
 20
30.6521
 30
0.0000
 11
66.4600
 21
32.0000
 31
0.0000
  0
LINE
  8
19
 10
46.5879
 20
37.2779
 30
0.0000
 11
56.8321
 21
30.6521
 31
0.0000
  0
LINE
  8
19
 10
37.6179
 20
46.2479
 30
0.0000
 11
46.0000
 21
40.0000
 31
0.0000
  0
LINE
  8
19
 10
39.1521
 20
28.2779
 30
0.0000
 11
46.5879
 21
37.2779
 31
0.0000
  0
INSERT
  8
18
  2
ROUNDV
 10
56.0000
 20
38.0000
 30
0.0000
 41
1.5000
 42
1.5000
 43
1.0000
 50
0.0000
  0
CIRCLE
  8
44
 10
56.0000
 20
38.0000
 30
0.0000
 40
0.5000
  0
POLYLINE
  8
16
 66
1
 10
0.0000
 20
0.0000
 30
0.0000
 40
0.0000
 41
0.0000
 70
1
  0
VERTEX
  8
16
 10
19.3571
 20
12.4629
 30
0.0000
  0
VERTEX
  8
16
 10
22.3251
 20
15.4309
 30
0.0000
 42
1.0000
  0
VERTEX
  8
16
 10
21.6067
 20
16.1493
 30
0.0000
  0
VERTEX
  8
16
 10
18.6387
 20
13.1813
 30
0.0000
 42
1.0000
  0
SEQEND
  8
0
  0
POLYLINE
  8
16
 66
1
 10
0.0000
 20
0.0000
 30
0.0000
 40
0.0000
 41
0.0000
 70
1
  0
VERTEX
  8
16
 10
21.4579
 20
17.4841
 30
0.0000
  0
VERTEX
  8
16
 10
21.4579
 20
15.7901
 30
0.0000
 42
1.0000
  0
VERTEX
  8
16
 10
22.4739
 20
15.7901
 30
0.0000
  0
VERTEX
  8
16
 10
22.4739
 20
17.4841
 30
0.0000
 42
1.0000
  0
SEQEND
  8
0
  0
POLYLINE
  8
16
 66
1
 10
0.0000
 20
0.0000
 30
0.0000
 40
0.0000
 41
0.0000
 70
1
  0
VERTEX
  8
16
 10
27.4920
 20
30.0000
 30
0.0000
  0
VERTEX
  8
16
 10
27.4920
 20
26.0000
 30
0.0000
 42
1.0000
  0
VERTEX
  8
16
 10
28.5080
 20
26.0000
 30
0.0000
  0
VERTEX
  8
16
 10
28.5080
 20
30.0000
 30
0.0000
 42
1.0000
  0
SEQEND
  8
0
  0
POLYLINE
  8
16
 66
1
 10
0.0000
 20
0.0000
 30
0.0000
 40
0.0000
 41
0.0000
 70
1
  0
VERTEX
  8
16
 10
21.4920
 20
20.0000
 30
0.0000
  0
VERTEX
  8
16
 10
21.4920
 20
17.5182
 30
0.0000
 42
1.0000
  0
VERTEX
  8
16
 10
22.5080
 20
17.5182
 30
0.0000
  0
VERTEX
  8
16
 10
22.5080
 20
20.0000
 30
0.0000
 42
1.0000
  0
SEQEND
  8
0
  0
POLYLINE
  8
16
 66
1
 10
0.0000
 20
0.0000
 30
0.0000
 40
0.0000
 41
0.0000
 70
1
  0
VERTEX
  8
16
 10
21.6408
 20
17.8774
 30
0.0000
  0
VERTEX
  8
16
 10
21.6067
 20
17.8433
 30
0.0000
 42
1.0000
  0
VERTEX
  8
16
 10
22.3251
 20
17.1249
 30
0.0000
  0
VERTEX
  8
16
 10
22.3592
 20
17.1589
 30
0.0000
 42
1.0000
  0
SEQEND
  8
0
  0
POLYLINE
  8
16
 66
1
 10
0.0000
 20
0.0000
 30
0.0000
 40
0.0000
 41
0.0000
 70
1
  0
VERTEX
  8
16
 10
27.6408
 20
26.3592
 30
0.0000
  0
VERTEX
  8
16
 10
21.6408
 20
20.3592
 30
0.0000
 42
1.0000
  0
VERTEX
  8
16
 10
22.3592
 20
19.6408
 30
0.0000
  0
VERTEX
  8
16
 10
28.3592
 20
25.6408
 30
0.0000
 42
1.0000
  0
SEQEND
  8
0
  0
POLYLINE
  8
16
 66
1
 10
0.0000
 20
0.0000
 30
0.0000
 40
0.0000
 41
0.0000
 70
1
  0
VERTEX
  8
16
 10
28.1971
 20
21.4629
 30
0.0000
  0
VERTEX
  8
16
 10
31.3251
 20
24.5909
 30
0.0000
 42
1.0000
  0
VERTEX
  8
16
 10
30.6067
 20
25.3093
 30
0.0000
  0
VERTEX
  8
16
 10
27.4787
 20
22.1813
 30
0.0000
 42
1.0000
  0
SEQEND
  8
0
  0
POLYLINE
  8
16
 66
1
 10
0.0000
 20
0.0000
 30
0.0000
 40
0.0000
 41
0.0000
 70
1
  0
VERTEX
  8
16
 10
30.4579
 20
26.3241
 30
0.0000
  0
VERTEX
  8
16
 10
30.4579
 20
24.9501
 30
0.0000
 42
1.0000
  0
VERTEX
  8
16
 10
31.4739
 20
24.9501
 30
0.0000
  0
VERTEX
  8
16
 10
31.4739
 20
26.3241
 30
0.0000
 42
1.0000
  0
SEQEND
  8
0
  0
POLYLINE
  8
16
 66
1
 10
0.0000
 20
0.0000
 30
0.0000
 40
0.0000
 41
0.0000
 70
1
  0
VERTEX
  8
16
 10
30.0320
 20
30.0000
 30
0.0000
  0
VERTEX
  8
16
 10
30.0320
 20
26.7500
 30
0.0000
 42
1.0000
  0
VERTEX
  8
16
 10
31.0480
 20
26.7500
 30
0.0000
  0
VERTEX
  8
16
 10
31.0480
 20
30.0000
 30
0.0000
 42
1.0000
  0
SEQEND
  8
0
  0
POLYLINE
  8
16
 66
1
 10
0.0000
 20
0.0000
 30
0.0000
 40
0.0000
 41
0.0000
 70
1
  0
VERTEX
  8
16
 10
30.1808
 20
26.3908
 30
0.0000
  0
VERTEX
  8
16
 10
30.6067
 20
25.9649
 30
0.0000
 42
1.0000
  0
VERTEX
  8
16
 10
31.3251
 20
26.6833
 30
0.0000
  0
VERTEX
  8
16
 10
30.8992
 20
27.1092
 30
0.0000
 42
1.0000
  0
SEQEND
  8
0
  0
POLYLINE
  8
16
 66
1
 10
0.0000
 20
0.0000
 30
0.0000
 40
0.0000
 41
0.0000
 70
1
  0
VERTEX
  8
16
 10
37.1071
 20
30.3229
 30
0.0000
  0
VERTEX
  8
16
 10
40.3251
 20
33.5409
 30
0.0000
 42
1.0000
  0
VERTEX
  8
16
 10
39.6067
 20
34.2593
 30
0.0000
  0
VERTEX
  8
16
 10
36.3887
 20
31.0413
 30
0.0000
 42
1.0000
  0
SEQEND
  8
0
  0
POLYLINE
  8
16
 66
1
 10
0.0000
 20
0.0000
 30
0.0000
 40
0.0000
 41
0.0000
 70
1
  0
VERTEX
  8
16
 10
40.4739
 20
33.9001
 30
0.0000
  0
VERTEX
  8
16
 10
40.4739
 20
35.1641
 30
0.0000
 42
1.0000
  0
VERTEX
  8
16
 10
39.4579
 20
35.1641
 30
0.0000
  0
VERTEX
  8
16
 10
39.4579
 20
33.9001
 30
0.0000
 42
1.0000
  0
SEQEND
  8
0
  0
POLYLINE
  8
16
 66
1
 10
0.0000
 20
0.0000
 30
0.0000
 40
0.0000
 41
0.0000
 70
1
  0
VERTEX
  8
16
 10
33.0800
 20
29.4920
 30
0.0000
  0
VERTEX
  8
16
 10
36.0658
 20
29.4920
 30
0.0000
 42
1.0000
  0
VERTEX
  8
16
 10
36.0658
 20
30.5080
 30
0.0000
  0
VERTEX
  8
16
 10
33.0800
 20
30.5080
 30
0.0000
 42
1.0000
  0
SEQEND
  8
0
  0
POLYLINE
  8
16
 66
1
 10
0.0000
 20
0.0000
 30
0.0000
 40
0.0000
 41
0.0000
 70
1
  0
VERTEX
  8
16
 10
36.4250
 20
29.6408
 30
0.0000
  0
VERTEX
  8
16
 10
37.1071
 20
30.3229
 30
0.0000
 42
1.0000
  0
VERTEX
  8
16
 10
36.3887
 20
31.0413
 30
0.0000
  0
VERTEX
  8
16
 10
35.7066
 20
30.3592
 30
0.0000
 42
1.0000
  0
SEQEND
  8
0
  0
POLYLINE
  8
16
 66
1
 10
0.0000
 20
0.0000
 30
0.0000
 40
0.0000
 41
0.0000
 70
1
  0
VERTEX
  8
16
 10
49.9969
 20
39.3229
 30
0.0000
  0
VERTEX
  8
16
 10
52.6449
 20
36.6749
 30
0.0000
 42
1.0000
  0
VERTEX
  8
16
 10
53.3633
 20
37.3933
 30
0.0000
  0
VERTEX
  8
16
 10
50.7153
 20
40.0413
 30
0.0000
 42
1.0000
  0
SEQEND
  8
0
  0
POLYLINE
  8
16
 66
1
 10
0.0000
 20
0.0000
 30
0.0000
 40
0.0000
 41
0.0000
 70
1
  0
VERTEX
  8
16
 10
50.3561
 20
40.1901
 30
0.0000
  0
VERTEX
  8
16
 10
48.9921
 20
40.1901
 30
0.0000
 42
1.0000
  0
VERTEX
  8
16
 10
48.9921
 20
39.1741
 30
0.0000
  0
VERTEX
  8
16
 10
50.3561
 20
39.1741
 30
0.0000
 42
1.0000
  0
SEQEND
  8
0
  0
POLYLINE
  8
16
 66
1
 10
0.0000
 20
0.0000
 30
0.0000
 40
0.0000
 41
0.0000
 70
1
  0
VERTEX
  8
16
 10
53.0041
 20
36.5261
 30
0.0000
  0
VERTEX
  8
16
 10
55.0341
 20
36.5261
 30
0.0000
 42
1.0000
  0
VERTEX
  8
16
 10
55.0341
 20
37.5421
 30
0.0000
  0
VERTEX
  8
16
 10
53.0041
 20
37.5421
 30
0.0000
 42
1.0000
  0
SEQEND
  8
0
  0
POLYLINE
  8
16
 66
1
 10
0.0000
 20
0.0000
 30
0.0000
 40
0.0000
 41
0.0000
 70
1
  0
VERTEX
  8
16
 10
55.3933
 20
36.6749
 30
0.0000
  0
VERTEX
  8
16
 10
56.3592
 20
37.6408
 30
0.0000
 42
1.0000
  0
VERTEX
  8
16
 10
55.6408
 20
38.3592
 30
0.0000
  0
VERTEX
  8
16
 10
54.6749
 20
37.3933
 30
0.0000
 42
1.0000
  0
SEQEND
  8
0
  0
POLYLINE
  8
16
 66
1
 10
0.0000
 20
0.0000
 30
0.0000
 40
0.0000
 41
0.0000
 70
1
  0
VERTEX
  8
16
 10
63.9200
 20
32.5080
 30
0.0000
  0
VERTEX
  8
16
 10
63.0000
 20
32.5080
 30
0.0000
 42
1.0000
  0
VERTEX
  8
16
 10
63.0000
 20
31.4920
 30
0.0000
  0
VERTEX
  8
16
 10
63.9200
 20
31.4920
 30
0.0000
 42
1.0000
  0
SEQEND
  8
0
  0
POLYLINE
  8
16
 66
1
 10
0.0000
 20
0.0000
 30
0.0000
 40
0.0000
 41
0.0000
 70
1
  0
VERTEX
  8
16
 10
63.3592
 20
32.3592
 30
0.0000
  0
VERTEX
  8
16
 10
61.3592
 20
34.3592
 30
0.0000
 42
1.0000
  0
VERTEX
  8
16
 10
60.6408
 20
33.6408
 30
0.0000
  0
VERTEX
  8
16
 10
62.6408
 20
31.6408
 30
0.0000
 42
1.0000
  0
SEQEND
  8
0
  0
LINE
  8
19
 10
56.0000
 20
38.0000
 30
0.0000
 11
61.0000
 21
34.0000
 31
0.0000
  0
POLYLINE
  8
16
 66
1
 10
0.0000
 20
0.0000
 30
0.0000
 40
0.0000
 41
0.0000
 70
1
  0
VERTEX
  8
16
 10
54.7433
 20
42.4707
 30
0.0000
  0
VERTEX
  8
16
 10
58.1913
 20
45.9187
 30
0.0000
 42
1.0000
  0
VERTEX
  8
16
 10
57.4729
 20
46.6371
 30
0.0000
  0
VERTEX
  8
16
 10
54.0249
 20
43.1891
 30
0.0000
 42
1.0000
  0
SEQEND
  8
0
  0
POLYLINE
  8
16
 66
1
 10
0.0000
 20
0.0000
 30
0.0000
 40
0.0000
 41
0.0000
 70
1
  0
VERTEX
  8
16
 10
53.8761
 20
42.8299
 30
0.0000
  0
VERTEX
  8
16
 10
53.8761
 20
40.5259
 30
0.0000
 42
1.0000
  0
VERTEX
  8
16
 10
54.8921
 20
40.5259
 30
0.0000
  0
VERTEX
  8
16
 10
54.8921
 20
42.8299
 30
0.0000
 42
1.0000
  0
SEQEND
  8
0
  0
POLYLINE
  8
16
 66
1
 10
0.0000
 20
0.0000
 30
0.0000
 40
0.0000
 41
0.0000
 70
1
  0
VERTEX
  8
16
 10
57.8321
 20
45.7699
 30
0.0000
  0
VERTEX
  8
16
 10
59.7221
 20
45.7699
 30
0.0000
 42
1.0000
  0
VERTEX
  8
16
 10
59.7221
 20
46.7859
 30
0.0000
  0
VERTEX
  8
16
 10
57.8321
 20
46.7859
 30
0.0000
 42
1.0000
  0
SEQEND
  8
0
  0
POLYLINE
  8
16
 66
1
 10
0.0000
 20
0.0000
 30
0.0000
 40
0.0000
 41
0.0000
 70
1
  0
VERTEX
  8
16
 10
59.3629
 20
45.9187
 30
0.0000
  0
VERTEX
  8
16
 10
60.6408
 20
44.6408
 30
0.0000
 42
1.0000
  0
VERTEX
  8
16
 10
61.3592
 20
45.3592
 30
0.0000
  0
VERTEX
  8
16
 10
60.0813
 20
46.6371
 30
0.0000
 42
1.0000
  0
SEQEND
  8
0
  0
POLYLINE
  8
16
 66
1
 10
0.0000
 20
0.0000
 30
0.0000
 40
0.0000
 41
0.0000
 70
1
  0
VERTEX
  8
16
 10
66.3129
 20
55.6371
 30
0.0000
  0
VERTEX
  8
16
 10
63.0249
 20
52.3491
 30
0.0000
 42
1.0000
  0
VERTEX
  8
16
 10
63.7433
 20
51.6307
 30
0.0000
  0
VERTEX
  8
16
 10
67.0313
 20
54.9187
 30
0.0000
 42
1.0000
  0
SEQEND
  8
0
  0
POLYLINE
  8
16
 66
1
 10
0.0000
 20
0.0000
 30
0.0000
 40
0.0000
 41
0.0000
 70
1
  0
VERTEX
  8
16
 10
62.8761
 20
51.9899
 30
0.0000
  0
VERTEX
  8
16
 10
62.8761
 20
49.3659
 30
0.0000
 42
1.0000
  0
VERTEX
  8
16
 10
63.8921
 20
49.3659
 30
0.0000
  0
VERTEX
  8
16
 10
63.8921
 20
51.9899
 30
0.0000
 42
1.0000
  0
SEQEND
  8
0
  0
POLYLINE
  8
16
 66
1
 10
0.0000
 20
0.0000
 30
0.0000
 40
0.0000
 41
0.0000
 70
1
  0
VERTEX
  8
16
 10
62.8761
 20
49.3659
 30
0.0000
  0
VERTEX
  8
16
 10
62.8761
 20
45.1559
 30
0.0000
 42
1.0000
  0
VERTEX
  8
16
 10
63.8921
 20
45.1559
 30
0.0000
  0
VERTEX
  8
16
 10
63.8921
 20
49.3659
 30
0.0000
 42
1.0000
  0
SEQEND
  8
0
  0
POLYLINE
  8
16
 66
1
 10
0.0000
 20
0.0000
 30
0.0000
 40
0.0000
 41
0.0000
 70
1
  0
VERTEX
  8
16
 10
63.0249
 20
44.7967
 30
0.0000
  0
VERTEX
  8
16
 10
63.1808
 20
44.6408
 30
0.0000
 42
1.0000
  0
VERTEX
  8
16
 10
63.8992
 20
45.3592
 30
0.0000
  0
VERTEX
  8
16
 10
63.7433
 20
45.5151
 30
0.0000
 42
1.0000
  0
SEQEND
  8
0
  0
POLYLINE
  8
16
 66
1
 10
0.0000
 20
0.0000
 30
0.0000
 40
0.0000
 41
0.0000
 70
1
  0
VERTEX
  8
16
 10
75.1529
 20
64.6371
 30
0.0000
  0
VERTEX
  8
16
 10
71.6449
 20
61.1291
 30
0.0000
 42
1.0000
  0
VERTEX
  8
16
 10
72.3633
 20
60.4107
 30
0.0000
  0
VERTEX
  8
16
 10
75.8713
 20
63.9187
 30
0.0000
 42
1.0000
  0
SEQEND
  8
0
  0
POLYLINE
  8
16
 66
1
 10
0.0000
 20
0.0000
 30
0.0000
 40
0.0000
 41
0.0000
 70
1
  0
VERTEX
  8
16
 10
71.4961
 20
60.7699
 30
0.0000
  0
VERTEX
  8
16
 10
71.4961
 20
58.4059
 30
0.0000
 42
1.0000
  0
VERTEX
  8
16
 10
72.5121
 20
58.4059
 30
0.0000
  0
VERTEX
  8
16
 10
72.5121
 20
60.7699
 30
0.0000
 42
1.0000
  0
SEQEND
  8
0
  0
POLYLINE
  8
16
 66
1
 10
0.0000
 20
0.0000
 30
0.0000
 40
0.0000
 41
0.0000
 70
1
  0
VERTEX
  8
16
 10
71.4961
 20
58.4059
 30
0.0000
  0
VERTEX
  8
16
 10
71.4961
 20
56.0041
 30
0.0000
 42
1.0000
  0
VERTEX
  8
16
 10
72.5121
 20
56.0041
 30
0.0000
  0
VERTEX
  8
16
 10
72.5121
 20
58.4059
 30
0.0000
 42
1.0000
  0
SEQEND
  8
0
  0
POLYLINE
  8
16
 66
1
 10
0.0000
 20
0.0000
 30
0.0000
 40
0.0000
 41
0.0000
 70
1
  0
VERTEX
  8
16
 10
71.6449
 20
56.3633
 30
0.0000
  0
VERTEX
  8
16
 10
65.6408
 20
50.3592
 30
0.0000
 42
1.0000
  0
VERTEX
  8
16
 10
66.3592
 20
49.6408
 30
0.0000
  0
VERTEX
  8
16
 10
72.3633
 20
55.6449
 30
0.0000
 42
1.0000
  0
SEQEND
  8
0
  0
POLYLINE
  8
16
 66
1
 10
0.0000
 20
0.0000
 30
0.0000
 40
0.0000
 41
0.0000
 70
1
  0
VERTEX
  8
16
 10
65.4920
 20
50.0000
 30
0.0000
  0
VERTEX
  8
16
 10
65.4920
 20
45.0800
 30
0.0000
 42
1.0000
  0
VERTEX
  8
16
 10
66.5080
 20
45.0800
 30
0.0000
  0
VERTEX
  8
16
 10
66.5080
 20
50.0000
 30
0.0000
 42
1.0000
  0
SEQEND
  8
0
  0
POLYLINE
  8
16
 66
1
 10
0.0000
 20
0.0000
 30
0.0000
 40
0.0000
 41
0.0000
 70
1
  0
VERTEX
  8
16
 10
65.6408
 20
44.7208
 30
0.0000
  0
VERTEX
  8
16
 10
65.7208
 20
44.6408
 30
0.0000
 42
1.0000
  0
VERTEX
  8
16
 10
66.4392
 20
45.3592
 30
0.0000
  0
VERTEX
  8
16
 10
66.3592
 20
45.4392
 30
0.0000
 42
1.0000
  0
SEQEND
  8
0
  0
POLYLINE
  8
16
 66
1
 10
0.0000
 20
0.0000
 30
0.0000
 40
0.0000
 41
0.0000
 70
1
  0
VERTEX
  8
16
 10
73.1071
 20
10.6071
 30
0.0000
  0
VERTEX
  8
16
 10
69.7391
 20
13.9751
 30
0.0000
 42
1.0000
  0
VERTEX
  8
16
 10
69.0207
 20
13.2567
 30
0.0000
  0
VERTEX
  8
16
 10
72.3887
 20
9.8887
 30
0.0000
 42
1.0000
  0
SEQEND
  8
0
  0
POLYLINE
  8
16
 66
1
 10
0.0000
 20
0.0000
 30
0.0000
 40
0.0000
 41
0.0000
 70
1
  0
VERTEX
  8
16
 10
69.3799
 20
14.1239
 30
0.0000
  0
VERTEX
  8
16
 10
67.0459
 20
14.1239
 30
0.0000
 42
1.0000
  0
VERTEX
  8
16
 10
67.0459
 20
13.1079
 30
0.0000
  0
VERTEX
  8
16
 10
69.3799
 20
13.1079
 30
0.0000
 42
1.0000
  0
SEQEND
  8
0
  0
POLYLINE
  8
16
 66
1
 10
0.0000
 20
0.0000
 30
0.0000
 40
0.0000
 41
0.0000
 70
1
  0
VERTEX
  8
16
 10
67.0459
 20
14.1239
 30
0.0000
  0
VERTEX
  8
16
 10
65.3841
 20
14.1239
 30
0.0000
 42
1.0000
  0
VERTEX
  8
16
 10
65.3841
 20
13.1079
 30
0.0000
  0
VERTEX
  8
16
 10
67.0459
 20
13.1079
 30
0.0000
 42
1.0000
  0
SEQEND
  8
0
  0
POLYLINE
  8
16
 66
1
 10
0.0000
 20
0.0000
 30
0.0000
 40
0.0000
 41
0.0000
 70
1
  0
VERTEX
  8
16
 10
65.7433
 20
13.9751
 30
0.0000
  0
VERTEX
  8
16
 10
60.3592
 20
19.3592
 30
0.0000
 42
1.0000
  0
VERTEX
  8
16
 10
59.6408
 20
18.6408
 30
0.0000
  0
VERTEX
  8
16
 10
65.0249
 20
13.2567
 30
0.0000
 42
1.0000
  0
SEQEND
  8
0
  0
POLYLINE
  8
16
 66
1
 10
0.0000
 20
0.0000
 30
0.0000
 40
0.0000
 41
0.0000
 70
1
  0
VERTEX
  8
16
 10
60.0000
 20
19.5080
 30
0.0000
  0
VERTEX
  8
16
 10
55.0000
 20
19.5080
 30
0.0000
 42
1.0000
  0
VERTEX
  8
16
 10
55.0000
 20
18.4920
 30
0.0000
  0
VERTEX
  8
16
 10
60.0000
 20
18.4920
 30
0.0000
 42
1.0000
  0
SEQEND
  8
0
  0
POLYLINE
  8
16
 66
1
 10
0.0000
 20
0.0000
 30
0.0000
 40
0.0000
 41
0.0000
 70
1
  0
VERTEX
  8
16
 10
63.9471
 20
19.6071
 30
0.0000
  0
VERTEX
  8
16
 10
61.5791
 20
21.9751
 30
0.0000
 42
1.0000
  0
VERTEX
  8
16
 10
60.8607
 20
21.2567
 30
0.0000
  0
VERTEX
  8
16
 10
63.2287
 20
18.8887
 30
0.0000
 42
1.0000
  0
SEQEND
  8
0
  0
POLYLINE
  8
16
 66
1
 10
0.0000
 20
0.0000
 30
0.0000
 40
0.0000
 41
0.0000
 70
1
  0
VERTEX
  8
16
 10
61.2199
 20
22.1239
 30
0.0000
  0
VERTEX
  8
16
 10
58.8859
 20
22.1239
 30
0.0000
 42
1.0000
  0
VERTEX
  8
16
 10
58.8859
 20
21.1079
 30
0.0000
  0
VERTEX
  8
16
 10
61.2199
 20
21.1079
 30
0.0000
 42
1.0000
  0
SEQEND
  8
0
  0
POLYLINE
  8
16
 66
1
 10
0.0000
 20
0.0000
 30
0.0000
 40
0.0000
 41
0.0000
 70
1
  0
VERTEX
  8
16
 10
58.8859
 20
22.1239
 30
0.0000
  0
VERTEX
  8
16
 10
55.0759
 20
22.1239
 30
0.0000
 42
1.0000
  0
VERTEX
  8
16
 10
55.0759
 20
21.1079
 30
0.0000
  0
VERTEX
  8
16
 10
58.8859
 20
21.1079
 30
0.0000
 42
1.0000
  0
SEQEND
  8
0
  0
POLYLINE
  8
16
 66
1
 10
0.0000
 20
0.0000
 30
0.0000
 40
0.0000
 41
0.0000
 70
1
  0
VERTEX
  8
16
 10
54.7167
 20
21.9751
 30
0.0000
  0
VERTEX
  8
16
 10
54.6408
 20
21.8992
 30
0.0000
 42
1.0000
  0
VERTEX
  8
16
 10
55.3592
 20
21.1808
 30
0.0000
  0
VERTEX
  8
16
 10
55.4351
 20
21.2567
 30
0.0000
 42
1.0000
  0
SEQEND
  8
0
  0
POLYLINE
  8
16
 66
1
 10
0.0000
 20
0.0000
 30
0.0000
 40
0.0000
 41
0.0000
 70
1
  0
VERTEX
  8
16
 10
54.7871
 20
28.6071
 30
0.0000
  0
VERTEX
  8
16
 10
52.6091
 20
30.7851
 30
0.0000
 42
1.0000
  0
VERTEX
  8
16
 10
51.8907
 20
30.0667
 30
0.0000
  0
VERTEX
  8
16
 10
54.0687
 20
27.8887
 30
0.0000
 42
1.0000
  0
SEQEND
  8
0
  0
POLYLINE
  8
16
 66
1
 10
0.0000
 20
0.0000
 30
0.0000
 40
0.0000
 41
0.0000
 70
1
  0
VERTEX
  8
16
 10
52.2499
 20
30.9339
 30
0.0000
  0
VERTEX
  8
16
 10
50.5259
 20
30.9339
 30
0.0000
 42
1.0000
  0
VERTEX
  8
16
 10
50.5259
 20
29.9179
 30
0.0000
  0
VERTEX
  8
16
 10
52.2499
 20
29.9179
 30
0.0000
 42
1.0000
  0
SEQEND
  8
0
  0
POLYLINE
  8
16
 66
1
 10
0.0000
 20
0.0000
 30
0.0000
 40
0.0000
 41
0.0000
 70
1
  0
VERTEX
  8
16
 10
55.5080
 20
24.0800
 30
0.0000
  0
VERTEX
  8
16
 10
55.5080
 20
27.6758
 30
0.0000
 42
1.0000
  0
VERTEX
  8
16
 10
54.4920
 20
27.6758
 30
0.0000
  0
VERTEX
  8
16
 10
54.4920
 20
24.0800
 30
0.0000
 42
1.0000
  0
SEQEND
  8
0
  0
POLYLINE
  8
16
 66
1
 10
0.0000
 20
0.0000
 30
0.0000
 40
0.0000
 41
0.0000
 70
1
  0
VERTEX
  8
16
 10
55.3592
 20
28.0350
 30
0.0000
  0
VERTEX
  8
16
 10
54.7871
 20
28.6071
 30
0.0000
 42
1.0000
  0
VERTEX
  8
16
 10
54.0687
 20
27.8887
 30
0.0000
  0
VERTEX
  8
16
 10
54.6408
 20
27.3166
 30
0.0000
 42
1.0000
  0
SEQEND
  8
0
  0
POLYLINE
  8
16
 66
1
 10
0.0000
 20
0.0000
 30
0.0000
 40
0.0000
 41
0.0000
 70
1
  0
VERTEX
  8
16
 10
39.3129
 20
48.2929
 30
0.0000
  0
VERTEX
  8
16
 10
42.1509
 20
45.4549
 30
0.0000
 42
1.0000
  0
VERTEX
  8
16
 10
42.8693
 20
46.1733
 30
0.0000
  0
VERTEX
  8
16
 10
40.0313
 20
49.0113
 30
0.0000
 42
1.0000
  0
SEQEND
  8
0
  0
POLYLINE
  8
16
 66
1
 10
0.0000
 20
0.0000
 30
0.0000
 40
0.0000
 41
0.0000
 70
1
  0
VERTEX
  8
16
 10
42.5101
 20
45.3061
 30
0.0000
  0
VERTEX
  8
16
 10
44.7541
 20
45.3061
 30
0.0000
 42
1.0000
  0
VERTEX
  8
16
 10
44.7541
 20
46.3221
 30
0.0000
  0
VERTEX
  8
16
 10
42.5101
 20
46.3221
 30
0.0000
 42
1.0000
  0
SEQEND
  8
0
  0
POLYLINE
  8
16
 66
1
 10
0.0000
 20
0.0000
 30
0.0000
 40
0.0000
 41
0.0000
 70
1
  0
VERTEX
  8
16
 10
38.4920
 20
52.0000
 30
0.0000
  0
VERTEX
  8
16
 10
38.4920
 20
49.3242
 30
0.0000
 42
1.0000
  0
VERTEX
  8
16
 10
39.5080
 20
49.3242
 30
0.0000
  0
VERTEX
  8
16
 10
39.5080
 20
52.0000
 30
0.0000
 42
1.0000
  0
SEQEND
  8
0
  0
POLYLINE
  8
16
 66
1
 10
0.0000
 20
0.0000
 30
0.0000
 40
0.0000
 41
0.0000
 70
1
  0
VERTEX
  8
16
 10
38.6408
 20
48.9650
 30
0.0000
  0
VERTEX
  8
16
 10
39.3129
 20
48.2929
 30
0.0000
 42
1.0000
  0
VERTEX
  8
16
 10
40.0313
 20
49.0113
 30
0.0000
  0
VERTEX
  8
16
 10
39.3592
 20
49.6834
 30
0.0000
 42
1.0000
  0
SEQEND
  8
0
  0
POLYLINE
  8
16
 66
1
 10
0.0000
 20
0.0000
 30
0.0000
 40
0.0000
 41
0.0000
 70
1
  0
VERTEX
  8
16
 10
30.1529
 20
57.2929
 30
0.0000
  0
VERTEX
  8
16
 10
32.9909
 20
54.4549
 30
0.0000
 42
1.0000
  0
VERTEX
  8
16
 10
33.7093
 20
55.1733
 30
0.0000
  0
VERTEX
  8
16
 10
30.8713
 20
58.0113
 30
0.0000
 42
1.0000
  0
SEQEND
  8
0
  0
POLYLINE
  8
16
 66
1
 10
0.0000
 20
0.0000
 30
0.0000
 40
0.0000
 41
0.0000
 70
1
  0
VERTEX
  8
16
 10
35.5941
 20
55.3221
 30
0.0000
  0
VERTEX
  8
16
 10
33.3501
 20
55.3221
 30
0.0000
 42
1.0000
  0
VERTEX
  8
16
 10
33.3501
 20
54.3061
 30
0.0000
  0
VERTEX
  8
16
 10
35.5941
 20
54.3061
 30
0.0000
 42
1.0000
  0
SEQEND
  8
0
  0
POLYLINE
  8
16
 66
1
 10
0.0000
 20
0.0000
 30
0.0000
 40
0.0000
 41
0.0000
 70
1
  0
VERTEX
  8
16
 10
39.0000
 20
55.0480
 30
0.0000
  0
VERTEX
  8
16
 10
35.8681
 20
55.0480
 30
0.0000
 42
1.0000
  0
VERTEX
  8
16
 10
35.8681
 20
54.0320
 30
0.0000
  0
VERTEX
  8
16
 10
39.0000
 20
54.0320
 30
0.0000
 42
1.0000
  0
SEQEND
  8
0
  0
POLYLINE
  8
16
 66
1
 10
0.0000
 20
0.0000
 30
0.0000
 40
0.0000
 41
0.0000
 70
1
  0
VERTEX
  8
16
 10
36.2274
 20
54.8992
 30
0.0000
  0
VERTEX
  8
16
 10
35.9533
 20
55.1733
 30
0.0000
 42
1.0000
  0
VERTEX
  8
16
 10
35.2349
 20
54.4549
 30
0.0000
  0
VERTEX
  8
16
 10
35.5089
 20
54.1808
 30
0.0000
 42
1.0000
  0
SEQEND
  8
0
  0
POLYLINE
  8
16
 66
1
 10
0.0000
 20
0.0000
 30
0.0000
 40
0.0000
 41
0.0000
 70
1
  0
VERTEX
  8
16
 10
20.7929
 20
66.2629
 30
0.0000
  0
VERTEX
  8
16
 10
23.6009
 20
63.4549
 30
0.0000
 42
1.0000
  0
VERTEX
  8
16
 10
24.3193
 20
64.1733
 30
0.0000
  0
VERTEX
  8
16
 10
21.5113
 20
66.9813
 30
0.0000
 42
1.0000
  0
SEQEND
  8
0
  0
POLYLINE
  8
16
 66
1
 10
0.0000
 20
0.0000
 30
0.0000
 40
0.0000
 41
0.0000
 70
1
  0
VERTEX
  8
16
 10
23.9601
 20
63.3061
 30
0.0000
  0
VERTEX
  8
16
 10
26.4341
 20
63.3061
 30
0.0000
 42
1.0000
  0
VERTEX
  8
16
 10
26.4341
 20
64.3221
 30
0.0000
  0
VERTEX
  8
16
 10
23.9601
 20
64.3221
 30
0.0000
 42
1.0000
  0
SEQEND
  8
0
  0
POLYLINE
  8
16
 66
1
 10
0.0000
 20
0.0000
 30
0.0000
 40
0.0000
 41
0.0000
 70
1
  0
VERTEX
  8
16
 10
26.4341
 20
63.3061
 30
0.0000
  0
VERTEX
  8
16
 10
28.1859
 20
63.3061
 30
0.0000
 42
1.0000
  0
VERTEX
  8
16
 10
28.1859
 20
64.3221
 30
0.0000
  0
VERTEX
  8
16
 10
26.4341
 20
64.3221
 30
0.0000
 42
1.0000
  0
SEQEND
  8
0
  0
POLYLINE
  8
16
 66
1
 10
0.0000
 20
0.0000
 30
0.0000
 40
0.0000
 41
0.0000
 70
1
  0
VERTEX
  8
16
 10
27.8267
 20
63.4549
 30
0.0000
  0
VERTEX
  8
16
 10
34.6408
 20
56.6408
 30
0.0000
 42
1.0000
  0
VERTEX
  8
16
 10
35.3592
 20
57.3592
 30
0.0000
  0
VERTEX
  8
16
 10
28.5451
 20
64.1733
 30
0.0000
 42
1.0000
  0
SEQEND
  8
0
  0
POLYLINE
  8
16
 66
1
 10
0.0000
 20
0.0000
 30
0.0000
 40
0.0000
 41
0.0000
 70
1
  0
VERTEX
  8
16
 10
35.0000
 20
56.4920
 30
0.0000
  0
VERTEX
  8
16
 10
38.9200
 20
56.4920
 30
0.0000
 42
1.0000
  0
VERTEX
  8
16
 10
38.9200
 20
57.5080
 30
0.0000
  0
VERTEX
  8
16
 10
35.0000
 20
57.5080
 30
0.0000
 42
1.0000
  0
SEQEND
  8
0
  0
POLYLINE
  8
16
 66
1
 10
0.0000
 20
0.0000
 30
0.0000
 40
0.0000
 41
0.0000
 70
1
  0
VERTEX
  8
16
 10
39.2792
 20
56.6408
 30
0.0000
  0
VERTEX
  8
16
 10
39.3592
 20
56.7208
 30
0.0000
 42
1.0000
  0
VERTEX
  8
16
 10
38.6408
 20
57.4392
 30
0.0000
  0
VERTEX
  8
16
 10
38.5608
 20
57.3592
 30
0.0000
 42
1.0000
  0
SEQEND
  8
0
  0
INSERT
  8
18
  2
ROUNDV
 10
61.0000
 20
34.0000
 30
0.0000
 41
1.5000
 42
1.5000
 43
1.0000
 50
0.0000
  0
CIRCLE
  8
44
 10
61.0000
 20
34.0000
 30
0.0000
 40
0.5000
  0
ENDSEC
  0
EOF
