%
M48
M72
T01C0.03200
T02C0.04000
T03C0.05200
T04C0.12598
T05C0.13000
%
T01
X181250Y148000
X191250Y148000
X146250Y53000
X126250Y153000
X146250Y23000
X191250Y118000
X181250Y118000
X121250Y273000
X156250Y153000
X121250Y263000
X151250Y263000
X151250Y273000
X316250Y193000
X346250Y193000
X346250Y223000
X316250Y223000
T02
X111250Y23000
X101250Y23000
X51250Y23000
X61250Y23000
X216250Y293000
X206250Y103000
X216250Y233000
X186250Y103000
X201250Y83000
X111250Y83000
X191250Y23000
X181250Y23000
X236250Y103000
X286250Y103000
X276250Y103000
X266250Y103000
X256250Y103000
X246250Y103000
X226250Y103000
X191250Y83000
X156250Y103000
X151250Y83000
X161250Y83000
X166250Y103000
X176250Y103000
X196250Y103000
X226250Y78000
X236250Y63000
X226250Y63000
X246250Y78000
X256250Y78000
X266250Y78000
X236250Y78000
X296250Y103000
X316250Y208000
X346250Y208000
X356250Y208000
X336250Y208000
X326250Y208000
X226250Y233000
X116250Y173000
X126250Y173000
X136250Y233000
X126250Y233000
X116250Y233000
X146250Y233000
X166250Y233000
X166250Y173000
X176250Y173000
X181250Y273000
X201250Y273000
X206250Y293000
X190250Y293000
X180250Y293000
X171250Y273000
X191250Y273000
X170250Y293000
X160250Y293000
X150250Y293000
X140250Y293000
X130250Y293000
X120250Y293000
X266250Y173000
X256250Y173000
X246250Y173000
X316250Y178000
X326250Y178000
X336250Y178000
X286250Y78000
X296250Y78000
X306250Y78000
X316250Y103000
X326250Y103000
X336250Y103000
X346250Y103000
X356250Y103000
X406250Y133000
X396250Y273000
X406250Y273000
X406250Y153000
X396250Y153000
X406250Y163000
X406250Y173000
X256250Y233000
X266250Y233000
X346250Y293000
X336250Y293000
X326250Y293000
X316250Y293000
X306250Y293000
X296250Y293000
X266250Y293000
X256250Y293000
X246250Y293000
X236250Y293000
X226250Y293000
X176250Y233000
X276250Y293000
X396250Y213000
X396250Y203000
X396250Y193000
X406250Y193000
X406250Y183000
X396250Y183000
X346250Y178000
X406250Y203000
X406250Y213000
X406250Y223000
X406250Y293000
X396250Y293000
X396250Y283000
X406250Y283000
X396250Y263000
X406250Y263000
X406250Y253000
X396250Y243000
X406250Y243000
X406250Y233000
X396250Y233000
X396250Y223000
X396250Y253000
X366250Y293000
X356250Y293000
X396250Y173000
X396250Y163000
X396250Y143000
X406250Y143000
X406250Y123000
X396250Y123000
X386250Y103000
X376250Y103000
X366250Y103000
X396250Y133000
X276250Y78000
X201250Y23000
X101250Y83000
X81250Y83000
X71250Y83000
X51250Y83000
X61250Y83000
T03
X61250Y108500
X61250Y128100
X61250Y167500
X61250Y188500
X61250Y147900
X61250Y292900
X61250Y273200
X61250Y227900
X61250Y247500
X61250Y208100
T04
X86250Y293000
X81250Y103000
X286250Y123000
X286250Y233000
X406250Y103000
X381250Y293000
T05
X176250Y68000
X146250Y203000
X241250Y218000
X81250Y53000
M30
