  0
SECTION
  2
HEADER
  9
$ACADVER
  1
AC1009
  9
$DWGCODEPAGE
  3
ansi_1252
  9
$INSBASE
 10
0.0
 20
0.0
 30
0.0
  9
$EXTMIN
 10
23.59432106630767
 20
0.6242999999999999
 30
0.0
  9
$EXTMAX
 10
45.55392106630773
 20
40.231
 30
0.0
  9
$LIMMIN
 10
0.0
 20
0.0
  9
$LIMMAX
 10
12.0
 20
9.0
  9
$ORTHOMODE
 70
     0
  9
$REGENMODE
 70
     1
  9
$FILLMODE
 70
     1
  9
$QTEXTMODE
 70
     0
  9
$MIRRTEXT
 70
     1
  9
$DRAGMODE
 70
     2
  9
$LTSCALE
 40
1.0
  9
$OSMODE
 70
    37
  9
$ATTMODE
 70
     1
  9
$TEXTSIZE
 40
0.2
  9
$TRACEWID
 40
0.05
  9
$TEXTSTYLE
  7
STANDARD
  9
$CLAYER
  8
16
  9
$CELTYPE
  6
BYLAYER
  9
$CECOLOR
 62
   256
  9
$DIMSCALE
 40
1.0
  9
$DIMASZ
 40
0.18
  9
$DIMEXO
 40
0.0625
  9
$DIMDLI
 40
0.38
  9
$DIMRND
 40
0.0
  9
$DIMDLE
 40
0.0
  9
$DIMEXE
 40
0.18
  9
$DIMTP
 40
0.0
  9
$DIMTM
 40
0.0
  9
$DIMTXT
 40
0.18
  9
$DIMCEN
 40
0.09
  9
$DIMTSZ
 40
0.0
  9
$DIMTOL
 70
     0
  9
$DIMLIM
 70
     0
  9
$DIMTIH
 70
     1
  9
$DIMTOH
 70
     1
  9
$DIMSE1
 70
     0
  9
$DIMSE2
 70
     0
  9
$DIMTAD
 70
     0
  9
$DIMZIN
 70
     0
  9
$DIMBLK
  1

  9
$DIMASO
 70
     1
  9
$DIMSHO
 70
     1
  9
$DIMPOST
  1

  9
$DIMAPOST
  1

  9
$DIMALT
 70
     0
  9
$DIMALTD
 70
     2
  9
$DIMALTF
 40
25.4
  9
$DIMLFAC
 40
1.0
  9
$DIMTOFL
 70
     0
  9
$DIMTVP
 40
0.0
  9
$DIMTIX
 70
     0
  9
$DIMSOXD
 70
     0
  9
$DIMSAH
 70
     0
  9
$DIMBLK1
  1

  9
$DIMBLK2
  1

  9
$DIMSTYLE
  2
STANDARD
  9
$DIMCLRD
 70
     0
  9
$DIMCLRE
 70
     0
  9
$DIMCLRT
 70
     0
  9
$DIMTFAC
 40
1.0
  9
$DIMGAP
 40
0.09
  9
$LUNITS
 70
     2
  9
$LUPREC
 70
     3
  9
$SKETCHINC
 40
0.1
  9
$FILLETRAD
 40
0.5
  9
$AUNITS
 70
     0
  9
$AUPREC
 70
     0
  9
$MENU
  1
.
  9
$ELEVATION
 40
0.0
  9
$PELEVATION
 40
0.0
  9
$THICKNESS
 40
0.0
  9
$LIMCHECK
 70
     0
  9
$CHAMFERA
 40
0.0
  9
$CHAMFERB
 40
0.0
  9
$SKPOLY
 70
     0
  9
$TDCREATE
 40
2458338.521902408
  9
$TDUPDATE
 40
2458338.521924132
  9
$TDINDWG
 40
0.0000000116
  9
$TDUSRTIMER
 40
0.0000000116
  9
$USRTIMER
 70
     1
  9
$ANGBASE
 50
0.0
  9
$ANGDIR
 70
     0
  9
$PDMODE
 70
     0
  9
$PDSIZE
 40
0.0
  9
$PLINEWID
 40
0.0
  9
$COORDS
 70
     1
  9
$SPLFRAME
 70
     0
  9
$SPLINETYPE
 70
     6
  9
$SPLINESEGS
 70
     8
  9
$ATTDIA
 70
     0
  9
$ATTREQ
 70
     1
  9
$HANDLING
 70
     1
  9
$HANDSEED
  5
1B5
  9
$SURFTAB1
 70
     6
  9
$SURFTAB2
 70
     6
  9
$SURFTYPE
 70
     6
  9
$SURFU
 70
     6
  9
$SURFV
 70
     6
  9
$UCSNAME
  2

  9
$UCSORG
 10
0.0
 20
0.0
 30
0.0
  9
$UCSXDIR
 10
1.0
 20
0.0
 30
0.0
  9
$UCSYDIR
 10
0.0
 20
1.0
 30
0.0
  9
$PUCSNAME
  2

  9
$PUCSORG
 10
0.0
 20
0.0
 30
0.0
  9
$PUCSXDIR
 10
1.0
 20
0.0
 30
0.0
  9
$PUCSYDIR
 10
0.0
 20
1.0
 30
0.0
  9
$USERI1
 70
     0
  9
$USERI2
 70
     0
  9
$USERI3
 70
     0
  9
$USERI4
 70
     0
  9
$USERI5
 70
     0
  9
$USERR1
 40
0.0
  9
$USERR2
 40
0.0
  9
$USERR3
 40
0.0
  9
$USERR4
 40
0.0
  9
$USERR5
 40
0.0
  9
$WORLDVIEW
 70
     1
  9
$SHADEDGE
 70
     3
  9
$SHADEDIF
 70
    70
  9
$TILEMODE
 70
     1
  9
$MAXACTVP
 70
    64
  9
$PLIMCHECK
 70
     0
  9
$PEXTMIN
 10
1.000000000000000E+20
 20
1.000000000000000E+20
 30
1.000000000000000E+20
  9
$PEXTMAX
 10
-1.000000000000000E+20
 20
-1.000000000000000E+20
 30
-1.000000000000000E+20
  9
$PLIMMIN
 10
0.0
 20
0.0
  9
$PLIMMAX
 10
12.0
 20
9.0
  9
$UNITMODE
 70
     0
  9
$VISRETAIN
 70
     1
  9
$PLINEGEN
 70
     0
  9
$PSLTSCALE
 70
     1
  0
ENDSEC
  0
SECTION
  2
TABLES
  0
TABLE
  2
VPORT
 70
     1
  0
VPORT
  2
*ACTIVE
 70
     0
 10
0.0
 20
0.0
 11
1.0
 21
1.0
 12
34.5741210663077
 22
20.42765
 13
0.0
 23
0.0
 14
0.5
 24
0.5
 15
0.5
 25
0.5
 16
0.0
 26
0.0
 36
1.0
 17
0.0
 27
0.0
 37
0.0
 40
40.398834
 41
0.5544415465060218
 42
50.0
 43
0.0
 44
0.0
 50
0.0
 51
0.0
 71
     0
 72
   100
 73
     1
 74
     3
 75
     0
 76
     0
 77
     0
 78
     0
  0
ENDTAB
  0
TABLE
  2
LTYPE
 70
     1
  0
LTYPE
  2
CONTINUOUS
 70
     0
  3
Solid line
 72
    65
 73
     0
 40
0.0
  0
ENDTAB
  0
TABLE
  2
LAYER
 70
     4
  0
LAYER
  2
0
 70
     0
 62
     7
  6
CONTINUOUS
  0
LAYER
  2
20
 70
     0
 62
    30
  6
CONTINUOUS
  0
LAYER
  2
44
 70
     0
 62
     4
  6
CONTINUOUS
  0
LAYER
  2
16
 70
     0
 62
     5
  6
CONTINUOUS
  0
ENDTAB
  0
TABLE
  2
STYLE
 70
     1
  0
STYLE
  2
STANDARD
 70
     0
 40
0.0
 41
1.0
 50
0.0
 71
     0
 42
0.2
  3
txt
  4

  0
ENDTAB
  0
TABLE
  2
VIEW
 70
     0
  0
ENDTAB
  0
TABLE
  2
UCS
 70
     0
  0
ENDTAB
  0
TABLE
  2
APPID
 70
     1
  0
APPID
  2
ACAD
 70
     0
  0
ENDTAB
  0
TABLE
  2
DIMSTYLE
 70
     1
  0
DIMSTYLE
  2
STANDARD
 70
     0
  3

  4

  5

  6

  7

 40
1.0
 41
0.18
 42
0.0625
 43
0.38
 44
0.18
 45
0.0
 46
0.0
 47
0.0
 48
0.0
140
0.18
141
0.09
142
0.0
143
25.4
144
1.0
145
0.0
146
1.0
147
0.09
 71
     0
 72
     0
 73
     1
 74
     1
 75
     0
 76
     0
 77
     0
 78
     0
170
     0
171
     2
172
     0
173
     0
174
     0
175
     0
176
     0
177
     0
178
     0
  0
ENDTAB
  0
ENDSEC
  0
SECTION
  2
BLOCKS
  0
BLOCK
  8
0
  2
$MODEL_SPACE
 70
     0
 10
0.0
 20
0.0
 30
0.0
  3
$MODEL_SPACE
  1

  0
ENDBLK
  5
21
  8
0
  0
BLOCK
 67
     1
  8
0
  2
$PAPER_SPACE
 70
     0
 10
0.0
 20
0.0
 30
0.0
  3
$PAPER_SPACE
  1

  0
ENDBLK
  5
1D
 67
     1
  8
0
  0
ENDSEC
  0
SECTION
  2
ENTITIES
  0
POLYLINE
  5
6B
  8
20
 66
     1
 10
0.0
 20
0.0
 30
0.0
  0
VERTEX
  5
6C
  8
20
 10
44.9621210663077
 20
2.6248
 30
0.0
 42
-0.9999999999999999
  0
VERTEX
  5
6D
  8
20
 10
44.9631210663077
 20
2.6248
 30
0.0
 42
-0.414200000000003
  0
VERTEX
  5
6E
  8
20
 10
42.9626210663077
 20
0.6242999999999999
 30
0.0
 42
-1.000000000000111
  0
VERTEX
  5
6F
  8
20
 10
42.9626210663077
 20
0.6252999999999991
 30
0.0
 42
0.4142
  0
VERTEX
  5
70
  8
20
 10
44.9621210663077
 20
2.6248
 30
0.0
  0
SEQEND
  5
71
  8
20
  0
POLYLINE
  5
72
  8
20
 66
     1
 10
0.0
 20
0.0
 30
0.0
  0
VERTEX
  5
73
  8
20
 10
26.2686210663077
 20
0.6253
 30
0.0
 42
-1.000000000003553
  0
VERTEX
  5
74
  8
20
 10
26.2686210663077
 20
0.6243000000000003
 30
0.0
 42
-0.4141999999999996
  0
VERTEX
  5
75
  8
20
 10
24.2681210663077
 20
2.6248
 30
0.0
 42
-1.000000000003553
  0
VERTEX
  5
76
  8
20
 10
24.2691210663077
 20
2.6248
 30
0.0
 42
0.4141999999999992
  0
VERTEX
  5
77
  8
20
 10
26.2686210663077
 20
0.6253
 30
0.0
  0
SEQEND
  5
78
  8
20
  0
POLYLINE
  5
79
  8
20
 66
     1
 10
0.0
 20
0.0
 30
0.0
  0
VERTEX
  5
7A
  8
20
 10
24.2691210663077
 20
38.2305
 30
0.0
 42
-0.9999999999964472
  0
VERTEX
  5
7B
  8
20
 10
24.2681210663077
 20
38.2305
 30
0.0
 42
-0.4142000000000015
  0
VERTEX
  5
7C
  8
20
 10
26.2686210663077
 20
40.231
 30
0.0
 42
-0.9999999999999999
  0
VERTEX
  5
7D
  8
20
 10
26.2686210663077
 20
40.23
 30
0.0
 42
0.4141999999999979
  0
VERTEX
  5
7E
  8
20
 10
24.2691210663077
 20
38.2305
 30
0.0
  0
SEQEND
  5
7F
  8
20
  0
POLYLINE
  5
80
  8
20
 66
     1
 10
0.0
 20
0.0
 30
0.0
  0
VERTEX
  5
81
  8
20
 10
42.9626210663077
 20
40.23
 30
0.0
 42
-0.9999999999999999
  0
VERTEX
  5
82
  8
20
 10
42.9626210663077
 20
40.231
 30
0.0
 42
-0.4142000000000026
  0
VERTEX
  5
83
  8
20
 10
44.9631210663077
 20
38.2305
 30
0.0
 42
-0.9999999999999999
  0
VERTEX
  5
84
  8
20
 10
44.9621210663077
 20
38.2305
 30
0.0
 42
0.4142000000000016
  0
VERTEX
  5
85
  8
20
 10
42.9626210663077
 20
40.23
 30
0.0
  0
SEQEND
  5
86
  8
20
  0
POLYLINE
  5
87
  8
20
 66
     1
 10
0.0
 20
0.0
 30
0.0
  0
VERTEX
  5
88
  8
20
 10
42.9626210663077
 20
40.23
 30
0.0
  0
VERTEX
  5
89
  8
20
 10
26.2686210663077
 20
40.23
 30
0.0
 42
-0.9999999999999999
  0
VERTEX
  5
8A
  8
20
 10
26.2686210663077
 20
40.231
 30
0.0
  0
VERTEX
  5
8B
  8
20
 10
42.9626210663077
 20
40.231
 30
0.0
 42
-0.9999999999999999
  0
VERTEX
  5
8C
  8
20
 10
42.9626210663077
 20
40.23
 30
0.0
  0
SEQEND
  5
8D
  8
20
  0
POLYLINE
  5
8E
  8
20
 66
     1
 10
0.0
 20
0.0
 30
0.0
  0
VERTEX
  5
8F
  8
20
 10
44.9631210663077
 20
38.2305
 30
0.0
  0
VERTEX
  5
90
  8
20
 10
44.9631210663077
 20
2.6248
 30
0.0
 42
-0.9999999999999999
  0
VERTEX
  5
91
  8
20
 10
44.9621210663077
 20
2.6248
 30
0.0
  0
VERTEX
  5
92
  8
20
 10
44.96212106630771
 20
38.2305
 30
0.0
 42
-1.0
  0
VERTEX
  5
93
  8
20
 10
44.9631210663077
 20
38.2305
 30
0.0
  0
SEQEND
  5
94
  8
20
  0
POLYLINE
  5
95
  8
20
 66
     1
 10
0.0
 20
0.0
 30
0.0
  0
VERTEX
  5
96
  8
20
 10
42.9626210663077
 20
0.6243
 30
0.0
  0
VERTEX
  5
97
  8
20
 10
26.2686210663077
 20
0.6243000000000001
 30
0.0
 42
-1.000000000003553
  0
VERTEX
  5
98
  8
20
 10
26.2686210663077
 20
0.6253
 30
0.0
  0
VERTEX
  5
99
  8
20
 10
42.9626210663077
 20
0.6253
 30
0.0
 42
-0.9999999999999999
  0
VERTEX
  5
9A
  8
20
 10
42.9626210663077
 20
0.6243000000000001
 30
0.0
  0
SEQEND
  5
9B
  8
20
  0
POLYLINE
  5
9C
  8
20
 66
     1
 10
0.0
 20
0.0
 30
0.0
  0
VERTEX
  5
9D
  8
20
 10
24.2691210663077
 20
38.2305
 30
0.0
  0
VERTEX
  5
9E
  8
20
 10
24.2691210663077
 20
2.6248
 30
0.0
 42
-1.000000000003553
  0
VERTEX
  5
9F
  8
20
 10
24.2681210663077
 20
2.6248
 30
0.0
  0
VERTEX
  5
A0
  8
20
 10
24.2681210663077
 20
38.2305
 30
0.0
 42
-0.9999999999964472
  0
VERTEX
  5
A1
  8
20
 10
24.2691210663077
 20
38.2305
 30
0.0
  0
SEQEND
  5
A2
  8
20
  0
CIRCLE
  5
A3
  8
20
 10
-42.9367210663077
 20
38.2046
 30
0.0
 40
1.0586
210
0.0
220
0.0
230
-1.0
  0
CIRCLE
  5
A4
  8
20
 10
-42.9367210663077
 20
38.2046
 30
0.0
 40
1.0595
210
0.0
220
0.0
230
-1.0
  0
CIRCLE
  5
A5
  8
20
 10
-26.2945210663077
 20
38.2046
 30
0.0
 40
1.0586
210
0.0
220
0.0
230
-1.0
  0
CIRCLE
  5
A6
  8
20
 10
-26.2945210663077
 20
38.2046
 30
0.0
 40
1.0595
210
0.0
220
0.0
230
-1.0
  0
CIRCLE
  5
A7
  8
20
 10
-42.9367210663077
 20
2.6507
 30
0.0
 40
1.0586
210
0.0
220
0.0
230
-1.0
  0
CIRCLE
  5
A8
  8
20
 10
-42.9367210663077
 20
2.6507
 30
0.0
 40
1.0595
210
0.0
220
0.0
230
-1.0
  0
CIRCLE
  5
A9
  8
20
 10
-26.2945210663077
 20
2.6507
 30
0.0
 40
1.0586
210
0.0
220
0.0
230
-1.0
  0
CIRCLE
  5
AA
  8
20
 10
-26.2945210663077
 20
2.6507
 30
0.0
 40
1.0595
210
0.0
220
0.0
230
-1.0
  0
CIRCLE
  5
AB
  8
20
 10
-34.6156210663077
 20
8.2671
 30
0.0
 40
5.9995
210
0.0
220
0.0
230
-1.0
  0
CIRCLE
  5
AC
  8
20
 10
-34.6156210663077
 20
8.2671
 30
0.0
 40
6.0005
210
0.0
220
0.0
230
-1.0
  0
CIRCLE
  5
AE
  8
44
 10
-43.4641210663077
 20
22.225
 30
0.0
 40
0.5588
210
0.0
220
0.0
230
-1.0
  0
CIRCLE
  5
AF
  8
44
 10
-43.4641210663077
 20
24.765
 30
0.0
 40
0.5588
210
0.0
220
0.0
230
-1.0
  0
CIRCLE
  5
B0
  8
44
 10
-43.4641210663077
 20
27.305
 30
0.0
 40
0.5588
210
0.0
220
0.0
230
-1.0
  0
CIRCLE
  5
B1
  8
44
 10
-43.4641210663077
 20
29.845
 30
0.0
 40
0.5588
210
0.0
220
0.0
230
-1.0
  0
CIRCLE
  5
B2
  8
44
 10
-40.9241210663077
 20
16.51
 30
0.0
 40
0.5588
210
0.0
220
0.0
230
-1.0
  0
CIRCLE
  5
B3
  8
44
 10
-38.3841210663077
 20
16.51
 30
0.0
 40
0.5588
210
0.0
220
0.0
230
-1.0
  0
CIRCLE
  5
B4
  8
44
 10
-35.8441210663077
 20
16.51
 30
0.0
 40
0.5588
210
0.0
220
0.0
230
-1.0
  0
CIRCLE
  5
B5
  8
44
 10
-33.3041210663077
 20
16.51
 30
0.0
 40
0.5588
210
0.0
220
0.0
230
-1.0
  0
CIRCLE
  5
B6
  8
44
 10
-30.7641210663077
 20
16.51
 30
0.0
 40
0.5588
210
0.0
220
0.0
230
-1.0
  0
CIRCLE
  5
B7
  8
44
 10
-28.2241210663077
 20
16.51
 30
0.0
 40
0.5588
210
0.0
220
0.0
230
-1.0
  0
CIRCLE
  5
B8
  8
44
 10
-25.6841210663077
 20
19.685
 30
0.0
 40
0.5588
210
0.0
220
0.0
230
-1.0
  0
CIRCLE
  5
B9
  8
44
 10
-25.6841210663077
 20
22.225
 30
0.0
 40
0.5588
210
0.0
220
0.0
230
-1.0
  0
CIRCLE
  5
BA
  8
44
 10
-25.6841210663077
 20
24.765
 30
0.0
 40
0.5588
210
0.0
220
0.0
230
-1.0
  0
CIRCLE
  5
BB
  8
44
 10
-25.6841210663077
 20
27.305
 30
0.0
 40
0.5588
210
0.0
220
0.0
230
-1.0
  0
CIRCLE
  5
BC
  8
44
 10
-25.6841210663077
 20
29.845
 30
0.0
 40
0.5588
210
0.0
220
0.0
230
-1.0
  0
CIRCLE
  5
BD
  8
44
 10
-25.6841210663077
 20
32.385
 30
0.0
 40
0.5588
210
0.0
220
0.0
230
-1.0
  0
POLYLINE
  5
BF
  8
16
 66
     1
 10
0.0
 20
0.0
 30
0.0
  0
VERTEX
  5
C0
  8
16
 10
42.52432126018321
 20
30.99499972581859
 30
0.0
  0
VERTEX
  5
C1
  8
16
 10
42.5243210663077
 20
30.995
 30
0.0
  0
VERTEX
  5
C2
  8
16
 10
44.4039210663077
 20
30.995
 30
0.0
 42
-0.9999999999999983
  0
VERTEX
  5
C3
  8
16
 10
44.4039210663077
 20
28.69500000000001
 30
0.0
  0
VERTEX
  5
C4
  8
16
 10
42.52432106630771
 20
28.695
 30
0.0
  0
VERTEX
  5
C5
  8
16
 10
42.52432126018322
 20
28.69500027418141
 30
0.0
 42
-1.000000407006113
  0
VERTEX
  5
C6
  8
16
 10
42.52432126018321
 20
30.9949997258186
 30
0.0
  0
SEQEND
  5
C7
  8
16
  0
POLYLINE
  5
C8
  8
16
 66
     1
 10
0.0
 20
0.0
 30
0.0
  0
VERTEX
  5
C9
  8
16
 10
42.5243212601893
 20
28.45499972581861
 30
0.0
  0
VERTEX
  5
CA
  8
16
 10
42.52432106631988
 20
28.45500000000001
 30
0.0
  0
VERTEX
  5
CB
  8
16
 10
44.40392106630698
 20
28.45500000000001
 30
0.0
  0
VERTEX
  5
CC
  8
16
 10
44.40392087243182
 20
28.4549997258186
 30
0.0
 42
-1.00000028779709
  0
VERTEX
  5
CD
  8
16
 10
44.40392087243183
 20
26.15500000000005
 30
0.0
  0
VERTEX
  5
CE
  8
16
 10
42.52432126018931
 20
26.15500000000004
 30
0.0
 42
-1.00000028780206
  0
VERTEX
  5
CF
  8
16
 10
42.52432126018932
 20
28.45499972581861
 30
0.0
  0
SEQEND
  5
D0
  8
16
  0
POLYLINE
  5
D1
  8
16
 66
     1
 10
0.0
 20
0.0
 30
0.0
  0
VERTEX
  5
D2
  8
16
 10
42.52432090262128
 20
25.91499999999987
 30
0.0
  0
VERTEX
  5
D3
  8
16
 10
44.40392087243156
 20
25.91499999999997
 30
0.0
 42
-1.000000168587987
  0
VERTEX
  5
D4
  8
16
 10
44.40392087243156
 20
23.61500000000003
 30
0.0
  0
VERTEX
  5
D5
  8
16
 10
42.52432106630545
 20
23.61500000000001
 30
0.0
  0
VERTEX
  5
D6
  8
16
 10
42.52432087243106
 20
23.61500027418141
 30
0.0
 42
-0.9999999637471947
  0
VERTEX
  5
D7
  8
16
 10
42.52432090262128
 20
25.91499999999987
 30
0.0
  0
SEQEND
  5
D8
  8
16
  0
POLYLINE
  5
D9
  8
16
 66
     1
 10
0.0
 20
0.0
 30
0.0
  0
VERTEX
  5
DA
  8
16
 10
42.52432109649769
 20
23.37499999999998
 30
0.0
  0
VERTEX
  5
DB
  8
16
 10
44.40392106630736
 20
23.37500000000001
 30
0.0
  0
VERTEX
  5
DC
  8
16
 10
44.40392087243202
 20
23.37499972581861
 30
0.0
 42
-1.000000287796925
  0
VERTEX
  5
DD
  8
16
 10
44.40392087243202
 20
21.07500000000003
 30
0.0
  0
VERTEX
  5
DE
  8
16
 10
42.52432109649769
 20
21.07500000000005
 30
0.0
 42
-1.000000026252185
  0
VERTEX
  5
DF
  8
16
 10
42.52432109649769
 20
23.37499999999999
 30
0.0
  0
SEQEND
  5
E0
  8
16
  0
POLYLINE
  5
E1
  8
16
 66
     1
 10
0.0
 20
0.0
 30
0.0
  0
VERTEX
  5
E2
  8
16
 10
24.74432106630768
 20
33.535
 30
0.0
  0
VERTEX
  5
E3
  8
16
 10
26.62392087238665
 20
33.53499999999998
 30
0.0
 42
-1.000000168627003
  0
VERTEX
  5
E4
  8
16
 10
26.62392087238666
 20
31.23500000000004
 30
0.0
  0
VERTEX
  5
E5
  8
16
 10
24.74432106630768
 20
31.23500000000001
 30
0.0
 42
-0.9999999999999952
  0
VERTEX
  5
E6
  8
16
 10
24.74432106630768
 20
33.53499999999998
 30
0.0
  0
SEQEND
  5
E7
  8
16
  0
POLYLINE
  5
E8
  8
16
 66
     1
 10
0.0
 20
0.0
 30
0.0
  0
VERTEX
  5
E9
  8
16
 10
24.74432126018333
 20
23.37499999999999
 30
0.0
  0
VERTEX
  5
EA
  8
16
 10
26.62392103611814
 20
23.37499999999999
 30
0.0
 42
-1.000000026251816
  0
VERTEX
  5
EB
  8
16
 10
26.62392103611815
 20
21.07500000000005
 30
0.0
  0
VERTEX
  5
EC
  8
16
 10
24.74432126018333
 20
21.07500000000006
 30
0.0
 42
-1.000000168587554
  0
VERTEX
  5
ED
  8
16
 10
24.74432126018333
 20
23.37499999999999
 30
0.0
  0
SEQEND
  5
EE
  8
16
  0
POLYLINE
  5
EF
  8
16
 66
     1
 10
0.0
 20
0.0
 30
0.0
  0
VERTEX
  5
F0
  8
16
 10
24.74432106630769
 20
20.83500000000002
 30
0.0
  0
VERTEX
  5
F1
  8
16
 10
26.62392087242568
 20
20.83499999999999
 30
0.0
 42
-0.3936989552273746
  0
VERTEX
  5
F2
  8
16
 10
27.77106064269955
 20
19.76606042360817
 30
0.0
  0
VERTEX
  5
F3
  8
16
 10
28.66972989781527
 20
18.86739116849245
 30
0.0
 42
-0.2008759561877219
  0
VERTEX
  5
F4
  8
16
 10
28.85912106630768
 20
18.41500000000002
 30
0.0
  0
VERTEX
  5
F5
  8
16
 10
28.85912106630769
 20
18.40858829780095
 30
0.0
 42
-0.2515709225195671
  0
VERTEX
  5
F6
  8
16
 10
29.37412106630766
 20
17.44979996982014
 30
0.0
  0
VERTEX
  5
F7
  8
16
 10
29.37412106630766
 20
15.57020003019018
 30
0.0
 42
-1.000000026252342
  0
VERTEX
  5
F8
  8
16
 10
27.07412106630772
 20
15.57020003019018
 30
0.0
  0
VERTEX
  5
F9
  8
16
 10
27.07412106630773
 20
17.44980019388593
 30
0.0
 42
-0.2096764649121775
  0
VERTEX
  5
FA
  8
16
 10
27.44524273428893
 20
18.29587833201879
 30
0.0
  0
VERTEX
  5
FB
  8
16
 10
27.10202552167552
 20
18.6390955446322
 30
0.0
 42
-0.1076023649128114
  0
VERTEX
  5
FC
  8
16
 10
26.62392087242569
 20
18.53500000000005
 30
0.0
  0
VERTEX
  5
FD
  8
16
 10
24.74432106630769
 20
18.53500000000003
 30
0.0
 42
-0.9999999999999968
  0
VERTEX
  5
FE
  8
16
 10
24.74432106630767
 20
20.83500000000003
 30
0.0
  0
SEQEND
  5
FF
  8
16
  0
POLYLINE
  5
100
  8
16
 66
     1
 10
0.0
 20
0.0
 30
0.0
  0
VERTEX
  5
101
  8
16
 10
29.61412106630769
 20
17.44980000000003
 30
0.0
 42
-1.00000020350762
  0
VERTEX
  5
102
  8
16
 10
31.9141207921263
 20
17.44979980611395
 30
0.0
  0
VERTEX
  5
103
  8
16
 10
31.91412106630769
 20
17.4497999999789
 30
0.0
  0
VERTEX
  5
104
  8
16
 10
31.91412106630766
 20
15.57020003019018
 30
0.0
 42
-1.000000026252336
  0
VERTEX
  5
105
  8
16
 10
29.61412106630773
 20
15.57020003019018
 30
0.0
  0
VERTEX
  5
106
  8
16
 10
29.61412106630769
 20
17.4497999999789
 30
0.0
  0
SEQEND
  5
107
  8
16
  0
POLYLINE
  5
108
  8
16
 66
     1
 10
0.0
 20
0.0
 30
0.0
  0
VERTEX
  5
109
  8
16
 10
24.74432126018541
 20
25.91499972581861
 30
0.0
  0
VERTEX
  5
10A
  8
16
 10
24.74432106631209
 20
25.91500000000002
 30
0.0
  0
VERTEX
  5
10B
  8
16
 10
26.62392087243155
 20
25.91499999999998
 30
0.0
 42
-0.2515710607682743
  0
VERTEX
  5
10C
  8
16
 10
27.58270936410862
 20
25.40000000000001
 30
0.0
  0
VERTEX
  5
10D
  8
16
 10
30.14555704856071
 20
25.39977763421244
 30
0.0
  0
VERTEX
  5
10E
  8
16
 10
30.16197641153282
 20
25.39913926882975
 30
0.0
  0
VERTEX
  5
10F
  8
16
 10
30.17836280545455
 20
25.39807712939861
 30
0.0
  0
VERTEX
  5
110
  8
16
 10
30.1946998836144
 20
25.39659334305847
 30
0.0
  0
VERTEX
  5
111
  8
16
 10
30.21097146350247
 20
25.39469087266551
 30
0.0
  0
VERTEX
  5
112
  8
16
 10
30.22716157975619
 20
25.39237350205207
 30
0.0
  0
VERTEX
  5
113
  8
16
 10
30.2432545356012
 20
25.38964581731047
 30
0.0
  0
VERTEX
  5
114
  8
16
 10
30.25923495244479
 20
25.3865131842733
 30
0.0
  0
VERTEX
  5
115
  8
16
 10
30.27508781730111
 20
25.38298172239479
 30
0.0
  0
VERTEX
  5
116
  8
16
 10
30.29079852775247
 20
25.37905827526801
 30
0.0
  0
VERTEX
  5
117
  8
16
 10
30.30635293417908
 20
25.37475037803927
 30
0.0
  0
VERTEX
  5
118
  8
16
 10
30.3217373790202
 20
25.37006622200412
 30
0.0
  0
VERTEX
  5
119
  8
16
 10
30.33693873286246
 20
25.3650146166882
 30
0.0
  0
VERTEX
  5
11A
  8
16
 10
30.35194442718494
 20
25.3596049497313
 30
0.0
  0
VERTEX
  5
11B
  8
16
 10
30.36674248362605
 20
25.35384714490387
 30
0.0
  0
VERTEX
  5
11C
  8
16
 10
30.38132153967245
 20
25.34775161859165
 30
0.0
  0
VERTEX
  5
11D
  8
16
 10
30.3956708707056
 20
25.34132923508689
 30
0.0
  0
VERTEX
  5
11E
  8
16
 10
30.40978040837632
 20
25.33459126102298
 30
0.0
  0
VERTEX
  5
11F
  8
16
 10
30.42364075531135
 20
25.32754931928428
 30
0.0
  0
VERTEX
  5
120
  8
16
 10
30.43724319618803
 20
25.32021534271422
 30
0.0
  0
VERTEX
  5
121
  8
16
 10
30.45057970524319
 20
25.31260152793259
 30
0.0
  0
VERTEX
  5
122
  8
16
 10
30.46364295031061
 20
25.30472028955828
 30
0.0
  0
VERTEX
  5
123
  8
16
 10
30.47642629350686
 20
25.29658421511654
 30
0.0
  0
VERTEX
  5
124
  8
16
 10
30.48892378870798
 20
25.28820602088982
 30
0.0
  0
VERTEX
  5
125
  8
16
 10
30.50113017597975
 20
25.27959850895065
 30
0.0
  0
VERTEX
  5
126
  8
16
 10
30.5130408731409
 20
25.27077452559192
 30
0.0
  0
VERTEX
  5
127
  8
16
 10
30.52465196465338
 20
25.26174692134665
 30
0.0
  0
VERTEX
  5
128
  8
16
 10
30.53596018804425
 20
25.2525285127653
 30
0.0
  0
VERTEX
  5
129
  8
16
 10
30.54696291807257
 20
25.24313204609408
 30
0.0
  0
VERTEX
  5
12A
  8
16
 10
30.55765814885978
 20
25.23357016297373
 30
0.0
  0
VERTEX
  5
12B
  8
16
 10
30.56804447420508
 20
25.22385536825456
 30
0.0
  0
VERTEX
  5
12C
  8
16
 10
30.57812106630769
 20
25.21400000000001
 30
0.0
  0
VERTEX
  5
12D
  8
16
 10
33.74972989781536
 20
22.04239116849236
 30
0.0
 42
-0.2008759561877467
  0
VERTEX
  5
12E
  8
16
 10
33.93912106630769
 20
21.59000000000002
 30
0.0
  0
VERTEX
  5
12F
  8
16
 10
33.9391210663077
 20
18.40858829780095
 30
0.0
 42
-0.2515709225194447
  0
VERTEX
  5
130
  8
16
 10
34.45412106630767
 20
17.44979996981065
 30
0.0
  0
VERTEX
  5
131
  8
16
 10
34.45412106630766
 20
15.57020003019014
 30
0.0
 42
-1.000000026252296
  0
VERTEX
  5
132
  8
16
 10
32.15412106630775
 20
15.57020003019015
 30
0.0
  0
VERTEX
  5
133
  8
16
 10
32.15412106630773
 20
17.44979996981065
 30
0.0
 42
-0.2515709225194598
  0
VERTEX
  5
134
  8
16
 10
32.6691210663077
 20
18.40858829780094
 30
0.0
  0
VERTEX
  5
135
  8
16
 10
32.6691210663077
 20
21.32700000000002
 30
0.0
  0
VERTEX
  5
136
  8
16
 10
29.86612106630769
 20
24.13000000000002
 30
0.0
  0
VERTEX
  5
137
  8
16
 10
27.58270936410862
 20
24.13000000000002
 30
0.0
 42
-0.2515710494607521
  0
VERTEX
  5
138
  8
16
 10
26.62392087243155
 20
23.61500000000005
 30
0.0
  0
VERTEX
  5
139
  8
16
 10
24.74432106631209
 20
23.61500000000001
 30
0.0
 42
-1.000000203505884
  0
VERTEX
  5
13A
  8
16
 10
24.7443212601854
 20
25.91499972581862
 30
0.0
  0
SEQEND
  5
13B
  8
16
  0
POLYLINE
  5
13C
  8
16
 66
     1
 10
0.0
 20
0.0
 30
0.0
  0
VERTEX
  5
13D
  8
16
 10
24.74432090261761
 20
28.45499999999988
 30
0.0
  0
VERTEX
  5
13E
  8
16
 10
26.62392106630769
 20
28.45500000000001
 30
0.0
 42
-0.2515710159538674
  0
VERTEX
  5
13F
  8
16
 10
27.58270936410862
 20
27.94000000000001
 30
0.0
  0
VERTEX
  5
140
  8
16
 10
32.68555704899367
 20
27.93977763377949
 30
0.0
  0
VERTEX
  5
141
  8
16
 10
32.70197641326381
 20
27.93913926709877
 30
0.0
  0
VERTEX
  5
142
  8
16
 10
32.718362809346
 20
27.93807712550715
 30
0.0
  0
VERTEX
  5
143
  8
16
 10
32.73469989052444
 20
27.93659333614843
 30
0.0
  0
VERTEX
  5
144
  8
16
 10
32.75097147428318
 20
27.93469086188479
 30
0.0
  0
VERTEX
  5
145
  8
16
 10
32.76716159525198
 20
27.93237348655627
 30
0.0
  0
VERTEX
  5
146
  8
16
 10
32.78325455664714
 20
27.92964579626453
 30
0.0
  0
VERTEX
  5
147
  8
16
 10
32.79923497986501
 20
27.92651315685309
 30
0.0
  0
VERTEX
  5
148
  8
16
 10
32.81508785190729
 20
27.92298168778862
 30
0.0
  0
VERTEX
  5
149
  8
16
 10
32.83079857034239
 20
27.9190582326781
 30
0.0
  0
VERTEX
  5
14A
  8
16
 10
32.84635298553516
 20
27.9147503266832
 30
0.0
  0
VERTEX
  5
14B
  8
16
 10
32.8617374399082
 20
27.91006616111613
 30
0.0
  0
VERTEX
  5
14C
  8
16
 10
32.8769388040302
 20
27.90501454552046
 30
0.0
  0
VERTEX
  5
14D
  8
16
 10
32.89194450936115
 20
27.89960486755508
 30
0.0
  0
VERTEX
  5
14E
  8
16
 10
32.90674257751927
 20
27.89384705101064
 30
0.0
  0
VERTEX
  5
14F
  8
16
 10
32.92132164597002
 20
27.88775151229409
 30
0.0
  0
VERTEX
  5
150
  8
16
 10
32.93567099007273
 20
27.88132911571978
 30
0.0
  0
VERTEX
  5
151
  8
16
 10
32.9497805414553
 20
27.874591127944
 30
0.0
  0
VERTEX
  5
152
  8
16
 10
32.96364090272083
 20
27.86754917187482
 30
0.0
  0
VERTEX
  5
153
  8
16
 10
32.97724335852236
 20
27.86021518037991
 30
0.0
  0
VERTEX
  5
154
  8
16
 10
32.9905798830719
 20
27.85260135010389
 30
0.0
  0
VERTEX
  5
155
  8
16
 10
33.00364314417797
 20
27.84472009569093
 30
0.0
  0
VERTEX
  5
156
  8
16
 10
33.01642650393152
 20
27.83658400469189
 30
0.0
  0
VERTEX
  5
157
  8
16
 10
33.02892401618272
 20
27.82820579341509
 30
0.0
  0
VERTEX
  5
158
  8
16
 10
33.04113042097129
 20
27.81959826395913
 30
0.0
  0
VERTEX
  5
159
  8
16
 10
33.0530411360898
 20
27.81077426264302
 30
0.0
  0
VERTEX
  5
15A
  8
16
 10
33.06465224597407
 20
27.80174664002596
 30
0.0
  0
VERTEX
  5
15B
  8
16
 10
33.07596048812507
 20
27.79252821268449
 30
0.0
  0
VERTEX
  5
15C
  8
16
 10
33.08696323727592
 20
27.78313172689074
 30
0.0
  0
VERTEX
  5
15D
  8
16
 10
33.09765848752232
 20
27.7735698243112
 30
0.0
  0
VERTEX
  5
15E
  8
16
 10
33.10804483263805
 20
27.7638550098216
 30
0.0
  0
VERTEX
  5
15F
  8
16
 10
33.11812144479719
 20
27.75399962151052
 30
0.0
  0
VERTEX
  5
160
  8
16
 10
36.28972989781543
 20
24.58239116849226
 30
0.0
 42
-0.200875956187748
  0
VERTEX
  5
161
  8
16
 10
36.47912106630769
 20
24.13000000000001
 30
0.0
  0
VERTEX
  5
162
  8
16
 10
36.4791210663077
 20
18.40858829780095
 30
0.0
 42
-0.2515711833713896
  0
VERTEX
  5
163
  8
16
 10
36.9941207921263
 20
17.44979980609778
 30
0.0
  0
VERTEX
  5
164
  8
16
 10
36.99412106630771
 20
17.44979999994657
 30
0.0
  0
VERTEX
  5
165
  8
16
 10
36.99412106630766
 20
15.57020003012061
 30
0.0
 42
-1.000000026191843
  0
VERTEX
  5
166
  8
16
 10
34.69412106630773
 20
15.57020003012061
 30
0.0
  0
VERTEX
  5
167
  8
16
 10
34.69412106630769
 20
17.44979999994657
 30
0.0
 42
-0.2515708876382534
  0
VERTEX
  5
168
  8
16
 10
35.2091210663077
 20
18.40858829780095
 30
0.0
  0
VERTEX
  5
169
  8
16
 10
35.2091210663077
 20
23.86700000000002
 30
0.0
  0
VERTEX
  5
16A
  8
16
 10
32.40612106630769
 20
26.67000000000001
 30
0.0
  0
VERTEX
  5
16B
  8
16
 10
27.58270936410861
 20
26.67000000000002
 30
0.0
 42
-0.2515710159538893
  0
VERTEX
  5
16C
  8
16
 10
26.62392106630769
 20
26.15500000000002
 30
0.0
  0
VERTEX
  5
16D
  8
16
 10
24.74432109649318
 20
26.15500000000004
 30
0.0
 42
-0.9999999419545839
  0
VERTEX
  5
16E
  8
16
 10
24.74432090261761
 20
28.45499999999988
 30
0.0
  0
SEQEND
  5
16F
  8
16
  0
POLYLINE
  5
170
  8
16
 66
     1
 10
0.0
 20
0.0
 30
0.0
  0
VERTEX
  5
171
  8
16
 10
24.74432109647947
 20
30.99499999999997
 30
0.0
  0
VERTEX
  5
172
  8
16
 10
26.6239208724256
 20
30.99499999999997
 30
0.0
 42
-0.2515710607696626
  0
VERTEX
  5
173
  8
16
 10
27.5827093641086
 20
30.48000000000002
 30
0.0
  0
VERTEX
  5
174
  8
16
 10
35.22555704899366
 20
30.47977763377948
 30
0.0
  0
VERTEX
  5
175
  8
16
 10
35.2419764132638
 20
30.47913926709876
 30
0.0
  0
VERTEX
  5
176
  8
16
 10
35.258362809346
 20
30.47807712550715
 30
0.0
  0
VERTEX
  5
177
  8
16
 10
35.27469989052444
 20
30.47659333614842
 30
0.0
  0
VERTEX
  5
178
  8
16
 10
35.29097147428319
 20
30.47469086188479
 30
0.0
  0
VERTEX
  5
179
  8
16
 10
35.30716159525198
 20
30.47237348655626
 30
0.0
  0
VERTEX
  5
17A
  8
16
 10
35.32325455664714
 20
30.46964579626452
 30
0.0
  0
VERTEX
  5
17B
  8
16
 10
35.33923497986501
 20
30.46651315685308
 30
0.0
  0
VERTEX
  5
17C
  8
16
 10
35.35508785190729
 20
30.46298168778861
 30
0.0
  0
VERTEX
  5
17D
  8
16
 10
35.37079857034239
 20
30.45905823267809
 30
0.0
  0
VERTEX
  5
17E
  8
16
 10
35.38635298553515
 20
30.45475032668319
 30
0.0
  0
VERTEX
  5
17F
  8
16
 10
35.4017374399082
 20
30.45006616111612
 30
0.0
  0
VERTEX
  5
180
  8
16
 10
35.4169388040302
 20
30.44501454552044
 30
0.0
  0
VERTEX
  5
181
  8
16
 10
35.43194450936114
 20
30.43960486755507
 30
0.0
  0
VERTEX
  5
182
  8
16
 10
35.44674257751927
 20
30.43384705101063
 30
0.0
  0
VERTEX
  5
183
  8
16
 10
35.46132164597002
 20
30.42775151229408
 30
0.0
  0
VERTEX
  5
184
  8
16
 10
35.47567099007273
 20
30.42132911571976
 30
0.0
  0
VERTEX
  5
185
  8
16
 10
35.4897805414553
 20
30.41459112794399
 30
0.0
  0
VERTEX
  5
186
  8
16
 10
35.50364090272083
 20
30.40754917187481
 30
0.0
  0
VERTEX
  5
187
  8
16
 10
35.51724335852236
 20
30.4002151803799
 30
0.0
  0
VERTEX
  5
188
  8
16
 10
35.53057988307189
 20
30.39260135010388
 30
0.0
  0
VERTEX
  5
189
  8
16
 10
35.54364314417797
 20
30.38472009569092
 30
0.0
  0
VERTEX
  5
18A
  8
16
 10
35.55642650393151
 20
30.37658400469187
 30
0.0
  0
VERTEX
  5
18B
  8
16
 10
35.56892401618272
 20
30.36820579341508
 30
0.0
  0
VERTEX
  5
18C
  8
16
 10
35.58113042097128
 20
30.35959826395912
 30
0.0
  0
VERTEX
  5
18D
  8
16
 10
35.5930411360898
 20
30.35077426264301
 30
0.0
  0
VERTEX
  5
18E
  8
16
 10
35.60465224597407
 20
30.34174664002596
 30
0.0
  0
VERTEX
  5
18F
  8
16
 10
35.61596048812507
 20
30.33252821268448
 30
0.0
  0
VERTEX
  5
190
  8
16
 10
35.62696323727592
 20
30.32313172689072
 30
0.0
  0
VERTEX
  5
191
  8
16
 10
35.63765848752232
 20
30.31356982431119
 30
0.0
  0
VERTEX
  5
192
  8
16
 10
35.64804483263805
 20
30.3038550098216
 30
0.0
  0
VERTEX
  5
193
  8
16
 10
35.65812144479719
 20
30.29399962151051
 30
0.0
  0
VERTEX
  5
194
  8
16
 10
38.82972989781532
 20
27.12239116849238
 30
0.0
 42
-0.200875956187824
  0
VERTEX
  5
195
  8
16
 10
39.01912106630769
 20
26.67000000000001
 30
0.0
  0
VERTEX
  5
196
  8
16
 10
39.0191210663077
 20
18.40858829780095
 30
0.0
 42
-0.2515709225194501
  0
VERTEX
  5
197
  8
16
 10
39.53412106630767
 20
17.44979996980999
 30
0.0
  0
VERTEX
  5
198
  8
16
 10
39.53412106630766
 20
15.57020019387599
 30
0.0
 42
-1.000000203503425
  0
VERTEX
  5
199
  8
16
 10
37.23412134048906
 20
15.57020000000048
 30
0.0
  0
VERTEX
  5
19A
  8
16
 10
37.23412106630769
 20
15.57020000000093
 30
0.0
  0
VERTEX
  5
19B
  8
16
 10
37.23412106630773
 20
17.44980019387578
 30
0.0
 42
-0.2515709245598891
  0
VERTEX
  5
19C
  8
16
 10
37.74912106630769
 20
18.40858829780095
 30
0.0
  0
VERTEX
  5
19D
  8
16
 10
37.74912106630769
 20
26.40700000000001
 30
0.0
  0
VERTEX
  5
19E
  8
16
 10
34.94612106630768
 20
29.21000000000001
 30
0.0
  0
VERTEX
  5
19F
  8
16
 10
27.58270936410861
 20
29.21000000000001
 30
0.0
 42
-0.2515710494607004
  0
VERTEX
  5
1A0
  8
16
 10
26.62392087242561
 20
28.69500000000005
 30
0.0
  0
VERTEX
  5
1A1
  8
16
 10
24.74432106627074
 20
28.695
 30
0.0
 42
-1.000000013102129
  0
VERTEX
  5
1A2
  8
16
 10
24.74432109647948
 20
30.99499999999998
 30
0.0
  0
SEQEND
  5
1A3
  8
16
  0
POLYLINE
  5
1A4
  8
16
 66
     1
 10
0.0
 20
0.0
 30
0.0
  0
VERTEX
  5
1A5
  8
16
 10
39.77412106630774
 20
17.44980019392287
 30
0.0
 42
-0.9999999287913635
  0
VERTEX
  5
1A6
  8
16
 10
42.07412106630768
 20
17.44979996985708
 30
0.0
  0
VERTEX
  5
1A7
  8
16
 10
42.07412106630768
 20
15.57020019394223
 30
0.0
 42
-1.000000203561015
  0
VERTEX
  5
1A8
  8
16
 10
39.77412134048907
 20
15.57020000006671
 30
0.0
  0
VERTEX
  5
1A9
  8
16
 10
39.7741210663077
 20
15.57020000013341
 30
0.0
  0
VERTEX
  5
1AA
  8
16
 10
39.77412106630773
 20
17.44980019392287
 30
0.0
  0
SEQEND
  5
1AB
  8
16
  0
ENDSEC
  0
EOF
