  0
SECTION
  2
HEADER
  9
$ACADVER
  1
AC1009
  9
$DWGCODEPAGE
  3
ansi_1252
  9
$INSBASE
 10
0.0
 20
0.0
 30
0.0
  9
$EXTMIN
 10
-15.00000000000001
 20
-45.00000000000003
 30
0.0
  9
$EXTMAX
 10
30.00000000000002
 20
41.00000000000001
 30
0.0
  9
$LIMMIN
 10
0.0
 20
0.0
  9
$LIMMAX
 10
12.0
 20
9.0
  9
$ORTHOMODE
 70
     0
  9
$REGENMODE
 70
     1
  9
$FILLMODE
 70
     1
  9
$QTEXTMODE
 70
     0
  9
$MIRRTEXT
 70
     1
  9
$DRAGMODE
 70
     2
  9
$LTSCALE
 40
1.0
  9
$OSMODE
 70
    37
  9
$ATTMODE
 70
     1
  9
$TEXTSIZE
 40
0.2
  9
$TRACEWID
 40
0.05
  9
$TEXTSTYLE
  7
STANDARD
  9
$CLAYER
  8
LAYER_01
  9
$CELTYPE
  6
BYLAYER
  9
$CECOLOR
 62
   256
  9
$DIMSCALE
 40
1.0
  9
$DIMASZ
 40
0.18
  9
$DIMEXO
 40
0.0625
  9
$DIMDLI
 40
0.38
  9
$DIMRND
 40
0.0
  9
$DIMDLE
 40
0.0
  9
$DIMEXE
 40
0.18
  9
$DIMTP
 40
0.0
  9
$DIMTM
 40
0.0
  9
$DIMTXT
 40
0.18
  9
$DIMCEN
 40
0.09
  9
$DIMTSZ
 40
0.0
  9
$DIMTOL
 70
     0
  9
$DIMLIM
 70
     0
  9
$DIMTIH
 70
     1
  9
$DIMTOH
 70
     1
  9
$DIMSE1
 70
     0
  9
$DIMSE2
 70
     0
  9
$DIMTAD
 70
     0
  9
$DIMZIN
 70
     0
  9
$DIMBLK
  1

  9
$DIMASO
 70
     1
  9
$DIMSHO
 70
     1
  9
$DIMPOST
  1

  9
$DIMAPOST
  1

  9
$DIMALT
 70
     0
  9
$DIMALTD
 70
     2
  9
$DIMALTF
 40
25.4
  9
$DIMLFAC
 40
1.0
  9
$DIMTOFL
 70
     0
  9
$DIMTVP
 40
0.0
  9
$DIMTIX
 70
     0
  9
$DIMSOXD
 70
     0
  9
$DIMSAH
 70
     0
  9
$DIMBLK1
  1

  9
$DIMBLK2
  1

  9
$DIMSTYLE
  2
STANDARD
  9
$DIMCLRD
 70
     0
  9
$DIMCLRE
 70
     0
  9
$DIMCLRT
 70
     0
  9
$DIMTFAC
 40
1.0
  9
$DIMGAP
 40
0.09
  9
$LUNITS
 70
     2
  9
$LUPREC
 70
     3
  9
$SKETCHINC
 40
0.1
  9
$FILLETRAD
 40
0.5
  9
$AUNITS
 70
     0
  9
$AUPREC
 70
     0
  9
$MENU
  1
.
  9
$ELEVATION
 40
0.0
  9
$PELEVATION
 40
0.0
  9
$THICKNESS
 40
0.0
  9
$LIMCHECK
 70
     0
  9
$CHAMFERA
 40
0.0
  9
$CHAMFERB
 40
0.0
  9
$SKPOLY
 70
     0
  9
$TDCREATE
 40
2458337.574481308
  9
$TDUPDATE
 40
2458337.574498171
  9
$TDINDWG
 40
0.0000000116
  9
$TDUSRTIMER
 40
0.0000000116
  9
$USRTIMER
 70
     1
  9
$ANGBASE
 50
0.0
  9
$ANGDIR
 70
     0
  9
$PDMODE
 70
     0
  9
$PDSIZE
 40
0.0
  9
$PLINEWID
 40
0.0
  9
$COORDS
 70
     1
  9
$SPLFRAME
 70
     0
  9
$SPLINETYPE
 70
     6
  9
$SPLINESEGS
 70
     8
  9
$ATTDIA
 70
     0
  9
$ATTREQ
 70
     1
  9
$HANDLING
 70
     1
  9
$HANDSEED
  5
C0
  9
$SURFTAB1
 70
     6
  9
$SURFTAB2
 70
     6
  9
$SURFTYPE
 70
     6
  9
$SURFU
 70
     6
  9
$SURFV
 70
     6
  9
$UCSNAME
  2

  9
$UCSORG
 10
0.0
 20
0.0
 30
0.0
  9
$UCSXDIR
 10
1.0
 20
0.0
 30
0.0
  9
$UCSYDIR
 10
0.0
 20
1.0
 30
0.0
  9
$PUCSNAME
  2

  9
$PUCSORG
 10
0.0
 20
0.0
 30
0.0
  9
$PUCSXDIR
 10
1.0
 20
0.0
 30
0.0
  9
$PUCSYDIR
 10
0.0
 20
1.0
 30
0.0
  9
$USERI1
 70
     0
  9
$USERI2
 70
     0
  9
$USERI3
 70
     0
  9
$USERI4
 70
     0
  9
$USERI5
 70
     0
  9
$USERR1
 40
0.0
  9
$USERR2
 40
0.0
  9
$USERR3
 40
0.0
  9
$USERR4
 40
0.0
  9
$USERR5
 40
0.0
  9
$WORLDVIEW
 70
     1
  9
$SHADEDGE
 70
     3
  9
$SHADEDIF
 70
    70
  9
$TILEMODE
 70
     1
  9
$MAXACTVP
 70
    64
  9
$PLIMCHECK
 70
     0
  9
$PEXTMIN
 10
1.000000000000000E+20
 20
1.000000000000000E+20
 30
1.000000000000000E+20
  9
$PEXTMAX
 10
-1.000000000000000E+20
 20
-1.000000000000000E+20
 30
-1.000000000000000E+20
  9
$PLIMMIN
 10
0.0
 20
0.0
  9
$PLIMMAX
 10
12.0
 20
9.0
  9
$UNITMODE
 70
     0
  9
$VISRETAIN
 70
     1
  9
$PLINEGEN
 70
     0
  9
$PSLTSCALE
 70
     1
  0
ENDSEC
  0
SECTION
  2
TABLES
  0
TABLE
  2
VPORT
 70
     1
  0
VPORT
  2
*ACTIVE
 70
     0
 10
0.0
 20
0.0
 11
1.0
 21
1.0
 12
7.500000000000007
 22
-2.000000000000007
 13
0.0
 23
0.0
 14
0.5
 24
0.5
 15
0.5
 25
0.5
 16
0.0
 26
0.0
 36
1.0
 17
0.0
 27
0.0
 37
0.0
 40
87.72000000000004
 41
0.5232558139534885
 42
50.0
 43
0.0
 44
0.0
 50
0.0
 51
0.0
 71
     0
 72
   100
 73
     1
 74
     3
 75
     0
 76
     0
 77
     0
 78
     0
  0
ENDTAB
  0
TABLE
  2
LTYPE
 70
     1
  0
LTYPE
  2
CONTINUOUS
 70
     0
  3
Solid line
 72
    65
 73
     0
 40
0.0
  0
ENDTAB
  0
TABLE
  2
LAYER
 70
     2
  0
LAYER
  2
0
 70
     0
 62
     7
  6
CONTINUOUS
  0
LAYER
  2
LAYER_01
 70
     0
 62
     1
  6
CONTINUOUS
  0
ENDTAB
  0
TABLE
  2
STYLE
 70
     1
  0
STYLE
  2
STANDARD
 70
     0
 40
0.0
 41
1.0
 50
0.0
 71
     0
 42
0.2
  3
txt
  4

  0
ENDTAB
  0
TABLE
  2
VIEW
 70
     0
  0
ENDTAB
  0
TABLE
  2
UCS
 70
     0
  0
ENDTAB
  0
TABLE
  2
APPID
 70
     1
  0
APPID
  2
ACAD
 70
     0
  0
ENDTAB
  0
TABLE
  2
DIMSTYLE
 70
     1
  0
DIMSTYLE
  2
STANDARD
 70
     0
  3

  4

  5

  6

  7

 40
1.0
 41
0.18
 42
0.0625
 43
0.38
 44
0.18
 45
0.0
 46
0.0
 47
0.0
 48
0.0
140
0.18
141
0.09
142
0.0
143
25.4
144
1.0
145
0.0
146
1.0
147
0.09
 71
     0
 72
     0
 73
     1
 74
     1
 75
     0
 76
     0
 77
     0
 78
     0
170
     0
171
     2
172
     0
173
     0
174
     0
175
     0
176
     0
177
     0
178
     0
  0
ENDTAB
  0
ENDSEC
  0
SECTION
  2
BLOCKS
  0
BLOCK
  8
0
  2
$MODEL_SPACE
 70
     0
 10
0.0
 20
0.0
 30
0.0
  3
$MODEL_SPACE
  1

  0
ENDBLK
  5
21
  8
0
  0
BLOCK
 67
     1
  8
0
  2
$PAPER_SPACE
 70
     0
 10
0.0
 20
0.0
 30
0.0
  3
$PAPER_SPACE
  1

  0
ENDBLK
  5
1D
 67
     1
  8
0
  0
ENDSEC
  0
SECTION
  2
ENTITIES
  0
LINE
  5
6B
  8
LAYER_01
 10
-7.5
 20
-16.0
 30
0.0
 11
-7.5
 21
23.0
 31
0.0
  0
LINE
  5
6C
  8
LAYER_01
 10
14.5
 20
-24.0
 30
0.0
 11
0.5
 21
-24.0
 31
0.0
  0
LINE
  5
6D
  8
LAYER_01
 10
22.5
 20
23.0
 30
0.0
 11
22.5
 21
-16.0
 31
0.0
  0
LINE
  5
6E
  8
LAYER_01
 10
0.5
 20
31.0
 30
0.0
 11
14.5
 21
31.0
 31
0.0
  0
POLYLINE
  5
6F
  8
0
  6
CONTINUOUS
 62
     7
 66
     1
 10
0.0
 20
0.0
 30
0.0
  0
VERTEX
  5
70
  8
0
  6
CONTINUOUS
 62
     7
 10
-10.0
 20
41.00000000000001
 30
0.0
 42
0.4142135623730951
  0
VERTEX
  5
71
  8
0
  6
CONTINUOUS
 62
     7
 10
-15.00000000000001
 20
36.0
 30
0.0
  0
VERTEX
  5
72
  8
0
  6
CONTINUOUS
 62
     7
 10
-15.0
 20
-40.0
 30
0.0
 42
0.414213562373097
  0
VERTEX
  5
73
  8
0
  6
CONTINUOUS
 62
     7
 10
-10.0
 20
-45.00000000000003
 30
0.0
  0
VERTEX
  5
74
  8
0
  6
CONTINUOUS
 62
     7
 10
25.0
 20
-45.00000000000003
 30
0.0
 42
0.4142135623730948
  0
VERTEX
  5
75
  8
0
  6
CONTINUOUS
 62
     7
 10
30.00000000000002
 20
-40.0
 30
0.0
  0
VERTEX
  5
76
  8
0
  6
CONTINUOUS
 62
     7
 10
29.99999999999999
 20
36.0
 30
0.0
 42
0.4142135623730947
  0
VERTEX
  5
77
  8
0
  6
CONTINUOUS
 62
     7
 10
25.0
 20
40.99999999999999
 30
0.0
  0
VERTEX
  5
78
  8
0
  6
CONTINUOUS
 62
     7
 10
-10.0
 20
41.00000000000001
 30
0.0
  0
SEQEND
  5
79
  8
0
  6
CONTINUOUS
 62
     7
  0
POLYLINE
  5
7A
  8
LAYER_01
  6
CONTINUOUS
 62
     7
 66
     1
 10
0.0
 20
0.0
 30
0.0
  0
VERTEX
  5
7B
  8
LAYER_01
  6
CONTINUOUS
 62
     7
 10
22.5
 20
23.0
 30
0.0
  0
VERTEX
  5
7C
  8
LAYER_01
  6
CONTINUOUS
 62
     7
 10
18.5
 20
23.0
 30
0.0
 42
-0.4142135623730951
  0
VERTEX
  5
7D
  8
LAYER_01
  6
CONTINUOUS
 62
     7
 10
14.5
 20
27.0
 30
0.0
  0
VERTEX
  5
7E
  8
LAYER_01
  6
CONTINUOUS
 62
     7
 10
14.5
 20
31.0
 30
0.0
  0
SEQEND
  5
7F
  8
LAYER_01
  6
CONTINUOUS
 62
     7
  0
POLYLINE
  5
80
  8
LAYER_01
  6
CONTINUOUS
 62
     7
 66
     1
 10
0.0
 20
0.0
 30
0.0
  0
VERTEX
  5
81
  8
LAYER_01
  6
CONTINUOUS
 62
     7
 10
14.5
 20
-24.0
 30
0.0
  0
VERTEX
  5
82
  8
LAYER_01
  6
CONTINUOUS
 62
     7
 10
14.5
 20
-20.0
 30
0.0
 42
-0.4142135623730948
  0
VERTEX
  5
83
  8
LAYER_01
  6
CONTINUOUS
 62
     7
 10
18.5
 20
-16.0
 30
0.0
  0
VERTEX
  5
84
  8
LAYER_01
  6
CONTINUOUS
 62
     7
 10
22.5
 20
-16.0
 30
0.0
  0
SEQEND
  5
85
  8
LAYER_01
  6
CONTINUOUS
 62
     7
  0
POLYLINE
  5
86
  8
LAYER_01
  6
CONTINUOUS
 62
     7
 66
     1
 10
0.0
 20
0.0
 30
0.0
  0
VERTEX
  5
87
  8
LAYER_01
  6
CONTINUOUS
 62
     7
 10
-7.5
 20
-16.0
 30
0.0
  0
VERTEX
  5
88
  8
LAYER_01
  6
CONTINUOUS
 62
     7
 10
-3.5
 20
-16.0
 30
0.0
 42
-0.4142135623730951
  0
VERTEX
  5
89
  8
LAYER_01
  6
CONTINUOUS
 62
     7
 10
0.5000000000000044
 20
-20.0
 30
0.0
  0
VERTEX
  5
8A
  8
LAYER_01
  6
CONTINUOUS
 62
     7
 10
0.5
 20
-24.0
 30
0.0
  0
SEQEND
  5
8B
  8
LAYER_01
  6
CONTINUOUS
 62
     7
  0
POLYLINE
  5
8C
  8
0
  6
CONTINUOUS
 62
     7
 66
     1
 10
0.0
 20
0.0
 30
0.0
  0
VERTEX
  5
8D
  8
0
  6
CONTINUOUS
 62
     7
 10
0.399999999999999
 20
-37.8
 30
0.0
 42
1.000000000000002
  0
VERTEX
  5
8E
  8
0
  6
CONTINUOUS
 62
     7
 10
3.600000000000001
 20
-37.8
 30
0.0
  0
VERTEX
  5
8F
  8
0
  6
CONTINUOUS
 62
     7
 10
3.600000000000001
 20
-30.0
 30
0.0
 42
0.9999999999999997
  0
VERTEX
  5
90
  8
0
  6
CONTINUOUS
 62
     7
 10
0.399999999999999
 20
-30.0
 30
0.0
  0
VERTEX
  5
91
  8
0
  6
CONTINUOUS
 62
     7
 10
-2.199999999999999
 20
-30.0
 30
0.0
 42
0.9999999999999999
  0
VERTEX
  5
92
  8
0
  6
CONTINUOUS
 62
     7
 10
-5.4
 20
-30.0
 30
0.0
  0
VERTEX
  5
93
  8
0
  6
CONTINUOUS
 62
     7
 10
-5.4
 20
-37.8
 30
0.0
 42
1.000000000000002
  0
VERTEX
  5
94
  8
0
  6
CONTINUOUS
 62
     7
 10
-2.200000000000001
 20
-37.8
 30
0.0
  0
VERTEX
  5
95
  8
0
  6
CONTINUOUS
 62
     7
 10
0.399999999999999
 20
-37.8
 30
0.0
  0
SEQEND
  5
96
  8
0
  6
CONTINUOUS
 62
     7
  0
POLYLINE
  5
97
  8
LAYER_01
  6
CONTINUOUS
 62
     7
 66
     1
 10
0.0
 20
0.0
 30
0.0
  0
VERTEX
  5
98
  8
LAYER_01
  6
CONTINUOUS
 62
     7
 10
0.5
 20
31.0
 30
0.0
  0
VERTEX
  5
99
  8
LAYER_01
  6
CONTINUOUS
 62
     7
 10
0.4999999999999987
 20
27.0
 30
0.0
 42
-0.4142135623730952
  0
VERTEX
  5
9A
  8
LAYER_01
  6
CONTINUOUS
 62
     7
 10
-3.500000000000001
 20
23.0
 30
0.0
  0
VERTEX
  5
9B
  8
LAYER_01
  6
CONTINUOUS
 62
     7
 10
-7.5
 20
23.0
 30
0.0
  0
SEQEND
  5
9C
  8
LAYER_01
  6
CONTINUOUS
 62
     7
  0
POLYLINE
  5
9D
  8
0
  6
CONTINUOUS
 62
     7
 66
     1
 10
0.0
 20
0.0
 30
0.0
  0
VERTEX
  5
9E
  8
0
  6
CONTINUOUS
 62
     7
 10
-4.3
 20
31.0
 30
0.0
 42
0.414213562373095
  0
VERTEX
  5
9F
  8
0
  6
CONTINUOUS
 62
     7
 10
-7.499999999999998
 20
27.8
 30
0.0
  0
VERTEX
  5
A0
  8
0
  6
CONTINUOUS
 62
     7
 10
-7.499999999999992
 20
-20.8
 30
0.0
 42
0.4142135623730952
  0
VERTEX
  5
A1
  8
0
  6
CONTINUOUS
 62
     7
 10
-4.3
 20
-23.99999999999999
 30
0.0
  0
VERTEX
  5
A2
  8
0
  6
CONTINUOUS
 62
     7
 10
19.3
 20
-24.0
 30
0.0
 42
0.4142135623730941
  0
VERTEX
  5
A3
  8
0
  6
CONTINUOUS
 62
     7
 10
22.5
 20
-20.8
 30
0.0
  0
VERTEX
  5
A4
  8
0
  6
CONTINUOUS
 62
     7
 10
22.5
 20
27.8
 30
0.0
 42
0.4142135623730953
  0
VERTEX
  5
A5
  8
0
  6
CONTINUOUS
 62
     7
 10
19.3
 20
31.00000000000001
 30
0.0
  0
VERTEX
  5
A6
  8
0
  6
CONTINUOUS
 62
     7
 10
-4.3
 20
31.0
 30
0.0
  0
SEQEND
  5
A7
  8
0
  6
CONTINUOUS
 62
     7
  0
POLYLINE
  5
A8
  8
0
  6
CONTINUOUS
 62
     7
 66
     1
 10
0.0
 20
0.0
 30
0.0
  0
VERTEX
  5
A9
  8
0
  6
CONTINUOUS
 62
     7
 10
17.2
 20
-37.8
 30
0.0
 42
1.000000000000002
  0
VERTEX
  5
AA
  8
0
  6
CONTINUOUS
 62
     7
 10
20.4
 20
-37.8
 30
0.0
  0
VERTEX
  5
AB
  8
0
  6
CONTINUOUS
 62
     7
 10
20.4
 20
-30.0
 30
0.0
 42
0.9999999999999999
  0
VERTEX
  5
AC
  8
0
  6
CONTINUOUS
 62
     7
 10
17.2
 20
-30.0
 30
0.0
  0
VERTEX
  5
AD
  8
0
  6
CONTINUOUS
 62
     7
 10
14.6
 20
-30.0
 30
0.0
 42
0.9999999999999999
  0
VERTEX
  5
AE
  8
0
  6
CONTINUOUS
 62
     7
 10
11.40000000000001
 20
-30.0
 30
0.0
  0
VERTEX
  5
AF
  8
0
  6
CONTINUOUS
 62
     7
 10
11.40000000000001
 20
-37.8
 30
0.0
 42
0.9999999999999999
  0
VERTEX
  5
B0
  8
0
  6
CONTINUOUS
 62
     7
 10
14.59999999999999
 20
-37.8
 30
0.0
  0
VERTEX
  5
B1
  8
0
  6
CONTINUOUS
 62
     7
 10
17.2
 20
-37.8
 30
0.0
  0
SEQEND
  5
B2
  8
0
  6
CONTINUOUS
 62
     7
  0
CIRCLE
  5
B3
  8
0
  6
CONTINUOUS
 62
     7
 10
18.5
 20
27.0
 30
0.0
 40
1.400000000000002
  0
CIRCLE
  5
B4
  8
0
  6
CONTINUOUS
 62
     7
 10
-3.5
 20
-20.0
 30
0.0
 40
1.400000000000006
  0
CIRCLE
  5
B5
  8
0
  6
CONTINUOUS
 62
     7
 10
18.5
 20
-20.0
 30
0.0
 40
1.400000000000002
  0
CIRCLE
  5
B6
  8
0
  6
CONTINUOUS
 62
     7
 10
-3.5
 20
27.0
 30
0.0
 40
1.400000000000002
  0
ENDSEC
  0
EOF
