  0
SECTION
  2
HEADER
  9
$ACADVER
  1
AC1009
  9
$FILLMODE
 70
0
  9
$EXTMIN
 10
-5.1435
 20
-6.8580
 30
0.0000
  9
$EXTMAX
 10
107.1880
 20
81.0006
 30
0.0000
  0
ENDSEC
  0
SECTION
  2
TABLES
  0
TABLE
  2
LTYPE
 70
1
  0
LTYPE
  2
CONTINUOUS
 70
64
  3
Solid line
 72
65
 73
0
 40
0
  0
ENDTAB
  0
TABLE
  2
LAYER
 70
255
  0
LAYER
  2
16
 70
64
 62
174
  6
CONTINUOUS
  0
LAYER
  2
17
 70
64
 62
94
  6
CONTINUOUS
  0
LAYER
  2
20
 70
64
 62
178
  6
CONTINUOUS
  0
LAYER
  2
44
 70
64
 62
250
  6
CONTINUOUS
  0
LAYER
  2
45
 70
64
 62
250
  6
CONTINUOUS
  0
ENDTAB
  0
ENDSEC
  0
SECTION
  2
BLOCKS
  0
BLOCK
  8
0
  2
RECT
 70
64
 10
0.0000
 20
0.0000
 30
0.0000
  3
RECT
  0
SOLID
  8
0
 10
-0.5000
 20
-0.5000
 30
0.0000
 11
0.5000
 21
-0.5000
 31
0.0000
 12
-0.5000
 22
0.5000
 32
0.0000
 13
0.5000
 23
0.5000
 33
0.0000
  0
ENDBLK
  8
0
  0
BLOCK
  8
0
  2
PIE
 70
64
 10
0.0000
 20
0.0000
 30
0.0000
  3
PIE
  0
CIRCLE
  8
0
 10
0.0000
 20
0.0000
 30
0.0000
 40
0.5000
  0
ENDBLK
  8
0
  0
BLOCK
  8
0
  2
OCTAGONP
 70
64
 10
0.0000
 20
0.0000
 30
0.0000
  3
OCTAGONP
  0
POLYLINE
  8
0
 66
1
 10
0.0000
 20
0.0000
 30
0.0000
 40
0.0000
 41
0.0000
 70
1
  0
VERTEX
  8
0
 10
-0.5000
 20
-0.2071
 30
0.0000
  0
VERTEX
  8
0
 10
-0.5000
 20
0.2071
 30
0.0000
  0
VERTEX
  8
0
 10
-0.2071
 20
0.5000
 30
0.0000
  0
VERTEX
  8
0
 10
0.2071
 20
0.5000
 30
0.0000
  0
VERTEX
  8
0
 10
0.5000
 20
0.2071
 30
0.0000
  0
VERTEX
  8
0
 10
0.5000
 20
-0.2071
 30
0.0000
  0
VERTEX
  8
0
 10
0.2071
 20
-0.5000
 30
0.0000
  0
VERTEX
  8
0
 10
-0.2071
 20
-0.5000
 30
0.0000
  0
SEQEND
  8
0
  0
ENDBLK
  8
0
  0
BLOCK
  8
0
  2
SQUAREP
 70
64
 10
0.0000
 20
0.0000
 30
0.0000
  3
SQUAREP
  0
SOLID
  8
0
 10
-0.5000
 20
-0.5000
 30
0.0000
 11
0.5000
 21
-0.5000
 31
0.0000
 12
-0.5000
 22
0.5000
 32
0.0000
 13
0.5000
 23
0.5000
 33
0.0000
  0
ENDBLK
  8
0
  0
BLOCK
  8
0
  2
ROUNDP
 70
64
 10
0.0000
 20
0.0000
 30
0.0000
  3
ROUNDP
  0
CIRCLE
  8
0
 10
0.0000
 20
0.0000
 30
0.0000
 40
0.5000
  0
ENDBLK
  8
0
  0
BLOCK
  8
0
  2
ANNULUSP
 70
64
 10
0.0000
 20
0.0000
 30
0.0000
  3
ANNULUSP
  0
CIRCLE
  8
0
 10
0.0000
 20
0.0000
 30
0.0000
 40
0.5000
  0
ENDBLK
  8
0
  0
BLOCK
  8
0
  2
THERMALP
 70
64
 10
0.0000
 20
0.0000
 30
0.0000
  3
THERMALP
  0
POLYLINE
  8
0
 66
1
 10
0.0000
 20
0.0000
 30
0.0000
 40
0.0000
 41
0.0000
 70
1
  0
VERTEX
  8
0
 10
-0.2379
 20
0.4000
 30
0.0000
  0
VERTEX
  8
0
 10
0.2379
 20
0.4000
 30
0.0000
 42
1.0000
  0
VERTEX
  8
0
 10
0.2379
 20
0.5000
 30
0.0000
  0
VERTEX
  8
0
 10
-0.2379
 20
0.5000
 30
0.0000
 42
1.0000
  0
SEQEND
  8
0
  0
POLYLINE
  8
0
 66
1
 10
0.0000
 20
0.0000
 30
0.0000
 40
0.0000
 41
0.0000
 70
1
  0
VERTEX
  8
0
 10
0.4000
 20
0.2379
 30
0.0000
  0
VERTEX
  8
0
 10
0.4000
 20
-0.2379
 30
0.0000
 42
1.0000
  0
VERTEX
  8
0
 10
0.5000
 20
-0.2379
 30
0.0000
  0
VERTEX
  8
0
 10
0.5000
 20
0.2379
 30
0.0000
 42
1.0000
  0
SEQEND
  8
0
  0
POLYLINE
  8
0
 66
1
 10
0.0000
 20
0.0000
 30
0.0000
 40
0.0000
 41
0.0000
 70
1
  0
VERTEX
  8
0
 10
0.2379
 20
-0.4000
 30
0.0000
  0
VERTEX
  8
0
 10
-0.2379
 20
-0.4000
 30
0.0000
 42
1.0000
  0
VERTEX
  8
0
 10
-0.2379
 20
-0.5000
 30
0.0000
  0
VERTEX
  8
0
 10
0.2379
 20
-0.5000
 30
0.0000
 42
1.0000
  0
SEQEND
  8
0
  0
POLYLINE
  8
0
 66
1
 10
0.0000
 20
0.0000
 30
0.0000
 40
0.0000
 41
0.0000
 70
1
  0
VERTEX
  8
0
 10
-0.4000
 20
-0.2379
 30
0.0000
  0
VERTEX
  8
0
 10
-0.4000
 20
0.2379
 30
0.0000
 42
1.0000
  0
VERTEX
  8
0
 10
-0.5000
 20
0.2379
 30
0.0000
  0
VERTEX
  8
0
 10
-0.5000
 20
-0.2379
 30
0.0000
 42
1.0000
  0
SEQEND
  8
0
  0
ENDBLK
  8
0
  0
BLOCK
  8
0
  2
OCTAGONV
 70
64
 10
0.0000
 20
0.0000
 30
0.0000
  3
OCTAGONV
  0
POLYLINE
  8
0
 66
1
 10
0.0000
 20
0.0000
 30
0.0000
 40
0.0000
 41
0.0000
 70
1
  0
VERTEX
  8
0
 10
-0.5000
 20
-0.2071
 30
0.0000
  0
VERTEX
  8
0
 10
-0.5000
 20
0.2071
 30
0.0000
  0
VERTEX
  8
0
 10
-0.2071
 20
0.5000
 30
0.0000
  0
VERTEX
  8
0
 10
0.2071
 20
0.5000
 30
0.0000
  0
VERTEX
  8
0
 10
0.5000
 20
0.2071
 30
0.0000
  0
VERTEX
  8
0
 10
0.5000
 20
-0.2071
 30
0.0000
  0
VERTEX
  8
0
 10
0.2071
 20
-0.5000
 30
0.0000
  0
VERTEX
  8
0
 10
-0.2071
 20
-0.5000
 30
0.0000
  0
SEQEND
  8
0
  0
ENDBLK
  8
0
  0
BLOCK
  8
0
  2
SQUAREV
 70
64
 10
0.0000
 20
0.0000
 30
0.0000
  3
SQUAREV
  0
SOLID
  8
0
 10
-0.5000
 20
-0.5000
 30
0.0000
 11
0.5000
 21
-0.5000
 31
0.0000
 12
-0.5000
 22
0.5000
 32
0.0000
 13
0.5000
 23
0.5000
 33
0.0000
  0
ENDBLK
  8
0
  0
BLOCK
  8
0
  2
ROUNDV
 70
64
 10
0.0000
 20
0.0000
 30
0.0000
  3
ROUNDV
  0
CIRCLE
  8
0
 10
0.0000
 20
0.0000
 30
0.0000
 40
0.5000
  0
ENDBLK
  8
0
  0
BLOCK
  8
0
  2
ANNULUSV
 70
64
 10
0.0000
 20
0.0000
 30
0.0000
  3
ANNULUSV
  0
CIRCLE
  8
0
 10
0.0000
 20
0.0000
 30
0.0000
 40
0.5000
  0
ENDBLK
  8
0
  0
BLOCK
  8
0
  2
THERMALV
 70
64
 10
0.0000
 20
0.0000
 30
0.0000
  3
THERMALV
  0
POLYLINE
  8
0
 66
1
 10
0.0000
 20
0.0000
 30
0.0000
 40
0.0000
 41
0.0000
 70
1
  0
VERTEX
  8
0
 10
-0.2379
 20
0.4000
 30
0.0000
  0
VERTEX
  8
0
 10
0.2379
 20
0.4000
 30
0.0000
 42
1.0000
  0
VERTEX
  8
0
 10
0.2379
 20
0.5000
 30
0.0000
  0
VERTEX
  8
0
 10
-0.2379
 20
0.5000
 30
0.0000
 42
1.0000
  0
SEQEND
  8
0
  0
POLYLINE
  8
0
 66
1
 10
0.0000
 20
0.0000
 30
0.0000
 40
0.0000
 41
0.0000
 70
1
  0
VERTEX
  8
0
 10
0.4000
 20
0.2379
 30
0.0000
  0
VERTEX
  8
0
 10
0.4000
 20
-0.2379
 30
0.0000
 42
1.0000
  0
VERTEX
  8
0
 10
0.5000
 20
-0.2379
 30
0.0000
  0
VERTEX
  8
0
 10
0.5000
 20
0.2379
 30
0.0000
 42
1.0000
  0
SEQEND
  8
0
  0
POLYLINE
  8
0
 66
1
 10
0.0000
 20
0.0000
 30
0.0000
 40
0.0000
 41
0.0000
 70
1
  0
VERTEX
  8
0
 10
0.2379
 20
-0.4000
 30
0.0000
  0
VERTEX
  8
0
 10
-0.2379
 20
-0.4000
 30
0.0000
 42
1.0000
  0
VERTEX
  8
0
 10
-0.2379
 20
-0.5000
 30
0.0000
  0
VERTEX
  8
0
 10
0.2379
 20
-0.5000
 30
0.0000
 42
1.0000
  0
SEQEND
  8
0
  0
POLYLINE
  8
0
 66
1
 10
0.0000
 20
0.0000
 30
0.0000
 40
0.0000
 41
0.0000
 70
1
  0
VERTEX
  8
0
 10
-0.4000
 20
-0.2379
 30
0.0000
  0
VERTEX
  8
0
 10
-0.4000
 20
0.2379
 30
0.0000
 42
1.0000
  0
VERTEX
  8
0
 10
-0.5000
 20
0.2379
 30
0.0000
  0
VERTEX
  8
0
 10
-0.5000
 20
-0.2379
 30
0.0000
 42
1.0000
  0
SEQEND
  8
0
  0
ENDBLK
  8
0
  0
BLOCK
  8
0
  2
LONGP100
 70
64
 10
0.0000
 20
0.0000
 30
0.0000
  3
LONGP100
  0
POLYLINE
  8
0
 66
1
 10
0.0000
 20
0.0000
 30
0.0000
 40
0.0000
 41
0.0000
 70
1
  0
VERTEX
  8
0
 10
-0.5000
 20
-0.5000
 30
0.0000
  0
VERTEX
  8
0
 10
0.5000
 20
-0.5000
 30
0.0000
 42
1.0000
  0
VERTEX
  8
0
 10
0.5000
 20
0.5000
 30
0.0000
  0
VERTEX
  8
0
 10
-0.5000
 20
0.5000
 30
0.0000
 42
1.0000
  0
SEQEND
  8
0
  0
ENDBLK
  8
0
  0
ENDSEC
  0
SECTION
  2
ENTITIES
  0
LINE
  8
20
 10
0.0000
 20
0.0000
 30
0.0000
 11
105.0800
 21
0.0000
 31
0.0000
  0
LINE
  8
20
 10
105.0800
 20
0.0000
 30
0.0000
 11
105.0800
 21
80.0000
 31
0.0000
  0
LINE
  8
20
 10
105.0800
 20
80.0000
 30
0.0000
 11
0.0000
 21
80.0000
 31
0.0000
  0
LINE
  8
20
 10
0.0000
 20
80.0000
 30
0.0000
 11
0.0000
 21
0.0000
 31
0.0000
  0
CIRCLE
  8
20
 10
16.5100
 20
71.1200
 30
0.0000
 40
1.6000
  0
CIRCLE
  8
20
 10
15.2400
 20
22.8600
 30
0.0000
 40
1.6000
  0
CIRCLE
  8
20
 10
67.3100
 20
55.8800
 30
0.0000
 40
1.6000
  0
CIRCLE
  8
20
 10
67.3100
 20
27.9400
 30
0.0000
 40
1.6000
  0
CIRCLE
  8
20
 10
91.4400
 20
71.1200
 30
0.0000
 40
1.6000
  0
CIRCLE
  8
20
 10
97.7900
 20
22.8600
 30
0.0000
 40
1.6000
  0
INSERT
  8
17
  2
ROUNDP
 10
64.7700
 20
71.1200
 30
0.0000
 41
1.8796
 42
1.8796
 43
1.0000
 50
90.0000
  0
CIRCLE
  8
44
 10
64.7700
 20
71.1200
 30
0.0000
 40
0.5080
  0
INSERT
  8
17
  2
ROUNDP
 10
62.2300
 20
71.1200
 30
0.0000
 41
1.8796
 42
1.8796
 43
1.0000
 50
90.0000
  0
CIRCLE
  8
44
 10
62.2300
 20
71.1200
 30
0.0000
 40
0.5080
  0
INSERT
  8
17
  2
ROUNDP
 10
59.6900
 20
71.1200
 30
0.0000
 41
1.8796
 42
1.8796
 43
1.0000
 50
90.0000
  0
CIRCLE
  8
44
 10
59.6900
 20
71.1200
 30
0.0000
 40
0.5080
  0
INSERT
  8
17
  2
ROUNDP
 10
57.1500
 20
71.1200
 30
0.0000
 41
1.8796
 42
1.8796
 43
1.0000
 50
90.0000
  0
CIRCLE
  8
44
 10
57.1500
 20
71.1200
 30
0.0000
 40
0.5080
  0
INSERT
  8
17
  2
ROUNDP
 10
36.8300
 20
22.8600
 30
0.0000
 41
1.8796
 42
1.8796
 43
1.0000
 50
90.0000
  0
CIRCLE
  8
44
 10
36.8300
 20
22.8600
 30
0.0000
 40
0.5080
  0
INSERT
  8
17
  2
ROUNDP
 10
54.6100
 20
71.1200
 30
0.0000
 41
1.8796
 42
1.8796
 43
1.0000
 50
90.0000
  0
CIRCLE
  8
44
 10
54.6100
 20
71.1200
 30
0.0000
 40
0.5080
  0
INSERT
  8
17
  2
ROUNDP
 10
52.0700
 20
71.1200
 30
0.0000
 41
1.8796
 42
1.8796
 43
1.0000
 50
90.0000
  0
CIRCLE
  8
44
 10
52.0700
 20
71.1200
 30
0.0000
 40
0.5080
  0
INSERT
  8
17
  2
ROUNDP
 10
39.3700
 20
22.8600
 30
0.0000
 41
1.8796
 42
1.8796
 43
1.0000
 50
90.0000
  0
CIRCLE
  8
44
 10
39.3700
 20
22.8600
 30
0.0000
 40
0.5080
  0
INSERT
  8
17
  2
ROUNDP
 10
95.2500
 20
71.1200
 30
0.0000
 41
1.8796
 42
1.8796
 43
1.0000
 50
90.0000
  0
CIRCLE
  8
44
 10
95.2500
 20
71.1200
 30
0.0000
 40
0.5080
  0
INSERT
  8
17
  2
ROUNDP
 10
97.7900
 20
71.1200
 30
0.0000
 41
1.8796
 42
1.8796
 43
1.0000
 50
90.0000
  0
CIRCLE
  8
44
 10
97.7900
 20
71.1200
 30
0.0000
 40
0.5080
  0
INSERT
  8
17
  2
ROUNDP
 10
49.5300
 20
71.1200
 30
0.0000
 41
1.8796
 42
1.8796
 43
1.0000
 50
90.0000
  0
CIRCLE
  8
44
 10
49.5300
 20
71.1200
 30
0.0000
 40
0.5080
  0
INSERT
  8
17
  2
ROUNDP
 10
46.9900
 20
71.1200
 30
0.0000
 41
1.8796
 42
1.8796
 43
1.0000
 50
90.0000
  0
CIRCLE
  8
44
 10
46.9900
 20
71.1200
 30
0.0000
 40
0.5080
  0
INSERT
  8
17
  2
ROUNDP
 10
42.9260
 20
71.1200
 30
0.0000
 41
1.8796
 42
1.8796
 43
1.0000
 50
90.0000
  0
CIRCLE
  8
44
 10
42.9260
 20
71.1200
 30
0.0000
 40
0.5080
  0
INSERT
  8
17
  2
ROUNDP
 10
40.3860
 20
71.1200
 30
0.0000
 41
1.8796
 42
1.8796
 43
1.0000
 50
90.0000
  0
CIRCLE
  8
44
 10
40.3860
 20
71.1200
 30
0.0000
 40
0.5080
  0
INSERT
  8
17
  2
ROUNDP
 10
37.8460
 20
71.1200
 30
0.0000
 41
1.8796
 42
1.8796
 43
1.0000
 50
90.0000
  0
CIRCLE
  8
44
 10
37.8460
 20
71.1200
 30
0.0000
 40
0.5080
  0
INSERT
  8
17
  2
ROUNDP
 10
35.3060
 20
71.1200
 30
0.0000
 41
1.8796
 42
1.8796
 43
1.0000
 50
90.0000
  0
CIRCLE
  8
44
 10
35.3060
 20
71.1200
 30
0.0000
 40
0.5080
  0
INSERT
  8
17
  2
ROUNDP
 10
32.7660
 20
71.1200
 30
0.0000
 41
1.8796
 42
1.8796
 43
1.0000
 50
90.0000
  0
CIRCLE
  8
44
 10
32.7660
 20
71.1200
 30
0.0000
 40
0.5080
  0
INSERT
  8
17
  2
ROUNDP
 10
30.2260
 20
71.1200
 30
0.0000
 41
1.8796
 42
1.8796
 43
1.0000
 50
90.0000
  0
CIRCLE
  8
44
 10
30.2260
 20
71.1200
 30
0.0000
 40
0.5080
  0
INSERT
  8
17
  2
ROUNDP
 10
69.8500
 20
71.1200
 30
0.0000
 41
1.8796
 42
1.8796
 43
1.0000
 50
90.0000
  0
CIRCLE
  8
44
 10
69.8500
 20
71.1200
 30
0.0000
 40
0.5080
  0
INSERT
  8
17
  2
ROUNDP
 10
72.3900
 20
71.1200
 30
0.0000
 41
1.8796
 42
1.8796
 43
1.0000
 50
90.0000
  0
CIRCLE
  8
44
 10
72.3900
 20
71.1200
 30
0.0000
 40
0.5080
  0
INSERT
  8
17
  2
ROUNDP
 10
74.9300
 20
71.1200
 30
0.0000
 41
1.8796
 42
1.8796
 43
1.0000
 50
90.0000
  0
CIRCLE
  8
44
 10
74.9300
 20
71.1200
 30
0.0000
 40
0.5080
  0
INSERT
  8
17
  2
ROUNDP
 10
77.4700
 20
71.1200
 30
0.0000
 41
1.8796
 42
1.8796
 43
1.0000
 50
90.0000
  0
CIRCLE
  8
44
 10
77.4700
 20
71.1200
 30
0.0000
 40
0.5080
  0
INSERT
  8
17
  2
ROUNDP
 10
80.0100
 20
71.1200
 30
0.0000
 41
1.8796
 42
1.8796
 43
1.0000
 50
90.0000
  0
CIRCLE
  8
44
 10
80.0100
 20
71.1200
 30
0.0000
 40
0.5080
  0
INSERT
  8
17
  2
ROUNDP
 10
82.5500
 20
71.1200
 30
0.0000
 41
1.8796
 42
1.8796
 43
1.0000
 50
90.0000
  0
CIRCLE
  8
44
 10
82.5500
 20
71.1200
 30
0.0000
 40
0.5080
  0
INSERT
  8
17
  2
ROUNDP
 10
85.0900
 20
71.1200
 30
0.0000
 41
1.8796
 42
1.8796
 43
1.0000
 50
90.0000
  0
CIRCLE
  8
44
 10
85.0900
 20
71.1200
 30
0.0000
 40
0.5080
  0
INSERT
  8
17
  2
ROUNDP
 10
87.6300
 20
71.1200
 30
0.0000
 41
1.8796
 42
1.8796
 43
1.0000
 50
90.0000
  0
CIRCLE
  8
44
 10
87.6300
 20
71.1200
 30
0.0000
 40
0.5080
  0
INSERT
  8
17
  2
OCTAGONP
 10
95.2500
 20
68.5800
 30
0.0000
 41
1.8796
 42
1.8796
 43
1.0000
 50
90.0000
  0
CIRCLE
  8
44
 10
95.2500
 20
68.5800
 30
0.0000
 40
0.5080
  0
INSERT
  8
17
  2
OCTAGONP
 10
97.7900
 20
68.5800
 30
0.0000
 41
1.8796
 42
1.8796
 43
1.0000
 50
90.0000
  0
CIRCLE
  8
44
 10
97.7900
 20
68.5800
 30
0.0000
 40
0.5080
  0
INSERT
  8
17
  2
OCTAGONP
 10
95.2500
 20
66.0400
 30
0.0000
 41
1.8796
 42
1.8796
 43
1.0000
 50
90.0000
  0
CIRCLE
  8
44
 10
95.2500
 20
66.0400
 30
0.0000
 40
0.5080
  0
INSERT
  8
17
  2
OCTAGONP
 10
97.7900
 20
66.0400
 30
0.0000
 41
1.8796
 42
1.8796
 43
1.0000
 50
90.0000
  0
CIRCLE
  8
44
 10
97.7900
 20
66.0400
 30
0.0000
 40
0.5080
  0
INSERT
  8
17
  2
OCTAGONP
 10
95.2500
 20
63.5000
 30
0.0000
 41
1.8796
 42
1.8796
 43
1.0000
 50
90.0000
  0
CIRCLE
  8
44
 10
95.2500
 20
63.5000
 30
0.0000
 40
0.5080
  0
INSERT
  8
17
  2
OCTAGONP
 10
97.7900
 20
63.5000
 30
0.0000
 41
1.8796
 42
1.8796
 43
1.0000
 50
90.0000
  0
CIRCLE
  8
44
 10
97.7900
 20
63.5000
 30
0.0000
 40
0.5080
  0
INSERT
  8
17
  2
OCTAGONP
 10
95.2500
 20
60.9600
 30
0.0000
 41
1.8796
 42
1.8796
 43
1.0000
 50
90.0000
  0
CIRCLE
  8
44
 10
95.2500
 20
60.9600
 30
0.0000
 40
0.5080
  0
INSERT
  8
17
  2
OCTAGONP
 10
97.7900
 20
60.9600
 30
0.0000
 41
1.8796
 42
1.8796
 43
1.0000
 50
90.0000
  0
CIRCLE
  8
44
 10
97.7900
 20
60.9600
 30
0.0000
 40
0.5080
  0
INSERT
  8
17
  2
OCTAGONP
 10
95.2500
 20
58.4200
 30
0.0000
 41
1.8796
 42
1.8796
 43
1.0000
 50
90.0000
  0
CIRCLE
  8
44
 10
95.2500
 20
58.4200
 30
0.0000
 40
0.5080
  0
INSERT
  8
17
  2
OCTAGONP
 10
97.7900
 20
58.4200
 30
0.0000
 41
1.8796
 42
1.8796
 43
1.0000
 50
90.0000
  0
CIRCLE
  8
44
 10
97.7900
 20
58.4200
 30
0.0000
 40
0.5080
  0
INSERT
  8
17
  2
OCTAGONP
 10
95.2500
 20
55.8800
 30
0.0000
 41
1.8796
 42
1.8796
 43
1.0000
 50
90.0000
  0
CIRCLE
  8
44
 10
95.2500
 20
55.8800
 30
0.0000
 40
0.5080
  0
INSERT
  8
17
  2
OCTAGONP
 10
97.7900
 20
55.8800
 30
0.0000
 41
1.8796
 42
1.8796
 43
1.0000
 50
90.0000
  0
CIRCLE
  8
44
 10
97.7900
 20
55.8800
 30
0.0000
 40
0.5080
  0
INSERT
  8
17
  2
OCTAGONP
 10
95.2500
 20
53.3400
 30
0.0000
 41
1.8796
 42
1.8796
 43
1.0000
 50
90.0000
  0
CIRCLE
  8
44
 10
95.2500
 20
53.3400
 30
0.0000
 40
0.5080
  0
INSERT
  8
17
  2
OCTAGONP
 10
97.7900
 20
53.3400
 30
0.0000
 41
1.8796
 42
1.8796
 43
1.0000
 50
90.0000
  0
CIRCLE
  8
44
 10
97.7900
 20
53.3400
 30
0.0000
 40
0.5080
  0
INSERT
  8
17
  2
OCTAGONP
 10
95.2500
 20
50.8000
 30
0.0000
 41
1.8796
 42
1.8796
 43
1.0000
 50
90.0000
  0
CIRCLE
  8
44
 10
95.2500
 20
50.8000
 30
0.0000
 40
0.5080
  0
INSERT
  8
17
  2
OCTAGONP
 10
97.7900
 20
50.8000
 30
0.0000
 41
1.8796
 42
1.8796
 43
1.0000
 50
90.0000
  0
CIRCLE
  8
44
 10
97.7900
 20
50.8000
 30
0.0000
 40
0.5080
  0
INSERT
  8
17
  2
OCTAGONP
 10
95.2500
 20
48.2600
 30
0.0000
 41
1.8796
 42
1.8796
 43
1.0000
 50
90.0000
  0
CIRCLE
  8
44
 10
95.2500
 20
48.2600
 30
0.0000
 40
0.5080
  0
INSERT
  8
17
  2
OCTAGONP
 10
97.7900
 20
48.2600
 30
0.0000
 41
1.8796
 42
1.8796
 43
1.0000
 50
90.0000
  0
CIRCLE
  8
44
 10
97.7900
 20
48.2600
 30
0.0000
 40
0.5080
  0
INSERT
  8
17
  2
OCTAGONP
 10
95.2500
 20
45.7200
 30
0.0000
 41
1.8796
 42
1.8796
 43
1.0000
 50
90.0000
  0
CIRCLE
  8
44
 10
95.2500
 20
45.7200
 30
0.0000
 40
0.5080
  0
INSERT
  8
17
  2
OCTAGONP
 10
97.7900
 20
45.7200
 30
0.0000
 41
1.8796
 42
1.8796
 43
1.0000
 50
90.0000
  0
CIRCLE
  8
44
 10
97.7900
 20
45.7200
 30
0.0000
 40
0.5080
  0
INSERT
  8
17
  2
OCTAGONP
 10
95.2500
 20
43.1800
 30
0.0000
 41
1.8796
 42
1.8796
 43
1.0000
 50
90.0000
  0
CIRCLE
  8
44
 10
95.2500
 20
43.1800
 30
0.0000
 40
0.5080
  0
INSERT
  8
17
  2
OCTAGONP
 10
97.7900
 20
43.1800
 30
0.0000
 41
1.8796
 42
1.8796
 43
1.0000
 50
90.0000
  0
CIRCLE
  8
44
 10
97.7900
 20
43.1800
 30
0.0000
 40
0.5080
  0
INSERT
  8
17
  2
OCTAGONP
 10
95.2500
 20
40.6400
 30
0.0000
 41
1.8796
 42
1.8796
 43
1.0000
 50
90.0000
  0
CIRCLE
  8
44
 10
95.2500
 20
40.6400
 30
0.0000
 40
0.5080
  0
INSERT
  8
17
  2
OCTAGONP
 10
97.7900
 20
40.6400
 30
0.0000
 41
1.8796
 42
1.8796
 43
1.0000
 50
90.0000
  0
CIRCLE
  8
44
 10
97.7900
 20
40.6400
 30
0.0000
 40
0.5080
  0
INSERT
  8
17
  2
OCTAGONP
 10
95.2500
 20
38.1000
 30
0.0000
 41
1.8796
 42
1.8796
 43
1.0000
 50
90.0000
  0
CIRCLE
  8
44
 10
95.2500
 20
38.1000
 30
0.0000
 40
0.5080
  0
INSERT
  8
17
  2
OCTAGONP
 10
97.7900
 20
38.1000
 30
0.0000
 41
1.8796
 42
1.8796
 43
1.0000
 50
90.0000
  0
CIRCLE
  8
44
 10
97.7900
 20
38.1000
 30
0.0000
 40
0.5080
  0
INSERT
  8
17
  2
OCTAGONP
 10
95.2500
 20
35.5600
 30
0.0000
 41
1.8796
 42
1.8796
 43
1.0000
 50
90.0000
  0
CIRCLE
  8
44
 10
95.2500
 20
35.5600
 30
0.0000
 40
0.5080
  0
INSERT
  8
17
  2
OCTAGONP
 10
97.7900
 20
35.5600
 30
0.0000
 41
1.8796
 42
1.8796
 43
1.0000
 50
90.0000
  0
CIRCLE
  8
44
 10
97.7900
 20
35.5600
 30
0.0000
 40
0.5080
  0
INSERT
  8
17
  2
OCTAGONP
 10
95.2500
 20
33.0200
 30
0.0000
 41
1.8796
 42
1.8796
 43
1.0000
 50
90.0000
  0
CIRCLE
  8
44
 10
95.2500
 20
33.0200
 30
0.0000
 40
0.5080
  0
INSERT
  8
17
  2
OCTAGONP
 10
97.7900
 20
33.0200
 30
0.0000
 41
1.8796
 42
1.8796
 43
1.0000
 50
90.0000
  0
CIRCLE
  8
44
 10
97.7900
 20
33.0200
 30
0.0000
 40
0.5080
  0
INSERT
  8
17
  2
OCTAGONP
 10
95.2500
 20
30.4800
 30
0.0000
 41
1.8796
 42
1.8796
 43
1.0000
 50
90.0000
  0
CIRCLE
  8
44
 10
95.2500
 20
30.4800
 30
0.0000
 40
0.5080
  0
INSERT
  8
17
  2
OCTAGONP
 10
97.7900
 20
30.4800
 30
0.0000
 41
1.8796
 42
1.8796
 43
1.0000
 50
90.0000
  0
CIRCLE
  8
44
 10
97.7900
 20
30.4800
 30
0.0000
 40
0.5080
  0
INSERT
  8
17
  2
ROUNDP
 10
52.0700
 20
22.8600
 30
0.0000
 41
1.8796
 42
1.8796
 43
1.0000
 50
90.0000
  0
CIRCLE
  8
44
 10
52.0700
 20
22.8600
 30
0.0000
 40
0.5080
  0
INSERT
  8
17
  2
ROUNDP
 10
54.6100
 20
22.8600
 30
0.0000
 41
1.8796
 42
1.8796
 43
1.0000
 50
90.0000
  0
CIRCLE
  8
44
 10
54.6100
 20
22.8600
 30
0.0000
 40
0.5080
  0
INSERT
  8
17
  2
ROUNDP
 10
57.1500
 20
22.8600
 30
0.0000
 41
1.8796
 42
1.8796
 43
1.0000
 50
90.0000
  0
CIRCLE
  8
44
 10
57.1500
 20
22.8600
 30
0.0000
 40
0.5080
  0
INSERT
  8
17
  2
ROUNDP
 10
59.6900
 20
22.8600
 30
0.0000
 41
1.8796
 42
1.8796
 43
1.0000
 50
90.0000
  0
CIRCLE
  8
44
 10
59.6900
 20
22.8600
 30
0.0000
 40
0.5080
  0
INSERT
  8
17
  2
ROUNDP
 10
62.2300
 20
22.8600
 30
0.0000
 41
1.8796
 42
1.8796
 43
1.0000
 50
90.0000
  0
CIRCLE
  8
44
 10
62.2300
 20
22.8600
 30
0.0000
 40
0.5080
  0
INSERT
  8
17
  2
ROUNDP
 10
64.7700
 20
22.8600
 30
0.0000
 41
1.8796
 42
1.8796
 43
1.0000
 50
90.0000
  0
CIRCLE
  8
44
 10
64.7700
 20
22.8600
 30
0.0000
 40
0.5080
  0
INSERT
  8
17
  2
ROUNDP
 10
67.3100
 20
22.8600
 30
0.0000
 41
1.8796
 42
1.8796
 43
1.0000
 50
90.0000
  0
CIRCLE
  8
44
 10
67.3100
 20
22.8600
 30
0.0000
 40
0.5080
  0
INSERT
  8
17
  2
ROUNDP
 10
69.8500
 20
22.8600
 30
0.0000
 41
1.8796
 42
1.8796
 43
1.0000
 50
90.0000
  0
CIRCLE
  8
44
 10
69.8500
 20
22.8600
 30
0.0000
 40
0.5080
  0
INSERT
  8
17
  2
ROUNDP
 10
74.9300
 20
22.8600
 30
0.0000
 41
1.8796
 42
1.8796
 43
1.0000
 50
90.0000
  0
CIRCLE
  8
44
 10
74.9300
 20
22.8600
 30
0.0000
 40
0.5080
  0
INSERT
  8
17
  2
ROUNDP
 10
77.4700
 20
22.8600
 30
0.0000
 41
1.8796
 42
1.8796
 43
1.0000
 50
90.0000
  0
CIRCLE
  8
44
 10
77.4700
 20
22.8600
 30
0.0000
 40
0.5080
  0
INSERT
  8
17
  2
ROUNDP
 10
80.0100
 20
22.8600
 30
0.0000
 41
1.8796
 42
1.8796
 43
1.0000
 50
90.0000
  0
CIRCLE
  8
44
 10
80.0100
 20
22.8600
 30
0.0000
 40
0.5080
  0
INSERT
  8
17
  2
ROUNDP
 10
82.5500
 20
22.8600
 30
0.0000
 41
1.8796
 42
1.8796
 43
1.0000
 50
90.0000
  0
CIRCLE
  8
44
 10
82.5500
 20
22.8600
 30
0.0000
 40
0.5080
  0
INSERT
  8
17
  2
ROUNDP
 10
85.0900
 20
22.8600
 30
0.0000
 41
1.8796
 42
1.8796
 43
1.0000
 50
90.0000
  0
CIRCLE
  8
44
 10
85.0900
 20
22.8600
 30
0.0000
 40
0.5080
  0
INSERT
  8
17
  2
ROUNDP
 10
87.6300
 20
22.8600
 30
0.0000
 41
1.8796
 42
1.8796
 43
1.0000
 50
90.0000
  0
CIRCLE
  8
44
 10
87.6300
 20
22.8600
 30
0.0000
 40
0.5080
  0
INSERT
  8
17
  2
ROUNDP
 10
90.1700
 20
22.8600
 30
0.0000
 41
1.8796
 42
1.8796
 43
1.0000
 50
90.0000
  0
CIRCLE
  8
44
 10
90.1700
 20
22.8600
 30
0.0000
 40
0.5080
  0
INSERT
  8
17
  2
ROUNDP
 10
92.7100
 20
22.8600
 30
0.0000
 41
1.8796
 42
1.8796
 43
1.0000
 50
90.0000
  0
CIRCLE
  8
44
 10
92.7100
 20
22.8600
 30
0.0000
 40
0.5080
  0
INSERT
  8
17
  2
ROUNDP
 10
25.1460
 20
71.1200
 30
0.0000
 41
1.8796
 42
1.8796
 43
1.0000
 50
90.0000
  0
CIRCLE
  8
44
 10
25.1460
 20
71.1200
 30
0.0000
 40
0.5080
  0
INSERT
  8
17
  2
ROUNDP
 10
41.9100
 20
22.8600
 30
0.0000
 41
1.8796
 42
1.8796
 43
1.0000
 50
90.0000
  0
CIRCLE
  8
44
 10
41.9100
 20
22.8600
 30
0.0000
 40
0.5080
  0
INSERT
  8
17
  2
ROUNDP
 10
44.4500
 20
22.8600
 30
0.0000
 41
1.8796
 42
1.8796
 43
1.0000
 50
90.0000
  0
CIRCLE
  8
44
 10
44.4500
 20
22.8600
 30
0.0000
 40
0.5080
  0
INSERT
  8
17
  2
ROUNDP
 10
95.2500
 20
27.9400
 30
0.0000
 41
1.8796
 42
1.8796
 43
1.0000
 50
90.0000
  0
CIRCLE
  8
44
 10
95.2500
 20
27.9400
 30
0.0000
 40
0.5080
  0
INSERT
  8
17
  2
ROUNDP
 10
97.7900
 20
27.9400
 30
0.0000
 41
1.8796
 42
1.8796
 43
1.0000
 50
90.0000
  0
CIRCLE
  8
44
 10
97.7900
 20
27.9400
 30
0.0000
 40
0.5080
  0
INSERT
  8
17
  2
ROUNDP
 10
27.6860
 20
71.1200
 30
0.0000
 41
1.8796
 42
1.8796
 43
1.0000
 50
90.0000
  0
CIRCLE
  8
44
 10
27.6860
 20
71.1200
 30
0.0000
 40
0.5080
  0
INSERT
  8
17
  2
ROUNDP
 10
34.2900
 20
22.8600
 30
0.0000
 41
1.8796
 42
1.8796
 43
1.0000
 50
90.0000
  0
CIRCLE
  8
44
 10
34.2900
 20
22.8600
 30
0.0000
 40
0.5080
  0
INSERT
  8
17
  2
ROUNDP
 10
46.9900
 20
22.8600
 30
0.0000
 41
1.8796
 42
1.8796
 43
1.0000
 50
90.0000
  0
CIRCLE
  8
44
 10
46.9900
 20
22.8600
 30
0.0000
 40
0.5080
  0
INSERT
  8
17
  2
LONGP100
 10
82.5500
 20
41.9100
 30
0.0000
 41
1.5240
 42
1.5240
 43
1.0000
 50
270.0000
  0
CIRCLE
  8
44
 10
82.5500
 20
41.9100
 30
0.0000
 40
0.5080
  0
INSERT
  8
17
  2
LONGP100
 10
80.0100
 20
41.9100
 30
0.0000
 41
1.5240
 42
1.5240
 43
1.0000
 50
270.0000
  0
CIRCLE
  8
44
 10
80.0100
 20
41.9100
 30
0.0000
 40
0.5080
  0
INSERT
  8
17
  2
LONGP100
 10
77.4700
 20
41.9100
 30
0.0000
 41
1.5240
 42
1.5240
 43
1.0000
 50
270.0000
  0
CIRCLE
  8
44
 10
77.4700
 20
41.9100
 30
0.0000
 40
0.5080
  0
INSERT
  8
17
  2
LONGP100
 10
74.9300
 20
41.9100
 30
0.0000
 41
1.5240
 42
1.5240
 43
1.0000
 50
270.0000
  0
CIRCLE
  8
44
 10
74.9300
 20
41.9100
 30
0.0000
 40
0.5080
  0
INSERT
  8
17
  2
LONGP100
 10
72.3900
 20
16.5100
 30
0.0000
 41
1.5240
 42
1.5240
 43
1.0000
 50
90.0000
  0
CIRCLE
  8
44
 10
72.3900
 20
16.5100
 30
0.0000
 40
0.5080
  0
INSERT
  8
17
  2
LONGP100
 10
69.8500
 20
16.5100
 30
0.0000
 41
1.5240
 42
1.5240
 43
1.0000
 50
90.0000
  0
CIRCLE
  8
44
 10
69.8500
 20
16.5100
 30
0.0000
 40
0.5080
  0
INSERT
  8
17
  2
LONGP100
 10
67.3100
 20
16.5100
 30
0.0000
 41
1.5240
 42
1.5240
 43
1.0000
 50
90.0000
  0
CIRCLE
  8
44
 10
67.3100
 20
16.5100
 30
0.0000
 40
0.5080
  0
INSERT
  8
17
  2
LONGP100
 10
64.7700
 20
16.5100
 30
0.0000
 41
1.5240
 42
1.5240
 43
1.0000
 50
90.0000
  0
CIRCLE
  8
44
 10
64.7700
 20
16.5100
 30
0.0000
 40
0.5080
  0
INSERT
  8
17
  2
LONGP100
 10
62.2300
 20
16.5100
 30
0.0000
 41
1.5240
 42
1.5240
 43
1.0000
 50
90.0000
  0
CIRCLE
  8
44
 10
62.2300
 20
16.5100
 30
0.0000
 40
0.5080
  0
INSERT
  8
17
  2
LONGP100
 10
59.6900
 20
16.5100
 30
0.0000
 41
1.5240
 42
1.5240
 43
1.0000
 50
90.0000
  0
CIRCLE
  8
44
 10
59.6900
 20
16.5100
 30
0.0000
 40
0.5080
  0
INSERT
  8
17
  2
LONGP100
 10
57.1500
 20
16.5100
 30
0.0000
 41
1.5240
 42
1.5240
 43
1.0000
 50
90.0000
  0
CIRCLE
  8
44
 10
57.1500
 20
16.5100
 30
0.0000
 40
0.5080
  0
INSERT
  8
17
  2
LONGP100
 10
54.6100
 20
16.5100
 30
0.0000
 41
1.5240
 42
1.5240
 43
1.0000
 50
90.0000
  0
CIRCLE
  8
44
 10
54.6100
 20
16.5100
 30
0.0000
 40
0.5080
  0
INSERT
  8
17
  2
LONGP100
 10
52.0700
 20
16.5100
 30
0.0000
 41
1.5240
 42
1.5240
 43
1.0000
 50
90.0000
  0
CIRCLE
  8
44
 10
52.0700
 20
16.5100
 30
0.0000
 40
0.5080
  0
INSERT
  8
17
  2
LONGP100
 10
85.0900
 20
49.5300
 30
0.0000
 41
1.5240
 42
1.5240
 43
1.0000
 50
90.0000
  0
CIRCLE
  8
44
 10
85.0900
 20
49.5300
 30
0.0000
 40
0.5080
  0
INSERT
  8
17
  2
LONGP100
 10
82.5500
 20
49.5300
 30
0.0000
 41
1.5240
 42
1.5240
 43
1.0000
 50
90.0000
  0
CIRCLE
  8
44
 10
82.5500
 20
49.5300
 30
0.0000
 40
0.5080
  0
INSERT
  8
17
  2
LONGP100
 10
80.0100
 20
49.5300
 30
0.0000
 41
1.5240
 42
1.5240
 43
1.0000
 50
90.0000
  0
CIRCLE
  8
44
 10
80.0100
 20
49.5300
 30
0.0000
 40
0.5080
  0
INSERT
  8
17
  2
LONGP100
 10
77.4700
 20
49.5300
 30
0.0000
 41
1.5240
 42
1.5240
 43
1.0000
 50
90.0000
  0
CIRCLE
  8
44
 10
77.4700
 20
49.5300
 30
0.0000
 40
0.5080
  0
INSERT
  8
17
  2
LONGP100
 10
74.9300
 20
49.5300
 30
0.0000
 41
1.5240
 42
1.5240
 43
1.0000
 50
90.0000
  0
CIRCLE
  8
44
 10
74.9300
 20
49.5300
 30
0.0000
 40
0.5080
  0
INSERT
  8
17
  2
LONGP100
 10
38.1000
 20
66.0400
 30
0.0000
 41
1.5240
 42
1.5240
 43
1.0000
 50
90.0000
  0
CIRCLE
  8
44
 10
38.1000
 20
66.0400
 30
0.0000
 40
0.5080
  0
INSERT
  8
17
  2
LONGP100
 10
40.6400
 20
66.0400
 30
0.0000
 41
1.5240
 42
1.5240
 43
1.0000
 50
90.0000
  0
CIRCLE
  8
44
 10
40.6400
 20
66.0400
 30
0.0000
 40
0.5080
  0
INSERT
  8
17
  2
LONGP100
 10
43.1800
 20
66.0400
 30
0.0000
 41
1.5240
 42
1.5240
 43
1.0000
 50
90.0000
  0
CIRCLE
  8
44
 10
43.1800
 20
66.0400
 30
0.0000
 40
0.5080
  0
INSERT
  8
17
  2
LONGP100
 10
45.7200
 20
66.0400
 30
0.0000
 41
1.5240
 42
1.5240
 43
1.0000
 50
90.0000
  0
CIRCLE
  8
44
 10
45.7200
 20
66.0400
 30
0.0000
 40
0.5080
  0
INSERT
  8
17
  2
LONGP100
 10
54.6100
 20
12.7000
 30
0.0000
 41
1.5240
 42
1.5240
 43
1.0000
 50
90.0000
  0
CIRCLE
  8
44
 10
54.6100
 20
12.7000
 30
0.0000
 40
0.5080
  0
INSERT
  8
17
  2
LONGP100
 10
52.0700
 20
12.7000
 30
0.0000
 41
1.5240
 42
1.5240
 43
1.0000
 50
90.0000
  0
CIRCLE
  8
44
 10
52.0700
 20
12.7000
 30
0.0000
 40
0.5080
  0
INSERT
  8
17
  2
OCTAGONP
 10
26.6700
 20
35.5600
 30
0.0000
 41
1.3208
 42
1.3208
 43
1.0000
 50
0.0000
  0
CIRCLE
  8
44
 10
26.6700
 20
35.5600
 30
0.0000
 40
0.4064
  0
INSERT
  8
17
  2
OCTAGONP
 10
34.2900
 20
35.5600
 30
0.0000
 41
1.3208
 42
1.3208
 43
1.0000
 50
0.0000
  0
CIRCLE
  8
44
 10
34.2900
 20
35.5600
 30
0.0000
 40
0.4064
  0
INSERT
  8
17
  2
OCTAGONP
 10
31.7500
 20
10.1600
 30
0.0000
 41
1.3208
 42
1.3208
 43
1.0000
 50
270.0000
  0
CIRCLE
  8
44
 10
31.7500
 20
10.1600
 30
0.0000
 40
0.4064
  0
INSERT
  8
17
  2
OCTAGONP
 10
31.7500
 20
2.5400
 30
0.0000
 41
1.3208
 42
1.3208
 43
1.0000
 50
270.0000
  0
CIRCLE
  8
44
 10
31.7500
 20
2.5400
 30
0.0000
 40
0.4064
  0
INSERT
  8
17
  2
OCTAGONP
 10
43.1800
 20
26.6700
 30
0.0000
 41
1.3208
 42
1.3208
 43
1.0000
 50
90.0000
  0
CIRCLE
  8
44
 10
43.1800
 20
26.6700
 30
0.0000
 40
0.4064
  0
INSERT
  8
17
  2
OCTAGONP
 10
43.1800
 20
34.2900
 30
0.0000
 41
1.3208
 42
1.3208
 43
1.0000
 50
90.0000
  0
CIRCLE
  8
44
 10
43.1800
 20
34.2900
 30
0.0000
 40
0.4064
  0
INSERT
  8
17
  2
OCTAGONP
 10
40.6400
 20
26.6700
 30
0.0000
 41
1.3208
 42
1.3208
 43
1.0000
 50
90.0000
  0
CIRCLE
  8
44
 10
40.6400
 20
26.6700
 30
0.0000
 40
0.4064
  0
INSERT
  8
17
  2
OCTAGONP
 10
40.6400
 20
34.2900
 30
0.0000
 41
1.3208
 42
1.3208
 43
1.0000
 50
90.0000
  0
CIRCLE
  8
44
 10
40.6400
 20
34.2900
 30
0.0000
 40
0.4064
  0
INSERT
  8
17
  2
OCTAGONP
 10
74.9300
 20
53.3400
 30
0.0000
 41
1.3208
 42
1.3208
 43
1.0000
 50
0.0000
  0
CIRCLE
  8
44
 10
74.9300
 20
53.3400
 30
0.0000
 40
0.4064
  0
INSERT
  8
17
  2
OCTAGONP
 10
82.5500
 20
53.3400
 30
0.0000
 41
1.3208
 42
1.3208
 43
1.0000
 50
0.0000
  0
CIRCLE
  8
44
 10
82.5500
 20
53.3400
 30
0.0000
 40
0.4064
  0
INSERT
  8
17
  2
OCTAGONP
 10
74.9300
 20
45.7200
 30
0.0000
 41
1.3208
 42
1.3208
 43
1.0000
 50
0.0000
  0
CIRCLE
  8
44
 10
74.9300
 20
45.7200
 30
0.0000
 40
0.4064
  0
INSERT
  8
17
  2
OCTAGONP
 10
82.5500
 20
45.7200
 30
0.0000
 41
1.3208
 42
1.3208
 43
1.0000
 50
0.0000
  0
CIRCLE
  8
44
 10
82.5500
 20
45.7200
 30
0.0000
 40
0.4064
  0
INSERT
  8
17
  2
OCTAGONP
 10
25.4000
 20
63.5000
 30
0.0000
 41
1.3208
 42
1.3208
 43
1.0000
 50
0.0000
  0
CIRCLE
  8
44
 10
25.4000
 20
63.5000
 30
0.0000
 40
0.4064
  0
INSERT
  8
17
  2
OCTAGONP
 10
33.0200
 20
63.5000
 30
0.0000
 41
1.3208
 42
1.3208
 43
1.0000
 50
0.0000
  0
CIRCLE
  8
44
 10
33.0200
 20
63.5000
 30
0.0000
 40
0.4064
  0
INSERT
  8
17
  2
OCTAGONP
 10
25.4000
 20
66.0400
 30
0.0000
 41
1.3208
 42
1.3208
 43
1.0000
 50
0.0000
  0
CIRCLE
  8
44
 10
25.4000
 20
66.0400
 30
0.0000
 40
0.4064
  0
INSERT
  8
17
  2
OCTAGONP
 10
33.0200
 20
66.0400
 30
0.0000
 41
1.3208
 42
1.3208
 43
1.0000
 50
0.0000
  0
CIRCLE
  8
44
 10
33.0200
 20
66.0400
 30
0.0000
 40
0.4064
  0
CIRCLE
  8
20
 10
55.8800
 20
52.0700
 30
0.0000
 40
1.6510
  0
CIRCLE
  8
20
 10
31.7500
 20
48.2600
 30
0.0000
 40
1.6510
  0
INSERT
  8
17
  2
ROUNDP
 10
24.1300
 20
55.8800
 30
0.0000
 41
1.8796
 42
1.8796
 43
1.0000
 50
0.0000
  0
CIRCLE
  8
44
 10
24.1300
 20
55.8800
 30
0.0000
 40
0.5080
  0
INSERT
  8
17
  2
ROUNDP
 10
26.6700
 20
55.8800
 30
0.0000
 41
1.8796
 42
1.8796
 43
1.0000
 50
0.0000
  0
CIRCLE
  8
44
 10
26.6700
 20
55.8800
 30
0.0000
 40
0.5080
  0
INSERT
  8
17
  2
ROUNDP
 10
31.7500
 20
55.8800
 30
0.0000
 41
1.8796
 42
1.8796
 43
1.0000
 50
0.0000
  0
CIRCLE
  8
44
 10
31.7500
 20
55.8800
 30
0.0000
 40
0.5080
  0
INSERT
  8
17
  2
ROUNDP
 10
29.2100
 20
55.8800
 30
0.0000
 41
1.8796
 42
1.8796
 43
1.0000
 50
0.0000
  0
CIRCLE
  8
44
 10
29.2100
 20
55.8800
 30
0.0000
 40
0.5080
  0
INSERT
  8
17
  2
ROUNDP
 10
62.2300
 20
40.6400
 30
0.0000
 41
1.8796
 42
1.8796
 43
1.0000
 50
0.0000
  0
CIRCLE
  8
44
 10
62.2300
 20
40.6400
 30
0.0000
 40
0.5080
  0
INSERT
  8
17
  2
ROUNDP
 10
49.5300
 20
55.8800
 30
0.0000
 41
1.8796
 42
1.8796
 43
1.0000
 50
0.0000
  0
CIRCLE
  8
44
 10
49.5300
 20
55.8800
 30
0.0000
 40
0.5080
  0
INSERT
  8
17
  2
ROUNDP
 10
59.6900
 20
55.8800
 30
0.0000
 41
1.8796
 42
1.8796
 43
1.0000
 50
0.0000
  0
CIRCLE
  8
44
 10
59.6900
 20
55.8800
 30
0.0000
 40
0.5080
  0
INSERT
  8
17
  2
ROUNDP
 10
57.1500
 20
40.6400
 30
0.0000
 41
1.8796
 42
1.8796
 43
1.0000
 50
0.0000
  0
CIRCLE
  8
44
 10
57.1500
 20
40.6400
 30
0.0000
 40
0.5080
  0
INSERT
  8
17
  2
ROUNDP
 10
24.1300
 20
40.6400
 30
0.0000
 41
1.8796
 42
1.8796
 43
1.0000
 50
0.0000
  0
CIRCLE
  8
44
 10
24.1300
 20
40.6400
 30
0.0000
 40
0.5080
  0
INSERT
  8
17
  2
ROUNDP
 10
62.2300
 20
55.8800
 30
0.0000
 41
1.8796
 42
1.8796
 43
1.0000
 50
0.0000
  0
CIRCLE
  8
44
 10
62.2300
 20
55.8800
 30
0.0000
 40
0.5080
  0
INSERT
  8
17
  2
ROUNDP
 10
39.3700
 20
40.6400
 30
0.0000
 41
1.8796
 42
1.8796
 43
1.0000
 50
0.0000
  0
CIRCLE
  8
44
 10
39.3700
 20
40.6400
 30
0.0000
 40
0.5080
  0
INSERT
  8
17
  2
ROUNDP
 10
52.0700
 20
55.8800
 30
0.0000
 41
1.8796
 42
1.8796
 43
1.0000
 50
0.0000
  0
CIRCLE
  8
44
 10
52.0700
 20
55.8800
 30
0.0000
 40
0.5080
  0
INSERT
  8
17
  2
ROUNDP
 10
26.6700
 20
40.6400
 30
0.0000
 41
1.8796
 42
1.8796
 43
1.0000
 50
0.0000
  0
CIRCLE
  8
44
 10
26.6700
 20
40.6400
 30
0.0000
 40
0.5080
  0
INSERT
  8
17
  2
ROUNDP
 10
36.8300
 20
55.8800
 30
0.0000
 41
1.8796
 42
1.8796
 43
1.0000
 50
0.0000
  0
CIRCLE
  8
44
 10
36.8300
 20
55.8800
 30
0.0000
 40
0.5080
  0
INSERT
  8
17
  2
ROUNDP
 10
39.3700
 20
55.8800
 30
0.0000
 41
1.8796
 42
1.8796
 43
1.0000
 50
0.0000
  0
CIRCLE
  8
44
 10
39.3700
 20
55.8800
 30
0.0000
 40
0.5080
  0
INSERT
  8
17
  2
ROUNDP
 10
36.8300
 20
40.6400
 30
0.0000
 41
1.8796
 42
1.8796
 43
1.0000
 50
0.0000
  0
CIRCLE
  8
44
 10
36.8300
 20
40.6400
 30
0.0000
 40
0.5080
  0
INSERT
  8
17
  2
ROUNDP
 10
59.6900
 20
40.6400
 30
0.0000
 41
1.8796
 42
1.8796
 43
1.0000
 50
0.0000
  0
CIRCLE
  8
44
 10
59.6900
 20
40.6400
 30
0.0000
 40
0.5080
  0
CIRCLE
  8
20
 10
39.3700
 20
13.9700
 30
0.0000
 40
1.6510
  0
CIRCLE
  8
20
 10
15.2400
 20
10.1600
 30
0.0000
 40
1.6510
  0
INSERT
  8
17
  2
ROUNDP
 10
7.6200
 20
17.7800
 30
0.0000
 41
1.8796
 42
1.8796
 43
1.0000
 50
0.0000
  0
CIRCLE
  8
44
 10
7.6200
 20
17.7800
 30
0.0000
 40
0.5080
  0
INSERT
  8
17
  2
ROUNDP
 10
10.1600
 20
17.7800
 30
0.0000
 41
1.8796
 42
1.8796
 43
1.0000
 50
0.0000
  0
CIRCLE
  8
44
 10
10.1600
 20
17.7800
 30
0.0000
 40
0.5080
  0
INSERT
  8
17
  2
ROUNDP
 10
15.2400
 20
17.7800
 30
0.0000
 41
1.8796
 42
1.8796
 43
1.0000
 50
0.0000
  0
CIRCLE
  8
44
 10
15.2400
 20
17.7800
 30
0.0000
 40
0.5080
  0
INSERT
  8
17
  2
ROUNDP
 10
12.7000
 20
17.7800
 30
0.0000
 41
1.8796
 42
1.8796
 43
1.0000
 50
0.0000
  0
CIRCLE
  8
44
 10
12.7000
 20
17.7800
 30
0.0000
 40
0.5080
  0
INSERT
  8
17
  2
ROUNDP
 10
45.7200
 20
2.5400
 30
0.0000
 41
1.8796
 42
1.8796
 43
1.0000
 50
0.0000
  0
CIRCLE
  8
44
 10
45.7200
 20
2.5400
 30
0.0000
 40
0.5080
  0
INSERT
  8
17
  2
ROUNDP
 10
33.0200
 20
17.7800
 30
0.0000
 41
1.8796
 42
1.8796
 43
1.0000
 50
0.0000
  0
CIRCLE
  8
44
 10
33.0200
 20
17.7800
 30
0.0000
 40
0.5080
  0
INSERT
  8
17
  2
ROUNDP
 10
43.1800
 20
17.7800
 30
0.0000
 41
1.8796
 42
1.8796
 43
1.0000
 50
0.0000
  0
CIRCLE
  8
44
 10
43.1800
 20
17.7800
 30
0.0000
 40
0.5080
  0
INSERT
  8
17
  2
ROUNDP
 10
40.6400
 20
2.5400
 30
0.0000
 41
1.8796
 42
1.8796
 43
1.0000
 50
0.0000
  0
CIRCLE
  8
44
 10
40.6400
 20
2.5400
 30
0.0000
 40
0.5080
  0
INSERT
  8
17
  2
ROUNDP
 10
7.6200
 20
2.5400
 30
0.0000
 41
1.8796
 42
1.8796
 43
1.0000
 50
0.0000
  0
CIRCLE
  8
44
 10
7.6200
 20
2.5400
 30
0.0000
 40
0.5080
  0
INSERT
  8
17
  2
ROUNDP
 10
45.7200
 20
17.7800
 30
0.0000
 41
1.8796
 42
1.8796
 43
1.0000
 50
0.0000
  0
CIRCLE
  8
44
 10
45.7200
 20
17.7800
 30
0.0000
 40
0.5080
  0
INSERT
  8
17
  2
ROUNDP
 10
22.8600
 20
2.5400
 30
0.0000
 41
1.8796
 42
1.8796
 43
1.0000
 50
0.0000
  0
CIRCLE
  8
44
 10
22.8600
 20
2.5400
 30
0.0000
 40
0.5080
  0
INSERT
  8
17
  2
ROUNDP
 10
35.5600
 20
17.7800
 30
0.0000
 41
1.8796
 42
1.8796
 43
1.0000
 50
0.0000
  0
CIRCLE
  8
44
 10
35.5600
 20
17.7800
 30
0.0000
 40
0.5080
  0
INSERT
  8
17
  2
ROUNDP
 10
10.1600
 20
2.5400
 30
0.0000
 41
1.8796
 42
1.8796
 43
1.0000
 50
0.0000
  0
CIRCLE
  8
44
 10
10.1600
 20
2.5400
 30
0.0000
 40
0.5080
  0
INSERT
  8
17
  2
ROUNDP
 10
20.3200
 20
17.7800
 30
0.0000
 41
1.8796
 42
1.8796
 43
1.0000
 50
0.0000
  0
CIRCLE
  8
44
 10
20.3200
 20
17.7800
 30
0.0000
 40
0.5080
  0
INSERT
  8
17
  2
ROUNDP
 10
22.8600
 20
17.7800
 30
0.0000
 41
1.8796
 42
1.8796
 43
1.0000
 50
0.0000
  0
CIRCLE
  8
44
 10
22.8600
 20
17.7800
 30
0.0000
 40
0.5080
  0
INSERT
  8
17
  2
ROUNDP
 10
20.3200
 20
2.5400
 30
0.0000
 41
1.8796
 42
1.8796
 43
1.0000
 50
0.0000
  0
CIRCLE
  8
44
 10
20.3200
 20
2.5400
 30
0.0000
 40
0.5080
  0
INSERT
  8
17
  2
ROUNDP
 10
43.1800
 20
2.5400
 30
0.0000
 41
1.8796
 42
1.8796
 43
1.0000
 50
0.0000
  0
CIRCLE
  8
44
 10
43.1800
 20
2.5400
 30
0.0000
 40
0.5080
  0
INSERT
  8
17
  2
LONGP100
 10
10.1600
 20
71.0946
 30
0.0000
 41
1.9812
 42
1.9812
 43
1.0000
 50
0.0000
  0
CIRCLE
  8
44
 10
10.1600
 20
71.0946
 30
0.0000
 40
0.6604
  0
INSERT
  8
17
  2
LONGP100
 10
10.1600
 20
66.0908
 30
0.0000
 41
1.9812
 42
1.9812
 43
1.0000
 50
0.0000
  0
CIRCLE
  8
44
 10
10.1600
 20
66.0908
 30
0.0000
 40
0.6604
  0
INSERT
  8
17
  2
LONGP100
 10
10.1600
 20
59.5630
 30
0.0000
 41
1.9812
 42
1.9812
 43
1.0000
 50
0.0000
  0
CIRCLE
  8
44
 10
10.1600
 20
59.5630
 30
0.0000
 40
0.6604
  0
INSERT
  8
17
  2
LONGP100
 10
10.1600
 20
54.5846
 30
0.0000
 41
1.9812
 42
1.9812
 43
1.0000
 50
0.0000
  0
CIRCLE
  8
44
 10
10.1600
 20
54.5846
 30
0.0000
 40
0.6604
  0
INSERT
  8
17
  2
LONGP100
 10
10.1600
 20
49.5554
 30
0.0000
 41
1.9812
 42
1.9812
 43
1.0000
 50
0.0000
  0
CIRCLE
  8
44
 10
10.1600
 20
49.5554
 30
0.0000
 40
0.6604
  0
INSERT
  8
17
  2
LONGP100
 10
10.1600
 20
44.5770
 30
0.0000
 41
1.9812
 42
1.9812
 43
1.0000
 50
0.0000
  0
CIRCLE
  8
44
 10
10.1600
 20
44.5770
 30
0.0000
 40
0.6604
  0
INSERT
  8
17
  2
LONGP100
 10
10.1600
 20
39.2430
 30
0.0000
 41
1.9812
 42
1.9812
 43
1.0000
 50
0.0000
  0
CIRCLE
  8
44
 10
10.1600
 20
39.2430
 30
0.0000
 40
0.6604
  0
INSERT
  8
17
  2
LONGP100
 10
10.1600
 20
34.2646
 30
0.0000
 41
1.9812
 42
1.9812
 43
1.0000
 50
0.0000
  0
CIRCLE
  8
44
 10
10.1600
 20
34.2646
 30
0.0000
 40
0.6604
  0
INSERT
  8
17
  2
LONGP100
 10
10.1600
 20
29.2354
 30
0.0000
 41
1.9812
 42
1.9812
 43
1.0000
 50
0.0000
  0
CIRCLE
  8
44
 10
10.1600
 20
29.2354
 30
0.0000
 40
0.6604
  0
INSERT
  8
17
  2
LONGP100
 10
10.1600
 20
24.2570
 30
0.0000
 41
1.9812
 42
1.9812
 43
1.0000
 50
0.0000
  0
CIRCLE
  8
44
 10
10.1600
 20
24.2570
 30
0.0000
 40
0.6604
  0
POLYLINE
  8
16
 66
1
 10
0.0000
 20
0.0000
 30
0.0000
 40
0.0000
 41
0.0000
 70
1
  0
VERTEX
  8
16
 10
45.7200
 20
66.8020
 30
0.0000
  0
VERTEX
  8
16
 10
43.4340
 20
66.8020
 30
0.0000
 42
1.0000
  0
VERTEX
  8
16
 10
43.4340
 20
65.7860
 30
0.0000
  0
VERTEX
  8
16
 10
45.7200
 20
65.7860
 30
0.0000
 42
1.0000
  0
SEQEND
  8
0
  0
POLYLINE
  8
16
 66
1
 10
0.0000
 20
0.0000
 30
0.0000
 40
0.0000
 41
0.0000
 70
1
  0
VERTEX
  8
16
 10
43.0748
 20
66.6532
 30
0.0000
  0
VERTEX
  8
16
 10
42.8208
 20
66.3992
 30
0.0000
 42
1.0000
  0
VERTEX
  8
16
 10
43.5392
 20
65.6808
 30
0.0000
  0
VERTEX
  8
16
 10
43.7932
 20
65.9348
 30
0.0000
 42
1.0000
  0
SEQEND
  8
0
  0
POLYLINE
  8
16
 66
1
 10
0.0000
 20
0.0000
 30
0.0000
 40
0.0000
 41
0.0000
 70
1
  0
VERTEX
  8
16
 10
45.2120
 20
66.2940
 30
0.0000
  0
VERTEX
  8
16
 10
45.2120
 20
66.0400
 30
0.0000
 42
1.0000
  0
VERTEX
  8
16
 10
46.2280
 20
66.0400
 30
0.0000
  0
VERTEX
  8
16
 10
46.2280
 20
66.2940
 30
0.0000
 42
1.0000
  0
SEQEND
  8
0
  0
POLYLINE
  8
16
 66
1
 10
0.0000
 20
0.0000
 30
0.0000
 40
0.0000
 41
0.0000
 70
1
  0
VERTEX
  8
16
 10
39.1160
 20
61.7220
 30
0.0000
  0
VERTEX
  8
16
 10
39.1160
 20
56.3880
 30
0.0000
 42
1.0000
  0
VERTEX
  8
16
 10
40.1320
 20
56.3880
 30
0.0000
  0
VERTEX
  8
16
 10
40.1320
 20
61.7220
 30
0.0000
 42
1.0000
  0
SEQEND
  8
0
  0
POLYLINE
  8
16
 66
1
 10
0.0000
 20
0.0000
 30
0.0000
 40
0.0000
 41
0.0000
 70
1
  0
VERTEX
  8
16
 10
43.0748
 20
65.8912
 30
0.0000
  0
VERTEX
  8
16
 10
39.2648
 20
62.0812
 30
0.0000
 42
1.0000
  0
VERTEX
  8
16
 10
39.9832
 20
61.3628
 30
0.0000
  0
VERTEX
  8
16
 10
43.7932
 20
65.1728
 30
0.0000
 42
1.0000
  0
SEQEND
  8
0
  0
POLYLINE
  8
16
 66
1
 10
0.0000
 20
0.0000
 30
0.0000
 40
0.0000
 41
0.0000
 70
1
  0
VERTEX
  8
16
 10
39.1696
 20
56.6152
 30
0.0000
  0
VERTEX
  8
16
 10
38.9156
 20
56.1072
 30
0.0000
 42
1.0000
  0
VERTEX
  8
16
 10
39.8244
 20
55.6528
 30
0.0000
  0
VERTEX
  8
16
 10
40.0784
 20
56.1608
 30
0.0000
 42
1.0000
  0
SEQEND
  8
0
  0
POLYLINE
  8
16
 66
1
 10
0.0000
 20
0.0000
 30
0.0000
 40
0.0000
 41
0.0000
 70
1
  0
VERTEX
  8
16
 10
43.8884
 20
65.7592
 30
0.0000
  0
VERTEX
  8
16
 10
43.6344
 20
66.2672
 30
0.0000
 42
1.0000
  0
VERTEX
  8
16
 10
42.7256
 20
65.8128
 30
0.0000
  0
VERTEX
  8
16
 10
42.9796
 20
65.3048
 30
0.0000
 42
1.0000
  0
SEQEND
  8
0
  0
POLYLINE
  8
16
 66
1
 10
0.0000
 20
0.0000
 30
0.0000
 40
0.0000
 41
0.0000
 70
1
  0
VERTEX
  8
16
 10
82.5500
 20
49.5300
 30
0.0000
  0
VERTEX
  8
16
 10
82.5500
 20
45.7200
 30
0.0000
 42
1.0000
  0
VERTEX
  8
16
 10
83.5660
 20
45.7200
 30
0.0000
  0
VERTEX
  8
16
 10
83.5660
 20
49.5300
 30
0.0000
 42
1.0000
  0
SEQEND
  8
0
  0
POLYLINE
  8
16
 66
1
 10
0.0000
 20
0.0000
 30
0.0000
 40
0.0000
 41
0.0000
 70
1
  0
VERTEX
  8
16
 10
83.5660
 20
49.5300
 30
0.0000
  0
VERTEX
  8
16
 10
83.5660
 20
53.3400
 30
0.0000
 42
1.0000
  0
VERTEX
  8
16
 10
82.5500
 20
53.3400
 30
0.0000
  0
VERTEX
  8
16
 10
82.5500
 20
49.5300
 30
0.0000
 42
1.0000
  0
SEQEND
  8
0
  0
POLYLINE
  8
16
 66
1
 10
0.0000
 20
0.0000
 30
0.0000
 40
0.0000
 41
0.0000
 70
1
  0
VERTEX
  8
16
 10
83.0580
 20
53.8480
 30
0.0000
  0
VERTEX
  8
16
 10
82.5500
 20
53.8480
 30
0.0000
 42
1.0000
  0
VERTEX
  8
16
 10
82.5500
 20
52.8320
 30
0.0000
  0
VERTEX
  8
16
 10
83.0580
 20
52.8320
 30
0.0000
 42
1.0000
  0
SEQEND
  8
0
  0
POLYLINE
  8
16
 66
1
 10
0.0000
 20
0.0000
 30
0.0000
 40
0.0000
 41
0.0000
 70
1
  0
VERTEX
  8
16
 10
82.5500
 20
45.7200
 30
0.0000
  0
VERTEX
  8
16
 10
82.5500
 20
41.9100
 30
0.0000
 42
1.0000
  0
VERTEX
  8
16
 10
83.5660
 20
41.9100
 30
0.0000
  0
VERTEX
  8
16
 10
83.5660
 20
45.7200
 30
0.0000
 42
1.0000
  0
SEQEND
  8
0
  0
POLYLINE
  8
16
 66
1
 10
0.0000
 20
0.0000
 30
0.0000
 40
0.0000
 41
0.0000
 70
1
  0
VERTEX
  8
16
 10
83.0580
 20
42.4180
 30
0.0000
  0
VERTEX
  8
16
 10
82.5500
 20
42.4180
 30
0.0000
 42
1.0000
  0
VERTEX
  8
16
 10
82.5500
 20
41.4020
 30
0.0000
  0
VERTEX
  8
16
 10
83.0580
 20
41.4020
 30
0.0000
 42
1.0000
  0
SEQEND
  8
0
  0
POLYLINE
  8
16
 66
1
 10
0.0000
 20
0.0000
 30
0.0000
 40
0.0000
 41
0.0000
 70
1
  0
VERTEX
  8
16
 10
83.0580
 20
46.2280
 30
0.0000
  0
VERTEX
  8
16
 10
82.5500
 20
46.2280
 30
0.0000
 42
1.0000
  0
VERTEX
  8
16
 10
82.5500
 20
45.2120
 30
0.0000
  0
VERTEX
  8
16
 10
83.0580
 20
45.2120
 30
0.0000
 42
1.0000
  0
SEQEND
  8
0
  0
POLYLINE
  8
16
 66
1
 10
0.0000
 20
0.0000
 30
0.0000
 40
0.0000
 41
0.0000
 70
1
  0
VERTEX
  8
16
 10
83.0580
 20
49.0220
 30
0.0000
  0
VERTEX
  8
16
 10
85.0900
 20
49.0220
 30
0.0000
 42
1.0000
  0
VERTEX
  8
16
 10
85.0900
 20
50.0380
 30
0.0000
  0
VERTEX
  8
16
 10
83.0580
 20
50.0380
 30
0.0000
 42
1.0000
  0
SEQEND
  8
0
  0
POLYLINE
  8
16
 66
1
 10
0.0000
 20
0.0000
 30
0.0000
 40
0.0000
 41
0.0000
 70
1
  0
VERTEX
  8
16
 10
83.0580
 20
50.0380
 30
0.0000
  0
VERTEX
  8
16
 10
82.5500
 20
50.0380
 30
0.0000
 42
1.0000
  0
VERTEX
  8
16
 10
82.5500
 20
49.0220
 30
0.0000
  0
VERTEX
  8
16
 10
83.0580
 20
49.0220
 30
0.0000
 42
1.0000
  0
SEQEND
  8
0
  0
POLYLINE
  8
16
 66
1
 10
0.0000
 20
0.0000
 30
0.0000
 40
0.0000
 41
0.0000
 70
1
  0
VERTEX
  8
16
 10
22.5008
 20
17.9288
 30
0.0000
  0
VERTEX
  8
16
 10
30.8828
 20
9.5468
 30
0.0000
 42
1.0000
  0
VERTEX
  8
16
 10
31.6012
 20
10.2652
 30
0.0000
  0
VERTEX
  8
16
 10
23.2192
 20
18.6472
 30
0.0000
 42
1.0000
  0
SEQEND
  8
0
  0
POLYLINE
  8
16
 66
1
 10
0.0000
 20
0.0000
 30
0.0000
 40
0.0000
 41
0.0000
 70
1
  0
VERTEX
  8
16
 10
31.4692
 20
9.4516
 30
0.0000
  0
VERTEX
  8
16
 10
31.9772
 20
9.7056
 30
0.0000
 42
1.0000
  0
VERTEX
  8
16
 10
31.5228
 20
10.6144
 30
0.0000
  0
VERTEX
  8
16
 10
31.0148
 20
10.3604
 30
0.0000
 42
1.0000
  0
SEQEND
  8
0
  0
POLYLINE
  8
16
 66
1
 10
0.0000
 20
0.0000
 30
0.0000
 40
0.0000
 41
0.0000
 70
1
  0
VERTEX
  8
16
 10
27.1780
 20
22.0980
 30
0.0000
  0
VERTEX
  8
16
 10
27.1780
 20
35.5600
 30
0.0000
 42
1.0000
  0
VERTEX
  8
16
 10
26.1620
 20
35.5600
 30
0.0000
  0
VERTEX
  8
16
 10
26.1620
 20
22.0980
 30
0.0000
 42
1.0000
  0
SEQEND
  8
0
  0
POLYLINE
  8
16
 66
1
 10
0.0000
 20
0.0000
 30
0.0000
 40
0.0000
 41
0.0000
 70
1
  0
VERTEX
  8
16
 10
23.2192
 20
17.9288
 30
0.0000
  0
VERTEX
  8
16
 10
27.0292
 20
21.7388
 30
0.0000
 42
1.0000
  0
VERTEX
  8
16
 10
26.3108
 20
22.4572
 30
0.0000
  0
VERTEX
  8
16
 10
22.5008
 20
18.6472
 30
0.0000
 42
1.0000
  0
SEQEND
  8
0
  0
POLYLINE
  8
16
 66
1
 10
0.0000
 20
0.0000
 30
0.0000
 40
0.0000
 41
0.0000
 70
1
  0
VERTEX
  8
16
 10
22.3520
 20
18.2880
 30
0.0000
  0
VERTEX
  8
16
 10
22.3520
 20
17.7800
 30
0.0000
 42
1.0000
  0
VERTEX
  8
16
 10
23.3680
 20
17.7800
 30
0.0000
  0
VERTEX
  8
16
 10
23.3680
 20
18.2880
 30
0.0000
 42
1.0000
  0
SEQEND
  8
0
  0
POLYLINE
  8
16
 66
1
 10
0.0000
 20
0.0000
 30
0.0000
 40
0.0000
 41
0.0000
 70
1
  0
VERTEX
  8
16
 10
42.6720
 20
11.6840
 30
0.0000
  0
VERTEX
  8
16
 10
49.5300
 20
11.6840
 30
0.0000
 42
1.0000
  0
VERTEX
  8
16
 10
49.5300
 20
12.7000
 30
0.0000
  0
VERTEX
  8
16
 10
42.6720
 20
12.7000
 30
0.0000
 42
1.0000
  0
SEQEND
  8
0
  0
POLYLINE
  8
16
 66
1
 10
0.0000
 20
0.0000
 30
0.0000
 40
0.0000
 41
0.0000
 70
1
  0
VERTEX
  8
16
 10
49.5300
 20
11.6840
 30
0.0000
  0
VERTEX
  8
16
 10
51.8160
 20
11.6840
 30
0.0000
 42
1.0000
  0
VERTEX
  8
16
 10
51.8160
 20
12.7000
 30
0.0000
  0
VERTEX
  8
16
 10
49.5300
 20
12.7000
 30
0.0000
 42
1.0000
  0
SEQEND
  8
0
  0
POLYLINE
  8
16
 66
1
 10
0.0000
 20
0.0000
 30
0.0000
 40
0.0000
 41
0.0000
 70
1
  0
VERTEX
  8
16
 10
41.5072
 20
10.3088
 30
0.0000
  0
VERTEX
  8
16
 10
43.0312
 20
11.8328
 30
0.0000
 42
1.0000
  0
VERTEX
  8
16
 10
42.3128
 20
12.5512
 30
0.0000
  0
VERTEX
  8
16
 10
40.7888
 20
11.0272
 30
0.0000
 42
1.0000
  0
SEQEND
  8
0
  0
POLYLINE
  8
16
 66
1
 10
0.0000
 20
0.0000
 30
0.0000
 40
0.0000
 41
0.0000
 70
1
  0
VERTEX
  8
16
 10
32.0040
 20
10.1600
 30
0.0000
  0
VERTEX
  8
16
 10
41.1480
 20
10.1600
 30
0.0000
 42
1.0000
  0
VERTEX
  8
16
 10
41.1480
 20
11.1760
 30
0.0000
  0
VERTEX
  8
16
 10
32.0040
 20
11.1760
 30
0.0000
 42
1.0000
  0
SEQEND
  8
0
  0
POLYLINE
  8
16
 66
1
 10
0.0000
 20
0.0000
 30
0.0000
 40
0.0000
 41
0.0000
 70
1
  0
VERTEX
  8
16
 10
52.2704
 20
11.9648
 30
0.0000
  0
VERTEX
  8
16
 10
52.5244
 20
12.4728
 30
0.0000
 42
1.0000
  0
VERTEX
  8
16
 10
51.6156
 20
12.9272
 30
0.0000
  0
VERTEX
  8
16
 10
51.3616
 20
12.4192
 30
0.0000
 42
1.0000
  0
SEQEND
  8
0
  0
POLYLINE
  8
16
 66
1
 10
0.0000
 20
0.0000
 30
0.0000
 40
0.0000
 41
0.0000
 70
1
  0
VERTEX
  8
16
 10
31.5496
 20
10.8952
 30
0.0000
  0
VERTEX
  8
16
 10
31.2956
 20
10.3872
 30
0.0000
 42
1.0000
  0
VERTEX
  8
16
 10
32.2044
 20
9.9328
 30
0.0000
  0
VERTEX
  8
16
 10
32.4584
 20
10.4408
 30
0.0000
 42
1.0000
  0
SEQEND
  8
0
  0
POLYLINE
  8
16
 66
1
 10
0.0000
 20
0.0000
 30
0.0000
 40
0.0000
 41
0.0000
 70
1
  0
VERTEX
  8
16
 10
37.8460
 20
21.3360
 30
0.0000
  0
VERTEX
  8
16
 10
37.8460
 20
22.8600
 30
0.0000
 42
1.0000
  0
VERTEX
  8
16
 10
36.8300
 20
22.8600
 30
0.0000
  0
VERTEX
  8
16
 10
36.8300
 20
21.3360
 30
0.0000
 42
1.0000
  0
SEQEND
  8
0
  0
POLYLINE
  8
16
 66
1
 10
0.0000
 20
0.0000
 30
0.0000
 40
0.0000
 41
0.0000
 70
1
  0
VERTEX
  8
16
 10
41.5072
 20
17.8852
 30
0.0000
  0
VERTEX
  8
16
 10
37.6972
 20
21.6952
 30
0.0000
 42
1.0000
  0
VERTEX
  8
16
 10
36.9788
 20
20.9768
 30
0.0000
  0
VERTEX
  8
16
 10
40.7888
 20
17.1668
 30
0.0000
 42
1.0000
  0
SEQEND
  8
0
  0
POLYLINE
  8
16
 66
1
 10
0.0000
 20
0.0000
 30
0.0000
 40
0.0000
 41
0.0000
 70
1
  0
VERTEX
  8
16
 10
41.6560
 20
16.7640
 30
0.0000
  0
VERTEX
  8
16
 10
41.6560
 20
17.5260
 30
0.0000
 42
1.0000
  0
VERTEX
  8
16
 10
40.6400
 20
17.5260
 30
0.0000
  0
VERTEX
  8
16
 10
40.6400
 20
16.7640
 30
0.0000
 42
1.0000
  0
SEQEND
  8
0
  0
POLYLINE
  8
16
 66
1
 10
0.0000
 20
0.0000
 30
0.0000
 40
0.0000
 41
0.0000
 70
1
  0
VERTEX
  8
16
 10
43.0312
 20
15.5992
 30
0.0000
  0
VERTEX
  8
16
 10
41.5072
 20
17.1232
 30
0.0000
 42
1.0000
  0
VERTEX
  8
16
 10
40.7888
 20
16.4048
 30
0.0000
  0
VERTEX
  8
16
 10
42.3128
 20
14.8808
 30
0.0000
 42
1.0000
  0
SEQEND
  8
0
  0
POLYLINE
  8
16
 66
1
 10
0.0000
 20
0.0000
 30
0.0000
 40
0.0000
 41
0.0000
 70
1
  0
VERTEX
  8
16
 10
43.1800
 20
12.1920
 30
0.0000
  0
VERTEX
  8
16
 10
43.1800
 20
15.2400
 30
0.0000
 42
1.0000
  0
VERTEX
  8
16
 10
42.1640
 20
15.2400
 30
0.0000
  0
VERTEX
  8
16
 10
42.1640
 20
12.1920
 30
0.0000
 42
1.0000
  0
SEQEND
  8
0
  0
POLYLINE
  8
16
 66
1
 10
0.0000
 20
0.0000
 30
0.0000
 40
0.0000
 41
0.0000
 70
1
  0
VERTEX
  8
16
 10
37.3380
 20
23.3680
 30
0.0000
  0
VERTEX
  8
16
 10
36.8300
 20
23.3680
 30
0.0000
 42
1.0000
  0
VERTEX
  8
16
 10
36.8300
 20
22.3520
 30
0.0000
  0
VERTEX
  8
16
 10
37.3380
 20
22.3520
 30
0.0000
 42
1.0000
  0
SEQEND
  8
0
  0
POLYLINE
  8
16
 66
1
 10
0.0000
 20
0.0000
 30
0.0000
 40
0.0000
 41
0.0000
 70
1
  0
VERTEX
  8
16
 10
82.8040
 20
40.3860
 30
0.0000
  0
VERTEX
  8
16
 10
82.8040
 20
41.9100
 30
0.0000
 42
1.0000
  0
VERTEX
  8
16
 10
81.7880
 20
41.9100
 30
0.0000
  0
VERTEX
  8
16
 10
81.7880
 20
40.3860
 30
0.0000
 42
1.0000
  0
SEQEND
  8
0
  0
POLYLINE
  8
16
 66
1
 10
0.0000
 20
0.0000
 30
0.0000
 40
0.0000
 41
0.0000
 70
1
  0
VERTEX
  8
16
 10
73.5112
 20
30.8828
 30
0.0000
  0
VERTEX
  8
16
 10
82.6552
 20
40.0268
 30
0.0000
 42
1.0000
  0
VERTEX
  8
16
 10
81.9368
 20
40.7452
 30
0.0000
  0
VERTEX
  8
16
 10
72.7928
 20
31.6012
 30
0.0000
 42
1.0000
  0
SEQEND
  8
0
  0
POLYLINE
  8
16
 66
1
 10
0.0000
 20
0.0000
 30
0.0000
 40
0.0000
 41
0.0000
 70
1
  0
VERTEX
  8
16
 10
57.1500
 20
30.7340
 30
0.0000
  0
VERTEX
  8
16
 10
73.1520
 20
30.7340
 30
0.0000
 42
1.0000
  0
VERTEX
  8
16
 10
73.1520
 20
31.7500
 30
0.0000
  0
VERTEX
  8
16
 10
57.1500
 20
31.7500
 30
0.0000
 42
1.0000
  0
SEQEND
  8
0
  0
POLYLINE
  8
16
 66
1
 10
0.0000
 20
0.0000
 30
0.0000
 40
0.0000
 41
0.0000
 70
1
  0
VERTEX
  8
16
 10
49.8892
 20
23.2628
 30
0.0000
  0
VERTEX
  8
16
 10
57.5092
 20
30.8828
 30
0.0000
 42
1.0000
  0
VERTEX
  8
16
 10
56.7908
 20
31.6012
 30
0.0000
  0
VERTEX
  8
16
 10
49.1708
 20
23.9812
 30
0.0000
 42
1.0000
  0
SEQEND
  8
0
  0
POLYLINE
  8
16
 66
1
 10
0.0000
 20
0.0000
 30
0.0000
 40
0.0000
 41
0.0000
 70
1
  0
VERTEX
  8
16
 10
50.0380
 20
12.1920
 30
0.0000
  0
VERTEX
  8
16
 10
50.0380
 20
23.6220
 30
0.0000
 42
1.0000
  0
VERTEX
  8
16
 10
49.0220
 20
23.6220
 30
0.0000
  0
VERTEX
  8
16
 10
49.0220
 20
12.1920
 30
0.0000
 42
1.0000
  0
SEQEND
  8
0
  0
POLYLINE
  8
16
 66
1
 10
0.0000
 20
0.0000
 30
0.0000
 40
0.0000
 41
0.0000
 70
1
  0
VERTEX
  8
16
 10
82.2960
 20
41.4020
 30
0.0000
  0
VERTEX
  8
16
 10
82.5500
 20
41.4020
 30
0.0000
 42
1.0000
  0
VERTEX
  8
16
 10
82.5500
 20
42.4180
 30
0.0000
  0
VERTEX
  8
16
 10
82.2960
 20
42.4180
 30
0.0000
 42
1.0000
  0
SEQEND
  8
0
  0
POLYLINE
  8
16
 66
1
 10
0.0000
 20
0.0000
 30
0.0000
 40
0.0000
 41
0.0000
 70
1
  0
VERTEX
  8
16
 10
39.3700
 20
48.0060
 30
0.0000
  0
VERTEX
  8
16
 10
39.3700
 20
55.6260
 30
0.0000
 42
1.0000
  0
VERTEX
  8
16
 10
38.3540
 20
55.6260
 30
0.0000
  0
VERTEX
  8
16
 10
38.3540
 20
48.0060
 30
0.0000
 42
1.0000
  0
SEQEND
  8
0
  0
POLYLINE
  8
16
 66
1
 10
0.0000
 20
0.0000
 30
0.0000
 40
0.0000
 41
0.0000
 70
1
  0
VERTEX
  8
16
 10
27.0292
 20
35.4548
 30
0.0000
  0
VERTEX
  8
16
 10
39.2212
 20
47.6468
 30
0.0000
 42
1.0000
  0
VERTEX
  8
16
 10
38.5028
 20
48.3652
 30
0.0000
  0
VERTEX
  8
16
 10
26.3108
 20
36.1732
 30
0.0000
 42
1.0000
  0
SEQEND
  8
0
  0
POLYLINE
  8
16
 66
1
 10
0.0000
 20
0.0000
 30
0.0000
 40
0.0000
 41
0.0000
 70
1
  0
VERTEX
  8
16
 10
39.0892
 20
55.1716
 30
0.0000
  0
VERTEX
  8
16
 10
39.5972
 20
55.4256
 30
0.0000
 42
1.0000
  0
VERTEX
  8
16
 10
39.1428
 20
56.3344
 30
0.0000
  0
VERTEX
  8
16
 10
38.6348
 20
56.0804
 30
0.0000
 42
1.0000
  0
SEQEND
  8
0
  0
POLYLINE
  8
16
 66
1
 10
0.0000
 20
0.0000
 30
0.0000
 40
0.0000
 41
0.0000
 70
1
  0
VERTEX
  8
16
 10
26.1620
 20
35.8140
 30
0.0000
  0
VERTEX
  8
16
 10
26.1620
 20
35.5600
 30
0.0000
 42
1.0000
  0
VERTEX
  8
16
 10
27.1780
 20
35.5600
 30
0.0000
  0
VERTEX
  8
16
 10
27.1780
 20
35.8140
 30
0.0000
 42
1.0000
  0
SEQEND
  8
0
  0
POLYLINE
  8
16
 66
1
 10
0.0000
 20
0.0000
 30
0.0000
 40
0.0000
 41
0.0000
 70
1
  0
VERTEX
  8
16
 10
45.2120
 20
21.3360
 30
0.0000
  0
VERTEX
  8
16
 10
45.2120
 20
17.7800
 30
0.0000
 42
1.0000
  0
VERTEX
  8
16
 10
46.2280
 20
17.7800
 30
0.0000
  0
VERTEX
  8
16
 10
46.2280
 20
21.3360
 30
0.0000
 42
1.0000
  0
SEQEND
  8
0
  0
POLYLINE
  8
16
 66
1
 10
0.0000
 20
0.0000
 30
0.0000
 40
0.0000
 41
0.0000
 70
1
  0
VERTEX
  8
16
 10
46.8848
 20
23.2192
 30
0.0000
  0
VERTEX
  8
16
 10
45.3608
 20
21.6952
 30
0.0000
 42
1.0000
  0
VERTEX
  8
16
 10
46.0792
 20
20.9768
 30
0.0000
  0
VERTEX
  8
16
 10
47.6032
 20
22.5008
 30
0.0000
 42
1.0000
  0
SEQEND
  8
0
  0
POLYLINE
  8
16
 66
1
 10
0.0000
 20
0.0000
 30
0.0000
 40
0.0000
 41
0.0000
 70
1
  0
VERTEX
  8
16
 10
62.2300
 20
48.0060
 30
0.0000
  0
VERTEX
  8
16
 10
62.2300
 20
55.6260
 30
0.0000
 42
1.0000
  0
VERTEX
  8
16
 10
61.2140
 20
55.6260
 30
0.0000
  0
VERTEX
  8
16
 10
61.2140
 20
48.0060
 30
0.0000
 42
1.0000
  0
SEQEND
  8
0
  0
POLYLINE
  8
16
 66
1
 10
0.0000
 20
0.0000
 30
0.0000
 40
0.0000
 41
0.0000
 70
1
  0
VERTEX
  8
16
 10
47.6032
 20
33.1688
 30
0.0000
  0
VERTEX
  8
16
 10
62.0812
 20
47.6468
 30
0.0000
 42
1.0000
  0
VERTEX
  8
16
 10
61.3628
 20
48.3652
 30
0.0000
  0
VERTEX
  8
16
 10
46.8848
 20
33.8872
 30
0.0000
 42
1.0000
  0
SEQEND
  8
0
  0
POLYLINE
  8
16
 66
1
 10
0.0000
 20
0.0000
 30
0.0000
 40
0.0000
 41
0.0000
 70
1
  0
VERTEX
  8
16
 10
47.7520
 20
22.8600
 30
0.0000
  0
VERTEX
  8
16
 10
47.7520
 20
28.9560
 30
0.0000
 42
1.0000
  0
VERTEX
  8
16
 10
46.7360
 20
28.9560
 30
0.0000
  0
VERTEX
  8
16
 10
46.7360
 20
22.8600
 30
0.0000
 42
1.0000
  0
SEQEND
  8
0
  0
POLYLINE
  8
16
 66
1
 10
0.0000
 20
0.0000
 30
0.0000
 40
0.0000
 41
0.0000
 70
1
  0
VERTEX
  8
16
 10
47.7520
 20
28.9560
 30
0.0000
  0
VERTEX
  8
16
 10
47.7520
 20
33.5280
 30
0.0000
 42
1.0000
  0
VERTEX
  8
16
 10
46.7360
 20
33.5280
 30
0.0000
  0
VERTEX
  8
16
 10
46.7360
 20
28.9560
 30
0.0000
 42
1.0000
  0
SEQEND
  8
0
  0
POLYLINE
  8
16
 66
1
 10
0.0000
 20
0.0000
 30
0.0000
 40
0.0000
 41
0.0000
 70
1
  0
VERTEX
  8
16
 10
61.9492
 20
55.1716
 30
0.0000
  0
VERTEX
  8
16
 10
62.4572
 20
55.4256
 30
0.0000
 42
1.0000
  0
VERTEX
  8
16
 10
62.0028
 20
56.3344
 30
0.0000
  0
VERTEX
  8
16
 10
61.4948
 20
56.0804
 30
0.0000
 42
1.0000
  0
SEQEND
  8
0
  0
POLYLINE
  8
16
 66
1
 10
0.0000
 20
0.0000
 30
0.0000
 40
0.0000
 41
0.0000
 70
1
  0
VERTEX
  8
16
 10
47.2440
 20
23.3680
 30
0.0000
  0
VERTEX
  8
16
 10
46.9900
 20
23.3680
 30
0.0000
 42
1.0000
  0
VERTEX
  8
16
 10
46.9900
 20
22.3520
 30
0.0000
  0
VERTEX
  8
16
 10
47.2440
 20
22.3520
 30
0.0000
 42
1.0000
  0
SEQEND
  8
0
  0
POLYLINE
  8
16
 66
1
 10
0.0000
 20
0.0000
 30
0.0000
 40
0.0000
 41
0.0000
 70
1
  0
VERTEX
  8
16
 10
12.1920
 20
72.1360
 30
0.0000
  0
VERTEX
  8
16
 10
10.6680
 20
72.1360
 30
0.0000
 42
1.0000
  0
VERTEX
  8
16
 10
10.6680
 20
71.1200
 30
0.0000
  0
VERTEX
  8
16
 10
12.1920
 20
71.1200
 30
0.0000
 42
1.0000
  0
SEQEND
  8
0
  0
POLYLINE
  8
16
 66
1
 10
0.0000
 20
0.0000
 30
0.0000
 40
0.0000
 41
0.0000
 70
1
  0
VERTEX
  8
16
 10
14.8808
 20
75.0352
 30
0.0000
  0
VERTEX
  8
16
 10
11.8328
 20
71.9872
 30
0.0000
 42
1.0000
  0
VERTEX
  8
16
 10
12.5512
 20
71.2688
 30
0.0000
  0
VERTEX
  8
16
 10
15.5992
 20
74.3168
 30
0.0000
 42
1.0000
  0
SEQEND
  8
0
  0
POLYLINE
  8
16
 66
1
 10
0.0000
 20
0.0000
 30
0.0000
 40
0.0000
 41
0.0000
 70
1
  0
VERTEX
  8
16
 10
42.6720
 20
75.1840
 30
0.0000
  0
VERTEX
  8
16
 10
15.2400
 20
75.1840
 30
0.0000
 42
1.0000
  0
VERTEX
  8
16
 10
15.2400
 20
74.1680
 30
0.0000
  0
VERTEX
  8
16
 10
42.6720
 20
74.1680
 30
0.0000
 42
1.0000
  0
SEQEND
  8
0
  0
POLYLINE
  8
16
 66
1
 10
0.0000
 20
0.0000
 30
0.0000
 40
0.0000
 41
0.0000
 70
1
  0
VERTEX
  8
16
 10
45.3172
 20
72.7492
 30
0.0000
  0
VERTEX
  8
16
 10
43.0312
 20
75.0352
 30
0.0000
 42
1.0000
  0
VERTEX
  8
16
 10
42.3128
 20
74.3168
 30
0.0000
  0
VERTEX
  8
16
 10
44.5988
 20
72.0308
 30
0.0000
 42
1.0000
  0
SEQEND
  8
0
  0
POLYLINE
  8
16
 66
1
 10
0.0000
 20
0.0000
 30
0.0000
 40
0.0000
 41
0.0000
 70
1
  0
VERTEX
  8
16
 10
45.4660
 20
70.1040
 30
0.0000
  0
VERTEX
  8
16
 10
45.4660
 20
72.3900
 30
0.0000
 42
1.0000
  0
VERTEX
  8
16
 10
44.4500
 20
72.3900
 30
0.0000
  0
VERTEX
  8
16
 10
44.4500
 20
70.1040
 30
0.0000
 42
1.0000
  0
SEQEND
  8
0
  0
POLYLINE
  8
16
 66
1
 10
0.0000
 20
0.0000
 30
0.0000
 40
0.0000
 41
0.0000
 70
1
  0
VERTEX
  8
16
 10
48.3652
 20
67.4152
 30
0.0000
  0
VERTEX
  8
16
 10
45.3172
 20
70.4632
 30
0.0000
 42
1.0000
  0
VERTEX
  8
16
 10
44.5988
 20
69.7448
 30
0.0000
  0
VERTEX
  8
16
 10
47.6468
 20
66.6968
 30
0.0000
 42
1.0000
  0
SEQEND
  8
0
  0
POLYLINE
  8
16
 66
1
 10
0.0000
 20
0.0000
 30
0.0000
 40
0.0000
 41
0.0000
 70
1
  0
VERTEX
  8
16
 10
48.5140
 20
60.1980
 30
0.0000
  0
VERTEX
  8
16
 10
48.5140
 20
67.0560
 30
0.0000
 42
1.0000
  0
VERTEX
  8
16
 10
47.4980
 20
67.0560
 30
0.0000
  0
VERTEX
  8
16
 10
47.4980
 20
60.1980
 30
0.0000
 42
1.0000
  0
SEQEND
  8
0
  0
POLYLINE
  8
16
 66
1
 10
0.0000
 20
0.0000
 30
0.0000
 40
0.0000
 41
0.0000
 70
1
  0
VERTEX
  8
16
 10
42.2692
 20
53.7428
 30
0.0000
  0
VERTEX
  8
16
 10
48.3652
 20
59.8388
 30
0.0000
 42
1.0000
  0
VERTEX
  8
16
 10
47.6468
 20
60.5572
 30
0.0000
  0
VERTEX
  8
16
 10
41.5508
 20
54.4612
 30
0.0000
 42
1.0000
  0
SEQEND
  8
0
  0
POLYLINE
  8
16
 66
1
 10
0.0000
 20
0.0000
 30
0.0000
 40
0.0000
 41
0.0000
 70
1
  0
VERTEX
  8
16
 10
42.4180
 20
38.1000
 30
0.0000
  0
VERTEX
  8
16
 10
42.4180
 20
54.1020
 30
0.0000
 42
1.0000
  0
VERTEX
  8
16
 10
41.4020
 20
54.1020
 30
0.0000
  0
VERTEX
  8
16
 10
41.4020
 20
38.1000
 30
0.0000
 42
1.0000
  0
SEQEND
  8
0
  0
POLYLINE
  8
16
 66
1
 10
0.0000
 20
0.0000
 30
0.0000
 40
0.0000
 41
0.0000
 70
1
  0
VERTEX
  8
16
 10
29.3152
 20
24.7868
 30
0.0000
  0
VERTEX
  8
16
 10
42.2692
 20
37.7408
 30
0.0000
 42
1.0000
  0
VERTEX
  8
16
 10
41.5508
 20
38.4592
 30
0.0000
  0
VERTEX
  8
16
 10
28.5968
 20
25.5052
 30
0.0000
 42
1.0000
  0
SEQEND
  8
0
  0
POLYLINE
  8
16
 66
1
 10
0.0000
 20
0.0000
 30
0.0000
 40
0.0000
 41
0.0000
 70
1
  0
VERTEX
  8
16
 10
29.4640
 20
19.0500
 30
0.0000
  0
VERTEX
  8
16
 10
29.4640
 20
25.1460
 30
0.0000
 42
1.0000
  0
VERTEX
  8
16
 10
28.4480
 20
25.1460
 30
0.0000
  0
VERTEX
  8
16
 10
28.4480
 20
19.0500
 30
0.0000
 42
1.0000
  0
SEQEND
  8
0
  0
POLYLINE
  8
16
 66
1
 10
0.0000
 20
0.0000
 30
0.0000
 40
0.0000
 41
0.0000
 70
1
  0
VERTEX
  8
16
 10
33.1252
 20
15.5992
 30
0.0000
  0
VERTEX
  8
16
 10
29.3152
 20
19.4092
 30
0.0000
 42
1.0000
  0
VERTEX
  8
16
 10
28.5968
 20
18.6908
 30
0.0000
  0
VERTEX
  8
16
 10
32.4068
 20
14.8808
 30
0.0000
 42
1.0000
  0
SEQEND
  8
0
  0
POLYLINE
  8
16
 66
1
 10
0.0000
 20
0.0000
 30
0.0000
 40
0.0000
 41
0.0000
 70
1
  0
VERTEX
  8
16
 10
35.8140
 20
15.7480
 30
0.0000
  0
VERTEX
  8
16
 10
32.7660
 20
15.7480
 30
0.0000
 42
1.0000
  0
VERTEX
  8
16
 10
32.7660
 20
14.7320
 30
0.0000
  0
VERTEX
  8
16
 10
35.8140
 20
14.7320
 30
0.0000
 42
1.0000
  0
SEQEND
  8
0
  0
POLYLINE
  8
16
 66
1
 10
0.0000
 20
0.0000
 30
0.0000
 40
0.0000
 41
0.0000
 70
1
  0
VERTEX
  8
16
 10
37.7408
 20
17.8852
 30
0.0000
  0
VERTEX
  8
16
 10
35.4548
 20
15.5992
 30
0.0000
 42
1.0000
  0
VERTEX
  8
16
 10
36.1732
 20
14.8808
 30
0.0000
  0
VERTEX
  8
16
 10
38.4592
 20
17.1668
 30
0.0000
 42
1.0000
  0
SEQEND
  8
0
  0
POLYLINE
  8
16
 66
1
 10
0.0000
 20
0.0000
 30
0.0000
 40
0.0000
 41
0.0000
 70
1
  0
VERTEX
  8
16
 10
37.5920
 20
18.2880
 30
0.0000
  0
VERTEX
  8
16
 10
37.5920
 20
17.5260
 30
0.0000
 42
1.0000
  0
VERTEX
  8
16
 10
38.6080
 20
17.5260
 30
0.0000
  0
VERTEX
  8
16
 10
38.6080
 20
18.2880
 30
0.0000
 42
1.0000
  0
SEQEND
  8
0
  0
POLYLINE
  8
16
 66
1
 10
0.0000
 20
0.0000
 30
0.0000
 40
0.0000
 41
0.0000
 70
1
  0
VERTEX
  8
16
 10
35.4548
 20
20.2148
 30
0.0000
  0
VERTEX
  8
16
 10
37.7408
 20
17.9288
 30
0.0000
 42
1.0000
  0
VERTEX
  8
16
 10
38.4592
 20
18.6472
 30
0.0000
  0
VERTEX
  8
16
 10
36.1732
 20
20.9332
 30
0.0000
 42
1.0000
  0
SEQEND
  8
0
  0
POLYLINE
  8
16
 66
1
 10
0.0000
 20
0.0000
 30
0.0000
 40
0.0000
 41
0.0000
 70
1
  0
VERTEX
  8
16
 10
33.5280
 20
20.0660
 30
0.0000
  0
VERTEX
  8
16
 10
35.8140
 20
20.0660
 30
0.0000
 42
1.0000
  0
VERTEX
  8
16
 10
35.8140
 20
21.0820
 30
0.0000
  0
VERTEX
  8
16
 10
33.5280
 20
21.0820
 30
0.0000
 42
1.0000
  0
SEQEND
  8
0
  0
POLYLINE
  8
16
 66
1
 10
0.0000
 20
0.0000
 30
0.0000
 40
0.0000
 41
0.0000
 70
1
  0
VERTEX
  8
16
 10
31.6448
 20
21.7388
 30
0.0000
  0
VERTEX
  8
16
 10
33.1688
 20
20.2148
 30
0.0000
 42
1.0000
  0
VERTEX
  8
16
 10
33.8872
 20
20.9332
 30
0.0000
  0
VERTEX
  8
16
 10
32.3632
 20
22.4572
 30
0.0000
 42
1.0000
  0
SEQEND
  8
0
  0
POLYLINE
  8
16
 66
1
 10
0.0000
 20
0.0000
 30
0.0000
 40
0.0000
 41
0.0000
 70
1
  0
VERTEX
  8
16
 10
31.4960
 20
23.6220
 30
0.0000
  0
VERTEX
  8
16
 10
31.4960
 20
22.0980
 30
0.0000
 42
1.0000
  0
VERTEX
  8
16
 10
32.5120
 20
22.0980
 30
0.0000
  0
VERTEX
  8
16
 10
32.5120
 20
23.6220
 30
0.0000
 42
1.0000
  0
SEQEND
  8
0
  0
POLYLINE
  8
16
 66
1
 10
0.0000
 20
0.0000
 30
0.0000
 40
0.0000
 41
0.0000
 70
1
  0
VERTEX
  8
16
 10
36.9788
 20
29.3152
 30
0.0000
  0
VERTEX
  8
16
 10
31.6448
 20
23.9812
 30
0.0000
 42
1.0000
  0
VERTEX
  8
16
 10
32.3632
 20
23.2628
 30
0.0000
  0
VERTEX
  8
16
 10
37.6972
 20
28.5968
 30
0.0000
 42
1.0000
  0
SEQEND
  8
0
  0
POLYLINE
  8
16
 66
1
 10
0.0000
 20
0.0000
 30
0.0000
 40
0.0000
 41
0.0000
 70
1
  0
VERTEX
  8
16
 10
47.2440
 20
29.4640
 30
0.0000
  0
VERTEX
  8
16
 10
37.3380
 20
29.4640
 30
0.0000
 42
1.0000
  0
VERTEX
  8
16
 10
37.3380
 20
28.4480
 30
0.0000
  0
VERTEX
  8
16
 10
47.2440
 20
28.4480
 30
0.0000
 42
1.0000
  0
SEQEND
  8
0
  0
POLYLINE
  8
16
 66
1
 10
0.0000
 20
0.0000
 30
0.0000
 40
0.0000
 41
0.0000
 70
1
  0
VERTEX
  8
16
 10
10.3001
 20
71.9783
 30
0.0000
  0
VERTEX
  8
16
 10
9.7921
 20
71.4449
 30
0.0000
 42
1.0000
  0
VERTEX
  8
16
 10
10.5279
 20
70.7443
 30
0.0000
  0
VERTEX
  8
16
 10
11.0359
 20
71.2777
 30
0.0000
 42
1.0000
  0
SEQEND
  8
0
  0
POLYLINE
  8
16
 66
1
 10
0.0000
 20
0.0000
 30
0.0000
 40
0.0000
 41
0.0000
 70
1
  0
VERTEX
  8
16
 10
60.7060
 20
70.1040
 30
0.0000
  0
VERTEX
  8
16
 10
60.7060
 20
70.8660
 30
0.0000
 42
1.0000
  0
VERTEX
  8
16
 10
59.6900
 20
70.8660
 30
0.0000
  0
VERTEX
  8
16
 10
59.6900
 20
70.1040
 30
0.0000
 42
1.0000
  0
SEQEND
  8
0
  0
POLYLINE
  8
16
 66
1
 10
0.0000
 20
0.0000
 30
0.0000
 40
0.0000
 41
0.0000
 70
1
  0
VERTEX
  8
16
 10
72.7492
 20
58.2712
 30
0.0000
  0
VERTEX
  8
16
 10
60.5572
 20
70.4632
 30
0.0000
 42
1.0000
  0
VERTEX
  8
16
 10
59.8388
 20
69.7448
 30
0.0000
  0
VERTEX
  8
16
 10
72.0308
 20
57.5528
 30
0.0000
 42
1.0000
  0
SEQEND
  8
0
  0
POLYLINE
  8
16
 66
1
 10
0.0000
 20
0.0000
 30
0.0000
 40
0.0000
 41
0.0000
 70
1
  0
VERTEX
  8
16
 10
72.8980
 20
51.0540
 30
0.0000
  0
VERTEX
  8
16
 10
72.8980
 20
57.9120
 30
0.0000
 42
1.0000
  0
VERTEX
  8
16
 10
71.8820
 20
57.9120
 30
0.0000
  0
VERTEX
  8
16
 10
71.8820
 20
51.0540
 30
0.0000
 42
1.0000
  0
SEQEND
  8
0
  0
POLYLINE
  8
16
 66
1
 10
0.0000
 20
0.0000
 30
0.0000
 40
0.0000
 41
0.0000
 70
1
  0
VERTEX
  8
16
 10
62.8432
 20
40.7888
 30
0.0000
  0
VERTEX
  8
16
 10
72.7492
 20
50.6948
 30
0.0000
 42
1.0000
  0
VERTEX
  8
16
 10
72.0308
 20
51.4132
 30
0.0000
  0
VERTEX
  8
16
 10
62.1248
 20
41.5072
 30
0.0000
 42
1.0000
  0
SEQEND
  8
0
  0
POLYLINE
  8
16
 66
1
 10
0.0000
 20
0.0000
 30
0.0000
 40
0.0000
 41
0.0000
 70
1
  0
VERTEX
  8
16
 10
60.4252
 20
71.3204
 30
0.0000
  0
VERTEX
  8
16
 10
59.9172
 20
71.5744
 30
0.0000
 42
1.0000
  0
VERTEX
  8
16
 10
59.4628
 20
70.6656
 30
0.0000
  0
VERTEX
  8
16
 10
59.9708
 20
70.4116
 30
0.0000
 42
1.0000
  0
SEQEND
  8
0
  0
POLYLINE
  8
16
 66
1
 10
0.0000
 20
0.0000
 30
0.0000
 40
0.0000
 41
0.0000
 70
1
  0
VERTEX
  8
16
 10
62.0296
 20
41.3752
 30
0.0000
  0
VERTEX
  8
16
 10
61.7756
 20
40.8672
 30
0.0000
 42
1.0000
  0
VERTEX
  8
16
 10
62.6844
 20
40.4128
 30
0.0000
  0
VERTEX
  8
16
 10
62.9384
 20
40.9208
 30
0.0000
 42
1.0000
  0
SEQEND
  8
0
  0
POLYLINE
  8
16
 66
1
 10
0.0000
 20
0.0000
 30
0.0000
 40
0.0000
 41
0.0000
 70
1
  0
VERTEX
  8
16
 10
49.1708
 20
40.7452
 30
0.0000
  0
VERTEX
  8
16
 10
43.0748
 20
34.6492
 30
0.0000
 42
1.0000
  0
VERTEX
  8
16
 10
43.7932
 20
33.9308
 30
0.0000
  0
VERTEX
  8
16
 10
49.8892
 20
40.0268
 30
0.0000
 42
1.0000
  0
SEQEND
  8
0
  0
POLYLINE
  8
16
 66
1
 10
0.0000
 20
0.0000
 30
0.0000
 40
0.0000
 41
0.0000
 70
1
  0
VERTEX
  8
16
 10
49.0220
 20
55.8800
 30
0.0000
  0
VERTEX
  8
16
 10
49.0220
 20
40.3860
 30
0.0000
 42
1.0000
  0
VERTEX
  8
16
 10
50.0380
 20
40.3860
 30
0.0000
  0
VERTEX
  8
16
 10
50.0380
 20
55.8800
 30
0.0000
 42
1.0000
  0
SEQEND
  8
0
  0
POLYLINE
  8
16
 66
1
 10
0.0000
 20
0.0000
 30
0.0000
 40
0.0000
 41
0.0000
 70
1
  0
VERTEX
  8
16
 10
43.4340
 20
34.7980
 30
0.0000
  0
VERTEX
  8
16
 10
43.1800
 20
34.7980
 30
0.0000
 42
1.0000
  0
VERTEX
  8
16
 10
43.1800
 20
33.7820
 30
0.0000
  0
VERTEX
  8
16
 10
43.4340
 20
33.7820
 30
0.0000
 42
1.0000
  0
SEQEND
  8
0
  0
POLYLINE
  8
16
 66
1
 10
0.0000
 20
0.0000
 30
0.0000
 40
0.0000
 41
0.0000
 70
1
  0
VERTEX
  8
16
 10
54.6100
 20
60.9600
 30
0.0000
  0
VERTEX
  8
16
 10
54.6100
 20
70.8660
 30
0.0000
 42
1.0000
  0
VERTEX
  8
16
 10
53.5940
 20
70.8660
 30
0.0000
  0
VERTEX
  8
16
 10
53.5940
 20
60.9600
 30
0.0000
 42
1.0000
  0
SEQEND
  8
0
  0
POLYLINE
  8
16
 66
1
 10
0.0000
 20
0.0000
 30
0.0000
 40
0.0000
 41
0.0000
 70
1
  0
VERTEX
  8
16
 10
49.8892
 20
56.0288
 30
0.0000
  0
VERTEX
  8
16
 10
54.4612
 20
60.6008
 30
0.0000
 42
1.0000
  0
VERTEX
  8
16
 10
53.7428
 20
61.3192
 30
0.0000
  0
VERTEX
  8
16
 10
49.1708
 20
56.7472
 30
0.0000
 42
1.0000
  0
SEQEND
  8
0
  0
POLYLINE
  8
16
 66
1
 10
0.0000
 20
0.0000
 30
0.0000
 40
0.0000
 41
0.0000
 70
1
  0
VERTEX
  8
16
 10
54.3292
 20
70.4116
 30
0.0000
  0
VERTEX
  8
16
 10
54.8372
 20
70.6656
 30
0.0000
 42
1.0000
  0
VERTEX
  8
16
 10
54.3828
 20
71.5744
 30
0.0000
  0
VERTEX
  8
16
 10
53.8748
 20
71.3204
 30
0.0000
 42
1.0000
  0
SEQEND
  8
0
  0
POLYLINE
  8
16
 66
1
 10
0.0000
 20
0.0000
 30
0.0000
 40
0.0000
 41
0.0000
 70
1
  0
VERTEX
  8
16
 10
49.0220
 20
56.3880
 30
0.0000
  0
VERTEX
  8
16
 10
49.0220
 20
55.8800
 30
0.0000
 42
1.0000
  0
VERTEX
  8
16
 10
50.0380
 20
55.8800
 30
0.0000
  0
VERTEX
  8
16
 10
50.0380
 20
56.3880
 30
0.0000
 42
1.0000
  0
SEQEND
  8
0
  0
POLYLINE
  8
16
 66
1
 10
0.0000
 20
0.0000
 30
0.0000
 40
0.0000
 41
0.0000
 70
1
  0
VERTEX
  8
16
 10
83.0580
 20
3.5560
 30
0.0000
  0
VERTEX
  8
16
 10
45.7200
 20
3.5560
 30
0.0000
 42
1.0000
  0
VERTEX
  8
16
 10
45.7200
 20
2.5400
 30
0.0000
  0
VERTEX
  8
16
 10
83.0580
 20
2.5400
 30
0.0000
 42
1.0000
  0
SEQEND
  8
0
  0
POLYLINE
  8
16
 66
1
 10
0.0000
 20
0.0000
 30
0.0000
 40
0.0000
 41
0.0000
 70
1
  0
VERTEX
  8
16
 10
100.9868
 20
21.6952
 30
0.0000
  0
VERTEX
  8
16
 10
82.6988
 20
3.4072
 30
0.0000
 42
1.0000
  0
VERTEX
  8
16
 10
83.4172
 20
2.6888
 30
0.0000
  0
VERTEX
  8
16
 10
101.7052
 20
20.9768
 30
0.0000
 42
1.0000
  0
SEQEND
  8
0
  0
POLYLINE
  8
16
 66
1
 10
0.0000
 20
0.0000
 30
0.0000
 40
0.0000
 41
0.0000
 70
1
  0
VERTEX
  8
16
 10
100.8380
 20
70.8660
 30
0.0000
  0
VERTEX
  8
16
 10
100.8380
 20
21.3360
 30
0.0000
 42
1.0000
  0
VERTEX
  8
16
 10
101.8540
 20
21.3360
 30
0.0000
  0
VERTEX
  8
16
 10
101.8540
 20
70.8660
 30
0.0000
 42
1.0000
  0
SEQEND
  8
0
  0
POLYLINE
  8
16
 66
1
 10
0.0000
 20
0.0000
 30
0.0000
 40
0.0000
 41
0.0000
 70
1
  0
VERTEX
  8
16
 10
97.1768
 20
74.3168
 30
0.0000
  0
VERTEX
  8
16
 10
100.9868
 20
70.5068
 30
0.0000
 42
1.0000
  0
VERTEX
  8
16
 10
101.7052
 20
71.2252
 30
0.0000
  0
VERTEX
  8
16
 10
97.8952
 20
75.0352
 30
0.0000
 42
1.0000
  0
SEQEND
  8
0
  0
POLYLINE
  8
16
 66
1
 10
0.0000
 20
0.0000
 30
0.0000
 40
0.0000
 41
0.0000
 70
1
  0
VERTEX
  8
16
 10
54.8640
 20
74.1680
 30
0.0000
  0
VERTEX
  8
16
 10
97.5360
 20
74.1680
 30
0.0000
 42
1.0000
  0
VERTEX
  8
16
 10
97.5360
 20
75.1840
 30
0.0000
  0
VERTEX
  8
16
 10
54.8640
 20
75.1840
 30
0.0000
 42
1.0000
  0
SEQEND
  8
0
  0
POLYLINE
  8
16
 66
1
 10
0.0000
 20
0.0000
 30
0.0000
 40
0.0000
 41
0.0000
 70
1
  0
VERTEX
  8
16
 10
52.1752
 20
71.2688
 30
0.0000
  0
VERTEX
  8
16
 10
55.2232
 20
74.3168
 30
0.0000
 42
1.0000
  0
VERTEX
  8
16
 10
54.5048
 20
75.0352
 30
0.0000
  0
VERTEX
  8
16
 10
51.4568
 20
71.9872
 30
0.0000
 42
1.0000
  0
SEQEND
  8
0
  0
POLYLINE
  8
16
 66
1
 10
0.0000
 20
0.0000
 30
0.0000
 40
0.0000
 41
0.0000
 70
1
  0
VERTEX
  8
16
 10
45.2120
 20
3.0480
 30
0.0000
  0
VERTEX
  8
16
 10
45.2120
 20
2.5400
 30
0.0000
 42
1.0000
  0
VERTEX
  8
16
 10
46.2280
 20
2.5400
 30
0.0000
  0
VERTEX
  8
16
 10
46.2280
 20
3.0480
 30
0.0000
 42
1.0000
  0
SEQEND
  8
0
  0
POLYLINE
  8
16
 66
1
 10
0.0000
 20
0.0000
 30
0.0000
 40
0.0000
 41
0.0000
 70
1
  0
VERTEX
  8
16
 10
51.3616
 20
71.4008
 30
0.0000
  0
VERTEX
  8
16
 10
51.6156
 20
70.8928
 30
0.0000
 42
1.0000
  0
VERTEX
  8
16
 10
52.5244
 20
71.3472
 30
0.0000
  0
VERTEX
  8
16
 10
52.2704
 20
71.8552
 30
0.0000
 42
1.0000
  0
SEQEND
  8
0
  0
POLYLINE
  8
16
 66
1
 10
0.0000
 20
0.0000
 30
0.0000
 40
0.0000
 41
0.0000
 70
1
  0
VERTEX
  8
16
 10
42.1640
 20
3.8100
 30
0.0000
  0
VERTEX
  8
16
 10
42.1640
 20
3.0480
 30
0.0000
 42
1.0000
  0
VERTEX
  8
16
 10
43.1800
 20
3.0480
 30
0.0000
  0
VERTEX
  8
16
 10
43.1800
 20
3.8100
 30
0.0000
 42
1.0000
  0
SEQEND
  8
0
  0
POLYLINE
  8
16
 66
1
 10
0.0000
 20
0.0000
 30
0.0000
 40
0.0000
 41
0.0000
 70
1
  0
VERTEX
  8
16
 10
38.5028
 20
7.2608
 30
0.0000
  0
VERTEX
  8
16
 10
42.3128
 20
3.4508
 30
0.0000
 42
1.0000
  0
VERTEX
  8
16
 10
43.0312
 20
4.1692
 30
0.0000
  0
VERTEX
  8
16
 10
39.2212
 20
7.9792
 30
0.0000
 42
1.0000
  0
SEQEND
  8
0
  0
POLYLINE
  8
16
 66
1
 10
0.0000
 20
0.0000
 30
0.0000
 40
0.0000
 41
0.0000
 70
1
  0
VERTEX
  8
16
 10
22.8600
 20
7.1120
 30
0.0000
  0
VERTEX
  8
16
 10
38.8620
 20
7.1120
 30
0.0000
 42
1.0000
  0
VERTEX
  8
16
 10
38.8620
 20
8.1280
 30
0.0000
  0
VERTEX
  8
16
 10
22.8600
 20
8.1280
 30
0.0000
 42
1.0000
  0
SEQEND
  8
0
  0
POLYLINE
  8
16
 66
1
 10
0.0000
 20
0.0000
 30
0.0000
 40
0.0000
 41
0.0000
 70
1
  0
VERTEX
  8
16
 10
16.4048
 20
13.3568
 30
0.0000
  0
VERTEX
  8
16
 10
22.5008
 20
7.2608
 30
0.0000
 42
1.0000
  0
VERTEX
  8
16
 10
23.2192
 20
7.9792
 30
0.0000
  0
VERTEX
  8
16
 10
17.1232
 20
14.0752
 30
0.0000
 42
1.0000
  0
SEQEND
  8
0
  0
POLYLINE
  8
16
 66
1
 10
0.0000
 20
0.0000
 30
0.0000
 40
0.0000
 41
0.0000
 70
1
  0
VERTEX
  8
16
 10
8.3820
 20
13.2080
 30
0.0000
  0
VERTEX
  8
16
 10
16.7640
 20
13.2080
 30
0.0000
 42
1.0000
  0
VERTEX
  8
16
 10
16.7640
 20
14.2240
 30
0.0000
  0
VERTEX
  8
16
 10
8.3820
 20
14.2240
 30
0.0000
 42
1.0000
  0
SEQEND
  8
0
  0
POLYLINE
  8
16
 66
1
 10
0.0000
 20
0.0000
 30
0.0000
 40
0.0000
 41
0.0000
 70
1
  0
VERTEX
  8
16
 10
3.4508
 20
17.9288
 30
0.0000
  0
VERTEX
  8
16
 10
8.0228
 20
13.3568
 30
0.0000
 42
1.0000
  0
VERTEX
  8
16
 10
8.7412
 20
14.0752
 30
0.0000
  0
VERTEX
  8
16
 10
4.1692
 20
18.6472
 30
0.0000
 42
1.0000
  0
SEQEND
  8
0
  0
POLYLINE
  8
16
 66
1
 10
0.0000
 20
0.0000
 30
0.0000
 40
0.0000
 41
0.0000
 70
1
  0
VERTEX
  8
16
 10
3.3020
 20
68.5800
 30
0.0000
  0
VERTEX
  8
16
 10
3.3020
 20
18.2880
 30
0.0000
 42
1.0000
  0
VERTEX
  8
16
 10
4.3180
 20
18.2880
 30
0.0000
  0
VERTEX
  8
16
 10
4.3180
 20
68.5800
 30
0.0000
 42
1.0000
  0
SEQEND
  8
0
  0
POLYLINE
  8
16
 66
1
 10
0.0000
 20
0.0000
 30
0.0000
 40
0.0000
 41
0.0000
 70
1
  0
VERTEX
  8
16
 10
11.0708
 20
76.5592
 30
0.0000
  0
VERTEX
  8
16
 10
3.4508
 20
68.9392
 30
0.0000
 42
1.0000
  0
VERTEX
  8
16
 10
4.1692
 20
68.2208
 30
0.0000
  0
VERTEX
  8
16
 10
11.7892
 20
75.8408
 30
0.0000
 42
1.0000
  0
SEQEND
  8
0
  0
POLYLINE
  8
16
 66
1
 10
0.0000
 20
0.0000
 30
0.0000
 40
0.0000
 41
0.0000
 70
1
  0
VERTEX
  8
16
 10
44.9580
 20
76.7080
 30
0.0000
  0
VERTEX
  8
16
 10
11.4300
 20
76.7080
 30
0.0000
 42
1.0000
  0
VERTEX
  8
16
 10
11.4300
 20
75.6920
 30
0.0000
  0
VERTEX
  8
16
 10
44.9580
 20
75.6920
 30
0.0000
 42
1.0000
  0
SEQEND
  8
0
  0
POLYLINE
  8
16
 66
1
 10
0.0000
 20
0.0000
 30
0.0000
 40
0.0000
 41
0.0000
 70
1
  0
VERTEX
  8
16
 10
49.8892
 20
71.9872
 30
0.0000
  0
VERTEX
  8
16
 10
45.3172
 20
76.5592
 30
0.0000
 42
1.0000
  0
VERTEX
  8
16
 10
44.5988
 20
75.8408
 30
0.0000
  0
VERTEX
  8
16
 10
49.1708
 20
71.2688
 30
0.0000
 42
1.0000
  0
SEQEND
  8
0
  0
POLYLINE
  8
16
 66
1
 10
0.0000
 20
0.0000
 30
0.0000
 40
0.0000
 41
0.0000
 70
1
  0
VERTEX
  8
16
 10
42.3128
 20
2.6888
 30
0.0000
  0
VERTEX
  8
16
 10
42.8208
 20
2.1808
 30
0.0000
 42
1.0000
  0
VERTEX
  8
16
 10
43.5392
 20
2.8992
 30
0.0000
  0
VERTEX
  8
16
 10
43.0312
 20
3.4072
 30
0.0000
 42
1.0000
  0
SEQEND
  8
0
  0
POLYLINE
  8
16
 66
1
 10
0.0000
 20
0.0000
 30
0.0000
 40
0.0000
 41
0.0000
 70
1
  0
VERTEX
  8
16
 10
49.0220
 20
71.6280
 30
0.0000
  0
VERTEX
  8
16
 10
49.0220
 20
71.1200
 30
0.0000
 42
1.0000
  0
VERTEX
  8
16
 10
50.0380
 20
71.1200
 30
0.0000
  0
VERTEX
  8
16
 10
50.0380
 20
71.6280
 30
0.0000
 42
1.0000
  0
SEQEND
  8
0
  0
POLYLINE
  8
16
 66
1
 10
0.0000
 20
0.0000
 30
0.0000
 40
0.0000
 41
0.0000
 70
1
  0
VERTEX
  8
16
 10
30.8392
 20
24.0248
 30
0.0000
  0
VERTEX
  8
16
 10
40.7452
 20
33.9308
 30
0.0000
 42
1.0000
  0
VERTEX
  8
16
 10
40.0268
 20
34.6492
 30
0.0000
  0
VERTEX
  8
16
 10
30.1208
 20
24.7432
 30
0.0000
 42
1.0000
  0
SEQEND
  8
0
  0
POLYLINE
  8
16
 66
1
 10
0.0000
 20
0.0000
 30
0.0000
 40
0.0000
 41
0.0000
 70
1
  0
VERTEX
  8
16
 10
30.9880
 20
20.5740
 30
0.0000
  0
VERTEX
  8
16
 10
30.9880
 20
24.3840
 30
0.0000
 42
1.0000
  0
VERTEX
  8
16
 10
29.9720
 20
24.3840
 30
0.0000
  0
VERTEX
  8
16
 10
29.9720
 20
20.5740
 30
0.0000
 42
1.0000
  0
SEQEND
  8
0
  0
POLYLINE
  8
16
 66
1
 10
0.0000
 20
0.0000
 30
0.0000
 40
0.0000
 41
0.0000
 70
1
  0
VERTEX
  8
16
 10
33.1252
 20
18.6472
 30
0.0000
  0
VERTEX
  8
16
 10
30.8392
 20
20.9332
 30
0.0000
 42
1.0000
  0
VERTEX
  8
16
 10
30.1208
 20
20.2148
 30
0.0000
  0
VERTEX
  8
16
 10
32.4068
 20
17.9288
 30
0.0000
 42
1.0000
  0
SEQEND
  8
0
  0
POLYLINE
  8
16
 66
1
 10
0.0000
 20
0.0000
 30
0.0000
 40
0.0000
 41
0.0000
 70
1
  0
VERTEX
  8
16
 10
32.3116
 20
18.0608
 30
0.0000
  0
VERTEX
  8
16
 10
32.5656
 20
17.5528
 30
0.0000
 42
1.0000
  0
VERTEX
  8
16
 10
33.4744
 20
18.0072
 30
0.0000
  0
VERTEX
  8
16
 10
33.2204
 20
18.5152
 30
0.0000
 42
1.0000
  0
SEQEND
  8
0
  0
POLYLINE
  8
16
 66
1
 10
0.0000
 20
0.0000
 30
0.0000
 40
0.0000
 41
0.0000
 70
1
  0
VERTEX
  8
16
 10
47.7520
 20
70.1040
 30
0.0000
  0
VERTEX
  8
16
 10
47.7520
 20
70.8660
 30
0.0000
 42
1.0000
  0
VERTEX
  8
16
 10
46.7360
 20
70.8660
 30
0.0000
  0
VERTEX
  8
16
 10
46.7360
 20
70.1040
 30
0.0000
 42
1.0000
  0
SEQEND
  8
0
  0
POLYLINE
  8
16
 66
1
 10
0.0000
 20
0.0000
 30
0.0000
 40
0.0000
 41
0.0000
 70
1
  0
VERTEX
  8
16
 10
49.8892
 20
68.1772
 30
0.0000
  0
VERTEX
  8
16
 10
47.6032
 20
70.4632
 30
0.0000
 42
1.0000
  0
VERTEX
  8
16
 10
46.8848
 20
69.7448
 30
0.0000
  0
VERTEX
  8
16
 10
49.1708
 20
67.4588
 30
0.0000
 42
1.0000
  0
SEQEND
  8
0
  0
POLYLINE
  8
16
 66
1
 10
0.0000
 20
0.0000
 30
0.0000
 40
0.0000
 41
0.0000
 70
1
  0
VERTEX
  8
16
 10
50.0380
 20
58.6740
 30
0.0000
  0
VERTEX
  8
16
 10
50.0380
 20
67.8180
 30
0.0000
 42
1.0000
  0
VERTEX
  8
16
 10
49.0220
 20
67.8180
 30
0.0000
  0
VERTEX
  8
16
 10
49.0220
 20
58.6740
 30
0.0000
 42
1.0000
  0
SEQEND
  8
0
  0
POLYLINE
  8
16
 66
1
 10
0.0000
 20
0.0000
 30
0.0000
 40
0.0000
 41
0.0000
 70
1
  0
VERTEX
  8
16
 10
43.7932
 20
52.2188
 30
0.0000
  0
VERTEX
  8
16
 10
49.8892
 20
58.3148
 30
0.0000
 42
1.0000
  0
VERTEX
  8
16
 10
49.1708
 20
59.0332
 30
0.0000
  0
VERTEX
  8
16
 10
43.0748
 20
52.9372
 30
0.0000
 42
1.0000
  0
SEQEND
  8
0
  0
POLYLINE
  8
16
 66
1
 10
0.0000
 20
0.0000
 30
0.0000
 40
0.0000
 41
0.0000
 70
1
  0
VERTEX
  8
16
 10
43.9420
 20
37.3380
 30
0.0000
  0
VERTEX
  8
16
 10
43.9420
 20
52.5780
 30
0.0000
 42
1.0000
  0
VERTEX
  8
16
 10
42.9260
 20
52.5780
 30
0.0000
  0
VERTEX
  8
16
 10
42.9260
 20
37.3380
 30
0.0000
 42
1.0000
  0
SEQEND
  8
0
  0
POLYLINE
  8
16
 66
1
 10
0.0000
 20
0.0000
 30
0.0000
 40
0.0000
 41
0.0000
 70
1
  0
VERTEX
  8
16
 10
40.7452
 20
33.9308
 30
0.0000
  0
VERTEX
  8
16
 10
43.7932
 20
36.9788
 30
0.0000
 42
1.0000
  0
VERTEX
  8
16
 10
43.0748
 20
37.6972
 30
0.0000
  0
VERTEX
  8
16
 10
40.0268
 20
34.6492
 30
0.0000
 42
1.0000
  0
SEQEND
  8
0
  0
POLYLINE
  8
16
 66
1
 10
0.0000
 20
0.0000
 30
0.0000
 40
0.0000
 41
0.0000
 70
1
  0
VERTEX
  8
16
 10
47.6032
 20
71.2252
 30
0.0000
  0
VERTEX
  8
16
 10
47.3492
 20
71.4792
 30
0.0000
 42
1.0000
  0
VERTEX
  8
16
 10
46.6308
 20
70.7608
 30
0.0000
  0
VERTEX
  8
16
 10
46.8848
 20
70.5068
 30
0.0000
 42
1.0000
  0
SEQEND
  8
0
  0
POLYLINE
  8
16
 66
1
 10
0.0000
 20
0.0000
 30
0.0000
 40
0.0000
 41
0.0000
 70
1
  0
VERTEX
  8
16
 10
40.3860
 20
33.7820
 30
0.0000
  0
VERTEX
  8
16
 10
40.6400
 20
33.7820
 30
0.0000
 42
1.0000
  0
VERTEX
  8
16
 10
40.6400
 20
34.7980
 30
0.0000
  0
VERTEX
  8
16
 10
40.3860
 20
34.7980
 30
0.0000
 42
1.0000
  0
SEQEND
  8
0
  0
POLYLINE
  8
16
 66
1
 10
0.0000
 20
0.0000
 30
0.0000
 40
0.0000
 41
0.0000
 70
1
  0
VERTEX
  8
16
 10
54.3560
 20
22.8600
 30
0.0000
  0
VERTEX
  8
16
 10
54.3560
 20
16.7640
 30
0.0000
 42
1.0000
  0
VERTEX
  8
16
 10
55.3720
 20
16.7640
 30
0.0000
  0
VERTEX
  8
16
 10
55.3720
 20
22.8600
 30
0.0000
 42
1.0000
  0
SEQEND
  8
0
  0
POLYLINE
  8
16
 66
1
 10
0.0000
 20
0.0000
 30
0.0000
 40
0.0000
 41
0.0000
 70
1
  0
VERTEX
  8
16
 10
54.5048
 20
17.1232
 30
0.0000
  0
VERTEX
  8
16
 10
54.2508
 20
16.8692
 30
0.0000
 42
1.0000
  0
VERTEX
  8
16
 10
54.9692
 20
16.1508
 30
0.0000
  0
VERTEX
  8
16
 10
55.2232
 20
16.4048
 30
0.0000
 42
1.0000
  0
SEQEND
  8
0
  0
POLYLINE
  8
16
 66
1
 10
0.0000
 20
0.0000
 30
0.0000
 40
0.0000
 41
0.0000
 70
1
  0
VERTEX
  8
16
 10
54.8640
 20
23.3680
 30
0.0000
  0
VERTEX
  8
16
 10
54.6100
 20
23.3680
 30
0.0000
 42
1.0000
  0
VERTEX
  8
16
 10
54.6100
 20
22.3520
 30
0.0000
  0
VERTEX
  8
16
 10
54.8640
 20
22.3520
 30
0.0000
 42
1.0000
  0
SEQEND
  8
0
  0
POLYLINE
  8
16
 66
1
 10
0.0000
 20
0.0000
 30
0.0000
 40
0.0000
 41
0.0000
 70
1
  0
VERTEX
  8
16
 10
56.6420
 20
22.8600
 30
0.0000
  0
VERTEX
  8
16
 10
56.6420
 20
16.5100
 30
0.0000
 42
1.0000
  0
VERTEX
  8
16
 10
57.6580
 20
16.5100
 30
0.0000
  0
VERTEX
  8
16
 10
57.6580
 20
22.8600
 30
0.0000
 42
1.0000
  0
SEQEND
  8
0
  0
POLYLINE
  8
16
 66
1
 10
0.0000
 20
0.0000
 30
0.0000
 40
0.0000
 41
0.0000
 70
1
  0
VERTEX
  8
16
 10
13.7160
 20
55.8800
 30
0.0000
  0
VERTEX
  8
16
 10
23.6220
 20
55.8800
 30
0.0000
 42
1.0000
  0
VERTEX
  8
16
 10
23.6220
 20
56.8960
 30
0.0000
  0
VERTEX
  8
16
 10
13.7160
 20
56.8960
 30
0.0000
 42
1.0000
  0
SEQEND
  8
0
  0
POLYLINE
  8
16
 66
1
 10
0.0000
 20
0.0000
 30
0.0000
 40
0.0000
 41
0.0000
 70
1
  0
VERTEX
  8
16
 10
10.3088
 20
59.0768
 30
0.0000
  0
VERTEX
  8
16
 10
13.3568
 20
56.0288
 30
0.0000
 42
1.0000
  0
VERTEX
  8
16
 10
14.0752
 20
56.7472
 30
0.0000
  0
VERTEX
  8
16
 10
11.0272
 20
59.7952
 30
0.0000
 42
1.0000
  0
SEQEND
  8
0
  0
POLYLINE
  8
16
 66
1
 10
0.0000
 20
0.0000
 30
0.0000
 40
0.0000
 41
0.0000
 70
1
  0
VERTEX
  8
16
 10
23.2628
 20
56.0288
 30
0.0000
  0
VERTEX
  8
16
 10
23.7708
 20
55.5208
 30
0.0000
 42
1.0000
  0
VERTEX
  8
16
 10
24.4892
 20
56.2392
 30
0.0000
  0
VERTEX
  8
16
 10
23.9812
 20
56.7472
 30
0.0000
 42
1.0000
  0
SEQEND
  8
0
  0
POLYLINE
  8
16
 66
1
 10
0.0000
 20
0.0000
 30
0.0000
 40
0.0000
 41
0.0000
 70
1
  0
VERTEX
  8
16
 10
10.7912
 20
59.9288
 30
0.0000
  0
VERTEX
  8
16
 10
10.2832
 20
60.0558
 30
0.0000
 42
1.0000
  0
VERTEX
  8
16
 10
10.0368
 20
59.0702
 30
0.0000
  0
VERTEX
  8
16
 10
10.5448
 20
58.9432
 30
0.0000
 42
1.0000
  0
SEQEND
  8
0
  0
POLYLINE
  8
16
 66
1
 10
0.0000
 20
0.0000
 30
0.0000
 40
0.0000
 41
0.0000
 70
1
  0
VERTEX
  8
16
 10
24.7432
 20
52.9808
 30
0.0000
  0
VERTEX
  8
16
 10
27.0292
 20
55.2668
 30
0.0000
 42
1.0000
  0
VERTEX
  8
16
 10
26.3108
 20
55.9852
 30
0.0000
  0
VERTEX
  8
16
 10
24.0248
 20
53.6992
 30
0.0000
 42
1.0000
  0
SEQEND
  8
0
  0
POLYLINE
  8
16
 66
1
 10
0.0000
 20
0.0000
 30
0.0000
 40
0.0000
 41
0.0000
 70
1
  0
VERTEX
  8
16
 10
11.4300
 20
52.8320
 30
0.0000
  0
VERTEX
  8
16
 10
24.3840
 20
52.8320
 30
0.0000
 42
1.0000
  0
VERTEX
  8
16
 10
24.3840
 20
53.8480
 30
0.0000
  0
VERTEX
  8
16
 10
11.4300
 20
53.8480
 30
0.0000
 42
1.0000
  0
SEQEND
  8
0
  0
POLYLINE
  8
16
 66
1
 10
0.0000
 20
0.0000
 30
0.0000
 40
0.0000
 41
0.0000
 70
1
  0
VERTEX
  8
16
 10
10.3088
 20
53.7428
 30
0.0000
  0
VERTEX
  8
16
 10
11.0708
 20
52.9808
 30
0.0000
 42
1.0000
  0
VERTEX
  8
16
 10
11.7892
 20
53.6992
 30
0.0000
  0
VERTEX
  8
16
 10
11.0272
 20
54.4612
 30
0.0000
 42
1.0000
  0
SEQEND
  8
0
  0
POLYLINE
  8
16
 66
1
 10
0.0000
 20
0.0000
 30
0.0000
 40
0.0000
 41
0.0000
 70
1
  0
VERTEX
  8
16
 10
27.1780
 20
55.6260
 30
0.0000
  0
VERTEX
  8
16
 10
27.1780
 20
55.8800
 30
0.0000
 42
1.0000
  0
VERTEX
  8
16
 10
26.1620
 20
55.8800
 30
0.0000
  0
VERTEX
  8
16
 10
26.1620
 20
55.6260
 30
0.0000
 42
1.0000
  0
SEQEND
  8
0
  0
POLYLINE
  8
16
 66
1
 10
0.0000
 20
0.0000
 30
0.0000
 40
0.0000
 41
0.0000
 70
1
  0
VERTEX
  8
16
 10
11.0179
 20
54.4703
 30
0.0000
  0
VERTEX
  8
16
 10
10.5099
 20
54.9529
 30
0.0000
 42
1.0000
  0
VERTEX
  8
16
 10
9.8101
 20
54.2163
 30
0.0000
  0
VERTEX
  8
16
 10
10.3181
 20
53.7337
 30
0.0000
 42
1.0000
  0
SEQEND
  8
0
  0
POLYLINE
  8
16
 66
1
 10
0.0000
 20
0.0000
 30
0.0000
 40
0.0000
 41
0.0000
 70
1
  0
VERTEX
  8
16
 10
29.4640
 20
54.8640
 30
0.0000
  0
VERTEX
  8
16
 10
29.4640
 20
55.6260
 30
0.0000
 42
1.0000
  0
VERTEX
  8
16
 10
28.4480
 20
55.6260
 30
0.0000
  0
VERTEX
  8
16
 10
28.4480
 20
54.8640
 30
0.0000
 42
1.0000
  0
SEQEND
  8
0
  0
POLYLINE
  8
16
 66
1
 10
0.0000
 20
0.0000
 30
0.0000
 40
0.0000
 41
0.0000
 70
1
  0
VERTEX
  8
16
 10
24.7432
 20
49.9328
 30
0.0000
  0
VERTEX
  8
16
 10
29.3152
 20
54.5048
 30
0.0000
 42
1.0000
  0
VERTEX
  8
16
 10
28.5968
 20
55.2232
 30
0.0000
  0
VERTEX
  8
16
 10
24.0248
 20
50.6512
 30
0.0000
 42
1.0000
  0
SEQEND
  8
0
  0
POLYLINE
  8
16
 66
1
 10
0.0000
 20
0.0000
 30
0.0000
 40
0.0000
 41
0.0000
 70
1
  0
VERTEX
  8
16
 10
10.6680
 20
49.7840
 30
0.0000
  0
VERTEX
  8
16
 10
24.3840
 20
49.7840
 30
0.0000
 42
1.0000
  0
VERTEX
  8
16
 10
24.3840
 20
50.8000
 30
0.0000
  0
VERTEX
  8
16
 10
10.6680
 20
50.8000
 30
0.0000
 42
1.0000
  0
SEQEND
  8
0
  0
POLYLINE
  8
16
 66
1
 10
0.0000
 20
0.0000
 30
0.0000
 40
0.0000
 41
0.0000
 70
1
  0
VERTEX
  8
16
 10
29.3152
 20
55.2668
 30
0.0000
  0
VERTEX
  8
16
 10
29.5692
 20
55.5208
 30
0.0000
 42
1.0000
  0
VERTEX
  8
16
 10
28.8508
 20
56.2392
 30
0.0000
  0
VERTEX
  8
16
 10
28.5968
 20
55.9852
 30
0.0000
 42
1.0000
  0
SEQEND
  8
0
  0
POLYLINE
  8
16
 66
1
 10
0.0000
 20
0.0000
 30
0.0000
 40
0.0000
 41
0.0000
 70
1
  0
VERTEX
  8
16
 10
10.2498
 20
50.5804
 30
0.0000
  0
VERTEX
  8
16
 10
9.7418
 20
49.8438
 30
0.0000
 42
1.0000
  0
VERTEX
  8
16
 10
10.5782
 20
49.2670
 30
0.0000
  0
VERTEX
  8
16
 10
11.0862
 20
50.0036
 30
0.0000
 42
1.0000
  0
SEQEND
  8
0
  0
POLYLINE
  8
16
 66
1
 10
0.0000
 20
0.0000
 30
0.0000
 40
0.0000
 41
0.0000
 70
1
  0
VERTEX
  8
16
 10
31.7500
 20
54.8640
 30
0.0000
  0
VERTEX
  8
16
 10
31.7500
 20
55.6260
 30
0.0000
 42
1.0000
  0
VERTEX
  8
16
 10
30.7340
 20
55.6260
 30
0.0000
  0
VERTEX
  8
16
 10
30.7340
 20
54.8640
 30
0.0000
 42
1.0000
  0
SEQEND
  8
0
  0
POLYLINE
  8
16
 66
1
 10
0.0000
 20
0.0000
 30
0.0000
 40
0.0000
 41
0.0000
 70
1
  0
VERTEX
  8
16
 10
21.6952
 20
44.5988
 30
0.0000
  0
VERTEX
  8
16
 10
31.6012
 20
54.5048
 30
0.0000
 42
1.0000
  0
VERTEX
  8
16
 10
30.8828
 20
55.2232
 30
0.0000
  0
VERTEX
  8
16
 10
20.9768
 20
45.3172
 30
0.0000
 42
1.0000
  0
SEQEND
  8
0
  0
POLYLINE
  8
16
 66
1
 10
0.0000
 20
0.0000
 30
0.0000
 40
0.0000
 41
0.0000
 70
1
  0
VERTEX
  8
16
 10
10.6680
 20
44.4500
 30
0.0000
  0
VERTEX
  8
16
 10
21.3360
 20
44.4500
 30
0.0000
 42
1.0000
  0
VERTEX
  8
16
 10
21.3360
 20
45.4660
 30
0.0000
  0
VERTEX
  8
16
 10
10.6680
 20
45.4660
 30
0.0000
 42
1.0000
  0
SEQEND
  8
0
  0
POLYLINE
  8
16
 66
1
 10
0.0000
 20
0.0000
 30
0.0000
 40
0.0000
 41
0.0000
 70
1
  0
VERTEX
  8
16
 10
31.4692
 20
55.1716
 30
0.0000
  0
VERTEX
  8
16
 10
31.9772
 20
55.4256
 30
0.0000
 42
1.0000
  0
VERTEX
  8
16
 10
31.5228
 20
56.3344
 30
0.0000
  0
VERTEX
  8
16
 10
31.0148
 20
56.0804
 30
0.0000
 42
1.0000
  0
SEQEND
  8
0
  0
POLYLINE
  8
16
 66
1
 10
0.0000
 20
0.0000
 30
0.0000
 40
0.0000
 41
0.0000
 70
1
  0
VERTEX
  8
16
 10
10.3632
 20
45.3644
 30
0.0000
  0
VERTEX
  8
16
 10
9.8552
 20
44.9834
 30
0.0000
 42
1.0000
  0
VERTEX
  8
16
 10
10.4648
 20
44.1706
 30
0.0000
  0
VERTEX
  8
16
 10
10.9728
 20
44.5516
 30
0.0000
 42
1.0000
  0
SEQEND
  8
0
  0
POLYLINE
  8
16
 66
1
 10
0.0000
 20
0.0000
 30
0.0000
 40
0.0000
 41
0.0000
 70
1
  0
VERTEX
  8
16
 10
7.1120
 20
20.5740
 30
0.0000
  0
VERTEX
  8
16
 10
7.1120
 20
17.7800
 30
0.0000
 42
1.0000
  0
VERTEX
  8
16
 10
8.1280
 20
17.7800
 30
0.0000
  0
VERTEX
  8
16
 10
8.1280
 20
20.5740
 30
0.0000
 42
1.0000
  0
SEQEND
  8
0
  0
POLYLINE
  8
16
 66
1
 10
0.0000
 20
0.0000
 30
0.0000
 40
0.0000
 41
0.0000
 70
1
  0
VERTEX
  8
16
 10
4.9748
 20
22.5008
 30
0.0000
  0
VERTEX
  8
16
 10
7.2608
 20
20.2148
 30
0.0000
 42
1.0000
  0
VERTEX
  8
16
 10
7.9792
 20
20.9332
 30
0.0000
  0
VERTEX
  8
16
 10
5.6932
 20
23.2192
 30
0.0000
 42
1.0000
  0
SEQEND
  8
0
  0
POLYLINE
  8
16
 66
1
 10
0.0000
 20
0.0000
 30
0.0000
 40
0.0000
 41
0.0000
 70
1
  0
VERTEX
  8
16
 10
4.8260
 20
34.2900
 30
0.0000
  0
VERTEX
  8
16
 10
4.8260
 20
22.8600
 30
0.0000
 42
1.0000
  0
VERTEX
  8
16
 10
5.8420
 20
22.8600
 30
0.0000
  0
VERTEX
  8
16
 10
5.8420
 20
34.2900
 30
0.0000
 42
1.0000
  0
SEQEND
  8
0
  0
POLYLINE
  8
16
 66
1
 10
0.0000
 20
0.0000
 30
0.0000
 40
0.0000
 41
0.0000
 70
1
  0
VERTEX
  8
16
 10
9.5468
 20
39.2212
 30
0.0000
  0
VERTEX
  8
16
 10
4.9748
 20
34.6492
 30
0.0000
 42
1.0000
  0
VERTEX
  8
16
 10
5.6932
 20
33.9308
 30
0.0000
  0
VERTEX
  8
16
 10
10.2652
 20
38.5028
 30
0.0000
 42
1.0000
  0
SEQEND
  8
0
  0
POLYLINE
  8
16
 66
1
 10
0.0000
 20
0.0000
 30
0.0000
 40
0.0000
 41
0.0000
 70
1
  0
VERTEX
  8
16
 10
10.3287
 20
38.5802
 30
0.0000
  0
VERTEX
  8
16
 10
10.5827
 20
38.9612
 30
0.0000
 42
1.0000
  0
VERTEX
  8
16
 10
9.7373
 20
39.5248
 30
0.0000
  0
VERTEX
  8
16
 10
9.4833
 20
39.1438
 30
0.0000
 42
1.0000
  0
SEQEND
  8
0
  0
POLYLINE
  8
16
 66
1
 10
0.0000
 20
0.0000
 30
0.0000
 40
0.0000
 41
0.0000
 70
1
  0
VERTEX
  8
16
 10
11.1760
 20
16.7640
 30
0.0000
  0
VERTEX
  8
16
 10
11.1760
 20
17.5260
 30
0.0000
 42
1.0000
  0
VERTEX
  8
16
 10
10.1600
 20
17.5260
 30
0.0000
  0
VERTEX
  8
16
 10
10.1600
 20
16.7640
 30
0.0000
 42
1.0000
  0
SEQEND
  8
0
  0
POLYLINE
  8
16
 66
1
 10
0.0000
 20
0.0000
 30
0.0000
 40
0.0000
 41
0.0000
 70
1
  0
VERTEX
  8
16
 10
12.5512
 20
15.5992
 30
0.0000
  0
VERTEX
  8
16
 10
11.0272
 20
17.1232
 30
0.0000
 42
1.0000
  0
VERTEX
  8
16
 10
10.3088
 20
16.4048
 30
0.0000
  0
VERTEX
  8
16
 10
11.8328
 20
14.8808
 30
0.0000
 42
1.0000
  0
SEQEND
  8
0
  0
POLYLINE
  8
16
 66
1
 10
0.0000
 20
0.0000
 30
0.0000
 40
0.0000
 41
0.0000
 70
1
  0
VERTEX
  8
16
 10
16.0020
 20
15.7480
 30
0.0000
  0
VERTEX
  8
16
 10
12.1920
 20
15.7480
 30
0.0000
 42
1.0000
  0
VERTEX
  8
16
 10
12.1920
 20
14.7320
 30
0.0000
  0
VERTEX
  8
16
 10
16.0020
 20
14.7320
 30
0.0000
 42
1.0000
  0
SEQEND
  8
0
  0
POLYLINE
  8
16
 66
1
 10
0.0000
 20
0.0000
 30
0.0000
 40
0.0000
 41
0.0000
 70
1
  0
VERTEX
  8
16
 10
17.9288
 20
17.8852
 30
0.0000
  0
VERTEX
  8
16
 10
15.6428
 20
15.5992
 30
0.0000
 42
1.0000
  0
VERTEX
  8
16
 10
16.3612
 20
14.8808
 30
0.0000
  0
VERTEX
  8
16
 10
18.6472
 20
17.1668
 30
0.0000
 42
1.0000
  0
SEQEND
  8
0
  0
POLYLINE
  8
16
 66
1
 10
0.0000
 20
0.0000
 30
0.0000
 40
0.0000
 41
0.0000
 70
1
  0
VERTEX
  8
16
 10
17.7800
 20
22.0980
 30
0.0000
  0
VERTEX
  8
16
 10
17.7800
 20
17.5260
 30
0.0000
 42
1.0000
  0
VERTEX
  8
16
 10
18.7960
 20
17.5260
 30
0.0000
  0
VERTEX
  8
16
 10
18.7960
 20
22.0980
 30
0.0000
 42
1.0000
  0
SEQEND
  8
0
  0
POLYLINE
  8
16
 66
1
 10
0.0000
 20
0.0000
 30
0.0000
 40
0.0000
 41
0.0000
 70
1
  0
VERTEX
  8
16
 10
18.6908
 20
23.2192
 30
0.0000
  0
VERTEX
  8
16
 10
17.9288
 20
22.4572
 30
0.0000
 42
1.0000
  0
VERTEX
  8
16
 10
18.6472
 20
21.7388
 30
0.0000
  0
VERTEX
  8
16
 10
19.4092
 20
22.5008
 30
0.0000
 42
1.0000
  0
SEQEND
  8
0
  0
POLYLINE
  8
16
 66
1
 10
0.0000
 20
0.0000
 30
0.0000
 40
0.0000
 41
0.0000
 70
1
  0
VERTEX
  8
16
 10
18.5420
 20
25.1460
 30
0.0000
  0
VERTEX
  8
16
 10
18.5420
 20
22.8600
 30
0.0000
 42
1.0000
  0
VERTEX
  8
16
 10
19.5580
 20
22.8600
 30
0.0000
  0
VERTEX
  8
16
 10
19.5580
 20
25.1460
 30
0.0000
 42
1.0000
  0
SEQEND
  8
0
  0
POLYLINE
  8
16
 66
1
 10
0.0000
 20
0.0000
 30
0.0000
 40
0.0000
 41
0.0000
 70
1
  0
VERTEX
  8
16
 10
10.3088
 20
33.1688
 30
0.0000
  0
VERTEX
  8
16
 10
18.6908
 20
24.7868
 30
0.0000
 42
1.0000
  0
VERTEX
  8
16
 10
19.4092
 20
25.5052
 30
0.0000
  0
VERTEX
  8
16
 10
11.0272
 20
33.8872
 30
0.0000
 42
1.0000
  0
SEQEND
  8
0
  0
POLYLINE
  8
16
 66
1
 10
0.0000
 20
0.0000
 30
0.0000
 40
0.0000
 41
0.0000
 70
1
  0
VERTEX
  8
16
 10
10.8952
 20
17.9804
 30
0.0000
  0
VERTEX
  8
16
 10
10.3872
 20
18.2344
 30
0.0000
 42
1.0000
  0
VERTEX
  8
16
 10
9.9328
 20
17.3256
 30
0.0000
  0
VERTEX
  8
16
 10
10.4408
 20
17.0716
 30
0.0000
 42
1.0000
  0
SEQEND
  8
0
  0
POLYLINE
  8
16
 66
1
 10
0.0000
 20
0.0000
 30
0.0000
 40
0.0000
 41
0.0000
 70
1
  0
VERTEX
  8
16
 10
11.0862
 20
33.8164
 30
0.0000
  0
VERTEX
  8
16
 10
10.5782
 20
34.5530
 30
0.0000
 42
1.0000
  0
VERTEX
  8
16
 10
9.7418
 20
33.9762
 30
0.0000
  0
VERTEX
  8
16
 10
10.2498
 20
33.2396
 30
0.0000
 42
1.0000
  0
SEQEND
  8
0
  0
POLYLINE
  8
16
 66
1
 10
0.0000
 20
0.0000
 30
0.0000
 40
0.0000
 41
0.0000
 70
1
  0
VERTEX
  8
16
 10
11.6840
 20
19.0500
 30
0.0000
  0
VERTEX
  8
16
 10
11.6840
 20
18.2880
 30
0.0000
 42
1.0000
  0
VERTEX
  8
16
 10
12.7000
 20
18.2880
 30
0.0000
  0
VERTEX
  8
16
 10
12.7000
 20
19.0500
 30
0.0000
 42
1.0000
  0
SEQEND
  8
0
  0
POLYLINE
  8
16
 66
1
 10
0.0000
 20
0.0000
 30
0.0000
 40
0.0000
 41
0.0000
 70
1
  0
VERTEX
  8
16
 10
8.7848
 20
21.7388
 30
0.0000
  0
VERTEX
  8
16
 10
11.8328
 20
18.6908
 30
0.0000
 42
1.0000
  0
VERTEX
  8
16
 10
12.5512
 20
19.4092
 30
0.0000
  0
VERTEX
  8
16
 10
9.5032
 20
22.4572
 30
0.0000
 42
1.0000
  0
SEQEND
  8
0
  0
POLYLINE
  8
16
 66
1
 10
0.0000
 20
0.0000
 30
0.0000
 40
0.0000
 41
0.0000
 70
1
  0
VERTEX
  8
16
 10
8.3820
 20
21.5900
 30
0.0000
  0
VERTEX
  8
16
 10
9.1440
 20
21.5900
 30
0.0000
 42
1.0000
  0
VERTEX
  8
16
 10
9.1440
 20
22.6060
 30
0.0000
  0
VERTEX
  8
16
 10
8.3820
 20
22.6060
 30
0.0000
 42
1.0000
  0
SEQEND
  8
0
  0
POLYLINE
  8
16
 66
1
 10
0.0000
 20
0.0000
 30
0.0000
 40
0.0000
 41
0.0000
 70
1
  0
VERTEX
  8
16
 10
6.4988
 20
23.2628
 30
0.0000
  0
VERTEX
  8
16
 10
8.0228
 20
21.7388
 30
0.0000
 42
1.0000
  0
VERTEX
  8
16
 10
8.7412
 20
22.4572
 30
0.0000
  0
VERTEX
  8
16
 10
7.2172
 20
23.9812
 30
0.0000
 42
1.0000
  0
SEQEND
  8
0
  0
POLYLINE
  8
16
 66
1
 10
0.0000
 20
0.0000
 30
0.0000
 40
0.0000
 41
0.0000
 70
1
  0
VERTEX
  8
16
 10
6.3500
 20
25.9080
 30
0.0000
  0
VERTEX
  8
16
 10
6.3500
 20
23.6220
 30
0.0000
 42
1.0000
  0
VERTEX
  8
16
 10
7.3660
 20
23.6220
 30
0.0000
  0
VERTEX
  8
16
 10
7.3660
 20
25.9080
 30
0.0000
 42
1.0000
  0
SEQEND
  8
0
  0
POLYLINE
  8
16
 66
1
 10
0.0000
 20
0.0000
 30
0.0000
 40
0.0000
 41
0.0000
 70
1
  0
VERTEX
  8
16
 10
9.5468
 20
29.3152
 30
0.0000
  0
VERTEX
  8
16
 10
6.4988
 20
26.2672
 30
0.0000
 42
1.0000
  0
VERTEX
  8
16
 10
7.2172
 20
25.5488
 30
0.0000
  0
VERTEX
  8
16
 10
10.2652
 20
28.5968
 30
0.0000
 42
1.0000
  0
SEQEND
  8
0
  0
POLYLINE
  8
16
 66
1
 10
0.0000
 20
0.0000
 30
0.0000
 40
0.0000
 41
0.0000
 70
1
  0
VERTEX
  8
16
 10
11.8328
 20
17.9288
 30
0.0000
  0
VERTEX
  8
16
 10
12.3408
 20
17.4208
 30
0.0000
 42
1.0000
  0
VERTEX
  8
16
 10
13.0592
 20
18.1392
 30
0.0000
  0
VERTEX
  8
16
 10
12.5512
 20
18.6472
 30
0.0000
 42
1.0000
  0
SEQEND
  8
0
  0
POLYLINE
  8
16
 66
1
 10
0.0000
 20
0.0000
 30
0.0000
 40
0.0000
 41
0.0000
 70
1
  0
VERTEX
  8
16
 10
10.2819
 20
28.6143
 30
0.0000
  0
VERTEX
  8
16
 10
10.5359
 20
28.8937
 30
0.0000
 42
1.0000
  0
VERTEX
  8
16
 10
9.7841
 20
29.5771
 30
0.0000
  0
VERTEX
  8
16
 10
9.5301
 20
29.2977
 30
0.0000
 42
1.0000
  0
SEQEND
  8
0
  0
POLYLINE
  8
16
 66
1
 10
0.0000
 20
0.0000
 30
0.0000
 40
0.0000
 41
0.0000
 70
1
  0
VERTEX
  8
16
 10
9.5468
 20
23.2628
 30
0.0000
  0
VERTEX
  8
16
 10
14.8808
 20
17.9288
 30
0.0000
 42
1.0000
  0
VERTEX
  8
16
 10
15.5992
 20
18.6472
 30
0.0000
  0
VERTEX
  8
16
 10
10.2652
 20
23.9812
 30
0.0000
 42
1.0000
  0
SEQEND
  8
0
  0
POLYLINE
  8
16
 66
1
 10
0.0000
 20
0.0000
 30
0.0000
 40
0.0000
 41
0.0000
 70
1
  0
VERTEX
  8
16
 10
14.7320
 20
18.2880
 30
0.0000
  0
VERTEX
  8
16
 10
14.7320
 20
17.7800
 30
0.0000
 42
1.0000
  0
VERTEX
  8
16
 10
15.7480
 20
17.7800
 30
0.0000
  0
VERTEX
  8
16
 10
15.7480
 20
18.2880
 30
0.0000
 42
1.0000
  0
SEQEND
  8
0
  0
POLYLINE
  8
16
 66
1
 10
0.0000
 20
0.0000
 30
0.0000
 40
0.0000
 41
0.0000
 70
1
  0
VERTEX
  8
16
 10
10.3777
 20
23.4333
 30
0.0000
  0
VERTEX
  8
16
 10
10.6317
 20
24.0683
 30
0.0000
 42
1.0000
  0
VERTEX
  8
16
 10
9.6883
 20
24.4457
 30
0.0000
  0
VERTEX
  8
16
 10
9.4343
 20
23.8107
 30
0.0000
 42
1.0000
  0
SEQEND
  8
0
  0
POLYLINE
  8
16
 66
1
 10
0.0000
 20
0.0000
 30
0.0000
 40
0.0000
 41
0.0000
 70
1
  0
VERTEX
  8
16
 10
71.2252
 20
57.5092
 30
0.0000
  0
VERTEX
  8
16
 10
57.5092
 20
71.2252
 30
0.0000
 42
1.0000
  0
VERTEX
  8
16
 10
56.7908
 20
70.5068
 30
0.0000
  0
VERTEX
  8
16
 10
70.5068
 20
56.7908
 30
0.0000
 42
1.0000
  0
SEQEND
  8
0
  0
POLYLINE
  8
16
 66
1
 10
0.0000
 20
0.0000
 30
0.0000
 40
0.0000
 41
0.0000
 70
1
  0
VERTEX
  8
16
 10
71.3740
 20
52.5780
 30
0.0000
  0
VERTEX
  8
16
 10
71.3740
 20
57.1500
 30
0.0000
 42
1.0000
  0
VERTEX
  8
16
 10
70.3580
 20
57.1500
 30
0.0000
  0
VERTEX
  8
16
 10
70.3580
 20
52.5780
 30
0.0000
 42
1.0000
  0
SEQEND
  8
0
  0
POLYLINE
  8
16
 66
1
 10
0.0000
 20
0.0000
 30
0.0000
 40
0.0000
 41
0.0000
 70
1
  0
VERTEX
  8
16
 10
59.7952
 20
40.7888
 30
0.0000
  0
VERTEX
  8
16
 10
71.2252
 20
52.2188
 30
0.0000
 42
1.0000
  0
VERTEX
  8
16
 10
70.5068
 20
52.9372
 30
0.0000
  0
VERTEX
  8
16
 10
59.0768
 20
41.5072
 30
0.0000
 42
1.0000
  0
SEQEND
  8
0
  0
POLYLINE
  8
16
 66
1
 10
0.0000
 20
0.0000
 30
0.0000
 40
0.0000
 41
0.0000
 70
1
  0
VERTEX
  8
16
 10
57.6580
 20
70.8660
 30
0.0000
  0
VERTEX
  8
16
 10
57.6580
 20
71.1200
 30
0.0000
 42
1.0000
  0
VERTEX
  8
16
 10
56.6420
 20
71.1200
 30
0.0000
  0
VERTEX
  8
16
 10
56.6420
 20
70.8660
 30
0.0000
 42
1.0000
  0
SEQEND
  8
0
  0
POLYLINE
  8
16
 66
1
 10
0.0000
 20
0.0000
 30
0.0000
 40
0.0000
 41
0.0000
 70
1
  0
VERTEX
  8
16
 10
58.9816
 20
40.9208
 30
0.0000
  0
VERTEX
  8
16
 10
59.2356
 20
40.4128
 30
0.0000
 42
1.0000
  0
VERTEX
  8
16
 10
60.1444
 20
40.8672
 30
0.0000
  0
VERTEX
  8
16
 10
59.8904
 20
41.3752
 30
0.0000
 42
1.0000
  0
SEQEND
  8
0
  0
POLYLINE
  8
16
 66
1
 10
0.0000
 20
0.0000
 30
0.0000
 40
0.0000
 41
0.0000
 70
1
  0
VERTEX
  8
16
 10
69.5960
 20
22.8600
 30
0.0000
  0
VERTEX
  8
16
 10
69.5960
 20
16.7640
 30
0.0000
 42
1.0000
  0
VERTEX
  8
16
 10
70.6120
 20
16.7640
 30
0.0000
  0
VERTEX
  8
16
 10
70.6120
 20
22.8600
 30
0.0000
 42
1.0000
  0
SEQEND
  8
0
  0
POLYLINE
  8
16
 66
1
 10
0.0000
 20
0.0000
 30
0.0000
 40
0.0000
 41
0.0000
 70
1
  0
VERTEX
  8
16
 10
69.7448
 20
17.1232
 30
0.0000
  0
VERTEX
  8
16
 10
69.4908
 20
16.8692
 30
0.0000
 42
1.0000
  0
VERTEX
  8
16
 10
70.2092
 20
16.1508
 30
0.0000
  0
VERTEX
  8
16
 10
70.4632
 20
16.4048
 30
0.0000
 42
1.0000
  0
SEQEND
  8
0
  0
POLYLINE
  8
16
 66
1
 10
0.0000
 20
0.0000
 30
0.0000
 40
0.0000
 41
0.0000
 70
1
  0
VERTEX
  8
16
 10
70.1040
 20
23.3680
 30
0.0000
  0
VERTEX
  8
16
 10
69.8500
 20
23.3680
 30
0.0000
 42
1.0000
  0
VERTEX
  8
16
 10
69.8500
 20
22.3520
 30
0.0000
  0
VERTEX
  8
16
 10
70.1040
 20
22.3520
 30
0.0000
 42
1.0000
  0
SEQEND
  8
0
  0
POLYLINE
  8
16
 66
1
 10
0.0000
 20
0.0000
 30
0.0000
 40
0.0000
 41
0.0000
 70
1
  0
VERTEX
  8
16
 10
25.9080
 20
1.7780
 30
0.0000
  0
VERTEX
  8
16
 10
31.2420
 20
1.7780
 30
0.0000
 42
1.0000
  0
VERTEX
  8
16
 10
31.2420
 20
2.7940
 30
0.0000
  0
VERTEX
  8
16
 10
25.9080
 20
2.7940
 30
0.0000
 42
1.0000
  0
SEQEND
  8
0
  0
POLYLINE
  8
16
 66
1
 10
0.0000
 20
0.0000
 30
0.0000
 40
0.0000
 41
0.0000
 70
1
  0
VERTEX
  8
16
 10
23.2628
 20
4.2128
 30
0.0000
  0
VERTEX
  8
16
 10
25.5488
 20
1.9268
 30
0.0000
 42
1.0000
  0
VERTEX
  8
16
 10
26.2672
 20
2.6452
 30
0.0000
  0
VERTEX
  8
16
 10
23.9812
 20
4.9312
 30
0.0000
 42
1.0000
  0
SEQEND
  8
0
  0
POLYLINE
  8
16
 66
1
 10
0.0000
 20
0.0000
 30
0.0000
 40
0.0000
 41
0.0000
 70
1
  0
VERTEX
  8
16
 10
22.0980
 20
4.0640
 30
0.0000
  0
VERTEX
  8
16
 10
23.6220
 20
4.0640
 30
0.0000
 42
1.0000
  0
VERTEX
  8
16
 10
23.6220
 20
5.0800
 30
0.0000
  0
VERTEX
  8
16
 10
22.0980
 20
5.0800
 30
0.0000
 42
1.0000
  0
SEQEND
  8
0
  0
POLYLINE
  8
16
 66
1
 10
0.0000
 20
0.0000
 30
0.0000
 40
0.0000
 41
0.0000
 70
1
  0
VERTEX
  8
16
 10
20.9332
 20
2.6888
 30
0.0000
  0
VERTEX
  8
16
 10
22.4572
 20
4.2128
 30
0.0000
 42
1.0000
  0
VERTEX
  8
16
 10
21.7388
 20
4.9312
 30
0.0000
  0
VERTEX
  8
16
 10
20.2148
 20
3.4072
 30
0.0000
 42
1.0000
  0
SEQEND
  8
0
  0
POLYLINE
  8
16
 66
1
 10
0.0000
 20
0.0000
 30
0.0000
 40
0.0000
 41
0.0000
 70
1
  0
VERTEX
  8
16
 10
31.4692
 20
1.8316
 30
0.0000
  0
VERTEX
  8
16
 10
31.9772
 20
2.0856
 30
0.0000
 42
1.0000
  0
VERTEX
  8
16
 10
31.5228
 20
2.9944
 30
0.0000
  0
VERTEX
  8
16
 10
31.0148
 20
2.7404
 30
0.0000
 42
1.0000
  0
SEQEND
  8
0
  0
POLYLINE
  8
16
 66
1
 10
0.0000
 20
0.0000
 30
0.0000
 40
0.0000
 41
0.0000
 70
1
  0
VERTEX
  8
16
 10
20.1196
 20
3.2752
 30
0.0000
  0
VERTEX
  8
16
 10
19.8656
 20
2.7672
 30
0.0000
 42
1.0000
  0
VERTEX
  8
16
 10
20.7744
 20
2.3128
 30
0.0000
  0
VERTEX
  8
16
 10
21.0284
 20
2.8208
 30
0.0000
 42
1.0000
  0
SEQEND
  8
0
  0
POLYLINE
  8
16
 66
1
 10
0.0000
 20
0.0000
 30
0.0000
 40
0.0000
 41
0.0000
 70
1
  0
VERTEX
  8
16
 10
33.7820
 20
38.1000
 30
0.0000
  0
VERTEX
  8
16
 10
33.7820
 20
35.5600
 30
0.0000
 42
1.0000
  0
VERTEX
  8
16
 10
34.7980
 20
35.5600
 30
0.0000
  0
VERTEX
  8
16
 10
34.7980
 20
38.1000
 30
0.0000
 42
1.0000
  0
SEQEND
  8
0
  0
POLYLINE
  8
16
 66
1
 10
0.0000
 20
0.0000
 30
0.0000
 40
0.0000
 41
0.0000
 70
1
  0
VERTEX
  8
16
 10
36.4708
 20
40.9992
 30
0.0000
  0
VERTEX
  8
16
 10
33.9308
 20
38.4592
 30
0.0000
 42
1.0000
  0
VERTEX
  8
16
 10
34.6492
 20
37.7408
 30
0.0000
  0
VERTEX
  8
16
 10
37.1892
 20
40.2808
 30
0.0000
 42
1.0000
  0
SEQEND
  8
0
  0
POLYLINE
  8
16
 66
1
 10
0.0000
 20
0.0000
 30
0.0000
 40
0.0000
 41
0.0000
 70
1
  0
VERTEX
  8
16
 10
59.6900
 20
22.8600
 30
0.0000
  0
VERTEX
  8
16
 10
59.6900
 20
16.7640
 30
0.0000
 42
1.0000
  0
VERTEX
  8
16
 10
60.7060
 20
16.7640
 30
0.0000
  0
VERTEX
  8
16
 10
60.7060
 20
22.8600
 30
0.0000
 42
1.0000
  0
SEQEND
  8
0
  0
POLYLINE
  8
16
 66
1
 10
0.0000
 20
0.0000
 30
0.0000
 40
0.0000
 41
0.0000
 70
1
  0
VERTEX
  8
16
 10
59.9708
 20
17.2184
 30
0.0000
  0
VERTEX
  8
16
 10
59.4628
 20
16.9644
 30
0.0000
 42
1.0000
  0
VERTEX
  8
16
 10
59.9172
 20
16.0556
 30
0.0000
  0
VERTEX
  8
16
 10
60.4252
 20
16.3096
 30
0.0000
 42
1.0000
  0
SEQEND
  8
0
  0
POLYLINE
  8
16
 66
1
 10
0.0000
 20
0.0000
 30
0.0000
 40
0.0000
 41
0.0000
 70
1
  0
VERTEX
  8
16
 10
60.1980
 20
23.3680
 30
0.0000
  0
VERTEX
  8
16
 10
59.6900
 20
23.3680
 30
0.0000
 42
1.0000
  0
VERTEX
  8
16
 10
59.6900
 20
22.3520
 30
0.0000
  0
VERTEX
  8
16
 10
60.1980
 20
22.3520
 30
0.0000
 42
1.0000
  0
SEQEND
  8
0
  0
POLYLINE
  8
16
 66
1
 10
0.0000
 20
0.0000
 30
0.0000
 40
0.0000
 41
0.0000
 70
1
  0
VERTEX
  8
16
 10
38.1000
 20
66.8020
 30
0.0000
  0
VERTEX
  8
16
 10
35.8140
 20
66.8020
 30
0.0000
 42
1.0000
  0
VERTEX
  8
16
 10
35.8140
 20
65.7860
 30
0.0000
  0
VERTEX
  8
16
 10
38.1000
 20
65.7860
 30
0.0000
 42
1.0000
  0
SEQEND
  8
0
  0
POLYLINE
  8
16
 66
1
 10
0.0000
 20
0.0000
 30
0.0000
 40
0.0000
 41
0.0000
 70
1
  0
VERTEX
  8
16
 10
35.8140
 20
66.8020
 30
0.0000
  0
VERTEX
  8
16
 10
33.5280
 20
66.8020
 30
0.0000
 42
1.0000
  0
VERTEX
  8
16
 10
33.5280
 20
65.7860
 30
0.0000
  0
VERTEX
  8
16
 10
35.8140
 20
65.7860
 30
0.0000
 42
1.0000
  0
SEQEND
  8
0
  0
POLYLINE
  8
16
 66
1
 10
0.0000
 20
0.0000
 30
0.0000
 40
0.0000
 41
0.0000
 70
1
  0
VERTEX
  8
16
 10
33.3008
 20
66.7484
 30
0.0000
  0
VERTEX
  8
16
 10
32.7928
 20
66.4944
 30
0.0000
 42
1.0000
  0
VERTEX
  8
16
 10
33.2472
 20
65.5856
 30
0.0000
  0
VERTEX
  8
16
 10
33.7552
 20
65.8396
 30
0.0000
 42
1.0000
  0
SEQEND
  8
0
  0
POLYLINE
  8
16
 66
1
 10
0.0000
 20
0.0000
 30
0.0000
 40
0.0000
 41
0.0000
 70
1
  0
VERTEX
  8
16
 10
37.5920
 20
66.2940
 30
0.0000
  0
VERTEX
  8
16
 10
37.5920
 20
66.0400
 30
0.0000
 42
1.0000
  0
VERTEX
  8
16
 10
38.6080
 20
66.0400
 30
0.0000
  0
VERTEX
  8
16
 10
38.6080
 20
66.2940
 30
0.0000
 42
1.0000
  0
SEQEND
  8
0
  0
POLYLINE
  8
16
 66
1
 10
0.0000
 20
0.0000
 30
0.0000
 40
0.0000
 41
0.0000
 70
1
  0
VERTEX
  8
16
 10
36.3220
 20
66.2940
 30
0.0000
  0
VERTEX
  8
16
 10
36.3220
 20
70.8660
 30
0.0000
 42
1.0000
  0
VERTEX
  8
16
 10
35.3060
 20
70.8660
 30
0.0000
  0
VERTEX
  8
16
 10
35.3060
 20
66.2940
 30
0.0000
 42
1.0000
  0
SEQEND
  8
0
  0
POLYLINE
  8
16
 66
1
 10
0.0000
 20
0.0000
 30
0.0000
 40
0.0000
 41
0.0000
 70
1
  0
VERTEX
  8
16
 10
36.0412
 20
71.3204
 30
0.0000
  0
VERTEX
  8
16
 10
35.5332
 20
71.5744
 30
0.0000
 42
1.0000
  0
VERTEX
  8
16
 10
35.0788
 20
70.6656
 30
0.0000
  0
VERTEX
  8
16
 10
35.5868
 20
70.4116
 30
0.0000
 42
1.0000
  0
SEQEND
  8
0
  0
POLYLINE
  8
16
 66
1
 10
0.0000
 20
0.0000
 30
0.0000
 40
0.0000
 41
0.0000
 70
1
  0
VERTEX
  8
16
 10
71.8820
 20
20.5740
 30
0.0000
  0
VERTEX
  8
16
 10
71.8820
 20
16.5100
 30
0.0000
 42
1.0000
  0
VERTEX
  8
16
 10
72.8980
 20
16.5100
 30
0.0000
  0
VERTEX
  8
16
 10
72.8980
 20
20.5740
 30
0.0000
 42
1.0000
  0
SEQEND
  8
0
  0
POLYLINE
  8
16
 66
1
 10
0.0000
 20
0.0000
 30
0.0000
 40
0.0000
 41
0.0000
 70
1
  0
VERTEX
  8
16
 10
74.3168
 20
23.2192
 30
0.0000
  0
VERTEX
  8
16
 10
72.0308
 20
20.9332
 30
0.0000
 42
1.0000
  0
VERTEX
  8
16
 10
72.7492
 20
20.2148
 30
0.0000
  0
VERTEX
  8
16
 10
75.0352
 20
22.5008
 30
0.0000
 42
1.0000
  0
SEQEND
  8
0
  0
POLYLINE
  8
16
 66
1
 10
0.0000
 20
0.0000
 30
0.0000
 40
0.0000
 41
0.0000
 70
1
  0
VERTEX
  8
16
 10
74.6760
 20
22.3520
 30
0.0000
  0
VERTEX
  8
16
 10
74.9300
 20
22.3520
 30
0.0000
 42
1.0000
  0
VERTEX
  8
16
 10
74.9300
 20
23.3680
 30
0.0000
  0
VERTEX
  8
16
 10
74.6760
 20
23.3680
 30
0.0000
 42
1.0000
  0
SEQEND
  8
0
  0
POLYLINE
  8
16
 66
1
 10
0.0000
 20
0.0000
 30
0.0000
 40
0.0000
 41
0.0000
 70
1
  0
VERTEX
  8
16
 10
61.9760
 20
22.8600
 30
0.0000
  0
VERTEX
  8
16
 10
61.9760
 20
16.7640
 30
0.0000
 42
1.0000
  0
VERTEX
  8
16
 10
62.9920
 20
16.7640
 30
0.0000
  0
VERTEX
  8
16
 10
62.9920
 20
22.8600
 30
0.0000
 42
1.0000
  0
SEQEND
  8
0
  0
POLYLINE
  8
16
 66
1
 10
0.0000
 20
0.0000
 30
0.0000
 40
0.0000
 41
0.0000
 70
1
  0
VERTEX
  8
16
 10
62.1248
 20
17.1232
 30
0.0000
  0
VERTEX
  8
16
 10
61.8708
 20
16.8692
 30
0.0000
 42
1.0000
  0
VERTEX
  8
16
 10
62.5892
 20
16.1508
 30
0.0000
  0
VERTEX
  8
16
 10
62.8432
 20
16.4048
 30
0.0000
 42
1.0000
  0
SEQEND
  8
0
  0
POLYLINE
  8
16
 66
1
 10
0.0000
 20
0.0000
 30
0.0000
 40
0.0000
 41
0.0000
 70
1
  0
VERTEX
  8
16
 10
62.4840
 20
23.3680
 30
0.0000
  0
VERTEX
  8
16
 10
62.2300
 20
23.3680
 30
0.0000
 42
1.0000
  0
VERTEX
  8
16
 10
62.2300
 20
22.3520
 30
0.0000
  0
VERTEX
  8
16
 10
62.4840
 20
22.3520
 30
0.0000
 42
1.0000
  0
SEQEND
  8
0
  0
POLYLINE
  8
16
 66
1
 10
0.0000
 20
0.0000
 30
0.0000
 40
0.0000
 41
0.0000
 70
1
  0
VERTEX
  8
16
 10
64.2620
 20
22.8600
 30
0.0000
  0
VERTEX
  8
16
 10
64.2620
 20
16.5100
 30
0.0000
 42
1.0000
  0
VERTEX
  8
16
 10
65.2780
 20
16.5100
 30
0.0000
  0
VERTEX
  8
16
 10
65.2780
 20
22.8600
 30
0.0000
 42
1.0000
  0
SEQEND
  8
0
  0
POLYLINE
  8
16
 66
1
 10
0.0000
 20
0.0000
 30
0.0000
 40
0.0000
 41
0.0000
 70
1
  0
VERTEX
  8
16
 10
52.0700
 20
22.8600
 30
0.0000
  0
VERTEX
  8
16
 10
52.0700
 20
16.7640
 30
0.0000
 42
1.0000
  0
VERTEX
  8
16
 10
53.0860
 20
16.7640
 30
0.0000
  0
VERTEX
  8
16
 10
53.0860
 20
22.8600
 30
0.0000
 42
1.0000
  0
SEQEND
  8
0
  0
POLYLINE
  8
16
 66
1
 10
0.0000
 20
0.0000
 30
0.0000
 40
0.0000
 41
0.0000
 70
1
  0
VERTEX
  8
16
 10
52.3508
 20
17.2184
 30
0.0000
  0
VERTEX
  8
16
 10
51.8428
 20
16.9644
 30
0.0000
 42
1.0000
  0
VERTEX
  8
16
 10
52.2972
 20
16.0556
 30
0.0000
  0
VERTEX
  8
16
 10
52.8052
 20
16.3096
 30
0.0000
 42
1.0000
  0
SEQEND
  8
0
  0
POLYLINE
  8
16
 66
1
 10
0.0000
 20
0.0000
 30
0.0000
 40
0.0000
 41
0.0000
 70
1
  0
VERTEX
  8
16
 10
52.5780
 20
23.3680
 30
0.0000
  0
VERTEX
  8
16
 10
52.0700
 20
23.3680
 30
0.0000
 42
1.0000
  0
VERTEX
  8
16
 10
52.0700
 20
22.3520
 30
0.0000
  0
VERTEX
  8
16
 10
52.5780
 20
22.3520
 30
0.0000
 42
1.0000
  0
SEQEND
  8
0
  0
POLYLINE
  8
16
 66
1
 10
0.0000
 20
0.0000
 30
0.0000
 40
0.0000
 41
0.0000
 70
1
  0
VERTEX
  8
16
 10
67.3100
 20
22.8600
 30
0.0000
  0
VERTEX
  8
16
 10
67.3100
 20
16.7640
 30
0.0000
 42
1.0000
  0
VERTEX
  8
16
 10
68.3260
 20
16.7640
 30
0.0000
  0
VERTEX
  8
16
 10
68.3260
 20
22.8600
 30
0.0000
 42
1.0000
  0
SEQEND
  8
0
  0
POLYLINE
  8
16
 66
1
 10
0.0000
 20
0.0000
 30
0.0000
 40
0.0000
 41
0.0000
 70
1
  0
VERTEX
  8
16
 10
67.5908
 20
17.2184
 30
0.0000
  0
VERTEX
  8
16
 10
67.0828
 20
16.9644
 30
0.0000
 42
1.0000
  0
VERTEX
  8
16
 10
67.5372
 20
16.0556
 30
0.0000
  0
VERTEX
  8
16
 10
68.0452
 20
16.3096
 30
0.0000
 42
1.0000
  0
SEQEND
  8
0
  0
POLYLINE
  8
16
 66
1
 10
0.0000
 20
0.0000
 30
0.0000
 40
0.0000
 41
0.0000
 70
1
  0
VERTEX
  8
16
 10
67.8180
 20
23.3680
 30
0.0000
  0
VERTEX
  8
16
 10
67.3100
 20
23.3680
 30
0.0000
 42
1.0000
  0
VERTEX
  8
16
 10
67.3100
 20
22.3520
 30
0.0000
  0
VERTEX
  8
16
 10
67.8180
 20
22.3520
 30
0.0000
 42
1.0000
  0
SEQEND
  8
0
  0
POLYLINE
  8
16
 66
1
 10
0.0000
 20
0.0000
 30
0.0000
 40
0.0000
 41
0.0000
 70
1
  0
VERTEX
  8
16
 10
0.0000
 20
79.8068
 30
0.0000
  0
VERTEX
  8
16
 10
105.4100
 20
79.8068
 30
0.0000
 42
1.0000
  0
VERTEX
  8
16
 10
105.4100
 20
80.2132
 30
0.0000
  0
VERTEX
  8
16
 10
0.0000
 20
80.2132
 30
0.0000
 42
1.0000
  0
SEQEND
  8
0
  0
POLYLINE
  8
16
 66
1
 10
0.0000
 20
0.0000
 30
0.0000
 40
0.0000
 41
0.0000
 70
1
  0
VERTEX
  8
16
 10
105.2068
 20
80.0100
 30
0.0000
  0
VERTEX
  8
16
 10
105.2068
 20
0.0000
 30
0.0000
 42
1.0000
  0
VERTEX
  8
16
 10
105.6132
 20
0.0000
 30
0.0000
  0
VERTEX
  8
16
 10
105.6132
 20
80.0100
 30
0.0000
 42
1.0000
  0
SEQEND
  8
0
  0
POLYLINE
  8
16
 66
1
 10
0.0000
 20
0.0000
 30
0.0000
 40
0.0000
 41
0.0000
 70
1
  0
VERTEX
  8
16
 10
105.4100
 20
0.2032
 30
0.0000
  0
VERTEX
  8
16
 10
0.0000
 20
0.2032
 30
0.0000
 42
1.0000
  0
VERTEX
  8
16
 10
0.0000
 20
-0.2032
 30
0.0000
  0
VERTEX
  8
16
 10
105.4100
 20
-0.2032
 30
0.0000
 42
1.0000
  0
SEQEND
  8
0
  0
POLYLINE
  8
16
 66
1
 10
0.0000
 20
0.0000
 30
0.0000
 40
0.0000
 41
0.0000
 70
1
  0
VERTEX
  8
16
 10
0.2032
 20
0.0000
 30
0.0000
  0
VERTEX
  8
16
 10
0.2032
 20
80.0100
 30
0.0000
 42
1.0000
  0
VERTEX
  8
16
 10
-0.2032
 20
80.0100
 30
0.0000
  0
VERTEX
  8
16
 10
-0.2032
 20
0.0000
 30
0.0000
 42
1.0000
  0
SEQEND
  8
0
  0
POLYLINE
  8
16
 66
1
 10
0.0000
 20
0.0000
 30
0.0000
 40
0.0000
 41
0.0000
 70
1
  0
VERTEX
  8
16
 10
38.8620
 20
63.7540
 30
0.0000
  0
VERTEX
  8
16
 10
33.5280
 20
63.7540
 30
0.0000
 42
1.0000
  0
VERTEX
  8
16
 10
33.5280
 20
62.7380
 30
0.0000
  0
VERTEX
  8
16
 10
38.8620
 20
62.7380
 30
0.0000
 42
1.0000
  0
SEQEND
  8
0
  0
POLYLINE
  8
16
 66
1
 10
0.0000
 20
0.0000
 30
0.0000
 40
0.0000
 41
0.0000
 70
1
  0
VERTEX
  8
16
 10
40.7888
 20
65.8912
 30
0.0000
  0
VERTEX
  8
16
 10
38.5028
 20
63.6052
 30
0.0000
 42
1.0000
  0
VERTEX
  8
16
 10
39.2212
 20
62.8868
 30
0.0000
  0
VERTEX
  8
16
 10
41.5072
 20
65.1728
 30
0.0000
 42
1.0000
  0
SEQEND
  8
0
  0
POLYLINE
  8
16
 66
1
 10
0.0000
 20
0.0000
 30
0.0000
 40
0.0000
 41
0.0000
 70
1
  0
VERTEX
  8
16
 10
33.7552
 20
63.7004
 30
0.0000
  0
VERTEX
  8
16
 10
33.2472
 20
63.9544
 30
0.0000
 42
1.0000
  0
VERTEX
  8
16
 10
32.7928
 20
63.0456
 30
0.0000
  0
VERTEX
  8
16
 10
33.3008
 20
62.7916
 30
0.0000
 42
1.0000
  0
SEQEND
  8
0
  0
POLYLINE
  8
16
 66
1
 10
0.0000
 20
0.0000
 30
0.0000
 40
0.0000
 41
0.0000
 70
1
  0
VERTEX
  8
16
 10
41.5072
 20
65.8912
 30
0.0000
  0
VERTEX
  8
16
 10
40.9992
 20
66.3992
 30
0.0000
 42
1.0000
  0
VERTEX
  8
16
 10
40.2808
 20
65.6808
 30
0.0000
  0
VERTEX
  8
16
 10
40.7888
 20
65.1728
 30
0.0000
 42
1.0000
  0
SEQEND
  8
0
  0
POLYLINE
  8
16
 66
1
 10
0.0000
 20
0.0000
 30
0.0000
 40
0.0000
 41
0.0000
 70
1
  0
VERTEX
  8
16
 10
38.6080
 20
69.3420
 30
0.0000
  0
VERTEX
  8
16
 10
38.6080
 20
70.8660
 30
0.0000
 42
1.0000
  0
VERTEX
  8
16
 10
37.5920
 20
70.8660
 30
0.0000
  0
VERTEX
  8
16
 10
37.5920
 20
69.3420
 30
0.0000
 42
1.0000
  0
SEQEND
  8
0
  0
POLYLINE
  8
16
 66
1
 10
0.0000
 20
0.0000
 30
0.0000
 40
0.0000
 41
0.0000
 70
1
  0
VERTEX
  8
16
 10
41.5072
 20
66.6532
 30
0.0000
  0
VERTEX
  8
16
 10
38.4592
 20
69.7012
 30
0.0000
 42
1.0000
  0
VERTEX
  8
16
 10
37.7408
 20
68.9828
 30
0.0000
  0
VERTEX
  8
16
 10
40.7888
 20
65.9348
 30
0.0000
 42
1.0000
  0
SEQEND
  8
0
  0
POLYLINE
  8
16
 66
1
 10
0.0000
 20
0.0000
 30
0.0000
 40
0.0000
 41
0.0000
 70
1
  0
VERTEX
  8
16
 10
38.4592
 20
71.2252
 30
0.0000
  0
VERTEX
  8
16
 10
38.2052
 20
71.4792
 30
0.0000
 42
1.0000
  0
VERTEX
  8
16
 10
37.4868
 20
70.7608
 30
0.0000
  0
VERTEX
  8
16
 10
37.7408
 20
70.5068
 30
0.0000
 42
1.0000
  0
SEQEND
  8
0
  0
POLYLINE
  8
16
 66
1
 10
0.0000
 20
0.0000
 30
0.0000
 40
0.0000
 41
0.0000
 70
1
  0
VERTEX
  8
16
 10
40.9208
 20
66.7484
 30
0.0000
  0
VERTEX
  8
16
 10
40.4128
 20
66.4944
 30
0.0000
 42
1.0000
  0
VERTEX
  8
16
 10
40.8672
 20
65.5856
 30
0.0000
  0
VERTEX
  8
16
 10
41.3752
 20
65.8396
 30
0.0000
 42
1.0000
  0
SEQEND
  8
0
  0
POLYLINE
  8
16
 66
1
 10
0.0000
 20
0.0000
 30
0.0000
 40
0.0000
 41
0.0000
 70
1
  0
VERTEX
  8
16
 10
76.6028
 20
47.6032
 30
0.0000
  0
VERTEX
  8
16
 10
75.0788
 20
46.0792
 30
0.0000
 42
1.0000
  0
VERTEX
  8
16
 10
75.7972
 20
45.3608
 30
0.0000
  0
VERTEX
  8
16
 10
77.3212
 20
46.8848
 30
0.0000
 42
1.0000
  0
SEQEND
  8
0
  0
POLYLINE
  8
16
 66
1
 10
0.0000
 20
0.0000
 30
0.0000
 40
0.0000
 41
0.0000
 70
1
  0
VERTEX
  8
16
 10
76.4540
 20
49.5300
 30
0.0000
  0
VERTEX
  8
16
 10
76.4540
 20
47.2440
 30
0.0000
 42
1.0000
  0
VERTEX
  8
16
 10
77.4700
 20
47.2440
 30
0.0000
  0
VERTEX
  8
16
 10
77.4700
 20
49.5300
 30
0.0000
 42
1.0000
  0
SEQEND
  8
0
  0
POLYLINE
  8
16
 66
1
 10
0.0000
 20
0.0000
 30
0.0000
 40
0.0000
 41
0.0000
 70
1
  0
VERTEX
  8
16
 10
76.9620
 20
49.0220
 30
0.0000
  0
VERTEX
  8
16
 10
77.4700
 20
49.0220
 30
0.0000
 42
1.0000
  0
VERTEX
  8
16
 10
77.4700
 20
50.0380
 30
0.0000
  0
VERTEX
  8
16
 10
76.9620
 20
50.0380
 30
0.0000
 42
1.0000
  0
SEQEND
  8
0
  0
POLYLINE
  8
16
 66
1
 10
0.0000
 20
0.0000
 30
0.0000
 40
0.0000
 41
0.0000
 70
1
  0
VERTEX
  8
16
 10
76.4540
 20
44.1960
 30
0.0000
  0
VERTEX
  8
16
 10
76.4540
 20
41.9100
 30
0.0000
 42
1.0000
  0
VERTEX
  8
16
 10
77.4700
 20
41.9100
 30
0.0000
  0
VERTEX
  8
16
 10
77.4700
 20
44.1960
 30
0.0000
 42
1.0000
  0
SEQEND
  8
0
  0
POLYLINE
  8
16
 66
1
 10
0.0000
 20
0.0000
 30
0.0000
 40
0.0000
 41
0.0000
 70
1
  0
VERTEX
  8
16
 10
75.0788
 20
45.3608
 30
0.0000
  0
VERTEX
  8
16
 10
76.6028
 20
43.8368
 30
0.0000
 42
1.0000
  0
VERTEX
  8
16
 10
77.3212
 20
44.5552
 30
0.0000
  0
VERTEX
  8
16
 10
75.7972
 20
46.0792
 30
0.0000
 42
1.0000
  0
SEQEND
  8
0
  0
POLYLINE
  8
16
 66
1
 10
0.0000
 20
0.0000
 30
0.0000
 40
0.0000
 41
0.0000
 70
1
  0
VERTEX
  8
16
 10
76.9620
 20
41.4020
 30
0.0000
  0
VERTEX
  8
16
 10
77.4700
 20
41.4020
 30
0.0000
 42
1.0000
  0
VERTEX
  8
16
 10
77.4700
 20
42.4180
 30
0.0000
  0
VERTEX
  8
16
 10
76.9620
 20
42.4180
 30
0.0000
 42
1.0000
  0
SEQEND
  8
0
  0
POLYLINE
  8
16
 66
1
 10
0.0000
 20
0.0000
 30
0.0000
 40
0.0000
 41
0.0000
 70
1
  0
VERTEX
  8
16
 10
75.4380
 20
46.2280
 30
0.0000
  0
VERTEX
  8
16
 10
74.9300
 20
46.2280
 30
0.0000
 42
1.0000
  0
VERTEX
  8
16
 10
74.9300
 20
45.2120
 30
0.0000
  0
VERTEX
  8
16
 10
75.4380
 20
45.2120
 30
0.0000
 42
1.0000
  0
SEQEND
  8
0
  0
POLYLINE
  8
16
 66
1
 10
0.0000
 20
0.0000
 30
0.0000
 40
0.0000
 41
0.0000
 70
1
  0
VERTEX
  8
16
 10
88.1380
 20
60.9600
 30
0.0000
  0
VERTEX
  8
16
 10
88.1380
 20
71.1200
 30
0.0000
 42
1.0000
  0
VERTEX
  8
16
 10
87.1220
 20
71.1200
 30
0.0000
  0
VERTEX
  8
16
 10
87.1220
 20
60.9600
 30
0.0000
 42
1.0000
  0
SEQEND
  8
0
  0
POLYLINE
  8
16
 66
1
 10
0.0000
 20
0.0000
 30
0.0000
 40
0.0000
 41
0.0000
 70
1
  0
VERTEX
  8
16
 10
78.0832
 20
50.6948
 30
0.0000
  0
VERTEX
  8
16
 10
87.9892
 20
60.6008
 30
0.0000
 42
1.0000
  0
VERTEX
  8
16
 10
87.2708
 20
61.3192
 30
0.0000
  0
VERTEX
  8
16
 10
77.3648
 20
51.4132
 30
0.0000
 42
1.0000
  0
SEQEND
  8
0
  0
POLYLINE
  8
16
 66
1
 10
0.0000
 20
0.0000
 30
0.0000
 40
0.0000
 41
0.0000
 70
1
  0
VERTEX
  8
16
 10
78.2320
 20
49.5300
 30
0.0000
  0
VERTEX
  8
16
 10
78.2320
 20
51.0540
 30
0.0000
 42
1.0000
  0
VERTEX
  8
16
 10
77.2160
 20
51.0540
 30
0.0000
  0
VERTEX
  8
16
 10
77.2160
 20
49.5300
 30
0.0000
 42
1.0000
  0
SEQEND
  8
0
  0
POLYLINE
  8
16
 66
1
 10
0.0000
 20
0.0000
 30
0.0000
 40
0.0000
 41
0.0000
 70
1
  0
VERTEX
  8
16
 10
77.7240
 20
50.0380
 30
0.0000
  0
VERTEX
  8
16
 10
77.4700
 20
50.0380
 30
0.0000
 42
1.0000
  0
VERTEX
  8
16
 10
77.4700
 20
49.0220
 30
0.0000
  0
VERTEX
  8
16
 10
77.7240
 20
49.0220
 30
0.0000
 42
1.0000
  0
SEQEND
  8
0
  0
POLYLINE
  8
16
 66
1
 10
0.0000
 20
0.0000
 30
0.0000
 40
0.0000
 41
0.0000
 70
1
  0
VERTEX
  8
16
 10
75.9460
 20
49.5300
 30
0.0000
  0
VERTEX
  8
16
 10
75.9460
 20
53.3400
 30
0.0000
 42
1.0000
  0
VERTEX
  8
16
 10
74.9300
 20
53.3400
 30
0.0000
  0
VERTEX
  8
16
 10
74.9300
 20
49.5300
 30
0.0000
 42
1.0000
  0
SEQEND
  8
0
  0
POLYLINE
  8
16
 66
1
 10
0.0000
 20
0.0000
 30
0.0000
 40
0.0000
 41
0.0000
 70
1
  0
VERTEX
  8
16
 10
75.4380
 20
50.0380
 30
0.0000
  0
VERTEX
  8
16
 10
74.9300
 20
50.0380
 30
0.0000
 42
1.0000
  0
VERTEX
  8
16
 10
74.9300
 20
49.0220
 30
0.0000
  0
VERTEX
  8
16
 10
75.4380
 20
49.0220
 30
0.0000
 42
1.0000
  0
SEQEND
  8
0
  0
POLYLINE
  8
16
 66
1
 10
0.0000
 20
0.0000
 30
0.0000
 40
0.0000
 41
0.0000
 70
1
  0
VERTEX
  8
16
 10
80.5180
 20
41.1480
 30
0.0000
  0
VERTEX
  8
16
 10
80.5180
 20
41.9100
 30
0.0000
 42
1.0000
  0
VERTEX
  8
16
 10
79.5020
 20
41.9100
 30
0.0000
  0
VERTEX
  8
16
 10
79.5020
 20
41.1480
 30
0.0000
 42
1.0000
  0
SEQEND
  8
0
  0
POLYLINE
  8
16
 66
1
 10
0.0000
 20
0.0000
 30
0.0000
 40
0.0000
 41
0.0000
 70
1
  0
VERTEX
  8
16
 10
78.0832
 20
38.5028
 30
0.0000
  0
VERTEX
  8
16
 10
80.3692
 20
40.7888
 30
0.0000
 42
1.0000
  0
VERTEX
  8
16
 10
79.6508
 20
41.5072
 30
0.0000
  0
VERTEX
  8
16
 10
77.3648
 20
39.2212
 30
0.0000
 42
1.0000
  0
SEQEND
  8
0
  0
POLYLINE
  8
16
 66
1
 10
0.0000
 20
0.0000
 30
0.0000
 40
0.0000
 41
0.0000
 70
1
  0
VERTEX
  8
16
 10
74.6760
 20
38.3540
 30
0.0000
  0
VERTEX
  8
16
 10
77.7240
 20
38.3540
 30
0.0000
 42
1.0000
  0
VERTEX
  8
16
 10
77.7240
 20
39.3700
 30
0.0000
  0
VERTEX
  8
16
 10
74.6760
 20
39.3700
 30
0.0000
 42
1.0000
  0
SEQEND
  8
0
  0
POLYLINE
  8
16
 66
1
 10
0.0000
 20
0.0000
 30
0.0000
 40
0.0000
 41
0.0000
 70
1
  0
VERTEX
  8
16
 10
72.7928
 20
40.0268
 30
0.0000
  0
VERTEX
  8
16
 10
74.3168
 20
38.5028
 30
0.0000
 42
1.0000
  0
VERTEX
  8
16
 10
75.0352
 20
39.2212
 30
0.0000
  0
VERTEX
  8
16
 10
73.5112
 20
40.7452
 30
0.0000
 42
1.0000
  0
SEQEND
  8
0
  0
POLYLINE
  8
16
 66
1
 10
0.0000
 20
0.0000
 30
0.0000
 40
0.0000
 41
0.0000
 70
1
  0
VERTEX
  8
16
 10
72.6440
 20
48.0060
 30
0.0000
  0
VERTEX
  8
16
 10
72.6440
 20
40.3860
 30
0.0000
 42
1.0000
  0
VERTEX
  8
16
 10
73.6600
 20
40.3860
 30
0.0000
  0
VERTEX
  8
16
 10
73.6600
 20
48.0060
 30
0.0000
 42
1.0000
  0
SEQEND
  8
0
  0
POLYLINE
  8
16
 66
1
 10
0.0000
 20
0.0000
 30
0.0000
 40
0.0000
 41
0.0000
 70
1
  0
VERTEX
  8
16
 10
74.3168
 20
49.8892
 30
0.0000
  0
VERTEX
  8
16
 10
72.7928
 20
48.3652
 30
0.0000
 42
1.0000
  0
VERTEX
  8
16
 10
73.5112
 20
47.6468
 30
0.0000
  0
VERTEX
  8
16
 10
75.0352
 20
49.1708
 30
0.0000
 42
1.0000
  0
SEQEND
  8
0
  0
POLYLINE
  8
16
 66
1
 10
0.0000
 20
0.0000
 30
0.0000
 40
0.0000
 41
0.0000
 70
1
  0
VERTEX
  8
16
 10
74.6760
 20
49.0220
 30
0.0000
  0
VERTEX
  8
16
 10
74.9300
 20
49.0220
 30
0.0000
 42
1.0000
  0
VERTEX
  8
16
 10
74.9300
 20
50.0380
 30
0.0000
  0
VERTEX
  8
16
 10
74.6760
 20
50.0380
 30
0.0000
 42
1.0000
  0
SEQEND
  8
0
  0
POLYLINE
  8
16
 66
1
 10
0.0000
 20
0.0000
 30
0.0000
 40
0.0000
 41
0.0000
 70
1
  0
VERTEX
  8
16
 10
85.0900
 20
62.4840
 30
0.0000
  0
VERTEX
  8
16
 10
85.0900
 20
70.8660
 30
0.0000
 42
1.0000
  0
VERTEX
  8
16
 10
84.0740
 20
70.8660
 30
0.0000
  0
VERTEX
  8
16
 10
84.0740
 20
62.4840
 30
0.0000
 42
1.0000
  0
SEQEND
  8
0
  0
POLYLINE
  8
16
 66
1
 10
0.0000
 20
0.0000
 30
0.0000
 40
0.0000
 41
0.0000
 70
1
  0
VERTEX
  8
16
 10
75.7972
 20
52.9808
 30
0.0000
  0
VERTEX
  8
16
 10
84.9412
 20
62.1248
 30
0.0000
 42
1.0000
  0
VERTEX
  8
16
 10
84.2228
 20
62.8432
 30
0.0000
  0
VERTEX
  8
16
 10
75.0788
 20
53.6992
 30
0.0000
 42
1.0000
  0
SEQEND
  8
0
  0
POLYLINE
  8
16
 66
1
 10
0.0000
 20
0.0000
 30
0.0000
 40
0.0000
 41
0.0000
 70
1
  0
VERTEX
  8
16
 10
84.8092
 20
70.4116
 30
0.0000
  0
VERTEX
  8
16
 10
85.3172
 20
70.6656
 30
0.0000
 42
1.0000
  0
VERTEX
  8
16
 10
84.8628
 20
71.5744
 30
0.0000
  0
VERTEX
  8
16
 10
84.3548
 20
71.3204
 30
0.0000
 42
1.0000
  0
SEQEND
  8
0
  0
POLYLINE
  8
16
 66
1
 10
0.0000
 20
0.0000
 30
0.0000
 40
0.0000
 41
0.0000
 70
1
  0
VERTEX
  8
16
 10
75.4380
 20
53.8480
 30
0.0000
  0
VERTEX
  8
16
 10
74.9300
 20
53.8480
 30
0.0000
 42
1.0000
  0
VERTEX
  8
16
 10
74.9300
 20
52.8320
 30
0.0000
  0
VERTEX
  8
16
 10
75.4380
 20
52.8320
 30
0.0000
 42
1.0000
  0
SEQEND
  8
0
  0
ENDSEC
  0
EOF
